%MOIN*%
%OFA0B0*%
%FSLAX46Y46*%
%IPPOS*%
%LPD*%
%ADD10C,0.0039370078740157488*%
%ADD11C,0.00984251968503937*%
%ADD12C,0.005905511811023622*%
%ADD23C,0.0039370078740157488*%
%ADD24C,0.00984251968503937*%
%ADD25C,0.005905511811023622*%
%ADD26C,0.0039370078740157488*%
%ADD27C,0.00984251968503937*%
%ADD28C,0.005905511811023622*%
%ADD29C,0.0039370078740157488*%
%ADD30C,0.00984251968503937*%
%ADD31C,0.005905511811023622*%
%ADD32C,0.0039370078740157488*%
%ADD33C,0.00984251968503937*%
%ADD34C,0.005905511811023622*%
%ADD35C,0.0039370078740157488*%
%ADD36C,0.00984251968503937*%
%ADD37C,0.005905511811023622*%
%ADD38C,0.0039370078740157488*%
%ADD39C,0.00984251968503937*%
%ADD40C,0.005905511811023622*%
%ADD41C,0.0039370078740157488*%
%ADD42C,0.00984251968503937*%
%ADD43C,0.005905511811023622*%
%ADD44C,0.0039370078740157488*%
%ADD45C,0.00984251968503937*%
%ADD46C,0.005905511811023622*%
%ADD47C,0.0039370078740157488*%
%ADD48C,0.00984251968503937*%
%ADD49C,0.005905511811023622*%
%ADD50C,0.0039370078740157488*%
%ADD51C,0.00984251968503937*%
%ADD52C,0.005905511811023622*%
%ADD53C,0.0039370078740157488*%
%ADD54C,0.00984251968503937*%
%ADD55C,0.005905511811023622*%
G01G01*
D10*
D11*
X0000203224Y0001896559D02*
X0000203224Y0001935929D01*
X0000193850Y0001935929D01*
X0000188226Y0001934055D01*
X0000184476Y0001930305D01*
X0000182602Y0001926556D01*
X0000180727Y0001919057D01*
X0000180727Y0001913432D01*
X0000182602Y0001905933D01*
X0000184476Y0001902184D01*
X0000188226Y0001898434D01*
X0000193850Y0001896559D01*
X0000203224Y0001896559D01*
X0000080333Y0001900309D02*
X0000082208Y0001898434D01*
X0000087832Y0001896559D01*
X0000091582Y0001896559D01*
X0000097206Y0001898434D01*
X0000100956Y0001902184D01*
X0000102830Y0001905933D01*
X0000104705Y0001913432D01*
X0000104705Y0001919057D01*
X0000102830Y0001926556D01*
X0000100956Y0001930305D01*
X0000097206Y0001934055D01*
X0000091582Y0001935929D01*
X0000087832Y0001935929D01*
X0000082208Y0001934055D01*
X0000080333Y0001932180D01*
X0000204161Y0001607189D02*
X0000181664Y0001607189D01*
X0000192913Y0001567819D02*
X0000192913Y0001607189D01*
X0000080333Y0001567819D02*
X0000093457Y0001586567D01*
X0000102830Y0001567819D02*
X0000102830Y0001607189D01*
X0000087832Y0001607189D01*
X0000084083Y0001605314D01*
X0000082208Y0001603440D01*
X0000080333Y0001599690D01*
X0000080333Y0001594066D01*
X0000082208Y0001590316D01*
X0000084083Y0001588442D01*
X0000087832Y0001586567D01*
X0000102830Y0001586567D01*
D12*
X0000426181Y0001702755D02*
X0000426181Y0001683070D01*
X0000384842Y0001683070D02*
X0000384842Y0001702755D01*
X0000405511Y0001887401D02*
X0000395669Y0001895275D01*
X0000415354Y0001895275D02*
X0000405511Y0001887401D01*
X0000426181Y0001901181D02*
X0000426181Y0001859842D01*
X0000384842Y0001901181D02*
X0000384842Y0001859842D01*
X0000101377Y0001636811D02*
X0000081692Y0001636811D01*
X0000081692Y0001674212D02*
X0000101377Y0001674212D01*
X0000081692Y0001768700D02*
X0000101377Y0001768700D01*
X0000101377Y0001731299D02*
X0000081692Y0001731299D01*
X0000081692Y0001721456D02*
X0000101377Y0001721456D01*
X0000101377Y0001684055D02*
X0000081692Y0001684055D01*
X0000405511Y0001622047D02*
X0000415354Y0001614173D01*
X0000395669Y0001614173D02*
X0000405511Y0001622047D01*
X0000384842Y0001608267D02*
X0000384842Y0001649606D01*
X0000426181Y0001608267D02*
X0000426181Y0001649606D01*
X0000426181Y0001834645D02*
X0000426181Y0001814960D01*
X0000384842Y0001814960D02*
X0000384842Y0001834645D01*
X0000108267Y0001778543D02*
X0000088582Y0001778543D01*
X0000088582Y0001819881D02*
X0000108267Y0001819881D01*
X0000108267Y0001829724D02*
X0000088582Y0001829724D01*
X0000088582Y0001871062D02*
X0000108267Y0001871062D01*
X0000155511Y0001857283D02*
X0000155511Y0001832677D01*
X0000362204Y0001650590D02*
X0000362204Y0001675196D01*
X0000155511Y0001650590D02*
X0000155511Y0001675196D01*
X0000362204Y0001857283D02*
X0000337598Y0001857283D01*
X0000362204Y0001650590D02*
X0000337598Y0001650590D01*
X0000155511Y0001650590D02*
X0000180118Y0001650590D01*
X0000155511Y0001857283D02*
X0000180118Y0001857283D01*
X0000027559Y0001647075D02*
X0000028683Y0001645950D01*
X0000032058Y0001644825D01*
X0000034308Y0001644825D01*
X0000037682Y0001645950D01*
X0000039932Y0001648200D01*
X0000041057Y0001650449D01*
X0000042182Y0001654949D01*
X0000042182Y0001658323D01*
X0000041057Y0001662823D01*
X0000039932Y0001665073D01*
X0000037682Y0001667322D01*
X0000034308Y0001668447D01*
X0000032058Y0001668447D01*
X0000028683Y0001667322D01*
X0000027559Y0001666197D01*
X0000005061Y0001644825D02*
X0000018560Y0001644825D01*
X0000011811Y0001644825D02*
X0000011811Y0001668447D01*
X0000014060Y0001665073D01*
X0000016310Y0001662823D01*
X0000018560Y0001661698D01*
X0000032480Y0001741563D02*
X0000033605Y0001740438D01*
X0000036979Y0001739313D01*
X0000039229Y0001739313D01*
X0000042604Y0001740438D01*
X0000044853Y0001742688D01*
X0000045978Y0001744938D01*
X0000047103Y0001749437D01*
X0000047103Y0001752812D01*
X0000045978Y0001757311D01*
X0000044853Y0001759561D01*
X0000042604Y0001761811D01*
X0000039229Y0001762935D01*
X0000036979Y0001762935D01*
X0000033605Y0001761811D01*
X0000032480Y0001760686D01*
X0000023481Y0001760686D02*
X0000022356Y0001761811D01*
X0000020106Y0001762935D01*
X0000014482Y0001762935D01*
X0000012232Y0001761811D01*
X0000011107Y0001760686D01*
X0000009983Y0001758436D01*
X0000009983Y0001756186D01*
X0000011107Y0001752812D01*
X0000024606Y0001739313D01*
X0000009983Y0001739313D01*
X0000032480Y0001694319D02*
X0000033605Y0001693194D01*
X0000036979Y0001692069D01*
X0000039229Y0001692069D01*
X0000042604Y0001693194D01*
X0000044853Y0001695444D01*
X0000045978Y0001697694D01*
X0000047103Y0001702193D01*
X0000047103Y0001705568D01*
X0000045978Y0001710067D01*
X0000044853Y0001712317D01*
X0000042604Y0001714566D01*
X0000039229Y0001715691D01*
X0000036979Y0001715691D01*
X0000033605Y0001714566D01*
X0000032480Y0001713442D01*
X0000024606Y0001715691D02*
X0000009983Y0001715691D01*
X0000017857Y0001706692D01*
X0000014482Y0001706692D01*
X0000012232Y0001705568D01*
X0000011107Y0001704443D01*
X0000009983Y0001702193D01*
X0000009983Y0001696569D01*
X0000011107Y0001694319D01*
X0000012232Y0001693194D01*
X0000014482Y0001692069D01*
X0000021231Y0001692069D01*
X0000023481Y0001693194D01*
X0000024606Y0001694319D01*
X0000047244Y0001788526D02*
X0000055118Y0001799775D01*
X0000060742Y0001788526D02*
X0000060742Y0001812148D01*
X0000051743Y0001812148D01*
X0000049493Y0001811023D01*
X0000048368Y0001809898D01*
X0000047244Y0001807649D01*
X0000047244Y0001804274D01*
X0000048368Y0001802024D01*
X0000049493Y0001800899D01*
X0000051743Y0001799775D01*
X0000060742Y0001799775D01*
X0000039370Y0001812148D02*
X0000024746Y0001812148D01*
X0000032620Y0001803149D01*
X0000029246Y0001803149D01*
X0000026996Y0001802024D01*
X0000025871Y0001800899D01*
X0000024746Y0001798650D01*
X0000024746Y0001793025D01*
X0000025871Y0001790776D01*
X0000026996Y0001789651D01*
X0000029246Y0001788526D01*
X0000035995Y0001788526D01*
X0000038245Y0001789651D01*
X0000039370Y0001790776D01*
X0000047244Y0001839707D02*
X0000055118Y0001850956D01*
X0000060742Y0001839707D02*
X0000060742Y0001863329D01*
X0000051743Y0001863329D01*
X0000049493Y0001862204D01*
X0000048368Y0001861079D01*
X0000047244Y0001858830D01*
X0000047244Y0001855455D01*
X0000048368Y0001853205D01*
X0000049493Y0001852081D01*
X0000051743Y0001850956D01*
X0000060742Y0001850956D01*
X0000026996Y0001855455D02*
X0000026996Y0001839707D01*
X0000032620Y0001864454D02*
X0000038245Y0001847581D01*
X0000023622Y0001847581D01*
G04 next file*
G04 #@! TF.GenerationSoftware,KiCad,Pcbnew,(2017-01-20 revision 550a1ea)-makepkg*
G04 #@! TF.CreationDate,2017-01-30T22:44:56+01:00*
G04 #@! TF.ProjectId,tomu,746F6D752E6B696361645F7063620000,rev?*
G04 #@! TF.FileFunction,Legend,Bot*
G04 #@! TF.FilePolarity,Positive*
G04 Gerber Fmt 4.6, Leading zero omitted, Abs format (unit mm)*
G04 Created by KiCad (PCBNEW (2017-01-20 revision 550a1ea)-makepkg) date 01/30/17 22:44:56*
G01G01*
G04 APERTURE LIST*
G04 APERTURE END LIST*
D23*
D24*
X0000793775Y0001896559D02*
X0000793775Y0001935929D01*
X0000784401Y0001935929D01*
X0000778777Y0001934055D01*
X0000775028Y0001930305D01*
X0000773153Y0001926556D01*
X0000771278Y0001919057D01*
X0000771278Y0001913432D01*
X0000773153Y0001905933D01*
X0000775028Y0001902184D01*
X0000778777Y0001898434D01*
X0000784401Y0001896559D01*
X0000793775Y0001896559D01*
X0000670884Y0001900309D02*
X0000672759Y0001898434D01*
X0000678383Y0001896559D01*
X0000682133Y0001896559D01*
X0000687757Y0001898434D01*
X0000691507Y0001902184D01*
X0000693382Y0001905933D01*
X0000695256Y0001913432D01*
X0000695256Y0001919057D01*
X0000693382Y0001926556D01*
X0000691507Y0001930305D01*
X0000687757Y0001934055D01*
X0000682133Y0001935929D01*
X0000678383Y0001935929D01*
X0000672759Y0001934055D01*
X0000670884Y0001932180D01*
X0000794713Y0001607189D02*
X0000772215Y0001607189D01*
X0000783464Y0001567819D02*
X0000783464Y0001607189D01*
X0000670884Y0001567819D02*
X0000684008Y0001586567D01*
X0000693382Y0001567819D02*
X0000693382Y0001607189D01*
X0000678383Y0001607189D01*
X0000674634Y0001605314D01*
X0000672759Y0001603440D01*
X0000670884Y0001599690D01*
X0000670884Y0001594066D01*
X0000672759Y0001590316D01*
X0000674634Y0001588442D01*
X0000678383Y0001586567D01*
X0000693382Y0001586567D01*
D25*
X0001016732Y0001702755D02*
X0001016732Y0001683070D01*
X0000975393Y0001683070D02*
X0000975393Y0001702755D01*
X0000996062Y0001887401D02*
X0000986220Y0001895275D01*
X0001005905Y0001895275D02*
X0000996062Y0001887401D01*
X0001016732Y0001901181D02*
X0001016732Y0001859842D01*
X0000975393Y0001901181D02*
X0000975393Y0001859842D01*
X0000691929Y0001636811D02*
X0000672244Y0001636811D01*
X0000672244Y0001674212D02*
X0000691929Y0001674212D01*
X0000672244Y0001768700D02*
X0000691929Y0001768700D01*
X0000691929Y0001731299D02*
X0000672244Y0001731299D01*
X0000672244Y0001721456D02*
X0000691929Y0001721456D01*
X0000691929Y0001684055D02*
X0000672244Y0001684055D01*
X0000996062Y0001622047D02*
X0001005905Y0001614173D01*
X0000986220Y0001614173D02*
X0000996062Y0001622047D01*
X0000975393Y0001608267D02*
X0000975393Y0001649606D01*
X0001016732Y0001608267D02*
X0001016732Y0001649606D01*
X0001016732Y0001834645D02*
X0001016732Y0001814960D01*
X0000975393Y0001814960D02*
X0000975393Y0001834645D01*
X0000698818Y0001778543D02*
X0000679133Y0001778543D01*
X0000679133Y0001819881D02*
X0000698818Y0001819881D01*
X0000698818Y0001829724D02*
X0000679133Y0001829724D01*
X0000679133Y0001871062D02*
X0000698818Y0001871062D01*
X0000746062Y0001857283D02*
X0000746062Y0001832677D01*
X0000952755Y0001650590D02*
X0000952755Y0001675196D01*
X0000746062Y0001650590D02*
X0000746062Y0001675196D01*
X0000952755Y0001857283D02*
X0000928149Y0001857283D01*
X0000952755Y0001650590D02*
X0000928149Y0001650590D01*
X0000746062Y0001650590D02*
X0000770669Y0001650590D01*
X0000746062Y0001857283D02*
X0000770669Y0001857283D01*
X0000618110Y0001647075D02*
X0000619235Y0001645950D01*
X0000622609Y0001644825D01*
X0000624859Y0001644825D01*
X0000628233Y0001645950D01*
X0000630483Y0001648200D01*
X0000631608Y0001650449D01*
X0000632733Y0001654949D01*
X0000632733Y0001658323D01*
X0000631608Y0001662823D01*
X0000630483Y0001665073D01*
X0000628233Y0001667322D01*
X0000624859Y0001668447D01*
X0000622609Y0001668447D01*
X0000619235Y0001667322D01*
X0000618110Y0001666197D01*
X0000595613Y0001644825D02*
X0000609111Y0001644825D01*
X0000602362Y0001644825D02*
X0000602362Y0001668447D01*
X0000604611Y0001665073D01*
X0000606861Y0001662823D01*
X0000609111Y0001661698D01*
X0000623031Y0001741563D02*
X0000624156Y0001740438D01*
X0000627530Y0001739313D01*
X0000629780Y0001739313D01*
X0000633155Y0001740438D01*
X0000635404Y0001742688D01*
X0000636529Y0001744938D01*
X0000637654Y0001749437D01*
X0000637654Y0001752812D01*
X0000636529Y0001757311D01*
X0000635404Y0001759561D01*
X0000633155Y0001761811D01*
X0000629780Y0001762935D01*
X0000627530Y0001762935D01*
X0000624156Y0001761811D01*
X0000623031Y0001760686D01*
X0000614032Y0001760686D02*
X0000612907Y0001761811D01*
X0000610658Y0001762935D01*
X0000605033Y0001762935D01*
X0000602784Y0001761811D01*
X0000601659Y0001760686D01*
X0000600534Y0001758436D01*
X0000600534Y0001756186D01*
X0000601659Y0001752812D01*
X0000615157Y0001739313D01*
X0000600534Y0001739313D01*
X0000623031Y0001694319D02*
X0000624156Y0001693194D01*
X0000627530Y0001692069D01*
X0000629780Y0001692069D01*
X0000633155Y0001693194D01*
X0000635404Y0001695444D01*
X0000636529Y0001697694D01*
X0000637654Y0001702193D01*
X0000637654Y0001705568D01*
X0000636529Y0001710067D01*
X0000635404Y0001712317D01*
X0000633155Y0001714566D01*
X0000629780Y0001715691D01*
X0000627530Y0001715691D01*
X0000624156Y0001714566D01*
X0000623031Y0001713442D01*
X0000615157Y0001715691D02*
X0000600534Y0001715691D01*
X0000608408Y0001706692D01*
X0000605033Y0001706692D01*
X0000602784Y0001705568D01*
X0000601659Y0001704443D01*
X0000600534Y0001702193D01*
X0000600534Y0001696569D01*
X0000601659Y0001694319D01*
X0000602784Y0001693194D01*
X0000605033Y0001692069D01*
X0000611782Y0001692069D01*
X0000614032Y0001693194D01*
X0000615157Y0001694319D01*
X0000637795Y0001788526D02*
X0000645669Y0001799775D01*
X0000651293Y0001788526D02*
X0000651293Y0001812148D01*
X0000642294Y0001812148D01*
X0000640044Y0001811023D01*
X0000638920Y0001809898D01*
X0000637795Y0001807649D01*
X0000637795Y0001804274D01*
X0000638920Y0001802024D01*
X0000640044Y0001800899D01*
X0000642294Y0001799775D01*
X0000651293Y0001799775D01*
X0000629921Y0001812148D02*
X0000615298Y0001812148D01*
X0000623172Y0001803149D01*
X0000619797Y0001803149D01*
X0000617547Y0001802024D01*
X0000616422Y0001800899D01*
X0000615298Y0001798650D01*
X0000615298Y0001793025D01*
X0000616422Y0001790776D01*
X0000617547Y0001789651D01*
X0000619797Y0001788526D01*
X0000626546Y0001788526D01*
X0000628796Y0001789651D01*
X0000629921Y0001790776D01*
X0000637795Y0001839707D02*
X0000645669Y0001850956D01*
X0000651293Y0001839707D02*
X0000651293Y0001863329D01*
X0000642294Y0001863329D01*
X0000640044Y0001862204D01*
X0000638920Y0001861079D01*
X0000637795Y0001858830D01*
X0000637795Y0001855455D01*
X0000638920Y0001853205D01*
X0000640044Y0001852081D01*
X0000642294Y0001850956D01*
X0000651293Y0001850956D01*
X0000617547Y0001855455D02*
X0000617547Y0001839707D01*
X0000623172Y0001864454D02*
X0000628796Y0001847581D01*
X0000614173Y0001847581D01*
G04 next file*
G04 #@! TF.GenerationSoftware,KiCad,Pcbnew,(2017-01-20 revision 550a1ea)-makepkg*
G04 #@! TF.CreationDate,2017-01-30T22:44:56+01:00*
G04 #@! TF.ProjectId,tomu,746F6D752E6B696361645F7063620000,rev?*
G04 #@! TF.FileFunction,Legend,Bot*
G04 #@! TF.FilePolarity,Positive*
G04 Gerber Fmt 4.6, Leading zero omitted, Abs format (unit mm)*
G04 Created by KiCad (PCBNEW (2017-01-20 revision 550a1ea)-makepkg) date 01/30/17 22:44:56*
G01G01*
G04 APERTURE LIST*
G04 APERTURE END LIST*
D26*
D27*
X0001384326Y0001896559D02*
X0001384326Y0001935929D01*
X0001374953Y0001935929D01*
X0001369328Y0001934055D01*
X0001365579Y0001930305D01*
X0001363704Y0001926556D01*
X0001361829Y0001919057D01*
X0001361829Y0001913432D01*
X0001363704Y0001905933D01*
X0001365579Y0001902184D01*
X0001369328Y0001898434D01*
X0001374953Y0001896559D01*
X0001384326Y0001896559D01*
X0001261436Y0001900309D02*
X0001263310Y0001898434D01*
X0001268935Y0001896559D01*
X0001272684Y0001896559D01*
X0001278308Y0001898434D01*
X0001282058Y0001902184D01*
X0001283933Y0001905933D01*
X0001285807Y0001913432D01*
X0001285807Y0001919057D01*
X0001283933Y0001926556D01*
X0001282058Y0001930305D01*
X0001278308Y0001934055D01*
X0001272684Y0001935929D01*
X0001268935Y0001935929D01*
X0001263310Y0001934055D01*
X0001261436Y0001932180D01*
X0001385264Y0001607189D02*
X0001362767Y0001607189D01*
X0001374015Y0001567819D02*
X0001374015Y0001607189D01*
X0001261436Y0001567819D02*
X0001274559Y0001586567D01*
X0001283933Y0001567819D02*
X0001283933Y0001607189D01*
X0001268935Y0001607189D01*
X0001265185Y0001605314D01*
X0001263310Y0001603440D01*
X0001261436Y0001599690D01*
X0001261436Y0001594066D01*
X0001263310Y0001590316D01*
X0001265185Y0001588442D01*
X0001268935Y0001586567D01*
X0001283933Y0001586567D01*
D28*
X0001607283Y0001702755D02*
X0001607283Y0001683070D01*
X0001565944Y0001683070D02*
X0001565944Y0001702755D01*
X0001586614Y0001887401D02*
X0001576771Y0001895275D01*
X0001596456Y0001895275D02*
X0001586614Y0001887401D01*
X0001607283Y0001901181D02*
X0001607283Y0001859842D01*
X0001565944Y0001901181D02*
X0001565944Y0001859842D01*
X0001282480Y0001636811D02*
X0001262795Y0001636811D01*
X0001262795Y0001674212D02*
X0001282480Y0001674212D01*
X0001262795Y0001768700D02*
X0001282480Y0001768700D01*
X0001282480Y0001731299D02*
X0001262795Y0001731299D01*
X0001262795Y0001721456D02*
X0001282480Y0001721456D01*
X0001282480Y0001684055D02*
X0001262795Y0001684055D01*
X0001586614Y0001622047D02*
X0001596456Y0001614173D01*
X0001576771Y0001614173D02*
X0001586614Y0001622047D01*
X0001565944Y0001608267D02*
X0001565944Y0001649606D01*
X0001607283Y0001608267D02*
X0001607283Y0001649606D01*
X0001607283Y0001834645D02*
X0001607283Y0001814960D01*
X0001565944Y0001814960D02*
X0001565944Y0001834645D01*
X0001289370Y0001778543D02*
X0001269685Y0001778543D01*
X0001269685Y0001819881D02*
X0001289370Y0001819881D01*
X0001289370Y0001829724D02*
X0001269685Y0001829724D01*
X0001269685Y0001871062D02*
X0001289370Y0001871062D01*
X0001336614Y0001857283D02*
X0001336614Y0001832677D01*
X0001543307Y0001650590D02*
X0001543307Y0001675196D01*
X0001336614Y0001650590D02*
X0001336614Y0001675196D01*
X0001543307Y0001857283D02*
X0001518700Y0001857283D01*
X0001543307Y0001650590D02*
X0001518700Y0001650590D01*
X0001336614Y0001650590D02*
X0001361220Y0001650590D01*
X0001336614Y0001857283D02*
X0001361220Y0001857283D01*
X0001208661Y0001647075D02*
X0001209786Y0001645950D01*
X0001213160Y0001644825D01*
X0001215410Y0001644825D01*
X0001218785Y0001645950D01*
X0001221034Y0001648200D01*
X0001222159Y0001650449D01*
X0001223284Y0001654949D01*
X0001223284Y0001658323D01*
X0001222159Y0001662823D01*
X0001221034Y0001665073D01*
X0001218785Y0001667322D01*
X0001215410Y0001668447D01*
X0001213160Y0001668447D01*
X0001209786Y0001667322D01*
X0001208661Y0001666197D01*
X0001186164Y0001644825D02*
X0001199662Y0001644825D01*
X0001192913Y0001644825D02*
X0001192913Y0001668447D01*
X0001195163Y0001665073D01*
X0001197412Y0001662823D01*
X0001199662Y0001661698D01*
X0001213582Y0001741563D02*
X0001214707Y0001740438D01*
X0001218082Y0001739313D01*
X0001220331Y0001739313D01*
X0001223706Y0001740438D01*
X0001225956Y0001742688D01*
X0001227080Y0001744938D01*
X0001228205Y0001749437D01*
X0001228205Y0001752812D01*
X0001227080Y0001757311D01*
X0001225956Y0001759561D01*
X0001223706Y0001761811D01*
X0001220331Y0001762935D01*
X0001218082Y0001762935D01*
X0001214707Y0001761811D01*
X0001213582Y0001760686D01*
X0001204583Y0001760686D02*
X0001203458Y0001761811D01*
X0001201209Y0001762935D01*
X0001195584Y0001762935D01*
X0001193335Y0001761811D01*
X0001192210Y0001760686D01*
X0001191085Y0001758436D01*
X0001191085Y0001756186D01*
X0001192210Y0001752812D01*
X0001205708Y0001739313D01*
X0001191085Y0001739313D01*
X0001213582Y0001694319D02*
X0001214707Y0001693194D01*
X0001218082Y0001692069D01*
X0001220331Y0001692069D01*
X0001223706Y0001693194D01*
X0001225956Y0001695444D01*
X0001227080Y0001697694D01*
X0001228205Y0001702193D01*
X0001228205Y0001705568D01*
X0001227080Y0001710067D01*
X0001225956Y0001712317D01*
X0001223706Y0001714566D01*
X0001220331Y0001715691D01*
X0001218082Y0001715691D01*
X0001214707Y0001714566D01*
X0001213582Y0001713442D01*
X0001205708Y0001715691D02*
X0001191085Y0001715691D01*
X0001198959Y0001706692D01*
X0001195584Y0001706692D01*
X0001193335Y0001705568D01*
X0001192210Y0001704443D01*
X0001191085Y0001702193D01*
X0001191085Y0001696569D01*
X0001192210Y0001694319D01*
X0001193335Y0001693194D01*
X0001195584Y0001692069D01*
X0001202334Y0001692069D01*
X0001204583Y0001693194D01*
X0001205708Y0001694319D01*
X0001228346Y0001788526D02*
X0001236220Y0001799775D01*
X0001241844Y0001788526D02*
X0001241844Y0001812148D01*
X0001232845Y0001812148D01*
X0001230596Y0001811023D01*
X0001229471Y0001809898D01*
X0001228346Y0001807649D01*
X0001228346Y0001804274D01*
X0001229471Y0001802024D01*
X0001230596Y0001800899D01*
X0001232845Y0001799775D01*
X0001241844Y0001799775D01*
X0001220472Y0001812148D02*
X0001205849Y0001812148D01*
X0001213723Y0001803149D01*
X0001210348Y0001803149D01*
X0001208098Y0001802024D01*
X0001206974Y0001800899D01*
X0001205849Y0001798650D01*
X0001205849Y0001793025D01*
X0001206974Y0001790776D01*
X0001208098Y0001789651D01*
X0001210348Y0001788526D01*
X0001217097Y0001788526D01*
X0001219347Y0001789651D01*
X0001220472Y0001790776D01*
X0001228346Y0001839707D02*
X0001236220Y0001850956D01*
X0001241844Y0001839707D02*
X0001241844Y0001863329D01*
X0001232845Y0001863329D01*
X0001230596Y0001862204D01*
X0001229471Y0001861079D01*
X0001228346Y0001858830D01*
X0001228346Y0001855455D01*
X0001229471Y0001853205D01*
X0001230596Y0001852081D01*
X0001232845Y0001850956D01*
X0001241844Y0001850956D01*
X0001208098Y0001855455D02*
X0001208098Y0001839707D01*
X0001213723Y0001864454D02*
X0001219347Y0001847581D01*
X0001204724Y0001847581D01*
G04 next file*
G04 #@! TF.GenerationSoftware,KiCad,Pcbnew,(2017-01-20 revision 550a1ea)-makepkg*
G04 #@! TF.CreationDate,2017-01-30T22:44:56+01:00*
G04 #@! TF.ProjectId,tomu,746F6D752E6B696361645F7063620000,rev?*
G04 #@! TF.FileFunction,Legend,Bot*
G04 #@! TF.FilePolarity,Positive*
G04 Gerber Fmt 4.6, Leading zero omitted, Abs format (unit mm)*
G04 Created by KiCad (PCBNEW (2017-01-20 revision 550a1ea)-makepkg) date 01/30/17 22:44:56*
G01G01*
G04 APERTURE LIST*
G04 APERTURE END LIST*
D29*
D30*
X0000203224Y0001384748D02*
X0000203224Y0001424118D01*
X0000193850Y0001424118D01*
X0000188226Y0001422244D01*
X0000184476Y0001418494D01*
X0000182602Y0001414745D01*
X0000180727Y0001407245D01*
X0000180727Y0001401621D01*
X0000182602Y0001394122D01*
X0000184476Y0001390373D01*
X0000188226Y0001386623D01*
X0000193850Y0001384748D01*
X0000203224Y0001384748D01*
X0000080333Y0001388498D02*
X0000082208Y0001386623D01*
X0000087832Y0001384748D01*
X0000091582Y0001384748D01*
X0000097206Y0001386623D01*
X0000100956Y0001390373D01*
X0000102830Y0001394122D01*
X0000104705Y0001401621D01*
X0000104705Y0001407245D01*
X0000102830Y0001414745D01*
X0000100956Y0001418494D01*
X0000097206Y0001422244D01*
X0000091582Y0001424118D01*
X0000087832Y0001424118D01*
X0000082208Y0001422244D01*
X0000080333Y0001420369D01*
X0000204161Y0001095378D02*
X0000181664Y0001095378D01*
X0000192913Y0001056008D02*
X0000192913Y0001095378D01*
X0000080333Y0001056008D02*
X0000093457Y0001074756D01*
X0000102830Y0001056008D02*
X0000102830Y0001095378D01*
X0000087832Y0001095378D01*
X0000084083Y0001093503D01*
X0000082208Y0001091629D01*
X0000080333Y0001087879D01*
X0000080333Y0001082255D01*
X0000082208Y0001078505D01*
X0000084083Y0001076631D01*
X0000087832Y0001074756D01*
X0000102830Y0001074756D01*
D31*
X0000426181Y0001190944D02*
X0000426181Y0001171259D01*
X0000384842Y0001171259D02*
X0000384842Y0001190944D01*
X0000405511Y0001375590D02*
X0000395669Y0001383464D01*
X0000415354Y0001383464D02*
X0000405511Y0001375590D01*
X0000426181Y0001389370D02*
X0000426181Y0001348031D01*
X0000384842Y0001389370D02*
X0000384842Y0001348031D01*
X0000101377Y0001125000D02*
X0000081692Y0001125000D01*
X0000081692Y0001162401D02*
X0000101377Y0001162401D01*
X0000081692Y0001256889D02*
X0000101377Y0001256889D01*
X0000101377Y0001219488D02*
X0000081692Y0001219488D01*
X0000081692Y0001209645D02*
X0000101377Y0001209645D01*
X0000101377Y0001172244D02*
X0000081692Y0001172244D01*
X0000405511Y0001110236D02*
X0000415354Y0001102362D01*
X0000395669Y0001102362D02*
X0000405511Y0001110236D01*
X0000384842Y0001096456D02*
X0000384842Y0001137795D01*
X0000426181Y0001096456D02*
X0000426181Y0001137795D01*
X0000426181Y0001322834D02*
X0000426181Y0001303149D01*
X0000384842Y0001303149D02*
X0000384842Y0001322834D01*
X0000108267Y0001266732D02*
X0000088582Y0001266732D01*
X0000088582Y0001308070D02*
X0000108267Y0001308070D01*
X0000108267Y0001317913D02*
X0000088582Y0001317913D01*
X0000088582Y0001359251D02*
X0000108267Y0001359251D01*
X0000155511Y0001345472D02*
X0000155511Y0001320866D01*
X0000362204Y0001138779D02*
X0000362204Y0001163385D01*
X0000155511Y0001138779D02*
X0000155511Y0001163385D01*
X0000362204Y0001345472D02*
X0000337598Y0001345472D01*
X0000362204Y0001138779D02*
X0000337598Y0001138779D01*
X0000155511Y0001138779D02*
X0000180118Y0001138779D01*
X0000155511Y0001345472D02*
X0000180118Y0001345472D01*
X0000027559Y0001135264D02*
X0000028683Y0001134139D01*
X0000032058Y0001133014D01*
X0000034308Y0001133014D01*
X0000037682Y0001134139D01*
X0000039932Y0001136389D01*
X0000041057Y0001138638D01*
X0000042182Y0001143138D01*
X0000042182Y0001146512D01*
X0000041057Y0001151012D01*
X0000039932Y0001153262D01*
X0000037682Y0001155511D01*
X0000034308Y0001156636D01*
X0000032058Y0001156636D01*
X0000028683Y0001155511D01*
X0000027559Y0001154386D01*
X0000005061Y0001133014D02*
X0000018560Y0001133014D01*
X0000011811Y0001133014D02*
X0000011811Y0001156636D01*
X0000014060Y0001153262D01*
X0000016310Y0001151012D01*
X0000018560Y0001149887D01*
X0000032480Y0001229752D02*
X0000033605Y0001228627D01*
X0000036979Y0001227502D01*
X0000039229Y0001227502D01*
X0000042604Y0001228627D01*
X0000044853Y0001230877D01*
X0000045978Y0001233127D01*
X0000047103Y0001237626D01*
X0000047103Y0001241001D01*
X0000045978Y0001245500D01*
X0000044853Y0001247750D01*
X0000042604Y0001250000D01*
X0000039229Y0001251124D01*
X0000036979Y0001251124D01*
X0000033605Y0001250000D01*
X0000032480Y0001248875D01*
X0000023481Y0001248875D02*
X0000022356Y0001250000D01*
X0000020106Y0001251124D01*
X0000014482Y0001251124D01*
X0000012232Y0001250000D01*
X0000011107Y0001248875D01*
X0000009983Y0001246625D01*
X0000009983Y0001244375D01*
X0000011107Y0001241001D01*
X0000024606Y0001227502D01*
X0000009983Y0001227502D01*
X0000032480Y0001182508D02*
X0000033605Y0001181383D01*
X0000036979Y0001180258D01*
X0000039229Y0001180258D01*
X0000042604Y0001181383D01*
X0000044853Y0001183633D01*
X0000045978Y0001185883D01*
X0000047103Y0001190382D01*
X0000047103Y0001193757D01*
X0000045978Y0001198256D01*
X0000044853Y0001200506D01*
X0000042604Y0001202755D01*
X0000039229Y0001203880D01*
X0000036979Y0001203880D01*
X0000033605Y0001202755D01*
X0000032480Y0001201631D01*
X0000024606Y0001203880D02*
X0000009983Y0001203880D01*
X0000017857Y0001194881D01*
X0000014482Y0001194881D01*
X0000012232Y0001193757D01*
X0000011107Y0001192632D01*
X0000009983Y0001190382D01*
X0000009983Y0001184758D01*
X0000011107Y0001182508D01*
X0000012232Y0001181383D01*
X0000014482Y0001180258D01*
X0000021231Y0001180258D01*
X0000023481Y0001181383D01*
X0000024606Y0001182508D01*
X0000047244Y0001276715D02*
X0000055118Y0001287964D01*
X0000060742Y0001276715D02*
X0000060742Y0001300337D01*
X0000051743Y0001300337D01*
X0000049493Y0001299212D01*
X0000048368Y0001298087D01*
X0000047244Y0001295837D01*
X0000047244Y0001292463D01*
X0000048368Y0001290213D01*
X0000049493Y0001289088D01*
X0000051743Y0001287964D01*
X0000060742Y0001287964D01*
X0000039370Y0001300337D02*
X0000024746Y0001300337D01*
X0000032620Y0001291338D01*
X0000029246Y0001291338D01*
X0000026996Y0001290213D01*
X0000025871Y0001289088D01*
X0000024746Y0001286839D01*
X0000024746Y0001281214D01*
X0000025871Y0001278965D01*
X0000026996Y0001277840D01*
X0000029246Y0001276715D01*
X0000035995Y0001276715D01*
X0000038245Y0001277840D01*
X0000039370Y0001278965D01*
X0000047244Y0001327896D02*
X0000055118Y0001339145D01*
X0000060742Y0001327896D02*
X0000060742Y0001351518D01*
X0000051743Y0001351518D01*
X0000049493Y0001350393D01*
X0000048368Y0001349268D01*
X0000047244Y0001347019D01*
X0000047244Y0001343644D01*
X0000048368Y0001341394D01*
X0000049493Y0001340270D01*
X0000051743Y0001339145D01*
X0000060742Y0001339145D01*
X0000026996Y0001343644D02*
X0000026996Y0001327896D01*
X0000032620Y0001352643D02*
X0000038245Y0001335770D01*
X0000023622Y0001335770D01*
G04 next file*
G04 #@! TF.GenerationSoftware,KiCad,Pcbnew,(2017-01-20 revision 550a1ea)-makepkg*
G04 #@! TF.CreationDate,2017-01-30T22:44:56+01:00*
G04 #@! TF.ProjectId,tomu,746F6D752E6B696361645F7063620000,rev?*
G04 #@! TF.FileFunction,Legend,Bot*
G04 #@! TF.FilePolarity,Positive*
G04 Gerber Fmt 4.6, Leading zero omitted, Abs format (unit mm)*
G04 Created by KiCad (PCBNEW (2017-01-20 revision 550a1ea)-makepkg) date 01/30/17 22:44:56*
G01G01*
G04 APERTURE LIST*
G04 APERTURE END LIST*
D32*
D33*
X0000793775Y0001384748D02*
X0000793775Y0001424118D01*
X0000784401Y0001424118D01*
X0000778777Y0001422244D01*
X0000775028Y0001418494D01*
X0000773153Y0001414745D01*
X0000771278Y0001407245D01*
X0000771278Y0001401621D01*
X0000773153Y0001394122D01*
X0000775028Y0001390373D01*
X0000778777Y0001386623D01*
X0000784401Y0001384748D01*
X0000793775Y0001384748D01*
X0000670884Y0001388498D02*
X0000672759Y0001386623D01*
X0000678383Y0001384748D01*
X0000682133Y0001384748D01*
X0000687757Y0001386623D01*
X0000691507Y0001390373D01*
X0000693382Y0001394122D01*
X0000695256Y0001401621D01*
X0000695256Y0001407245D01*
X0000693382Y0001414745D01*
X0000691507Y0001418494D01*
X0000687757Y0001422244D01*
X0000682133Y0001424118D01*
X0000678383Y0001424118D01*
X0000672759Y0001422244D01*
X0000670884Y0001420369D01*
X0000794713Y0001095378D02*
X0000772215Y0001095378D01*
X0000783464Y0001056008D02*
X0000783464Y0001095378D01*
X0000670884Y0001056008D02*
X0000684008Y0001074756D01*
X0000693382Y0001056008D02*
X0000693382Y0001095378D01*
X0000678383Y0001095378D01*
X0000674634Y0001093503D01*
X0000672759Y0001091629D01*
X0000670884Y0001087879D01*
X0000670884Y0001082255D01*
X0000672759Y0001078505D01*
X0000674634Y0001076631D01*
X0000678383Y0001074756D01*
X0000693382Y0001074756D01*
D34*
X0001016732Y0001190944D02*
X0001016732Y0001171259D01*
X0000975393Y0001171259D02*
X0000975393Y0001190944D01*
X0000996062Y0001375590D02*
X0000986220Y0001383464D01*
X0001005905Y0001383464D02*
X0000996062Y0001375590D01*
X0001016732Y0001389370D02*
X0001016732Y0001348031D01*
X0000975393Y0001389370D02*
X0000975393Y0001348031D01*
X0000691929Y0001125000D02*
X0000672244Y0001125000D01*
X0000672244Y0001162401D02*
X0000691929Y0001162401D01*
X0000672244Y0001256889D02*
X0000691929Y0001256889D01*
X0000691929Y0001219488D02*
X0000672244Y0001219488D01*
X0000672244Y0001209645D02*
X0000691929Y0001209645D01*
X0000691929Y0001172244D02*
X0000672244Y0001172244D01*
X0000996062Y0001110236D02*
X0001005905Y0001102362D01*
X0000986220Y0001102362D02*
X0000996062Y0001110236D01*
X0000975393Y0001096456D02*
X0000975393Y0001137795D01*
X0001016732Y0001096456D02*
X0001016732Y0001137795D01*
X0001016732Y0001322834D02*
X0001016732Y0001303149D01*
X0000975393Y0001303149D02*
X0000975393Y0001322834D01*
X0000698818Y0001266732D02*
X0000679133Y0001266732D01*
X0000679133Y0001308070D02*
X0000698818Y0001308070D01*
X0000698818Y0001317913D02*
X0000679133Y0001317913D01*
X0000679133Y0001359251D02*
X0000698818Y0001359251D01*
X0000746062Y0001345472D02*
X0000746062Y0001320866D01*
X0000952755Y0001138779D02*
X0000952755Y0001163385D01*
X0000746062Y0001138779D02*
X0000746062Y0001163385D01*
X0000952755Y0001345472D02*
X0000928149Y0001345472D01*
X0000952755Y0001138779D02*
X0000928149Y0001138779D01*
X0000746062Y0001138779D02*
X0000770669Y0001138779D01*
X0000746062Y0001345472D02*
X0000770669Y0001345472D01*
X0000618110Y0001135264D02*
X0000619235Y0001134139D01*
X0000622609Y0001133014D01*
X0000624859Y0001133014D01*
X0000628233Y0001134139D01*
X0000630483Y0001136389D01*
X0000631608Y0001138638D01*
X0000632733Y0001143138D01*
X0000632733Y0001146512D01*
X0000631608Y0001151012D01*
X0000630483Y0001153262D01*
X0000628233Y0001155511D01*
X0000624859Y0001156636D01*
X0000622609Y0001156636D01*
X0000619235Y0001155511D01*
X0000618110Y0001154386D01*
X0000595613Y0001133014D02*
X0000609111Y0001133014D01*
X0000602362Y0001133014D02*
X0000602362Y0001156636D01*
X0000604611Y0001153262D01*
X0000606861Y0001151012D01*
X0000609111Y0001149887D01*
X0000623031Y0001229752D02*
X0000624156Y0001228627D01*
X0000627530Y0001227502D01*
X0000629780Y0001227502D01*
X0000633155Y0001228627D01*
X0000635404Y0001230877D01*
X0000636529Y0001233127D01*
X0000637654Y0001237626D01*
X0000637654Y0001241001D01*
X0000636529Y0001245500D01*
X0000635404Y0001247750D01*
X0000633155Y0001250000D01*
X0000629780Y0001251124D01*
X0000627530Y0001251124D01*
X0000624156Y0001250000D01*
X0000623031Y0001248875D01*
X0000614032Y0001248875D02*
X0000612907Y0001250000D01*
X0000610658Y0001251124D01*
X0000605033Y0001251124D01*
X0000602784Y0001250000D01*
X0000601659Y0001248875D01*
X0000600534Y0001246625D01*
X0000600534Y0001244375D01*
X0000601659Y0001241001D01*
X0000615157Y0001227502D01*
X0000600534Y0001227502D01*
X0000623031Y0001182508D02*
X0000624156Y0001181383D01*
X0000627530Y0001180258D01*
X0000629780Y0001180258D01*
X0000633155Y0001181383D01*
X0000635404Y0001183633D01*
X0000636529Y0001185883D01*
X0000637654Y0001190382D01*
X0000637654Y0001193757D01*
X0000636529Y0001198256D01*
X0000635404Y0001200506D01*
X0000633155Y0001202755D01*
X0000629780Y0001203880D01*
X0000627530Y0001203880D01*
X0000624156Y0001202755D01*
X0000623031Y0001201631D01*
X0000615157Y0001203880D02*
X0000600534Y0001203880D01*
X0000608408Y0001194881D01*
X0000605033Y0001194881D01*
X0000602784Y0001193757D01*
X0000601659Y0001192632D01*
X0000600534Y0001190382D01*
X0000600534Y0001184758D01*
X0000601659Y0001182508D01*
X0000602784Y0001181383D01*
X0000605033Y0001180258D01*
X0000611782Y0001180258D01*
X0000614032Y0001181383D01*
X0000615157Y0001182508D01*
X0000637795Y0001276715D02*
X0000645669Y0001287964D01*
X0000651293Y0001276715D02*
X0000651293Y0001300337D01*
X0000642294Y0001300337D01*
X0000640044Y0001299212D01*
X0000638920Y0001298087D01*
X0000637795Y0001295837D01*
X0000637795Y0001292463D01*
X0000638920Y0001290213D01*
X0000640044Y0001289088D01*
X0000642294Y0001287964D01*
X0000651293Y0001287964D01*
X0000629921Y0001300337D02*
X0000615298Y0001300337D01*
X0000623172Y0001291338D01*
X0000619797Y0001291338D01*
X0000617547Y0001290213D01*
X0000616422Y0001289088D01*
X0000615298Y0001286839D01*
X0000615298Y0001281214D01*
X0000616422Y0001278965D01*
X0000617547Y0001277840D01*
X0000619797Y0001276715D01*
X0000626546Y0001276715D01*
X0000628796Y0001277840D01*
X0000629921Y0001278965D01*
X0000637795Y0001327896D02*
X0000645669Y0001339145D01*
X0000651293Y0001327896D02*
X0000651293Y0001351518D01*
X0000642294Y0001351518D01*
X0000640044Y0001350393D01*
X0000638920Y0001349268D01*
X0000637795Y0001347019D01*
X0000637795Y0001343644D01*
X0000638920Y0001341394D01*
X0000640044Y0001340270D01*
X0000642294Y0001339145D01*
X0000651293Y0001339145D01*
X0000617547Y0001343644D02*
X0000617547Y0001327896D01*
X0000623172Y0001352643D02*
X0000628796Y0001335770D01*
X0000614173Y0001335770D01*
G04 next file*
G04 #@! TF.GenerationSoftware,KiCad,Pcbnew,(2017-01-20 revision 550a1ea)-makepkg*
G04 #@! TF.CreationDate,2017-01-30T22:44:56+01:00*
G04 #@! TF.ProjectId,tomu,746F6D752E6B696361645F7063620000,rev?*
G04 #@! TF.FileFunction,Legend,Bot*
G04 #@! TF.FilePolarity,Positive*
G04 Gerber Fmt 4.6, Leading zero omitted, Abs format (unit mm)*
G04 Created by KiCad (PCBNEW (2017-01-20 revision 550a1ea)-makepkg) date 01/30/17 22:44:56*
G01G01*
G04 APERTURE LIST*
G04 APERTURE END LIST*
D35*
D36*
X0001384326Y0001384748D02*
X0001384326Y0001424118D01*
X0001374953Y0001424118D01*
X0001369328Y0001422244D01*
X0001365579Y0001418494D01*
X0001363704Y0001414745D01*
X0001361829Y0001407245D01*
X0001361829Y0001401621D01*
X0001363704Y0001394122D01*
X0001365579Y0001390373D01*
X0001369328Y0001386623D01*
X0001374953Y0001384748D01*
X0001384326Y0001384748D01*
X0001261436Y0001388498D02*
X0001263310Y0001386623D01*
X0001268935Y0001384748D01*
X0001272684Y0001384748D01*
X0001278308Y0001386623D01*
X0001282058Y0001390373D01*
X0001283933Y0001394122D01*
X0001285807Y0001401621D01*
X0001285807Y0001407245D01*
X0001283933Y0001414745D01*
X0001282058Y0001418494D01*
X0001278308Y0001422244D01*
X0001272684Y0001424118D01*
X0001268935Y0001424118D01*
X0001263310Y0001422244D01*
X0001261436Y0001420369D01*
X0001385264Y0001095378D02*
X0001362767Y0001095378D01*
X0001374015Y0001056008D02*
X0001374015Y0001095378D01*
X0001261436Y0001056008D02*
X0001274559Y0001074756D01*
X0001283933Y0001056008D02*
X0001283933Y0001095378D01*
X0001268935Y0001095378D01*
X0001265185Y0001093503D01*
X0001263310Y0001091629D01*
X0001261436Y0001087879D01*
X0001261436Y0001082255D01*
X0001263310Y0001078505D01*
X0001265185Y0001076631D01*
X0001268935Y0001074756D01*
X0001283933Y0001074756D01*
D37*
X0001607283Y0001190944D02*
X0001607283Y0001171259D01*
X0001565944Y0001171259D02*
X0001565944Y0001190944D01*
X0001586614Y0001375590D02*
X0001576771Y0001383464D01*
X0001596456Y0001383464D02*
X0001586614Y0001375590D01*
X0001607283Y0001389370D02*
X0001607283Y0001348031D01*
X0001565944Y0001389370D02*
X0001565944Y0001348031D01*
X0001282480Y0001125000D02*
X0001262795Y0001125000D01*
X0001262795Y0001162401D02*
X0001282480Y0001162401D01*
X0001262795Y0001256889D02*
X0001282480Y0001256889D01*
X0001282480Y0001219488D02*
X0001262795Y0001219488D01*
X0001262795Y0001209645D02*
X0001282480Y0001209645D01*
X0001282480Y0001172244D02*
X0001262795Y0001172244D01*
X0001586614Y0001110236D02*
X0001596456Y0001102362D01*
X0001576771Y0001102362D02*
X0001586614Y0001110236D01*
X0001565944Y0001096456D02*
X0001565944Y0001137795D01*
X0001607283Y0001096456D02*
X0001607283Y0001137795D01*
X0001607283Y0001322834D02*
X0001607283Y0001303149D01*
X0001565944Y0001303149D02*
X0001565944Y0001322834D01*
X0001289370Y0001266732D02*
X0001269685Y0001266732D01*
X0001269685Y0001308070D02*
X0001289370Y0001308070D01*
X0001289370Y0001317913D02*
X0001269685Y0001317913D01*
X0001269685Y0001359251D02*
X0001289370Y0001359251D01*
X0001336614Y0001345472D02*
X0001336614Y0001320866D01*
X0001543307Y0001138779D02*
X0001543307Y0001163385D01*
X0001336614Y0001138779D02*
X0001336614Y0001163385D01*
X0001543307Y0001345472D02*
X0001518700Y0001345472D01*
X0001543307Y0001138779D02*
X0001518700Y0001138779D01*
X0001336614Y0001138779D02*
X0001361220Y0001138779D01*
X0001336614Y0001345472D02*
X0001361220Y0001345472D01*
X0001208661Y0001135264D02*
X0001209786Y0001134139D01*
X0001213160Y0001133014D01*
X0001215410Y0001133014D01*
X0001218785Y0001134139D01*
X0001221034Y0001136389D01*
X0001222159Y0001138638D01*
X0001223284Y0001143138D01*
X0001223284Y0001146512D01*
X0001222159Y0001151012D01*
X0001221034Y0001153262D01*
X0001218785Y0001155511D01*
X0001215410Y0001156636D01*
X0001213160Y0001156636D01*
X0001209786Y0001155511D01*
X0001208661Y0001154386D01*
X0001186164Y0001133014D02*
X0001199662Y0001133014D01*
X0001192913Y0001133014D02*
X0001192913Y0001156636D01*
X0001195163Y0001153262D01*
X0001197412Y0001151012D01*
X0001199662Y0001149887D01*
X0001213582Y0001229752D02*
X0001214707Y0001228627D01*
X0001218082Y0001227502D01*
X0001220331Y0001227502D01*
X0001223706Y0001228627D01*
X0001225956Y0001230877D01*
X0001227080Y0001233127D01*
X0001228205Y0001237626D01*
X0001228205Y0001241001D01*
X0001227080Y0001245500D01*
X0001225956Y0001247750D01*
X0001223706Y0001250000D01*
X0001220331Y0001251124D01*
X0001218082Y0001251124D01*
X0001214707Y0001250000D01*
X0001213582Y0001248875D01*
X0001204583Y0001248875D02*
X0001203458Y0001250000D01*
X0001201209Y0001251124D01*
X0001195584Y0001251124D01*
X0001193335Y0001250000D01*
X0001192210Y0001248875D01*
X0001191085Y0001246625D01*
X0001191085Y0001244375D01*
X0001192210Y0001241001D01*
X0001205708Y0001227502D01*
X0001191085Y0001227502D01*
X0001213582Y0001182508D02*
X0001214707Y0001181383D01*
X0001218082Y0001180258D01*
X0001220331Y0001180258D01*
X0001223706Y0001181383D01*
X0001225956Y0001183633D01*
X0001227080Y0001185883D01*
X0001228205Y0001190382D01*
X0001228205Y0001193757D01*
X0001227080Y0001198256D01*
X0001225956Y0001200506D01*
X0001223706Y0001202755D01*
X0001220331Y0001203880D01*
X0001218082Y0001203880D01*
X0001214707Y0001202755D01*
X0001213582Y0001201631D01*
X0001205708Y0001203880D02*
X0001191085Y0001203880D01*
X0001198959Y0001194881D01*
X0001195584Y0001194881D01*
X0001193335Y0001193757D01*
X0001192210Y0001192632D01*
X0001191085Y0001190382D01*
X0001191085Y0001184758D01*
X0001192210Y0001182508D01*
X0001193335Y0001181383D01*
X0001195584Y0001180258D01*
X0001202334Y0001180258D01*
X0001204583Y0001181383D01*
X0001205708Y0001182508D01*
X0001228346Y0001276715D02*
X0001236220Y0001287964D01*
X0001241844Y0001276715D02*
X0001241844Y0001300337D01*
X0001232845Y0001300337D01*
X0001230596Y0001299212D01*
X0001229471Y0001298087D01*
X0001228346Y0001295837D01*
X0001228346Y0001292463D01*
X0001229471Y0001290213D01*
X0001230596Y0001289088D01*
X0001232845Y0001287964D01*
X0001241844Y0001287964D01*
X0001220472Y0001300337D02*
X0001205849Y0001300337D01*
X0001213723Y0001291338D01*
X0001210348Y0001291338D01*
X0001208098Y0001290213D01*
X0001206974Y0001289088D01*
X0001205849Y0001286839D01*
X0001205849Y0001281214D01*
X0001206974Y0001278965D01*
X0001208098Y0001277840D01*
X0001210348Y0001276715D01*
X0001217097Y0001276715D01*
X0001219347Y0001277840D01*
X0001220472Y0001278965D01*
X0001228346Y0001327896D02*
X0001236220Y0001339145D01*
X0001241844Y0001327896D02*
X0001241844Y0001351518D01*
X0001232845Y0001351518D01*
X0001230596Y0001350393D01*
X0001229471Y0001349268D01*
X0001228346Y0001347019D01*
X0001228346Y0001343644D01*
X0001229471Y0001341394D01*
X0001230596Y0001340270D01*
X0001232845Y0001339145D01*
X0001241844Y0001339145D01*
X0001208098Y0001343644D02*
X0001208098Y0001327896D01*
X0001213723Y0001352643D02*
X0001219347Y0001335770D01*
X0001204724Y0001335770D01*
G04 next file*
G04 #@! TF.GenerationSoftware,KiCad,Pcbnew,(2017-01-20 revision 550a1ea)-makepkg*
G04 #@! TF.CreationDate,2017-01-30T22:44:56+01:00*
G04 #@! TF.ProjectId,tomu,746F6D752E6B696361645F7063620000,rev?*
G04 #@! TF.FileFunction,Legend,Bot*
G04 #@! TF.FilePolarity,Positive*
G04 Gerber Fmt 4.6, Leading zero omitted, Abs format (unit mm)*
G04 Created by KiCad (PCBNEW (2017-01-20 revision 550a1ea)-makepkg) date 01/30/17 22:44:56*
G01G01*
G04 APERTURE LIST*
G04 APERTURE END LIST*
D38*
D39*
X0000203224Y0000872937D02*
X0000203224Y0000912307D01*
X0000193850Y0000912307D01*
X0000188226Y0000910433D01*
X0000184476Y0000906683D01*
X0000182602Y0000902934D01*
X0000180727Y0000895434D01*
X0000180727Y0000889810D01*
X0000182602Y0000882311D01*
X0000184476Y0000878562D01*
X0000188226Y0000874812D01*
X0000193850Y0000872937D01*
X0000203224Y0000872937D01*
X0000080333Y0000876687D02*
X0000082208Y0000874812D01*
X0000087832Y0000872937D01*
X0000091582Y0000872937D01*
X0000097206Y0000874812D01*
X0000100956Y0000878562D01*
X0000102830Y0000882311D01*
X0000104705Y0000889810D01*
X0000104705Y0000895434D01*
X0000102830Y0000902934D01*
X0000100956Y0000906683D01*
X0000097206Y0000910433D01*
X0000091582Y0000912307D01*
X0000087832Y0000912307D01*
X0000082208Y0000910433D01*
X0000080333Y0000908558D01*
X0000204161Y0000583567D02*
X0000181664Y0000583567D01*
X0000192913Y0000544197D02*
X0000192913Y0000583567D01*
X0000080333Y0000544197D02*
X0000093457Y0000562945D01*
X0000102830Y0000544197D02*
X0000102830Y0000583567D01*
X0000087832Y0000583567D01*
X0000084083Y0000581692D01*
X0000082208Y0000579818D01*
X0000080333Y0000576068D01*
X0000080333Y0000570444D01*
X0000082208Y0000566694D01*
X0000084083Y0000564820D01*
X0000087832Y0000562945D01*
X0000102830Y0000562945D01*
D40*
X0000426181Y0000679133D02*
X0000426181Y0000659448D01*
X0000384842Y0000659448D02*
X0000384842Y0000679133D01*
X0000405511Y0000863779D02*
X0000395669Y0000871653D01*
X0000415354Y0000871653D02*
X0000405511Y0000863779D01*
X0000426181Y0000877559D02*
X0000426181Y0000836220D01*
X0000384842Y0000877559D02*
X0000384842Y0000836220D01*
X0000101377Y0000613188D02*
X0000081692Y0000613188D01*
X0000081692Y0000650590D02*
X0000101377Y0000650590D01*
X0000081692Y0000745078D02*
X0000101377Y0000745078D01*
X0000101377Y0000707677D02*
X0000081692Y0000707677D01*
X0000081692Y0000697834D02*
X0000101377Y0000697834D01*
X0000101377Y0000660433D02*
X0000081692Y0000660433D01*
X0000405511Y0000598425D02*
X0000415354Y0000590551D01*
X0000395669Y0000590551D02*
X0000405511Y0000598425D01*
X0000384842Y0000584645D02*
X0000384842Y0000625984D01*
X0000426181Y0000584645D02*
X0000426181Y0000625984D01*
X0000426181Y0000811023D02*
X0000426181Y0000791338D01*
X0000384842Y0000791338D02*
X0000384842Y0000811023D01*
X0000108267Y0000754921D02*
X0000088582Y0000754921D01*
X0000088582Y0000796259D02*
X0000108267Y0000796259D01*
X0000108267Y0000806102D02*
X0000088582Y0000806102D01*
X0000088582Y0000847440D02*
X0000108267Y0000847440D01*
X0000155511Y0000833661D02*
X0000155511Y0000809055D01*
X0000362204Y0000626968D02*
X0000362204Y0000651574D01*
X0000155511Y0000626968D02*
X0000155511Y0000651574D01*
X0000362204Y0000833661D02*
X0000337598Y0000833661D01*
X0000362204Y0000626968D02*
X0000337598Y0000626968D01*
X0000155511Y0000626968D02*
X0000180118Y0000626968D01*
X0000155511Y0000833661D02*
X0000180118Y0000833661D01*
X0000027559Y0000623453D02*
X0000028683Y0000622328D01*
X0000032058Y0000621203D01*
X0000034308Y0000621203D01*
X0000037682Y0000622328D01*
X0000039932Y0000624578D01*
X0000041057Y0000626827D01*
X0000042182Y0000631327D01*
X0000042182Y0000634701D01*
X0000041057Y0000639201D01*
X0000039932Y0000641451D01*
X0000037682Y0000643700D01*
X0000034308Y0000644825D01*
X0000032058Y0000644825D01*
X0000028683Y0000643700D01*
X0000027559Y0000642575D01*
X0000005061Y0000621203D02*
X0000018560Y0000621203D01*
X0000011811Y0000621203D02*
X0000011811Y0000644825D01*
X0000014060Y0000641451D01*
X0000016310Y0000639201D01*
X0000018560Y0000638076D01*
X0000032480Y0000717941D02*
X0000033605Y0000716816D01*
X0000036979Y0000715691D01*
X0000039229Y0000715691D01*
X0000042604Y0000716816D01*
X0000044853Y0000719066D01*
X0000045978Y0000721316D01*
X0000047103Y0000725815D01*
X0000047103Y0000729190D01*
X0000045978Y0000733689D01*
X0000044853Y0000735939D01*
X0000042604Y0000738188D01*
X0000039229Y0000739313D01*
X0000036979Y0000739313D01*
X0000033605Y0000738188D01*
X0000032480Y0000737064D01*
X0000023481Y0000737064D02*
X0000022356Y0000738188D01*
X0000020106Y0000739313D01*
X0000014482Y0000739313D01*
X0000012232Y0000738188D01*
X0000011107Y0000737064D01*
X0000009983Y0000734814D01*
X0000009983Y0000732564D01*
X0000011107Y0000729190D01*
X0000024606Y0000715691D01*
X0000009983Y0000715691D01*
X0000032480Y0000670697D02*
X0000033605Y0000669572D01*
X0000036979Y0000668447D01*
X0000039229Y0000668447D01*
X0000042604Y0000669572D01*
X0000044853Y0000671822D01*
X0000045978Y0000674072D01*
X0000047103Y0000678571D01*
X0000047103Y0000681946D01*
X0000045978Y0000686445D01*
X0000044853Y0000688695D01*
X0000042604Y0000690944D01*
X0000039229Y0000692069D01*
X0000036979Y0000692069D01*
X0000033605Y0000690944D01*
X0000032480Y0000689820D01*
X0000024606Y0000692069D02*
X0000009983Y0000692069D01*
X0000017857Y0000683070D01*
X0000014482Y0000683070D01*
X0000012232Y0000681946D01*
X0000011107Y0000680821D01*
X0000009983Y0000678571D01*
X0000009983Y0000672947D01*
X0000011107Y0000670697D01*
X0000012232Y0000669572D01*
X0000014482Y0000668447D01*
X0000021231Y0000668447D01*
X0000023481Y0000669572D01*
X0000024606Y0000670697D01*
X0000047244Y0000764904D02*
X0000055118Y0000776152D01*
X0000060742Y0000764904D02*
X0000060742Y0000788526D01*
X0000051743Y0000788526D01*
X0000049493Y0000787401D01*
X0000048368Y0000786276D01*
X0000047244Y0000784027D01*
X0000047244Y0000780652D01*
X0000048368Y0000778402D01*
X0000049493Y0000777277D01*
X0000051743Y0000776152D01*
X0000060742Y0000776152D01*
X0000039370Y0000788526D02*
X0000024746Y0000788526D01*
X0000032620Y0000779527D01*
X0000029246Y0000779527D01*
X0000026996Y0000778402D01*
X0000025871Y0000777277D01*
X0000024746Y0000775028D01*
X0000024746Y0000769403D01*
X0000025871Y0000767154D01*
X0000026996Y0000766029D01*
X0000029246Y0000764904D01*
X0000035995Y0000764904D01*
X0000038245Y0000766029D01*
X0000039370Y0000767154D01*
X0000047244Y0000816085D02*
X0000055118Y0000827334D01*
X0000060742Y0000816085D02*
X0000060742Y0000839707D01*
X0000051743Y0000839707D01*
X0000049493Y0000838582D01*
X0000048368Y0000837457D01*
X0000047244Y0000835208D01*
X0000047244Y0000831833D01*
X0000048368Y0000829583D01*
X0000049493Y0000828458D01*
X0000051743Y0000827334D01*
X0000060742Y0000827334D01*
X0000026996Y0000831833D02*
X0000026996Y0000816085D01*
X0000032620Y0000840832D02*
X0000038245Y0000823959D01*
X0000023622Y0000823959D01*
G04 next file*
G04 #@! TF.GenerationSoftware,KiCad,Pcbnew,(2017-01-20 revision 550a1ea)-makepkg*
G04 #@! TF.CreationDate,2017-01-30T22:44:56+01:00*
G04 #@! TF.ProjectId,tomu,746F6D752E6B696361645F7063620000,rev?*
G04 #@! TF.FileFunction,Legend,Bot*
G04 #@! TF.FilePolarity,Positive*
G04 Gerber Fmt 4.6, Leading zero omitted, Abs format (unit mm)*
G04 Created by KiCad (PCBNEW (2017-01-20 revision 550a1ea)-makepkg) date 01/30/17 22:44:56*
G01G01*
G04 APERTURE LIST*
G04 APERTURE END LIST*
D41*
D42*
X0000793775Y0000872937D02*
X0000793775Y0000912307D01*
X0000784401Y0000912307D01*
X0000778777Y0000910433D01*
X0000775028Y0000906683D01*
X0000773153Y0000902934D01*
X0000771278Y0000895434D01*
X0000771278Y0000889810D01*
X0000773153Y0000882311D01*
X0000775028Y0000878562D01*
X0000778777Y0000874812D01*
X0000784401Y0000872937D01*
X0000793775Y0000872937D01*
X0000670884Y0000876687D02*
X0000672759Y0000874812D01*
X0000678383Y0000872937D01*
X0000682133Y0000872937D01*
X0000687757Y0000874812D01*
X0000691507Y0000878562D01*
X0000693382Y0000882311D01*
X0000695256Y0000889810D01*
X0000695256Y0000895434D01*
X0000693382Y0000902934D01*
X0000691507Y0000906683D01*
X0000687757Y0000910433D01*
X0000682133Y0000912307D01*
X0000678383Y0000912307D01*
X0000672759Y0000910433D01*
X0000670884Y0000908558D01*
X0000794713Y0000583567D02*
X0000772215Y0000583567D01*
X0000783464Y0000544197D02*
X0000783464Y0000583567D01*
X0000670884Y0000544197D02*
X0000684008Y0000562945D01*
X0000693382Y0000544197D02*
X0000693382Y0000583567D01*
X0000678383Y0000583567D01*
X0000674634Y0000581692D01*
X0000672759Y0000579818D01*
X0000670884Y0000576068D01*
X0000670884Y0000570444D01*
X0000672759Y0000566694D01*
X0000674634Y0000564820D01*
X0000678383Y0000562945D01*
X0000693382Y0000562945D01*
D43*
X0001016732Y0000679133D02*
X0001016732Y0000659448D01*
X0000975393Y0000659448D02*
X0000975393Y0000679133D01*
X0000996062Y0000863779D02*
X0000986220Y0000871653D01*
X0001005905Y0000871653D02*
X0000996062Y0000863779D01*
X0001016732Y0000877559D02*
X0001016732Y0000836220D01*
X0000975393Y0000877559D02*
X0000975393Y0000836220D01*
X0000691929Y0000613188D02*
X0000672244Y0000613188D01*
X0000672244Y0000650590D02*
X0000691929Y0000650590D01*
X0000672244Y0000745078D02*
X0000691929Y0000745078D01*
X0000691929Y0000707677D02*
X0000672244Y0000707677D01*
X0000672244Y0000697834D02*
X0000691929Y0000697834D01*
X0000691929Y0000660433D02*
X0000672244Y0000660433D01*
X0000996062Y0000598425D02*
X0001005905Y0000590551D01*
X0000986220Y0000590551D02*
X0000996062Y0000598425D01*
X0000975393Y0000584645D02*
X0000975393Y0000625984D01*
X0001016732Y0000584645D02*
X0001016732Y0000625984D01*
X0001016732Y0000811023D02*
X0001016732Y0000791338D01*
X0000975393Y0000791338D02*
X0000975393Y0000811023D01*
X0000698818Y0000754921D02*
X0000679133Y0000754921D01*
X0000679133Y0000796259D02*
X0000698818Y0000796259D01*
X0000698818Y0000806102D02*
X0000679133Y0000806102D01*
X0000679133Y0000847440D02*
X0000698818Y0000847440D01*
X0000746062Y0000833661D02*
X0000746062Y0000809055D01*
X0000952755Y0000626968D02*
X0000952755Y0000651574D01*
X0000746062Y0000626968D02*
X0000746062Y0000651574D01*
X0000952755Y0000833661D02*
X0000928149Y0000833661D01*
X0000952755Y0000626968D02*
X0000928149Y0000626968D01*
X0000746062Y0000626968D02*
X0000770669Y0000626968D01*
X0000746062Y0000833661D02*
X0000770669Y0000833661D01*
X0000618110Y0000623453D02*
X0000619235Y0000622328D01*
X0000622609Y0000621203D01*
X0000624859Y0000621203D01*
X0000628233Y0000622328D01*
X0000630483Y0000624578D01*
X0000631608Y0000626827D01*
X0000632733Y0000631327D01*
X0000632733Y0000634701D01*
X0000631608Y0000639201D01*
X0000630483Y0000641451D01*
X0000628233Y0000643700D01*
X0000624859Y0000644825D01*
X0000622609Y0000644825D01*
X0000619235Y0000643700D01*
X0000618110Y0000642575D01*
X0000595613Y0000621203D02*
X0000609111Y0000621203D01*
X0000602362Y0000621203D02*
X0000602362Y0000644825D01*
X0000604611Y0000641451D01*
X0000606861Y0000639201D01*
X0000609111Y0000638076D01*
X0000623031Y0000717941D02*
X0000624156Y0000716816D01*
X0000627530Y0000715691D01*
X0000629780Y0000715691D01*
X0000633155Y0000716816D01*
X0000635404Y0000719066D01*
X0000636529Y0000721316D01*
X0000637654Y0000725815D01*
X0000637654Y0000729190D01*
X0000636529Y0000733689D01*
X0000635404Y0000735939D01*
X0000633155Y0000738188D01*
X0000629780Y0000739313D01*
X0000627530Y0000739313D01*
X0000624156Y0000738188D01*
X0000623031Y0000737064D01*
X0000614032Y0000737064D02*
X0000612907Y0000738188D01*
X0000610658Y0000739313D01*
X0000605033Y0000739313D01*
X0000602784Y0000738188D01*
X0000601659Y0000737064D01*
X0000600534Y0000734814D01*
X0000600534Y0000732564D01*
X0000601659Y0000729190D01*
X0000615157Y0000715691D01*
X0000600534Y0000715691D01*
X0000623031Y0000670697D02*
X0000624156Y0000669572D01*
X0000627530Y0000668447D01*
X0000629780Y0000668447D01*
X0000633155Y0000669572D01*
X0000635404Y0000671822D01*
X0000636529Y0000674072D01*
X0000637654Y0000678571D01*
X0000637654Y0000681946D01*
X0000636529Y0000686445D01*
X0000635404Y0000688695D01*
X0000633155Y0000690944D01*
X0000629780Y0000692069D01*
X0000627530Y0000692069D01*
X0000624156Y0000690944D01*
X0000623031Y0000689820D01*
X0000615157Y0000692069D02*
X0000600534Y0000692069D01*
X0000608408Y0000683070D01*
X0000605033Y0000683070D01*
X0000602784Y0000681946D01*
X0000601659Y0000680821D01*
X0000600534Y0000678571D01*
X0000600534Y0000672947D01*
X0000601659Y0000670697D01*
X0000602784Y0000669572D01*
X0000605033Y0000668447D01*
X0000611782Y0000668447D01*
X0000614032Y0000669572D01*
X0000615157Y0000670697D01*
X0000637795Y0000764904D02*
X0000645669Y0000776152D01*
X0000651293Y0000764904D02*
X0000651293Y0000788526D01*
X0000642294Y0000788526D01*
X0000640044Y0000787401D01*
X0000638920Y0000786276D01*
X0000637795Y0000784027D01*
X0000637795Y0000780652D01*
X0000638920Y0000778402D01*
X0000640044Y0000777277D01*
X0000642294Y0000776152D01*
X0000651293Y0000776152D01*
X0000629921Y0000788526D02*
X0000615298Y0000788526D01*
X0000623172Y0000779527D01*
X0000619797Y0000779527D01*
X0000617547Y0000778402D01*
X0000616422Y0000777277D01*
X0000615298Y0000775028D01*
X0000615298Y0000769403D01*
X0000616422Y0000767154D01*
X0000617547Y0000766029D01*
X0000619797Y0000764904D01*
X0000626546Y0000764904D01*
X0000628796Y0000766029D01*
X0000629921Y0000767154D01*
X0000637795Y0000816085D02*
X0000645669Y0000827334D01*
X0000651293Y0000816085D02*
X0000651293Y0000839707D01*
X0000642294Y0000839707D01*
X0000640044Y0000838582D01*
X0000638920Y0000837457D01*
X0000637795Y0000835208D01*
X0000637795Y0000831833D01*
X0000638920Y0000829583D01*
X0000640044Y0000828458D01*
X0000642294Y0000827334D01*
X0000651293Y0000827334D01*
X0000617547Y0000831833D02*
X0000617547Y0000816085D01*
X0000623172Y0000840832D02*
X0000628796Y0000823959D01*
X0000614173Y0000823959D01*
G04 next file*
G04 #@! TF.GenerationSoftware,KiCad,Pcbnew,(2017-01-20 revision 550a1ea)-makepkg*
G04 #@! TF.CreationDate,2017-01-30T22:44:56+01:00*
G04 #@! TF.ProjectId,tomu,746F6D752E6B696361645F7063620000,rev?*
G04 #@! TF.FileFunction,Legend,Bot*
G04 #@! TF.FilePolarity,Positive*
G04 Gerber Fmt 4.6, Leading zero omitted, Abs format (unit mm)*
G04 Created by KiCad (PCBNEW (2017-01-20 revision 550a1ea)-makepkg) date 01/30/17 22:44:56*
G01G01*
G04 APERTURE LIST*
G04 APERTURE END LIST*
D44*
D45*
X0001384326Y0000872937D02*
X0001384326Y0000912307D01*
X0001374953Y0000912307D01*
X0001369328Y0000910433D01*
X0001365579Y0000906683D01*
X0001363704Y0000902934D01*
X0001361829Y0000895434D01*
X0001361829Y0000889810D01*
X0001363704Y0000882311D01*
X0001365579Y0000878562D01*
X0001369328Y0000874812D01*
X0001374953Y0000872937D01*
X0001384326Y0000872937D01*
X0001261436Y0000876687D02*
X0001263310Y0000874812D01*
X0001268935Y0000872937D01*
X0001272684Y0000872937D01*
X0001278308Y0000874812D01*
X0001282058Y0000878562D01*
X0001283933Y0000882311D01*
X0001285807Y0000889810D01*
X0001285807Y0000895434D01*
X0001283933Y0000902934D01*
X0001282058Y0000906683D01*
X0001278308Y0000910433D01*
X0001272684Y0000912307D01*
X0001268935Y0000912307D01*
X0001263310Y0000910433D01*
X0001261436Y0000908558D01*
X0001385264Y0000583567D02*
X0001362767Y0000583567D01*
X0001374015Y0000544197D02*
X0001374015Y0000583567D01*
X0001261436Y0000544197D02*
X0001274559Y0000562945D01*
X0001283933Y0000544197D02*
X0001283933Y0000583567D01*
X0001268935Y0000583567D01*
X0001265185Y0000581692D01*
X0001263310Y0000579818D01*
X0001261436Y0000576068D01*
X0001261436Y0000570444D01*
X0001263310Y0000566694D01*
X0001265185Y0000564820D01*
X0001268935Y0000562945D01*
X0001283933Y0000562945D01*
D46*
X0001607283Y0000679133D02*
X0001607283Y0000659448D01*
X0001565944Y0000659448D02*
X0001565944Y0000679133D01*
X0001586614Y0000863779D02*
X0001576771Y0000871653D01*
X0001596456Y0000871653D02*
X0001586614Y0000863779D01*
X0001607283Y0000877559D02*
X0001607283Y0000836220D01*
X0001565944Y0000877559D02*
X0001565944Y0000836220D01*
X0001282480Y0000613188D02*
X0001262795Y0000613188D01*
X0001262795Y0000650590D02*
X0001282480Y0000650590D01*
X0001262795Y0000745078D02*
X0001282480Y0000745078D01*
X0001282480Y0000707677D02*
X0001262795Y0000707677D01*
X0001262795Y0000697834D02*
X0001282480Y0000697834D01*
X0001282480Y0000660433D02*
X0001262795Y0000660433D01*
X0001586614Y0000598425D02*
X0001596456Y0000590551D01*
X0001576771Y0000590551D02*
X0001586614Y0000598425D01*
X0001565944Y0000584645D02*
X0001565944Y0000625984D01*
X0001607283Y0000584645D02*
X0001607283Y0000625984D01*
X0001607283Y0000811023D02*
X0001607283Y0000791338D01*
X0001565944Y0000791338D02*
X0001565944Y0000811023D01*
X0001289370Y0000754921D02*
X0001269685Y0000754921D01*
X0001269685Y0000796259D02*
X0001289370Y0000796259D01*
X0001289370Y0000806102D02*
X0001269685Y0000806102D01*
X0001269685Y0000847440D02*
X0001289370Y0000847440D01*
X0001336614Y0000833661D02*
X0001336614Y0000809055D01*
X0001543307Y0000626968D02*
X0001543307Y0000651574D01*
X0001336614Y0000626968D02*
X0001336614Y0000651574D01*
X0001543307Y0000833661D02*
X0001518700Y0000833661D01*
X0001543307Y0000626968D02*
X0001518700Y0000626968D01*
X0001336614Y0000626968D02*
X0001361220Y0000626968D01*
X0001336614Y0000833661D02*
X0001361220Y0000833661D01*
X0001208661Y0000623453D02*
X0001209786Y0000622328D01*
X0001213160Y0000621203D01*
X0001215410Y0000621203D01*
X0001218785Y0000622328D01*
X0001221034Y0000624578D01*
X0001222159Y0000626827D01*
X0001223284Y0000631327D01*
X0001223284Y0000634701D01*
X0001222159Y0000639201D01*
X0001221034Y0000641451D01*
X0001218785Y0000643700D01*
X0001215410Y0000644825D01*
X0001213160Y0000644825D01*
X0001209786Y0000643700D01*
X0001208661Y0000642575D01*
X0001186164Y0000621203D02*
X0001199662Y0000621203D01*
X0001192913Y0000621203D02*
X0001192913Y0000644825D01*
X0001195163Y0000641451D01*
X0001197412Y0000639201D01*
X0001199662Y0000638076D01*
X0001213582Y0000717941D02*
X0001214707Y0000716816D01*
X0001218082Y0000715691D01*
X0001220331Y0000715691D01*
X0001223706Y0000716816D01*
X0001225956Y0000719066D01*
X0001227080Y0000721316D01*
X0001228205Y0000725815D01*
X0001228205Y0000729190D01*
X0001227080Y0000733689D01*
X0001225956Y0000735939D01*
X0001223706Y0000738188D01*
X0001220331Y0000739313D01*
X0001218082Y0000739313D01*
X0001214707Y0000738188D01*
X0001213582Y0000737064D01*
X0001204583Y0000737064D02*
X0001203458Y0000738188D01*
X0001201209Y0000739313D01*
X0001195584Y0000739313D01*
X0001193335Y0000738188D01*
X0001192210Y0000737064D01*
X0001191085Y0000734814D01*
X0001191085Y0000732564D01*
X0001192210Y0000729190D01*
X0001205708Y0000715691D01*
X0001191085Y0000715691D01*
X0001213582Y0000670697D02*
X0001214707Y0000669572D01*
X0001218082Y0000668447D01*
X0001220331Y0000668447D01*
X0001223706Y0000669572D01*
X0001225956Y0000671822D01*
X0001227080Y0000674072D01*
X0001228205Y0000678571D01*
X0001228205Y0000681946D01*
X0001227080Y0000686445D01*
X0001225956Y0000688695D01*
X0001223706Y0000690944D01*
X0001220331Y0000692069D01*
X0001218082Y0000692069D01*
X0001214707Y0000690944D01*
X0001213582Y0000689820D01*
X0001205708Y0000692069D02*
X0001191085Y0000692069D01*
X0001198959Y0000683070D01*
X0001195584Y0000683070D01*
X0001193335Y0000681946D01*
X0001192210Y0000680821D01*
X0001191085Y0000678571D01*
X0001191085Y0000672947D01*
X0001192210Y0000670697D01*
X0001193335Y0000669572D01*
X0001195584Y0000668447D01*
X0001202334Y0000668447D01*
X0001204583Y0000669572D01*
X0001205708Y0000670697D01*
X0001228346Y0000764904D02*
X0001236220Y0000776152D01*
X0001241844Y0000764904D02*
X0001241844Y0000788526D01*
X0001232845Y0000788526D01*
X0001230596Y0000787401D01*
X0001229471Y0000786276D01*
X0001228346Y0000784027D01*
X0001228346Y0000780652D01*
X0001229471Y0000778402D01*
X0001230596Y0000777277D01*
X0001232845Y0000776152D01*
X0001241844Y0000776152D01*
X0001220472Y0000788526D02*
X0001205849Y0000788526D01*
X0001213723Y0000779527D01*
X0001210348Y0000779527D01*
X0001208098Y0000778402D01*
X0001206974Y0000777277D01*
X0001205849Y0000775028D01*
X0001205849Y0000769403D01*
X0001206974Y0000767154D01*
X0001208098Y0000766029D01*
X0001210348Y0000764904D01*
X0001217097Y0000764904D01*
X0001219347Y0000766029D01*
X0001220472Y0000767154D01*
X0001228346Y0000816085D02*
X0001236220Y0000827334D01*
X0001241844Y0000816085D02*
X0001241844Y0000839707D01*
X0001232845Y0000839707D01*
X0001230596Y0000838582D01*
X0001229471Y0000837457D01*
X0001228346Y0000835208D01*
X0001228346Y0000831833D01*
X0001229471Y0000829583D01*
X0001230596Y0000828458D01*
X0001232845Y0000827334D01*
X0001241844Y0000827334D01*
X0001208098Y0000831833D02*
X0001208098Y0000816085D01*
X0001213723Y0000840832D02*
X0001219347Y0000823959D01*
X0001204724Y0000823959D01*
G04 next file*
G04 #@! TF.GenerationSoftware,KiCad,Pcbnew,(2017-01-20 revision 550a1ea)-makepkg*
G04 #@! TF.CreationDate,2017-01-30T22:44:56+01:00*
G04 #@! TF.ProjectId,tomu,746F6D752E6B696361645F7063620000,rev?*
G04 #@! TF.FileFunction,Legend,Bot*
G04 #@! TF.FilePolarity,Positive*
G04 Gerber Fmt 4.6, Leading zero omitted, Abs format (unit mm)*
G04 Created by KiCad (PCBNEW (2017-01-20 revision 550a1ea)-makepkg) date 01/30/17 22:44:56*
G01G01*
G04 APERTURE LIST*
G04 APERTURE END LIST*
D47*
D48*
X0000203224Y0000361126D02*
X0000203224Y0000400496D01*
X0000193850Y0000400496D01*
X0000188226Y0000398622D01*
X0000184476Y0000394872D01*
X0000182602Y0000391122D01*
X0000180727Y0000383623D01*
X0000180727Y0000377999D01*
X0000182602Y0000370500D01*
X0000184476Y0000366751D01*
X0000188226Y0000363001D01*
X0000193850Y0000361126D01*
X0000203224Y0000361126D01*
X0000080333Y0000364876D02*
X0000082208Y0000363001D01*
X0000087832Y0000361126D01*
X0000091582Y0000361126D01*
X0000097206Y0000363001D01*
X0000100956Y0000366751D01*
X0000102830Y0000370500D01*
X0000104705Y0000377999D01*
X0000104705Y0000383623D01*
X0000102830Y0000391122D01*
X0000100956Y0000394872D01*
X0000097206Y0000398622D01*
X0000091582Y0000400496D01*
X0000087832Y0000400496D01*
X0000082208Y0000398622D01*
X0000080333Y0000396747D01*
X0000204161Y0000071756D02*
X0000181664Y0000071756D01*
X0000192913Y0000032386D02*
X0000192913Y0000071756D01*
X0000080333Y0000032386D02*
X0000093457Y0000051134D01*
X0000102830Y0000032386D02*
X0000102830Y0000071756D01*
X0000087832Y0000071756D01*
X0000084083Y0000069881D01*
X0000082208Y0000068007D01*
X0000080333Y0000064257D01*
X0000080333Y0000058633D01*
X0000082208Y0000054883D01*
X0000084083Y0000053009D01*
X0000087832Y0000051134D01*
X0000102830Y0000051134D01*
D49*
X0000426181Y0000167322D02*
X0000426181Y0000147637D01*
X0000384842Y0000147637D02*
X0000384842Y0000167322D01*
X0000405511Y0000351968D02*
X0000395669Y0000359842D01*
X0000415354Y0000359842D02*
X0000405511Y0000351968D01*
X0000426181Y0000365748D02*
X0000426181Y0000324409D01*
X0000384842Y0000365748D02*
X0000384842Y0000324409D01*
X0000101377Y0000101377D02*
X0000081692Y0000101377D01*
X0000081692Y0000138779D02*
X0000101377Y0000138779D01*
X0000081692Y0000233267D02*
X0000101377Y0000233267D01*
X0000101377Y0000195866D02*
X0000081692Y0000195866D01*
X0000081692Y0000186023D02*
X0000101377Y0000186023D01*
X0000101377Y0000148622D02*
X0000081692Y0000148622D01*
X0000405511Y0000086614D02*
X0000415354Y0000078740D01*
X0000395669Y0000078740D02*
X0000405511Y0000086614D01*
X0000384842Y0000072834D02*
X0000384842Y0000114173D01*
X0000426181Y0000072834D02*
X0000426181Y0000114173D01*
X0000426181Y0000299212D02*
X0000426181Y0000279527D01*
X0000384842Y0000279527D02*
X0000384842Y0000299212D01*
X0000108267Y0000243110D02*
X0000088582Y0000243110D01*
X0000088582Y0000284448D02*
X0000108267Y0000284448D01*
X0000108267Y0000294291D02*
X0000088582Y0000294291D01*
X0000088582Y0000335629D02*
X0000108267Y0000335629D01*
X0000155511Y0000321850D02*
X0000155511Y0000297244D01*
X0000362204Y0000115157D02*
X0000362204Y0000139763D01*
X0000155511Y0000115157D02*
X0000155511Y0000139763D01*
X0000362204Y0000321850D02*
X0000337598Y0000321850D01*
X0000362204Y0000115157D02*
X0000337598Y0000115157D01*
X0000155511Y0000115157D02*
X0000180118Y0000115157D01*
X0000155511Y0000321850D02*
X0000180118Y0000321850D01*
X0000027559Y0000111642D02*
X0000028683Y0000110517D01*
X0000032058Y0000109392D01*
X0000034308Y0000109392D01*
X0000037682Y0000110517D01*
X0000039932Y0000112767D01*
X0000041057Y0000115016D01*
X0000042182Y0000119516D01*
X0000042182Y0000122890D01*
X0000041057Y0000127390D01*
X0000039932Y0000129640D01*
X0000037682Y0000131889D01*
X0000034308Y0000133014D01*
X0000032058Y0000133014D01*
X0000028683Y0000131889D01*
X0000027559Y0000130764D01*
X0000005061Y0000109392D02*
X0000018560Y0000109392D01*
X0000011811Y0000109392D02*
X0000011811Y0000133014D01*
X0000014060Y0000129640D01*
X0000016310Y0000127390D01*
X0000018560Y0000126265D01*
X0000032480Y0000206130D02*
X0000033605Y0000205005D01*
X0000036979Y0000203880D01*
X0000039229Y0000203880D01*
X0000042604Y0000205005D01*
X0000044853Y0000207255D01*
X0000045978Y0000209505D01*
X0000047103Y0000214004D01*
X0000047103Y0000217379D01*
X0000045978Y0000221878D01*
X0000044853Y0000224128D01*
X0000042604Y0000226377D01*
X0000039229Y0000227502D01*
X0000036979Y0000227502D01*
X0000033605Y0000226377D01*
X0000032480Y0000225253D01*
X0000023481Y0000225253D02*
X0000022356Y0000226377D01*
X0000020106Y0000227502D01*
X0000014482Y0000227502D01*
X0000012232Y0000226377D01*
X0000011107Y0000225253D01*
X0000009983Y0000223003D01*
X0000009983Y0000220753D01*
X0000011107Y0000217379D01*
X0000024606Y0000203880D01*
X0000009983Y0000203880D01*
X0000032480Y0000158886D02*
X0000033605Y0000157761D01*
X0000036979Y0000156636D01*
X0000039229Y0000156636D01*
X0000042604Y0000157761D01*
X0000044853Y0000160011D01*
X0000045978Y0000162260D01*
X0000047103Y0000166760D01*
X0000047103Y0000170135D01*
X0000045978Y0000174634D01*
X0000044853Y0000176884D01*
X0000042604Y0000179133D01*
X0000039229Y0000180258D01*
X0000036979Y0000180258D01*
X0000033605Y0000179133D01*
X0000032480Y0000178009D01*
X0000024606Y0000180258D02*
X0000009983Y0000180258D01*
X0000017857Y0000171259D01*
X0000014482Y0000171259D01*
X0000012232Y0000170135D01*
X0000011107Y0000169010D01*
X0000009983Y0000166760D01*
X0000009983Y0000161136D01*
X0000011107Y0000158886D01*
X0000012232Y0000157761D01*
X0000014482Y0000156636D01*
X0000021231Y0000156636D01*
X0000023481Y0000157761D01*
X0000024606Y0000158886D01*
X0000047244Y0000253093D02*
X0000055118Y0000264341D01*
X0000060742Y0000253093D02*
X0000060742Y0000276715D01*
X0000051743Y0000276715D01*
X0000049493Y0000275590D01*
X0000048368Y0000274465D01*
X0000047244Y0000272215D01*
X0000047244Y0000268841D01*
X0000048368Y0000266591D01*
X0000049493Y0000265466D01*
X0000051743Y0000264341D01*
X0000060742Y0000264341D01*
X0000039370Y0000276715D02*
X0000024746Y0000276715D01*
X0000032620Y0000267716D01*
X0000029246Y0000267716D01*
X0000026996Y0000266591D01*
X0000025871Y0000265466D01*
X0000024746Y0000263217D01*
X0000024746Y0000257592D01*
X0000025871Y0000255343D01*
X0000026996Y0000254218D01*
X0000029246Y0000253093D01*
X0000035995Y0000253093D01*
X0000038245Y0000254218D01*
X0000039370Y0000255343D01*
X0000047244Y0000304274D02*
X0000055118Y0000315523D01*
X0000060742Y0000304274D02*
X0000060742Y0000327896D01*
X0000051743Y0000327896D01*
X0000049493Y0000326771D01*
X0000048368Y0000325646D01*
X0000047244Y0000323397D01*
X0000047244Y0000320022D01*
X0000048368Y0000317772D01*
X0000049493Y0000316647D01*
X0000051743Y0000315523D01*
X0000060742Y0000315523D01*
X0000026996Y0000320022D02*
X0000026996Y0000304274D01*
X0000032620Y0000329021D02*
X0000038245Y0000312148D01*
X0000023622Y0000312148D01*
G04 next file*
G04 #@! TF.GenerationSoftware,KiCad,Pcbnew,(2017-01-20 revision 550a1ea)-makepkg*
G04 #@! TF.CreationDate,2017-01-30T22:44:56+01:00*
G04 #@! TF.ProjectId,tomu,746F6D752E6B696361645F7063620000,rev?*
G04 #@! TF.FileFunction,Legend,Bot*
G04 #@! TF.FilePolarity,Positive*
G04 Gerber Fmt 4.6, Leading zero omitted, Abs format (unit mm)*
G04 Created by KiCad (PCBNEW (2017-01-20 revision 550a1ea)-makepkg) date 01/30/17 22:44:56*
G01G01*
G04 APERTURE LIST*
G04 APERTURE END LIST*
D50*
D51*
X0000793775Y0000361126D02*
X0000793775Y0000400496D01*
X0000784401Y0000400496D01*
X0000778777Y0000398622D01*
X0000775028Y0000394872D01*
X0000773153Y0000391122D01*
X0000771278Y0000383623D01*
X0000771278Y0000377999D01*
X0000773153Y0000370500D01*
X0000775028Y0000366751D01*
X0000778777Y0000363001D01*
X0000784401Y0000361126D01*
X0000793775Y0000361126D01*
X0000670884Y0000364876D02*
X0000672759Y0000363001D01*
X0000678383Y0000361126D01*
X0000682133Y0000361126D01*
X0000687757Y0000363001D01*
X0000691507Y0000366751D01*
X0000693382Y0000370500D01*
X0000695256Y0000377999D01*
X0000695256Y0000383623D01*
X0000693382Y0000391122D01*
X0000691507Y0000394872D01*
X0000687757Y0000398622D01*
X0000682133Y0000400496D01*
X0000678383Y0000400496D01*
X0000672759Y0000398622D01*
X0000670884Y0000396747D01*
X0000794713Y0000071756D02*
X0000772215Y0000071756D01*
X0000783464Y0000032386D02*
X0000783464Y0000071756D01*
X0000670884Y0000032386D02*
X0000684008Y0000051134D01*
X0000693382Y0000032386D02*
X0000693382Y0000071756D01*
X0000678383Y0000071756D01*
X0000674634Y0000069881D01*
X0000672759Y0000068007D01*
X0000670884Y0000064257D01*
X0000670884Y0000058633D01*
X0000672759Y0000054883D01*
X0000674634Y0000053009D01*
X0000678383Y0000051134D01*
X0000693382Y0000051134D01*
D52*
X0001016732Y0000167322D02*
X0001016732Y0000147637D01*
X0000975393Y0000147637D02*
X0000975393Y0000167322D01*
X0000996062Y0000351968D02*
X0000986220Y0000359842D01*
X0001005905Y0000359842D02*
X0000996062Y0000351968D01*
X0001016732Y0000365748D02*
X0001016732Y0000324409D01*
X0000975393Y0000365748D02*
X0000975393Y0000324409D01*
X0000691929Y0000101377D02*
X0000672244Y0000101377D01*
X0000672244Y0000138779D02*
X0000691929Y0000138779D01*
X0000672244Y0000233267D02*
X0000691929Y0000233267D01*
X0000691929Y0000195866D02*
X0000672244Y0000195866D01*
X0000672244Y0000186023D02*
X0000691929Y0000186023D01*
X0000691929Y0000148622D02*
X0000672244Y0000148622D01*
X0000996062Y0000086614D02*
X0001005905Y0000078740D01*
X0000986220Y0000078740D02*
X0000996062Y0000086614D01*
X0000975393Y0000072834D02*
X0000975393Y0000114173D01*
X0001016732Y0000072834D02*
X0001016732Y0000114173D01*
X0001016732Y0000299212D02*
X0001016732Y0000279527D01*
X0000975393Y0000279527D02*
X0000975393Y0000299212D01*
X0000698818Y0000243110D02*
X0000679133Y0000243110D01*
X0000679133Y0000284448D02*
X0000698818Y0000284448D01*
X0000698818Y0000294291D02*
X0000679133Y0000294291D01*
X0000679133Y0000335629D02*
X0000698818Y0000335629D01*
X0000746062Y0000321850D02*
X0000746062Y0000297244D01*
X0000952755Y0000115157D02*
X0000952755Y0000139763D01*
X0000746062Y0000115157D02*
X0000746062Y0000139763D01*
X0000952755Y0000321850D02*
X0000928149Y0000321850D01*
X0000952755Y0000115157D02*
X0000928149Y0000115157D01*
X0000746062Y0000115157D02*
X0000770669Y0000115157D01*
X0000746062Y0000321850D02*
X0000770669Y0000321850D01*
X0000618110Y0000111642D02*
X0000619235Y0000110517D01*
X0000622609Y0000109392D01*
X0000624859Y0000109392D01*
X0000628233Y0000110517D01*
X0000630483Y0000112767D01*
X0000631608Y0000115016D01*
X0000632733Y0000119516D01*
X0000632733Y0000122890D01*
X0000631608Y0000127390D01*
X0000630483Y0000129640D01*
X0000628233Y0000131889D01*
X0000624859Y0000133014D01*
X0000622609Y0000133014D01*
X0000619235Y0000131889D01*
X0000618110Y0000130764D01*
X0000595613Y0000109392D02*
X0000609111Y0000109392D01*
X0000602362Y0000109392D02*
X0000602362Y0000133014D01*
X0000604611Y0000129640D01*
X0000606861Y0000127390D01*
X0000609111Y0000126265D01*
X0000623031Y0000206130D02*
X0000624156Y0000205005D01*
X0000627530Y0000203880D01*
X0000629780Y0000203880D01*
X0000633155Y0000205005D01*
X0000635404Y0000207255D01*
X0000636529Y0000209505D01*
X0000637654Y0000214004D01*
X0000637654Y0000217379D01*
X0000636529Y0000221878D01*
X0000635404Y0000224128D01*
X0000633155Y0000226377D01*
X0000629780Y0000227502D01*
X0000627530Y0000227502D01*
X0000624156Y0000226377D01*
X0000623031Y0000225253D01*
X0000614032Y0000225253D02*
X0000612907Y0000226377D01*
X0000610658Y0000227502D01*
X0000605033Y0000227502D01*
X0000602784Y0000226377D01*
X0000601659Y0000225253D01*
X0000600534Y0000223003D01*
X0000600534Y0000220753D01*
X0000601659Y0000217379D01*
X0000615157Y0000203880D01*
X0000600534Y0000203880D01*
X0000623031Y0000158886D02*
X0000624156Y0000157761D01*
X0000627530Y0000156636D01*
X0000629780Y0000156636D01*
X0000633155Y0000157761D01*
X0000635404Y0000160011D01*
X0000636529Y0000162260D01*
X0000637654Y0000166760D01*
X0000637654Y0000170135D01*
X0000636529Y0000174634D01*
X0000635404Y0000176884D01*
X0000633155Y0000179133D01*
X0000629780Y0000180258D01*
X0000627530Y0000180258D01*
X0000624156Y0000179133D01*
X0000623031Y0000178009D01*
X0000615157Y0000180258D02*
X0000600534Y0000180258D01*
X0000608408Y0000171259D01*
X0000605033Y0000171259D01*
X0000602784Y0000170135D01*
X0000601659Y0000169010D01*
X0000600534Y0000166760D01*
X0000600534Y0000161136D01*
X0000601659Y0000158886D01*
X0000602784Y0000157761D01*
X0000605033Y0000156636D01*
X0000611782Y0000156636D01*
X0000614032Y0000157761D01*
X0000615157Y0000158886D01*
X0000637795Y0000253093D02*
X0000645669Y0000264341D01*
X0000651293Y0000253093D02*
X0000651293Y0000276715D01*
X0000642294Y0000276715D01*
X0000640044Y0000275590D01*
X0000638920Y0000274465D01*
X0000637795Y0000272215D01*
X0000637795Y0000268841D01*
X0000638920Y0000266591D01*
X0000640044Y0000265466D01*
X0000642294Y0000264341D01*
X0000651293Y0000264341D01*
X0000629921Y0000276715D02*
X0000615298Y0000276715D01*
X0000623172Y0000267716D01*
X0000619797Y0000267716D01*
X0000617547Y0000266591D01*
X0000616422Y0000265466D01*
X0000615298Y0000263217D01*
X0000615298Y0000257592D01*
X0000616422Y0000255343D01*
X0000617547Y0000254218D01*
X0000619797Y0000253093D01*
X0000626546Y0000253093D01*
X0000628796Y0000254218D01*
X0000629921Y0000255343D01*
X0000637795Y0000304274D02*
X0000645669Y0000315523D01*
X0000651293Y0000304274D02*
X0000651293Y0000327896D01*
X0000642294Y0000327896D01*
X0000640044Y0000326771D01*
X0000638920Y0000325646D01*
X0000637795Y0000323397D01*
X0000637795Y0000320022D01*
X0000638920Y0000317772D01*
X0000640044Y0000316647D01*
X0000642294Y0000315523D01*
X0000651293Y0000315523D01*
X0000617547Y0000320022D02*
X0000617547Y0000304274D01*
X0000623172Y0000329021D02*
X0000628796Y0000312148D01*
X0000614173Y0000312148D01*
G04 next file*
G04 #@! TF.GenerationSoftware,KiCad,Pcbnew,(2017-01-20 revision 550a1ea)-makepkg*
G04 #@! TF.CreationDate,2017-01-30T22:44:56+01:00*
G04 #@! TF.ProjectId,tomu,746F6D752E6B696361645F7063620000,rev?*
G04 #@! TF.FileFunction,Legend,Bot*
G04 #@! TF.FilePolarity,Positive*
G04 Gerber Fmt 4.6, Leading zero omitted, Abs format (unit mm)*
G04 Created by KiCad (PCBNEW (2017-01-20 revision 550a1ea)-makepkg) date 01/30/17 22:44:56*
G01G01*
G04 APERTURE LIST*
G04 APERTURE END LIST*
D53*
D54*
X0001384326Y0000361126D02*
X0001384326Y0000400496D01*
X0001374953Y0000400496D01*
X0001369328Y0000398622D01*
X0001365579Y0000394872D01*
X0001363704Y0000391122D01*
X0001361829Y0000383623D01*
X0001361829Y0000377999D01*
X0001363704Y0000370500D01*
X0001365579Y0000366751D01*
X0001369328Y0000363001D01*
X0001374953Y0000361126D01*
X0001384326Y0000361126D01*
X0001261436Y0000364876D02*
X0001263310Y0000363001D01*
X0001268935Y0000361126D01*
X0001272684Y0000361126D01*
X0001278308Y0000363001D01*
X0001282058Y0000366751D01*
X0001283933Y0000370500D01*
X0001285807Y0000377999D01*
X0001285807Y0000383623D01*
X0001283933Y0000391122D01*
X0001282058Y0000394872D01*
X0001278308Y0000398622D01*
X0001272684Y0000400496D01*
X0001268935Y0000400496D01*
X0001263310Y0000398622D01*
X0001261436Y0000396747D01*
X0001385264Y0000071756D02*
X0001362767Y0000071756D01*
X0001374015Y0000032386D02*
X0001374015Y0000071756D01*
X0001261436Y0000032386D02*
X0001274559Y0000051134D01*
X0001283933Y0000032386D02*
X0001283933Y0000071756D01*
X0001268935Y0000071756D01*
X0001265185Y0000069881D01*
X0001263310Y0000068007D01*
X0001261436Y0000064257D01*
X0001261436Y0000058633D01*
X0001263310Y0000054883D01*
X0001265185Y0000053009D01*
X0001268935Y0000051134D01*
X0001283933Y0000051134D01*
D55*
X0001607283Y0000167322D02*
X0001607283Y0000147637D01*
X0001565944Y0000147637D02*
X0001565944Y0000167322D01*
X0001586614Y0000351968D02*
X0001576771Y0000359842D01*
X0001596456Y0000359842D02*
X0001586614Y0000351968D01*
X0001607283Y0000365748D02*
X0001607283Y0000324409D01*
X0001565944Y0000365748D02*
X0001565944Y0000324409D01*
X0001282480Y0000101377D02*
X0001262795Y0000101377D01*
X0001262795Y0000138779D02*
X0001282480Y0000138779D01*
X0001262795Y0000233267D02*
X0001282480Y0000233267D01*
X0001282480Y0000195866D02*
X0001262795Y0000195866D01*
X0001262795Y0000186023D02*
X0001282480Y0000186023D01*
X0001282480Y0000148622D02*
X0001262795Y0000148622D01*
X0001586614Y0000086614D02*
X0001596456Y0000078740D01*
X0001576771Y0000078740D02*
X0001586614Y0000086614D01*
X0001565944Y0000072834D02*
X0001565944Y0000114173D01*
X0001607283Y0000072834D02*
X0001607283Y0000114173D01*
X0001607283Y0000299212D02*
X0001607283Y0000279527D01*
X0001565944Y0000279527D02*
X0001565944Y0000299212D01*
X0001289370Y0000243110D02*
X0001269685Y0000243110D01*
X0001269685Y0000284448D02*
X0001289370Y0000284448D01*
X0001289370Y0000294291D02*
X0001269685Y0000294291D01*
X0001269685Y0000335629D02*
X0001289370Y0000335629D01*
X0001336614Y0000321850D02*
X0001336614Y0000297244D01*
X0001543307Y0000115157D02*
X0001543307Y0000139763D01*
X0001336614Y0000115157D02*
X0001336614Y0000139763D01*
X0001543307Y0000321850D02*
X0001518700Y0000321850D01*
X0001543307Y0000115157D02*
X0001518700Y0000115157D01*
X0001336614Y0000115157D02*
X0001361220Y0000115157D01*
X0001336614Y0000321850D02*
X0001361220Y0000321850D01*
X0001208661Y0000111642D02*
X0001209786Y0000110517D01*
X0001213160Y0000109392D01*
X0001215410Y0000109392D01*
X0001218785Y0000110517D01*
X0001221034Y0000112767D01*
X0001222159Y0000115016D01*
X0001223284Y0000119516D01*
X0001223284Y0000122890D01*
X0001222159Y0000127390D01*
X0001221034Y0000129640D01*
X0001218785Y0000131889D01*
X0001215410Y0000133014D01*
X0001213160Y0000133014D01*
X0001209786Y0000131889D01*
X0001208661Y0000130764D01*
X0001186164Y0000109392D02*
X0001199662Y0000109392D01*
X0001192913Y0000109392D02*
X0001192913Y0000133014D01*
X0001195163Y0000129640D01*
X0001197412Y0000127390D01*
X0001199662Y0000126265D01*
X0001213582Y0000206130D02*
X0001214707Y0000205005D01*
X0001218082Y0000203880D01*
X0001220331Y0000203880D01*
X0001223706Y0000205005D01*
X0001225956Y0000207255D01*
X0001227080Y0000209505D01*
X0001228205Y0000214004D01*
X0001228205Y0000217379D01*
X0001227080Y0000221878D01*
X0001225956Y0000224128D01*
X0001223706Y0000226377D01*
X0001220331Y0000227502D01*
X0001218082Y0000227502D01*
X0001214707Y0000226377D01*
X0001213582Y0000225253D01*
X0001204583Y0000225253D02*
X0001203458Y0000226377D01*
X0001201209Y0000227502D01*
X0001195584Y0000227502D01*
X0001193335Y0000226377D01*
X0001192210Y0000225253D01*
X0001191085Y0000223003D01*
X0001191085Y0000220753D01*
X0001192210Y0000217379D01*
X0001205708Y0000203880D01*
X0001191085Y0000203880D01*
X0001213582Y0000158886D02*
X0001214707Y0000157761D01*
X0001218082Y0000156636D01*
X0001220331Y0000156636D01*
X0001223706Y0000157761D01*
X0001225956Y0000160011D01*
X0001227080Y0000162260D01*
X0001228205Y0000166760D01*
X0001228205Y0000170135D01*
X0001227080Y0000174634D01*
X0001225956Y0000176884D01*
X0001223706Y0000179133D01*
X0001220331Y0000180258D01*
X0001218082Y0000180258D01*
X0001214707Y0000179133D01*
X0001213582Y0000178009D01*
X0001205708Y0000180258D02*
X0001191085Y0000180258D01*
X0001198959Y0000171259D01*
X0001195584Y0000171259D01*
X0001193335Y0000170135D01*
X0001192210Y0000169010D01*
X0001191085Y0000166760D01*
X0001191085Y0000161136D01*
X0001192210Y0000158886D01*
X0001193335Y0000157761D01*
X0001195584Y0000156636D01*
X0001202334Y0000156636D01*
X0001204583Y0000157761D01*
X0001205708Y0000158886D01*
X0001228346Y0000253093D02*
X0001236220Y0000264341D01*
X0001241844Y0000253093D02*
X0001241844Y0000276715D01*
X0001232845Y0000276715D01*
X0001230596Y0000275590D01*
X0001229471Y0000274465D01*
X0001228346Y0000272215D01*
X0001228346Y0000268841D01*
X0001229471Y0000266591D01*
X0001230596Y0000265466D01*
X0001232845Y0000264341D01*
X0001241844Y0000264341D01*
X0001220472Y0000276715D02*
X0001205849Y0000276715D01*
X0001213723Y0000267716D01*
X0001210348Y0000267716D01*
X0001208098Y0000266591D01*
X0001206974Y0000265466D01*
X0001205849Y0000263217D01*
X0001205849Y0000257592D01*
X0001206974Y0000255343D01*
X0001208098Y0000254218D01*
X0001210348Y0000253093D01*
X0001217097Y0000253093D01*
X0001219347Y0000254218D01*
X0001220472Y0000255343D01*
X0001228346Y0000304274D02*
X0001236220Y0000315523D01*
X0001241844Y0000304274D02*
X0001241844Y0000327896D01*
X0001232845Y0000327896D01*
X0001230596Y0000326771D01*
X0001229471Y0000325646D01*
X0001228346Y0000323397D01*
X0001228346Y0000320022D01*
X0001229471Y0000317772D01*
X0001230596Y0000316647D01*
X0001232845Y0000315523D01*
X0001241844Y0000315523D01*
X0001208098Y0000320022D02*
X0001208098Y0000304274D01*
X0001213723Y0000329021D02*
X0001219347Y0000312148D01*
X0001204724Y0000312148D01*
M02*