%
M48
METRIC,000.000
T01C0.30
T02C0.79
%
T01
X000749Y041999
X000749Y047000
X000899Y046075
X000899Y044074
X007490Y049230
X009740Y045311
X010259Y039591
X010299Y049288
X010728Y044780
X011300Y047548
X011300Y041501
X011501Y046210
X011501Y042771
X015749Y041999
X015749Y047000
X015899Y046075
X015899Y044074
X022490Y049230
X024740Y045311
X025259Y039591
X025299Y049288
X025728Y044780
X026300Y047548
X026300Y041501
X026501Y046210
X026501Y042771
X030749Y041999
X030749Y047000
X030899Y046075
X030899Y044074
X037490Y049230
X039740Y045311
X040259Y039591
X040299Y049288
X040728Y044780
X041300Y047548
X041300Y041501
X041501Y046210
X041501Y042771
X000749Y028999
X000749Y034000
X000899Y033075
X000899Y031074
X007490Y036230
X009740Y032311
X010259Y026591
X010299Y036288
X010728Y031780
X011300Y034548
X011300Y028501
X011501Y033210
X011501Y029771
X015749Y028999
X015749Y034000
X015899Y033075
X015899Y031074
X022490Y036230
X024740Y032311
X025259Y026591
X025299Y036288
X025728Y031780
X026300Y034548
X026300Y028501
X026501Y033210
X026501Y029771
X030749Y028999
X030749Y034000
X030899Y033075
X030899Y031074
X037490Y036230
X039740Y032311
X040259Y026591
X040299Y036288
X040728Y031780
X041300Y034548
X041300Y028501
X041501Y033210
X041501Y029771
X000749Y015999
X000749Y021000
X000899Y020075
X000899Y018074
X007490Y023230
X009740Y019311
X010259Y013591
X010299Y023288
X010728Y018780
X011300Y021548
X011300Y015501
X011501Y020210
X011501Y016771
X015749Y015999
X015749Y021000
X015899Y020075
X015899Y018074
X022490Y023230
X024740Y019311
X025259Y013591
X025299Y023288
X025728Y018780
X026300Y021548
X026300Y015501
X026501Y020210
X026501Y016771
X030749Y015999
X030749Y021000
X030899Y020075
X030899Y018074
X037490Y023230
X039740Y019311
X040259Y013591
X040299Y023288
X040728Y018780
X041300Y021548
X041300Y015501
X041501Y020210
X041501Y016771
X000749Y002999
X000749Y008000
X000899Y007075
X000899Y005074
X007490Y010230
X009740Y006311
X010259Y000591
X010299Y010288
X010728Y005780
X011300Y008548
X011300Y002501
X011501Y007210
X011501Y003771
X015749Y002999
X015749Y008000
X015899Y007075
X015899Y005074
X022490Y010230
X024740Y006311
X025259Y000591
X025299Y010288
X025728Y005780
X026300Y008548
X026300Y002501
X026501Y007210
X026501Y003771
X030749Y002999
X030749Y008000
X030899Y007075
X030899Y005074
X037490Y010230
X039740Y006311
X040259Y000591
X040299Y010288
X040728Y005780
X041300Y008548
X041300Y002501
X041501Y007210
X041501Y003771
T02
X011998Y043650G85X011998Y045349
X026998Y043650G85X026998Y045349
X041998Y043650G85X041998Y045349
X011998Y030650G85X011998Y032348
X026998Y030650G85X026998Y032348
X041998Y030650G85X041998Y032348
X011998Y017650G85X011998Y019349
X026998Y017650G85X026998Y019349
X041998Y017650G85X041998Y019349
X011998Y004650G85X011998Y006349
X026998Y004650G85X026998Y006349
X041998Y004650G85X041998Y006349
M30