%
M48
METRIC,000.000
T01C0.50
%
T01
X013076Y002391
X013169Y003386
X013230Y004384
X013250Y005383
X013240Y006382
X013188Y007380
X014750Y007447
X014750Y006447
X014750Y005447
X014750Y004447
X014750Y003447
X014750Y002447
X004357Y012750
X005357Y012750
X006357Y012750
X007357Y012750
X008357Y012750
X009253Y011250
X008253Y011250
X007253Y011250
X006253Y011250
X005253Y011250
X004253Y011250
X018357Y012750
X019357Y012750
X020357Y012750
X021357Y012750
X022357Y012750
X023357Y012750
X023253Y011250
X022253Y011250
X021253Y011250
X020253Y011250
X019253Y011250
X018253Y011250
X004357Y038750
X005357Y038750
X006357Y038750
X007357Y038750
X008357Y038750
X009253Y037250
X008253Y037250
X007253Y037250
X006253Y037250
X005253Y037250
X004253Y037250
X004357Y025750
X005357Y025750
X006357Y025750
X007357Y025750
X008357Y025750
X009253Y024250
X008253Y024250
X007253Y024250
X006253Y024250
X005253Y024250
X004253Y024250
X019357Y025750
X020357Y025750
X021357Y025750
X022357Y025750
X023357Y025750
X024253Y024250
X023253Y024250
X022253Y024250
X021253Y024250
X020253Y024250
X019253Y024250
X028076Y002391
X028169Y003386
X028230Y004384
X028250Y005383
X028240Y006382
X028188Y007380
X029750Y007447
X029750Y006447
X029750Y005447
X029750Y004447
X029750Y003447
X029750Y002447
X033357Y012750
X034357Y012750
X035357Y012750
X036357Y012750
X037357Y012750
X038253Y011250
X037253Y011250
X036253Y011250
X035253Y011250
X034253Y011250
X033253Y011250
X033357Y025750
X034357Y025750
X035357Y025750
X036357Y025750
X037357Y025750
X038357Y025750
X038253Y024250
X037253Y024250
X036253Y024250
X035253Y024250
X034253Y024250
X033253Y024250
X033357Y038750
X034357Y038750
X035357Y038750
X036357Y038750
X037357Y038750
X038357Y038750
X038253Y037250
X037253Y037250
X036253Y037250
X035253Y037250
X034253Y037250
X033253Y037250
X028169Y042386
X028230Y043384
X028250Y044383
X028240Y045382
X028188Y046380
X029750Y047447
X029750Y046447
X029750Y045447
X029750Y044447
X029750Y043447
X029750Y042447
X019357Y038750
X020357Y038750
X021357Y038750
X022357Y038750
X023357Y038750
X024253Y037250
X023253Y037250
X022253Y037250
X021253Y037250
X020253Y037250
X019253Y037250
X013169Y042386
X013230Y043384
X013250Y044383
X013240Y045382
X013188Y046380
X014750Y047447
X014750Y046447
X014750Y045447
X014750Y044447
X014750Y043447
X014750Y042447
M30