G04 #@! TF.FileFunction,Legend,Bot*
%FSLAX46Y46*%
G04 Gerber Fmt 4.6, Leading zero omitted, Abs format (unit mm)*
G04 Created by KiCad (PCBNEW 4.0.7) date 02/21/18 19:48:22*
%MOMM*%
%LPD*%
G01*
G04 APERTURE LIST*
%ADD10C,0.100000*%
%ADD11C,0.150000*%
%ADD12C,0.200000*%
G04 APERTURE END LIST*
D10*
D11*
X17341429Y-25345714D02*
X17341429Y-25060000D01*
X17627143Y-25031429D01*
X17598571Y-25060000D01*
X17570000Y-25117143D01*
X17570000Y-25260000D01*
X17598571Y-25317143D01*
X17627143Y-25345714D01*
X17684286Y-25374286D01*
X17827143Y-25374286D01*
X17884286Y-25345714D01*
X17912857Y-25317143D01*
X17941429Y-25260000D01*
X17941429Y-25117143D01*
X17912857Y-25060000D01*
X17884286Y-25031429D01*
X17341429Y-25545715D02*
X17941429Y-25745715D01*
X17341429Y-25945715D01*
X18332857Y-17440000D02*
X18390000Y-17411429D01*
X18475714Y-17411429D01*
X18561429Y-17440000D01*
X18618571Y-17497143D01*
X18647143Y-17554286D01*
X18675714Y-17668571D01*
X18675714Y-17754286D01*
X18647143Y-17868571D01*
X18618571Y-17925714D01*
X18561429Y-17982857D01*
X18475714Y-18011429D01*
X18418571Y-18011429D01*
X18332857Y-17982857D01*
X18304286Y-17954286D01*
X18304286Y-17754286D01*
X18418571Y-17754286D01*
X26627143Y-17301429D02*
X26255714Y-17301429D01*
X26455714Y-17530000D01*
X26370000Y-17530000D01*
X26312857Y-17558571D01*
X26284286Y-17587143D01*
X26255714Y-17644286D01*
X26255714Y-17787143D01*
X26284286Y-17844286D01*
X26312857Y-17872857D01*
X26370000Y-17901429D01*
X26541428Y-17901429D01*
X26598571Y-17872857D01*
X26627143Y-17844286D01*
X26084285Y-17301429D02*
X25884285Y-17901429D01*
X25684285Y-17301429D01*
X26610000Y-25631429D02*
X26210000Y-26231429D01*
X26210000Y-25631429D02*
X26610000Y-26231429D01*
D12*
X26600000Y-19400000D02*
G75*
G03X26600000Y-19400000I-100000J0D01*
G01*
D11*
X23667143Y-17901429D02*
X23667143Y-17301429D01*
X23524286Y-17301429D01*
X23438571Y-17330000D01*
X23381429Y-17387143D01*
X23352857Y-17444286D01*
X23324286Y-17558571D01*
X23324286Y-17644286D01*
X23352857Y-17758571D01*
X23381429Y-17815714D01*
X23438571Y-17872857D01*
X23524286Y-17901429D01*
X23667143Y-17901429D01*
X20854286Y-17844286D02*
X20882857Y-17872857D01*
X20968571Y-17901429D01*
X21025714Y-17901429D01*
X21111429Y-17872857D01*
X21168571Y-17815714D01*
X21197143Y-17758571D01*
X21225714Y-17644286D01*
X21225714Y-17558571D01*
X21197143Y-17444286D01*
X21168571Y-17387143D01*
X21111429Y-17330000D01*
X21025714Y-17301429D01*
X20968571Y-17301429D01*
X20882857Y-17330000D01*
X20854286Y-17358571D01*
X24731428Y-25631429D02*
X24388571Y-25631429D01*
X24560000Y-26231429D02*
X24560000Y-25631429D01*
X22964286Y-26231429D02*
X23164286Y-25945714D01*
X23307143Y-26231429D02*
X23307143Y-25631429D01*
X23078571Y-25631429D01*
X23021429Y-25660000D01*
X22992857Y-25688571D01*
X22964286Y-25745714D01*
X22964286Y-25831429D01*
X22992857Y-25888571D01*
X23021429Y-25917143D01*
X23078571Y-25945714D01*
X23307143Y-25945714D01*
X20975000Y-19125000D02*
X20975000Y-19750000D01*
X26225000Y-24375000D02*
X26225000Y-23750000D01*
X20975000Y-24375000D02*
X20975000Y-23750000D01*
X26225000Y-19125000D02*
X25600000Y-19125000D01*
X26225000Y-24375000D02*
X25600000Y-24375000D01*
X20975000Y-24375000D02*
X21600000Y-24375000D01*
X20975000Y-19125000D02*
X21600000Y-19125000D01*
X27250000Y-23225000D02*
X27750000Y-23225000D01*
X27750000Y-24275000D02*
X27250000Y-24275000D01*
X27600000Y-18250000D02*
X27400000Y-18500000D01*
X27400000Y-18000000D02*
X27600000Y-18250000D01*
X27250000Y-17725000D02*
X28300000Y-17725000D01*
X27250000Y-18775000D02*
X28300000Y-18775000D01*
X20375000Y-24550000D02*
X20375000Y-25050000D01*
X19425000Y-25050000D02*
X19425000Y-24550000D01*
X19100000Y-21375000D02*
X19600000Y-21375000D01*
X19600000Y-22325000D02*
X19100000Y-22325000D01*
X19100000Y-22575000D02*
X19600000Y-22575000D01*
X19600000Y-23525000D02*
X19100000Y-23525000D01*
X27600000Y-25050000D02*
X27400000Y-25300000D01*
X27400000Y-24800000D02*
X27600000Y-25050000D01*
X27250000Y-24525000D02*
X28300000Y-24525000D01*
X27250000Y-25575000D02*
X28300000Y-25575000D01*
X27750000Y-20075000D02*
X27250000Y-20075000D01*
X27250000Y-19025000D02*
X27750000Y-19025000D01*
X19775000Y-21125000D02*
X19275000Y-21125000D01*
X19275000Y-20075000D02*
X19775000Y-20075000D01*
X19775000Y-19825000D02*
X19275000Y-19825000D01*
X19275000Y-18775000D02*
X19775000Y-18775000D01*
X22007143Y-18111429D02*
X22007143Y-18597143D01*
X21978571Y-18654286D01*
X21950000Y-18682857D01*
X21892857Y-18711429D01*
X21778571Y-18711429D01*
X21721429Y-18682857D01*
X21692857Y-18654286D01*
X21664286Y-18597143D01*
X21664286Y-18111429D01*
X21064286Y-18711429D02*
X21407143Y-18711429D01*
X21235715Y-18711429D02*
X21235715Y-18111429D01*
X21292858Y-18197143D01*
X21350000Y-18254286D01*
X21407143Y-18282857D01*
X18810000Y-26034286D02*
X18838571Y-26062857D01*
X18924285Y-26091429D01*
X18981428Y-26091429D01*
X19067143Y-26062857D01*
X19124285Y-26005714D01*
X19152857Y-25948571D01*
X19181428Y-25834286D01*
X19181428Y-25748571D01*
X19152857Y-25634286D01*
X19124285Y-25577143D01*
X19067143Y-25520000D01*
X18981428Y-25491429D01*
X18924285Y-25491429D01*
X18838571Y-25520000D01*
X18810000Y-25548571D01*
X18238571Y-26091429D02*
X18581428Y-26091429D01*
X18410000Y-26091429D02*
X18410000Y-25491429D01*
X18467143Y-25577143D01*
X18524285Y-25634286D01*
X18581428Y-25662857D01*
X17964286Y-21650000D02*
X17992857Y-21621429D01*
X18021429Y-21535715D01*
X18021429Y-21478572D01*
X17992857Y-21392857D01*
X17935714Y-21335715D01*
X17878571Y-21307143D01*
X17764286Y-21278572D01*
X17678571Y-21278572D01*
X17564286Y-21307143D01*
X17507143Y-21335715D01*
X17450000Y-21392857D01*
X17421429Y-21478572D01*
X17421429Y-21535715D01*
X17450000Y-21621429D01*
X17478571Y-21650000D01*
X17478571Y-21878572D02*
X17450000Y-21907143D01*
X17421429Y-21964286D01*
X17421429Y-22107143D01*
X17450000Y-22164286D01*
X17478571Y-22192857D01*
X17535714Y-22221429D01*
X17592857Y-22221429D01*
X17678571Y-22192857D01*
X18021429Y-21850000D01*
X18021429Y-22221429D01*
X17964286Y-22950000D02*
X17992857Y-22921429D01*
X18021429Y-22835715D01*
X18021429Y-22778572D01*
X17992857Y-22692857D01*
X17935714Y-22635715D01*
X17878571Y-22607143D01*
X17764286Y-22578572D01*
X17678571Y-22578572D01*
X17564286Y-22607143D01*
X17507143Y-22635715D01*
X17450000Y-22692857D01*
X17421429Y-22778572D01*
X17421429Y-22835715D01*
X17450000Y-22921429D01*
X17478571Y-22950000D01*
X17421429Y-23150000D02*
X17421429Y-23521429D01*
X17650000Y-23321429D01*
X17650000Y-23407143D01*
X17678571Y-23464286D01*
X17707143Y-23492857D01*
X17764286Y-23521429D01*
X17907143Y-23521429D01*
X17964286Y-23492857D01*
X17992857Y-23464286D01*
X18021429Y-23407143D01*
X18021429Y-23235715D01*
X17992857Y-23178572D01*
X17964286Y-23150000D01*
X18421429Y-20500000D02*
X18135714Y-20300000D01*
X18421429Y-20157143D02*
X17821429Y-20157143D01*
X17821429Y-20385715D01*
X17850000Y-20442857D01*
X17878571Y-20471429D01*
X17935714Y-20500000D01*
X18021429Y-20500000D01*
X18078571Y-20471429D01*
X18107143Y-20442857D01*
X18135714Y-20385715D01*
X18135714Y-20157143D01*
X17821429Y-20700000D02*
X17821429Y-21071429D01*
X18050000Y-20871429D01*
X18050000Y-20957143D01*
X18078571Y-21014286D01*
X18107143Y-21042857D01*
X18164286Y-21071429D01*
X18307143Y-21071429D01*
X18364286Y-21042857D01*
X18392857Y-21014286D01*
X18421429Y-20957143D01*
X18421429Y-20785715D01*
X18392857Y-20728572D01*
X18364286Y-20700000D01*
X18421429Y-19200000D02*
X18135714Y-19000000D01*
X18421429Y-18857143D02*
X17821429Y-18857143D01*
X17821429Y-19085715D01*
X17850000Y-19142857D01*
X17878571Y-19171429D01*
X17935714Y-19200000D01*
X18021429Y-19200000D01*
X18078571Y-19171429D01*
X18107143Y-19142857D01*
X18135714Y-19085715D01*
X18135714Y-18857143D01*
X18021429Y-19714286D02*
X18421429Y-19714286D01*
X17792857Y-19571429D02*
X18221429Y-19428572D01*
X18221429Y-19800000D01*
M02*
