G04 #@! TF.FileFunction,Legend,Top*
%FSLAX46Y46*%
G04 Gerber Fmt 4.6, Leading zero omitted, Abs format (unit mm)*
G04 Created by KiCad (PCBNEW 4.0.7) date 02/21/18 19:48:22*
%MOMM*%
%LPD*%
G01*
G04 APERTURE LIST*
%ADD10C,0.100000*%
G04 APERTURE END LIST*
D10*
X26266000Y-25955000D02*
X26266000Y-25635000D01*
X26032667Y-25835000D02*
X26632667Y-25835000D01*
X26699333Y-25795000D01*
X26732667Y-25715000D01*
X26732667Y-25635000D01*
X26732667Y-25235000D02*
X26699333Y-25315000D01*
X26666000Y-25355000D01*
X26599333Y-25395000D01*
X26399333Y-25395000D01*
X26332667Y-25355000D01*
X26299333Y-25315000D01*
X26266000Y-25235000D01*
X26266000Y-25115000D01*
X26299333Y-25035000D01*
X26332667Y-24995000D01*
X26399333Y-24955000D01*
X26599333Y-24955000D01*
X26666000Y-24995000D01*
X26699333Y-25035000D01*
X26732667Y-25115000D01*
X26732667Y-25235000D01*
X26732667Y-24595000D02*
X26266000Y-24595000D01*
X26332667Y-24595000D02*
X26299333Y-24555000D01*
X26266000Y-24475000D01*
X26266000Y-24355000D01*
X26299333Y-24275000D01*
X26366000Y-24235000D01*
X26732667Y-24235000D01*
X26366000Y-24235000D02*
X26299333Y-24195000D01*
X26266000Y-24115000D01*
X26266000Y-23995000D01*
X26299333Y-23915000D01*
X26366000Y-23875000D01*
X26732667Y-23875000D01*
X26266000Y-23115000D02*
X26732667Y-23115000D01*
X26266000Y-23475000D02*
X26632667Y-23475000D01*
X26699333Y-23435000D01*
X26732667Y-23355000D01*
X26732667Y-23235000D01*
X26699333Y-23155000D01*
X26666000Y-23115000D01*
X26666000Y-22715000D02*
X26699333Y-22675000D01*
X26732667Y-22715000D01*
X26699333Y-22755000D01*
X26666000Y-22715000D01*
X26732667Y-22715000D01*
X26732667Y-22315000D02*
X26266000Y-22315000D01*
X26032667Y-22315000D02*
X26066000Y-22355000D01*
X26099333Y-22315000D01*
X26066000Y-22275000D01*
X26032667Y-22315000D01*
X26099333Y-22315000D01*
X26732667Y-21915000D02*
X26266000Y-21915000D01*
X26332667Y-21915000D02*
X26299333Y-21875000D01*
X26266000Y-21795000D01*
X26266000Y-21675000D01*
X26299333Y-21595000D01*
X26366000Y-21555000D01*
X26732667Y-21555000D01*
X26366000Y-21555000D02*
X26299333Y-21515000D01*
X26266000Y-21435000D01*
X26266000Y-21315000D01*
X26299333Y-21235000D01*
X26366000Y-21195000D01*
X26732667Y-21195000D01*
X26266000Y-20235000D02*
X26732667Y-20035000D01*
X26266000Y-19835000D01*
X26032667Y-19355000D02*
X26032667Y-19275000D01*
X26066000Y-19195000D01*
X26099333Y-19155000D01*
X26166000Y-19115000D01*
X26299333Y-19075000D01*
X26466000Y-19075000D01*
X26599333Y-19115000D01*
X26666000Y-19155000D01*
X26699333Y-19195000D01*
X26732667Y-19275000D01*
X26732667Y-19355000D01*
X26699333Y-19435000D01*
X26666000Y-19475000D01*
X26599333Y-19515000D01*
X26466000Y-19555000D01*
X26299333Y-19555000D01*
X26166000Y-19515000D01*
X26099333Y-19475000D01*
X26066000Y-19435000D01*
X26032667Y-19355000D01*
X26666000Y-18715000D02*
X26699333Y-18675000D01*
X26732667Y-18715000D01*
X26699333Y-18755000D01*
X26666000Y-18715000D01*
X26732667Y-18715000D01*
X26266000Y-17955000D02*
X26732667Y-17955000D01*
X25999333Y-18155000D02*
X26499333Y-18355000D01*
X26499333Y-17835000D01*
M02*
