M48
;DRILL file {KiCad 4.0.7} date 02/21/18 19:48:42
;FORMAT={-:-/ absolute / inch / decimal}
FMAT,2
INCH,TZ
T1C0.012
%
G90
G05
M72
T1
X0.6948Y-0.9232
X0.7161Y-0.8839
X0.7175Y-0.7254
X0.7209Y-0.7994
X0.7362Y-0.9606
X0.9402Y-0.7189
X1.0257Y-0.7648
X1.0259Y-0.6934
X1.0393Y-0.9449
X1.0421Y-0.7189
X1.0472Y-0.9665
X1.0516Y-0.8232
X1.0587Y-0.8
X1.1545Y-1.0157
X1.1555Y-0.6978
X1.1585Y-0.9921
X1.1594Y-0.7215
X1.1624Y-0.9685
X1.1634Y-0.7451
X1.1654Y-0.935
X1.1663Y-0.7815
X1.1673Y-0.8051
X1.1673Y-0.9114
X1.1683Y-0.8287
X1.1683Y-0.8878
T0
M30
