G04 #@! TF.FileFunction,Soldermask,Top*
%FSLAX46Y46*%
G04 Gerber Fmt 4.6, Leading zero omitted, Abs format (unit mm)*
G04 Created by KiCad (PCBNEW 4.0.7) date 02/21/18 19:48:22*
%MOMM*%
%LPD*%
G01*
G04 APERTURE LIST*
%ADD10C,0.100000*%
G04 APERTURE END LIST*
D10*
G36*
X30595000Y-26745000D02*
X27855000Y-26745000D01*
X27855000Y-22255000D01*
X30595000Y-22255000D01*
X30595000Y-26745000D01*
X30595000Y-26745000D01*
G37*
G36*
X18111822Y-23966224D02*
X18120046Y-23971643D01*
X18129454Y-23974557D01*
X18135001Y-23974999D01*
X25600001Y-23974999D01*
X25600001Y-26225001D01*
X18135001Y-26225001D01*
X18125250Y-26226387D01*
X18116272Y-26230434D01*
X18110420Y-26235421D01*
X18110251Y-26235252D01*
X18102376Y-26229337D01*
X18097616Y-26227535D01*
X18094566Y-26220769D01*
X18089748Y-26214749D01*
X17099999Y-25225000D01*
X17099999Y-23974999D01*
X18085502Y-23974999D01*
X18095253Y-23973613D01*
X18104231Y-23969566D01*
X18110251Y-23964748D01*
X18110420Y-23964579D01*
X18111822Y-23966224D01*
X18111822Y-23966224D01*
G37*
G36*
X25600001Y-23725001D02*
X18099999Y-23725001D01*
X18099999Y-21974999D01*
X25600001Y-21974999D01*
X25600001Y-23725001D01*
X25600001Y-23725001D01*
G37*
G36*
X25600001Y-21725001D02*
X18099999Y-21725001D01*
X18099999Y-19974999D01*
X25600001Y-19974999D01*
X25600001Y-21725001D01*
X25600001Y-21725001D01*
G37*
G36*
X30595000Y-21145000D02*
X27855000Y-21145000D01*
X27855000Y-16655000D01*
X30595000Y-16655000D01*
X30595000Y-21145000D01*
X30595000Y-21145000D01*
G37*
G36*
X18111822Y-17466224D02*
X18120046Y-17471643D01*
X18129454Y-17474557D01*
X18135001Y-17474999D01*
X25600001Y-17474999D01*
X25600001Y-19725001D01*
X18135001Y-19725001D01*
X18125250Y-19726387D01*
X18116272Y-19730434D01*
X18110420Y-19735421D01*
X18110251Y-19735252D01*
X18102376Y-19729337D01*
X18093165Y-19725850D01*
X18085502Y-19725001D01*
X17099999Y-19725001D01*
X17099999Y-18475000D01*
X18089748Y-17485251D01*
X18095663Y-17477376D01*
X18097465Y-17472616D01*
X18104231Y-17469566D01*
X18110251Y-17464748D01*
X18110420Y-17464579D01*
X18111822Y-17466224D01*
X18111822Y-17466224D01*
G37*
M02*
