G04 #@! TF.FileFunction,Copper,L2,Bot,Signal*
%FSLAX46Y46*%
G04 Gerber Fmt 4.6, Leading zero omitted, Abs format (unit mm)*
G04 Created by KiCad (PCBNEW 4.0.2+e4-6225~38~ubuntu14.04.1-stable) date Wed Aug  3 13:30:16 2016*
%MOMM*%
G01*
G04 APERTURE LIST*
%ADD10C,0.350000*%
%ADD11C,0.050000*%
%ADD12R,1.727200X2.032000*%
%ADD13O,1.727200X1.727200*%
%ADD14R,0.600000X0.400000*%
%ADD15R,0.600000X0.500000*%
%ADD16R,0.400000X0.600000*%
%ADD17R,0.750000X0.300000*%
%ADD18R,0.300000X0.750000*%
%ADD19R,1.600000X1.600000*%
%ADD20C,0.600000*%
%ADD21C,0.300000*%
%ADD22C,0.152400*%
%ADD23C,0.254000*%
%ADD24C,0.300000*%
%ADD25O,0.799999X2.499999*%
G04 APERTURE END LIST*
D10*
D11*
X17450000Y-18000000D02*
G75*
G03X17000000Y-18470000I10000J-460000D01*
G01*
X17000000Y-28550000D02*
G75*
G03X17470000Y-29000000I460000J10000D01*
G01*
X17000000Y-18480000D02*
X17000000Y-28530000D01*
X29000000Y-18000000D02*
X17460000Y-18000000D01*
X17460000Y-29000000D02*
X29000000Y-29000000D01*
X30000000Y-23500000D02*
X30000000Y-23370000D01*
X30000000Y-23370000D02*
X30000000Y-23230000D01*
X30000000Y-23230000D02*
X30000000Y-23100000D01*
X30000000Y-23100000D02*
X30000000Y-22960000D01*
X30000000Y-22960000D02*
X29990000Y-22830000D01*
X29990000Y-22830000D02*
X29990000Y-22690000D01*
X29990000Y-22690000D02*
X29990000Y-22560000D01*
X29990000Y-22560000D02*
X29980000Y-22430000D01*
X29980000Y-22430000D02*
X29980000Y-22290000D01*
X29980000Y-22290000D02*
X29970000Y-22160000D01*
X29970000Y-22160000D02*
X29960000Y-22030000D01*
X29960000Y-22030000D02*
X29960000Y-21900000D01*
X29960000Y-21900000D02*
X29950000Y-21770000D01*
X29950000Y-21770000D02*
X29940000Y-21650000D01*
X29940000Y-21650000D02*
X29930000Y-21520000D01*
X29930000Y-21520000D02*
X29920000Y-21400000D01*
X29920000Y-21400000D02*
X29910000Y-21270000D01*
X29910000Y-21270000D02*
X29900000Y-21150000D01*
X29900000Y-21150000D02*
X29890000Y-21030000D01*
X29890000Y-21030000D02*
X29880000Y-20910000D01*
X29880000Y-20910000D02*
X29870000Y-20790000D01*
X29870000Y-20790000D02*
X29860000Y-20670000D01*
X29860000Y-20670000D02*
X29840000Y-20560000D01*
X29840000Y-20560000D02*
X29830000Y-20440000D01*
X29830000Y-20440000D02*
X29820000Y-20330000D01*
X29820000Y-20330000D02*
X29800000Y-20220000D01*
X29800000Y-20220000D02*
X29790000Y-20120000D01*
X29790000Y-20120000D02*
X29770000Y-20010000D01*
X29770000Y-20010000D02*
X29760000Y-19910000D01*
X29760000Y-19910000D02*
X29740000Y-19810000D01*
X29740000Y-19810000D02*
X29720000Y-19710000D01*
X29720000Y-19710000D02*
X29710000Y-19610000D01*
X29710000Y-19610000D02*
X29690000Y-19520000D01*
X29690000Y-19520000D02*
X29670000Y-19420000D01*
X29670000Y-19420000D02*
X29650000Y-19340000D01*
X29650000Y-19340000D02*
X29630000Y-19250000D01*
X29630000Y-19250000D02*
X29620000Y-19160000D01*
X29620000Y-19160000D02*
X29600000Y-19080000D01*
X29600000Y-19080000D02*
X29580000Y-19000000D01*
X29580000Y-19000000D02*
X29560000Y-18930000D01*
X29560000Y-18930000D02*
X29530000Y-18850000D01*
X29530000Y-18850000D02*
X29510000Y-18780000D01*
X29510000Y-18780000D02*
X29490000Y-18710000D01*
X29490000Y-18710000D02*
X29470000Y-18650000D01*
X29470000Y-18650000D02*
X29450000Y-18590000D01*
X29450000Y-18590000D02*
X29430000Y-18530000D01*
X29430000Y-18530000D02*
X29410000Y-18470000D01*
X29410000Y-18470000D02*
X29380000Y-18420000D01*
X29380000Y-18420000D02*
X29360000Y-18370000D01*
X29360000Y-18370000D02*
X29340000Y-18320000D01*
X29340000Y-18320000D02*
X29310000Y-18280000D01*
X29310000Y-18280000D02*
X29290000Y-18240000D01*
X29290000Y-18240000D02*
X29270000Y-18200000D01*
X29270000Y-18200000D02*
X29240000Y-18160000D01*
X29240000Y-18160000D02*
X29220000Y-18130000D01*
X29220000Y-18130000D02*
X29200000Y-18110000D01*
X29200000Y-18110000D02*
X29170000Y-18080000D01*
X29170000Y-18080000D02*
X29150000Y-18060000D01*
X29150000Y-18060000D02*
X29120000Y-18040000D01*
X29120000Y-18040000D02*
X29100000Y-18030000D01*
X29100000Y-18030000D02*
X29070000Y-18010000D01*
X29070000Y-18010000D02*
X29050000Y-18010000D01*
X29050000Y-18010000D02*
X29020000Y-18000000D01*
X29020000Y-18000000D02*
X29000000Y-18000000D01*
X29000000Y-29000000D02*
X29020000Y-29000000D01*
X29020000Y-29000000D02*
X29050000Y-28990000D01*
X29050000Y-28990000D02*
X29070000Y-28990000D01*
X29070000Y-28990000D02*
X29100000Y-28970000D01*
X29100000Y-28970000D02*
X29120000Y-28960000D01*
X29120000Y-28960000D02*
X29150000Y-28940000D01*
X29150000Y-28940000D02*
X29170000Y-28920000D01*
X29170000Y-28920000D02*
X29200000Y-28890000D01*
X29200000Y-28890000D02*
X29220000Y-28870000D01*
X29220000Y-28870000D02*
X29240000Y-28840000D01*
X29240000Y-28840000D02*
X29270000Y-28800000D01*
X29270000Y-28800000D02*
X29290000Y-28760000D01*
X29290000Y-28760000D02*
X29310000Y-28720000D01*
X29310000Y-28720000D02*
X29340000Y-28680000D01*
X29340000Y-28680000D02*
X29360000Y-28630000D01*
X29360000Y-28630000D02*
X29380000Y-28580000D01*
X29380000Y-28580000D02*
X29410000Y-28530000D01*
X29410000Y-28530000D02*
X29430000Y-28470000D01*
X29430000Y-28470000D02*
X29450000Y-28410000D01*
X29450000Y-28410000D02*
X29470000Y-28350000D01*
X29470000Y-28350000D02*
X29490000Y-28290000D01*
X29490000Y-28290000D02*
X29510000Y-28220000D01*
X29510000Y-28220000D02*
X29530000Y-28150000D01*
X29530000Y-28150000D02*
X29560000Y-28070000D01*
X29560000Y-28070000D02*
X29580000Y-28000000D01*
X29580000Y-28000000D02*
X29600000Y-27920000D01*
X29600000Y-27920000D02*
X29620000Y-27840000D01*
X29620000Y-27840000D02*
X29630000Y-27750000D01*
X29630000Y-27750000D02*
X29650000Y-27660000D01*
X29650000Y-27660000D02*
X29670000Y-27580000D01*
X29670000Y-27580000D02*
X29690000Y-27480000D01*
X29690000Y-27480000D02*
X29710000Y-27390000D01*
X29710000Y-27390000D02*
X29720000Y-27290000D01*
X29720000Y-27290000D02*
X29740000Y-27190000D01*
X29740000Y-27190000D02*
X29760000Y-27090000D01*
X29760000Y-27090000D02*
X29770000Y-26990000D01*
X29770000Y-26990000D02*
X29790000Y-26880000D01*
X29790000Y-26880000D02*
X29800000Y-26780000D01*
X29800000Y-26780000D02*
X29820000Y-26670000D01*
X29820000Y-26670000D02*
X29830000Y-26560000D01*
X29830000Y-26560000D02*
X29840000Y-26440000D01*
X29840000Y-26440000D02*
X29860000Y-26330000D01*
X29860000Y-26330000D02*
X29870000Y-26210000D01*
X29870000Y-26210000D02*
X29880000Y-26090000D01*
X29880000Y-26090000D02*
X29890000Y-25970000D01*
X29890000Y-25970000D02*
X29900000Y-25850000D01*
X29900000Y-25850000D02*
X29910000Y-25730000D01*
X29910000Y-25730000D02*
X29920000Y-25600000D01*
X29920000Y-25600000D02*
X29930000Y-25480000D01*
X29930000Y-25480000D02*
X29940000Y-25350000D01*
X29940000Y-25350000D02*
X29950000Y-25230000D01*
X29950000Y-25230000D02*
X29960000Y-25100000D01*
X29960000Y-25100000D02*
X29960000Y-24970000D01*
X29960000Y-24970000D02*
X29970000Y-24840000D01*
X29970000Y-24840000D02*
X29980000Y-24710000D01*
X29980000Y-24710000D02*
X29980000Y-24570000D01*
X29980000Y-24570000D02*
X29990000Y-24440000D01*
X29990000Y-24440000D02*
X29990000Y-24310000D01*
X29990000Y-24310000D02*
X29990000Y-24170000D01*
X29990000Y-24170000D02*
X30000000Y-24040000D01*
X30000000Y-24040000D02*
X30000000Y-23900000D01*
X30000000Y-23900000D02*
X30000000Y-23770000D01*
X30000000Y-23770000D02*
X30000000Y-23630000D01*
X30000000Y-23630000D02*
X30000000Y-23500000D01*
D12*
X18060000Y-27650000D03*
D13*
X20600000Y-27650000D03*
X23140000Y-27650000D03*
X25680000Y-27650000D03*
D14*
X27300000Y-25450000D03*
X27300000Y-24550000D03*
X27300000Y-20410000D03*
X27300000Y-19510000D03*
D15*
X18775000Y-25950000D03*
X19875000Y-25950000D03*
X19875000Y-23550000D03*
X18775000Y-23550000D03*
X19875000Y-24750000D03*
X18775000Y-24750000D03*
D14*
X27300000Y-26450000D03*
X27300000Y-27350000D03*
X27300000Y-22100000D03*
X27300000Y-21200000D03*
D16*
X19050000Y-22300000D03*
X19950000Y-22300000D03*
X19050000Y-21000000D03*
X19950000Y-21000000D03*
D12*
X18070000Y-19350000D03*
D13*
X20610000Y-19350000D03*
X23150000Y-19350000D03*
X25690000Y-19350000D03*
D17*
X25900000Y-21825000D03*
X25900000Y-22475000D03*
X25900000Y-23125000D03*
X25900000Y-23775000D03*
X25900000Y-24425000D03*
X25900000Y-25075000D03*
D18*
X25200000Y-25775000D03*
X24550000Y-25775000D03*
X23900000Y-25775000D03*
X23250000Y-25775000D03*
X22600000Y-25775000D03*
X21950000Y-25775000D03*
D17*
X21250000Y-25075000D03*
X21250000Y-24425000D03*
X21250000Y-23775000D03*
X21250000Y-23125000D03*
X21250000Y-22475000D03*
X21250000Y-21825000D03*
D18*
X21950000Y-21125000D03*
X22600000Y-21125000D03*
X23250000Y-21125000D03*
X23900000Y-21125000D03*
X24550000Y-21125000D03*
X25200000Y-21125000D03*
D19*
X22775000Y-24250000D03*
X22775000Y-22650000D03*
X24375000Y-24250000D03*
X24375000Y-22650000D03*
D14*
X28500000Y-20550000D03*
X28500000Y-21450000D03*
X28500000Y-25300000D03*
X28500000Y-26200000D03*
D20*
X24490000Y-18770000D03*
X17750010Y-21000000D03*
X27260000Y-28410000D03*
X27300000Y-18710000D03*
X26740000Y-22690000D03*
X17750000Y-26000000D03*
X17900000Y-21925000D03*
X17900000Y-23925000D03*
X27730000Y-23220000D03*
X28500000Y-21790000D03*
X28300000Y-26500000D03*
X28300000Y-20450000D03*
X28500000Y-25230000D03*
D21*
X24490000Y-18770000D02*
X24490000Y-19710000D01*
X24490000Y-19710000D02*
X23790000Y-20410000D01*
X23790000Y-20410000D02*
X23640000Y-20410000D01*
X23640000Y-20410000D02*
X23250000Y-20800000D01*
X23250000Y-20800000D02*
X23250000Y-21125000D01*
X23250000Y-21125000D02*
X23250000Y-22175000D01*
D22*
X23250000Y-22175000D02*
X22775000Y-22650000D01*
X18700000Y-23550000D02*
X18700000Y-24750000D01*
X18700000Y-24750000D02*
X17400000Y-24750000D01*
X17400000Y-24750000D02*
X17220000Y-24930000D01*
X17220000Y-24930000D02*
X17220000Y-26370000D01*
X17220000Y-26370000D02*
X17400000Y-26550000D01*
X17400000Y-26550000D02*
X17400000Y-28500000D01*
X17260000Y-24900000D02*
X17300000Y-24860000D01*
X17300000Y-24860000D02*
X17300000Y-21450010D01*
X17300000Y-21450010D02*
X17450011Y-21299999D01*
X17450011Y-21299999D02*
X17750010Y-21000000D01*
X24375000Y-24250000D02*
X22775000Y-24250000D01*
X24375000Y-22650000D02*
X24375000Y-24250000D01*
X22775000Y-22650000D02*
X24375000Y-22650000D01*
X23230000Y-22195000D02*
X22775000Y-22650000D01*
X17960000Y-27650000D02*
X17960000Y-27497600D01*
X18700000Y-25950000D02*
X18700000Y-27160000D01*
X18700000Y-27160000D02*
X17960000Y-27900000D01*
X19875000Y-23550000D02*
X19510000Y-23185000D01*
X19510000Y-23185000D02*
X19510000Y-20010000D01*
X19510000Y-20010000D02*
X19170000Y-19670000D01*
X26790000Y-18250000D02*
X25690000Y-19350000D01*
X19170000Y-19670000D02*
X19170000Y-18240000D01*
X19170000Y-18240000D02*
X27760000Y-18240000D01*
X27760000Y-18240000D02*
X27770000Y-18250000D01*
X27770000Y-18250000D02*
X26790000Y-18250000D01*
X25680000Y-27650000D02*
X26770000Y-28740000D01*
X27070000Y-28740000D02*
X27060000Y-28750000D01*
X26770000Y-28740000D02*
X27070000Y-28740000D01*
X27060000Y-28750000D02*
X19140000Y-28750000D01*
X19370000Y-27140000D02*
X20000000Y-26510000D01*
X20000000Y-26510000D02*
X20850000Y-26510000D01*
X21270000Y-26090000D02*
X21270000Y-25770000D01*
X19140000Y-28750000D02*
X19370000Y-28520000D01*
X19370000Y-28520000D02*
X19370000Y-27140000D01*
X20850000Y-26510000D02*
X21270000Y-26090000D01*
X23900000Y-21125000D02*
X23900000Y-20850000D01*
X23900000Y-20850000D02*
X25400000Y-19350000D01*
X25400000Y-19350000D02*
X25690000Y-19350000D01*
X27260000Y-28410000D02*
X27050000Y-28200000D01*
X27050000Y-28200000D02*
X26100000Y-28200000D01*
X26100000Y-28200000D02*
X23900000Y-26000000D01*
X27260000Y-28410000D02*
X27300000Y-28370000D01*
X27300000Y-28370000D02*
X27300000Y-27350000D01*
X27300000Y-18710000D02*
X26330000Y-18710000D01*
X26330000Y-18710000D02*
X25690000Y-19350000D01*
X21270000Y-25770000D02*
X21270000Y-25095000D01*
X21270000Y-25095000D02*
X21250000Y-25075000D01*
X21945000Y-25770000D02*
X21950000Y-25775000D01*
X21270000Y-25770000D02*
X21945000Y-25770000D01*
X20675000Y-23125000D02*
X21250000Y-23125000D01*
X25900000Y-22475000D02*
X26525000Y-22475000D01*
X26525000Y-22475000D02*
X26740000Y-22690000D01*
X19800000Y-23550000D02*
X20250000Y-23550000D01*
X20250000Y-23550000D02*
X20675000Y-23125000D01*
X23900000Y-25898400D02*
X23900000Y-25775000D01*
X21250000Y-23775000D02*
X20975000Y-23775000D01*
X20975000Y-23775000D02*
X20000000Y-24750000D01*
X20000000Y-24750000D02*
X19800000Y-24750000D01*
X18049999Y-25700001D02*
X17750000Y-26000000D01*
X19150000Y-25350000D02*
X18400000Y-25350000D01*
X19750000Y-24750000D02*
X19150000Y-25350000D01*
X19800000Y-24750000D02*
X19750000Y-24750000D01*
X18400000Y-25350000D02*
X18049999Y-25700001D01*
X19900000Y-24900000D02*
X19850000Y-24900000D01*
X27300000Y-20410000D02*
X27300000Y-21200000D01*
X27300000Y-25450000D02*
X27300000Y-26450000D01*
X22600000Y-21125000D02*
X22600000Y-19725000D01*
X22600000Y-19725000D02*
X23075000Y-19250000D01*
X20535000Y-19250000D02*
X20650000Y-19250000D01*
X20650000Y-19250000D02*
X21950000Y-20550000D01*
X21950000Y-20550000D02*
X21950000Y-20648400D01*
X21950000Y-20648400D02*
X21950000Y-21125000D01*
X18225000Y-21925000D02*
X17900000Y-21925000D01*
X19050000Y-21100000D02*
X18225000Y-21925000D01*
X19050000Y-21000000D02*
X19050000Y-21100000D01*
X19050000Y-22300000D02*
X18725000Y-22300000D01*
X18725000Y-22300000D02*
X17900000Y-23125000D01*
X17900000Y-23125000D02*
X17900000Y-23925000D01*
X17900000Y-23123000D02*
X17900000Y-23925000D01*
X21250000Y-24425000D02*
X20825000Y-24425000D01*
X20825000Y-24425000D02*
X20500000Y-24750000D01*
X20500000Y-24750000D02*
X20500000Y-25250000D01*
X20500000Y-25250000D02*
X19800000Y-25950000D01*
X26870000Y-22100000D02*
X26595000Y-21825000D01*
X26595000Y-21825000D02*
X25900000Y-21825000D01*
X27300000Y-22100000D02*
X26870000Y-22100000D01*
X26125000Y-21825000D02*
X25900000Y-21825000D01*
X25900000Y-24425000D02*
X27175000Y-24425000D01*
X27175000Y-24425000D02*
X27300000Y-24550000D01*
X21250000Y-21825000D02*
X20675000Y-21825000D01*
X20675000Y-21825000D02*
X19950000Y-21100000D01*
X19950000Y-21100000D02*
X19950000Y-21000000D01*
X21250000Y-21825000D02*
X20925000Y-21825000D01*
X21250000Y-22475000D02*
X20125000Y-22475000D01*
X20125000Y-22475000D02*
X19950000Y-22300000D01*
X27730000Y-23220000D02*
X27727915Y-23222085D01*
X27727915Y-23222085D02*
X26022085Y-23222085D01*
X26022085Y-23222085D02*
X25900000Y-23100000D01*
X28500000Y-21790000D02*
X28500000Y-21500000D01*
X25900000Y-23775000D02*
X27350000Y-23775000D01*
X27350000Y-23775000D02*
X27850000Y-24275000D01*
X27850000Y-24275000D02*
X27850000Y-26050000D01*
X27850000Y-26050000D02*
X28000001Y-26200001D01*
X28000001Y-26200001D02*
X28300000Y-26500000D01*
X28750000Y-26500000D02*
X28724264Y-26500000D01*
X28724264Y-26500000D02*
X28300000Y-26500000D01*
X29000000Y-26250000D02*
X28750000Y-26500000D01*
X24550000Y-21125000D02*
X24550000Y-20900000D01*
X24550000Y-20900000D02*
X24940000Y-20510000D01*
X24940000Y-20510000D02*
X26215000Y-20510000D01*
X26215000Y-20510000D02*
X26765000Y-19960000D01*
X26765000Y-19960000D02*
X27810000Y-19960000D01*
X27810000Y-19960000D02*
X28300000Y-20450000D01*
X28125000Y-20300000D02*
X28275000Y-20450000D01*
X28275000Y-20450000D02*
X28300000Y-20450000D01*
X28425000Y-20575000D02*
X28300000Y-20450000D01*
X28649264Y-20575000D02*
X28425000Y-20575000D01*
X29150000Y-20500000D02*
X29075000Y-20575000D01*
X29075000Y-20575000D02*
X28649264Y-20575000D01*
X29150000Y-20600000D02*
X29125000Y-20575000D01*
X29125000Y-20575000D02*
X28649264Y-20575000D01*
X26675000Y-21125000D02*
X25200000Y-21125000D01*
X28500000Y-25230000D02*
X28320000Y-25050000D01*
X28320000Y-25050000D02*
X28320000Y-22730000D01*
X28320000Y-22730000D02*
X27830000Y-22240000D01*
X27830000Y-22240000D02*
X27830000Y-21740000D01*
X27830000Y-21740000D02*
X27740000Y-21650000D01*
X27740000Y-21650000D02*
X26900000Y-21650000D01*
X26900000Y-21650000D02*
X26750000Y-21500000D01*
X26750000Y-21500000D02*
X26750000Y-21200000D01*
X26750000Y-21200000D02*
X26675000Y-21125000D01*
X28500000Y-25230000D02*
X28520000Y-25250000D01*
X28520000Y-25250000D02*
X29050000Y-25250000D01*
X29050000Y-25250000D02*
X29150000Y-25350000D01*
X22600000Y-25775000D02*
X22600000Y-26251600D01*
X22600000Y-26251600D02*
X22319200Y-26532400D01*
X22319200Y-26532400D02*
X21465200Y-26532400D01*
X21465200Y-26532400D02*
X20500000Y-27497600D01*
X20500000Y-27497600D02*
X20500000Y-27650000D01*
X20500000Y-27802400D02*
X20500000Y-27650000D01*
X20500000Y-27747600D02*
X20500000Y-27900000D01*
X23250000Y-25775000D02*
X23250000Y-27440000D01*
X23250000Y-27440000D02*
X23040000Y-27650000D01*
G36*
X18775050Y-25949950D02*
X18795050Y-25949950D01*
X18795050Y-25950050D01*
X18775050Y-25950050D01*
X18775050Y-26371450D01*
X18821400Y-26417800D01*
X18821400Y-28746400D01*
X17492200Y-28746400D01*
X17386938Y-28727831D01*
X17320620Y-28685574D01*
X17275521Y-28621154D01*
X17253600Y-28522237D01*
X17253600Y-26182837D01*
X17301613Y-26299037D01*
X17450181Y-26447864D01*
X17644394Y-26528508D01*
X17854684Y-26528692D01*
X18049037Y-26448387D01*
X18197864Y-26299819D01*
X18246400Y-26182931D01*
X18246400Y-26245472D01*
X18281203Y-26329492D01*
X18345509Y-26393798D01*
X18429529Y-26428600D01*
X18717800Y-26428600D01*
X18774950Y-26371450D01*
X18774950Y-25950050D01*
X18754950Y-25950050D01*
X18754950Y-25949950D01*
X18774950Y-25949950D01*
X18774950Y-25929950D01*
X18775050Y-25929950D01*
X18775050Y-25949950D01*
X18775050Y-25949950D01*
G37*
X18775050Y-25949950D02*
X18795050Y-25949950D01*
X18795050Y-25950050D01*
X18775050Y-25950050D01*
X18775050Y-26371450D01*
X18821400Y-26417800D01*
X18821400Y-28746400D01*
X17492200Y-28746400D01*
X17386938Y-28727831D01*
X17320620Y-28685574D01*
X17275521Y-28621154D01*
X17253600Y-28522237D01*
X17253600Y-26182837D01*
X17301613Y-26299037D01*
X17450181Y-26447864D01*
X17644394Y-26528508D01*
X17854684Y-26528692D01*
X18049037Y-26448387D01*
X18197864Y-26299819D01*
X18246400Y-26182931D01*
X18246400Y-26245472D01*
X18281203Y-26329492D01*
X18345509Y-26393798D01*
X18429529Y-26428600D01*
X18717800Y-26428600D01*
X18774950Y-26371450D01*
X18774950Y-25950050D01*
X18754950Y-25950050D01*
X18754950Y-25949950D01*
X18774950Y-25949950D01*
X18774950Y-25929950D01*
X18775050Y-25929950D01*
X18775050Y-25949950D01*
G36*
X18821400Y-20472303D02*
X18765286Y-20482862D01*
X18687482Y-20532928D01*
X18635285Y-20609320D01*
X18616922Y-20700000D01*
X18616922Y-21102026D01*
X18220797Y-21498151D01*
X18199819Y-21477136D01*
X18005606Y-21396492D01*
X17795316Y-21396308D01*
X17600963Y-21476613D01*
X17452136Y-21625181D01*
X17371492Y-21819394D01*
X17371308Y-22029684D01*
X17451613Y-22224037D01*
X17600181Y-22372864D01*
X17794394Y-22453508D01*
X18004684Y-22453692D01*
X18199037Y-22373387D01*
X18347864Y-22224819D01*
X18360724Y-22193848D01*
X18440526Y-22140526D01*
X18626030Y-21955022D01*
X18616922Y-22000000D01*
X18616922Y-22016698D01*
X18608358Y-22018402D01*
X18509474Y-22084474D01*
X17690501Y-22903447D01*
X17684474Y-22907474D01*
X17618402Y-23006358D01*
X17595200Y-23123000D01*
X17595200Y-23482366D01*
X17452136Y-23625181D01*
X17371492Y-23819394D01*
X17371308Y-24029684D01*
X17451613Y-24224037D01*
X17600181Y-24372864D01*
X17794394Y-24453508D01*
X18004684Y-24453692D01*
X18199037Y-24373387D01*
X18347864Y-24224819D01*
X18428508Y-24030606D01*
X18428510Y-24028178D01*
X18429529Y-24028600D01*
X18717800Y-24028600D01*
X18774950Y-23971450D01*
X18774950Y-23550050D01*
X18754950Y-23550050D01*
X18754950Y-23549950D01*
X18774950Y-23549950D01*
X18774950Y-23128550D01*
X18717800Y-23071400D01*
X18429529Y-23071400D01*
X18352920Y-23103132D01*
X18689229Y-22766823D01*
X18759320Y-22814715D01*
X18821400Y-22827286D01*
X18821400Y-23082200D01*
X18775050Y-23128550D01*
X18775050Y-23549950D01*
X18795050Y-23549950D01*
X18795050Y-23550050D01*
X18775050Y-23550050D01*
X18775050Y-23971450D01*
X18821400Y-24017800D01*
X18821400Y-24282200D01*
X18775050Y-24328550D01*
X18775050Y-24749950D01*
X18795050Y-24749950D01*
X18795050Y-24750050D01*
X18775050Y-24750050D01*
X18775050Y-24770050D01*
X18774950Y-24770050D01*
X18774950Y-24750050D01*
X18303550Y-24750050D01*
X18246400Y-24807200D01*
X18246400Y-25045472D01*
X18261851Y-25082773D01*
X18184474Y-25134474D01*
X17847463Y-25471485D01*
X17645316Y-25471308D01*
X17450963Y-25551613D01*
X17302136Y-25700181D01*
X17253600Y-25817069D01*
X17253600Y-24454528D01*
X18246400Y-24454528D01*
X18246400Y-24692800D01*
X18303550Y-24749950D01*
X18774950Y-24749950D01*
X18774950Y-24328550D01*
X18717800Y-24271400D01*
X18429529Y-24271400D01*
X18345509Y-24306202D01*
X18281203Y-24370508D01*
X18246400Y-24454528D01*
X17253600Y-24454528D01*
X17253600Y-18492200D01*
X17272169Y-18386938D01*
X17314426Y-18320620D01*
X17378846Y-18275521D01*
X17477762Y-18253600D01*
X18821400Y-18253600D01*
X18821400Y-20472303D01*
X18821400Y-20472303D01*
G37*
X18821400Y-20472303D02*
X18765286Y-20482862D01*
X18687482Y-20532928D01*
X18635285Y-20609320D01*
X18616922Y-20700000D01*
X18616922Y-21102026D01*
X18220797Y-21498151D01*
X18199819Y-21477136D01*
X18005606Y-21396492D01*
X17795316Y-21396308D01*
X17600963Y-21476613D01*
X17452136Y-21625181D01*
X17371492Y-21819394D01*
X17371308Y-22029684D01*
X17451613Y-22224037D01*
X17600181Y-22372864D01*
X17794394Y-22453508D01*
X18004684Y-22453692D01*
X18199037Y-22373387D01*
X18347864Y-22224819D01*
X18360724Y-22193848D01*
X18440526Y-22140526D01*
X18626030Y-21955022D01*
X18616922Y-22000000D01*
X18616922Y-22016698D01*
X18608358Y-22018402D01*
X18509474Y-22084474D01*
X17690501Y-22903447D01*
X17684474Y-22907474D01*
X17618402Y-23006358D01*
X17595200Y-23123000D01*
X17595200Y-23482366D01*
X17452136Y-23625181D01*
X17371492Y-23819394D01*
X17371308Y-24029684D01*
X17451613Y-24224037D01*
X17600181Y-24372864D01*
X17794394Y-24453508D01*
X18004684Y-24453692D01*
X18199037Y-24373387D01*
X18347864Y-24224819D01*
X18428508Y-24030606D01*
X18428510Y-24028178D01*
X18429529Y-24028600D01*
X18717800Y-24028600D01*
X18774950Y-23971450D01*
X18774950Y-23550050D01*
X18754950Y-23550050D01*
X18754950Y-23549950D01*
X18774950Y-23549950D01*
X18774950Y-23128550D01*
X18717800Y-23071400D01*
X18429529Y-23071400D01*
X18352920Y-23103132D01*
X18689229Y-22766823D01*
X18759320Y-22814715D01*
X18821400Y-22827286D01*
X18821400Y-23082200D01*
X18775050Y-23128550D01*
X18775050Y-23549950D01*
X18795050Y-23549950D01*
X18795050Y-23550050D01*
X18775050Y-23550050D01*
X18775050Y-23971450D01*
X18821400Y-24017800D01*
X18821400Y-24282200D01*
X18775050Y-24328550D01*
X18775050Y-24749950D01*
X18795050Y-24749950D01*
X18795050Y-24750050D01*
X18775050Y-24750050D01*
X18775050Y-24770050D01*
X18774950Y-24770050D01*
X18774950Y-24750050D01*
X18303550Y-24750050D01*
X18246400Y-24807200D01*
X18246400Y-25045472D01*
X18261851Y-25082773D01*
X18184474Y-25134474D01*
X17847463Y-25471485D01*
X17645316Y-25471308D01*
X17450963Y-25551613D01*
X17302136Y-25700181D01*
X17253600Y-25817069D01*
X17253600Y-24454528D01*
X18246400Y-24454528D01*
X18246400Y-24692800D01*
X18303550Y-24749950D01*
X18774950Y-24749950D01*
X18774950Y-24328550D01*
X18717800Y-24271400D01*
X18429529Y-24271400D01*
X18345509Y-24306202D01*
X18281203Y-24370508D01*
X18246400Y-24454528D01*
X17253600Y-24454528D01*
X17253600Y-18492200D01*
X17272169Y-18386938D01*
X17314426Y-18320620D01*
X17378846Y-18275521D01*
X17477762Y-18253600D01*
X18821400Y-18253600D01*
X18821400Y-20472303D01*
D23*
G36*
X29206339Y-18395118D02*
X29218872Y-18426451D01*
X29238872Y-18476452D01*
X29245538Y-18486697D01*
X29249661Y-18498203D01*
X29271076Y-18533896D01*
X29285800Y-18578067D01*
X29344754Y-18754929D01*
X29383848Y-18891758D01*
X29386677Y-18897264D01*
X29387678Y-18903371D01*
X29415528Y-18977637D01*
X29433154Y-19039329D01*
X29452538Y-19116865D01*
X29470059Y-19186951D01*
X29478930Y-19266786D01*
X29481435Y-19274687D01*
X29481620Y-19282973D01*
X29501619Y-19372973D01*
X29502439Y-19374834D01*
X29502538Y-19376865D01*
X29521663Y-19453365D01*
X29540952Y-19549809D01*
X29541583Y-19551329D01*
X29541620Y-19552973D01*
X29559655Y-19634134D01*
X29568754Y-19725125D01*
X29570944Y-19732306D01*
X29570952Y-19739810D01*
X29590952Y-19839809D01*
X29590952Y-19839810D01*
X29609493Y-19932513D01*
X29618754Y-20025125D01*
X29620554Y-20031026D01*
X29620452Y-20037191D01*
X29639360Y-20141183D01*
X29648754Y-20235125D01*
X29650554Y-20241026D01*
X29650452Y-20247191D01*
X29669238Y-20350511D01*
X29678575Y-20453223D01*
X29688525Y-20572623D01*
X29690574Y-20579764D01*
X29690452Y-20587191D01*
X29709136Y-20689950D01*
X29718525Y-20802623D01*
X29724390Y-20873000D01*
X28127000Y-20873000D01*
X28127000Y-18377000D01*
X29192750Y-18377000D01*
X29206339Y-18395118D01*
X29206339Y-18395118D01*
G37*
X29206339Y-18395118D02*
X29218872Y-18426451D01*
X29238872Y-18476452D01*
X29245538Y-18486697D01*
X29249661Y-18498203D01*
X29271076Y-18533896D01*
X29285800Y-18578067D01*
X29344754Y-18754929D01*
X29383848Y-18891758D01*
X29386677Y-18897264D01*
X29387678Y-18903371D01*
X29415528Y-18977637D01*
X29433154Y-19039329D01*
X29452538Y-19116865D01*
X29470059Y-19186951D01*
X29478930Y-19266786D01*
X29481435Y-19274687D01*
X29481620Y-19282973D01*
X29501619Y-19372973D01*
X29502439Y-19374834D01*
X29502538Y-19376865D01*
X29521663Y-19453365D01*
X29540952Y-19549809D01*
X29541583Y-19551329D01*
X29541620Y-19552973D01*
X29559655Y-19634134D01*
X29568754Y-19725125D01*
X29570944Y-19732306D01*
X29570952Y-19739810D01*
X29590952Y-19839809D01*
X29590952Y-19839810D01*
X29609493Y-19932513D01*
X29618754Y-20025125D01*
X29620554Y-20031026D01*
X29620452Y-20037191D01*
X29639360Y-20141183D01*
X29648754Y-20235125D01*
X29650554Y-20241026D01*
X29650452Y-20247191D01*
X29669238Y-20350511D01*
X29678575Y-20453223D01*
X29688525Y-20572623D01*
X29690574Y-20579764D01*
X29690452Y-20587191D01*
X29709136Y-20689950D01*
X29718525Y-20802623D01*
X29724390Y-20873000D01*
X28127000Y-20873000D01*
X28127000Y-18377000D01*
X29192750Y-18377000D01*
X29206339Y-18395118D01*
G36*
X29768448Y-21411658D02*
X29768581Y-21412132D01*
X29768525Y-21412623D01*
X29778489Y-21532191D01*
X29788448Y-21661658D01*
X29788581Y-21662132D01*
X29788525Y-21662623D01*
X29798489Y-21782191D01*
X29808000Y-21905834D01*
X29808000Y-22030000D01*
X29809152Y-22035794D01*
X29808448Y-22041658D01*
X29828000Y-22295834D01*
X29828000Y-22430000D01*
X29829152Y-22435794D01*
X29828448Y-22441658D01*
X29838000Y-22565834D01*
X29838000Y-22830000D01*
X29839152Y-22835794D01*
X29838448Y-22841658D01*
X29848000Y-22965834D01*
X29848000Y-23123000D01*
X29679400Y-23123000D01*
X29679400Y-22620037D01*
X29627684Y-22360042D01*
X29480408Y-22139629D01*
X29259995Y-21992353D01*
X29000000Y-21940637D01*
X28740005Y-21992353D01*
X28519592Y-22139629D01*
X28404608Y-22311714D01*
X28185600Y-22092706D01*
X28185600Y-21740000D01*
X28170209Y-21662623D01*
X28158532Y-21603917D01*
X28127000Y-21556727D01*
X28127000Y-21377000D01*
X29765782Y-21377000D01*
X29768448Y-21411658D01*
X29768448Y-21411658D01*
G37*
X29768448Y-21411658D02*
X29768581Y-21412132D01*
X29768525Y-21412623D01*
X29778489Y-21532191D01*
X29788448Y-21661658D01*
X29788581Y-21662132D01*
X29788525Y-21662623D01*
X29798489Y-21782191D01*
X29808000Y-21905834D01*
X29808000Y-22030000D01*
X29809152Y-22035794D01*
X29808448Y-22041658D01*
X29828000Y-22295834D01*
X29828000Y-22430000D01*
X29829152Y-22435794D01*
X29828448Y-22441658D01*
X29838000Y-22565834D01*
X29838000Y-22830000D01*
X29839152Y-22835794D01*
X29838448Y-22841658D01*
X29848000Y-22965834D01*
X29848000Y-23123000D01*
X29679400Y-23123000D01*
X29679400Y-22620037D01*
X29627684Y-22360042D01*
X29480408Y-22139629D01*
X29259995Y-21992353D01*
X29000000Y-21940637D01*
X28740005Y-21992353D01*
X28519592Y-22139629D01*
X28404608Y-22311714D01*
X28185600Y-22092706D01*
X28185600Y-21740000D01*
X28170209Y-21662623D01*
X28158532Y-21603917D01*
X28127000Y-21556727D01*
X28127000Y-21377000D01*
X29765782Y-21377000D01*
X29768448Y-21411658D01*
G36*
X28320600Y-24379963D02*
X28372316Y-24639958D01*
X28519592Y-24860371D01*
X28740005Y-25007647D01*
X29000000Y-25059363D01*
X29259995Y-25007647D01*
X29480408Y-24860371D01*
X29627684Y-24639958D01*
X29679400Y-24379963D01*
X29679400Y-23877000D01*
X29848000Y-23877000D01*
X29848000Y-24034166D01*
X29838448Y-24158342D01*
X29839152Y-24164206D01*
X29838000Y-24170000D01*
X29838000Y-24434166D01*
X29828448Y-24558342D01*
X29829152Y-24564206D01*
X29828000Y-24570000D01*
X29828000Y-24704166D01*
X29808448Y-24958342D01*
X29809152Y-24964206D01*
X29808000Y-24970000D01*
X29808000Y-25094166D01*
X29798489Y-25217809D01*
X29788525Y-25337377D01*
X29788581Y-25337868D01*
X29788448Y-25338342D01*
X29778489Y-25467809D01*
X29768525Y-25587377D01*
X29768581Y-25587868D01*
X29768448Y-25588342D01*
X29765782Y-25623000D01*
X28205600Y-25623000D01*
X28205600Y-24275000D01*
X28189091Y-24192000D01*
X28178532Y-24138917D01*
X28127000Y-24061795D01*
X28127000Y-23877000D01*
X28320600Y-23877000D01*
X28320600Y-24379963D01*
X28320600Y-24379963D01*
G37*
X28320600Y-24379963D02*
X28372316Y-24639958D01*
X28519592Y-24860371D01*
X28740005Y-25007647D01*
X29000000Y-25059363D01*
X29259995Y-25007647D01*
X29480408Y-24860371D01*
X29627684Y-24639958D01*
X29679400Y-24379963D01*
X29679400Y-23877000D01*
X29848000Y-23877000D01*
X29848000Y-24034166D01*
X29838448Y-24158342D01*
X29839152Y-24164206D01*
X29838000Y-24170000D01*
X29838000Y-24434166D01*
X29828448Y-24558342D01*
X29829152Y-24564206D01*
X29828000Y-24570000D01*
X29828000Y-24704166D01*
X29808448Y-24958342D01*
X29809152Y-24964206D01*
X29808000Y-24970000D01*
X29808000Y-25094166D01*
X29798489Y-25217809D01*
X29788525Y-25337377D01*
X29788581Y-25337868D01*
X29788448Y-25338342D01*
X29778489Y-25467809D01*
X29768525Y-25587377D01*
X29768581Y-25587868D01*
X29768448Y-25588342D01*
X29765782Y-25623000D01*
X28205600Y-25623000D01*
X28205600Y-24275000D01*
X28189091Y-24192000D01*
X28178532Y-24138917D01*
X28127000Y-24061795D01*
X28127000Y-23877000D01*
X28320600Y-23877000D01*
X28320600Y-24379963D01*
G36*
X29718525Y-26197377D02*
X29709136Y-26310050D01*
X29690452Y-26412809D01*
X29690574Y-26420236D01*
X29688525Y-26427377D01*
X29678575Y-26546777D01*
X29669238Y-26649489D01*
X29650452Y-26752809D01*
X29650554Y-26758974D01*
X29648754Y-26764875D01*
X29639360Y-26858817D01*
X29620452Y-26962809D01*
X29620554Y-26968974D01*
X29618754Y-26974875D01*
X29609493Y-27067487D01*
X29590952Y-27160190D01*
X29590952Y-27160191D01*
X29570952Y-27260190D01*
X29570944Y-27267694D01*
X29568754Y-27274875D01*
X29559655Y-27365866D01*
X29541620Y-27447027D01*
X29541583Y-27448671D01*
X29540952Y-27450191D01*
X29521663Y-27546635D01*
X29502538Y-27623135D01*
X29502439Y-27625166D01*
X29501619Y-27627027D01*
X29481620Y-27717027D01*
X29481435Y-27725313D01*
X29478930Y-27733214D01*
X29470059Y-27813049D01*
X29452538Y-27883135D01*
X29433154Y-27960671D01*
X29415528Y-28022363D01*
X29387678Y-28096629D01*
X29386677Y-28102736D01*
X29383848Y-28108242D01*
X29344754Y-28245071D01*
X29285800Y-28421933D01*
X29271076Y-28466104D01*
X29249661Y-28501797D01*
X29245538Y-28513303D01*
X29238872Y-28523548D01*
X29218873Y-28573546D01*
X29218872Y-28573548D01*
X29206339Y-28604882D01*
X29192750Y-28623000D01*
X28127000Y-28623000D01*
X28127000Y-26127000D01*
X29724390Y-26127000D01*
X29718525Y-26197377D01*
X29718525Y-26197377D01*
G37*
X29718525Y-26197377D02*
X29709136Y-26310050D01*
X29690452Y-26412809D01*
X29690574Y-26420236D01*
X29688525Y-26427377D01*
X29678575Y-26546777D01*
X29669238Y-26649489D01*
X29650452Y-26752809D01*
X29650554Y-26758974D01*
X29648754Y-26764875D01*
X29639360Y-26858817D01*
X29620452Y-26962809D01*
X29620554Y-26968974D01*
X29618754Y-26974875D01*
X29609493Y-27067487D01*
X29590952Y-27160190D01*
X29590952Y-27160191D01*
X29570952Y-27260190D01*
X29570944Y-27267694D01*
X29568754Y-27274875D01*
X29559655Y-27365866D01*
X29541620Y-27447027D01*
X29541583Y-27448671D01*
X29540952Y-27450191D01*
X29521663Y-27546635D01*
X29502538Y-27623135D01*
X29502439Y-27625166D01*
X29501619Y-27627027D01*
X29481620Y-27717027D01*
X29481435Y-27725313D01*
X29478930Y-27733214D01*
X29470059Y-27813049D01*
X29452538Y-27883135D01*
X29433154Y-27960671D01*
X29415528Y-28022363D01*
X29387678Y-28096629D01*
X29386677Y-28102736D01*
X29383848Y-28108242D01*
X29344754Y-28245071D01*
X29285800Y-28421933D01*
X29271076Y-28466104D01*
X29249661Y-28501797D01*
X29245538Y-28513303D01*
X29238872Y-28523548D01*
X29218873Y-28573546D01*
X29218872Y-28573548D01*
X29206339Y-28604882D01*
X29192750Y-28623000D01*
X28127000Y-28623000D01*
X28127000Y-26127000D01*
X29724390Y-26127000D01*
X29718525Y-26197377D01*
D22*
G36*
X21250050Y-25074950D02*
X21270050Y-25074950D01*
X21270050Y-25075050D01*
X21250050Y-25075050D01*
X21250050Y-25396450D01*
X21307200Y-25453600D01*
X21571400Y-25453600D01*
X21571400Y-25717800D01*
X21628550Y-25774950D01*
X21949950Y-25774950D01*
X21949950Y-25754950D01*
X21950050Y-25754950D01*
X21950050Y-25774950D01*
X21970050Y-25774950D01*
X21970050Y-25775050D01*
X21950050Y-25775050D01*
X21950050Y-25795050D01*
X21949950Y-25795050D01*
X21949950Y-25775050D01*
X21628550Y-25775050D01*
X21571400Y-25832200D01*
X21571400Y-26195471D01*
X21584708Y-26227600D01*
X21465200Y-26227600D01*
X21348558Y-26250802D01*
X21263792Y-26307441D01*
X21249674Y-26316874D01*
X20958779Y-26607769D01*
X20600000Y-26536403D01*
X20182033Y-26619542D01*
X19827698Y-26856301D01*
X19590939Y-27210636D01*
X19507800Y-27628603D01*
X19507800Y-27671397D01*
X19590939Y-28089364D01*
X19827698Y-28443699D01*
X20182033Y-28680458D01*
X20513545Y-28746400D01*
X19140397Y-28746400D01*
X19156678Y-28666000D01*
X19156678Y-26634000D01*
X19140738Y-26549286D01*
X19126200Y-26526694D01*
X19126200Y-26423444D01*
X19159714Y-26417138D01*
X19237518Y-26367072D01*
X19289715Y-26290680D01*
X19308078Y-26200000D01*
X19308078Y-25700000D01*
X19292138Y-25615286D01*
X19291812Y-25614780D01*
X19365526Y-25565526D01*
X19697974Y-25233078D01*
X20085870Y-25233078D01*
X19852026Y-25466922D01*
X19575000Y-25466922D01*
X19490286Y-25482862D01*
X19412482Y-25532928D01*
X19360285Y-25609320D01*
X19341922Y-25700000D01*
X19341922Y-26200000D01*
X19357862Y-26284714D01*
X19407928Y-26362518D01*
X19484320Y-26414715D01*
X19575000Y-26433078D01*
X20175000Y-26433078D01*
X20259714Y-26417138D01*
X20337518Y-26367072D01*
X20389715Y-26290680D01*
X20408078Y-26200000D01*
X20408078Y-25772974D01*
X20715526Y-25465526D01*
X20746480Y-25419200D01*
X20829529Y-25453600D01*
X21192800Y-25453600D01*
X21249950Y-25396450D01*
X21249950Y-25075050D01*
X21229950Y-25075050D01*
X21229950Y-25074950D01*
X21249950Y-25074950D01*
X21249950Y-25054950D01*
X21250050Y-25054950D01*
X21250050Y-25074950D01*
X21250050Y-25074950D01*
G37*
X21250050Y-25074950D02*
X21270050Y-25074950D01*
X21270050Y-25075050D01*
X21250050Y-25075050D01*
X21250050Y-25396450D01*
X21307200Y-25453600D01*
X21571400Y-25453600D01*
X21571400Y-25717800D01*
X21628550Y-25774950D01*
X21949950Y-25774950D01*
X21949950Y-25754950D01*
X21950050Y-25754950D01*
X21950050Y-25774950D01*
X21970050Y-25774950D01*
X21970050Y-25775050D01*
X21950050Y-25775050D01*
X21950050Y-25795050D01*
X21949950Y-25795050D01*
X21949950Y-25775050D01*
X21628550Y-25775050D01*
X21571400Y-25832200D01*
X21571400Y-26195471D01*
X21584708Y-26227600D01*
X21465200Y-26227600D01*
X21348558Y-26250802D01*
X21263792Y-26307441D01*
X21249674Y-26316874D01*
X20958779Y-26607769D01*
X20600000Y-26536403D01*
X20182033Y-26619542D01*
X19827698Y-26856301D01*
X19590939Y-27210636D01*
X19507800Y-27628603D01*
X19507800Y-27671397D01*
X19590939Y-28089364D01*
X19827698Y-28443699D01*
X20182033Y-28680458D01*
X20513545Y-28746400D01*
X19140397Y-28746400D01*
X19156678Y-28666000D01*
X19156678Y-26634000D01*
X19140738Y-26549286D01*
X19126200Y-26526694D01*
X19126200Y-26423444D01*
X19159714Y-26417138D01*
X19237518Y-26367072D01*
X19289715Y-26290680D01*
X19308078Y-26200000D01*
X19308078Y-25700000D01*
X19292138Y-25615286D01*
X19291812Y-25614780D01*
X19365526Y-25565526D01*
X19697974Y-25233078D01*
X20085870Y-25233078D01*
X19852026Y-25466922D01*
X19575000Y-25466922D01*
X19490286Y-25482862D01*
X19412482Y-25532928D01*
X19360285Y-25609320D01*
X19341922Y-25700000D01*
X19341922Y-26200000D01*
X19357862Y-26284714D01*
X19407928Y-26362518D01*
X19484320Y-26414715D01*
X19575000Y-26433078D01*
X20175000Y-26433078D01*
X20259714Y-26417138D01*
X20337518Y-26367072D01*
X20389715Y-26290680D01*
X20408078Y-26200000D01*
X20408078Y-25772974D01*
X20715526Y-25465526D01*
X20746480Y-25419200D01*
X20829529Y-25453600D01*
X21192800Y-25453600D01*
X21249950Y-25396450D01*
X21249950Y-25075050D01*
X21229950Y-25075050D01*
X21229950Y-25074950D01*
X21249950Y-25074950D01*
X21249950Y-25054950D01*
X21250050Y-25054950D01*
X21250050Y-25074950D01*
G36*
X26766922Y-24750000D02*
X26782862Y-24834714D01*
X26832928Y-24912518D01*
X26909320Y-24964715D01*
X27000000Y-24983078D01*
X27545200Y-24983078D01*
X27545200Y-25016922D01*
X27000000Y-25016922D01*
X26915286Y-25032862D01*
X26837482Y-25082928D01*
X26785285Y-25159320D01*
X26766922Y-25250000D01*
X26766922Y-25650000D01*
X26782862Y-25734714D01*
X26832928Y-25812518D01*
X26909320Y-25864715D01*
X26995200Y-25882106D01*
X26995200Y-26017825D01*
X26915286Y-26032862D01*
X26837482Y-26082928D01*
X26785285Y-26159320D01*
X26766922Y-26250000D01*
X26766922Y-26650000D01*
X26782862Y-26734714D01*
X26832928Y-26812518D01*
X26909320Y-26864715D01*
X27000000Y-26883078D01*
X27600000Y-26883078D01*
X27684714Y-26867138D01*
X27762518Y-26817072D01*
X27771400Y-26804073D01*
X27771400Y-26998111D01*
X27729492Y-26956203D01*
X27645472Y-26921400D01*
X27357200Y-26921400D01*
X27300050Y-26978550D01*
X27300050Y-27349950D01*
X27320050Y-27349950D01*
X27320050Y-27350050D01*
X27300050Y-27350050D01*
X27300050Y-27721450D01*
X27357200Y-27778600D01*
X27645472Y-27778600D01*
X27729492Y-27743797D01*
X27771400Y-27701889D01*
X27771400Y-28746400D01*
X23226455Y-28746400D01*
X23557967Y-28680458D01*
X23912302Y-28443699D01*
X24149061Y-28089364D01*
X24232200Y-27671397D01*
X24232200Y-27628603D01*
X24188161Y-27407200D01*
X26771400Y-27407200D01*
X26771400Y-27595471D01*
X26806202Y-27679491D01*
X26870508Y-27743797D01*
X26954528Y-27778600D01*
X27242800Y-27778600D01*
X27299950Y-27721450D01*
X27299950Y-27350050D01*
X26828550Y-27350050D01*
X26771400Y-27407200D01*
X24188161Y-27407200D01*
X24149061Y-27210636D01*
X24078163Y-27104529D01*
X26771400Y-27104529D01*
X26771400Y-27292800D01*
X26828550Y-27349950D01*
X27299950Y-27349950D01*
X27299950Y-26978550D01*
X27242800Y-26921400D01*
X26954528Y-26921400D01*
X26870508Y-26956203D01*
X26806202Y-27020509D01*
X26771400Y-27104529D01*
X24078163Y-27104529D01*
X23912302Y-26856301D01*
X23557967Y-26619542D01*
X23554800Y-26618912D01*
X23554800Y-26322038D01*
X23562518Y-26317072D01*
X23575209Y-26298498D01*
X23620508Y-26343797D01*
X23704528Y-26378600D01*
X23842800Y-26378600D01*
X23899950Y-26321450D01*
X23899950Y-25775050D01*
X23879950Y-25775050D01*
X23879950Y-25774950D01*
X23899950Y-25774950D01*
X23899950Y-25754950D01*
X23900050Y-25754950D01*
X23900050Y-25774950D01*
X23920050Y-25774950D01*
X23920050Y-25775050D01*
X23900050Y-25775050D01*
X23900050Y-26321450D01*
X23957200Y-26378600D01*
X24095472Y-26378600D01*
X24179492Y-26343797D01*
X24224253Y-26299036D01*
X24232928Y-26312518D01*
X24309320Y-26364715D01*
X24400000Y-26383078D01*
X24700000Y-26383078D01*
X24784714Y-26367138D01*
X24862518Y-26317072D01*
X24874538Y-26299480D01*
X24882928Y-26312518D01*
X24959320Y-26364715D01*
X25050000Y-26383078D01*
X25350000Y-26383078D01*
X25434714Y-26367138D01*
X25512518Y-26317072D01*
X25564715Y-26240680D01*
X25583078Y-26150000D01*
X25583078Y-25458078D01*
X26275000Y-25458078D01*
X26359714Y-25442138D01*
X26437518Y-25392072D01*
X26489715Y-25315680D01*
X26508078Y-25225000D01*
X26508078Y-24925000D01*
X26492138Y-24840286D01*
X26442072Y-24762482D01*
X26424480Y-24750462D01*
X26437518Y-24742072D01*
X26445903Y-24729800D01*
X26766922Y-24729800D01*
X26766922Y-24750000D01*
X26766922Y-24750000D01*
G37*
X26766922Y-24750000D02*
X26782862Y-24834714D01*
X26832928Y-24912518D01*
X26909320Y-24964715D01*
X27000000Y-24983078D01*
X27545200Y-24983078D01*
X27545200Y-25016922D01*
X27000000Y-25016922D01*
X26915286Y-25032862D01*
X26837482Y-25082928D01*
X26785285Y-25159320D01*
X26766922Y-25250000D01*
X26766922Y-25650000D01*
X26782862Y-25734714D01*
X26832928Y-25812518D01*
X26909320Y-25864715D01*
X26995200Y-25882106D01*
X26995200Y-26017825D01*
X26915286Y-26032862D01*
X26837482Y-26082928D01*
X26785285Y-26159320D01*
X26766922Y-26250000D01*
X26766922Y-26650000D01*
X26782862Y-26734714D01*
X26832928Y-26812518D01*
X26909320Y-26864715D01*
X27000000Y-26883078D01*
X27600000Y-26883078D01*
X27684714Y-26867138D01*
X27762518Y-26817072D01*
X27771400Y-26804073D01*
X27771400Y-26998111D01*
X27729492Y-26956203D01*
X27645472Y-26921400D01*
X27357200Y-26921400D01*
X27300050Y-26978550D01*
X27300050Y-27349950D01*
X27320050Y-27349950D01*
X27320050Y-27350050D01*
X27300050Y-27350050D01*
X27300050Y-27721450D01*
X27357200Y-27778600D01*
X27645472Y-27778600D01*
X27729492Y-27743797D01*
X27771400Y-27701889D01*
X27771400Y-28746400D01*
X23226455Y-28746400D01*
X23557967Y-28680458D01*
X23912302Y-28443699D01*
X24149061Y-28089364D01*
X24232200Y-27671397D01*
X24232200Y-27628603D01*
X24188161Y-27407200D01*
X26771400Y-27407200D01*
X26771400Y-27595471D01*
X26806202Y-27679491D01*
X26870508Y-27743797D01*
X26954528Y-27778600D01*
X27242800Y-27778600D01*
X27299950Y-27721450D01*
X27299950Y-27350050D01*
X26828550Y-27350050D01*
X26771400Y-27407200D01*
X24188161Y-27407200D01*
X24149061Y-27210636D01*
X24078163Y-27104529D01*
X26771400Y-27104529D01*
X26771400Y-27292800D01*
X26828550Y-27349950D01*
X27299950Y-27349950D01*
X27299950Y-26978550D01*
X27242800Y-26921400D01*
X26954528Y-26921400D01*
X26870508Y-26956203D01*
X26806202Y-27020509D01*
X26771400Y-27104529D01*
X24078163Y-27104529D01*
X23912302Y-26856301D01*
X23557967Y-26619542D01*
X23554800Y-26618912D01*
X23554800Y-26322038D01*
X23562518Y-26317072D01*
X23575209Y-26298498D01*
X23620508Y-26343797D01*
X23704528Y-26378600D01*
X23842800Y-26378600D01*
X23899950Y-26321450D01*
X23899950Y-25775050D01*
X23879950Y-25775050D01*
X23879950Y-25774950D01*
X23899950Y-25774950D01*
X23899950Y-25754950D01*
X23900050Y-25754950D01*
X23900050Y-25774950D01*
X23920050Y-25774950D01*
X23920050Y-25775050D01*
X23900050Y-25775050D01*
X23900050Y-26321450D01*
X23957200Y-26378600D01*
X24095472Y-26378600D01*
X24179492Y-26343797D01*
X24224253Y-26299036D01*
X24232928Y-26312518D01*
X24309320Y-26364715D01*
X24400000Y-26383078D01*
X24700000Y-26383078D01*
X24784714Y-26367138D01*
X24862518Y-26317072D01*
X24874538Y-26299480D01*
X24882928Y-26312518D01*
X24959320Y-26364715D01*
X25050000Y-26383078D01*
X25350000Y-26383078D01*
X25434714Y-26367138D01*
X25512518Y-26317072D01*
X25564715Y-26240680D01*
X25583078Y-26150000D01*
X25583078Y-25458078D01*
X26275000Y-25458078D01*
X26359714Y-25442138D01*
X26437518Y-25392072D01*
X26489715Y-25315680D01*
X26508078Y-25225000D01*
X26508078Y-24925000D01*
X26492138Y-24840286D01*
X26442072Y-24762482D01*
X26424480Y-24750462D01*
X26437518Y-24742072D01*
X26445903Y-24729800D01*
X26766922Y-24729800D01*
X26766922Y-24750000D01*
G36*
X20192033Y-18319542D02*
X19837698Y-18556301D01*
X19600939Y-18910636D01*
X19517800Y-19328603D01*
X19517800Y-19371397D01*
X19600939Y-19789364D01*
X19837698Y-20143699D01*
X20192033Y-20380458D01*
X20610000Y-20463597D01*
X21027967Y-20380458D01*
X21220656Y-20251708D01*
X21602733Y-20633785D01*
X21585285Y-20659320D01*
X21566922Y-20750000D01*
X21566922Y-21441922D01*
X20875000Y-21441922D01*
X20790286Y-21457862D01*
X20759028Y-21477976D01*
X20383078Y-21102026D01*
X20383078Y-20700000D01*
X20367138Y-20615286D01*
X20317072Y-20537482D01*
X20240680Y-20485285D01*
X20150000Y-20466922D01*
X19750000Y-20466922D01*
X19665286Y-20482862D01*
X19587482Y-20532928D01*
X19535285Y-20609320D01*
X19516922Y-20700000D01*
X19516922Y-21300000D01*
X19532862Y-21384714D01*
X19582928Y-21462518D01*
X19659320Y-21514715D01*
X19750000Y-21533078D01*
X19952026Y-21533078D01*
X20194978Y-21776030D01*
X20150000Y-21766922D01*
X19750000Y-21766922D01*
X19665286Y-21782862D01*
X19587482Y-21832928D01*
X19535285Y-21909320D01*
X19516922Y-22000000D01*
X19516922Y-22600000D01*
X19532862Y-22684714D01*
X19582928Y-22762518D01*
X19659320Y-22814715D01*
X19750000Y-22833078D01*
X20150000Y-22833078D01*
X20234714Y-22817138D01*
X20292738Y-22779800D01*
X20702962Y-22779800D01*
X20707928Y-22787518D01*
X20726502Y-22800209D01*
X20681203Y-22845508D01*
X20646400Y-22929528D01*
X20646400Y-23067800D01*
X20703550Y-23124950D01*
X21249950Y-23124950D01*
X21249950Y-23104950D01*
X21250050Y-23104950D01*
X21250050Y-23124950D01*
X21270050Y-23124950D01*
X21270050Y-23125050D01*
X21250050Y-23125050D01*
X21250050Y-23145050D01*
X21249950Y-23145050D01*
X21249950Y-23125050D01*
X20703550Y-23125050D01*
X20646400Y-23182200D01*
X20646400Y-23320472D01*
X20681203Y-23404492D01*
X20725964Y-23449253D01*
X20712482Y-23457928D01*
X20660285Y-23534320D01*
X20641922Y-23625000D01*
X20641922Y-23677026D01*
X20052026Y-24266922D01*
X19575000Y-24266922D01*
X19490286Y-24282862D01*
X19412482Y-24332928D01*
X19360285Y-24409320D01*
X19341922Y-24500000D01*
X19341922Y-24727026D01*
X19308078Y-24760870D01*
X19308078Y-24500000D01*
X19292138Y-24415286D01*
X19242072Y-24337482D01*
X19165680Y-24285285D01*
X19126200Y-24277290D01*
X19126200Y-24023444D01*
X19159714Y-24017138D01*
X19237518Y-23967072D01*
X19289715Y-23890680D01*
X19308078Y-23800000D01*
X19308078Y-23607200D01*
X19346400Y-23607200D01*
X19346400Y-23845472D01*
X19381203Y-23929492D01*
X19445509Y-23993798D01*
X19529529Y-24028600D01*
X19817800Y-24028600D01*
X19874950Y-23971450D01*
X19874950Y-23550050D01*
X19875050Y-23550050D01*
X19875050Y-23971450D01*
X19932200Y-24028600D01*
X20220471Y-24028600D01*
X20304491Y-23993798D01*
X20368797Y-23929492D01*
X20403600Y-23845472D01*
X20403600Y-23607200D01*
X20346450Y-23550050D01*
X19875050Y-23550050D01*
X19874950Y-23550050D01*
X19403550Y-23550050D01*
X19346400Y-23607200D01*
X19308078Y-23607200D01*
X19308078Y-23300000D01*
X19299522Y-23254528D01*
X19346400Y-23254528D01*
X19346400Y-23492800D01*
X19403550Y-23549950D01*
X19874950Y-23549950D01*
X19874950Y-23128550D01*
X19875050Y-23128550D01*
X19875050Y-23549950D01*
X20346450Y-23549950D01*
X20403600Y-23492800D01*
X20403600Y-23254528D01*
X20368797Y-23170508D01*
X20304491Y-23106202D01*
X20220471Y-23071400D01*
X19932200Y-23071400D01*
X19875050Y-23128550D01*
X19874950Y-23128550D01*
X19817800Y-23071400D01*
X19529529Y-23071400D01*
X19445509Y-23106202D01*
X19381203Y-23170508D01*
X19346400Y-23254528D01*
X19299522Y-23254528D01*
X19292138Y-23215286D01*
X19242072Y-23137482D01*
X19165680Y-23085285D01*
X19126200Y-23077290D01*
X19126200Y-22833078D01*
X19250000Y-22833078D01*
X19334714Y-22817138D01*
X19412518Y-22767072D01*
X19464715Y-22690680D01*
X19483078Y-22600000D01*
X19483078Y-22000000D01*
X19467138Y-21915286D01*
X19417072Y-21837482D01*
X19340680Y-21785285D01*
X19250000Y-21766922D01*
X19126200Y-21766922D01*
X19126200Y-21533078D01*
X19250000Y-21533078D01*
X19334714Y-21517138D01*
X19412518Y-21467072D01*
X19464715Y-21390680D01*
X19483078Y-21300000D01*
X19483078Y-20700000D01*
X19467138Y-20615286D01*
X19417072Y-20537482D01*
X19340680Y-20485285D01*
X19250000Y-20466922D01*
X19141317Y-20466922D01*
X19148315Y-20456680D01*
X19166678Y-20366000D01*
X19166678Y-18334000D01*
X19151550Y-18253600D01*
X20523545Y-18253600D01*
X20192033Y-18319542D01*
X20192033Y-18319542D01*
G37*
X20192033Y-18319542D02*
X19837698Y-18556301D01*
X19600939Y-18910636D01*
X19517800Y-19328603D01*
X19517800Y-19371397D01*
X19600939Y-19789364D01*
X19837698Y-20143699D01*
X20192033Y-20380458D01*
X20610000Y-20463597D01*
X21027967Y-20380458D01*
X21220656Y-20251708D01*
X21602733Y-20633785D01*
X21585285Y-20659320D01*
X21566922Y-20750000D01*
X21566922Y-21441922D01*
X20875000Y-21441922D01*
X20790286Y-21457862D01*
X20759028Y-21477976D01*
X20383078Y-21102026D01*
X20383078Y-20700000D01*
X20367138Y-20615286D01*
X20317072Y-20537482D01*
X20240680Y-20485285D01*
X20150000Y-20466922D01*
X19750000Y-20466922D01*
X19665286Y-20482862D01*
X19587482Y-20532928D01*
X19535285Y-20609320D01*
X19516922Y-20700000D01*
X19516922Y-21300000D01*
X19532862Y-21384714D01*
X19582928Y-21462518D01*
X19659320Y-21514715D01*
X19750000Y-21533078D01*
X19952026Y-21533078D01*
X20194978Y-21776030D01*
X20150000Y-21766922D01*
X19750000Y-21766922D01*
X19665286Y-21782862D01*
X19587482Y-21832928D01*
X19535285Y-21909320D01*
X19516922Y-22000000D01*
X19516922Y-22600000D01*
X19532862Y-22684714D01*
X19582928Y-22762518D01*
X19659320Y-22814715D01*
X19750000Y-22833078D01*
X20150000Y-22833078D01*
X20234714Y-22817138D01*
X20292738Y-22779800D01*
X20702962Y-22779800D01*
X20707928Y-22787518D01*
X20726502Y-22800209D01*
X20681203Y-22845508D01*
X20646400Y-22929528D01*
X20646400Y-23067800D01*
X20703550Y-23124950D01*
X21249950Y-23124950D01*
X21249950Y-23104950D01*
X21250050Y-23104950D01*
X21250050Y-23124950D01*
X21270050Y-23124950D01*
X21270050Y-23125050D01*
X21250050Y-23125050D01*
X21250050Y-23145050D01*
X21249950Y-23145050D01*
X21249950Y-23125050D01*
X20703550Y-23125050D01*
X20646400Y-23182200D01*
X20646400Y-23320472D01*
X20681203Y-23404492D01*
X20725964Y-23449253D01*
X20712482Y-23457928D01*
X20660285Y-23534320D01*
X20641922Y-23625000D01*
X20641922Y-23677026D01*
X20052026Y-24266922D01*
X19575000Y-24266922D01*
X19490286Y-24282862D01*
X19412482Y-24332928D01*
X19360285Y-24409320D01*
X19341922Y-24500000D01*
X19341922Y-24727026D01*
X19308078Y-24760870D01*
X19308078Y-24500000D01*
X19292138Y-24415286D01*
X19242072Y-24337482D01*
X19165680Y-24285285D01*
X19126200Y-24277290D01*
X19126200Y-24023444D01*
X19159714Y-24017138D01*
X19237518Y-23967072D01*
X19289715Y-23890680D01*
X19308078Y-23800000D01*
X19308078Y-23607200D01*
X19346400Y-23607200D01*
X19346400Y-23845472D01*
X19381203Y-23929492D01*
X19445509Y-23993798D01*
X19529529Y-24028600D01*
X19817800Y-24028600D01*
X19874950Y-23971450D01*
X19874950Y-23550050D01*
X19875050Y-23550050D01*
X19875050Y-23971450D01*
X19932200Y-24028600D01*
X20220471Y-24028600D01*
X20304491Y-23993798D01*
X20368797Y-23929492D01*
X20403600Y-23845472D01*
X20403600Y-23607200D01*
X20346450Y-23550050D01*
X19875050Y-23550050D01*
X19874950Y-23550050D01*
X19403550Y-23550050D01*
X19346400Y-23607200D01*
X19308078Y-23607200D01*
X19308078Y-23300000D01*
X19299522Y-23254528D01*
X19346400Y-23254528D01*
X19346400Y-23492800D01*
X19403550Y-23549950D01*
X19874950Y-23549950D01*
X19874950Y-23128550D01*
X19875050Y-23128550D01*
X19875050Y-23549950D01*
X20346450Y-23549950D01*
X20403600Y-23492800D01*
X20403600Y-23254528D01*
X20368797Y-23170508D01*
X20304491Y-23106202D01*
X20220471Y-23071400D01*
X19932200Y-23071400D01*
X19875050Y-23128550D01*
X19874950Y-23128550D01*
X19817800Y-23071400D01*
X19529529Y-23071400D01*
X19445509Y-23106202D01*
X19381203Y-23170508D01*
X19346400Y-23254528D01*
X19299522Y-23254528D01*
X19292138Y-23215286D01*
X19242072Y-23137482D01*
X19165680Y-23085285D01*
X19126200Y-23077290D01*
X19126200Y-22833078D01*
X19250000Y-22833078D01*
X19334714Y-22817138D01*
X19412518Y-22767072D01*
X19464715Y-22690680D01*
X19483078Y-22600000D01*
X19483078Y-22000000D01*
X19467138Y-21915286D01*
X19417072Y-21837482D01*
X19340680Y-21785285D01*
X19250000Y-21766922D01*
X19126200Y-21766922D01*
X19126200Y-21533078D01*
X19250000Y-21533078D01*
X19334714Y-21517138D01*
X19412518Y-21467072D01*
X19464715Y-21390680D01*
X19483078Y-21300000D01*
X19483078Y-20700000D01*
X19467138Y-20615286D01*
X19417072Y-20537482D01*
X19340680Y-20485285D01*
X19250000Y-20466922D01*
X19141317Y-20466922D01*
X19148315Y-20456680D01*
X19166678Y-20366000D01*
X19166678Y-18334000D01*
X19151550Y-18253600D01*
X20523545Y-18253600D01*
X20192033Y-18319542D01*
G36*
X26654474Y-22315526D02*
X26753358Y-22381598D01*
X26784893Y-22387871D01*
X26832928Y-22462518D01*
X26909320Y-22514715D01*
X27000000Y-22533078D01*
X27600000Y-22533078D01*
X27677452Y-22518504D01*
X27771400Y-22612452D01*
X27771400Y-22691436D01*
X27625316Y-22691308D01*
X27430963Y-22771613D01*
X27285037Y-22917285D01*
X26497218Y-22917285D01*
X26492138Y-22890286D01*
X26442072Y-22812482D01*
X26423498Y-22799791D01*
X26468797Y-22754492D01*
X26503600Y-22670472D01*
X26503600Y-22532200D01*
X26446450Y-22475050D01*
X25900050Y-22475050D01*
X25900050Y-22495050D01*
X25899950Y-22495050D01*
X25899950Y-22475050D01*
X25879950Y-22475050D01*
X25879950Y-22474950D01*
X25899950Y-22474950D01*
X25899950Y-22454950D01*
X25900050Y-22454950D01*
X25900050Y-22474950D01*
X26446450Y-22474950D01*
X26503600Y-22417800D01*
X26503600Y-22279528D01*
X26468797Y-22195508D01*
X26424036Y-22150747D01*
X26437518Y-22142072D01*
X26445903Y-22129800D01*
X26468748Y-22129800D01*
X26654474Y-22315526D01*
X26654474Y-22315526D01*
G37*
X26654474Y-22315526D02*
X26753358Y-22381598D01*
X26784893Y-22387871D01*
X26832928Y-22462518D01*
X26909320Y-22514715D01*
X27000000Y-22533078D01*
X27600000Y-22533078D01*
X27677452Y-22518504D01*
X27771400Y-22612452D01*
X27771400Y-22691436D01*
X27625316Y-22691308D01*
X27430963Y-22771613D01*
X27285037Y-22917285D01*
X26497218Y-22917285D01*
X26492138Y-22890286D01*
X26442072Y-22812482D01*
X26423498Y-22799791D01*
X26468797Y-22754492D01*
X26503600Y-22670472D01*
X26503600Y-22532200D01*
X26446450Y-22475050D01*
X25900050Y-22475050D01*
X25900050Y-22495050D01*
X25899950Y-22495050D01*
X25899950Y-22475050D01*
X25879950Y-22475050D01*
X25879950Y-22474950D01*
X25899950Y-22474950D01*
X25899950Y-22454950D01*
X25900050Y-22454950D01*
X25900050Y-22474950D01*
X26446450Y-22474950D01*
X26503600Y-22417800D01*
X26503600Y-22279528D01*
X26468797Y-22195508D01*
X26424036Y-22150747D01*
X26437518Y-22142072D01*
X26445903Y-22129800D01*
X26468748Y-22129800D01*
X26654474Y-22315526D01*
G36*
X23900050Y-21124950D02*
X23920050Y-21124950D01*
X23920050Y-21125050D01*
X23900050Y-21125050D01*
X23900050Y-21145050D01*
X23899950Y-21145050D01*
X23899950Y-21125050D01*
X23879950Y-21125050D01*
X23879950Y-21124950D01*
X23899950Y-21124950D01*
X23899950Y-21104950D01*
X23900050Y-21104950D01*
X23900050Y-21124950D01*
X23900050Y-21124950D01*
G37*
X23900050Y-21124950D02*
X23920050Y-21124950D01*
X23920050Y-21125050D01*
X23900050Y-21125050D01*
X23900050Y-21145050D01*
X23899950Y-21145050D01*
X23899950Y-21125050D01*
X23879950Y-21125050D01*
X23879950Y-21124950D01*
X23899950Y-21124950D01*
X23899950Y-21104950D01*
X23900050Y-21104950D01*
X23900050Y-21124950D01*
G36*
X27771400Y-19158111D02*
X27729492Y-19116203D01*
X27645472Y-19081400D01*
X27357200Y-19081400D01*
X27300050Y-19138550D01*
X27300050Y-19509950D01*
X27320050Y-19509950D01*
X27320050Y-19510050D01*
X27300050Y-19510050D01*
X27300050Y-19530050D01*
X27299950Y-19530050D01*
X27299950Y-19510050D01*
X26828550Y-19510050D01*
X26771400Y-19567200D01*
X26771400Y-19655200D01*
X26765000Y-19655200D01*
X26648358Y-19678402D01*
X26549474Y-19744474D01*
X26088748Y-20205200D01*
X24940000Y-20205200D01*
X24823358Y-20228402D01*
X24724474Y-20294474D01*
X24502026Y-20516922D01*
X24400000Y-20516922D01*
X24315286Y-20532862D01*
X24237482Y-20582928D01*
X24224791Y-20601502D01*
X24179492Y-20556203D01*
X24179299Y-20556123D01*
X24757708Y-19977713D01*
X24757711Y-19977711D01*
X24839781Y-19854884D01*
X24868600Y-19710000D01*
X24868600Y-19264529D01*
X26771400Y-19264529D01*
X26771400Y-19452800D01*
X26828550Y-19509950D01*
X27299950Y-19509950D01*
X27299950Y-19138550D01*
X27242800Y-19081400D01*
X26954528Y-19081400D01*
X26870508Y-19116203D01*
X26806202Y-19180509D01*
X26771400Y-19264529D01*
X24868600Y-19264529D01*
X24868600Y-19138962D01*
X24937864Y-19069819D01*
X25018508Y-18875606D01*
X25018692Y-18665316D01*
X24938387Y-18470963D01*
X24789819Y-18322136D01*
X24624765Y-18253600D01*
X27771400Y-18253600D01*
X27771400Y-19158111D01*
X27771400Y-19158111D01*
G37*
X27771400Y-19158111D02*
X27729492Y-19116203D01*
X27645472Y-19081400D01*
X27357200Y-19081400D01*
X27300050Y-19138550D01*
X27300050Y-19509950D01*
X27320050Y-19509950D01*
X27320050Y-19510050D01*
X27300050Y-19510050D01*
X27300050Y-19530050D01*
X27299950Y-19530050D01*
X27299950Y-19510050D01*
X26828550Y-19510050D01*
X26771400Y-19567200D01*
X26771400Y-19655200D01*
X26765000Y-19655200D01*
X26648358Y-19678402D01*
X26549474Y-19744474D01*
X26088748Y-20205200D01*
X24940000Y-20205200D01*
X24823358Y-20228402D01*
X24724474Y-20294474D01*
X24502026Y-20516922D01*
X24400000Y-20516922D01*
X24315286Y-20532862D01*
X24237482Y-20582928D01*
X24224791Y-20601502D01*
X24179492Y-20556203D01*
X24179299Y-20556123D01*
X24757708Y-19977713D01*
X24757711Y-19977711D01*
X24839781Y-19854884D01*
X24868600Y-19710000D01*
X24868600Y-19264529D01*
X26771400Y-19264529D01*
X26771400Y-19452800D01*
X26828550Y-19509950D01*
X27299950Y-19509950D01*
X27299950Y-19138550D01*
X27242800Y-19081400D01*
X26954528Y-19081400D01*
X26870508Y-19116203D01*
X26806202Y-19180509D01*
X26771400Y-19264529D01*
X24868600Y-19264529D01*
X24868600Y-19138962D01*
X24937864Y-19069819D01*
X25018508Y-18875606D01*
X25018692Y-18665316D01*
X24938387Y-18470963D01*
X24789819Y-18322136D01*
X24624765Y-18253600D01*
X27771400Y-18253600D01*
X27771400Y-19158111D01*
D24*
X24490000Y-18770000D03*
X17750010Y-21000000D03*
X27260000Y-28410000D03*
X27300000Y-18710000D03*
X26740000Y-22690000D03*
X17750000Y-26000000D03*
X17900000Y-21925000D03*
X17900000Y-23925000D03*
X27730000Y-23220000D03*
X28500000Y-21790000D03*
X28300000Y-26500000D03*
X28300000Y-20450000D03*
X28500000Y-25230000D03*
D25*
X29000000Y-23500000D03*
M02*
