G04 #@! TF.FileFunction,Soldermask,Bot*
%FSLAX46Y46*%
G04 Gerber Fmt 4.6, Leading zero omitted, Abs format (unit mm)*
G04 Created by KiCad (PCBNEW 4.0.2+e4-6225~38~ubuntu14.04.1-stable) date Wed Aug  3 13:30:16 2016*
%MOMM*%
G01*
G04 APERTURE LIST*
%ADD10C,0.350000*%
%ADD11C,0.050000*%
%ADD12C,0.100000*%
G04 APERTURE END LIST*
D10*
D11*
X17450000Y-18000000D02*
G75*
G03X17000000Y-18470000I10000J-460000D01*
G01*
X17000000Y-28550000D02*
G75*
G03X17470000Y-29000000I460000J10000D01*
G01*
X17000000Y-18480000D02*
X17000000Y-28530000D01*
X29000000Y-18000000D02*
X17460000Y-18000000D01*
X17460000Y-29000000D02*
X29000000Y-29000000D01*
X30000000Y-23500000D02*
X30000000Y-23370000D01*
X30000000Y-23370000D02*
X30000000Y-23230000D01*
X30000000Y-23230000D02*
X30000000Y-23100000D01*
X30000000Y-23100000D02*
X30000000Y-22960000D01*
X30000000Y-22960000D02*
X29990000Y-22830000D01*
X29990000Y-22830000D02*
X29990000Y-22690000D01*
X29990000Y-22690000D02*
X29990000Y-22560000D01*
X29990000Y-22560000D02*
X29980000Y-22430000D01*
X29980000Y-22430000D02*
X29980000Y-22290000D01*
X29980000Y-22290000D02*
X29970000Y-22160000D01*
X29970000Y-22160000D02*
X29960000Y-22030000D01*
X29960000Y-22030000D02*
X29960000Y-21900000D01*
X29960000Y-21900000D02*
X29950000Y-21770000D01*
X29950000Y-21770000D02*
X29940000Y-21650000D01*
X29940000Y-21650000D02*
X29930000Y-21520000D01*
X29930000Y-21520000D02*
X29920000Y-21400000D01*
X29920000Y-21400000D02*
X29910000Y-21270000D01*
X29910000Y-21270000D02*
X29900000Y-21150000D01*
X29900000Y-21150000D02*
X29890000Y-21030000D01*
X29890000Y-21030000D02*
X29880000Y-20910000D01*
X29880000Y-20910000D02*
X29870000Y-20790000D01*
X29870000Y-20790000D02*
X29860000Y-20670000D01*
X29860000Y-20670000D02*
X29840000Y-20560000D01*
X29840000Y-20560000D02*
X29830000Y-20440000D01*
X29830000Y-20440000D02*
X29820000Y-20330000D01*
X29820000Y-20330000D02*
X29800000Y-20220000D01*
X29800000Y-20220000D02*
X29790000Y-20120000D01*
X29790000Y-20120000D02*
X29770000Y-20010000D01*
X29770000Y-20010000D02*
X29760000Y-19910000D01*
X29760000Y-19910000D02*
X29740000Y-19810000D01*
X29740000Y-19810000D02*
X29720000Y-19710000D01*
X29720000Y-19710000D02*
X29710000Y-19610000D01*
X29710000Y-19610000D02*
X29690000Y-19520000D01*
X29690000Y-19520000D02*
X29670000Y-19420000D01*
X29670000Y-19420000D02*
X29650000Y-19340000D01*
X29650000Y-19340000D02*
X29630000Y-19250000D01*
X29630000Y-19250000D02*
X29620000Y-19160000D01*
X29620000Y-19160000D02*
X29600000Y-19080000D01*
X29600000Y-19080000D02*
X29580000Y-19000000D01*
X29580000Y-19000000D02*
X29560000Y-18930000D01*
X29560000Y-18930000D02*
X29530000Y-18850000D01*
X29530000Y-18850000D02*
X29510000Y-18780000D01*
X29510000Y-18780000D02*
X29490000Y-18710000D01*
X29490000Y-18710000D02*
X29470000Y-18650000D01*
X29470000Y-18650000D02*
X29450000Y-18590000D01*
X29450000Y-18590000D02*
X29430000Y-18530000D01*
X29430000Y-18530000D02*
X29410000Y-18470000D01*
X29410000Y-18470000D02*
X29380000Y-18420000D01*
X29380000Y-18420000D02*
X29360000Y-18370000D01*
X29360000Y-18370000D02*
X29340000Y-18320000D01*
X29340000Y-18320000D02*
X29310000Y-18280000D01*
X29310000Y-18280000D02*
X29290000Y-18240000D01*
X29290000Y-18240000D02*
X29270000Y-18200000D01*
X29270000Y-18200000D02*
X29240000Y-18160000D01*
X29240000Y-18160000D02*
X29220000Y-18130000D01*
X29220000Y-18130000D02*
X29200000Y-18110000D01*
X29200000Y-18110000D02*
X29170000Y-18080000D01*
X29170000Y-18080000D02*
X29150000Y-18060000D01*
X29150000Y-18060000D02*
X29120000Y-18040000D01*
X29120000Y-18040000D02*
X29100000Y-18030000D01*
X29100000Y-18030000D02*
X29070000Y-18010000D01*
X29070000Y-18010000D02*
X29050000Y-18010000D01*
X29050000Y-18010000D02*
X29020000Y-18000000D01*
X29020000Y-18000000D02*
X29000000Y-18000000D01*
X29000000Y-29000000D02*
X29020000Y-29000000D01*
X29020000Y-29000000D02*
X29050000Y-28990000D01*
X29050000Y-28990000D02*
X29070000Y-28990000D01*
X29070000Y-28990000D02*
X29100000Y-28970000D01*
X29100000Y-28970000D02*
X29120000Y-28960000D01*
X29120000Y-28960000D02*
X29150000Y-28940000D01*
X29150000Y-28940000D02*
X29170000Y-28920000D01*
X29170000Y-28920000D02*
X29200000Y-28890000D01*
X29200000Y-28890000D02*
X29220000Y-28870000D01*
X29220000Y-28870000D02*
X29240000Y-28840000D01*
X29240000Y-28840000D02*
X29270000Y-28800000D01*
X29270000Y-28800000D02*
X29290000Y-28760000D01*
X29290000Y-28760000D02*
X29310000Y-28720000D01*
X29310000Y-28720000D02*
X29340000Y-28680000D01*
X29340000Y-28680000D02*
X29360000Y-28630000D01*
X29360000Y-28630000D02*
X29380000Y-28580000D01*
X29380000Y-28580000D02*
X29410000Y-28530000D01*
X29410000Y-28530000D02*
X29430000Y-28470000D01*
X29430000Y-28470000D02*
X29450000Y-28410000D01*
X29450000Y-28410000D02*
X29470000Y-28350000D01*
X29470000Y-28350000D02*
X29490000Y-28290000D01*
X29490000Y-28290000D02*
X29510000Y-28220000D01*
X29510000Y-28220000D02*
X29530000Y-28150000D01*
X29530000Y-28150000D02*
X29560000Y-28070000D01*
X29560000Y-28070000D02*
X29580000Y-28000000D01*
X29580000Y-28000000D02*
X29600000Y-27920000D01*
X29600000Y-27920000D02*
X29620000Y-27840000D01*
X29620000Y-27840000D02*
X29630000Y-27750000D01*
X29630000Y-27750000D02*
X29650000Y-27660000D01*
X29650000Y-27660000D02*
X29670000Y-27580000D01*
X29670000Y-27580000D02*
X29690000Y-27480000D01*
X29690000Y-27480000D02*
X29710000Y-27390000D01*
X29710000Y-27390000D02*
X29720000Y-27290000D01*
X29720000Y-27290000D02*
X29740000Y-27190000D01*
X29740000Y-27190000D02*
X29760000Y-27090000D01*
X29760000Y-27090000D02*
X29770000Y-26990000D01*
X29770000Y-26990000D02*
X29790000Y-26880000D01*
X29790000Y-26880000D02*
X29800000Y-26780000D01*
X29800000Y-26780000D02*
X29820000Y-26670000D01*
X29820000Y-26670000D02*
X29830000Y-26560000D01*
X29830000Y-26560000D02*
X29840000Y-26440000D01*
X29840000Y-26440000D02*
X29860000Y-26330000D01*
X29860000Y-26330000D02*
X29870000Y-26210000D01*
X29870000Y-26210000D02*
X29880000Y-26090000D01*
X29880000Y-26090000D02*
X29890000Y-25970000D01*
X29890000Y-25970000D02*
X29900000Y-25850000D01*
X29900000Y-25850000D02*
X29910000Y-25730000D01*
X29910000Y-25730000D02*
X29920000Y-25600000D01*
X29920000Y-25600000D02*
X29930000Y-25480000D01*
X29930000Y-25480000D02*
X29940000Y-25350000D01*
X29940000Y-25350000D02*
X29950000Y-25230000D01*
X29950000Y-25230000D02*
X29960000Y-25100000D01*
X29960000Y-25100000D02*
X29960000Y-24970000D01*
X29960000Y-24970000D02*
X29970000Y-24840000D01*
X29970000Y-24840000D02*
X29980000Y-24710000D01*
X29980000Y-24710000D02*
X29980000Y-24570000D01*
X29980000Y-24570000D02*
X29990000Y-24440000D01*
X29990000Y-24440000D02*
X29990000Y-24310000D01*
X29990000Y-24310000D02*
X29990000Y-24170000D01*
X29990000Y-24170000D02*
X30000000Y-24040000D01*
X30000000Y-24040000D02*
X30000000Y-23900000D01*
X30000000Y-23900000D02*
X30000000Y-23770000D01*
X30000000Y-23770000D02*
X30000000Y-23630000D01*
X30000000Y-23630000D02*
X30000000Y-23500000D01*
D12*
G36*
X28500000Y-22750000D02*
X30250000Y-22750000D01*
X30250000Y-18500000D01*
X28500000Y-18500000D01*
X28500000Y-22750000D01*
X28500000Y-22750000D01*
G37*
X28500000Y-22750000D02*
X30250000Y-22750000D01*
X30250000Y-18500000D01*
X28500000Y-18500000D01*
X28500000Y-22750000D01*
G36*
X28500000Y-28500000D02*
X28500000Y-24000000D01*
X30250000Y-24000000D01*
X30250000Y-28500000D01*
X28500000Y-28500000D01*
X28500000Y-28500000D01*
G37*
X28500000Y-28500000D02*
X28500000Y-24000000D01*
X30250000Y-24000000D01*
X30250000Y-28500000D01*
X28500000Y-28500000D01*
D10*
G36*
X18673600Y-28416000D02*
X17446400Y-28416000D01*
X17446400Y-26884000D01*
X18673600Y-26884000D01*
X18673600Y-28416000D01*
X18673600Y-28416000D01*
G37*
G36*
X20723333Y-27045957D02*
X20723343Y-27045960D01*
X20723381Y-27045964D01*
X20837780Y-27081376D01*
X20943121Y-27138334D01*
X21035393Y-27214667D01*
X21111080Y-27307470D01*
X21167301Y-27413206D01*
X21201914Y-27527849D01*
X21213600Y-27647031D01*
X21213600Y-27652969D01*
X21213540Y-27661536D01*
X21200191Y-27780544D01*
X21163981Y-27894692D01*
X21106290Y-27999633D01*
X21029313Y-28091369D01*
X20935985Y-28166408D01*
X20829859Y-28221889D01*
X20714977Y-28255700D01*
X20714948Y-28255703D01*
X20714930Y-28255708D01*
X20595719Y-28266557D01*
X20476667Y-28254043D01*
X20476657Y-28254040D01*
X20476619Y-28254036D01*
X20362220Y-28218624D01*
X20256879Y-28161666D01*
X20164607Y-28085333D01*
X20088920Y-27992530D01*
X20032699Y-27886794D01*
X19998086Y-27772151D01*
X19986400Y-27652969D01*
X19986400Y-27647031D01*
X19986460Y-27638464D01*
X19999809Y-27519456D01*
X20036019Y-27405308D01*
X20093710Y-27300367D01*
X20170687Y-27208631D01*
X20264015Y-27133592D01*
X20370141Y-27078111D01*
X20485023Y-27044300D01*
X20485052Y-27044297D01*
X20485070Y-27044292D01*
X20604281Y-27033443D01*
X20723333Y-27045957D01*
X20723333Y-27045957D01*
G37*
G36*
X25803333Y-27045957D02*
X25803343Y-27045960D01*
X25803381Y-27045964D01*
X25917780Y-27081376D01*
X26023121Y-27138334D01*
X26115393Y-27214667D01*
X26191080Y-27307470D01*
X26247301Y-27413206D01*
X26281914Y-27527849D01*
X26293600Y-27647031D01*
X26293600Y-27652969D01*
X26293540Y-27661536D01*
X26280191Y-27780544D01*
X26243981Y-27894692D01*
X26186290Y-27999633D01*
X26109313Y-28091369D01*
X26015985Y-28166408D01*
X25909859Y-28221889D01*
X25794977Y-28255700D01*
X25794948Y-28255703D01*
X25794930Y-28255708D01*
X25675719Y-28266557D01*
X25556667Y-28254043D01*
X25556657Y-28254040D01*
X25556619Y-28254036D01*
X25442220Y-28218624D01*
X25336879Y-28161666D01*
X25244607Y-28085333D01*
X25168920Y-27992530D01*
X25112699Y-27886794D01*
X25078086Y-27772151D01*
X25066400Y-27652969D01*
X25066400Y-27647031D01*
X25066460Y-27638464D01*
X25079809Y-27519456D01*
X25116019Y-27405308D01*
X25173710Y-27300367D01*
X25250687Y-27208631D01*
X25344015Y-27133592D01*
X25450141Y-27078111D01*
X25565023Y-27044300D01*
X25565052Y-27044297D01*
X25565070Y-27044292D01*
X25684281Y-27033443D01*
X25803333Y-27045957D01*
X25803333Y-27045957D01*
G37*
G36*
X23263333Y-27045957D02*
X23263343Y-27045960D01*
X23263381Y-27045964D01*
X23377780Y-27081376D01*
X23483121Y-27138334D01*
X23575393Y-27214667D01*
X23651080Y-27307470D01*
X23707301Y-27413206D01*
X23741914Y-27527849D01*
X23753600Y-27647031D01*
X23753600Y-27652969D01*
X23753540Y-27661536D01*
X23740191Y-27780544D01*
X23703981Y-27894692D01*
X23646290Y-27999633D01*
X23569313Y-28091369D01*
X23475985Y-28166408D01*
X23369859Y-28221889D01*
X23254977Y-28255700D01*
X23254948Y-28255703D01*
X23254930Y-28255708D01*
X23135719Y-28266557D01*
X23016667Y-28254043D01*
X23016657Y-28254040D01*
X23016619Y-28254036D01*
X22902220Y-28218624D01*
X22796879Y-28161666D01*
X22704607Y-28085333D01*
X22628920Y-27992530D01*
X22572699Y-27886794D01*
X22538086Y-27772151D01*
X22526400Y-27652969D01*
X22526400Y-27647031D01*
X22526460Y-27638464D01*
X22539809Y-27519456D01*
X22576019Y-27405308D01*
X22633710Y-27300367D01*
X22710687Y-27208631D01*
X22804015Y-27133592D01*
X22910141Y-27078111D01*
X23025023Y-27044300D01*
X23025052Y-27044297D01*
X23025070Y-27044292D01*
X23144281Y-27033443D01*
X23263333Y-27045957D01*
X23263333Y-27045957D01*
G37*
G36*
X27700000Y-27650000D02*
X26900000Y-27650000D01*
X26900000Y-27050000D01*
X27700000Y-27050000D01*
X27700000Y-27650000D01*
X27700000Y-27650000D01*
G37*
G36*
X27700000Y-26750000D02*
X26900000Y-26750000D01*
X26900000Y-26150000D01*
X27700000Y-26150000D01*
X27700000Y-26750000D01*
X27700000Y-26750000D01*
G37*
G36*
X19175000Y-26300000D02*
X18375000Y-26300000D01*
X18375000Y-25600000D01*
X19175000Y-25600000D01*
X19175000Y-26300000D01*
X19175000Y-26300000D01*
G37*
G36*
X20275000Y-26300000D02*
X19475000Y-26300000D01*
X19475000Y-25600000D01*
X20275000Y-25600000D01*
X20275000Y-26300000D01*
X20275000Y-26300000D01*
G37*
G36*
X21725000Y-25250000D02*
X21726980Y-25263930D01*
X21732761Y-25276756D01*
X21741888Y-25287464D01*
X21753636Y-25295206D01*
X21767076Y-25299368D01*
X21775000Y-25300000D01*
X22200000Y-25300000D01*
X22200000Y-26250000D01*
X21700000Y-26250000D01*
X21700000Y-25375000D01*
X21698020Y-25361070D01*
X21692239Y-25348244D01*
X21683112Y-25337536D01*
X21671364Y-25329794D01*
X21657924Y-25325632D01*
X21650000Y-25325000D01*
X20775000Y-25325000D01*
X20775000Y-24825000D01*
X21725000Y-24825000D01*
X21725000Y-25250000D01*
X21725000Y-25250000D01*
G37*
G36*
X22850000Y-26250000D02*
X22350000Y-26250000D01*
X22350000Y-25300000D01*
X22850000Y-25300000D01*
X22850000Y-26250000D01*
X22850000Y-26250000D01*
G37*
G36*
X23500000Y-26250000D02*
X23000000Y-26250000D01*
X23000000Y-25300000D01*
X23500000Y-25300000D01*
X23500000Y-26250000D01*
X23500000Y-26250000D01*
G37*
G36*
X24150000Y-26250000D02*
X23650000Y-26250000D01*
X23650000Y-25300000D01*
X24150000Y-25300000D01*
X24150000Y-26250000D01*
X24150000Y-26250000D01*
G37*
G36*
X26375000Y-25325000D02*
X25500000Y-25325000D01*
X25486070Y-25326980D01*
X25473244Y-25332761D01*
X25462536Y-25341888D01*
X25454794Y-25353636D01*
X25450632Y-25367076D01*
X25450000Y-25375000D01*
X25450000Y-26250000D01*
X24950000Y-26250000D01*
X24950000Y-25300000D01*
X25375000Y-25300000D01*
X25388930Y-25298020D01*
X25401756Y-25292239D01*
X25412464Y-25283112D01*
X25420206Y-25271364D01*
X25424368Y-25257924D01*
X25425000Y-25250000D01*
X25425000Y-24825000D01*
X26375000Y-24825000D01*
X26375000Y-25325000D01*
X26375000Y-25325000D01*
G37*
G36*
X24800000Y-26250000D02*
X24300000Y-26250000D01*
X24300000Y-25300000D01*
X24800000Y-25300000D01*
X24800000Y-26250000D01*
X24800000Y-26250000D01*
G37*
G36*
X27700000Y-25750000D02*
X26900000Y-25750000D01*
X26900000Y-25150000D01*
X27700000Y-25150000D01*
X27700000Y-25750000D01*
X27700000Y-25750000D01*
G37*
G36*
X25275000Y-25150000D02*
X21875000Y-25150000D01*
X21875000Y-21750000D01*
X25275000Y-21750000D01*
X25275000Y-25150000D01*
X25275000Y-25150000D01*
G37*
G36*
X19175000Y-25100000D02*
X18375000Y-25100000D01*
X18375000Y-24400000D01*
X19175000Y-24400000D01*
X19175000Y-25100000D01*
X19175000Y-25100000D01*
G37*
G36*
X20275000Y-25100000D02*
X19475000Y-25100000D01*
X19475000Y-24400000D01*
X20275000Y-24400000D01*
X20275000Y-25100000D01*
X20275000Y-25100000D01*
G37*
G36*
X27700000Y-24850000D02*
X26900000Y-24850000D01*
X26900000Y-24250000D01*
X27700000Y-24250000D01*
X27700000Y-24850000D01*
X27700000Y-24850000D01*
G37*
G36*
X21725000Y-24675000D02*
X20775000Y-24675000D01*
X20775000Y-24175000D01*
X21725000Y-24175000D01*
X21725000Y-24675000D01*
X21725000Y-24675000D01*
G37*
G36*
X26375000Y-24675000D02*
X25425000Y-24675000D01*
X25425000Y-24175000D01*
X26375000Y-24175000D01*
X26375000Y-24675000D01*
X26375000Y-24675000D01*
G37*
G36*
X26375000Y-24025000D02*
X25425000Y-24025000D01*
X25425000Y-23525000D01*
X26375000Y-23525000D01*
X26375000Y-24025000D01*
X26375000Y-24025000D01*
G37*
G36*
X21725000Y-24025000D02*
X20775000Y-24025000D01*
X20775000Y-23525000D01*
X21725000Y-23525000D01*
X21725000Y-24025000D01*
X21725000Y-24025000D01*
G37*
G36*
X20275000Y-23900000D02*
X19475000Y-23900000D01*
X19475000Y-23200000D01*
X20275000Y-23200000D01*
X20275000Y-23900000D01*
X20275000Y-23900000D01*
G37*
G36*
X19175000Y-23900000D02*
X18375000Y-23900000D01*
X18375000Y-23200000D01*
X19175000Y-23200000D01*
X19175000Y-23900000D01*
X19175000Y-23900000D01*
G37*
G36*
X26375000Y-23375000D02*
X25425000Y-23375000D01*
X25425000Y-22875000D01*
X26375000Y-22875000D01*
X26375000Y-23375000D01*
X26375000Y-23375000D01*
G37*
G36*
X21725000Y-23375000D02*
X20775000Y-23375000D01*
X20775000Y-22875000D01*
X21725000Y-22875000D01*
X21725000Y-23375000D01*
X21725000Y-23375000D01*
G37*
G36*
X26375000Y-22725000D02*
X25425000Y-22725000D01*
X25425000Y-22225000D01*
X26375000Y-22225000D01*
X26375000Y-22725000D01*
X26375000Y-22725000D01*
G37*
G36*
X21725000Y-22725000D02*
X20775000Y-22725000D01*
X20775000Y-22225000D01*
X21725000Y-22225000D01*
X21725000Y-22725000D01*
X21725000Y-22725000D01*
G37*
G36*
X19350000Y-22700000D02*
X18750000Y-22700000D01*
X18750000Y-21900000D01*
X19350000Y-21900000D01*
X19350000Y-22700000D01*
X19350000Y-22700000D01*
G37*
G36*
X20250000Y-22700000D02*
X19650000Y-22700000D01*
X19650000Y-21900000D01*
X20250000Y-21900000D01*
X20250000Y-22700000D01*
X20250000Y-22700000D01*
G37*
G36*
X27700000Y-22400000D02*
X26900000Y-22400000D01*
X26900000Y-21800000D01*
X27700000Y-21800000D01*
X27700000Y-22400000D01*
X27700000Y-22400000D01*
G37*
G36*
X22200000Y-21600000D02*
X21775000Y-21600000D01*
X21761070Y-21601980D01*
X21748244Y-21607761D01*
X21737536Y-21616888D01*
X21729794Y-21628636D01*
X21725632Y-21642076D01*
X21725000Y-21650000D01*
X21725000Y-22075000D01*
X20775000Y-22075000D01*
X20775000Y-21575000D01*
X21650000Y-21575000D01*
X21663930Y-21573020D01*
X21676756Y-21567239D01*
X21687464Y-21558112D01*
X21695206Y-21546364D01*
X21699368Y-21532924D01*
X21700000Y-21525000D01*
X21700000Y-20650000D01*
X22200000Y-20650000D01*
X22200000Y-21600000D01*
X22200000Y-21600000D01*
G37*
G36*
X25450000Y-21525000D02*
X25451980Y-21538930D01*
X25457761Y-21551756D01*
X25466888Y-21562464D01*
X25478636Y-21570206D01*
X25492076Y-21574368D01*
X25500000Y-21575000D01*
X26375000Y-21575000D01*
X26375000Y-22075000D01*
X25425000Y-22075000D01*
X25425000Y-21650000D01*
X25423020Y-21636070D01*
X25417239Y-21623244D01*
X25408112Y-21612536D01*
X25396364Y-21604794D01*
X25382924Y-21600632D01*
X25375000Y-21600000D01*
X24950000Y-21600000D01*
X24950000Y-20650000D01*
X25450000Y-20650000D01*
X25450000Y-21525000D01*
X25450000Y-21525000D01*
G37*
G36*
X24150000Y-21600000D02*
X23650000Y-21600000D01*
X23650000Y-20650000D01*
X24150000Y-20650000D01*
X24150000Y-21600000D01*
X24150000Y-21600000D01*
G37*
G36*
X24800000Y-21600000D02*
X24300000Y-21600000D01*
X24300000Y-20650000D01*
X24800000Y-20650000D01*
X24800000Y-21600000D01*
X24800000Y-21600000D01*
G37*
G36*
X22850000Y-21600000D02*
X22350000Y-21600000D01*
X22350000Y-20650000D01*
X22850000Y-20650000D01*
X22850000Y-21600000D01*
X22850000Y-21600000D01*
G37*
G36*
X27700000Y-21500000D02*
X26900000Y-21500000D01*
X26900000Y-20900000D01*
X27700000Y-20900000D01*
X27700000Y-21500000D01*
X27700000Y-21500000D01*
G37*
G36*
X20250000Y-21400000D02*
X19650000Y-21400000D01*
X19650000Y-20600000D01*
X20250000Y-20600000D01*
X20250000Y-21400000D01*
X20250000Y-21400000D01*
G37*
G36*
X19350000Y-21400000D02*
X18750000Y-21400000D01*
X18750000Y-20600000D01*
X19350000Y-20600000D01*
X19350000Y-21400000D01*
X19350000Y-21400000D01*
G37*
G36*
X27700000Y-20710000D02*
X26900000Y-20710000D01*
X26900000Y-20110000D01*
X27700000Y-20110000D01*
X27700000Y-20710000D01*
X27700000Y-20710000D01*
G37*
G36*
X18683600Y-20116000D02*
X17456400Y-20116000D01*
X17456400Y-18584000D01*
X18683600Y-18584000D01*
X18683600Y-20116000D01*
X18683600Y-20116000D01*
G37*
G36*
X20733333Y-18745957D02*
X20733343Y-18745960D01*
X20733381Y-18745964D01*
X20847780Y-18781376D01*
X20953121Y-18838334D01*
X21045393Y-18914667D01*
X21121080Y-19007470D01*
X21177301Y-19113206D01*
X21211914Y-19227849D01*
X21223600Y-19347031D01*
X21223600Y-19352969D01*
X21223540Y-19361536D01*
X21210191Y-19480544D01*
X21173981Y-19594692D01*
X21116290Y-19699633D01*
X21039313Y-19791369D01*
X20945985Y-19866408D01*
X20839859Y-19921889D01*
X20724977Y-19955700D01*
X20724948Y-19955703D01*
X20724930Y-19955708D01*
X20605719Y-19966557D01*
X20486667Y-19954043D01*
X20486657Y-19954040D01*
X20486619Y-19954036D01*
X20372220Y-19918624D01*
X20266879Y-19861666D01*
X20174607Y-19785333D01*
X20098920Y-19692530D01*
X20042699Y-19586794D01*
X20008086Y-19472151D01*
X19996400Y-19352969D01*
X19996400Y-19347031D01*
X19996460Y-19338464D01*
X20009809Y-19219456D01*
X20046019Y-19105308D01*
X20103710Y-19000367D01*
X20180687Y-18908631D01*
X20274015Y-18833592D01*
X20380141Y-18778111D01*
X20495023Y-18744300D01*
X20495052Y-18744297D01*
X20495070Y-18744292D01*
X20614281Y-18733443D01*
X20733333Y-18745957D01*
X20733333Y-18745957D01*
G37*
G36*
X23273333Y-18745957D02*
X23273343Y-18745960D01*
X23273381Y-18745964D01*
X23387780Y-18781376D01*
X23493121Y-18838334D01*
X23585393Y-18914667D01*
X23661080Y-19007470D01*
X23717301Y-19113206D01*
X23751914Y-19227849D01*
X23763600Y-19347031D01*
X23763600Y-19352969D01*
X23763540Y-19361536D01*
X23750191Y-19480544D01*
X23713981Y-19594692D01*
X23656290Y-19699633D01*
X23579313Y-19791369D01*
X23485985Y-19866408D01*
X23379859Y-19921889D01*
X23264977Y-19955700D01*
X23264948Y-19955703D01*
X23264930Y-19955708D01*
X23145719Y-19966557D01*
X23026667Y-19954043D01*
X23026657Y-19954040D01*
X23026619Y-19954036D01*
X22912220Y-19918624D01*
X22806879Y-19861666D01*
X22714607Y-19785333D01*
X22638920Y-19692530D01*
X22582699Y-19586794D01*
X22548086Y-19472151D01*
X22536400Y-19352969D01*
X22536400Y-19347031D01*
X22536460Y-19338464D01*
X22549809Y-19219456D01*
X22586019Y-19105308D01*
X22643710Y-19000367D01*
X22720687Y-18908631D01*
X22814015Y-18833592D01*
X22920141Y-18778111D01*
X23035023Y-18744300D01*
X23035052Y-18744297D01*
X23035070Y-18744292D01*
X23154281Y-18733443D01*
X23273333Y-18745957D01*
X23273333Y-18745957D01*
G37*
G36*
X25813333Y-18745957D02*
X25813343Y-18745960D01*
X25813381Y-18745964D01*
X25927780Y-18781376D01*
X26033121Y-18838334D01*
X26125393Y-18914667D01*
X26201080Y-19007470D01*
X26257301Y-19113206D01*
X26291914Y-19227849D01*
X26303600Y-19347031D01*
X26303600Y-19352969D01*
X26303540Y-19361536D01*
X26290191Y-19480544D01*
X26253981Y-19594692D01*
X26196290Y-19699633D01*
X26119313Y-19791369D01*
X26025985Y-19866408D01*
X25919859Y-19921889D01*
X25804977Y-19955700D01*
X25804948Y-19955703D01*
X25804930Y-19955708D01*
X25685719Y-19966557D01*
X25566667Y-19954043D01*
X25566657Y-19954040D01*
X25566619Y-19954036D01*
X25452220Y-19918624D01*
X25346879Y-19861666D01*
X25254607Y-19785333D01*
X25178920Y-19692530D01*
X25122699Y-19586794D01*
X25088086Y-19472151D01*
X25076400Y-19352969D01*
X25076400Y-19347031D01*
X25076460Y-19338464D01*
X25089809Y-19219456D01*
X25126019Y-19105308D01*
X25183710Y-19000367D01*
X25260687Y-18908631D01*
X25354015Y-18833592D01*
X25460141Y-18778111D01*
X25575023Y-18744300D01*
X25575052Y-18744297D01*
X25575070Y-18744292D01*
X25694281Y-18733443D01*
X25813333Y-18745957D01*
X25813333Y-18745957D01*
G37*
G36*
X27700000Y-19810000D02*
X26900000Y-19810000D01*
X26900000Y-19210000D01*
X27700000Y-19210000D01*
X27700000Y-19810000D01*
X27700000Y-19810000D01*
G37*
M02*
