G04 #@! TF.FileFunction,Copper,L1,Top,Signal*
%FSLAX46Y46*%
G04 Gerber Fmt 4.6, Leading zero omitted, Abs format (unit mm)*
G04 Created by KiCad (PCBNEW 4.0.2+e4-6225~38~ubuntu14.04.1-stable) date Wed Aug  3 13:30:16 2016*
%MOMM*%
G01*
G04 APERTURE LIST*
%ADD10C,0.350000*%
%ADD11C,0.187500*%
%ADD12C,0.050000*%
%ADD13R,7.500000X3.125000*%
%ADD14R,7.500000X1.750000*%
%ADD15R,1.000000X1.000000*%
%ADD16C,0.600000*%
%ADD17C,0.600000*%
%ADD18C,0.152400*%
%ADD19C,0.254000*%
%ADD20C,0.300000*%
%ADD21O,0.799999X2.499999*%
G04 APERTURE END LIST*
D10*
D11*
X26269286Y-28209048D02*
X26269286Y-27885238D01*
X26019286Y-28087619D02*
X26662143Y-28087619D01*
X26733571Y-28047143D01*
X26769286Y-27966190D01*
X26769286Y-27885238D01*
X26769286Y-27480476D02*
X26733571Y-27561429D01*
X26697857Y-27601905D01*
X26626429Y-27642381D01*
X26412143Y-27642381D01*
X26340714Y-27601905D01*
X26305000Y-27561429D01*
X26269286Y-27480476D01*
X26269286Y-27359048D01*
X26305000Y-27278096D01*
X26340714Y-27237619D01*
X26412143Y-27197143D01*
X26626429Y-27197143D01*
X26697857Y-27237619D01*
X26733571Y-27278096D01*
X26769286Y-27359048D01*
X26769286Y-27480476D01*
X26769286Y-26832857D02*
X26269286Y-26832857D01*
X26340714Y-26832857D02*
X26305000Y-26792381D01*
X26269286Y-26711428D01*
X26269286Y-26590000D01*
X26305000Y-26509048D01*
X26376429Y-26468571D01*
X26769286Y-26468571D01*
X26376429Y-26468571D02*
X26305000Y-26428095D01*
X26269286Y-26347143D01*
X26269286Y-26225714D01*
X26305000Y-26144762D01*
X26376429Y-26104286D01*
X26769286Y-26104286D01*
X26269286Y-25335238D02*
X26769286Y-25335238D01*
X26269286Y-25699524D02*
X26662143Y-25699524D01*
X26733571Y-25659048D01*
X26769286Y-25578095D01*
X26769286Y-25456667D01*
X26733571Y-25375715D01*
X26697857Y-25335238D01*
X26697857Y-24930476D02*
X26733571Y-24890000D01*
X26769286Y-24930476D01*
X26733571Y-24970952D01*
X26697857Y-24930476D01*
X26769286Y-24930476D01*
X26769286Y-24525714D02*
X26269286Y-24525714D01*
X26019286Y-24525714D02*
X26055000Y-24566190D01*
X26090714Y-24525714D01*
X26055000Y-24485238D01*
X26019286Y-24525714D01*
X26090714Y-24525714D01*
X26769286Y-24120952D02*
X26269286Y-24120952D01*
X26340714Y-24120952D02*
X26305000Y-24080476D01*
X26269286Y-23999523D01*
X26269286Y-23878095D01*
X26305000Y-23797143D01*
X26376429Y-23756666D01*
X26769286Y-23756666D01*
X26376429Y-23756666D02*
X26305000Y-23716190D01*
X26269286Y-23635238D01*
X26269286Y-23513809D01*
X26305000Y-23432857D01*
X26376429Y-23392381D01*
X26769286Y-23392381D01*
X26269286Y-21773333D02*
X26769286Y-21570952D01*
X26269286Y-21368572D01*
X26019286Y-20882857D02*
X26019286Y-20801905D01*
X26055000Y-20720953D01*
X26090714Y-20680476D01*
X26162143Y-20640000D01*
X26305000Y-20599524D01*
X26483571Y-20599524D01*
X26626429Y-20640000D01*
X26697857Y-20680476D01*
X26733571Y-20720953D01*
X26769286Y-20801905D01*
X26769286Y-20882857D01*
X26733571Y-20963810D01*
X26697857Y-21004286D01*
X26626429Y-21044762D01*
X26483571Y-21085238D01*
X26305000Y-21085238D01*
X26162143Y-21044762D01*
X26090714Y-21004286D01*
X26055000Y-20963810D01*
X26019286Y-20882857D01*
X26697857Y-20235238D02*
X26733571Y-20194762D01*
X26769286Y-20235238D01*
X26733571Y-20275714D01*
X26697857Y-20235238D01*
X26769286Y-20235238D01*
X26090714Y-19870952D02*
X26055000Y-19830476D01*
X26019286Y-19749524D01*
X26019286Y-19547143D01*
X26055000Y-19466190D01*
X26090714Y-19425714D01*
X26162143Y-19385238D01*
X26233571Y-19385238D01*
X26340714Y-19425714D01*
X26769286Y-19911428D01*
X26769286Y-19385238D01*
D12*
X17450000Y-18000000D02*
G75*
G03X17000000Y-18470000I10000J-460000D01*
G01*
X17000000Y-28550000D02*
G75*
G03X17470000Y-29000000I460000J10000D01*
G01*
X17000000Y-18480000D02*
X17000000Y-28530000D01*
X29000000Y-18000000D02*
X17460000Y-18000000D01*
X17460000Y-29000000D02*
X29000000Y-29000000D01*
X30000000Y-23500000D02*
X30000000Y-23370000D01*
X30000000Y-23370000D02*
X30000000Y-23230000D01*
X30000000Y-23230000D02*
X30000000Y-23100000D01*
X30000000Y-23100000D02*
X30000000Y-22960000D01*
X30000000Y-22960000D02*
X29990000Y-22830000D01*
X29990000Y-22830000D02*
X29990000Y-22690000D01*
X29990000Y-22690000D02*
X29990000Y-22560000D01*
X29990000Y-22560000D02*
X29980000Y-22430000D01*
X29980000Y-22430000D02*
X29980000Y-22290000D01*
X29980000Y-22290000D02*
X29970000Y-22160000D01*
X29970000Y-22160000D02*
X29960000Y-22030000D01*
X29960000Y-22030000D02*
X29960000Y-21900000D01*
X29960000Y-21900000D02*
X29950000Y-21770000D01*
X29950000Y-21770000D02*
X29940000Y-21650000D01*
X29940000Y-21650000D02*
X29930000Y-21520000D01*
X29930000Y-21520000D02*
X29920000Y-21400000D01*
X29920000Y-21400000D02*
X29910000Y-21270000D01*
X29910000Y-21270000D02*
X29900000Y-21150000D01*
X29900000Y-21150000D02*
X29890000Y-21030000D01*
X29890000Y-21030000D02*
X29880000Y-20910000D01*
X29880000Y-20910000D02*
X29870000Y-20790000D01*
X29870000Y-20790000D02*
X29860000Y-20670000D01*
X29860000Y-20670000D02*
X29840000Y-20560000D01*
X29840000Y-20560000D02*
X29830000Y-20440000D01*
X29830000Y-20440000D02*
X29820000Y-20330000D01*
X29820000Y-20330000D02*
X29800000Y-20220000D01*
X29800000Y-20220000D02*
X29790000Y-20120000D01*
X29790000Y-20120000D02*
X29770000Y-20010000D01*
X29770000Y-20010000D02*
X29760000Y-19910000D01*
X29760000Y-19910000D02*
X29740000Y-19810000D01*
X29740000Y-19810000D02*
X29720000Y-19710000D01*
X29720000Y-19710000D02*
X29710000Y-19610000D01*
X29710000Y-19610000D02*
X29690000Y-19520000D01*
X29690000Y-19520000D02*
X29670000Y-19420000D01*
X29670000Y-19420000D02*
X29650000Y-19340000D01*
X29650000Y-19340000D02*
X29630000Y-19250000D01*
X29630000Y-19250000D02*
X29620000Y-19160000D01*
X29620000Y-19160000D02*
X29600000Y-19080000D01*
X29600000Y-19080000D02*
X29580000Y-19000000D01*
X29580000Y-19000000D02*
X29560000Y-18930000D01*
X29560000Y-18930000D02*
X29530000Y-18850000D01*
X29530000Y-18850000D02*
X29510000Y-18780000D01*
X29510000Y-18780000D02*
X29490000Y-18710000D01*
X29490000Y-18710000D02*
X29470000Y-18650000D01*
X29470000Y-18650000D02*
X29450000Y-18590000D01*
X29450000Y-18590000D02*
X29430000Y-18530000D01*
X29430000Y-18530000D02*
X29410000Y-18470000D01*
X29410000Y-18470000D02*
X29380000Y-18420000D01*
X29380000Y-18420000D02*
X29360000Y-18370000D01*
X29360000Y-18370000D02*
X29340000Y-18320000D01*
X29340000Y-18320000D02*
X29310000Y-18280000D01*
X29310000Y-18280000D02*
X29290000Y-18240000D01*
X29290000Y-18240000D02*
X29270000Y-18200000D01*
X29270000Y-18200000D02*
X29240000Y-18160000D01*
X29240000Y-18160000D02*
X29220000Y-18130000D01*
X29220000Y-18130000D02*
X29200000Y-18110000D01*
X29200000Y-18110000D02*
X29170000Y-18080000D01*
X29170000Y-18080000D02*
X29150000Y-18060000D01*
X29150000Y-18060000D02*
X29120000Y-18040000D01*
X29120000Y-18040000D02*
X29100000Y-18030000D01*
X29100000Y-18030000D02*
X29070000Y-18010000D01*
X29070000Y-18010000D02*
X29050000Y-18010000D01*
X29050000Y-18010000D02*
X29020000Y-18000000D01*
X29020000Y-18000000D02*
X29000000Y-18000000D01*
X29000000Y-29000000D02*
X29020000Y-29000000D01*
X29020000Y-29000000D02*
X29050000Y-28990000D01*
X29050000Y-28990000D02*
X29070000Y-28990000D01*
X29070000Y-28990000D02*
X29100000Y-28970000D01*
X29100000Y-28970000D02*
X29120000Y-28960000D01*
X29120000Y-28960000D02*
X29150000Y-28940000D01*
X29150000Y-28940000D02*
X29170000Y-28920000D01*
X29170000Y-28920000D02*
X29200000Y-28890000D01*
X29200000Y-28890000D02*
X29220000Y-28870000D01*
X29220000Y-28870000D02*
X29240000Y-28840000D01*
X29240000Y-28840000D02*
X29270000Y-28800000D01*
X29270000Y-28800000D02*
X29290000Y-28760000D01*
X29290000Y-28760000D02*
X29310000Y-28720000D01*
X29310000Y-28720000D02*
X29340000Y-28680000D01*
X29340000Y-28680000D02*
X29360000Y-28630000D01*
X29360000Y-28630000D02*
X29380000Y-28580000D01*
X29380000Y-28580000D02*
X29410000Y-28530000D01*
X29410000Y-28530000D02*
X29430000Y-28470000D01*
X29430000Y-28470000D02*
X29450000Y-28410000D01*
X29450000Y-28410000D02*
X29470000Y-28350000D01*
X29470000Y-28350000D02*
X29490000Y-28290000D01*
X29490000Y-28290000D02*
X29510000Y-28220000D01*
X29510000Y-28220000D02*
X29530000Y-28150000D01*
X29530000Y-28150000D02*
X29560000Y-28070000D01*
X29560000Y-28070000D02*
X29580000Y-28000000D01*
X29580000Y-28000000D02*
X29600000Y-27920000D01*
X29600000Y-27920000D02*
X29620000Y-27840000D01*
X29620000Y-27840000D02*
X29630000Y-27750000D01*
X29630000Y-27750000D02*
X29650000Y-27660000D01*
X29650000Y-27660000D02*
X29670000Y-27580000D01*
X29670000Y-27580000D02*
X29690000Y-27480000D01*
X29690000Y-27480000D02*
X29710000Y-27390000D01*
X29710000Y-27390000D02*
X29720000Y-27290000D01*
X29720000Y-27290000D02*
X29740000Y-27190000D01*
X29740000Y-27190000D02*
X29760000Y-27090000D01*
X29760000Y-27090000D02*
X29770000Y-26990000D01*
X29770000Y-26990000D02*
X29790000Y-26880000D01*
X29790000Y-26880000D02*
X29800000Y-26780000D01*
X29800000Y-26780000D02*
X29820000Y-26670000D01*
X29820000Y-26670000D02*
X29830000Y-26560000D01*
X29830000Y-26560000D02*
X29840000Y-26440000D01*
X29840000Y-26440000D02*
X29860000Y-26330000D01*
X29860000Y-26330000D02*
X29870000Y-26210000D01*
X29870000Y-26210000D02*
X29880000Y-26090000D01*
X29880000Y-26090000D02*
X29890000Y-25970000D01*
X29890000Y-25970000D02*
X29900000Y-25850000D01*
X29900000Y-25850000D02*
X29910000Y-25730000D01*
X29910000Y-25730000D02*
X29920000Y-25600000D01*
X29920000Y-25600000D02*
X29930000Y-25480000D01*
X29930000Y-25480000D02*
X29940000Y-25350000D01*
X29940000Y-25350000D02*
X29950000Y-25230000D01*
X29950000Y-25230000D02*
X29960000Y-25100000D01*
X29960000Y-25100000D02*
X29960000Y-24970000D01*
X29960000Y-24970000D02*
X29970000Y-24840000D01*
X29970000Y-24840000D02*
X29980000Y-24710000D01*
X29980000Y-24710000D02*
X29980000Y-24570000D01*
X29980000Y-24570000D02*
X29990000Y-24440000D01*
X29990000Y-24440000D02*
X29990000Y-24310000D01*
X29990000Y-24310000D02*
X29990000Y-24170000D01*
X29990000Y-24170000D02*
X30000000Y-24040000D01*
X30000000Y-24040000D02*
X30000000Y-23900000D01*
X30000000Y-23900000D02*
X30000000Y-23770000D01*
X30000000Y-23770000D02*
X30000000Y-23630000D01*
X30000000Y-23630000D02*
X30000000Y-23500000D01*
D13*
X22000000Y-27187500D03*
X22000000Y-19812500D03*
D14*
X22000000Y-24500000D03*
X22000000Y-22500000D03*
D10*
G36*
X18250000Y-25625000D02*
X18250000Y-28750000D01*
X17250000Y-27750000D01*
X17250000Y-26625000D01*
X18250000Y-25625000D01*
X18250000Y-25625000D01*
G37*
G36*
X18250000Y-18262500D02*
X18250000Y-21387500D01*
X17250000Y-20387500D01*
X17250000Y-19262500D01*
X18250000Y-18262500D01*
X18250000Y-18262500D01*
G37*
D15*
X17750000Y-26125000D03*
X17750000Y-20875000D03*
D16*
X24490000Y-18770000D03*
X17750010Y-21000000D03*
X27260000Y-28410000D03*
X27300000Y-18710000D03*
X26740000Y-22690000D03*
X17750000Y-26000000D03*
X17900000Y-21925000D03*
X17900000Y-23925000D03*
X27730000Y-23220000D03*
X28500000Y-21790000D03*
X28300000Y-26500000D03*
X28300000Y-20450000D03*
X28500000Y-25230000D03*
D17*
X22000000Y-19812500D02*
X23447500Y-19812500D01*
X23447500Y-19812500D02*
X24490000Y-18770000D01*
X17750000Y-19825000D02*
X21987500Y-19825000D01*
X21987500Y-19825000D02*
X22000000Y-19812500D01*
X17750010Y-21000000D02*
X17750010Y-19825010D01*
X17750010Y-19825010D02*
X17750000Y-19825000D01*
D18*
X17762500Y-19812500D02*
X17750000Y-19825000D01*
X27160000Y-22670000D02*
X27160000Y-18850000D01*
X27160000Y-18850000D02*
X27300000Y-18710000D01*
X27160000Y-28310000D02*
X27160000Y-22670000D01*
X27140000Y-22690000D02*
X27160000Y-22670000D01*
X26740000Y-22690000D02*
X27140000Y-22690000D01*
X27260000Y-28410000D02*
X27160000Y-28310000D01*
D17*
X17750000Y-27187500D02*
X17750000Y-26000000D01*
X17750000Y-26000000D02*
X18937500Y-27187500D01*
X18937500Y-27187500D02*
X22000000Y-27187500D01*
X17900000Y-21925000D02*
X21425000Y-21925000D01*
X21425000Y-21925000D02*
X22000000Y-22500000D01*
X17900000Y-23925000D02*
X21425000Y-23925000D01*
X21425000Y-23925000D02*
X22000000Y-24500000D01*
X18324264Y-23925000D02*
X17900000Y-23925000D01*
X19105380Y-24000000D02*
X19030380Y-23925000D01*
X19030380Y-23925000D02*
X18324264Y-23925000D01*
D18*
X27730000Y-23220000D02*
X27730000Y-22345000D01*
X27730000Y-22345000D02*
X28285000Y-21790000D01*
X28285000Y-21790000D02*
X28500000Y-21790000D01*
D19*
G36*
X29206339Y-18395118D02*
X29218872Y-18426451D01*
X29238872Y-18476452D01*
X29245538Y-18486697D01*
X29249661Y-18498203D01*
X29271076Y-18533896D01*
X29285800Y-18578067D01*
X29344754Y-18754929D01*
X29383848Y-18891758D01*
X29386677Y-18897264D01*
X29387678Y-18903371D01*
X29415528Y-18977637D01*
X29433154Y-19039329D01*
X29452538Y-19116865D01*
X29470059Y-19186951D01*
X29478930Y-19266786D01*
X29481435Y-19274687D01*
X29481620Y-19282973D01*
X29501619Y-19372973D01*
X29502439Y-19374834D01*
X29502538Y-19376865D01*
X29521663Y-19453365D01*
X29540952Y-19549809D01*
X29541583Y-19551329D01*
X29541620Y-19552973D01*
X29559655Y-19634134D01*
X29568754Y-19725125D01*
X29570944Y-19732306D01*
X29570952Y-19739810D01*
X29590952Y-19839809D01*
X29590952Y-19839810D01*
X29609493Y-19932513D01*
X29618754Y-20025125D01*
X29620554Y-20031026D01*
X29620452Y-20037191D01*
X29639360Y-20141183D01*
X29648754Y-20235125D01*
X29650554Y-20241026D01*
X29650452Y-20247191D01*
X29669238Y-20350511D01*
X29678575Y-20453223D01*
X29688525Y-20572623D01*
X29690574Y-20579764D01*
X29690452Y-20587191D01*
X29709136Y-20689950D01*
X29718525Y-20802623D01*
X29724390Y-20873000D01*
X27515600Y-20873000D01*
X27515600Y-19247827D01*
X27627775Y-19201478D01*
X27790905Y-19038632D01*
X27879299Y-18825755D01*
X27879500Y-18595256D01*
X27791478Y-18382225D01*
X27786262Y-18377000D01*
X29192750Y-18377000D01*
X29206339Y-18395118D01*
X29206339Y-18395118D01*
G37*
X29206339Y-18395118D02*
X29218872Y-18426451D01*
X29238872Y-18476452D01*
X29245538Y-18486697D01*
X29249661Y-18498203D01*
X29271076Y-18533896D01*
X29285800Y-18578067D01*
X29344754Y-18754929D01*
X29383848Y-18891758D01*
X29386677Y-18897264D01*
X29387678Y-18903371D01*
X29415528Y-18977637D01*
X29433154Y-19039329D01*
X29452538Y-19116865D01*
X29470059Y-19186951D01*
X29478930Y-19266786D01*
X29481435Y-19274687D01*
X29481620Y-19282973D01*
X29501619Y-19372973D01*
X29502439Y-19374834D01*
X29502538Y-19376865D01*
X29521663Y-19453365D01*
X29540952Y-19549809D01*
X29541583Y-19551329D01*
X29541620Y-19552973D01*
X29559655Y-19634134D01*
X29568754Y-19725125D01*
X29570944Y-19732306D01*
X29570952Y-19739810D01*
X29590952Y-19839809D01*
X29590952Y-19839810D01*
X29609493Y-19932513D01*
X29618754Y-20025125D01*
X29620554Y-20031026D01*
X29620452Y-20037191D01*
X29639360Y-20141183D01*
X29648754Y-20235125D01*
X29650554Y-20241026D01*
X29650452Y-20247191D01*
X29669238Y-20350511D01*
X29678575Y-20453223D01*
X29688525Y-20572623D01*
X29690574Y-20579764D01*
X29690452Y-20587191D01*
X29709136Y-20689950D01*
X29718525Y-20802623D01*
X29724390Y-20873000D01*
X27515600Y-20873000D01*
X27515600Y-19247827D01*
X27627775Y-19201478D01*
X27790905Y-19038632D01*
X27879299Y-18825755D01*
X27879500Y-18595256D01*
X27791478Y-18382225D01*
X27786262Y-18377000D01*
X29192750Y-18377000D01*
X29206339Y-18395118D01*
G36*
X29768448Y-21411658D02*
X29768581Y-21412132D01*
X29768525Y-21412623D01*
X29778489Y-21532191D01*
X29788448Y-21661658D01*
X29788581Y-21662132D01*
X29788525Y-21662623D01*
X29798489Y-21782191D01*
X29808000Y-21905834D01*
X29808000Y-22030000D01*
X29809152Y-22035794D01*
X29808448Y-22041658D01*
X29828000Y-22295834D01*
X29828000Y-22430000D01*
X29829152Y-22435794D01*
X29828448Y-22441658D01*
X29838000Y-22565834D01*
X29838000Y-22830000D01*
X29839152Y-22835794D01*
X29838448Y-22841658D01*
X29848000Y-22965834D01*
X29848000Y-23123000D01*
X29679400Y-23123000D01*
X29679400Y-22620037D01*
X29627684Y-22360042D01*
X29480408Y-22139629D01*
X29259995Y-21992353D01*
X29000000Y-21940637D01*
X28740005Y-21992353D01*
X28519592Y-22139629D01*
X28372316Y-22360042D01*
X28320600Y-22620037D01*
X28320600Y-23123000D01*
X27515600Y-23123000D01*
X27515600Y-21377000D01*
X29765782Y-21377000D01*
X29768448Y-21411658D01*
X29768448Y-21411658D01*
G37*
X29768448Y-21411658D02*
X29768581Y-21412132D01*
X29768525Y-21412623D01*
X29778489Y-21532191D01*
X29788448Y-21661658D01*
X29788581Y-21662132D01*
X29788525Y-21662623D01*
X29798489Y-21782191D01*
X29808000Y-21905834D01*
X29808000Y-22030000D01*
X29809152Y-22035794D01*
X29808448Y-22041658D01*
X29828000Y-22295834D01*
X29828000Y-22430000D01*
X29829152Y-22435794D01*
X29828448Y-22441658D01*
X29838000Y-22565834D01*
X29838000Y-22830000D01*
X29839152Y-22835794D01*
X29838448Y-22841658D01*
X29848000Y-22965834D01*
X29848000Y-23123000D01*
X29679400Y-23123000D01*
X29679400Y-22620037D01*
X29627684Y-22360042D01*
X29480408Y-22139629D01*
X29259995Y-21992353D01*
X29000000Y-21940637D01*
X28740005Y-21992353D01*
X28519592Y-22139629D01*
X28372316Y-22360042D01*
X28320600Y-22620037D01*
X28320600Y-23123000D01*
X27515600Y-23123000D01*
X27515600Y-21377000D01*
X29765782Y-21377000D01*
X29768448Y-21411658D01*
G36*
X29718525Y-26197377D02*
X29709136Y-26310050D01*
X29690452Y-26412809D01*
X29690574Y-26420236D01*
X29688525Y-26427377D01*
X29678575Y-26546777D01*
X29669238Y-26649489D01*
X29650452Y-26752809D01*
X29650554Y-26758974D01*
X29648754Y-26764875D01*
X29639360Y-26858817D01*
X29620452Y-26962809D01*
X29620554Y-26968974D01*
X29618754Y-26974875D01*
X29609493Y-27067487D01*
X29590952Y-27160190D01*
X29590952Y-27160191D01*
X29570952Y-27260190D01*
X29570944Y-27267694D01*
X29568754Y-27274875D01*
X29559655Y-27365866D01*
X29541620Y-27447027D01*
X29541583Y-27448671D01*
X29540952Y-27450191D01*
X29521663Y-27546635D01*
X29502538Y-27623135D01*
X29502439Y-27625166D01*
X29501619Y-27627027D01*
X29481620Y-27717027D01*
X29481435Y-27725313D01*
X29478930Y-27733214D01*
X29470059Y-27813049D01*
X29452538Y-27883135D01*
X29433154Y-27960671D01*
X29415528Y-28022363D01*
X29387678Y-28096629D01*
X29386677Y-28102736D01*
X29383848Y-28108242D01*
X29344754Y-28245071D01*
X29285800Y-28421933D01*
X29271076Y-28466104D01*
X29249661Y-28501797D01*
X29245538Y-28513303D01*
X29238872Y-28523548D01*
X29218873Y-28573546D01*
X29218872Y-28573548D01*
X29206339Y-28604882D01*
X29192750Y-28623000D01*
X27798919Y-28623000D01*
X27839299Y-28525755D01*
X27839500Y-28295256D01*
X27751478Y-28082225D01*
X27588632Y-27919095D01*
X27515600Y-27888770D01*
X27515600Y-26127000D01*
X29724390Y-26127000D01*
X29718525Y-26197377D01*
X29718525Y-26197377D01*
G37*
X29718525Y-26197377D02*
X29709136Y-26310050D01*
X29690452Y-26412809D01*
X29690574Y-26420236D01*
X29688525Y-26427377D01*
X29678575Y-26546777D01*
X29669238Y-26649489D01*
X29650452Y-26752809D01*
X29650554Y-26758974D01*
X29648754Y-26764875D01*
X29639360Y-26858817D01*
X29620452Y-26962809D01*
X29620554Y-26968974D01*
X29618754Y-26974875D01*
X29609493Y-27067487D01*
X29590952Y-27160190D01*
X29590952Y-27160191D01*
X29570952Y-27260190D01*
X29570944Y-27267694D01*
X29568754Y-27274875D01*
X29559655Y-27365866D01*
X29541620Y-27447027D01*
X29541583Y-27448671D01*
X29540952Y-27450191D01*
X29521663Y-27546635D01*
X29502538Y-27623135D01*
X29502439Y-27625166D01*
X29501619Y-27627027D01*
X29481620Y-27717027D01*
X29481435Y-27725313D01*
X29478930Y-27733214D01*
X29470059Y-27813049D01*
X29452538Y-27883135D01*
X29433154Y-27960671D01*
X29415528Y-28022363D01*
X29387678Y-28096629D01*
X29386677Y-28102736D01*
X29383848Y-28108242D01*
X29344754Y-28245071D01*
X29285800Y-28421933D01*
X29271076Y-28466104D01*
X29249661Y-28501797D01*
X29245538Y-28513303D01*
X29238872Y-28523548D01*
X29218873Y-28573546D01*
X29218872Y-28573548D01*
X29206339Y-28604882D01*
X29192750Y-28623000D01*
X27798919Y-28623000D01*
X27839299Y-28525755D01*
X27839500Y-28295256D01*
X27751478Y-28082225D01*
X27588632Y-27919095D01*
X27515600Y-27888770D01*
X27515600Y-26127000D01*
X29724390Y-26127000D01*
X29718525Y-26197377D01*
G36*
X28320600Y-24379963D02*
X28372316Y-24639958D01*
X28519592Y-24860371D01*
X28740005Y-25007647D01*
X29000000Y-25059363D01*
X29259995Y-25007647D01*
X29480408Y-24860371D01*
X29627684Y-24639958D01*
X29679400Y-24379963D01*
X29679400Y-23877000D01*
X29848000Y-23877000D01*
X29848000Y-24034166D01*
X29838448Y-24158342D01*
X29839152Y-24164206D01*
X29838000Y-24170000D01*
X29838000Y-24434166D01*
X29828448Y-24558342D01*
X29829152Y-24564206D01*
X29828000Y-24570000D01*
X29828000Y-24704166D01*
X29808448Y-24958342D01*
X29809152Y-24964206D01*
X29808000Y-24970000D01*
X29808000Y-25094166D01*
X29798489Y-25217809D01*
X29788525Y-25337377D01*
X29788581Y-25337868D01*
X29788448Y-25338342D01*
X29778489Y-25467809D01*
X29768525Y-25587377D01*
X29768581Y-25587868D01*
X29768448Y-25588342D01*
X29765782Y-25623000D01*
X27515600Y-25623000D01*
X27515600Y-23877000D01*
X28320600Y-23877000D01*
X28320600Y-24379963D01*
X28320600Y-24379963D01*
G37*
X28320600Y-24379963D02*
X28372316Y-24639958D01*
X28519592Y-24860371D01*
X28740005Y-25007647D01*
X29000000Y-25059363D01*
X29259995Y-25007647D01*
X29480408Y-24860371D01*
X29627684Y-24639958D01*
X29679400Y-24379963D01*
X29679400Y-23877000D01*
X29848000Y-23877000D01*
X29848000Y-24034166D01*
X29838448Y-24158342D01*
X29839152Y-24164206D01*
X29838000Y-24170000D01*
X29838000Y-24434166D01*
X29828448Y-24558342D01*
X29829152Y-24564206D01*
X29828000Y-24570000D01*
X29828000Y-24704166D01*
X29808448Y-24958342D01*
X29809152Y-24964206D01*
X29808000Y-24970000D01*
X29808000Y-25094166D01*
X29798489Y-25217809D01*
X29788525Y-25337377D01*
X29788581Y-25337868D01*
X29788448Y-25338342D01*
X29778489Y-25467809D01*
X29768525Y-25587377D01*
X29768581Y-25587868D01*
X29768448Y-25588342D01*
X29765782Y-25623000D01*
X27515600Y-25623000D01*
X27515600Y-23877000D01*
X28320600Y-23877000D01*
X28320600Y-24379963D01*
D20*
X24490000Y-18770000D03*
X17750010Y-21000000D03*
X27260000Y-28410000D03*
X27300000Y-18710000D03*
X26740000Y-22690000D03*
X17750000Y-26000000D03*
X17900000Y-21925000D03*
X17900000Y-23925000D03*
X27730000Y-23220000D03*
X28500000Y-21790000D03*
X28300000Y-26500000D03*
X28300000Y-20450000D03*
X28500000Y-25230000D03*
D21*
X29000000Y-23500000D03*
M02*
