G04 #@! TF.FileFunction,Legend,Bot*
%FSLAX46Y46*%
G04 Gerber Fmt 4.6, Leading zero omitted, Abs format (unit mm)*
G04 Created by KiCad (PCBNEW 4.0.2+e4-6225~38~ubuntu14.04.1-stable) date Wed Aug  3 13:30:16 2016*
%MOMM*%
G01*
G04 APERTURE LIST*
%ADD10C,0.350000*%
%ADD11C,0.250000*%
%ADD12C,0.050000*%
%ADD13C,0.150000*%
G04 APERTURE END LIST*
D10*
D11*
X22161905Y-19827381D02*
X22161905Y-18827381D01*
X21923810Y-18827381D01*
X21780952Y-18875000D01*
X21685714Y-18970238D01*
X21638095Y-19065476D01*
X21590476Y-19255952D01*
X21590476Y-19398810D01*
X21638095Y-19589286D01*
X21685714Y-19684524D01*
X21780952Y-19779762D01*
X21923810Y-19827381D01*
X22161905Y-19827381D01*
X19040476Y-19732143D02*
X19088095Y-19779762D01*
X19230952Y-19827381D01*
X19326190Y-19827381D01*
X19469048Y-19779762D01*
X19564286Y-19684524D01*
X19611905Y-19589286D01*
X19659524Y-19398810D01*
X19659524Y-19255952D01*
X19611905Y-19065476D01*
X19564286Y-18970238D01*
X19469048Y-18875000D01*
X19326190Y-18827381D01*
X19230952Y-18827381D01*
X19088095Y-18875000D01*
X19040476Y-18922619D01*
X22185714Y-27177381D02*
X21614285Y-27177381D01*
X21900000Y-28177381D02*
X21900000Y-27177381D01*
X19040476Y-28177381D02*
X19373810Y-27701190D01*
X19611905Y-28177381D02*
X19611905Y-27177381D01*
X19230952Y-27177381D01*
X19135714Y-27225000D01*
X19088095Y-27272619D01*
X19040476Y-27367857D01*
X19040476Y-27510714D01*
X19088095Y-27605952D01*
X19135714Y-27653571D01*
X19230952Y-27701190D01*
X19611905Y-27701190D01*
D12*
X17450000Y-18000000D02*
G75*
G03X17000000Y-18470000I10000J-460000D01*
G01*
X17000000Y-28550000D02*
G75*
G03X17470000Y-29000000I460000J10000D01*
G01*
X17000000Y-18480000D02*
X17000000Y-28530000D01*
X29000000Y-18000000D02*
X17460000Y-18000000D01*
X17460000Y-29000000D02*
X29000000Y-29000000D01*
X30000000Y-23500000D02*
X30000000Y-23370000D01*
X30000000Y-23370000D02*
X30000000Y-23230000D01*
X30000000Y-23230000D02*
X30000000Y-23100000D01*
X30000000Y-23100000D02*
X30000000Y-22960000D01*
X30000000Y-22960000D02*
X29990000Y-22830000D01*
X29990000Y-22830000D02*
X29990000Y-22690000D01*
X29990000Y-22690000D02*
X29990000Y-22560000D01*
X29990000Y-22560000D02*
X29980000Y-22430000D01*
X29980000Y-22430000D02*
X29980000Y-22290000D01*
X29980000Y-22290000D02*
X29970000Y-22160000D01*
X29970000Y-22160000D02*
X29960000Y-22030000D01*
X29960000Y-22030000D02*
X29960000Y-21900000D01*
X29960000Y-21900000D02*
X29950000Y-21770000D01*
X29950000Y-21770000D02*
X29940000Y-21650000D01*
X29940000Y-21650000D02*
X29930000Y-21520000D01*
X29930000Y-21520000D02*
X29920000Y-21400000D01*
X29920000Y-21400000D02*
X29910000Y-21270000D01*
X29910000Y-21270000D02*
X29900000Y-21150000D01*
X29900000Y-21150000D02*
X29890000Y-21030000D01*
X29890000Y-21030000D02*
X29880000Y-20910000D01*
X29880000Y-20910000D02*
X29870000Y-20790000D01*
X29870000Y-20790000D02*
X29860000Y-20670000D01*
X29860000Y-20670000D02*
X29840000Y-20560000D01*
X29840000Y-20560000D02*
X29830000Y-20440000D01*
X29830000Y-20440000D02*
X29820000Y-20330000D01*
X29820000Y-20330000D02*
X29800000Y-20220000D01*
X29800000Y-20220000D02*
X29790000Y-20120000D01*
X29790000Y-20120000D02*
X29770000Y-20010000D01*
X29770000Y-20010000D02*
X29760000Y-19910000D01*
X29760000Y-19910000D02*
X29740000Y-19810000D01*
X29740000Y-19810000D02*
X29720000Y-19710000D01*
X29720000Y-19710000D02*
X29710000Y-19610000D01*
X29710000Y-19610000D02*
X29690000Y-19520000D01*
X29690000Y-19520000D02*
X29670000Y-19420000D01*
X29670000Y-19420000D02*
X29650000Y-19340000D01*
X29650000Y-19340000D02*
X29630000Y-19250000D01*
X29630000Y-19250000D02*
X29620000Y-19160000D01*
X29620000Y-19160000D02*
X29600000Y-19080000D01*
X29600000Y-19080000D02*
X29580000Y-19000000D01*
X29580000Y-19000000D02*
X29560000Y-18930000D01*
X29560000Y-18930000D02*
X29530000Y-18850000D01*
X29530000Y-18850000D02*
X29510000Y-18780000D01*
X29510000Y-18780000D02*
X29490000Y-18710000D01*
X29490000Y-18710000D02*
X29470000Y-18650000D01*
X29470000Y-18650000D02*
X29450000Y-18590000D01*
X29450000Y-18590000D02*
X29430000Y-18530000D01*
X29430000Y-18530000D02*
X29410000Y-18470000D01*
X29410000Y-18470000D02*
X29380000Y-18420000D01*
X29380000Y-18420000D02*
X29360000Y-18370000D01*
X29360000Y-18370000D02*
X29340000Y-18320000D01*
X29340000Y-18320000D02*
X29310000Y-18280000D01*
X29310000Y-18280000D02*
X29290000Y-18240000D01*
X29290000Y-18240000D02*
X29270000Y-18200000D01*
X29270000Y-18200000D02*
X29240000Y-18160000D01*
X29240000Y-18160000D02*
X29220000Y-18130000D01*
X29220000Y-18130000D02*
X29200000Y-18110000D01*
X29200000Y-18110000D02*
X29170000Y-18080000D01*
X29170000Y-18080000D02*
X29150000Y-18060000D01*
X29150000Y-18060000D02*
X29120000Y-18040000D01*
X29120000Y-18040000D02*
X29100000Y-18030000D01*
X29100000Y-18030000D02*
X29070000Y-18010000D01*
X29070000Y-18010000D02*
X29050000Y-18010000D01*
X29050000Y-18010000D02*
X29020000Y-18000000D01*
X29020000Y-18000000D02*
X29000000Y-18000000D01*
X29000000Y-29000000D02*
X29020000Y-29000000D01*
X29020000Y-29000000D02*
X29050000Y-28990000D01*
X29050000Y-28990000D02*
X29070000Y-28990000D01*
X29070000Y-28990000D02*
X29100000Y-28970000D01*
X29100000Y-28970000D02*
X29120000Y-28960000D01*
X29120000Y-28960000D02*
X29150000Y-28940000D01*
X29150000Y-28940000D02*
X29170000Y-28920000D01*
X29170000Y-28920000D02*
X29200000Y-28890000D01*
X29200000Y-28890000D02*
X29220000Y-28870000D01*
X29220000Y-28870000D02*
X29240000Y-28840000D01*
X29240000Y-28840000D02*
X29270000Y-28800000D01*
X29270000Y-28800000D02*
X29290000Y-28760000D01*
X29290000Y-28760000D02*
X29310000Y-28720000D01*
X29310000Y-28720000D02*
X29340000Y-28680000D01*
X29340000Y-28680000D02*
X29360000Y-28630000D01*
X29360000Y-28630000D02*
X29380000Y-28580000D01*
X29380000Y-28580000D02*
X29410000Y-28530000D01*
X29410000Y-28530000D02*
X29430000Y-28470000D01*
X29430000Y-28470000D02*
X29450000Y-28410000D01*
X29450000Y-28410000D02*
X29470000Y-28350000D01*
X29470000Y-28350000D02*
X29490000Y-28290000D01*
X29490000Y-28290000D02*
X29510000Y-28220000D01*
X29510000Y-28220000D02*
X29530000Y-28150000D01*
X29530000Y-28150000D02*
X29560000Y-28070000D01*
X29560000Y-28070000D02*
X29580000Y-28000000D01*
X29580000Y-28000000D02*
X29600000Y-27920000D01*
X29600000Y-27920000D02*
X29620000Y-27840000D01*
X29620000Y-27840000D02*
X29630000Y-27750000D01*
X29630000Y-27750000D02*
X29650000Y-27660000D01*
X29650000Y-27660000D02*
X29670000Y-27580000D01*
X29670000Y-27580000D02*
X29690000Y-27480000D01*
X29690000Y-27480000D02*
X29710000Y-27390000D01*
X29710000Y-27390000D02*
X29720000Y-27290000D01*
X29720000Y-27290000D02*
X29740000Y-27190000D01*
X29740000Y-27190000D02*
X29760000Y-27090000D01*
X29760000Y-27090000D02*
X29770000Y-26990000D01*
X29770000Y-26990000D02*
X29790000Y-26880000D01*
X29790000Y-26880000D02*
X29800000Y-26780000D01*
X29800000Y-26780000D02*
X29820000Y-26670000D01*
X29820000Y-26670000D02*
X29830000Y-26560000D01*
X29830000Y-26560000D02*
X29840000Y-26440000D01*
X29840000Y-26440000D02*
X29860000Y-26330000D01*
X29860000Y-26330000D02*
X29870000Y-26210000D01*
X29870000Y-26210000D02*
X29880000Y-26090000D01*
X29880000Y-26090000D02*
X29890000Y-25970000D01*
X29890000Y-25970000D02*
X29900000Y-25850000D01*
X29900000Y-25850000D02*
X29910000Y-25730000D01*
X29910000Y-25730000D02*
X29920000Y-25600000D01*
X29920000Y-25600000D02*
X29930000Y-25480000D01*
X29930000Y-25480000D02*
X29940000Y-25350000D01*
X29940000Y-25350000D02*
X29950000Y-25230000D01*
X29950000Y-25230000D02*
X29960000Y-25100000D01*
X29960000Y-25100000D02*
X29960000Y-24970000D01*
X29960000Y-24970000D02*
X29970000Y-24840000D01*
X29970000Y-24840000D02*
X29980000Y-24710000D01*
X29980000Y-24710000D02*
X29980000Y-24570000D01*
X29980000Y-24570000D02*
X29990000Y-24440000D01*
X29990000Y-24440000D02*
X29990000Y-24310000D01*
X29990000Y-24310000D02*
X29990000Y-24170000D01*
X29990000Y-24170000D02*
X30000000Y-24040000D01*
X30000000Y-24040000D02*
X30000000Y-23900000D01*
X30000000Y-23900000D02*
X30000000Y-23770000D01*
X30000000Y-23770000D02*
X30000000Y-23630000D01*
X30000000Y-23630000D02*
X30000000Y-23500000D01*
D13*
X27825000Y-24750000D02*
X27825000Y-25250000D01*
X26775000Y-25250000D02*
X26775000Y-24750000D01*
X27300000Y-20060000D02*
X27050000Y-19860000D01*
X27550000Y-19860000D02*
X27300000Y-20060000D01*
X27825000Y-19710000D02*
X27825000Y-20760000D01*
X26775000Y-19710000D02*
X26775000Y-20760000D01*
X19575000Y-26425000D02*
X19075000Y-26425000D01*
X19075000Y-25475000D02*
X19575000Y-25475000D01*
X19075000Y-23075000D02*
X19575000Y-23075000D01*
X19575000Y-24025000D02*
X19075000Y-24025000D01*
X19075000Y-24275000D02*
X19575000Y-24275000D01*
X19575000Y-25225000D02*
X19075000Y-25225000D01*
X27300000Y-26800000D02*
X27550000Y-27000000D01*
X27050000Y-27000000D02*
X27300000Y-26800000D01*
X26775000Y-27150000D02*
X26775000Y-26100000D01*
X27825000Y-27150000D02*
X27825000Y-26100000D01*
X27825000Y-21400000D02*
X27825000Y-21900000D01*
X26775000Y-21900000D02*
X26775000Y-21400000D01*
X19750000Y-22825000D02*
X19250000Y-22825000D01*
X19250000Y-21775000D02*
X19750000Y-21775000D01*
X19750000Y-21525000D02*
X19250000Y-21525000D01*
X19250000Y-20475000D02*
X19750000Y-20475000D01*
X20950000Y-20825000D02*
X20950000Y-21450000D01*
X26200000Y-26075000D02*
X26200000Y-25450000D01*
X20950000Y-26075000D02*
X20950000Y-25450000D01*
X26200000Y-20825000D02*
X25575000Y-20825000D01*
X26200000Y-26075000D02*
X25575000Y-26075000D01*
X20950000Y-26075000D02*
X21575000Y-26075000D01*
X20950000Y-20825000D02*
X21575000Y-20825000D01*
X17700000Y-26164286D02*
X17728571Y-26192857D01*
X17814285Y-26221429D01*
X17871428Y-26221429D01*
X17957143Y-26192857D01*
X18014285Y-26135714D01*
X18042857Y-26078571D01*
X18071428Y-25964286D01*
X18071428Y-25878571D01*
X18042857Y-25764286D01*
X18014285Y-25707143D01*
X17957143Y-25650000D01*
X17871428Y-25621429D01*
X17814285Y-25621429D01*
X17728571Y-25650000D01*
X17700000Y-25678571D01*
X17128571Y-26221429D02*
X17471428Y-26221429D01*
X17300000Y-26221429D02*
X17300000Y-25621429D01*
X17357143Y-25707143D01*
X17414285Y-25764286D01*
X17471428Y-25792857D01*
X17825000Y-23764286D02*
X17853571Y-23792857D01*
X17939285Y-23821429D01*
X17996428Y-23821429D01*
X18082143Y-23792857D01*
X18139285Y-23735714D01*
X18167857Y-23678571D01*
X18196428Y-23564286D01*
X18196428Y-23478571D01*
X18167857Y-23364286D01*
X18139285Y-23307143D01*
X18082143Y-23250000D01*
X17996428Y-23221429D01*
X17939285Y-23221429D01*
X17853571Y-23250000D01*
X17825000Y-23278571D01*
X17596428Y-23278571D02*
X17567857Y-23250000D01*
X17510714Y-23221429D01*
X17367857Y-23221429D01*
X17310714Y-23250000D01*
X17282143Y-23278571D01*
X17253571Y-23335714D01*
X17253571Y-23392857D01*
X17282143Y-23478571D01*
X17625000Y-23821429D01*
X17253571Y-23821429D01*
X17825000Y-24964286D02*
X17853571Y-24992857D01*
X17939285Y-25021429D01*
X17996428Y-25021429D01*
X18082143Y-24992857D01*
X18139285Y-24935714D01*
X18167857Y-24878571D01*
X18196428Y-24764286D01*
X18196428Y-24678571D01*
X18167857Y-24564286D01*
X18139285Y-24507143D01*
X18082143Y-24450000D01*
X17996428Y-24421429D01*
X17939285Y-24421429D01*
X17853571Y-24450000D01*
X17825000Y-24478571D01*
X17625000Y-24421429D02*
X17253571Y-24421429D01*
X17453571Y-24650000D01*
X17367857Y-24650000D01*
X17310714Y-24678571D01*
X17282143Y-24707143D01*
X17253571Y-24764286D01*
X17253571Y-24907143D01*
X17282143Y-24964286D01*
X17310714Y-24992857D01*
X17367857Y-25021429D01*
X17539285Y-25021429D01*
X17596428Y-24992857D01*
X17625000Y-24964286D01*
X18200000Y-22571429D02*
X18400000Y-22285714D01*
X18542857Y-22571429D02*
X18542857Y-21971429D01*
X18314285Y-21971429D01*
X18257143Y-22000000D01*
X18228571Y-22028571D01*
X18200000Y-22085714D01*
X18200000Y-22171429D01*
X18228571Y-22228571D01*
X18257143Y-22257143D01*
X18314285Y-22285714D01*
X18542857Y-22285714D01*
X18000000Y-21971429D02*
X17628571Y-21971429D01*
X17828571Y-22200000D01*
X17742857Y-22200000D01*
X17685714Y-22228571D01*
X17657143Y-22257143D01*
X17628571Y-22314286D01*
X17628571Y-22457143D01*
X17657143Y-22514286D01*
X17685714Y-22542857D01*
X17742857Y-22571429D01*
X17914285Y-22571429D01*
X17971428Y-22542857D01*
X18000000Y-22514286D01*
X18200000Y-21271429D02*
X18400000Y-20985714D01*
X18542857Y-21271429D02*
X18542857Y-20671429D01*
X18314285Y-20671429D01*
X18257143Y-20700000D01*
X18228571Y-20728571D01*
X18200000Y-20785714D01*
X18200000Y-20871429D01*
X18228571Y-20928571D01*
X18257143Y-20957143D01*
X18314285Y-20985714D01*
X18542857Y-20985714D01*
X17685714Y-20871429D02*
X17685714Y-21271429D01*
X17828571Y-20642857D02*
X17971428Y-21071429D01*
X17600000Y-21071429D01*
M02*
