*
%FSLAX26Y26*%
%MOIN*%
%ADD10C,0.005906*%
%ADD11C,0.015748*%
%IPPOS*%
%LNa.gbo*%
%LPD*%
%SRX1Y1I0J0*%
G01*
G75*
G54D10*
X-7677Y74562D02*
Y85811D01*
X3572Y86935D01*
X2447Y85811D01*
X1322Y83561D01*
Y77937D01*
X2447Y75687D01*
X3572Y74562D01*
X5821Y73437D01*
X11446D01*
X13695Y74562D01*
X14820Y75687D01*
X15945Y77937D01*
Y83561D01*
X14820Y85811D01*
X13695Y86935D01*
X-7677Y66688D02*
X15945Y58814D01*
X-7677Y50940D01*
X31356Y385811D02*
X33605Y386935D01*
X36980D01*
X40355Y385811D01*
X42604Y383561D01*
X43729Y381311D01*
X44854Y376812D01*
Y373437D01*
X43729Y368938D01*
X42604Y366688D01*
X40355Y364438D01*
X36980Y363313D01*
X34730D01*
X31356Y364438D01*
X30231Y365563D01*
Y373437D01*
X34730D01*
X357902Y391266D02*
X343279D01*
X351153Y382267D01*
X347779D01*
X345529Y381142D01*
X344404Y380018D01*
X343279Y377768D01*
Y372144D01*
X344404Y369894D01*
X345529Y368769D01*
X347779Y367644D01*
X354528D01*
X356777Y368769D01*
X357902Y369894D01*
X336530Y391266D02*
X328656Y367644D01*
X320782Y391266D01*
X357227Y63313D02*
X341479Y39691D01*
Y63313D02*
X357227Y39691D01*
G54D11*
X352897Y308645D03*
G54D10*
X241367Y367644D02*
Y391266D01*
X235743D01*
X232368Y390141D01*
X230118Y387892D01*
X228993Y385642D01*
X227869Y381142D01*
Y377768D01*
X228993Y373268D01*
X230118Y371019D01*
X232368Y368769D01*
X235743Y367644D01*
X241367D01*
X130624Y369894D02*
X131749Y368769D01*
X135124Y367644D01*
X137374D01*
X140748Y368769D01*
X142998Y371019D01*
X144123Y373268D01*
X145248Y377768D01*
Y381142D01*
X144123Y385642D01*
X142998Y387892D01*
X140748Y390141D01*
X137374Y391266D01*
X135124D01*
X131749Y390141D01*
X130624Y389016D01*
X283268Y63313D02*
X269769D01*
X276519Y39691D02*
Y63313D01*
X213695Y39691D02*
X221569Y50940D01*
X227194Y39691D02*
Y63313D01*
X218195D01*
X215945Y62188D01*
X214820Y61064D01*
X213695Y58814D01*
Y55439D01*
X214820Y53190D01*
X215945Y52065D01*
X218195Y50940D01*
X227194D01*
X135377Y319472D02*
Y294866D01*
X342070Y112779D02*
Y137385D01*
X135377Y112779D02*
Y137385D01*
X342070Y319472D02*
X317464D01*
X342070Y112779D02*
X317464D01*
X135377D02*
X159983D01*
X135377Y319472D02*
X159983D01*
X382424Y158055D02*
X402109D01*
Y116716D02*
X382424D01*
X396204Y353921D02*
X388330Y344078D01*
Y363763D02*
X396204Y353921D01*
X382424Y374590D02*
X423763D01*
X382424Y333251D02*
X423763D01*
X111755Y105889D02*
Y86204D01*
X74353D02*
Y105889D01*
X61558Y230889D02*
X81243D01*
Y193488D02*
X61558D01*
Y183645D02*
X81243D01*
Y146244D02*
X61558D01*
X396204Y86204D02*
X388330Y76362D01*
Y96047D02*
X396204Y86204D01*
X382424Y106874D02*
X423763D01*
X382424Y65535D02*
X423763D01*
X402109Y282070D02*
X382424D01*
Y323409D02*
X402109D01*
X88133Y240732D02*
X68448D01*
Y282070D02*
X88133D01*
Y291913D02*
X68448D01*
Y333251D02*
X88133D01*
X176013Y359376D02*
Y340254D01*
X174888Y338004D01*
X173763Y336879D01*
X171513Y335754D01*
X167014D01*
X164764Y336879D01*
X163639Y338004D01*
X162514Y340254D01*
Y359376D01*
X138892Y335754D02*
X152390D01*
X145641D02*
Y359376D01*
X147891Y356002D01*
X150141Y353752D01*
X152390Y352627D01*
X50141Y47453D02*
X51266Y46328D01*
X54640Y45203D01*
X56890D01*
X60264Y46328D01*
X62514Y48578D01*
X63639Y50827D01*
X64764Y55327D01*
Y58701D01*
X63639Y63201D01*
X62514Y65451D01*
X60264Y67700D01*
X56890Y68825D01*
X54640D01*
X51266Y67700D01*
X50141Y66575D01*
X27644Y45203D02*
X41142D01*
X34393D02*
Y68825D01*
X36642Y65451D01*
X38892Y63201D01*
X41142Y62076D01*
X16845Y220063D02*
X17970Y221187D01*
X19095Y224562D01*
Y226812D01*
X17970Y230186D01*
X15720Y232436D01*
X13470Y233561D01*
X8971Y234686D01*
X5596D01*
X1097Y233561D01*
X-1153Y232436D01*
X-3403Y230186D01*
X-4527Y226812D01*
Y224562D01*
X-3403Y221187D01*
X-2278Y220063D01*
Y211064D02*
X-3403Y209939D01*
X-4527Y207689D01*
Y202065D01*
X-3403Y199815D01*
X-2278Y198690D01*
X-28Y197565D01*
X2222D01*
X5596Y198690D01*
X19095Y212188D01*
Y197565D01*
X16845Y168881D02*
X17970Y170006D01*
X19095Y173381D01*
Y175631D01*
X17970Y179005D01*
X15720Y181255D01*
X13470Y182380D01*
X8971Y183505D01*
X5596D01*
X1097Y182380D01*
X-1153Y181255D01*
X-3403Y179005D01*
X-4527Y175631D01*
Y173381D01*
X-3403Y170006D01*
X-2278Y168881D01*
X-4527Y161007D02*
Y146384D01*
X4471Y154258D01*
Y150884D01*
X5596Y148634D01*
X6721Y147509D01*
X8971Y146384D01*
X14595D01*
X16845Y147509D01*
X17970Y148634D01*
X19095Y150884D01*
Y157633D01*
X17970Y159882D01*
X16845Y161007D01*
X34843Y265338D02*
X23594Y273212D01*
X34843Y278836D02*
X11221D01*
Y269838D01*
X12345Y267588D01*
X13470Y266463D01*
X15720Y265338D01*
X19095D01*
X21344Y266463D01*
X22469Y267588D01*
X23594Y269838D01*
Y278836D01*
X11221Y257464D02*
Y242841D01*
X20219Y250715D01*
Y247340D01*
X21344Y245091D01*
X22469Y243966D01*
X24719Y242841D01*
X30343D01*
X32593Y243966D01*
X33718Y245091D01*
X34843Y247340D01*
Y254089D01*
X33718Y256339D01*
X32593Y257464D01*
X34843Y316519D02*
X23594Y324393D01*
X34843Y330018D02*
X11221D01*
Y321019D01*
X12345Y318769D01*
X13470Y317644D01*
X15720Y316519D01*
X19095D01*
X21344Y317644D01*
X22469Y318769D01*
X23594Y321019D01*
Y330018D01*
X19095Y296272D02*
X34843D01*
X10096Y301896D02*
X26969Y307520D01*
Y292897D01*
X582874Y74562D02*
Y85811D01*
X594123Y86935D01*
X592998Y85811D01*
X591873Y83561D01*
Y77937D01*
X592998Y75687D01*
X594123Y74562D01*
X596372Y73437D01*
X601997D01*
X604246Y74562D01*
X605371Y75687D01*
X606496Y77937D01*
Y83561D01*
X605371Y85811D01*
X604246Y86935D01*
X582874Y66688D02*
X606496Y58814D01*
X582874Y50940D01*
X621907Y385811D02*
X624156Y386935D01*
X627531D01*
X630906Y385811D01*
X633155Y383561D01*
X634280Y381311D01*
X635405Y376812D01*
Y373437D01*
X634280Y368938D01*
X633155Y366688D01*
X630906Y364438D01*
X627531Y363313D01*
X625281D01*
X621907Y364438D01*
X620782Y365563D01*
Y373437D01*
X625281D01*
X948453Y391266D02*
X933830D01*
X941704Y382267D01*
X938330D01*
X936080Y381142D01*
X934955Y380018D01*
X933830Y377768D01*
Y372144D01*
X934955Y369894D01*
X936080Y368769D01*
X938330Y367644D01*
X945079D01*
X947328Y368769D01*
X948453Y369894D01*
X927081Y391266D02*
X919207Y367644D01*
X911333Y391266D01*
X947778Y63313D02*
X932030Y39691D01*
Y63313D02*
X947778Y39691D01*
G54D11*
X943448Y308645D03*
G54D10*
X831918Y367644D02*
Y391266D01*
X826294D01*
X822919Y390141D01*
X820669Y387892D01*
X819544Y385642D01*
X818419Y381142D01*
Y377768D01*
X819544Y373268D01*
X820669Y371019D01*
X822919Y368769D01*
X826294Y367644D01*
X831918D01*
X721175Y369894D02*
X722300Y368769D01*
X725675Y367644D01*
X727925D01*
X731299Y368769D01*
X733549Y371019D01*
X734674Y373268D01*
X735799Y377768D01*
Y381142D01*
X734674Y385642D01*
X733549Y387892D01*
X731299Y390141D01*
X727925Y391266D01*
X725675D01*
X722300Y390141D01*
X721175Y389016D01*
X873819Y63313D02*
X860320D01*
X867070Y39691D02*
Y63313D01*
X804246Y39691D02*
X812120Y50940D01*
X817745Y39691D02*
Y63313D01*
X808746D01*
X806496Y62188D01*
X805371Y61064D01*
X804246Y58814D01*
Y55439D01*
X805371Y53190D01*
X806496Y52065D01*
X808746Y50940D01*
X817745D01*
X725928Y319472D02*
Y294866D01*
X932621Y112779D02*
Y137385D01*
X725928Y112779D02*
Y137385D01*
X932621Y319472D02*
X908015D01*
X932621Y112779D02*
X908015D01*
X725928D02*
X750534D01*
X725928Y319472D02*
X750534D01*
X972975Y158055D02*
X992660D01*
Y116716D02*
X972975D01*
X986755Y353921D02*
X978881Y344078D01*
Y363763D02*
X986755Y353921D01*
X972975Y374590D02*
X1014314D01*
X972975Y333251D02*
X1014314D01*
X702306Y105889D02*
Y86204D01*
X664904D02*
Y105889D01*
X652109Y230889D02*
X671794D01*
Y193488D02*
X652109D01*
Y183645D02*
X671794D01*
Y146244D02*
X652109D01*
X986755Y86204D02*
X978881Y76362D01*
Y96047D02*
X986755Y86204D01*
X972975Y106874D02*
X1014314D01*
X972975Y65535D02*
X1014314D01*
X992660Y282070D02*
X972975D01*
Y323409D02*
X992660D01*
X678684Y240732D02*
X658999D01*
Y282070D02*
X678684D01*
Y291913D02*
X658999D01*
Y333251D02*
X678684D01*
X766563Y359376D02*
Y340254D01*
X765439Y338004D01*
X764314Y336879D01*
X762064Y335754D01*
X757565D01*
X755315Y336879D01*
X754190Y338004D01*
X753065Y340254D01*
Y359376D01*
X729443Y335754D02*
X742941D01*
X736192D02*
Y359376D01*
X738442Y356002D01*
X740692Y353752D01*
X742941Y352627D01*
X640692Y47453D02*
X641817Y46328D01*
X645191Y45203D01*
X647441D01*
X650815Y46328D01*
X653065Y48578D01*
X654190Y50827D01*
X655315Y55327D01*
Y58701D01*
X654190Y63201D01*
X653065Y65451D01*
X650815Y67700D01*
X647441Y68825D01*
X645191D01*
X641817Y67700D01*
X640692Y66575D01*
X618194Y45203D02*
X631693D01*
X624944D02*
Y68825D01*
X627193Y65451D01*
X629443Y63201D01*
X631693Y62076D01*
X607396Y220063D02*
X608521Y221187D01*
X609646Y224562D01*
Y226812D01*
X608521Y230186D01*
X606271Y232436D01*
X604021Y233561D01*
X599522Y234686D01*
X596147D01*
X591648Y233561D01*
X589398Y232436D01*
X587148Y230186D01*
X586024Y226812D01*
Y224562D01*
X587148Y221187D01*
X588273Y220063D01*
Y211064D02*
X587148Y209939D01*
X586024Y207689D01*
Y202065D01*
X587148Y199815D01*
X588273Y198690D01*
X590523Y197565D01*
X592773D01*
X596147Y198690D01*
X609646Y212188D01*
Y197565D01*
X607396Y168881D02*
X608521Y170006D01*
X609646Y173381D01*
Y175631D01*
X608521Y179005D01*
X606271Y181255D01*
X604021Y182380D01*
X599522Y183505D01*
X596147D01*
X591648Y182380D01*
X589398Y181255D01*
X587148Y179005D01*
X586024Y175631D01*
Y173381D01*
X587148Y170006D01*
X588273Y168881D01*
X586024Y161007D02*
Y146384D01*
X595022Y154258D01*
Y150884D01*
X596147Y148634D01*
X597272Y147509D01*
X599522Y146384D01*
X605146D01*
X607396Y147509D01*
X608521Y148634D01*
X609646Y150884D01*
Y157633D01*
X608521Y159882D01*
X607396Y161007D01*
X625394Y265338D02*
X614145Y273212D01*
X625394Y278836D02*
X601772D01*
Y269838D01*
X602896Y267588D01*
X604021Y266463D01*
X606271Y265338D01*
X609646D01*
X611895Y266463D01*
X613020Y267588D01*
X614145Y269838D01*
Y278836D01*
X601772Y257464D02*
Y242841D01*
X610770Y250715D01*
Y247340D01*
X611895Y245091D01*
X613020Y243966D01*
X615270Y242841D01*
X620894D01*
X623144Y243966D01*
X624269Y245091D01*
X625394Y247340D01*
Y254089D01*
X624269Y256339D01*
X623144Y257464D01*
X625394Y316519D02*
X614145Y324393D01*
X625394Y330018D02*
X601772D01*
Y321019D01*
X602896Y318769D01*
X604021Y317644D01*
X606271Y316519D01*
X609646D01*
X611895Y317644D01*
X613020Y318769D01*
X614145Y321019D01*
Y330018D01*
X609646Y296272D02*
X625394D01*
X600647Y301896D02*
X617520Y307520D01*
Y292897D01*
X1173425Y74562D02*
Y85811D01*
X1184674Y86935D01*
X1183549Y85811D01*
X1182424Y83561D01*
Y77937D01*
X1183549Y75687D01*
X1184674Y74562D01*
X1186923Y73437D01*
X1192548D01*
X1194797Y74562D01*
X1195922Y75687D01*
X1197047Y77937D01*
Y83561D01*
X1195922Y85811D01*
X1194797Y86935D01*
X1173425Y66688D02*
X1197047Y58814D01*
X1173425Y50940D01*
X1212458Y385811D02*
X1214707Y386935D01*
X1218082D01*
X1221457Y385811D01*
X1223706Y383561D01*
X1224831Y381311D01*
X1225956Y376812D01*
Y373437D01*
X1224831Y368938D01*
X1223706Y366688D01*
X1221457Y364438D01*
X1218082Y363313D01*
X1215832D01*
X1212458Y364438D01*
X1211333Y365563D01*
Y373437D01*
X1215832D01*
X1539004Y391266D02*
X1524381D01*
X1532255Y382267D01*
X1528881D01*
X1526631Y381142D01*
X1525506Y380018D01*
X1524381Y377768D01*
Y372144D01*
X1525506Y369894D01*
X1526631Y368769D01*
X1528881Y367644D01*
X1535630D01*
X1537879Y368769D01*
X1539004Y369894D01*
X1517632Y391266D02*
X1509758Y367644D01*
X1501884Y391266D01*
X1538329Y63313D02*
X1522581Y39691D01*
Y63313D02*
X1538329Y39691D01*
G54D11*
X1533999Y308645D03*
G54D10*
X1422469Y367644D02*
Y391266D01*
X1416845D01*
X1413470Y390141D01*
X1411220Y387892D01*
X1410095Y385642D01*
X1408971Y381142D01*
Y377768D01*
X1410095Y373268D01*
X1411220Y371019D01*
X1413470Y368769D01*
X1416845Y367644D01*
X1422469D01*
X1311726Y369894D02*
X1312851Y368769D01*
X1316226Y367644D01*
X1318476D01*
X1321850Y368769D01*
X1324100Y371019D01*
X1325225Y373268D01*
X1326350Y377768D01*
Y381142D01*
X1325225Y385642D01*
X1324100Y387892D01*
X1321850Y390141D01*
X1318476Y391266D01*
X1316226D01*
X1312851Y390141D01*
X1311726Y389016D01*
X1464370Y63313D02*
X1450872D01*
X1457621Y39691D02*
Y63313D01*
X1394797Y39691D02*
X1402671Y50940D01*
X1408296Y39691D02*
Y63313D01*
X1399297D01*
X1397047Y62188D01*
X1395922Y61064D01*
X1394797Y58814D01*
Y55439D01*
X1395922Y53190D01*
X1397047Y52065D01*
X1399297Y50940D01*
X1408296D01*
X1316479Y319472D02*
Y294866D01*
X1523172Y112779D02*
Y137385D01*
X1316479Y112779D02*
Y137385D01*
X1523172Y319472D02*
X1498566D01*
X1523172Y112779D02*
X1498566D01*
X1316479D02*
X1341085D01*
X1316479Y319472D02*
X1341085D01*
X1563526Y158055D02*
X1583211D01*
Y116716D02*
X1563526D01*
X1577306Y353921D02*
X1569432Y344078D01*
Y363763D02*
X1577306Y353921D01*
X1563526Y374590D02*
X1604865D01*
X1563526Y333251D02*
X1604865D01*
X1292857Y105889D02*
Y86204D01*
X1255455D02*
Y105889D01*
X1242660Y230889D02*
X1262345D01*
Y193488D02*
X1242660D01*
Y183645D02*
X1262345D01*
Y146244D02*
X1242660D01*
X1577306Y86204D02*
X1569432Y76362D01*
Y96047D02*
X1577306Y86204D01*
X1563526Y106874D02*
X1604865D01*
X1563526Y65535D02*
X1604865D01*
X1583211Y282070D02*
X1563526D01*
Y323409D02*
X1583211D01*
X1269235Y240732D02*
X1249550D01*
Y282070D02*
X1269235D01*
Y291913D02*
X1249550D01*
Y333251D02*
X1269235D01*
X1357115Y359376D02*
Y340254D01*
X1355990Y338004D01*
X1354865Y336879D01*
X1352615Y335754D01*
X1348116D01*
X1345866Y336879D01*
X1344741Y338004D01*
X1343616Y340254D01*
Y359376D01*
X1319994Y335754D02*
X1333493D01*
X1326743D02*
Y359376D01*
X1328993Y356002D01*
X1331243Y353752D01*
X1333493Y352627D01*
X1231243Y47453D02*
X1232368Y46328D01*
X1235742Y45203D01*
X1237992D01*
X1241367Y46328D01*
X1243616Y48578D01*
X1244741Y50827D01*
X1245866Y55327D01*
Y58701D01*
X1244741Y63201D01*
X1243616Y65451D01*
X1241367Y67700D01*
X1237992Y68825D01*
X1235742D01*
X1232368Y67700D01*
X1231243Y66575D01*
X1208746Y45203D02*
X1222244D01*
X1215495D02*
Y68825D01*
X1217744Y65451D01*
X1219994Y63201D01*
X1222244Y62076D01*
X1197947Y220063D02*
X1199072Y221187D01*
X1200197Y224562D01*
Y226812D01*
X1199072Y230186D01*
X1196822Y232436D01*
X1194572Y233561D01*
X1190073Y234686D01*
X1186698D01*
X1182199Y233561D01*
X1179949Y232436D01*
X1177700Y230186D01*
X1176575Y226812D01*
Y224562D01*
X1177700Y221187D01*
X1178824Y220063D01*
Y211064D02*
X1177700Y209939D01*
X1176575Y207689D01*
Y202065D01*
X1177700Y199815D01*
X1178824Y198690D01*
X1181074Y197565D01*
X1183324D01*
X1186698Y198690D01*
X1200197Y212188D01*
Y197565D01*
X1197947Y168881D02*
X1199072Y170006D01*
X1200197Y173381D01*
Y175631D01*
X1199072Y179005D01*
X1196822Y181255D01*
X1194572Y182380D01*
X1190073Y183505D01*
X1186698D01*
X1182199Y182380D01*
X1179949Y181255D01*
X1177700Y179005D01*
X1176575Y175631D01*
Y173381D01*
X1177700Y170006D01*
X1178824Y168881D01*
X1176575Y161007D02*
Y146384D01*
X1185574Y154258D01*
Y150884D01*
X1186698Y148634D01*
X1187823Y147509D01*
X1190073Y146384D01*
X1195697D01*
X1197947Y147509D01*
X1199072Y148634D01*
X1200197Y150884D01*
Y157633D01*
X1199072Y159882D01*
X1197947Y161007D01*
X1215945Y265338D02*
X1204696Y273212D01*
X1215945Y278836D02*
X1192323D01*
Y269838D01*
X1193448Y267588D01*
X1194572Y266463D01*
X1196822Y265338D01*
X1200197D01*
X1202446Y266463D01*
X1203571Y267588D01*
X1204696Y269838D01*
Y278836D01*
X1192323Y257464D02*
Y242841D01*
X1201322Y250715D01*
Y247340D01*
X1202446Y245091D01*
X1203571Y243966D01*
X1205821Y242841D01*
X1211445D01*
X1213695Y243966D01*
X1214820Y245091D01*
X1215945Y247340D01*
Y254089D01*
X1214820Y256339D01*
X1213695Y257464D01*
X1215945Y316519D02*
X1204696Y324393D01*
X1215945Y330018D02*
X1192323D01*
Y321019D01*
X1193448Y318769D01*
X1194572Y317644D01*
X1196822Y316519D01*
X1200197D01*
X1202446Y317644D01*
X1203571Y318769D01*
X1204696Y321019D01*
Y330018D01*
X1200197Y296272D02*
X1215945D01*
X1191198Y301896D02*
X1208071Y307520D01*
Y292897D01*
X1763976Y74562D02*
Y85811D01*
X1775225Y86935D01*
X1774100Y85811D01*
X1772975Y83561D01*
Y77937D01*
X1774100Y75687D01*
X1775225Y74562D01*
X1777474Y73437D01*
X1783099D01*
X1785348Y74562D01*
X1786473Y75687D01*
X1787598Y77937D01*
Y83561D01*
X1786473Y85811D01*
X1785348Y86935D01*
X1763976Y66688D02*
X1787598Y58814D01*
X1763976Y50940D01*
X1803009Y385811D02*
X1805258Y386935D01*
X1808633D01*
X1812008Y385811D01*
X1814257Y383561D01*
X1815382Y381311D01*
X1816507Y376812D01*
Y373437D01*
X1815382Y368938D01*
X1814257Y366688D01*
X1812008Y364438D01*
X1808633Y363313D01*
X1806383D01*
X1803009Y364438D01*
X1801884Y365563D01*
Y373437D01*
X1806383D01*
X2129555Y391266D02*
X2114932D01*
X2122806Y382267D01*
X2119432D01*
X2117182Y381142D01*
X2116057Y380018D01*
X2114932Y377768D01*
Y372144D01*
X2116057Y369894D01*
X2117182Y368769D01*
X2119432Y367644D01*
X2126181D01*
X2128430Y368769D01*
X2129555Y369894D01*
X2108183Y391266D02*
X2100309Y367644D01*
X2092435Y391266D01*
X2128880Y63313D02*
X2113132Y39691D01*
Y63313D02*
X2128880Y39691D01*
G54D11*
X2124550Y308645D03*
G54D10*
X2013020Y367644D02*
Y391266D01*
X2007396D01*
X2004021Y390141D01*
X2001771Y387892D01*
X2000646Y385642D01*
X1999522Y381142D01*
Y377768D01*
X2000646Y373268D01*
X2001771Y371019D01*
X2004021Y368769D01*
X2007396Y367644D01*
X2013020D01*
X1902277Y369894D02*
X1903402Y368769D01*
X1906777Y367644D01*
X1909027D01*
X1912401Y368769D01*
X1914651Y371019D01*
X1915776Y373268D01*
X1916901Y377768D01*
Y381142D01*
X1915776Y385642D01*
X1914651Y387892D01*
X1912401Y390141D01*
X1909027Y391266D01*
X1906777D01*
X1903402Y390141D01*
X1902277Y389016D01*
X2054921Y63313D02*
X2041423D01*
X2048172Y39691D02*
Y63313D01*
X1985348Y39691D02*
X1993222Y50940D01*
X1998847Y39691D02*
Y63313D01*
X1989848D01*
X1987598Y62188D01*
X1986473Y61064D01*
X1985348Y58814D01*
Y55439D01*
X1986473Y53190D01*
X1987598Y52065D01*
X1989848Y50940D01*
X1998847D01*
X1907030Y319472D02*
Y294866D01*
X2113723Y112779D02*
Y137385D01*
X1907030Y112779D02*
Y137385D01*
X2113723Y319472D02*
X2089117D01*
X2113723Y112779D02*
X2089117D01*
X1907030D02*
X1931636D01*
X1907030Y319472D02*
X1931636D01*
X2154077Y158055D02*
X2173762D01*
Y116716D02*
X2154077D01*
X2167857Y353921D02*
X2159983Y344078D01*
Y363763D02*
X2167857Y353921D01*
X2154077Y374590D02*
X2195416D01*
X2154077Y333251D02*
X2195416D01*
X1883408Y105889D02*
Y86204D01*
X1846006D02*
Y105889D01*
X1833211Y230889D02*
X1852896D01*
Y193488D02*
X1833211D01*
Y183645D02*
X1852896D01*
Y146244D02*
X1833211D01*
X2167857Y86204D02*
X2159983Y76362D01*
Y96047D02*
X2167857Y86204D01*
X2154077Y106874D02*
X2195416D01*
X2154077Y65535D02*
X2195416D01*
X2173762Y282070D02*
X2154077D01*
Y323409D02*
X2173762D01*
X1859786Y240732D02*
X1840101D01*
Y282070D02*
X1859786D01*
Y291913D02*
X1840101D01*
Y333251D02*
X1859786D01*
X1947666Y359376D02*
Y340254D01*
X1946541Y338004D01*
X1945416Y336879D01*
X1943166Y335754D01*
X1938667D01*
X1936417Y336879D01*
X1935292Y338004D01*
X1934167Y340254D01*
Y359376D01*
X1910545Y335754D02*
X1924044D01*
X1917294D02*
Y359376D01*
X1919544Y356002D01*
X1921794Y353752D01*
X1924044Y352627D01*
X1821794Y47453D02*
X1822919Y46328D01*
X1826293Y45203D01*
X1828543D01*
X1831918Y46328D01*
X1834167Y48578D01*
X1835292Y50827D01*
X1836417Y55327D01*
Y58701D01*
X1835292Y63201D01*
X1834167Y65451D01*
X1831918Y67700D01*
X1828543Y68825D01*
X1826293D01*
X1822919Y67700D01*
X1821794Y66575D01*
X1799297Y45203D02*
X1812795D01*
X1806046D02*
Y68825D01*
X1808295Y65451D01*
X1810545Y63201D01*
X1812795Y62076D01*
X1788498Y220063D02*
X1789623Y221187D01*
X1790748Y224562D01*
Y226812D01*
X1789623Y230186D01*
X1787373Y232436D01*
X1785123Y233561D01*
X1780624Y234686D01*
X1777249D01*
X1772750Y233561D01*
X1770500Y232436D01*
X1768250Y230186D01*
X1767126Y226812D01*
Y224562D01*
X1768250Y221187D01*
X1769375Y220063D01*
Y211064D02*
X1768250Y209939D01*
X1767126Y207689D01*
Y202065D01*
X1768250Y199815D01*
X1769375Y198690D01*
X1771625Y197565D01*
X1773875D01*
X1777249Y198690D01*
X1790748Y212188D01*
Y197565D01*
X1788498Y168881D02*
X1789623Y170006D01*
X1790748Y173381D01*
Y175631D01*
X1789623Y179005D01*
X1787373Y181255D01*
X1785123Y182380D01*
X1780624Y183505D01*
X1777249D01*
X1772750Y182380D01*
X1770500Y181255D01*
X1768250Y179005D01*
X1767126Y175631D01*
Y173381D01*
X1768250Y170006D01*
X1769375Y168881D01*
X1767126Y161007D02*
Y146384D01*
X1776125Y154258D01*
Y150884D01*
X1777249Y148634D01*
X1778374Y147509D01*
X1780624Y146384D01*
X1786248D01*
X1788498Y147509D01*
X1789623Y148634D01*
X1790748Y150884D01*
Y157633D01*
X1789623Y159882D01*
X1788498Y161007D01*
X1806496Y265338D02*
X1795247Y273212D01*
X1806496Y278836D02*
X1782874D01*
Y269838D01*
X1783999Y267588D01*
X1785123Y266463D01*
X1787373Y265338D01*
X1790748D01*
X1792997Y266463D01*
X1794122Y267588D01*
X1795247Y269838D01*
Y278836D01*
X1782874Y257464D02*
Y242841D01*
X1791873Y250715D01*
Y247340D01*
X1792997Y245091D01*
X1794122Y243966D01*
X1796372Y242841D01*
X1801996D01*
X1804246Y243966D01*
X1805371Y245091D01*
X1806496Y247340D01*
Y254089D01*
X1805371Y256339D01*
X1804246Y257464D01*
X1806496Y316519D02*
X1795247Y324393D01*
X1806496Y330018D02*
X1782874D01*
Y321019D01*
X1783999Y318769D01*
X1785123Y317644D01*
X1787373Y316519D01*
X1790748D01*
X1792997Y317644D01*
X1794122Y318769D01*
X1795247Y321019D01*
Y330018D01*
X1790748Y296272D02*
X1806496D01*
X1781749Y301896D02*
X1798622Y307520D01*
Y292897D01*
X2354527Y74562D02*
Y85811D01*
X2365776Y86935D01*
X2364651Y85811D01*
X2363526Y83561D01*
Y77937D01*
X2364651Y75687D01*
X2365776Y74562D01*
X2368025Y73437D01*
X2373650D01*
X2375899Y74562D01*
X2377024Y75687D01*
X2378149Y77937D01*
Y83561D01*
X2377024Y85811D01*
X2375899Y86935D01*
X2354527Y66688D02*
X2378149Y58814D01*
X2354527Y50940D01*
X2393560Y385811D02*
X2395809Y386935D01*
X2399184D01*
X2402559Y385811D01*
X2404808Y383561D01*
X2405933Y381311D01*
X2407058Y376812D01*
Y373437D01*
X2405933Y368938D01*
X2404808Y366688D01*
X2402559Y364438D01*
X2399184Y363313D01*
X2396934D01*
X2393560Y364438D01*
X2392435Y365563D01*
Y373437D01*
X2396934D01*
X2720106Y391266D02*
X2705483D01*
X2713357Y382267D01*
X2709983D01*
X2707733Y381142D01*
X2706608Y380018D01*
X2705483Y377768D01*
Y372144D01*
X2706608Y369894D01*
X2707733Y368769D01*
X2709983Y367644D01*
X2716732D01*
X2718981Y368769D01*
X2720106Y369894D01*
X2698734Y391266D02*
X2690860Y367644D01*
X2682986Y391266D01*
X2719431Y63313D02*
X2703683Y39691D01*
Y63313D02*
X2719431Y39691D01*
G54D11*
X2715101Y308645D03*
G54D10*
X2603571Y367644D02*
Y391266D01*
X2597947D01*
X2594572Y390141D01*
X2592322Y387892D01*
X2591197Y385642D01*
X2590073Y381142D01*
Y377768D01*
X2591197Y373268D01*
X2592322Y371019D01*
X2594572Y368769D01*
X2597947Y367644D01*
X2603571D01*
X2492828Y369894D02*
X2493953Y368769D01*
X2497328Y367644D01*
X2499578D01*
X2502952Y368769D01*
X2505202Y371019D01*
X2506327Y373268D01*
X2507452Y377768D01*
Y381142D01*
X2506327Y385642D01*
X2505202Y387892D01*
X2502952Y390141D01*
X2499578Y391266D01*
X2497328D01*
X2493953Y390141D01*
X2492828Y389016D01*
X2645472Y63313D02*
X2631974D01*
X2638723Y39691D02*
Y63313D01*
X2575899Y39691D02*
X2583773Y50940D01*
X2589398Y39691D02*
Y63313D01*
X2580399D01*
X2578149Y62188D01*
X2577024Y61064D01*
X2575899Y58814D01*
Y55439D01*
X2577024Y53190D01*
X2578149Y52065D01*
X2580399Y50940D01*
X2589398D01*
X2497581Y319472D02*
Y294866D01*
X2704274Y112779D02*
Y137385D01*
X2497581Y112779D02*
Y137385D01*
X2704274Y319472D02*
X2679668D01*
X2704274Y112779D02*
X2679668D01*
X2497581D02*
X2522187D01*
X2497581Y319472D02*
X2522187D01*
X2744628Y158055D02*
X2764313D01*
Y116716D02*
X2744628D01*
X2758408Y353921D02*
X2750534Y344078D01*
Y363763D02*
X2758408Y353921D01*
X2744628Y374590D02*
X2785967D01*
X2744628Y333251D02*
X2785967D01*
X2473959Y105889D02*
Y86204D01*
X2436557D02*
Y105889D01*
X2423762Y230889D02*
X2443447D01*
Y193488D02*
X2423762D01*
Y183645D02*
X2443447D01*
Y146244D02*
X2423762D01*
X2758408Y86204D02*
X2750534Y76362D01*
Y96047D02*
X2758408Y86204D01*
X2744628Y106874D02*
X2785967D01*
X2744628Y65535D02*
X2785967D01*
X2764313Y282070D02*
X2744628D01*
Y323409D02*
X2764313D01*
X2450337Y240732D02*
X2430652D01*
Y282070D02*
X2450337D01*
Y291913D02*
X2430652D01*
Y333251D02*
X2450337D01*
X2538217Y359376D02*
Y340254D01*
X2537092Y338004D01*
X2535967Y336879D01*
X2533717Y335754D01*
X2529218D01*
X2526968Y336879D01*
X2525843Y338004D01*
X2524718Y340254D01*
Y359376D01*
X2501096Y335754D02*
X2514594D01*
X2507845D02*
Y359376D01*
X2510095Y356002D01*
X2512345Y353752D01*
X2514594Y352627D01*
X2412345Y47453D02*
X2413470Y46328D01*
X2416844Y45203D01*
X2419094D01*
X2422469Y46328D01*
X2424718Y48578D01*
X2425843Y50827D01*
X2426968Y55327D01*
Y58701D01*
X2425843Y63201D01*
X2424718Y65451D01*
X2422469Y67700D01*
X2419094Y68825D01*
X2416844D01*
X2413470Y67700D01*
X2412345Y66575D01*
X2389848Y45203D02*
X2403346D01*
X2396597D02*
Y68825D01*
X2398846Y65451D01*
X2401096Y63201D01*
X2403346Y62076D01*
X2379049Y220063D02*
X2380174Y221187D01*
X2381299Y224562D01*
Y226812D01*
X2380174Y230186D01*
X2377924Y232436D01*
X2375674Y233561D01*
X2371175Y234686D01*
X2367800D01*
X2363301Y233561D01*
X2361051Y232436D01*
X2358801Y230186D01*
X2357677Y226812D01*
Y224562D01*
X2358801Y221187D01*
X2359926Y220063D01*
Y211064D02*
X2358801Y209939D01*
X2357677Y207689D01*
Y202065D01*
X2358801Y199815D01*
X2359926Y198690D01*
X2362176Y197565D01*
X2364426D01*
X2367800Y198690D01*
X2381299Y212188D01*
Y197565D01*
X2379049Y168881D02*
X2380174Y170006D01*
X2381299Y173381D01*
Y175631D01*
X2380174Y179005D01*
X2377924Y181255D01*
X2375674Y182380D01*
X2371175Y183505D01*
X2367800D01*
X2363301Y182380D01*
X2361051Y181255D01*
X2358801Y179005D01*
X2357677Y175631D01*
Y173381D01*
X2358801Y170006D01*
X2359926Y168881D01*
X2357677Y161007D02*
Y146384D01*
X2366675Y154258D01*
Y150884D01*
X2367800Y148634D01*
X2368925Y147509D01*
X2371175Y146384D01*
X2376799D01*
X2379049Y147509D01*
X2380174Y148634D01*
X2381299Y150884D01*
Y157633D01*
X2380174Y159882D01*
X2379049Y161007D01*
X2397047Y265338D02*
X2385798Y273212D01*
X2397047Y278836D02*
X2373425D01*
Y269838D01*
X2374550Y267588D01*
X2375674Y266463D01*
X2377924Y265338D01*
X2381299D01*
X2383548Y266463D01*
X2384673Y267588D01*
X2385798Y269838D01*
Y278836D01*
X2373425Y257464D02*
Y242841D01*
X2382424Y250715D01*
Y247340D01*
X2383548Y245091D01*
X2384673Y243966D01*
X2386923Y242841D01*
X2392547D01*
X2394797Y243966D01*
X2395922Y245091D01*
X2397047Y247340D01*
Y254089D01*
X2395922Y256339D01*
X2394797Y257464D01*
X2397047Y316519D02*
X2385798Y324393D01*
X2397047Y330018D02*
X2373425D01*
Y321019D01*
X2374550Y318769D01*
X2375674Y317644D01*
X2377924Y316519D01*
X2381299D01*
X2383548Y317644D01*
X2384673Y318769D01*
X2385798Y321019D01*
Y330018D01*
X2381299Y296272D02*
X2397047D01*
X2372300Y301896D02*
X2389173Y307520D01*
Y292897D01*
X-8168Y581602D02*
Y592851D01*
X3081Y593975D01*
X1956Y592851D01*
X831Y590601D01*
Y584977D01*
X1956Y582727D01*
X3081Y581602D01*
X5330Y580477D01*
X10955D01*
X13204Y581602D01*
X14329Y582727D01*
X15454Y584977D01*
Y590601D01*
X14329Y592851D01*
X13204Y593975D01*
X-8168Y573728D02*
X15454Y565854D01*
X-8168Y557980D01*
X30865Y892851D02*
X33114Y893975D01*
X36489D01*
X39863Y892851D01*
X42113Y890601D01*
X43238Y888351D01*
X44363Y883852D01*
Y880477D01*
X43238Y875978D01*
X42113Y873728D01*
X39863Y871478D01*
X36489Y870353D01*
X34239D01*
X30865Y871478D01*
X29740Y872603D01*
Y880477D01*
X34239D01*
X357411Y898306D02*
X342788D01*
X350662Y889307D01*
X347288D01*
X345038Y888182D01*
X343913Y887058D01*
X342788Y884808D01*
Y879184D01*
X343913Y876934D01*
X345038Y875809D01*
X347288Y874684D01*
X354037D01*
X356286Y875809D01*
X357411Y876934D01*
X336039Y898306D02*
X328165Y874684D01*
X320291Y898306D01*
X356736Y570353D02*
X340988Y546731D01*
Y570353D02*
X356736Y546731D01*
G54D11*
X352406Y815685D03*
G54D10*
X240876Y874684D02*
Y898306D01*
X235251D01*
X231877Y897181D01*
X229627Y894932D01*
X228502Y892682D01*
X227377Y888182D01*
Y884808D01*
X228502Y880308D01*
X229627Y878059D01*
X231877Y875809D01*
X235251Y874684D01*
X240876D01*
X130133Y876934D02*
X131258Y875809D01*
X134633Y874684D01*
X136883D01*
X140257Y875809D01*
X142507Y878059D01*
X143632Y880308D01*
X144757Y884808D01*
Y888182D01*
X143632Y892682D01*
X142507Y894932D01*
X140257Y897181D01*
X136883Y898306D01*
X134633D01*
X131258Y897181D01*
X130133Y896056D01*
X282777Y570353D02*
X269278D01*
X276028Y546731D02*
Y570353D01*
X213204Y546731D02*
X221078Y557980D01*
X226703Y546731D02*
Y570353D01*
X217704D01*
X215454Y569229D01*
X214329Y568104D01*
X213204Y565854D01*
Y562479D01*
X214329Y560230D01*
X215454Y559105D01*
X217704Y557980D01*
X226703D01*
X134886Y826512D02*
Y801906D01*
X341579Y619819D02*
Y644425D01*
X134886Y619819D02*
Y644425D01*
X341579Y826512D02*
X316973D01*
X341579Y619819D02*
X316973D01*
X134886D02*
X159492D01*
X134886Y826512D02*
X159492D01*
X381933Y665095D02*
X401618D01*
Y623756D02*
X381933D01*
X395713Y860961D02*
X387839Y851118D01*
Y870803D02*
X395713Y860961D01*
X381933Y881630D02*
X423272D01*
X381933Y840292D02*
X423272D01*
X111264Y612929D02*
Y593244D01*
X73862D02*
Y612929D01*
X61067Y737929D02*
X80752D01*
Y700528D02*
X61067D01*
Y690685D02*
X80752D01*
Y653284D02*
X61067D01*
X395713Y593244D02*
X387839Y583402D01*
Y603087D02*
X395713Y593244D01*
X381933Y613914D02*
X423272D01*
X381933Y572575D02*
X423272D01*
X401618Y789110D02*
X381933D01*
Y830449D02*
X401618D01*
X87642Y747772D02*
X67957D01*
Y789110D02*
X87642D01*
Y798953D02*
X67957D01*
Y840292D02*
X87642D01*
X175521Y866416D02*
Y847294D01*
X174397Y845044D01*
X173272Y843919D01*
X171022Y842794D01*
X166523D01*
X164273Y843919D01*
X163148Y845044D01*
X162023Y847294D01*
Y866416D01*
X138401Y842794D02*
X151899D01*
X145150D02*
Y866416D01*
X147400Y863042D01*
X149650Y860792D01*
X151899Y859667D01*
X49650Y554493D02*
X50775Y553368D01*
X54149Y552243D01*
X56399D01*
X59773Y553368D01*
X62023Y555618D01*
X63148Y557868D01*
X64273Y562367D01*
Y565742D01*
X63148Y570241D01*
X62023Y572491D01*
X59773Y574740D01*
X56399Y575865D01*
X54149D01*
X50775Y574740D01*
X49650Y573616D01*
X27152Y552243D02*
X40651D01*
X33902D02*
Y575865D01*
X36151Y572491D01*
X38401Y570241D01*
X40651Y569116D01*
X16354Y727103D02*
X17479Y728227D01*
X18604Y731602D01*
Y733852D01*
X17479Y737226D01*
X15229Y739476D01*
X12979Y740601D01*
X8480Y741726D01*
X5105D01*
X606Y740601D01*
X-1644Y739476D01*
X-3894Y737226D01*
X-5018Y733852D01*
Y731602D01*
X-3894Y728227D01*
X-2769Y727103D01*
Y718104D02*
X-3894Y716979D01*
X-5018Y714729D01*
Y709105D01*
X-3894Y706855D01*
X-2769Y705730D01*
X-519Y704605D01*
X1731D01*
X5105Y705730D01*
X18604Y719229D01*
Y704605D01*
X16354Y675921D02*
X17479Y677046D01*
X18604Y680421D01*
Y682671D01*
X17479Y686045D01*
X15229Y688295D01*
X12979Y689420D01*
X8480Y690545D01*
X5105D01*
X606Y689420D01*
X-1644Y688295D01*
X-3894Y686045D01*
X-5018Y682671D01*
Y680421D01*
X-3894Y677046D01*
X-2769Y675921D01*
X-5018Y668047D02*
Y653424D01*
X3980Y661298D01*
Y657924D01*
X5105Y655674D01*
X6230Y654549D01*
X8480Y653424D01*
X14104D01*
X16354Y654549D01*
X17479Y655674D01*
X18604Y657924D01*
Y664673D01*
X17479Y666923D01*
X16354Y668047D01*
X34352Y772378D02*
X23103Y780252D01*
X34352Y785876D02*
X10730D01*
Y776878D01*
X11854Y774628D01*
X12979Y773503D01*
X15229Y772378D01*
X18604D01*
X20853Y773503D01*
X21978Y774628D01*
X23103Y776878D01*
Y785876D01*
X10730Y764504D02*
Y749881D01*
X19728Y757755D01*
Y754380D01*
X20853Y752131D01*
X21978Y751006D01*
X24228Y749881D01*
X29852D01*
X32102Y751006D01*
X33227Y752131D01*
X34352Y754380D01*
Y761130D01*
X33227Y763379D01*
X32102Y764504D01*
X34352Y823559D02*
X23103Y831433D01*
X34352Y837058D02*
X10730D01*
Y828059D01*
X11854Y825809D01*
X12979Y824684D01*
X15229Y823559D01*
X18604D01*
X20853Y824684D01*
X21978Y825809D01*
X23103Y828059D01*
Y837058D01*
X18604Y803312D02*
X34352D01*
X9605Y808936D02*
X26478Y814560D01*
Y799937D01*
X582383Y581602D02*
Y592851D01*
X593631Y593975D01*
X592507Y592851D01*
X591382Y590601D01*
Y584977D01*
X592507Y582727D01*
X593631Y581602D01*
X595881Y580477D01*
X601506D01*
X603755Y581602D01*
X604880Y582727D01*
X606005Y584977D01*
Y590601D01*
X604880Y592851D01*
X603755Y593975D01*
X582383Y573728D02*
X606005Y565854D01*
X582383Y557980D01*
X621416Y892851D02*
X623665Y893975D01*
X627040D01*
X630414Y892851D01*
X632664Y890601D01*
X633789Y888351D01*
X634914Y883852D01*
Y880477D01*
X633789Y875978D01*
X632664Y873728D01*
X630414Y871478D01*
X627040Y870353D01*
X624790D01*
X621416Y871478D01*
X620291Y872603D01*
Y880477D01*
X624790D01*
X947962Y898306D02*
X933339D01*
X941213Y889307D01*
X937838D01*
X935589Y888182D01*
X934464Y887058D01*
X933339Y884808D01*
Y879184D01*
X934464Y876934D01*
X935589Y875809D01*
X937838Y874684D01*
X944588D01*
X946837Y875809D01*
X947962Y876934D01*
X926590Y898306D02*
X918716Y874684D01*
X910842Y898306D01*
X947287Y570353D02*
X931539Y546731D01*
Y570353D02*
X947287Y546731D01*
G54D11*
X942957Y815685D03*
G54D10*
X831427Y874684D02*
Y898306D01*
X825802D01*
X822428Y897181D01*
X820178Y894932D01*
X819053Y892682D01*
X817928Y888182D01*
Y884808D01*
X819053Y880308D01*
X820178Y878059D01*
X822428Y875809D01*
X825802Y874684D01*
X831427D01*
X720684Y876934D02*
X721809Y875809D01*
X725184Y874684D01*
X727434D01*
X730808Y875809D01*
X733058Y878059D01*
X734183Y880308D01*
X735308Y884808D01*
Y888182D01*
X734183Y892682D01*
X733058Y894932D01*
X730808Y897181D01*
X727434Y898306D01*
X725184D01*
X721809Y897181D01*
X720684Y896056D01*
X873328Y570353D02*
X859829D01*
X866579Y546731D02*
Y570353D01*
X803755Y546731D02*
X811629Y557980D01*
X817254Y546731D02*
Y570353D01*
X808255D01*
X806005Y569229D01*
X804880Y568104D01*
X803755Y565854D01*
Y562479D01*
X804880Y560230D01*
X806005Y559105D01*
X808255Y557980D01*
X817254D01*
X725437Y826512D02*
Y801906D01*
X932130Y619819D02*
Y644425D01*
X725437Y619819D02*
Y644425D01*
X932130Y826512D02*
X907524D01*
X932130Y619819D02*
X907524D01*
X725437D02*
X750043D01*
X725437Y826512D02*
X750043D01*
X972484Y665095D02*
X992169D01*
Y623756D02*
X972484D01*
X986264Y860961D02*
X978390Y851118D01*
Y870803D02*
X986264Y860961D01*
X972484Y881630D02*
X1013823D01*
X972484Y840292D02*
X1013823D01*
X701815Y612929D02*
Y593244D01*
X664413D02*
Y612929D01*
X651618Y737929D02*
X671303D01*
Y700528D02*
X651618D01*
Y690685D02*
X671303D01*
Y653284D02*
X651618D01*
X986264Y593244D02*
X978390Y583402D01*
Y603087D02*
X986264Y593244D01*
X972484Y613914D02*
X1013823D01*
X972484Y572575D02*
X1013823D01*
X992169Y789110D02*
X972484D01*
Y830449D02*
X992169D01*
X678193Y747772D02*
X658508D01*
Y789110D02*
X678193D01*
Y798953D02*
X658508D01*
Y840292D02*
X678193D01*
X766072Y866416D02*
Y847294D01*
X764948Y845044D01*
X763823Y843919D01*
X761573Y842794D01*
X757074D01*
X754824Y843919D01*
X753699Y845044D01*
X752574Y847294D01*
Y866416D01*
X728952Y842794D02*
X742450D01*
X735701D02*
Y866416D01*
X737951Y863042D01*
X740201Y860792D01*
X742450Y859667D01*
X640201Y554493D02*
X641325Y553368D01*
X644700Y552243D01*
X646950D01*
X650324Y553368D01*
X652574Y555618D01*
X653699Y557868D01*
X654824Y562367D01*
Y565742D01*
X653699Y570241D01*
X652574Y572491D01*
X650324Y574740D01*
X646950Y575865D01*
X644700D01*
X641325Y574740D01*
X640201Y573616D01*
X617703Y552243D02*
X631202D01*
X624453D02*
Y575865D01*
X626702Y572491D01*
X628952Y570241D01*
X631202Y569116D01*
X606905Y727103D02*
X608030Y728227D01*
X609155Y731602D01*
Y733852D01*
X608030Y737226D01*
X605780Y739476D01*
X603530Y740601D01*
X599031Y741726D01*
X595656D01*
X591157Y740601D01*
X588907Y739476D01*
X586657Y737226D01*
X585533Y733852D01*
Y731602D01*
X586657Y728227D01*
X587782Y727103D01*
Y718104D02*
X586657Y716979D01*
X585533Y714729D01*
Y709105D01*
X586657Y706855D01*
X587782Y705730D01*
X590032Y704605D01*
X592282D01*
X595656Y705730D01*
X609155Y719229D01*
Y704605D01*
X606905Y675921D02*
X608030Y677046D01*
X609155Y680421D01*
Y682671D01*
X608030Y686045D01*
X605780Y688295D01*
X603530Y689420D01*
X599031Y690545D01*
X595656D01*
X591157Y689420D01*
X588907Y688295D01*
X586657Y686045D01*
X585533Y682671D01*
Y680421D01*
X586657Y677046D01*
X587782Y675921D01*
X585533Y668047D02*
Y653424D01*
X594531Y661298D01*
Y657924D01*
X595656Y655674D01*
X596781Y654549D01*
X599031Y653424D01*
X604655D01*
X606905Y654549D01*
X608030Y655674D01*
X609155Y657924D01*
Y664673D01*
X608030Y666923D01*
X606905Y668047D01*
X624903Y772378D02*
X613654Y780252D01*
X624903Y785876D02*
X601281D01*
Y776878D01*
X602405Y774628D01*
X603530Y773503D01*
X605780Y772378D01*
X609155D01*
X611404Y773503D01*
X612529Y774628D01*
X613654Y776878D01*
Y785876D01*
X601281Y764504D02*
Y749881D01*
X610279Y757755D01*
Y754380D01*
X611404Y752131D01*
X612529Y751006D01*
X614779Y749881D01*
X620403D01*
X622653Y751006D01*
X623778Y752131D01*
X624903Y754380D01*
Y761130D01*
X623778Y763379D01*
X622653Y764504D01*
X624903Y823559D02*
X613654Y831433D01*
X624903Y837058D02*
X601281D01*
Y828059D01*
X602405Y825809D01*
X603530Y824684D01*
X605780Y823559D01*
X609155D01*
X611404Y824684D01*
X612529Y825809D01*
X613654Y828059D01*
Y837058D01*
X609155Y803312D02*
X624903D01*
X600156Y808936D02*
X617029Y814560D01*
Y799937D01*
X1172934Y581602D02*
Y592851D01*
X1184183Y593975D01*
X1183058Y592851D01*
X1181933Y590601D01*
Y584977D01*
X1183058Y582727D01*
X1184183Y581602D01*
X1186432Y580477D01*
X1192057D01*
X1194306Y581602D01*
X1195431Y582727D01*
X1196556Y584977D01*
Y590601D01*
X1195431Y592851D01*
X1194306Y593975D01*
X1172934Y573728D02*
X1196556Y565854D01*
X1172934Y557980D01*
X1211967Y892851D02*
X1214216Y893975D01*
X1217591D01*
X1220966Y892851D01*
X1223215Y890601D01*
X1224340Y888351D01*
X1225465Y883852D01*
Y880477D01*
X1224340Y875978D01*
X1223215Y873728D01*
X1220966Y871478D01*
X1217591Y870353D01*
X1215341D01*
X1211967Y871478D01*
X1210842Y872603D01*
Y880477D01*
X1215341D01*
X1538513Y898306D02*
X1523890D01*
X1531764Y889307D01*
X1528390D01*
X1526140Y888182D01*
X1525015Y887058D01*
X1523890Y884808D01*
Y879184D01*
X1525015Y876934D01*
X1526140Y875809D01*
X1528390Y874684D01*
X1535139D01*
X1537388Y875809D01*
X1538513Y876934D01*
X1517141Y898306D02*
X1509267Y874684D01*
X1501393Y898306D01*
X1537838Y570353D02*
X1522090Y546731D01*
Y570353D02*
X1537838Y546731D01*
G54D11*
X1533508Y815685D03*
G54D10*
X1421978Y874684D02*
Y898306D01*
X1416354D01*
X1412979Y897181D01*
X1410729Y894932D01*
X1409604Y892682D01*
X1408480Y888182D01*
Y884808D01*
X1409604Y880308D01*
X1410729Y878059D01*
X1412979Y875809D01*
X1416354Y874684D01*
X1421978D01*
X1311235Y876934D02*
X1312360Y875809D01*
X1315735Y874684D01*
X1317985D01*
X1321359Y875809D01*
X1323609Y878059D01*
X1324734Y880308D01*
X1325859Y884808D01*
Y888182D01*
X1324734Y892682D01*
X1323609Y894932D01*
X1321359Y897181D01*
X1317985Y898306D01*
X1315735D01*
X1312360Y897181D01*
X1311235Y896056D01*
X1463879Y570353D02*
X1450381D01*
X1457130Y546731D02*
Y570353D01*
X1394306Y546731D02*
X1402180Y557980D01*
X1407805Y546731D02*
Y570353D01*
X1398806D01*
X1396556Y569229D01*
X1395431Y568104D01*
X1394306Y565854D01*
Y562479D01*
X1395431Y560230D01*
X1396556Y559105D01*
X1398806Y557980D01*
X1407805D01*
X1315988Y826512D02*
Y801906D01*
X1522681Y619819D02*
Y644425D01*
X1315988Y619819D02*
Y644425D01*
X1522681Y826512D02*
X1498075D01*
X1522681Y619819D02*
X1498075D01*
X1315988D02*
X1340594D01*
X1315988Y826512D02*
X1340594D01*
X1563035Y665095D02*
X1582720D01*
Y623756D02*
X1563035D01*
X1576815Y860961D02*
X1568941Y851118D01*
Y870803D02*
X1576815Y860961D01*
X1563035Y881630D02*
X1604374D01*
X1563035Y840292D02*
X1604374D01*
X1292366Y612929D02*
Y593244D01*
X1254964D02*
Y612929D01*
X1242169Y737929D02*
X1261854D01*
Y700528D02*
X1242169D01*
Y690685D02*
X1261854D01*
Y653284D02*
X1242169D01*
X1576815Y593244D02*
X1568941Y583402D01*
Y603087D02*
X1576815Y593244D01*
X1563035Y613914D02*
X1604374D01*
X1563035Y572575D02*
X1604374D01*
X1582720Y789110D02*
X1563035D01*
Y830449D02*
X1582720D01*
X1268744Y747772D02*
X1249059D01*
Y789110D02*
X1268744D01*
Y798953D02*
X1249059D01*
Y840292D02*
X1268744D01*
X1356624Y866416D02*
Y847294D01*
X1355499Y845044D01*
X1354374Y843919D01*
X1352124Y842794D01*
X1347625D01*
X1345375Y843919D01*
X1344250Y845044D01*
X1343125Y847294D01*
Y866416D01*
X1319503Y842794D02*
X1333001D01*
X1326252D02*
Y866416D01*
X1328502Y863042D01*
X1330752Y860792D01*
X1333001Y859667D01*
X1230752Y554493D02*
X1231877Y553368D01*
X1235251Y552243D01*
X1237501D01*
X1240875Y553368D01*
X1243125Y555618D01*
X1244250Y557868D01*
X1245375Y562367D01*
Y565742D01*
X1244250Y570241D01*
X1243125Y572491D01*
X1240875Y574740D01*
X1237501Y575865D01*
X1235251D01*
X1231877Y574740D01*
X1230752Y573616D01*
X1208255Y552243D02*
X1221753D01*
X1215004D02*
Y575865D01*
X1217253Y572491D01*
X1219503Y570241D01*
X1221753Y569116D01*
X1197456Y727103D02*
X1198581Y728227D01*
X1199706Y731602D01*
Y733852D01*
X1198581Y737226D01*
X1196331Y739476D01*
X1194081Y740601D01*
X1189582Y741726D01*
X1186207D01*
X1181708Y740601D01*
X1179458Y739476D01*
X1177208Y737226D01*
X1176084Y733852D01*
Y731602D01*
X1177208Y728227D01*
X1178333Y727103D01*
Y718104D02*
X1177208Y716979D01*
X1176084Y714729D01*
Y709105D01*
X1177208Y706855D01*
X1178333Y705730D01*
X1180583Y704605D01*
X1182833D01*
X1186207Y705730D01*
X1199706Y719229D01*
Y704605D01*
X1197456Y675921D02*
X1198581Y677046D01*
X1199706Y680421D01*
Y682671D01*
X1198581Y686045D01*
X1196331Y688295D01*
X1194081Y689420D01*
X1189582Y690545D01*
X1186207D01*
X1181708Y689420D01*
X1179458Y688295D01*
X1177208Y686045D01*
X1176084Y682671D01*
Y680421D01*
X1177208Y677046D01*
X1178333Y675921D01*
X1176084Y668047D02*
Y653424D01*
X1185082Y661298D01*
Y657924D01*
X1186207Y655674D01*
X1187332Y654549D01*
X1189582Y653424D01*
X1195206D01*
X1197456Y654549D01*
X1198581Y655674D01*
X1199706Y657924D01*
Y664673D01*
X1198581Y666923D01*
X1197456Y668047D01*
X1215454Y772378D02*
X1204205Y780252D01*
X1215454Y785876D02*
X1191832D01*
Y776878D01*
X1192956Y774628D01*
X1194081Y773503D01*
X1196331Y772378D01*
X1199706D01*
X1201955Y773503D01*
X1203080Y774628D01*
X1204205Y776878D01*
Y785876D01*
X1191832Y764504D02*
Y749881D01*
X1200831Y757755D01*
Y754380D01*
X1201955Y752131D01*
X1203080Y751006D01*
X1205330Y749881D01*
X1210954D01*
X1213204Y751006D01*
X1214329Y752131D01*
X1215454Y754380D01*
Y761130D01*
X1214329Y763379D01*
X1213204Y764504D01*
X1215454Y823559D02*
X1204205Y831433D01*
X1215454Y837058D02*
X1191832D01*
Y828059D01*
X1192956Y825809D01*
X1194081Y824684D01*
X1196331Y823559D01*
X1199706D01*
X1201955Y824684D01*
X1203080Y825809D01*
X1204205Y828059D01*
Y837058D01*
X1199706Y803312D02*
X1215454D01*
X1190707Y808936D02*
X1207580Y814560D01*
Y799937D01*
X1763485Y581602D02*
Y592851D01*
X1774734Y593975D01*
X1773609Y592851D01*
X1772484Y590601D01*
Y584977D01*
X1773609Y582727D01*
X1774734Y581602D01*
X1776983Y580477D01*
X1782608D01*
X1784857Y581602D01*
X1785982Y582727D01*
X1787107Y584977D01*
Y590601D01*
X1785982Y592851D01*
X1784857Y593975D01*
X1763485Y573728D02*
X1787107Y565854D01*
X1763485Y557980D01*
X1802518Y892851D02*
X1804767Y893975D01*
X1808142D01*
X1811517Y892851D01*
X1813766Y890601D01*
X1814891Y888351D01*
X1816016Y883852D01*
Y880477D01*
X1814891Y875978D01*
X1813766Y873728D01*
X1811517Y871478D01*
X1808142Y870353D01*
X1805892D01*
X1802518Y871478D01*
X1801393Y872603D01*
Y880477D01*
X1805892D01*
X2129064Y898306D02*
X2114441D01*
X2122315Y889307D01*
X2118941D01*
X2116691Y888182D01*
X2115566Y887058D01*
X2114441Y884808D01*
Y879184D01*
X2115566Y876934D01*
X2116691Y875809D01*
X2118941Y874684D01*
X2125690D01*
X2127939Y875809D01*
X2129064Y876934D01*
X2107692Y898306D02*
X2099818Y874684D01*
X2091944Y898306D01*
X2128389Y570353D02*
X2112641Y546731D01*
Y570353D02*
X2128389Y546731D01*
G54D11*
X2124059Y815685D03*
G54D10*
X2012529Y874684D02*
Y898306D01*
X2006905D01*
X2003530Y897181D01*
X2001280Y894932D01*
X2000155Y892682D01*
X1999031Y888182D01*
Y884808D01*
X2000155Y880308D01*
X2001280Y878059D01*
X2003530Y875809D01*
X2006905Y874684D01*
X2012529D01*
X1901786Y876934D02*
X1902911Y875809D01*
X1906286Y874684D01*
X1908536D01*
X1911910Y875809D01*
X1914160Y878059D01*
X1915285Y880308D01*
X1916410Y884808D01*
Y888182D01*
X1915285Y892682D01*
X1914160Y894932D01*
X1911910Y897181D01*
X1908536Y898306D01*
X1906286D01*
X1902911Y897181D01*
X1901786Y896056D01*
X2054430Y570353D02*
X2040931D01*
X2047681Y546731D02*
Y570353D01*
X1984857Y546731D02*
X1992731Y557980D01*
X1998356Y546731D02*
Y570353D01*
X1989357D01*
X1987107Y569229D01*
X1985982Y568104D01*
X1984857Y565854D01*
Y562479D01*
X1985982Y560230D01*
X1987107Y559105D01*
X1989357Y557980D01*
X1998356D01*
X1906539Y826512D02*
Y801906D01*
X2113232Y619819D02*
Y644425D01*
X1906539Y619819D02*
Y644425D01*
X2113232Y826512D02*
X2088626D01*
X2113232Y619819D02*
X2088626D01*
X1906539D02*
X1931145D01*
X1906539Y826512D02*
X1931145D01*
X2153586Y665095D02*
X2173271D01*
Y623756D02*
X2153586D01*
X2167366Y860961D02*
X2159492Y851118D01*
Y870803D02*
X2167366Y860961D01*
X2153586Y881630D02*
X2194925D01*
X2153586Y840292D02*
X2194925D01*
X1882917Y612929D02*
Y593244D01*
X1845515D02*
Y612929D01*
X1832720Y737929D02*
X1852405D01*
Y700528D02*
X1832720D01*
Y690685D02*
X1852405D01*
Y653284D02*
X1832720D01*
X2167366Y593244D02*
X2159492Y583402D01*
Y603087D02*
X2167366Y593244D01*
X2153586Y613914D02*
X2194925D01*
X2153586Y572575D02*
X2194925D01*
X2173271Y789110D02*
X2153586D01*
Y830449D02*
X2173271D01*
X1859295Y747772D02*
X1839610D01*
Y789110D02*
X1859295D01*
Y798953D02*
X1839610D01*
Y840292D02*
X1859295D01*
X1947175Y866416D02*
Y847294D01*
X1946050Y845044D01*
X1944925Y843919D01*
X1942675Y842794D01*
X1938176D01*
X1935926Y843919D01*
X1934801Y845044D01*
X1933676Y847294D01*
Y866416D01*
X1910054Y842794D02*
X1923552D01*
X1916803D02*
Y866416D01*
X1919053Y863042D01*
X1921303Y860792D01*
X1923552Y859667D01*
X1821303Y554493D02*
X1822428Y553368D01*
X1825802Y552243D01*
X1828052D01*
X1831426Y553368D01*
X1833676Y555618D01*
X1834801Y557868D01*
X1835926Y562367D01*
Y565742D01*
X1834801Y570241D01*
X1833676Y572491D01*
X1831426Y574740D01*
X1828052Y575865D01*
X1825802D01*
X1822428Y574740D01*
X1821303Y573616D01*
X1798806Y552243D02*
X1812304D01*
X1805555D02*
Y575865D01*
X1807804Y572491D01*
X1810054Y570241D01*
X1812304Y569116D01*
X1788007Y727103D02*
X1789132Y728227D01*
X1790257Y731602D01*
Y733852D01*
X1789132Y737226D01*
X1786882Y739476D01*
X1784632Y740601D01*
X1780133Y741726D01*
X1776758D01*
X1772259Y740601D01*
X1770009Y739476D01*
X1767759Y737226D01*
X1766635Y733852D01*
Y731602D01*
X1767759Y728227D01*
X1768884Y727103D01*
Y718104D02*
X1767759Y716979D01*
X1766635Y714729D01*
Y709105D01*
X1767759Y706855D01*
X1768884Y705730D01*
X1771134Y704605D01*
X1773384D01*
X1776758Y705730D01*
X1790257Y719229D01*
Y704605D01*
X1788007Y675921D02*
X1789132Y677046D01*
X1790257Y680421D01*
Y682671D01*
X1789132Y686045D01*
X1786882Y688295D01*
X1784632Y689420D01*
X1780133Y690545D01*
X1776758D01*
X1772259Y689420D01*
X1770009Y688295D01*
X1767759Y686045D01*
X1766635Y682671D01*
Y680421D01*
X1767759Y677046D01*
X1768884Y675921D01*
X1766635Y668047D02*
Y653424D01*
X1775633Y661298D01*
Y657924D01*
X1776758Y655674D01*
X1777883Y654549D01*
X1780133Y653424D01*
X1785757D01*
X1788007Y654549D01*
X1789132Y655674D01*
X1790257Y657924D01*
Y664673D01*
X1789132Y666923D01*
X1788007Y668047D01*
X1806005Y772378D02*
X1794756Y780252D01*
X1806005Y785876D02*
X1782383D01*
Y776878D01*
X1783507Y774628D01*
X1784632Y773503D01*
X1786882Y772378D01*
X1790257D01*
X1792506Y773503D01*
X1793631Y774628D01*
X1794756Y776878D01*
Y785876D01*
X1782383Y764504D02*
Y749881D01*
X1791381Y757755D01*
Y754380D01*
X1792506Y752131D01*
X1793631Y751006D01*
X1795881Y749881D01*
X1801505D01*
X1803755Y751006D01*
X1804880Y752131D01*
X1806005Y754380D01*
Y761130D01*
X1804880Y763379D01*
X1803755Y764504D01*
X1806005Y823559D02*
X1794756Y831433D01*
X1806005Y837058D02*
X1782383D01*
Y828059D01*
X1783507Y825809D01*
X1784632Y824684D01*
X1786882Y823559D01*
X1790257D01*
X1792506Y824684D01*
X1793631Y825809D01*
X1794756Y828059D01*
Y837058D01*
X1790257Y803312D02*
X1806005D01*
X1781258Y808936D02*
X1798131Y814560D01*
Y799937D01*
X2354036Y581602D02*
Y592851D01*
X2365285Y593975D01*
X2364160Y592851D01*
X2363035Y590601D01*
Y584977D01*
X2364160Y582727D01*
X2365285Y581602D01*
X2367534Y580477D01*
X2373159D01*
X2375408Y581602D01*
X2376533Y582727D01*
X2377658Y584977D01*
Y590601D01*
X2376533Y592851D01*
X2375408Y593975D01*
X2354036Y573728D02*
X2377658Y565854D01*
X2354036Y557980D01*
X2393069Y892851D02*
X2395318Y893975D01*
X2398693D01*
X2402068Y892851D01*
X2404317Y890601D01*
X2405442Y888351D01*
X2406567Y883852D01*
Y880477D01*
X2405442Y875978D01*
X2404317Y873728D01*
X2402068Y871478D01*
X2398693Y870353D01*
X2396443D01*
X2393069Y871478D01*
X2391944Y872603D01*
Y880477D01*
X2396443D01*
X2719615Y898306D02*
X2704992D01*
X2712866Y889307D01*
X2709492D01*
X2707242Y888182D01*
X2706117Y887058D01*
X2704992Y884808D01*
Y879184D01*
X2706117Y876934D01*
X2707242Y875809D01*
X2709492Y874684D01*
X2716241D01*
X2718490Y875809D01*
X2719615Y876934D01*
X2698243Y898306D02*
X2690369Y874684D01*
X2682495Y898306D01*
X2718940Y570353D02*
X2703192Y546731D01*
Y570353D02*
X2718940Y546731D01*
G54D11*
X2714610Y815685D03*
G54D10*
X2603080Y874684D02*
Y898306D01*
X2597456D01*
X2594081Y897181D01*
X2591831Y894932D01*
X2590706Y892682D01*
X2589581Y888182D01*
Y884808D01*
X2590706Y880308D01*
X2591831Y878059D01*
X2594081Y875809D01*
X2597456Y874684D01*
X2603080D01*
X2492337Y876934D02*
X2493462Y875809D01*
X2496837Y874684D01*
X2499087D01*
X2502461Y875809D01*
X2504711Y878059D01*
X2505836Y880308D01*
X2506961Y884808D01*
Y888182D01*
X2505836Y892682D01*
X2504711Y894932D01*
X2502461Y897181D01*
X2499087Y898306D01*
X2496837D01*
X2493462Y897181D01*
X2492337Y896056D01*
X2644981Y570353D02*
X2631482D01*
X2638232Y546731D02*
Y570353D01*
X2575408Y546731D02*
X2583282Y557980D01*
X2588907Y546731D02*
Y570353D01*
X2579908D01*
X2577658Y569229D01*
X2576533Y568104D01*
X2575408Y565854D01*
Y562479D01*
X2576533Y560230D01*
X2577658Y559105D01*
X2579908Y557980D01*
X2588907D01*
X2497090Y826512D02*
Y801906D01*
X2703783Y619819D02*
Y644425D01*
X2497090Y619819D02*
Y644425D01*
X2703783Y826512D02*
X2679177D01*
X2703783Y619819D02*
X2679177D01*
X2497090D02*
X2521696D01*
X2497090Y826512D02*
X2521696D01*
X2744137Y665095D02*
X2763822D01*
Y623756D02*
X2744137D01*
X2757917Y860961D02*
X2750043Y851118D01*
Y870803D02*
X2757917Y860961D01*
X2744137Y881630D02*
X2785476D01*
X2744137Y840292D02*
X2785476D01*
X2473468Y612929D02*
Y593244D01*
X2436066D02*
Y612929D01*
X2423271Y737929D02*
X2442956D01*
Y700528D02*
X2423271D01*
Y690685D02*
X2442956D01*
Y653284D02*
X2423271D01*
X2757917Y593244D02*
X2750043Y583402D01*
Y603087D02*
X2757917Y593244D01*
X2744137Y613914D02*
X2785476D01*
X2744137Y572575D02*
X2785476D01*
X2763822Y789110D02*
X2744137D01*
Y830449D02*
X2763822D01*
X2449846Y747772D02*
X2430161D01*
Y789110D02*
X2449846D01*
Y798953D02*
X2430161D01*
Y840292D02*
X2449846D01*
X2537725Y866416D02*
Y847294D01*
X2536601Y845044D01*
X2535476Y843919D01*
X2533226Y842794D01*
X2528727D01*
X2526477Y843919D01*
X2525352Y845044D01*
X2524227Y847294D01*
Y866416D01*
X2500605Y842794D02*
X2514103D01*
X2507354D02*
Y866416D01*
X2509604Y863042D01*
X2511854Y860792D01*
X2514103Y859667D01*
X2411854Y554493D02*
X2412979Y553368D01*
X2416353Y552243D01*
X2418603D01*
X2421977Y553368D01*
X2424227Y555618D01*
X2425352Y557868D01*
X2426477Y562367D01*
Y565742D01*
X2425352Y570241D01*
X2424227Y572491D01*
X2421977Y574740D01*
X2418603Y575865D01*
X2416353D01*
X2412979Y574740D01*
X2411854Y573616D01*
X2389356Y552243D02*
X2402855D01*
X2396106D02*
Y575865D01*
X2398355Y572491D01*
X2400605Y570241D01*
X2402855Y569116D01*
X2378558Y727103D02*
X2379683Y728227D01*
X2380808Y731602D01*
Y733852D01*
X2379683Y737226D01*
X2377433Y739476D01*
X2375183Y740601D01*
X2370684Y741726D01*
X2367309D01*
X2362810Y740601D01*
X2360560Y739476D01*
X2358310Y737226D01*
X2357186Y733852D01*
Y731602D01*
X2358310Y728227D01*
X2359435Y727103D01*
Y718104D02*
X2358310Y716979D01*
X2357186Y714729D01*
Y709105D01*
X2358310Y706855D01*
X2359435Y705730D01*
X2361685Y704605D01*
X2363935D01*
X2367309Y705730D01*
X2380808Y719229D01*
Y704605D01*
X2378558Y675921D02*
X2379683Y677046D01*
X2380808Y680421D01*
Y682671D01*
X2379683Y686045D01*
X2377433Y688295D01*
X2375183Y689420D01*
X2370684Y690545D01*
X2367309D01*
X2362810Y689420D01*
X2360560Y688295D01*
X2358310Y686045D01*
X2357186Y682671D01*
Y680421D01*
X2358310Y677046D01*
X2359435Y675921D01*
X2357186Y668047D02*
Y653424D01*
X2366184Y661298D01*
Y657924D01*
X2367309Y655674D01*
X2368434Y654549D01*
X2370684Y653424D01*
X2376308D01*
X2378558Y654549D01*
X2379683Y655674D01*
X2380808Y657924D01*
Y664673D01*
X2379683Y666923D01*
X2378558Y668047D01*
X2396556Y772378D02*
X2385307Y780252D01*
X2396556Y785876D02*
X2372934D01*
Y776878D01*
X2374058Y774628D01*
X2375183Y773503D01*
X2377433Y772378D01*
X2380808D01*
X2383057Y773503D01*
X2384182Y774628D01*
X2385307Y776878D01*
Y785876D01*
X2372934Y764504D02*
Y749881D01*
X2381932Y757755D01*
Y754380D01*
X2383057Y752131D01*
X2384182Y751006D01*
X2386432Y749881D01*
X2392056D01*
X2394306Y751006D01*
X2395431Y752131D01*
X2396556Y754380D01*
Y761130D01*
X2395431Y763379D01*
X2394306Y764504D01*
X2396556Y823559D02*
X2385307Y831433D01*
X2396556Y837058D02*
X2372934D01*
Y828059D01*
X2374058Y825809D01*
X2375183Y824684D01*
X2377433Y823559D01*
X2380808D01*
X2383057Y824684D01*
X2384182Y825809D01*
X2385307Y828059D01*
Y837058D01*
X2380808Y803312D02*
X2396556D01*
X2371809Y808936D02*
X2388682Y814560D01*
Y799937D01*
X-7677Y1098231D02*
Y1109480D01*
X3572Y1110604D01*
X2447Y1109480D01*
X1322Y1107230D01*
Y1101606D01*
X2447Y1099356D01*
X3572Y1098231D01*
X5821Y1097106D01*
X11446D01*
X13695Y1098231D01*
X14820Y1099356D01*
X15945Y1101606D01*
Y1107230D01*
X14820Y1109480D01*
X13695Y1110604D01*
X-7677Y1090357D02*
X15945Y1082483D01*
X-7677Y1074609D01*
X31356Y1409480D02*
X33605Y1410604D01*
X36980D01*
X40355Y1409480D01*
X42604Y1407230D01*
X43729Y1404980D01*
X44854Y1400481D01*
Y1397106D01*
X43729Y1392607D01*
X42604Y1390357D01*
X40355Y1388107D01*
X36980Y1386982D01*
X34730D01*
X31356Y1388107D01*
X30231Y1389232D01*
Y1397106D01*
X34730D01*
X357902Y1414935D02*
X343279D01*
X351153Y1405936D01*
X347779D01*
X345529Y1404811D01*
X344404Y1403687D01*
X343279Y1401437D01*
Y1395813D01*
X344404Y1393563D01*
X345529Y1392438D01*
X347779Y1391313D01*
X354528D01*
X356777Y1392438D01*
X357902Y1393563D01*
X336530Y1414935D02*
X328656Y1391313D01*
X320782Y1414935D01*
X357227Y1086982D02*
X341479Y1063360D01*
Y1086982D02*
X357227Y1063360D01*
G54D11*
X352897Y1332314D03*
G54D10*
X241367Y1391313D02*
Y1414935D01*
X235743D01*
X232368Y1413810D01*
X230118Y1411561D01*
X228993Y1409311D01*
X227869Y1404811D01*
Y1401437D01*
X228993Y1396937D01*
X230118Y1394688D01*
X232368Y1392438D01*
X235743Y1391313D01*
X241367D01*
X130624Y1393563D02*
X131749Y1392438D01*
X135124Y1391313D01*
X137374D01*
X140748Y1392438D01*
X142998Y1394688D01*
X144123Y1396937D01*
X145248Y1401437D01*
Y1404811D01*
X144123Y1409311D01*
X142998Y1411561D01*
X140748Y1413810D01*
X137374Y1414935D01*
X135124D01*
X131749Y1413810D01*
X130624Y1412685D01*
X283268Y1086982D02*
X269769D01*
X276519Y1063360D02*
Y1086982D01*
X213695Y1063360D02*
X221569Y1074609D01*
X227194Y1063360D02*
Y1086982D01*
X218195D01*
X215945Y1085857D01*
X214820Y1084733D01*
X213695Y1082483D01*
Y1079108D01*
X214820Y1076859D01*
X215945Y1075734D01*
X218195Y1074609D01*
X227194D01*
X135377Y1343141D02*
Y1318535D01*
X342070Y1136448D02*
Y1161054D01*
X135377Y1136448D02*
Y1161054D01*
X342070Y1343141D02*
X317464D01*
X342070Y1136448D02*
X317464D01*
X135377D02*
X159983D01*
X135377Y1343141D02*
X159983D01*
X382424Y1181724D02*
X402109D01*
Y1140385D02*
X382424D01*
X396204Y1377590D02*
X388330Y1367747D01*
Y1387432D02*
X396204Y1377590D01*
X382424Y1398259D02*
X423763D01*
X382424Y1356920D02*
X423763D01*
X111755Y1129558D02*
Y1109873D01*
X74353D02*
Y1129558D01*
X61558Y1254558D02*
X81243D01*
Y1217157D02*
X61558D01*
Y1207314D02*
X81243D01*
Y1169913D02*
X61558D01*
X396204Y1109873D02*
X388330Y1100031D01*
Y1119716D02*
X396204Y1109873D01*
X382424Y1130543D02*
X423763D01*
X382424Y1089204D02*
X423763D01*
X402109Y1305739D02*
X382424D01*
Y1347078D02*
X402109D01*
X88133Y1264401D02*
X68448D01*
Y1305739D02*
X88133D01*
Y1315582D02*
X68448D01*
Y1356920D02*
X88133D01*
X176013Y1383045D02*
Y1363923D01*
X174888Y1361673D01*
X173763Y1360548D01*
X171513Y1359423D01*
X167014D01*
X164764Y1360548D01*
X163639Y1361673D01*
X162514Y1363923D01*
Y1383045D01*
X138892Y1359423D02*
X152390D01*
X145641D02*
Y1383045D01*
X147891Y1379671D01*
X150141Y1377421D01*
X152390Y1376296D01*
X50141Y1071122D02*
X51266Y1069997D01*
X54640Y1068872D01*
X56890D01*
X60264Y1069997D01*
X62514Y1072247D01*
X63639Y1074496D01*
X64764Y1078996D01*
Y1082370D01*
X63639Y1086870D01*
X62514Y1089120D01*
X60264Y1091369D01*
X56890Y1092494D01*
X54640D01*
X51266Y1091369D01*
X50141Y1090244D01*
X27644Y1068872D02*
X41142D01*
X34393D02*
Y1092494D01*
X36642Y1089120D01*
X38892Y1086870D01*
X41142Y1085745D01*
X16845Y1243731D02*
X17970Y1244856D01*
X19095Y1248231D01*
Y1250481D01*
X17970Y1253855D01*
X15720Y1256105D01*
X13470Y1257230D01*
X8971Y1258355D01*
X5596D01*
X1097Y1257230D01*
X-1153Y1256105D01*
X-3403Y1253855D01*
X-4527Y1250481D01*
Y1248231D01*
X-3403Y1244856D01*
X-2278Y1243731D01*
Y1234733D02*
X-3403Y1233608D01*
X-4527Y1231358D01*
Y1225734D01*
X-3403Y1223484D01*
X-2278Y1222359D01*
X-28Y1221234D01*
X2222D01*
X5596Y1222359D01*
X19095Y1235857D01*
Y1221234D01*
X16845Y1192550D02*
X17970Y1193675D01*
X19095Y1197050D01*
Y1199300D01*
X17970Y1202674D01*
X15720Y1204924D01*
X13470Y1206049D01*
X8971Y1207174D01*
X5596D01*
X1097Y1206049D01*
X-1153Y1204924D01*
X-3403Y1202674D01*
X-4527Y1199300D01*
Y1197050D01*
X-3403Y1193675D01*
X-2278Y1192550D01*
X-4527Y1184676D02*
Y1170053D01*
X4471Y1177927D01*
Y1174553D01*
X5596Y1172303D01*
X6721Y1171178D01*
X8971Y1170053D01*
X14595D01*
X16845Y1171178D01*
X17970Y1172303D01*
X19095Y1174553D01*
Y1181302D01*
X17970Y1183551D01*
X16845Y1184676D01*
X34843Y1289007D02*
X23594Y1296881D01*
X34843Y1302505D02*
X11221D01*
Y1293506D01*
X12345Y1291257D01*
X13470Y1290132D01*
X15720Y1289007D01*
X19095D01*
X21344Y1290132D01*
X22469Y1291257D01*
X23594Y1293506D01*
Y1302505D01*
X11221Y1281133D02*
Y1266510D01*
X20219Y1274384D01*
Y1271009D01*
X21344Y1268760D01*
X22469Y1267635D01*
X24719Y1266510D01*
X30343D01*
X32593Y1267635D01*
X33718Y1268760D01*
X34843Y1271009D01*
Y1277758D01*
X33718Y1280008D01*
X32593Y1281133D01*
X34843Y1340188D02*
X23594Y1348062D01*
X34843Y1353687D02*
X11221D01*
Y1344688D01*
X12345Y1342438D01*
X13470Y1341313D01*
X15720Y1340188D01*
X19095D01*
X21344Y1341313D01*
X22469Y1342438D01*
X23594Y1344688D01*
Y1353687D01*
X19095Y1319941D02*
X34843D01*
X10096Y1325565D02*
X26969Y1331189D01*
Y1316566D01*
X582874Y1098231D02*
Y1109480D01*
X594123Y1110604D01*
X592998Y1109480D01*
X591873Y1107230D01*
Y1101606D01*
X592998Y1099356D01*
X594123Y1098231D01*
X596372Y1097106D01*
X601997D01*
X604246Y1098231D01*
X605371Y1099356D01*
X606496Y1101606D01*
Y1107230D01*
X605371Y1109480D01*
X604246Y1110604D01*
X582874Y1090357D02*
X606496Y1082483D01*
X582874Y1074609D01*
X621907Y1409480D02*
X624156Y1410604D01*
X627531D01*
X630906Y1409480D01*
X633155Y1407230D01*
X634280Y1404980D01*
X635405Y1400481D01*
Y1397106D01*
X634280Y1392607D01*
X633155Y1390357D01*
X630906Y1388107D01*
X627531Y1386982D01*
X625281D01*
X621907Y1388107D01*
X620782Y1389232D01*
Y1397106D01*
X625281D01*
X948453Y1414935D02*
X933830D01*
X941704Y1405936D01*
X938330D01*
X936080Y1404811D01*
X934955Y1403687D01*
X933830Y1401437D01*
Y1395813D01*
X934955Y1393563D01*
X936080Y1392438D01*
X938330Y1391313D01*
X945079D01*
X947328Y1392438D01*
X948453Y1393563D01*
X927081Y1414935D02*
X919207Y1391313D01*
X911333Y1414935D01*
X947778Y1086982D02*
X932030Y1063360D01*
Y1086982D02*
X947778Y1063360D01*
G54D11*
X943448Y1332314D03*
G54D10*
X831918Y1391313D02*
Y1414935D01*
X826294D01*
X822919Y1413810D01*
X820669Y1411561D01*
X819544Y1409311D01*
X818419Y1404811D01*
Y1401437D01*
X819544Y1396937D01*
X820669Y1394688D01*
X822919Y1392438D01*
X826294Y1391313D01*
X831918D01*
X721175Y1393563D02*
X722300Y1392438D01*
X725675Y1391313D01*
X727925D01*
X731299Y1392438D01*
X733549Y1394688D01*
X734674Y1396937D01*
X735799Y1401437D01*
Y1404811D01*
X734674Y1409311D01*
X733549Y1411561D01*
X731299Y1413810D01*
X727925Y1414935D01*
X725675D01*
X722300Y1413810D01*
X721175Y1412685D01*
X873819Y1086982D02*
X860320D01*
X867070Y1063360D02*
Y1086982D01*
X804246Y1063360D02*
X812120Y1074609D01*
X817745Y1063360D02*
Y1086982D01*
X808746D01*
X806496Y1085857D01*
X805371Y1084733D01*
X804246Y1082483D01*
Y1079108D01*
X805371Y1076859D01*
X806496Y1075734D01*
X808746Y1074609D01*
X817745D01*
X725928Y1343141D02*
Y1318535D01*
X932621Y1136448D02*
Y1161054D01*
X725928Y1136448D02*
Y1161054D01*
X932621Y1343141D02*
X908015D01*
X932621Y1136448D02*
X908015D01*
X725928D02*
X750534D01*
X725928Y1343141D02*
X750534D01*
X972975Y1181724D02*
X992660D01*
Y1140385D02*
X972975D01*
X986755Y1377590D02*
X978881Y1367747D01*
Y1387432D02*
X986755Y1377590D01*
X972975Y1398259D02*
X1014314D01*
X972975Y1356920D02*
X1014314D01*
X702306Y1129558D02*
Y1109873D01*
X664904D02*
Y1129558D01*
X652109Y1254558D02*
X671794D01*
Y1217157D02*
X652109D01*
Y1207314D02*
X671794D01*
Y1169913D02*
X652109D01*
X986755Y1109873D02*
X978881Y1100031D01*
Y1119716D02*
X986755Y1109873D01*
X972975Y1130543D02*
X1014314D01*
X972975Y1089204D02*
X1014314D01*
X992660Y1305739D02*
X972975D01*
Y1347078D02*
X992660D01*
X678684Y1264401D02*
X658999D01*
Y1305739D02*
X678684D01*
Y1315582D02*
X658999D01*
Y1356920D02*
X678684D01*
X766563Y1383045D02*
Y1363923D01*
X765439Y1361673D01*
X764314Y1360548D01*
X762064Y1359423D01*
X757565D01*
X755315Y1360548D01*
X754190Y1361673D01*
X753065Y1363923D01*
Y1383045D01*
X729443Y1359423D02*
X742941D01*
X736192D02*
Y1383045D01*
X738442Y1379671D01*
X740692Y1377421D01*
X742941Y1376296D01*
X640692Y1071122D02*
X641817Y1069997D01*
X645191Y1068872D01*
X647441D01*
X650815Y1069997D01*
X653065Y1072247D01*
X654190Y1074496D01*
X655315Y1078996D01*
Y1082370D01*
X654190Y1086870D01*
X653065Y1089120D01*
X650815Y1091369D01*
X647441Y1092494D01*
X645191D01*
X641817Y1091369D01*
X640692Y1090244D01*
X618194Y1068872D02*
X631693D01*
X624944D02*
Y1092494D01*
X627193Y1089120D01*
X629443Y1086870D01*
X631693Y1085745D01*
X607396Y1243731D02*
X608521Y1244856D01*
X609646Y1248231D01*
Y1250481D01*
X608521Y1253855D01*
X606271Y1256105D01*
X604021Y1257230D01*
X599522Y1258355D01*
X596147D01*
X591648Y1257230D01*
X589398Y1256105D01*
X587148Y1253855D01*
X586024Y1250481D01*
Y1248231D01*
X587148Y1244856D01*
X588273Y1243731D01*
Y1234733D02*
X587148Y1233608D01*
X586024Y1231358D01*
Y1225734D01*
X587148Y1223484D01*
X588273Y1222359D01*
X590523Y1221234D01*
X592773D01*
X596147Y1222359D01*
X609646Y1235857D01*
Y1221234D01*
X607396Y1192550D02*
X608521Y1193675D01*
X609646Y1197050D01*
Y1199300D01*
X608521Y1202674D01*
X606271Y1204924D01*
X604021Y1206049D01*
X599522Y1207174D01*
X596147D01*
X591648Y1206049D01*
X589398Y1204924D01*
X587148Y1202674D01*
X586024Y1199300D01*
Y1197050D01*
X587148Y1193675D01*
X588273Y1192550D01*
X586024Y1184676D02*
Y1170053D01*
X595022Y1177927D01*
Y1174553D01*
X596147Y1172303D01*
X597272Y1171178D01*
X599522Y1170053D01*
X605146D01*
X607396Y1171178D01*
X608521Y1172303D01*
X609646Y1174553D01*
Y1181302D01*
X608521Y1183551D01*
X607396Y1184676D01*
X625394Y1289007D02*
X614145Y1296881D01*
X625394Y1302505D02*
X601772D01*
Y1293506D01*
X602896Y1291257D01*
X604021Y1290132D01*
X606271Y1289007D01*
X609646D01*
X611895Y1290132D01*
X613020Y1291257D01*
X614145Y1293506D01*
Y1302505D01*
X601772Y1281133D02*
Y1266510D01*
X610770Y1274384D01*
Y1271009D01*
X611895Y1268760D01*
X613020Y1267635D01*
X615270Y1266510D01*
X620894D01*
X623144Y1267635D01*
X624269Y1268760D01*
X625394Y1271009D01*
Y1277758D01*
X624269Y1280008D01*
X623144Y1281133D01*
X625394Y1340188D02*
X614145Y1348062D01*
X625394Y1353687D02*
X601772D01*
Y1344688D01*
X602896Y1342438D01*
X604021Y1341313D01*
X606271Y1340188D01*
X609646D01*
X611895Y1341313D01*
X613020Y1342438D01*
X614145Y1344688D01*
Y1353687D01*
X609646Y1319941D02*
X625394D01*
X600647Y1325565D02*
X617520Y1331189D01*
Y1316566D01*
X1173425Y1098231D02*
Y1109480D01*
X1184674Y1110604D01*
X1183549Y1109480D01*
X1182424Y1107230D01*
Y1101606D01*
X1183549Y1099356D01*
X1184674Y1098231D01*
X1186923Y1097106D01*
X1192548D01*
X1194797Y1098231D01*
X1195922Y1099356D01*
X1197047Y1101606D01*
Y1107230D01*
X1195922Y1109480D01*
X1194797Y1110604D01*
X1173425Y1090357D02*
X1197047Y1082483D01*
X1173425Y1074609D01*
X1212458Y1409480D02*
X1214707Y1410604D01*
X1218082D01*
X1221457Y1409480D01*
X1223706Y1407230D01*
X1224831Y1404980D01*
X1225956Y1400481D01*
Y1397106D01*
X1224831Y1392607D01*
X1223706Y1390357D01*
X1221457Y1388107D01*
X1218082Y1386982D01*
X1215832D01*
X1212458Y1388107D01*
X1211333Y1389232D01*
Y1397106D01*
X1215832D01*
X1539004Y1414935D02*
X1524381D01*
X1532255Y1405936D01*
X1528881D01*
X1526631Y1404811D01*
X1525506Y1403687D01*
X1524381Y1401437D01*
Y1395813D01*
X1525506Y1393563D01*
X1526631Y1392438D01*
X1528881Y1391313D01*
X1535630D01*
X1537879Y1392438D01*
X1539004Y1393563D01*
X1517632Y1414935D02*
X1509758Y1391313D01*
X1501884Y1414935D01*
X1538329Y1086982D02*
X1522581Y1063360D01*
Y1086982D02*
X1538329Y1063360D01*
G54D11*
X1533999Y1332314D03*
G54D10*
X1422469Y1391313D02*
Y1414935D01*
X1416845D01*
X1413470Y1413810D01*
X1411220Y1411561D01*
X1410095Y1409311D01*
X1408971Y1404811D01*
Y1401437D01*
X1410095Y1396937D01*
X1411220Y1394688D01*
X1413470Y1392438D01*
X1416845Y1391313D01*
X1422469D01*
X1311726Y1393563D02*
X1312851Y1392438D01*
X1316226Y1391313D01*
X1318476D01*
X1321850Y1392438D01*
X1324100Y1394688D01*
X1325225Y1396937D01*
X1326350Y1401437D01*
Y1404811D01*
X1325225Y1409311D01*
X1324100Y1411561D01*
X1321850Y1413810D01*
X1318476Y1414935D01*
X1316226D01*
X1312851Y1413810D01*
X1311726Y1412685D01*
X1464370Y1086982D02*
X1450872D01*
X1457621Y1063360D02*
Y1086982D01*
X1394797Y1063360D02*
X1402671Y1074609D01*
X1408296Y1063360D02*
Y1086982D01*
X1399297D01*
X1397047Y1085857D01*
X1395922Y1084733D01*
X1394797Y1082483D01*
Y1079108D01*
X1395922Y1076859D01*
X1397047Y1075734D01*
X1399297Y1074609D01*
X1408296D01*
X1316479Y1343141D02*
Y1318535D01*
X1523172Y1136448D02*
Y1161054D01*
X1316479Y1136448D02*
Y1161054D01*
X1523172Y1343141D02*
X1498566D01*
X1523172Y1136448D02*
X1498566D01*
X1316479D02*
X1341085D01*
X1316479Y1343141D02*
X1341085D01*
X1563526Y1181724D02*
X1583211D01*
Y1140385D02*
X1563526D01*
X1577306Y1377590D02*
X1569432Y1367747D01*
Y1387432D02*
X1577306Y1377590D01*
X1563526Y1398259D02*
X1604865D01*
X1563526Y1356920D02*
X1604865D01*
X1292857Y1129558D02*
Y1109873D01*
X1255455D02*
Y1129558D01*
X1242660Y1254558D02*
X1262345D01*
Y1217157D02*
X1242660D01*
Y1207314D02*
X1262345D01*
Y1169913D02*
X1242660D01*
X1577306Y1109873D02*
X1569432Y1100031D01*
Y1119716D02*
X1577306Y1109873D01*
X1563526Y1130543D02*
X1604865D01*
X1563526Y1089204D02*
X1604865D01*
X1583211Y1305739D02*
X1563526D01*
Y1347078D02*
X1583211D01*
X1269235Y1264401D02*
X1249550D01*
Y1305739D02*
X1269235D01*
Y1315582D02*
X1249550D01*
Y1356920D02*
X1269235D01*
X1357115Y1383045D02*
Y1363923D01*
X1355990Y1361673D01*
X1354865Y1360548D01*
X1352615Y1359423D01*
X1348116D01*
X1345866Y1360548D01*
X1344741Y1361673D01*
X1343616Y1363923D01*
Y1383045D01*
X1319994Y1359423D02*
X1333493D01*
X1326743D02*
Y1383045D01*
X1328993Y1379671D01*
X1331243Y1377421D01*
X1333493Y1376296D01*
X1231243Y1071122D02*
X1232368Y1069997D01*
X1235742Y1068872D01*
X1237992D01*
X1241367Y1069997D01*
X1243616Y1072247D01*
X1244741Y1074496D01*
X1245866Y1078996D01*
Y1082370D01*
X1244741Y1086870D01*
X1243616Y1089120D01*
X1241367Y1091369D01*
X1237992Y1092494D01*
X1235742D01*
X1232368Y1091369D01*
X1231243Y1090244D01*
X1208746Y1068872D02*
X1222244D01*
X1215495D02*
Y1092494D01*
X1217744Y1089120D01*
X1219994Y1086870D01*
X1222244Y1085745D01*
X1197947Y1243731D02*
X1199072Y1244856D01*
X1200197Y1248231D01*
Y1250481D01*
X1199072Y1253855D01*
X1196822Y1256105D01*
X1194572Y1257230D01*
X1190073Y1258355D01*
X1186698D01*
X1182199Y1257230D01*
X1179949Y1256105D01*
X1177700Y1253855D01*
X1176575Y1250481D01*
Y1248231D01*
X1177700Y1244856D01*
X1178824Y1243731D01*
Y1234733D02*
X1177700Y1233608D01*
X1176575Y1231358D01*
Y1225734D01*
X1177700Y1223484D01*
X1178824Y1222359D01*
X1181074Y1221234D01*
X1183324D01*
X1186698Y1222359D01*
X1200197Y1235857D01*
Y1221234D01*
X1197947Y1192550D02*
X1199072Y1193675D01*
X1200197Y1197050D01*
Y1199300D01*
X1199072Y1202674D01*
X1196822Y1204924D01*
X1194572Y1206049D01*
X1190073Y1207174D01*
X1186698D01*
X1182199Y1206049D01*
X1179949Y1204924D01*
X1177700Y1202674D01*
X1176575Y1199300D01*
Y1197050D01*
X1177700Y1193675D01*
X1178824Y1192550D01*
X1176575Y1184676D02*
Y1170053D01*
X1185574Y1177927D01*
Y1174553D01*
X1186698Y1172303D01*
X1187823Y1171178D01*
X1190073Y1170053D01*
X1195697D01*
X1197947Y1171178D01*
X1199072Y1172303D01*
X1200197Y1174553D01*
Y1181302D01*
X1199072Y1183551D01*
X1197947Y1184676D01*
X1215945Y1289007D02*
X1204696Y1296881D01*
X1215945Y1302505D02*
X1192323D01*
Y1293506D01*
X1193448Y1291257D01*
X1194572Y1290132D01*
X1196822Y1289007D01*
X1200197D01*
X1202446Y1290132D01*
X1203571Y1291257D01*
X1204696Y1293506D01*
Y1302505D01*
X1192323Y1281133D02*
Y1266510D01*
X1201322Y1274384D01*
Y1271009D01*
X1202446Y1268760D01*
X1203571Y1267635D01*
X1205821Y1266510D01*
X1211445D01*
X1213695Y1267635D01*
X1214820Y1268760D01*
X1215945Y1271009D01*
Y1277758D01*
X1214820Y1280008D01*
X1213695Y1281133D01*
X1215945Y1340188D02*
X1204696Y1348062D01*
X1215945Y1353687D02*
X1192323D01*
Y1344688D01*
X1193448Y1342438D01*
X1194572Y1341313D01*
X1196822Y1340188D01*
X1200197D01*
X1202446Y1341313D01*
X1203571Y1342438D01*
X1204696Y1344688D01*
Y1353687D01*
X1200197Y1319941D02*
X1215945D01*
X1191198Y1325565D02*
X1208071Y1331189D01*
Y1316566D01*
X1763976Y1098231D02*
Y1109480D01*
X1775225Y1110604D01*
X1774100Y1109480D01*
X1772975Y1107230D01*
Y1101606D01*
X1774100Y1099356D01*
X1775225Y1098231D01*
X1777474Y1097106D01*
X1783099D01*
X1785348Y1098231D01*
X1786473Y1099356D01*
X1787598Y1101606D01*
Y1107230D01*
X1786473Y1109480D01*
X1785348Y1110604D01*
X1763976Y1090357D02*
X1787598Y1082483D01*
X1763976Y1074609D01*
X1803009Y1409480D02*
X1805258Y1410604D01*
X1808633D01*
X1812008Y1409480D01*
X1814257Y1407230D01*
X1815382Y1404980D01*
X1816507Y1400481D01*
Y1397106D01*
X1815382Y1392607D01*
X1814257Y1390357D01*
X1812008Y1388107D01*
X1808633Y1386982D01*
X1806383D01*
X1803009Y1388107D01*
X1801884Y1389232D01*
Y1397106D01*
X1806383D01*
X2129555Y1414935D02*
X2114932D01*
X2122806Y1405936D01*
X2119432D01*
X2117182Y1404811D01*
X2116057Y1403687D01*
X2114932Y1401437D01*
Y1395813D01*
X2116057Y1393563D01*
X2117182Y1392438D01*
X2119432Y1391313D01*
X2126181D01*
X2128430Y1392438D01*
X2129555Y1393563D01*
X2108183Y1414935D02*
X2100309Y1391313D01*
X2092435Y1414935D01*
X2128880Y1086982D02*
X2113132Y1063360D01*
Y1086982D02*
X2128880Y1063360D01*
G54D11*
X2124550Y1332314D03*
G54D10*
X2013020Y1391313D02*
Y1414935D01*
X2007396D01*
X2004021Y1413810D01*
X2001771Y1411561D01*
X2000646Y1409311D01*
X1999522Y1404811D01*
Y1401437D01*
X2000646Y1396937D01*
X2001771Y1394688D01*
X2004021Y1392438D01*
X2007396Y1391313D01*
X2013020D01*
X1902277Y1393563D02*
X1903402Y1392438D01*
X1906777Y1391313D01*
X1909027D01*
X1912401Y1392438D01*
X1914651Y1394688D01*
X1915776Y1396937D01*
X1916901Y1401437D01*
Y1404811D01*
X1915776Y1409311D01*
X1914651Y1411561D01*
X1912401Y1413810D01*
X1909027Y1414935D01*
X1906777D01*
X1903402Y1413810D01*
X1902277Y1412685D01*
X2054921Y1086982D02*
X2041423D01*
X2048172Y1063360D02*
Y1086982D01*
X1985348Y1063360D02*
X1993222Y1074609D01*
X1998847Y1063360D02*
Y1086982D01*
X1989848D01*
X1987598Y1085857D01*
X1986473Y1084733D01*
X1985348Y1082483D01*
Y1079108D01*
X1986473Y1076859D01*
X1987598Y1075734D01*
X1989848Y1074609D01*
X1998847D01*
X1907030Y1343141D02*
Y1318535D01*
X2113723Y1136448D02*
Y1161054D01*
X1907030Y1136448D02*
Y1161054D01*
X2113723Y1343141D02*
X2089117D01*
X2113723Y1136448D02*
X2089117D01*
X1907030D02*
X1931636D01*
X1907030Y1343141D02*
X1931636D01*
X2154077Y1181724D02*
X2173762D01*
Y1140385D02*
X2154077D01*
X2167857Y1377590D02*
X2159983Y1367747D01*
Y1387432D02*
X2167857Y1377590D01*
X2154077Y1398259D02*
X2195416D01*
X2154077Y1356920D02*
X2195416D01*
X1883408Y1129558D02*
Y1109873D01*
X1846006D02*
Y1129558D01*
X1833211Y1254558D02*
X1852896D01*
Y1217157D02*
X1833211D01*
Y1207314D02*
X1852896D01*
Y1169913D02*
X1833211D01*
X2167857Y1109873D02*
X2159983Y1100031D01*
Y1119716D02*
X2167857Y1109873D01*
X2154077Y1130543D02*
X2195416D01*
X2154077Y1089204D02*
X2195416D01*
X2173762Y1305739D02*
X2154077D01*
Y1347078D02*
X2173762D01*
X1859786Y1264401D02*
X1840101D01*
Y1305739D02*
X1859786D01*
Y1315582D02*
X1840101D01*
Y1356920D02*
X1859786D01*
X1947666Y1383045D02*
Y1363923D01*
X1946541Y1361673D01*
X1945416Y1360548D01*
X1943166Y1359423D01*
X1938667D01*
X1936417Y1360548D01*
X1935292Y1361673D01*
X1934167Y1363923D01*
Y1383045D01*
X1910545Y1359423D02*
X1924044D01*
X1917294D02*
Y1383045D01*
X1919544Y1379671D01*
X1921794Y1377421D01*
X1924044Y1376296D01*
X1821794Y1071122D02*
X1822919Y1069997D01*
X1826293Y1068872D01*
X1828543D01*
X1831918Y1069997D01*
X1834167Y1072247D01*
X1835292Y1074496D01*
X1836417Y1078996D01*
Y1082370D01*
X1835292Y1086870D01*
X1834167Y1089120D01*
X1831918Y1091369D01*
X1828543Y1092494D01*
X1826293D01*
X1822919Y1091369D01*
X1821794Y1090244D01*
X1799297Y1068872D02*
X1812795D01*
X1806046D02*
Y1092494D01*
X1808295Y1089120D01*
X1810545Y1086870D01*
X1812795Y1085745D01*
X1788498Y1243731D02*
X1789623Y1244856D01*
X1790748Y1248231D01*
Y1250481D01*
X1789623Y1253855D01*
X1787373Y1256105D01*
X1785123Y1257230D01*
X1780624Y1258355D01*
X1777249D01*
X1772750Y1257230D01*
X1770500Y1256105D01*
X1768250Y1253855D01*
X1767126Y1250481D01*
Y1248231D01*
X1768250Y1244856D01*
X1769375Y1243731D01*
Y1234733D02*
X1768250Y1233608D01*
X1767126Y1231358D01*
Y1225734D01*
X1768250Y1223484D01*
X1769375Y1222359D01*
X1771625Y1221234D01*
X1773875D01*
X1777249Y1222359D01*
X1790748Y1235857D01*
Y1221234D01*
X1788498Y1192550D02*
X1789623Y1193675D01*
X1790748Y1197050D01*
Y1199300D01*
X1789623Y1202674D01*
X1787373Y1204924D01*
X1785123Y1206049D01*
X1780624Y1207174D01*
X1777249D01*
X1772750Y1206049D01*
X1770500Y1204924D01*
X1768250Y1202674D01*
X1767126Y1199300D01*
Y1197050D01*
X1768250Y1193675D01*
X1769375Y1192550D01*
X1767126Y1184676D02*
Y1170053D01*
X1776125Y1177927D01*
Y1174553D01*
X1777249Y1172303D01*
X1778374Y1171178D01*
X1780624Y1170053D01*
X1786248D01*
X1788498Y1171178D01*
X1789623Y1172303D01*
X1790748Y1174553D01*
Y1181302D01*
X1789623Y1183551D01*
X1788498Y1184676D01*
X1806496Y1289007D02*
X1795247Y1296881D01*
X1806496Y1302505D02*
X1782874D01*
Y1293506D01*
X1783999Y1291257D01*
X1785123Y1290132D01*
X1787373Y1289007D01*
X1790748D01*
X1792997Y1290132D01*
X1794122Y1291257D01*
X1795247Y1293506D01*
Y1302505D01*
X1782874Y1281133D02*
Y1266510D01*
X1791873Y1274384D01*
Y1271009D01*
X1792997Y1268760D01*
X1794122Y1267635D01*
X1796372Y1266510D01*
X1801996D01*
X1804246Y1267635D01*
X1805371Y1268760D01*
X1806496Y1271009D01*
Y1277758D01*
X1805371Y1280008D01*
X1804246Y1281133D01*
X1806496Y1340188D02*
X1795247Y1348062D01*
X1806496Y1353687D02*
X1782874D01*
Y1344688D01*
X1783999Y1342438D01*
X1785123Y1341313D01*
X1787373Y1340188D01*
X1790748D01*
X1792997Y1341313D01*
X1794122Y1342438D01*
X1795247Y1344688D01*
Y1353687D01*
X1790748Y1319941D02*
X1806496D01*
X1781749Y1325565D02*
X1798622Y1331189D01*
Y1316566D01*
X2354527Y1098231D02*
Y1109480D01*
X2365776Y1110604D01*
X2364651Y1109480D01*
X2363526Y1107230D01*
Y1101606D01*
X2364651Y1099356D01*
X2365776Y1098231D01*
X2368025Y1097106D01*
X2373650D01*
X2375899Y1098231D01*
X2377024Y1099356D01*
X2378149Y1101606D01*
Y1107230D01*
X2377024Y1109480D01*
X2375899Y1110604D01*
X2354527Y1090357D02*
X2378149Y1082483D01*
X2354527Y1074609D01*
X2393560Y1409480D02*
X2395809Y1410604D01*
X2399184D01*
X2402559Y1409480D01*
X2404808Y1407230D01*
X2405933Y1404980D01*
X2407058Y1400481D01*
Y1397106D01*
X2405933Y1392607D01*
X2404808Y1390357D01*
X2402559Y1388107D01*
X2399184Y1386982D01*
X2396934D01*
X2393560Y1388107D01*
X2392435Y1389232D01*
Y1397106D01*
X2396934D01*
X2720106Y1414935D02*
X2705483D01*
X2713357Y1405936D01*
X2709983D01*
X2707733Y1404811D01*
X2706608Y1403687D01*
X2705483Y1401437D01*
Y1395813D01*
X2706608Y1393563D01*
X2707733Y1392438D01*
X2709983Y1391313D01*
X2716732D01*
X2718981Y1392438D01*
X2720106Y1393563D01*
X2698734Y1414935D02*
X2690860Y1391313D01*
X2682986Y1414935D01*
X2719431Y1086982D02*
X2703683Y1063360D01*
Y1086982D02*
X2719431Y1063360D01*
G54D11*
X2715101Y1332314D03*
G54D10*
X2603571Y1391313D02*
Y1414935D01*
X2597947D01*
X2594572Y1413810D01*
X2592322Y1411561D01*
X2591197Y1409311D01*
X2590073Y1404811D01*
Y1401437D01*
X2591197Y1396937D01*
X2592322Y1394688D01*
X2594572Y1392438D01*
X2597947Y1391313D01*
X2603571D01*
X2492828Y1393563D02*
X2493953Y1392438D01*
X2497328Y1391313D01*
X2499578D01*
X2502952Y1392438D01*
X2505202Y1394688D01*
X2506327Y1396937D01*
X2507452Y1401437D01*
Y1404811D01*
X2506327Y1409311D01*
X2505202Y1411561D01*
X2502952Y1413810D01*
X2499578Y1414935D01*
X2497328D01*
X2493953Y1413810D01*
X2492828Y1412685D01*
X2645472Y1086982D02*
X2631974D01*
X2638723Y1063360D02*
Y1086982D01*
X2575899Y1063360D02*
X2583773Y1074609D01*
X2589398Y1063360D02*
Y1086982D01*
X2580399D01*
X2578149Y1085857D01*
X2577024Y1084733D01*
X2575899Y1082483D01*
Y1079108D01*
X2577024Y1076859D01*
X2578149Y1075734D01*
X2580399Y1074609D01*
X2589398D01*
X2497581Y1343141D02*
Y1318535D01*
X2704274Y1136448D02*
Y1161054D01*
X2497581Y1136448D02*
Y1161054D01*
X2704274Y1343141D02*
X2679668D01*
X2704274Y1136448D02*
X2679668D01*
X2497581D02*
X2522187D01*
X2497581Y1343141D02*
X2522187D01*
X2744628Y1181724D02*
X2764313D01*
Y1140385D02*
X2744628D01*
X2758408Y1377590D02*
X2750534Y1367747D01*
Y1387432D02*
X2758408Y1377590D01*
X2744628Y1398259D02*
X2785967D01*
X2744628Y1356920D02*
X2785967D01*
X2473959Y1129558D02*
Y1109873D01*
X2436557D02*
Y1129558D01*
X2423762Y1254558D02*
X2443447D01*
Y1217157D02*
X2423762D01*
Y1207314D02*
X2443447D01*
Y1169913D02*
X2423762D01*
X2758408Y1109873D02*
X2750534Y1100031D01*
Y1119716D02*
X2758408Y1109873D01*
X2744628Y1130543D02*
X2785967D01*
X2744628Y1089204D02*
X2785967D01*
X2764313Y1305739D02*
X2744628D01*
Y1347078D02*
X2764313D01*
X2450337Y1264401D02*
X2430652D01*
Y1305739D02*
X2450337D01*
Y1315582D02*
X2430652D01*
Y1356920D02*
X2450337D01*
X2538217Y1383045D02*
Y1363923D01*
X2537092Y1361673D01*
X2535967Y1360548D01*
X2533717Y1359423D01*
X2529218D01*
X2526968Y1360548D01*
X2525843Y1361673D01*
X2524718Y1363923D01*
Y1383045D01*
X2501096Y1359423D02*
X2514594D01*
X2507845D02*
Y1383045D01*
X2510095Y1379671D01*
X2512345Y1377421D01*
X2514594Y1376296D01*
X2412345Y1071122D02*
X2413470Y1069997D01*
X2416844Y1068872D01*
X2419094D01*
X2422469Y1069997D01*
X2424718Y1072247D01*
X2425843Y1074496D01*
X2426968Y1078996D01*
Y1082370D01*
X2425843Y1086870D01*
X2424718Y1089120D01*
X2422469Y1091369D01*
X2419094Y1092494D01*
X2416844D01*
X2413470Y1091369D01*
X2412345Y1090244D01*
X2389848Y1068872D02*
X2403346D01*
X2396597D02*
Y1092494D01*
X2398846Y1089120D01*
X2401096Y1086870D01*
X2403346Y1085745D01*
X2379049Y1243731D02*
X2380174Y1244856D01*
X2381299Y1248231D01*
Y1250481D01*
X2380174Y1253855D01*
X2377924Y1256105D01*
X2375674Y1257230D01*
X2371175Y1258355D01*
X2367800D01*
X2363301Y1257230D01*
X2361051Y1256105D01*
X2358801Y1253855D01*
X2357677Y1250481D01*
Y1248231D01*
X2358801Y1244856D01*
X2359926Y1243731D01*
Y1234733D02*
X2358801Y1233608D01*
X2357677Y1231358D01*
Y1225734D01*
X2358801Y1223484D01*
X2359926Y1222359D01*
X2362176Y1221234D01*
X2364426D01*
X2367800Y1222359D01*
X2381299Y1235857D01*
Y1221234D01*
X2379049Y1192550D02*
X2380174Y1193675D01*
X2381299Y1197050D01*
Y1199300D01*
X2380174Y1202674D01*
X2377924Y1204924D01*
X2375674Y1206049D01*
X2371175Y1207174D01*
X2367800D01*
X2363301Y1206049D01*
X2361051Y1204924D01*
X2358801Y1202674D01*
X2357677Y1199300D01*
Y1197050D01*
X2358801Y1193675D01*
X2359926Y1192550D01*
X2357677Y1184676D02*
Y1170053D01*
X2366675Y1177927D01*
Y1174553D01*
X2367800Y1172303D01*
X2368925Y1171178D01*
X2371175Y1170053D01*
X2376799D01*
X2379049Y1171178D01*
X2380174Y1172303D01*
X2381299Y1174553D01*
Y1181302D01*
X2380174Y1183551D01*
X2379049Y1184676D01*
X2397047Y1289007D02*
X2385798Y1296881D01*
X2397047Y1302505D02*
X2373425D01*
Y1293506D01*
X2374550Y1291257D01*
X2375674Y1290132D01*
X2377924Y1289007D01*
X2381299D01*
X2383548Y1290132D01*
X2384673Y1291257D01*
X2385798Y1293506D01*
Y1302505D01*
X2373425Y1281133D02*
Y1266510D01*
X2382424Y1274384D01*
Y1271009D01*
X2383548Y1268760D01*
X2384673Y1267635D01*
X2386923Y1266510D01*
X2392547D01*
X2394797Y1267635D01*
X2395922Y1268760D01*
X2397047Y1271009D01*
Y1277758D01*
X2395922Y1280008D01*
X2394797Y1281133D01*
X2397047Y1340188D02*
X2385798Y1348062D01*
X2397047Y1353687D02*
X2373425D01*
Y1344688D01*
X2374550Y1342438D01*
X2375674Y1341313D01*
X2377924Y1340188D01*
X2381299D01*
X2383548Y1341313D01*
X2384673Y1342438D01*
X2385798Y1344688D01*
Y1353687D01*
X2381299Y1319941D02*
X2397047D01*
X2372300Y1325565D02*
X2389173Y1331189D01*
Y1316566D01*
X-8168Y1605271D02*
Y1616520D01*
X3081Y1617644D01*
X1956Y1616520D01*
X831Y1614270D01*
Y1608646D01*
X1956Y1606396D01*
X3081Y1605271D01*
X5330Y1604146D01*
X10955D01*
X13204Y1605271D01*
X14329Y1606396D01*
X15454Y1608646D01*
Y1614270D01*
X14329Y1616520D01*
X13204Y1617644D01*
X-8168Y1597397D02*
X15454Y1589523D01*
X-8168Y1581649D01*
X30865Y1916520D02*
X33114Y1917644D01*
X36489D01*
X39863Y1916520D01*
X42113Y1914270D01*
X43238Y1912020D01*
X44363Y1907521D01*
Y1904146D01*
X43238Y1899647D01*
X42113Y1897397D01*
X39863Y1895147D01*
X36489Y1894022D01*
X34239D01*
X30865Y1895147D01*
X29740Y1896272D01*
Y1904146D01*
X34239D01*
X357411Y1921975D02*
X342788D01*
X350662Y1912976D01*
X347288D01*
X345038Y1911851D01*
X343913Y1910727D01*
X342788Y1908477D01*
Y1902853D01*
X343913Y1900603D01*
X345038Y1899478D01*
X347288Y1898353D01*
X354037D01*
X356286Y1899478D01*
X357411Y1900603D01*
X336039Y1921975D02*
X328165Y1898353D01*
X320291Y1921975D01*
X356736Y1594022D02*
X340988Y1570400D01*
Y1594022D02*
X356736Y1570400D01*
G54D11*
X352406Y1839354D03*
G54D10*
X240876Y1898353D02*
Y1921975D01*
X235251D01*
X231877Y1920850D01*
X229627Y1918601D01*
X228502Y1916351D01*
X227377Y1911851D01*
Y1908477D01*
X228502Y1903977D01*
X229627Y1901728D01*
X231877Y1899478D01*
X235251Y1898353D01*
X240876D01*
X130133Y1900603D02*
X131258Y1899478D01*
X134633Y1898353D01*
X136883D01*
X140257Y1899478D01*
X142507Y1901728D01*
X143632Y1903977D01*
X144757Y1908477D01*
Y1911851D01*
X143632Y1916351D01*
X142507Y1918601D01*
X140257Y1920850D01*
X136883Y1921975D01*
X134633D01*
X131258Y1920850D01*
X130133Y1919725D01*
X282777Y1594022D02*
X269278D01*
X276028Y1570400D02*
Y1594022D01*
X213204Y1570400D02*
X221078Y1581649D01*
X226703Y1570400D02*
Y1594022D01*
X217704D01*
X215454Y1592898D01*
X214329Y1591773D01*
X213204Y1589523D01*
Y1586148D01*
X214329Y1583899D01*
X215454Y1582774D01*
X217704Y1581649D01*
X226703D01*
X134886Y1850181D02*
Y1825575D01*
X341579Y1643488D02*
Y1668094D01*
X134886Y1643488D02*
Y1668094D01*
X341579Y1850181D02*
X316973D01*
X341579Y1643488D02*
X316973D01*
X134886D02*
X159492D01*
X134886Y1850181D02*
X159492D01*
X381933Y1688764D02*
X401618D01*
Y1647425D02*
X381933D01*
X395713Y1884630D02*
X387839Y1874787D01*
Y1894472D02*
X395713Y1884630D01*
X381933Y1905299D02*
X423272D01*
X381933Y1863961D02*
X423272D01*
X111264Y1636598D02*
Y1616913D01*
X73862D02*
Y1636598D01*
X61067Y1761598D02*
X80752D01*
Y1724197D02*
X61067D01*
Y1714354D02*
X80752D01*
Y1676953D02*
X61067D01*
X395713Y1616913D02*
X387839Y1607071D01*
Y1626756D02*
X395713Y1616913D01*
X381933Y1637583D02*
X423272D01*
X381933Y1596244D02*
X423272D01*
X401618Y1812779D02*
X381933D01*
Y1854118D02*
X401618D01*
X87642Y1771441D02*
X67957D01*
Y1812779D02*
X87642D01*
Y1822622D02*
X67957D01*
Y1863961D02*
X87642D01*
X175521Y1890085D02*
Y1870963D01*
X174397Y1868713D01*
X173272Y1867588D01*
X171022Y1866463D01*
X166523D01*
X164273Y1867588D01*
X163148Y1868713D01*
X162023Y1870963D01*
Y1890085D01*
X138401Y1866463D02*
X151899D01*
X145150D02*
Y1890085D01*
X147400Y1886711D01*
X149650Y1884461D01*
X151899Y1883336D01*
X49650Y1578162D02*
X50775Y1577037D01*
X54149Y1575912D01*
X56399D01*
X59773Y1577037D01*
X62023Y1579287D01*
X63148Y1581537D01*
X64273Y1586036D01*
Y1589411D01*
X63148Y1593910D01*
X62023Y1596160D01*
X59773Y1598409D01*
X56399Y1599534D01*
X54149D01*
X50775Y1598409D01*
X49650Y1597285D01*
X27152Y1575912D02*
X40651D01*
X33902D02*
Y1599534D01*
X36151Y1596160D01*
X38401Y1593910D01*
X40651Y1592785D01*
X16354Y1750772D02*
X17479Y1751896D01*
X18604Y1755271D01*
Y1757521D01*
X17479Y1760895D01*
X15229Y1763145D01*
X12979Y1764270D01*
X8480Y1765395D01*
X5105D01*
X606Y1764270D01*
X-1644Y1763145D01*
X-3894Y1760895D01*
X-5018Y1757521D01*
Y1755271D01*
X-3894Y1751896D01*
X-2769Y1750772D01*
Y1741773D02*
X-3894Y1740648D01*
X-5018Y1738398D01*
Y1732774D01*
X-3894Y1730524D01*
X-2769Y1729399D01*
X-519Y1728274D01*
X1731D01*
X5105Y1729399D01*
X18604Y1742898D01*
Y1728274D01*
X16354Y1699590D02*
X17479Y1700715D01*
X18604Y1704090D01*
Y1706340D01*
X17479Y1709714D01*
X15229Y1711964D01*
X12979Y1713089D01*
X8480Y1714214D01*
X5105D01*
X606Y1713089D01*
X-1644Y1711964D01*
X-3894Y1709714D01*
X-5018Y1706340D01*
Y1704090D01*
X-3894Y1700715D01*
X-2769Y1699590D01*
X-5018Y1691716D02*
Y1677093D01*
X3980Y1684967D01*
Y1681593D01*
X5105Y1679343D01*
X6230Y1678218D01*
X8480Y1677093D01*
X14104D01*
X16354Y1678218D01*
X17479Y1679343D01*
X18604Y1681593D01*
Y1688342D01*
X17479Y1690592D01*
X16354Y1691716D01*
X34352Y1796047D02*
X23103Y1803921D01*
X34352Y1809545D02*
X10730D01*
Y1800547D01*
X11854Y1798297D01*
X12979Y1797172D01*
X15229Y1796047D01*
X18604D01*
X20853Y1797172D01*
X21978Y1798297D01*
X23103Y1800547D01*
Y1809545D01*
X10730Y1788173D02*
Y1773550D01*
X19728Y1781424D01*
Y1778049D01*
X20853Y1775800D01*
X21978Y1774675D01*
X24228Y1773550D01*
X29852D01*
X32102Y1774675D01*
X33227Y1775800D01*
X34352Y1778049D01*
Y1784799D01*
X33227Y1787048D01*
X32102Y1788173D01*
X34352Y1847228D02*
X23103Y1855102D01*
X34352Y1860727D02*
X10730D01*
Y1851728D01*
X11854Y1849478D01*
X12979Y1848353D01*
X15229Y1847228D01*
X18604D01*
X20853Y1848353D01*
X21978Y1849478D01*
X23103Y1851728D01*
Y1860727D01*
X18604Y1826981D02*
X34352D01*
X9605Y1832605D02*
X26478Y1838229D01*
Y1823606D01*
X582383Y1605271D02*
Y1616520D01*
X593631Y1617644D01*
X592507Y1616520D01*
X591382Y1614270D01*
Y1608646D01*
X592507Y1606396D01*
X593631Y1605271D01*
X595881Y1604146D01*
X601506D01*
X603755Y1605271D01*
X604880Y1606396D01*
X606005Y1608646D01*
Y1614270D01*
X604880Y1616520D01*
X603755Y1617644D01*
X582383Y1597397D02*
X606005Y1589523D01*
X582383Y1581649D01*
X621416Y1916520D02*
X623665Y1917644D01*
X627040D01*
X630414Y1916520D01*
X632664Y1914270D01*
X633789Y1912020D01*
X634914Y1907521D01*
Y1904146D01*
X633789Y1899647D01*
X632664Y1897397D01*
X630414Y1895147D01*
X627040Y1894022D01*
X624790D01*
X621416Y1895147D01*
X620291Y1896272D01*
Y1904146D01*
X624790D01*
X947962Y1921975D02*
X933339D01*
X941213Y1912976D01*
X937838D01*
X935589Y1911851D01*
X934464Y1910727D01*
X933339Y1908477D01*
Y1902853D01*
X934464Y1900603D01*
X935589Y1899478D01*
X937838Y1898353D01*
X944588D01*
X946837Y1899478D01*
X947962Y1900603D01*
X926590Y1921975D02*
X918716Y1898353D01*
X910842Y1921975D01*
X947287Y1594022D02*
X931539Y1570400D01*
Y1594022D02*
X947287Y1570400D01*
G54D11*
X942957Y1839354D03*
G54D10*
X831427Y1898353D02*
Y1921975D01*
X825802D01*
X822428Y1920850D01*
X820178Y1918601D01*
X819053Y1916351D01*
X817928Y1911851D01*
Y1908477D01*
X819053Y1903977D01*
X820178Y1901728D01*
X822428Y1899478D01*
X825802Y1898353D01*
X831427D01*
X720684Y1900603D02*
X721809Y1899478D01*
X725184Y1898353D01*
X727434D01*
X730808Y1899478D01*
X733058Y1901728D01*
X734183Y1903977D01*
X735308Y1908477D01*
Y1911851D01*
X734183Y1916351D01*
X733058Y1918601D01*
X730808Y1920850D01*
X727434Y1921975D01*
X725184D01*
X721809Y1920850D01*
X720684Y1919725D01*
X873328Y1594022D02*
X859829D01*
X866579Y1570400D02*
Y1594022D01*
X803755Y1570400D02*
X811629Y1581649D01*
X817254Y1570400D02*
Y1594022D01*
X808255D01*
X806005Y1592898D01*
X804880Y1591773D01*
X803755Y1589523D01*
Y1586148D01*
X804880Y1583899D01*
X806005Y1582774D01*
X808255Y1581649D01*
X817254D01*
X725437Y1850181D02*
Y1825575D01*
X932130Y1643488D02*
Y1668094D01*
X725437Y1643488D02*
Y1668094D01*
X932130Y1850181D02*
X907524D01*
X932130Y1643488D02*
X907524D01*
X725437D02*
X750043D01*
X725437Y1850181D02*
X750043D01*
X972484Y1688764D02*
X992169D01*
Y1647425D02*
X972484D01*
X986264Y1884630D02*
X978390Y1874787D01*
Y1894472D02*
X986264Y1884630D01*
X972484Y1905299D02*
X1013823D01*
X972484Y1863961D02*
X1013823D01*
X701815Y1636598D02*
Y1616913D01*
X664413D02*
Y1636598D01*
X651618Y1761598D02*
X671303D01*
Y1724197D02*
X651618D01*
Y1714354D02*
X671303D01*
Y1676953D02*
X651618D01*
X986264Y1616913D02*
X978390Y1607071D01*
Y1626756D02*
X986264Y1616913D01*
X972484Y1637583D02*
X1013823D01*
X972484Y1596244D02*
X1013823D01*
X992169Y1812779D02*
X972484D01*
Y1854118D02*
X992169D01*
X678193Y1771441D02*
X658508D01*
Y1812779D02*
X678193D01*
Y1822622D02*
X658508D01*
Y1863961D02*
X678193D01*
X766072Y1890085D02*
Y1870963D01*
X764948Y1868713D01*
X763823Y1867588D01*
X761573Y1866463D01*
X757074D01*
X754824Y1867588D01*
X753699Y1868713D01*
X752574Y1870963D01*
Y1890085D01*
X728952Y1866463D02*
X742450D01*
X735701D02*
Y1890085D01*
X737951Y1886711D01*
X740201Y1884461D01*
X742450Y1883336D01*
X640201Y1578162D02*
X641325Y1577037D01*
X644700Y1575912D01*
X646950D01*
X650324Y1577037D01*
X652574Y1579287D01*
X653699Y1581537D01*
X654824Y1586036D01*
Y1589411D01*
X653699Y1593910D01*
X652574Y1596160D01*
X650324Y1598409D01*
X646950Y1599534D01*
X644700D01*
X641325Y1598409D01*
X640201Y1597285D01*
X617703Y1575912D02*
X631202D01*
X624453D02*
Y1599534D01*
X626702Y1596160D01*
X628952Y1593910D01*
X631202Y1592785D01*
X606905Y1750772D02*
X608030Y1751896D01*
X609155Y1755271D01*
Y1757521D01*
X608030Y1760895D01*
X605780Y1763145D01*
X603530Y1764270D01*
X599031Y1765395D01*
X595656D01*
X591157Y1764270D01*
X588907Y1763145D01*
X586657Y1760895D01*
X585533Y1757521D01*
Y1755271D01*
X586657Y1751896D01*
X587782Y1750772D01*
Y1741773D02*
X586657Y1740648D01*
X585533Y1738398D01*
Y1732774D01*
X586657Y1730524D01*
X587782Y1729399D01*
X590032Y1728274D01*
X592282D01*
X595656Y1729399D01*
X609155Y1742898D01*
Y1728274D01*
X606905Y1699590D02*
X608030Y1700715D01*
X609155Y1704090D01*
Y1706340D01*
X608030Y1709714D01*
X605780Y1711964D01*
X603530Y1713089D01*
X599031Y1714214D01*
X595656D01*
X591157Y1713089D01*
X588907Y1711964D01*
X586657Y1709714D01*
X585533Y1706340D01*
Y1704090D01*
X586657Y1700715D01*
X587782Y1699590D01*
X585533Y1691716D02*
Y1677093D01*
X594531Y1684967D01*
Y1681593D01*
X595656Y1679343D01*
X596781Y1678218D01*
X599031Y1677093D01*
X604655D01*
X606905Y1678218D01*
X608030Y1679343D01*
X609155Y1681593D01*
Y1688342D01*
X608030Y1690592D01*
X606905Y1691716D01*
X624903Y1796047D02*
X613654Y1803921D01*
X624903Y1809545D02*
X601281D01*
Y1800547D01*
X602405Y1798297D01*
X603530Y1797172D01*
X605780Y1796047D01*
X609155D01*
X611404Y1797172D01*
X612529Y1798297D01*
X613654Y1800547D01*
Y1809545D01*
X601281Y1788173D02*
Y1773550D01*
X610279Y1781424D01*
Y1778049D01*
X611404Y1775800D01*
X612529Y1774675D01*
X614779Y1773550D01*
X620403D01*
X622653Y1774675D01*
X623778Y1775800D01*
X624903Y1778049D01*
Y1784799D01*
X623778Y1787048D01*
X622653Y1788173D01*
X624903Y1847228D02*
X613654Y1855102D01*
X624903Y1860727D02*
X601281D01*
Y1851728D01*
X602405Y1849478D01*
X603530Y1848353D01*
X605780Y1847228D01*
X609155D01*
X611404Y1848353D01*
X612529Y1849478D01*
X613654Y1851728D01*
Y1860727D01*
X609155Y1826981D02*
X624903D01*
X600156Y1832605D02*
X617029Y1838229D01*
Y1823606D01*
X1172934Y1605271D02*
Y1616520D01*
X1184183Y1617644D01*
X1183058Y1616520D01*
X1181933Y1614270D01*
Y1608646D01*
X1183058Y1606396D01*
X1184183Y1605271D01*
X1186432Y1604146D01*
X1192057D01*
X1194306Y1605271D01*
X1195431Y1606396D01*
X1196556Y1608646D01*
Y1614270D01*
X1195431Y1616520D01*
X1194306Y1617644D01*
X1172934Y1597397D02*
X1196556Y1589523D01*
X1172934Y1581649D01*
X1211967Y1916520D02*
X1214216Y1917644D01*
X1217591D01*
X1220966Y1916520D01*
X1223215Y1914270D01*
X1224340Y1912020D01*
X1225465Y1907521D01*
Y1904146D01*
X1224340Y1899647D01*
X1223215Y1897397D01*
X1220966Y1895147D01*
X1217591Y1894022D01*
X1215341D01*
X1211967Y1895147D01*
X1210842Y1896272D01*
Y1904146D01*
X1215341D01*
X1538513Y1921975D02*
X1523890D01*
X1531764Y1912976D01*
X1528390D01*
X1526140Y1911851D01*
X1525015Y1910727D01*
X1523890Y1908477D01*
Y1902853D01*
X1525015Y1900603D01*
X1526140Y1899478D01*
X1528390Y1898353D01*
X1535139D01*
X1537388Y1899478D01*
X1538513Y1900603D01*
X1517141Y1921975D02*
X1509267Y1898353D01*
X1501393Y1921975D01*
X1537838Y1594022D02*
X1522090Y1570400D01*
Y1594022D02*
X1537838Y1570400D01*
G54D11*
X1533508Y1839354D03*
G54D10*
X1421978Y1898353D02*
Y1921975D01*
X1416354D01*
X1412979Y1920850D01*
X1410729Y1918601D01*
X1409604Y1916351D01*
X1408480Y1911851D01*
Y1908477D01*
X1409604Y1903977D01*
X1410729Y1901728D01*
X1412979Y1899478D01*
X1416354Y1898353D01*
X1421978D01*
X1311235Y1900603D02*
X1312360Y1899478D01*
X1315735Y1898353D01*
X1317985D01*
X1321359Y1899478D01*
X1323609Y1901728D01*
X1324734Y1903977D01*
X1325859Y1908477D01*
Y1911851D01*
X1324734Y1916351D01*
X1323609Y1918601D01*
X1321359Y1920850D01*
X1317985Y1921975D01*
X1315735D01*
X1312360Y1920850D01*
X1311235Y1919725D01*
X1463879Y1594022D02*
X1450381D01*
X1457130Y1570400D02*
Y1594022D01*
X1394306Y1570400D02*
X1402180Y1581649D01*
X1407805Y1570400D02*
Y1594022D01*
X1398806D01*
X1396556Y1592898D01*
X1395431Y1591773D01*
X1394306Y1589523D01*
Y1586148D01*
X1395431Y1583899D01*
X1396556Y1582774D01*
X1398806Y1581649D01*
X1407805D01*
X1315988Y1850181D02*
Y1825575D01*
X1522681Y1643488D02*
Y1668094D01*
X1315988Y1643488D02*
Y1668094D01*
X1522681Y1850181D02*
X1498075D01*
X1522681Y1643488D02*
X1498075D01*
X1315988D02*
X1340594D01*
X1315988Y1850181D02*
X1340594D01*
X1563035Y1688764D02*
X1582720D01*
Y1647425D02*
X1563035D01*
X1576815Y1884630D02*
X1568941Y1874787D01*
Y1894472D02*
X1576815Y1884630D01*
X1563035Y1905299D02*
X1604374D01*
X1563035Y1863961D02*
X1604374D01*
X1292366Y1636598D02*
Y1616913D01*
X1254964D02*
Y1636598D01*
X1242169Y1761598D02*
X1261854D01*
Y1724197D02*
X1242169D01*
Y1714354D02*
X1261854D01*
Y1676953D02*
X1242169D01*
X1576815Y1616913D02*
X1568941Y1607071D01*
Y1626756D02*
X1576815Y1616913D01*
X1563035Y1637583D02*
X1604374D01*
X1563035Y1596244D02*
X1604374D01*
X1582720Y1812779D02*
X1563035D01*
Y1854118D02*
X1582720D01*
X1268744Y1771441D02*
X1249059D01*
Y1812779D02*
X1268744D01*
Y1822622D02*
X1249059D01*
Y1863961D02*
X1268744D01*
X1356624Y1890085D02*
Y1870963D01*
X1355499Y1868713D01*
X1354374Y1867588D01*
X1352124Y1866463D01*
X1347625D01*
X1345375Y1867588D01*
X1344250Y1868713D01*
X1343125Y1870963D01*
Y1890085D01*
X1319503Y1866463D02*
X1333001D01*
X1326252D02*
Y1890085D01*
X1328502Y1886711D01*
X1330752Y1884461D01*
X1333001Y1883336D01*
X1230752Y1578162D02*
X1231877Y1577037D01*
X1235251Y1575912D01*
X1237501D01*
X1240875Y1577037D01*
X1243125Y1579287D01*
X1244250Y1581537D01*
X1245375Y1586036D01*
Y1589411D01*
X1244250Y1593910D01*
X1243125Y1596160D01*
X1240875Y1598409D01*
X1237501Y1599534D01*
X1235251D01*
X1231877Y1598409D01*
X1230752Y1597285D01*
X1208255Y1575912D02*
X1221753D01*
X1215004D02*
Y1599534D01*
X1217253Y1596160D01*
X1219503Y1593910D01*
X1221753Y1592785D01*
X1197456Y1750772D02*
X1198581Y1751896D01*
X1199706Y1755271D01*
Y1757521D01*
X1198581Y1760895D01*
X1196331Y1763145D01*
X1194081Y1764270D01*
X1189582Y1765395D01*
X1186207D01*
X1181708Y1764270D01*
X1179458Y1763145D01*
X1177208Y1760895D01*
X1176084Y1757521D01*
Y1755271D01*
X1177208Y1751896D01*
X1178333Y1750772D01*
Y1741773D02*
X1177208Y1740648D01*
X1176084Y1738398D01*
Y1732774D01*
X1177208Y1730524D01*
X1178333Y1729399D01*
X1180583Y1728274D01*
X1182833D01*
X1186207Y1729399D01*
X1199706Y1742898D01*
Y1728274D01*
X1197456Y1699590D02*
X1198581Y1700715D01*
X1199706Y1704090D01*
Y1706340D01*
X1198581Y1709714D01*
X1196331Y1711964D01*
X1194081Y1713089D01*
X1189582Y1714214D01*
X1186207D01*
X1181708Y1713089D01*
X1179458Y1711964D01*
X1177208Y1709714D01*
X1176084Y1706340D01*
Y1704090D01*
X1177208Y1700715D01*
X1178333Y1699590D01*
X1176084Y1691716D02*
Y1677093D01*
X1185082Y1684967D01*
Y1681593D01*
X1186207Y1679343D01*
X1187332Y1678218D01*
X1189582Y1677093D01*
X1195206D01*
X1197456Y1678218D01*
X1198581Y1679343D01*
X1199706Y1681593D01*
Y1688342D01*
X1198581Y1690592D01*
X1197456Y1691716D01*
X1215454Y1796047D02*
X1204205Y1803921D01*
X1215454Y1809545D02*
X1191832D01*
Y1800547D01*
X1192956Y1798297D01*
X1194081Y1797172D01*
X1196331Y1796047D01*
X1199706D01*
X1201955Y1797172D01*
X1203080Y1798297D01*
X1204205Y1800547D01*
Y1809545D01*
X1191832Y1788173D02*
Y1773550D01*
X1200831Y1781424D01*
Y1778049D01*
X1201955Y1775800D01*
X1203080Y1774675D01*
X1205330Y1773550D01*
X1210954D01*
X1213204Y1774675D01*
X1214329Y1775800D01*
X1215454Y1778049D01*
Y1784799D01*
X1214329Y1787048D01*
X1213204Y1788173D01*
X1215454Y1847228D02*
X1204205Y1855102D01*
X1215454Y1860727D02*
X1191832D01*
Y1851728D01*
X1192956Y1849478D01*
X1194081Y1848353D01*
X1196331Y1847228D01*
X1199706D01*
X1201955Y1848353D01*
X1203080Y1849478D01*
X1204205Y1851728D01*
Y1860727D01*
X1199706Y1826981D02*
X1215454D01*
X1190707Y1832605D02*
X1207580Y1838229D01*
Y1823606D01*
X1763485Y1605271D02*
Y1616520D01*
X1774734Y1617644D01*
X1773609Y1616520D01*
X1772484Y1614270D01*
Y1608646D01*
X1773609Y1606396D01*
X1774734Y1605271D01*
X1776983Y1604146D01*
X1782608D01*
X1784857Y1605271D01*
X1785982Y1606396D01*
X1787107Y1608646D01*
Y1614270D01*
X1785982Y1616520D01*
X1784857Y1617644D01*
X1763485Y1597397D02*
X1787107Y1589523D01*
X1763485Y1581649D01*
X1802518Y1916520D02*
X1804767Y1917644D01*
X1808142D01*
X1811517Y1916520D01*
X1813766Y1914270D01*
X1814891Y1912020D01*
X1816016Y1907521D01*
Y1904146D01*
X1814891Y1899647D01*
X1813766Y1897397D01*
X1811517Y1895147D01*
X1808142Y1894022D01*
X1805892D01*
X1802518Y1895147D01*
X1801393Y1896272D01*
Y1904146D01*
X1805892D01*
X2129064Y1921975D02*
X2114441D01*
X2122315Y1912976D01*
X2118941D01*
X2116691Y1911851D01*
X2115566Y1910727D01*
X2114441Y1908477D01*
Y1902853D01*
X2115566Y1900603D01*
X2116691Y1899478D01*
X2118941Y1898353D01*
X2125690D01*
X2127939Y1899478D01*
X2129064Y1900603D01*
X2107692Y1921975D02*
X2099818Y1898353D01*
X2091944Y1921975D01*
X2128389Y1594022D02*
X2112641Y1570400D01*
Y1594022D02*
X2128389Y1570400D01*
G54D11*
X2124059Y1839354D03*
G54D10*
X2012529Y1898353D02*
Y1921975D01*
X2006905D01*
X2003530Y1920850D01*
X2001280Y1918601D01*
X2000155Y1916351D01*
X1999031Y1911851D01*
Y1908477D01*
X2000155Y1903977D01*
X2001280Y1901728D01*
X2003530Y1899478D01*
X2006905Y1898353D01*
X2012529D01*
X1901786Y1900603D02*
X1902911Y1899478D01*
X1906286Y1898353D01*
X1908536D01*
X1911910Y1899478D01*
X1914160Y1901728D01*
X1915285Y1903977D01*
X1916410Y1908477D01*
Y1911851D01*
X1915285Y1916351D01*
X1914160Y1918601D01*
X1911910Y1920850D01*
X1908536Y1921975D01*
X1906286D01*
X1902911Y1920850D01*
X1901786Y1919725D01*
X2054430Y1594022D02*
X2040931D01*
X2047681Y1570400D02*
Y1594022D01*
X1984857Y1570400D02*
X1992731Y1581649D01*
X1998356Y1570400D02*
Y1594022D01*
X1989357D01*
X1987107Y1592898D01*
X1985982Y1591773D01*
X1984857Y1589523D01*
Y1586148D01*
X1985982Y1583899D01*
X1987107Y1582774D01*
X1989357Y1581649D01*
X1998356D01*
X1906539Y1850181D02*
Y1825575D01*
X2113232Y1643488D02*
Y1668094D01*
X1906539Y1643488D02*
Y1668094D01*
X2113232Y1850181D02*
X2088626D01*
X2113232Y1643488D02*
X2088626D01*
X1906539D02*
X1931145D01*
X1906539Y1850181D02*
X1931145D01*
X2153586Y1688764D02*
X2173271D01*
Y1647425D02*
X2153586D01*
X2167366Y1884630D02*
X2159492Y1874787D01*
Y1894472D02*
X2167366Y1884630D01*
X2153586Y1905299D02*
X2194925D01*
X2153586Y1863961D02*
X2194925D01*
X1882917Y1636598D02*
Y1616913D01*
X1845515D02*
Y1636598D01*
X1832720Y1761598D02*
X1852405D01*
Y1724197D02*
X1832720D01*
Y1714354D02*
X1852405D01*
Y1676953D02*
X1832720D01*
X2167366Y1616913D02*
X2159492Y1607071D01*
Y1626756D02*
X2167366Y1616913D01*
X2153586Y1637583D02*
X2194925D01*
X2153586Y1596244D02*
X2194925D01*
X2173271Y1812779D02*
X2153586D01*
Y1854118D02*
X2173271D01*
X1859295Y1771441D02*
X1839610D01*
Y1812779D02*
X1859295D01*
Y1822622D02*
X1839610D01*
Y1863961D02*
X1859295D01*
X1947175Y1890085D02*
Y1870963D01*
X1946050Y1868713D01*
X1944925Y1867588D01*
X1942675Y1866463D01*
X1938176D01*
X1935926Y1867588D01*
X1934801Y1868713D01*
X1933676Y1870963D01*
Y1890085D01*
X1910054Y1866463D02*
X1923552D01*
X1916803D02*
Y1890085D01*
X1919053Y1886711D01*
X1921303Y1884461D01*
X1923552Y1883336D01*
X1821303Y1578162D02*
X1822428Y1577037D01*
X1825802Y1575912D01*
X1828052D01*
X1831426Y1577037D01*
X1833676Y1579287D01*
X1834801Y1581537D01*
X1835926Y1586036D01*
Y1589411D01*
X1834801Y1593910D01*
X1833676Y1596160D01*
X1831426Y1598409D01*
X1828052Y1599534D01*
X1825802D01*
X1822428Y1598409D01*
X1821303Y1597285D01*
X1798806Y1575912D02*
X1812304D01*
X1805555D02*
Y1599534D01*
X1807804Y1596160D01*
X1810054Y1593910D01*
X1812304Y1592785D01*
X1788007Y1750772D02*
X1789132Y1751896D01*
X1790257Y1755271D01*
Y1757521D01*
X1789132Y1760895D01*
X1786882Y1763145D01*
X1784632Y1764270D01*
X1780133Y1765395D01*
X1776758D01*
X1772259Y1764270D01*
X1770009Y1763145D01*
X1767759Y1760895D01*
X1766635Y1757521D01*
Y1755271D01*
X1767759Y1751896D01*
X1768884Y1750772D01*
Y1741773D02*
X1767759Y1740648D01*
X1766635Y1738398D01*
Y1732774D01*
X1767759Y1730524D01*
X1768884Y1729399D01*
X1771134Y1728274D01*
X1773384D01*
X1776758Y1729399D01*
X1790257Y1742898D01*
Y1728274D01*
X1788007Y1699590D02*
X1789132Y1700715D01*
X1790257Y1704090D01*
Y1706340D01*
X1789132Y1709714D01*
X1786882Y1711964D01*
X1784632Y1713089D01*
X1780133Y1714214D01*
X1776758D01*
X1772259Y1713089D01*
X1770009Y1711964D01*
X1767759Y1709714D01*
X1766635Y1706340D01*
Y1704090D01*
X1767759Y1700715D01*
X1768884Y1699590D01*
X1766635Y1691716D02*
Y1677093D01*
X1775633Y1684967D01*
Y1681593D01*
X1776758Y1679343D01*
X1777883Y1678218D01*
X1780133Y1677093D01*
X1785757D01*
X1788007Y1678218D01*
X1789132Y1679343D01*
X1790257Y1681593D01*
Y1688342D01*
X1789132Y1690592D01*
X1788007Y1691716D01*
X1806005Y1796047D02*
X1794756Y1803921D01*
X1806005Y1809545D02*
X1782383D01*
Y1800547D01*
X1783507Y1798297D01*
X1784632Y1797172D01*
X1786882Y1796047D01*
X1790257D01*
X1792506Y1797172D01*
X1793631Y1798297D01*
X1794756Y1800547D01*
Y1809545D01*
X1782383Y1788173D02*
Y1773550D01*
X1791381Y1781424D01*
Y1778049D01*
X1792506Y1775800D01*
X1793631Y1774675D01*
X1795881Y1773550D01*
X1801505D01*
X1803755Y1774675D01*
X1804880Y1775800D01*
X1806005Y1778049D01*
Y1784799D01*
X1804880Y1787048D01*
X1803755Y1788173D01*
X1806005Y1847228D02*
X1794756Y1855102D01*
X1806005Y1860727D02*
X1782383D01*
Y1851728D01*
X1783507Y1849478D01*
X1784632Y1848353D01*
X1786882Y1847228D01*
X1790257D01*
X1792506Y1848353D01*
X1793631Y1849478D01*
X1794756Y1851728D01*
Y1860727D01*
X1790257Y1826981D02*
X1806005D01*
X1781258Y1832605D02*
X1798131Y1838229D01*
Y1823606D01*
X2354036Y1605271D02*
Y1616520D01*
X2365285Y1617644D01*
X2364160Y1616520D01*
X2363035Y1614270D01*
Y1608646D01*
X2364160Y1606396D01*
X2365285Y1605271D01*
X2367534Y1604146D01*
X2373159D01*
X2375408Y1605271D01*
X2376533Y1606396D01*
X2377658Y1608646D01*
Y1614270D01*
X2376533Y1616520D01*
X2375408Y1617644D01*
X2354036Y1597397D02*
X2377658Y1589523D01*
X2354036Y1581649D01*
X2393069Y1916520D02*
X2395318Y1917644D01*
X2398693D01*
X2402068Y1916520D01*
X2404317Y1914270D01*
X2405442Y1912020D01*
X2406567Y1907521D01*
Y1904146D01*
X2405442Y1899647D01*
X2404317Y1897397D01*
X2402068Y1895147D01*
X2398693Y1894022D01*
X2396443D01*
X2393069Y1895147D01*
X2391944Y1896272D01*
Y1904146D01*
X2396443D01*
X2719615Y1921975D02*
X2704992D01*
X2712866Y1912976D01*
X2709492D01*
X2707242Y1911851D01*
X2706117Y1910727D01*
X2704992Y1908477D01*
Y1902853D01*
X2706117Y1900603D01*
X2707242Y1899478D01*
X2709492Y1898353D01*
X2716241D01*
X2718490Y1899478D01*
X2719615Y1900603D01*
X2698243Y1921975D02*
X2690369Y1898353D01*
X2682495Y1921975D01*
X2718940Y1594022D02*
X2703192Y1570400D01*
Y1594022D02*
X2718940Y1570400D01*
G54D11*
X2714610Y1839354D03*
G54D10*
X2603080Y1898353D02*
Y1921975D01*
X2597456D01*
X2594081Y1920850D01*
X2591831Y1918601D01*
X2590706Y1916351D01*
X2589581Y1911851D01*
Y1908477D01*
X2590706Y1903977D01*
X2591831Y1901728D01*
X2594081Y1899478D01*
X2597456Y1898353D01*
X2603080D01*
X2492337Y1900603D02*
X2493462Y1899478D01*
X2496837Y1898353D01*
X2499087D01*
X2502461Y1899478D01*
X2504711Y1901728D01*
X2505836Y1903977D01*
X2506961Y1908477D01*
Y1911851D01*
X2505836Y1916351D01*
X2504711Y1918601D01*
X2502461Y1920850D01*
X2499087Y1921975D01*
X2496837D01*
X2493462Y1920850D01*
X2492337Y1919725D01*
X2644981Y1594022D02*
X2631482D01*
X2638232Y1570400D02*
Y1594022D01*
X2575408Y1570400D02*
X2583282Y1581649D01*
X2588907Y1570400D02*
Y1594022D01*
X2579908D01*
X2577658Y1592898D01*
X2576533Y1591773D01*
X2575408Y1589523D01*
Y1586148D01*
X2576533Y1583899D01*
X2577658Y1582774D01*
X2579908Y1581649D01*
X2588907D01*
X2497090Y1850181D02*
Y1825575D01*
X2703783Y1643488D02*
Y1668094D01*
X2497090Y1643488D02*
Y1668094D01*
X2703783Y1850181D02*
X2679177D01*
X2703783Y1643488D02*
X2679177D01*
X2497090D02*
X2521696D01*
X2497090Y1850181D02*
X2521696D01*
X2744137Y1688764D02*
X2763822D01*
Y1647425D02*
X2744137D01*
X2757917Y1884630D02*
X2750043Y1874787D01*
Y1894472D02*
X2757917Y1884630D01*
X2744137Y1905299D02*
X2785476D01*
X2744137Y1863961D02*
X2785476D01*
X2473468Y1636598D02*
Y1616913D01*
X2436066D02*
Y1636598D01*
X2423271Y1761598D02*
X2442956D01*
Y1724197D02*
X2423271D01*
Y1714354D02*
X2442956D01*
Y1676953D02*
X2423271D01*
X2757917Y1616913D02*
X2750043Y1607071D01*
Y1626756D02*
X2757917Y1616913D01*
X2744137Y1637583D02*
X2785476D01*
X2744137Y1596244D02*
X2785476D01*
X2763822Y1812779D02*
X2744137D01*
Y1854118D02*
X2763822D01*
X2449846Y1771441D02*
X2430161D01*
Y1812779D02*
X2449846D01*
Y1822622D02*
X2430161D01*
Y1863961D02*
X2449846D01*
X2537725Y1890085D02*
Y1870963D01*
X2536601Y1868713D01*
X2535476Y1867588D01*
X2533226Y1866463D01*
X2528727D01*
X2526477Y1867588D01*
X2525352Y1868713D01*
X2524227Y1870963D01*
Y1890085D01*
X2500605Y1866463D02*
X2514103D01*
X2507354D02*
Y1890085D01*
X2509604Y1886711D01*
X2511854Y1884461D01*
X2514103Y1883336D01*
X2411854Y1578162D02*
X2412979Y1577037D01*
X2416353Y1575912D01*
X2418603D01*
X2421977Y1577037D01*
X2424227Y1579287D01*
X2425352Y1581537D01*
X2426477Y1586036D01*
Y1589411D01*
X2425352Y1593910D01*
X2424227Y1596160D01*
X2421977Y1598409D01*
X2418603Y1599534D01*
X2416353D01*
X2412979Y1598409D01*
X2411854Y1597285D01*
X2389356Y1575912D02*
X2402855D01*
X2396106D02*
Y1599534D01*
X2398355Y1596160D01*
X2400605Y1593910D01*
X2402855Y1592785D01*
X2378558Y1750772D02*
X2379683Y1751896D01*
X2380808Y1755271D01*
Y1757521D01*
X2379683Y1760895D01*
X2377433Y1763145D01*
X2375183Y1764270D01*
X2370684Y1765395D01*
X2367309D01*
X2362810Y1764270D01*
X2360560Y1763145D01*
X2358310Y1760895D01*
X2357186Y1757521D01*
Y1755271D01*
X2358310Y1751896D01*
X2359435Y1750772D01*
Y1741773D02*
X2358310Y1740648D01*
X2357186Y1738398D01*
Y1732774D01*
X2358310Y1730524D01*
X2359435Y1729399D01*
X2361685Y1728274D01*
X2363935D01*
X2367309Y1729399D01*
X2380808Y1742898D01*
Y1728274D01*
X2378558Y1699590D02*
X2379683Y1700715D01*
X2380808Y1704090D01*
Y1706340D01*
X2379683Y1709714D01*
X2377433Y1711964D01*
X2375183Y1713089D01*
X2370684Y1714214D01*
X2367309D01*
X2362810Y1713089D01*
X2360560Y1711964D01*
X2358310Y1709714D01*
X2357186Y1706340D01*
Y1704090D01*
X2358310Y1700715D01*
X2359435Y1699590D01*
X2357186Y1691716D02*
Y1677093D01*
X2366184Y1684967D01*
Y1681593D01*
X2367309Y1679343D01*
X2368434Y1678218D01*
X2370684Y1677093D01*
X2376308D01*
X2378558Y1678218D01*
X2379683Y1679343D01*
X2380808Y1681593D01*
Y1688342D01*
X2379683Y1690592D01*
X2378558Y1691716D01*
X2396556Y1796047D02*
X2385307Y1803921D01*
X2396556Y1809545D02*
X2372934D01*
Y1800547D01*
X2374058Y1798297D01*
X2375183Y1797172D01*
X2377433Y1796047D01*
X2380808D01*
X2383057Y1797172D01*
X2384182Y1798297D01*
X2385307Y1800547D01*
Y1809545D01*
X2372934Y1788173D02*
Y1773550D01*
X2381932Y1781424D01*
Y1778049D01*
X2383057Y1775800D01*
X2384182Y1774675D01*
X2386432Y1773550D01*
X2392056D01*
X2394306Y1774675D01*
X2395431Y1775800D01*
X2396556Y1778049D01*
Y1784799D01*
X2395431Y1787048D01*
X2394306Y1788173D01*
X2396556Y1847228D02*
X2385307Y1855102D01*
X2396556Y1860727D02*
X2372934D01*
Y1851728D01*
X2374058Y1849478D01*
X2375183Y1848353D01*
X2377433Y1847228D01*
X2380808D01*
X2383057Y1848353D01*
X2384182Y1849478D01*
X2385307Y1851728D01*
Y1860727D01*
X2380808Y1826981D02*
X2396556D01*
X2371809Y1832605D02*
X2388682Y1838229D01*
Y1823606D01*
X-8168Y2117106D02*
Y2128355D01*
X3081Y2129479D01*
X1956Y2128355D01*
X831Y2126105D01*
Y2120481D01*
X1956Y2118231D01*
X3081Y2117106D01*
X5330Y2115981D01*
X10955D01*
X13204Y2117106D01*
X14329Y2118231D01*
X15454Y2120481D01*
Y2126105D01*
X14329Y2128355D01*
X13204Y2129479D01*
X-8168Y2109232D02*
X15454Y2101358D01*
X-8168Y2093484D01*
X30865Y2428355D02*
X33114Y2429479D01*
X36489D01*
X39863Y2428355D01*
X42113Y2426105D01*
X43238Y2423855D01*
X44363Y2419356D01*
Y2415981D01*
X43238Y2411482D01*
X42113Y2409232D01*
X39863Y2406982D01*
X36489Y2405857D01*
X34239D01*
X30865Y2406982D01*
X29740Y2408107D01*
Y2415981D01*
X34239D01*
X357411Y2433810D02*
X342788D01*
X350662Y2424811D01*
X347288D01*
X345038Y2423686D01*
X343913Y2422562D01*
X342788Y2420312D01*
Y2414688D01*
X343913Y2412438D01*
X345038Y2411313D01*
X347288Y2410188D01*
X354037D01*
X356286Y2411313D01*
X357411Y2412438D01*
X336039Y2433810D02*
X328165Y2410188D01*
X320291Y2433810D01*
X356736Y2105857D02*
X340988Y2082235D01*
Y2105857D02*
X356736Y2082235D01*
G54D11*
X352406Y2351189D03*
G54D10*
X240876Y2410188D02*
Y2433810D01*
X235251D01*
X231877Y2432685D01*
X229627Y2430436D01*
X228502Y2428186D01*
X227377Y2423686D01*
Y2420312D01*
X228502Y2415812D01*
X229627Y2413563D01*
X231877Y2411313D01*
X235251Y2410188D01*
X240876D01*
X130133Y2412438D02*
X131258Y2411313D01*
X134633Y2410188D01*
X136883D01*
X140257Y2411313D01*
X142507Y2413563D01*
X143632Y2415812D01*
X144757Y2420312D01*
Y2423686D01*
X143632Y2428186D01*
X142507Y2430436D01*
X140257Y2432685D01*
X136883Y2433810D01*
X134633D01*
X131258Y2432685D01*
X130133Y2431560D01*
X282777Y2105857D02*
X269278D01*
X276028Y2082235D02*
Y2105857D01*
X213204Y2082235D02*
X221078Y2093484D01*
X226703Y2082235D02*
Y2105857D01*
X217704D01*
X215454Y2104732D01*
X214329Y2103608D01*
X213204Y2101358D01*
Y2097983D01*
X214329Y2095734D01*
X215454Y2094609D01*
X217704Y2093484D01*
X226703D01*
X134886Y2362016D02*
Y2337410D01*
X341579Y2155323D02*
Y2179929D01*
X134886Y2155323D02*
Y2179929D01*
X341579Y2362016D02*
X316973D01*
X341579Y2155323D02*
X316973D01*
X134886D02*
X159492D01*
X134886Y2362016D02*
X159492D01*
X381933Y2200599D02*
X401618D01*
Y2159260D02*
X381933D01*
X395713Y2396465D02*
X387839Y2386622D01*
Y2406307D02*
X395713Y2396465D01*
X381933Y2417134D02*
X423272D01*
X381933Y2375795D02*
X423272D01*
X111264Y2148433D02*
Y2128748D01*
X73862D02*
Y2148433D01*
X61067Y2273433D02*
X80752D01*
Y2236032D02*
X61067D01*
Y2226189D02*
X80752D01*
Y2188788D02*
X61067D01*
X395713Y2128748D02*
X387839Y2118906D01*
Y2138591D02*
X395713Y2128748D01*
X381933Y2149418D02*
X423272D01*
X381933Y2108079D02*
X423272D01*
X401618Y2324614D02*
X381933D01*
Y2365953D02*
X401618D01*
X87642Y2283276D02*
X67957D01*
Y2324614D02*
X87642D01*
Y2334457D02*
X67957D01*
Y2375795D02*
X87642D01*
X175521Y2401920D02*
Y2382798D01*
X174397Y2380548D01*
X173272Y2379423D01*
X171022Y2378298D01*
X166523D01*
X164273Y2379423D01*
X163148Y2380548D01*
X162023Y2382798D01*
Y2401920D01*
X138401Y2378298D02*
X151899D01*
X145150D02*
Y2401920D01*
X147400Y2398546D01*
X149650Y2396296D01*
X151899Y2395171D01*
X49650Y2089997D02*
X50775Y2088872D01*
X54149Y2087747D01*
X56399D01*
X59773Y2088872D01*
X62023Y2091122D01*
X63148Y2093371D01*
X64273Y2097871D01*
Y2101245D01*
X63148Y2105745D01*
X62023Y2107995D01*
X59773Y2110244D01*
X56399Y2111369D01*
X54149D01*
X50775Y2110244D01*
X49650Y2109119D01*
X27152Y2087747D02*
X40651D01*
X33902D02*
Y2111369D01*
X36151Y2107995D01*
X38401Y2105745D01*
X40651Y2104620D01*
X16354Y2262606D02*
X17479Y2263731D01*
X18604Y2267106D01*
Y2269356D01*
X17479Y2272730D01*
X15229Y2274980D01*
X12979Y2276105D01*
X8480Y2277230D01*
X5105D01*
X606Y2276105D01*
X-1644Y2274980D01*
X-3894Y2272730D01*
X-5018Y2269356D01*
Y2267106D01*
X-3894Y2263731D01*
X-2769Y2262606D01*
Y2253608D02*
X-3894Y2252483D01*
X-5018Y2250233D01*
Y2244609D01*
X-3894Y2242359D01*
X-2769Y2241234D01*
X-519Y2240109D01*
X1731D01*
X5105Y2241234D01*
X18604Y2254732D01*
Y2240109D01*
X16354Y2211425D02*
X17479Y2212550D01*
X18604Y2215925D01*
Y2218175D01*
X17479Y2221549D01*
X15229Y2223799D01*
X12979Y2224924D01*
X8480Y2226049D01*
X5105D01*
X606Y2224924D01*
X-1644Y2223799D01*
X-3894Y2221549D01*
X-5018Y2218175D01*
Y2215925D01*
X-3894Y2212550D01*
X-2769Y2211425D01*
X-5018Y2203551D02*
Y2188928D01*
X3980Y2196802D01*
Y2193428D01*
X5105Y2191178D01*
X6230Y2190053D01*
X8480Y2188928D01*
X14104D01*
X16354Y2190053D01*
X17479Y2191178D01*
X18604Y2193428D01*
Y2200177D01*
X17479Y2202426D01*
X16354Y2203551D01*
X34352Y2307882D02*
X23103Y2315756D01*
X34352Y2321380D02*
X10730D01*
Y2312381D01*
X11854Y2310132D01*
X12979Y2309007D01*
X15229Y2307882D01*
X18604D01*
X20853Y2309007D01*
X21978Y2310132D01*
X23103Y2312381D01*
Y2321380D01*
X10730Y2300008D02*
Y2285385D01*
X19728Y2293259D01*
Y2289884D01*
X20853Y2287635D01*
X21978Y2286510D01*
X24228Y2285385D01*
X29852D01*
X32102Y2286510D01*
X33227Y2287635D01*
X34352Y2289884D01*
Y2296633D01*
X33227Y2298883D01*
X32102Y2300008D01*
X34352Y2359063D02*
X23103Y2366937D01*
X34352Y2372562D02*
X10730D01*
Y2363563D01*
X11854Y2361313D01*
X12979Y2360188D01*
X15229Y2359063D01*
X18604D01*
X20853Y2360188D01*
X21978Y2361313D01*
X23103Y2363563D01*
Y2372562D01*
X18604Y2338816D02*
X34352D01*
X9605Y2344440D02*
X26478Y2350064D01*
Y2335441D01*
X582383Y2117106D02*
Y2128355D01*
X593631Y2129479D01*
X592507Y2128355D01*
X591382Y2126105D01*
Y2120481D01*
X592507Y2118231D01*
X593631Y2117106D01*
X595881Y2115981D01*
X601506D01*
X603755Y2117106D01*
X604880Y2118231D01*
X606005Y2120481D01*
Y2126105D01*
X604880Y2128355D01*
X603755Y2129479D01*
X582383Y2109232D02*
X606005Y2101358D01*
X582383Y2093484D01*
X621416Y2428355D02*
X623665Y2429479D01*
X627040D01*
X630414Y2428355D01*
X632664Y2426105D01*
X633789Y2423855D01*
X634914Y2419356D01*
Y2415981D01*
X633789Y2411482D01*
X632664Y2409232D01*
X630414Y2406982D01*
X627040Y2405857D01*
X624790D01*
X621416Y2406982D01*
X620291Y2408107D01*
Y2415981D01*
X624790D01*
X947962Y2433810D02*
X933339D01*
X941213Y2424811D01*
X937838D01*
X935589Y2423686D01*
X934464Y2422562D01*
X933339Y2420312D01*
Y2414688D01*
X934464Y2412438D01*
X935589Y2411313D01*
X937838Y2410188D01*
X944588D01*
X946837Y2411313D01*
X947962Y2412438D01*
X926590Y2433810D02*
X918716Y2410188D01*
X910842Y2433810D01*
X947287Y2105857D02*
X931539Y2082235D01*
Y2105857D02*
X947287Y2082235D01*
G54D11*
X942957Y2351189D03*
G54D10*
X831427Y2410188D02*
Y2433810D01*
X825802D01*
X822428Y2432685D01*
X820178Y2430436D01*
X819053Y2428186D01*
X817928Y2423686D01*
Y2420312D01*
X819053Y2415812D01*
X820178Y2413563D01*
X822428Y2411313D01*
X825802Y2410188D01*
X831427D01*
X720684Y2412438D02*
X721809Y2411313D01*
X725184Y2410188D01*
X727434D01*
X730808Y2411313D01*
X733058Y2413563D01*
X734183Y2415812D01*
X735308Y2420312D01*
Y2423686D01*
X734183Y2428186D01*
X733058Y2430436D01*
X730808Y2432685D01*
X727434Y2433810D01*
X725184D01*
X721809Y2432685D01*
X720684Y2431560D01*
X873328Y2105857D02*
X859829D01*
X866579Y2082235D02*
Y2105857D01*
X803755Y2082235D02*
X811629Y2093484D01*
X817254Y2082235D02*
Y2105857D01*
X808255D01*
X806005Y2104732D01*
X804880Y2103608D01*
X803755Y2101358D01*
Y2097983D01*
X804880Y2095734D01*
X806005Y2094609D01*
X808255Y2093484D01*
X817254D01*
X725437Y2362016D02*
Y2337410D01*
X932130Y2155323D02*
Y2179929D01*
X725437Y2155323D02*
Y2179929D01*
X932130Y2362016D02*
X907524D01*
X932130Y2155323D02*
X907524D01*
X725437D02*
X750043D01*
X725437Y2362016D02*
X750043D01*
X972484Y2200599D02*
X992169D01*
Y2159260D02*
X972484D01*
X986264Y2396465D02*
X978390Y2386622D01*
Y2406307D02*
X986264Y2396465D01*
X972484Y2417134D02*
X1013823D01*
X972484Y2375795D02*
X1013823D01*
X701815Y2148433D02*
Y2128748D01*
X664413D02*
Y2148433D01*
X651618Y2273433D02*
X671303D01*
Y2236032D02*
X651618D01*
Y2226189D02*
X671303D01*
Y2188788D02*
X651618D01*
X986264Y2128748D02*
X978390Y2118906D01*
Y2138591D02*
X986264Y2128748D01*
X972484Y2149418D02*
X1013823D01*
X972484Y2108079D02*
X1013823D01*
X992169Y2324614D02*
X972484D01*
Y2365953D02*
X992169D01*
X678193Y2283276D02*
X658508D01*
Y2324614D02*
X678193D01*
Y2334457D02*
X658508D01*
Y2375795D02*
X678193D01*
X766072Y2401920D02*
Y2382798D01*
X764948Y2380548D01*
X763823Y2379423D01*
X761573Y2378298D01*
X757074D01*
X754824Y2379423D01*
X753699Y2380548D01*
X752574Y2382798D01*
Y2401920D01*
X728952Y2378298D02*
X742450D01*
X735701D02*
Y2401920D01*
X737951Y2398546D01*
X740201Y2396296D01*
X742450Y2395171D01*
X640201Y2089997D02*
X641325Y2088872D01*
X644700Y2087747D01*
X646950D01*
X650324Y2088872D01*
X652574Y2091122D01*
X653699Y2093371D01*
X654824Y2097871D01*
Y2101245D01*
X653699Y2105745D01*
X652574Y2107995D01*
X650324Y2110244D01*
X646950Y2111369D01*
X644700D01*
X641325Y2110244D01*
X640201Y2109119D01*
X617703Y2087747D02*
X631202D01*
X624453D02*
Y2111369D01*
X626702Y2107995D01*
X628952Y2105745D01*
X631202Y2104620D01*
X606905Y2262606D02*
X608030Y2263731D01*
X609155Y2267106D01*
Y2269356D01*
X608030Y2272730D01*
X605780Y2274980D01*
X603530Y2276105D01*
X599031Y2277230D01*
X595656D01*
X591157Y2276105D01*
X588907Y2274980D01*
X586657Y2272730D01*
X585533Y2269356D01*
Y2267106D01*
X586657Y2263731D01*
X587782Y2262606D01*
Y2253608D02*
X586657Y2252483D01*
X585533Y2250233D01*
Y2244609D01*
X586657Y2242359D01*
X587782Y2241234D01*
X590032Y2240109D01*
X592282D01*
X595656Y2241234D01*
X609155Y2254732D01*
Y2240109D01*
X606905Y2211425D02*
X608030Y2212550D01*
X609155Y2215925D01*
Y2218175D01*
X608030Y2221549D01*
X605780Y2223799D01*
X603530Y2224924D01*
X599031Y2226049D01*
X595656D01*
X591157Y2224924D01*
X588907Y2223799D01*
X586657Y2221549D01*
X585533Y2218175D01*
Y2215925D01*
X586657Y2212550D01*
X587782Y2211425D01*
X585533Y2203551D02*
Y2188928D01*
X594531Y2196802D01*
Y2193428D01*
X595656Y2191178D01*
X596781Y2190053D01*
X599031Y2188928D01*
X604655D01*
X606905Y2190053D01*
X608030Y2191178D01*
X609155Y2193428D01*
Y2200177D01*
X608030Y2202426D01*
X606905Y2203551D01*
X624903Y2307882D02*
X613654Y2315756D01*
X624903Y2321380D02*
X601281D01*
Y2312381D01*
X602405Y2310132D01*
X603530Y2309007D01*
X605780Y2307882D01*
X609155D01*
X611404Y2309007D01*
X612529Y2310132D01*
X613654Y2312381D01*
Y2321380D01*
X601281Y2300008D02*
Y2285385D01*
X610279Y2293259D01*
Y2289884D01*
X611404Y2287635D01*
X612529Y2286510D01*
X614779Y2285385D01*
X620403D01*
X622653Y2286510D01*
X623778Y2287635D01*
X624903Y2289884D01*
Y2296633D01*
X623778Y2298883D01*
X622653Y2300008D01*
X624903Y2359063D02*
X613654Y2366937D01*
X624903Y2372562D02*
X601281D01*
Y2363563D01*
X602405Y2361313D01*
X603530Y2360188D01*
X605780Y2359063D01*
X609155D01*
X611404Y2360188D01*
X612529Y2361313D01*
X613654Y2363563D01*
Y2372562D01*
X609155Y2338816D02*
X624903D01*
X600156Y2344440D02*
X617029Y2350064D01*
Y2335441D01*
X1172934Y2117106D02*
Y2128355D01*
X1184183Y2129479D01*
X1183058Y2128355D01*
X1181933Y2126105D01*
Y2120481D01*
X1183058Y2118231D01*
X1184183Y2117106D01*
X1186432Y2115981D01*
X1192057D01*
X1194306Y2117106D01*
X1195431Y2118231D01*
X1196556Y2120481D01*
Y2126105D01*
X1195431Y2128355D01*
X1194306Y2129479D01*
X1172934Y2109232D02*
X1196556Y2101358D01*
X1172934Y2093484D01*
X1211967Y2428355D02*
X1214216Y2429479D01*
X1217591D01*
X1220966Y2428355D01*
X1223215Y2426105D01*
X1224340Y2423855D01*
X1225465Y2419356D01*
Y2415981D01*
X1224340Y2411482D01*
X1223215Y2409232D01*
X1220966Y2406982D01*
X1217591Y2405857D01*
X1215341D01*
X1211967Y2406982D01*
X1210842Y2408107D01*
Y2415981D01*
X1215341D01*
X1538513Y2433810D02*
X1523890D01*
X1531764Y2424811D01*
X1528390D01*
X1526140Y2423686D01*
X1525015Y2422562D01*
X1523890Y2420312D01*
Y2414688D01*
X1525015Y2412438D01*
X1526140Y2411313D01*
X1528390Y2410188D01*
X1535139D01*
X1537388Y2411313D01*
X1538513Y2412438D01*
X1517141Y2433810D02*
X1509267Y2410188D01*
X1501393Y2433810D01*
X1537838Y2105857D02*
X1522090Y2082235D01*
Y2105857D02*
X1537838Y2082235D01*
G54D11*
X1533508Y2351189D03*
G54D10*
X1421978Y2410188D02*
Y2433810D01*
X1416354D01*
X1412979Y2432685D01*
X1410729Y2430436D01*
X1409604Y2428186D01*
X1408480Y2423686D01*
Y2420312D01*
X1409604Y2415812D01*
X1410729Y2413563D01*
X1412979Y2411313D01*
X1416354Y2410188D01*
X1421978D01*
X1311235Y2412438D02*
X1312360Y2411313D01*
X1315735Y2410188D01*
X1317985D01*
X1321359Y2411313D01*
X1323609Y2413563D01*
X1324734Y2415812D01*
X1325859Y2420312D01*
Y2423686D01*
X1324734Y2428186D01*
X1323609Y2430436D01*
X1321359Y2432685D01*
X1317985Y2433810D01*
X1315735D01*
X1312360Y2432685D01*
X1311235Y2431560D01*
X1463879Y2105857D02*
X1450381D01*
X1457130Y2082235D02*
Y2105857D01*
X1394306Y2082235D02*
X1402180Y2093484D01*
X1407805Y2082235D02*
Y2105857D01*
X1398806D01*
X1396556Y2104732D01*
X1395431Y2103608D01*
X1394306Y2101358D01*
Y2097983D01*
X1395431Y2095734D01*
X1396556Y2094609D01*
X1398806Y2093484D01*
X1407805D01*
X1315988Y2362016D02*
Y2337410D01*
X1522681Y2155323D02*
Y2179929D01*
X1315988Y2155323D02*
Y2179929D01*
X1522681Y2362016D02*
X1498075D01*
X1522681Y2155323D02*
X1498075D01*
X1315988D02*
X1340594D01*
X1315988Y2362016D02*
X1340594D01*
X1563035Y2200599D02*
X1582720D01*
Y2159260D02*
X1563035D01*
X1576815Y2396465D02*
X1568941Y2386622D01*
Y2406307D02*
X1576815Y2396465D01*
X1563035Y2417134D02*
X1604374D01*
X1563035Y2375795D02*
X1604374D01*
X1292366Y2148433D02*
Y2128748D01*
X1254964D02*
Y2148433D01*
X1242169Y2273433D02*
X1261854D01*
Y2236032D02*
X1242169D01*
Y2226189D02*
X1261854D01*
Y2188788D02*
X1242169D01*
X1576815Y2128748D02*
X1568941Y2118906D01*
Y2138591D02*
X1576815Y2128748D01*
X1563035Y2149418D02*
X1604374D01*
X1563035Y2108079D02*
X1604374D01*
X1582720Y2324614D02*
X1563035D01*
Y2365953D02*
X1582720D01*
X1268744Y2283276D02*
X1249059D01*
Y2324614D02*
X1268744D01*
Y2334457D02*
X1249059D01*
Y2375795D02*
X1268744D01*
X1356624Y2401920D02*
Y2382798D01*
X1355499Y2380548D01*
X1354374Y2379423D01*
X1352124Y2378298D01*
X1347625D01*
X1345375Y2379423D01*
X1344250Y2380548D01*
X1343125Y2382798D01*
Y2401920D01*
X1319503Y2378298D02*
X1333001D01*
X1326252D02*
Y2401920D01*
X1328502Y2398546D01*
X1330752Y2396296D01*
X1333001Y2395171D01*
X1230752Y2089997D02*
X1231877Y2088872D01*
X1235251Y2087747D01*
X1237501D01*
X1240875Y2088872D01*
X1243125Y2091122D01*
X1244250Y2093371D01*
X1245375Y2097871D01*
Y2101245D01*
X1244250Y2105745D01*
X1243125Y2107995D01*
X1240875Y2110244D01*
X1237501Y2111369D01*
X1235251D01*
X1231877Y2110244D01*
X1230752Y2109119D01*
X1208255Y2087747D02*
X1221753D01*
X1215004D02*
Y2111369D01*
X1217253Y2107995D01*
X1219503Y2105745D01*
X1221753Y2104620D01*
X1197456Y2262606D02*
X1198581Y2263731D01*
X1199706Y2267106D01*
Y2269356D01*
X1198581Y2272730D01*
X1196331Y2274980D01*
X1194081Y2276105D01*
X1189582Y2277230D01*
X1186207D01*
X1181708Y2276105D01*
X1179458Y2274980D01*
X1177208Y2272730D01*
X1176084Y2269356D01*
Y2267106D01*
X1177208Y2263731D01*
X1178333Y2262606D01*
Y2253608D02*
X1177208Y2252483D01*
X1176084Y2250233D01*
Y2244609D01*
X1177208Y2242359D01*
X1178333Y2241234D01*
X1180583Y2240109D01*
X1182833D01*
X1186207Y2241234D01*
X1199706Y2254732D01*
Y2240109D01*
X1197456Y2211425D02*
X1198581Y2212550D01*
X1199706Y2215925D01*
Y2218175D01*
X1198581Y2221549D01*
X1196331Y2223799D01*
X1194081Y2224924D01*
X1189582Y2226049D01*
X1186207D01*
X1181708Y2224924D01*
X1179458Y2223799D01*
X1177208Y2221549D01*
X1176084Y2218175D01*
Y2215925D01*
X1177208Y2212550D01*
X1178333Y2211425D01*
X1176084Y2203551D02*
Y2188928D01*
X1185082Y2196802D01*
Y2193428D01*
X1186207Y2191178D01*
X1187332Y2190053D01*
X1189582Y2188928D01*
X1195206D01*
X1197456Y2190053D01*
X1198581Y2191178D01*
X1199706Y2193428D01*
Y2200177D01*
X1198581Y2202426D01*
X1197456Y2203551D01*
X1215454Y2307882D02*
X1204205Y2315756D01*
X1215454Y2321380D02*
X1191832D01*
Y2312381D01*
X1192956Y2310132D01*
X1194081Y2309007D01*
X1196331Y2307882D01*
X1199706D01*
X1201955Y2309007D01*
X1203080Y2310132D01*
X1204205Y2312381D01*
Y2321380D01*
X1191832Y2300008D02*
Y2285385D01*
X1200831Y2293259D01*
Y2289884D01*
X1201955Y2287635D01*
X1203080Y2286510D01*
X1205330Y2285385D01*
X1210954D01*
X1213204Y2286510D01*
X1214329Y2287635D01*
X1215454Y2289884D01*
Y2296633D01*
X1214329Y2298883D01*
X1213204Y2300008D01*
X1215454Y2359063D02*
X1204205Y2366937D01*
X1215454Y2372562D02*
X1191832D01*
Y2363563D01*
X1192956Y2361313D01*
X1194081Y2360188D01*
X1196331Y2359063D01*
X1199706D01*
X1201955Y2360188D01*
X1203080Y2361313D01*
X1204205Y2363563D01*
Y2372562D01*
X1199706Y2338816D02*
X1215454D01*
X1190707Y2344440D02*
X1207580Y2350064D01*
Y2335441D01*
X1763485Y2117106D02*
Y2128355D01*
X1774734Y2129479D01*
X1773609Y2128355D01*
X1772484Y2126105D01*
Y2120481D01*
X1773609Y2118231D01*
X1774734Y2117106D01*
X1776983Y2115981D01*
X1782608D01*
X1784857Y2117106D01*
X1785982Y2118231D01*
X1787107Y2120481D01*
Y2126105D01*
X1785982Y2128355D01*
X1784857Y2129479D01*
X1763485Y2109232D02*
X1787107Y2101358D01*
X1763485Y2093484D01*
X1802518Y2428355D02*
X1804767Y2429479D01*
X1808142D01*
X1811517Y2428355D01*
X1813766Y2426105D01*
X1814891Y2423855D01*
X1816016Y2419356D01*
Y2415981D01*
X1814891Y2411482D01*
X1813766Y2409232D01*
X1811517Y2406982D01*
X1808142Y2405857D01*
X1805892D01*
X1802518Y2406982D01*
X1801393Y2408107D01*
Y2415981D01*
X1805892D01*
X2129064Y2433810D02*
X2114441D01*
X2122315Y2424811D01*
X2118941D01*
X2116691Y2423686D01*
X2115566Y2422562D01*
X2114441Y2420312D01*
Y2414688D01*
X2115566Y2412438D01*
X2116691Y2411313D01*
X2118941Y2410188D01*
X2125690D01*
X2127939Y2411313D01*
X2129064Y2412438D01*
X2107692Y2433810D02*
X2099818Y2410188D01*
X2091944Y2433810D01*
X2128389Y2105857D02*
X2112641Y2082235D01*
Y2105857D02*
X2128389Y2082235D01*
G54D11*
X2124059Y2351189D03*
G54D10*
X2012529Y2410188D02*
Y2433810D01*
X2006905D01*
X2003530Y2432685D01*
X2001280Y2430436D01*
X2000155Y2428186D01*
X1999031Y2423686D01*
Y2420312D01*
X2000155Y2415812D01*
X2001280Y2413563D01*
X2003530Y2411313D01*
X2006905Y2410188D01*
X2012529D01*
X1901786Y2412438D02*
X1902911Y2411313D01*
X1906286Y2410188D01*
X1908536D01*
X1911910Y2411313D01*
X1914160Y2413563D01*
X1915285Y2415812D01*
X1916410Y2420312D01*
Y2423686D01*
X1915285Y2428186D01*
X1914160Y2430436D01*
X1911910Y2432685D01*
X1908536Y2433810D01*
X1906286D01*
X1902911Y2432685D01*
X1901786Y2431560D01*
X2054430Y2105857D02*
X2040931D01*
X2047681Y2082235D02*
Y2105857D01*
X1984857Y2082235D02*
X1992731Y2093484D01*
X1998356Y2082235D02*
Y2105857D01*
X1989357D01*
X1987107Y2104732D01*
X1985982Y2103608D01*
X1984857Y2101358D01*
Y2097983D01*
X1985982Y2095734D01*
X1987107Y2094609D01*
X1989357Y2093484D01*
X1998356D01*
X1906539Y2362016D02*
Y2337410D01*
X2113232Y2155323D02*
Y2179929D01*
X1906539Y2155323D02*
Y2179929D01*
X2113232Y2362016D02*
X2088626D01*
X2113232Y2155323D02*
X2088626D01*
X1906539D02*
X1931145D01*
X1906539Y2362016D02*
X1931145D01*
X2153586Y2200599D02*
X2173271D01*
Y2159260D02*
X2153586D01*
X2167366Y2396465D02*
X2159492Y2386622D01*
Y2406307D02*
X2167366Y2396465D01*
X2153586Y2417134D02*
X2194925D01*
X2153586Y2375795D02*
X2194925D01*
X1882917Y2148433D02*
Y2128748D01*
X1845515D02*
Y2148433D01*
X1832720Y2273433D02*
X1852405D01*
Y2236032D02*
X1832720D01*
Y2226189D02*
X1852405D01*
Y2188788D02*
X1832720D01*
X2167366Y2128748D02*
X2159492Y2118906D01*
Y2138591D02*
X2167366Y2128748D01*
X2153586Y2149418D02*
X2194925D01*
X2153586Y2108079D02*
X2194925D01*
X2173271Y2324614D02*
X2153586D01*
Y2365953D02*
X2173271D01*
X1859295Y2283276D02*
X1839610D01*
Y2324614D02*
X1859295D01*
Y2334457D02*
X1839610D01*
Y2375795D02*
X1859295D01*
X1947175Y2401920D02*
Y2382798D01*
X1946050Y2380548D01*
X1944925Y2379423D01*
X1942675Y2378298D01*
X1938176D01*
X1935926Y2379423D01*
X1934801Y2380548D01*
X1933676Y2382798D01*
Y2401920D01*
X1910054Y2378298D02*
X1923552D01*
X1916803D02*
Y2401920D01*
X1919053Y2398546D01*
X1921303Y2396296D01*
X1923552Y2395171D01*
X1821303Y2089997D02*
X1822428Y2088872D01*
X1825802Y2087747D01*
X1828052D01*
X1831426Y2088872D01*
X1833676Y2091122D01*
X1834801Y2093371D01*
X1835926Y2097871D01*
Y2101245D01*
X1834801Y2105745D01*
X1833676Y2107995D01*
X1831426Y2110244D01*
X1828052Y2111369D01*
X1825802D01*
X1822428Y2110244D01*
X1821303Y2109119D01*
X1798806Y2087747D02*
X1812304D01*
X1805555D02*
Y2111369D01*
X1807804Y2107995D01*
X1810054Y2105745D01*
X1812304Y2104620D01*
X1788007Y2262606D02*
X1789132Y2263731D01*
X1790257Y2267106D01*
Y2269356D01*
X1789132Y2272730D01*
X1786882Y2274980D01*
X1784632Y2276105D01*
X1780133Y2277230D01*
X1776758D01*
X1772259Y2276105D01*
X1770009Y2274980D01*
X1767759Y2272730D01*
X1766635Y2269356D01*
Y2267106D01*
X1767759Y2263731D01*
X1768884Y2262606D01*
Y2253608D02*
X1767759Y2252483D01*
X1766635Y2250233D01*
Y2244609D01*
X1767759Y2242359D01*
X1768884Y2241234D01*
X1771134Y2240109D01*
X1773384D01*
X1776758Y2241234D01*
X1790257Y2254732D01*
Y2240109D01*
X1788007Y2211425D02*
X1789132Y2212550D01*
X1790257Y2215925D01*
Y2218175D01*
X1789132Y2221549D01*
X1786882Y2223799D01*
X1784632Y2224924D01*
X1780133Y2226049D01*
X1776758D01*
X1772259Y2224924D01*
X1770009Y2223799D01*
X1767759Y2221549D01*
X1766635Y2218175D01*
Y2215925D01*
X1767759Y2212550D01*
X1768884Y2211425D01*
X1766635Y2203551D02*
Y2188928D01*
X1775633Y2196802D01*
Y2193428D01*
X1776758Y2191178D01*
X1777883Y2190053D01*
X1780133Y2188928D01*
X1785757D01*
X1788007Y2190053D01*
X1789132Y2191178D01*
X1790257Y2193428D01*
Y2200177D01*
X1789132Y2202426D01*
X1788007Y2203551D01*
X1806005Y2307882D02*
X1794756Y2315756D01*
X1806005Y2321380D02*
X1782383D01*
Y2312381D01*
X1783507Y2310132D01*
X1784632Y2309007D01*
X1786882Y2307882D01*
X1790257D01*
X1792506Y2309007D01*
X1793631Y2310132D01*
X1794756Y2312381D01*
Y2321380D01*
X1782383Y2300008D02*
Y2285385D01*
X1791381Y2293259D01*
Y2289884D01*
X1792506Y2287635D01*
X1793631Y2286510D01*
X1795881Y2285385D01*
X1801505D01*
X1803755Y2286510D01*
X1804880Y2287635D01*
X1806005Y2289884D01*
Y2296633D01*
X1804880Y2298883D01*
X1803755Y2300008D01*
X1806005Y2359063D02*
X1794756Y2366937D01*
X1806005Y2372562D02*
X1782383D01*
Y2363563D01*
X1783507Y2361313D01*
X1784632Y2360188D01*
X1786882Y2359063D01*
X1790257D01*
X1792506Y2360188D01*
X1793631Y2361313D01*
X1794756Y2363563D01*
Y2372562D01*
X1790257Y2338816D02*
X1806005D01*
X1781258Y2344440D02*
X1798131Y2350064D01*
Y2335441D01*
X2354036Y2117106D02*
Y2128355D01*
X2365285Y2129479D01*
X2364160Y2128355D01*
X2363035Y2126105D01*
Y2120481D01*
X2364160Y2118231D01*
X2365285Y2117106D01*
X2367534Y2115981D01*
X2373159D01*
X2375408Y2117106D01*
X2376533Y2118231D01*
X2377658Y2120481D01*
Y2126105D01*
X2376533Y2128355D01*
X2375408Y2129479D01*
X2354036Y2109232D02*
X2377658Y2101358D01*
X2354036Y2093484D01*
X2393069Y2428355D02*
X2395318Y2429479D01*
X2398693D01*
X2402068Y2428355D01*
X2404317Y2426105D01*
X2405442Y2423855D01*
X2406567Y2419356D01*
Y2415981D01*
X2405442Y2411482D01*
X2404317Y2409232D01*
X2402068Y2406982D01*
X2398693Y2405857D01*
X2396443D01*
X2393069Y2406982D01*
X2391944Y2408107D01*
Y2415981D01*
X2396443D01*
X2719615Y2433810D02*
X2704992D01*
X2712866Y2424811D01*
X2709492D01*
X2707242Y2423686D01*
X2706117Y2422562D01*
X2704992Y2420312D01*
Y2414688D01*
X2706117Y2412438D01*
X2707242Y2411313D01*
X2709492Y2410188D01*
X2716241D01*
X2718490Y2411313D01*
X2719615Y2412438D01*
X2698243Y2433810D02*
X2690369Y2410188D01*
X2682495Y2433810D01*
X2718940Y2105857D02*
X2703192Y2082235D01*
Y2105857D02*
X2718940Y2082235D01*
G54D11*
X2714610Y2351189D03*
G54D10*
X2603080Y2410188D02*
Y2433810D01*
X2597456D01*
X2594081Y2432685D01*
X2591831Y2430436D01*
X2590706Y2428186D01*
X2589581Y2423686D01*
Y2420312D01*
X2590706Y2415812D01*
X2591831Y2413563D01*
X2594081Y2411313D01*
X2597456Y2410188D01*
X2603080D01*
X2492337Y2412438D02*
X2493462Y2411313D01*
X2496837Y2410188D01*
X2499087D01*
X2502461Y2411313D01*
X2504711Y2413563D01*
X2505836Y2415812D01*
X2506961Y2420312D01*
Y2423686D01*
X2505836Y2428186D01*
X2504711Y2430436D01*
X2502461Y2432685D01*
X2499087Y2433810D01*
X2496837D01*
X2493462Y2432685D01*
X2492337Y2431560D01*
X2644981Y2105857D02*
X2631482D01*
X2638232Y2082235D02*
Y2105857D01*
X2575408Y2082235D02*
X2583282Y2093484D01*
X2588907Y2082235D02*
Y2105857D01*
X2579908D01*
X2577658Y2104732D01*
X2576533Y2103608D01*
X2575408Y2101358D01*
Y2097983D01*
X2576533Y2095734D01*
X2577658Y2094609D01*
X2579908Y2093484D01*
X2588907D01*
X2497090Y2362016D02*
Y2337410D01*
X2703783Y2155323D02*
Y2179929D01*
X2497090Y2155323D02*
Y2179929D01*
X2703783Y2362016D02*
X2679177D01*
X2703783Y2155323D02*
X2679177D01*
X2497090D02*
X2521696D01*
X2497090Y2362016D02*
X2521696D01*
X2744137Y2200599D02*
X2763822D01*
Y2159260D02*
X2744137D01*
X2757917Y2396465D02*
X2750043Y2386622D01*
Y2406307D02*
X2757917Y2396465D01*
X2744137Y2417134D02*
X2785476D01*
X2744137Y2375795D02*
X2785476D01*
X2473468Y2148433D02*
Y2128748D01*
X2436066D02*
Y2148433D01*
X2423271Y2273433D02*
X2442956D01*
Y2236032D02*
X2423271D01*
Y2226189D02*
X2442956D01*
Y2188788D02*
X2423271D01*
X2757917Y2128748D02*
X2750043Y2118906D01*
Y2138591D02*
X2757917Y2128748D01*
X2744137Y2149418D02*
X2785476D01*
X2744137Y2108079D02*
X2785476D01*
X2763822Y2324614D02*
X2744137D01*
Y2365953D02*
X2763822D01*
X2449846Y2283276D02*
X2430161D01*
Y2324614D02*
X2449846D01*
Y2334457D02*
X2430161D01*
Y2375795D02*
X2449846D01*
X2537725Y2401920D02*
Y2382798D01*
X2536601Y2380548D01*
X2535476Y2379423D01*
X2533226Y2378298D01*
X2528727D01*
X2526477Y2379423D01*
X2525352Y2380548D01*
X2524227Y2382798D01*
Y2401920D01*
X2500605Y2378298D02*
X2514103D01*
X2507354D02*
Y2401920D01*
X2509604Y2398546D01*
X2511854Y2396296D01*
X2514103Y2395171D01*
X2411854Y2089997D02*
X2412979Y2088872D01*
X2416353Y2087747D01*
X2418603D01*
X2421977Y2088872D01*
X2424227Y2091122D01*
X2425352Y2093371D01*
X2426477Y2097871D01*
Y2101245D01*
X2425352Y2105745D01*
X2424227Y2107995D01*
X2421977Y2110244D01*
X2418603Y2111369D01*
X2416353D01*
X2412979Y2110244D01*
X2411854Y2109119D01*
X2389356Y2087747D02*
X2402855D01*
X2396106D02*
Y2111369D01*
X2398355Y2107995D01*
X2400605Y2105745D01*
X2402855Y2104620D01*
X2378558Y2262606D02*
X2379683Y2263731D01*
X2380808Y2267106D01*
Y2269356D01*
X2379683Y2272730D01*
X2377433Y2274980D01*
X2375183Y2276105D01*
X2370684Y2277230D01*
X2367309D01*
X2362810Y2276105D01*
X2360560Y2274980D01*
X2358310Y2272730D01*
X2357186Y2269356D01*
Y2267106D01*
X2358310Y2263731D01*
X2359435Y2262606D01*
Y2253608D02*
X2358310Y2252483D01*
X2357186Y2250233D01*
Y2244609D01*
X2358310Y2242359D01*
X2359435Y2241234D01*
X2361685Y2240109D01*
X2363935D01*
X2367309Y2241234D01*
X2380808Y2254732D01*
Y2240109D01*
X2378558Y2211425D02*
X2379683Y2212550D01*
X2380808Y2215925D01*
Y2218175D01*
X2379683Y2221549D01*
X2377433Y2223799D01*
X2375183Y2224924D01*
X2370684Y2226049D01*
X2367309D01*
X2362810Y2224924D01*
X2360560Y2223799D01*
X2358310Y2221549D01*
X2357186Y2218175D01*
Y2215925D01*
X2358310Y2212550D01*
X2359435Y2211425D01*
X2357186Y2203551D02*
Y2188928D01*
X2366184Y2196802D01*
Y2193428D01*
X2367309Y2191178D01*
X2368434Y2190053D01*
X2370684Y2188928D01*
X2376308D01*
X2378558Y2190053D01*
X2379683Y2191178D01*
X2380808Y2193428D01*
Y2200177D01*
X2379683Y2202426D01*
X2378558Y2203551D01*
X2396556Y2307882D02*
X2385307Y2315756D01*
X2396556Y2321380D02*
X2372934D01*
Y2312381D01*
X2374058Y2310132D01*
X2375183Y2309007D01*
X2377433Y2307882D01*
X2380808D01*
X2383057Y2309007D01*
X2384182Y2310132D01*
X2385307Y2312381D01*
Y2321380D01*
X2372934Y2300008D02*
Y2285385D01*
X2381932Y2293259D01*
Y2289884D01*
X2383057Y2287635D01*
X2384182Y2286510D01*
X2386432Y2285385D01*
X2392056D01*
X2394306Y2286510D01*
X2395431Y2287635D01*
X2396556Y2289884D01*
Y2296633D01*
X2395431Y2298883D01*
X2394306Y2300008D01*
X2396556Y2359063D02*
X2385307Y2366937D01*
X2396556Y2372562D02*
X2372934D01*
Y2363563D01*
X2374058Y2361313D01*
X2375183Y2360188D01*
X2377433Y2359063D01*
X2380808D01*
X2383057Y2360188D01*
X2384182Y2361313D01*
X2385307Y2363563D01*
Y2372562D01*
X2380808Y2338816D02*
X2396556D01*
X2371809Y2344440D02*
X2388682Y2350064D01*
Y2335441D01*
M02*
