%
M48
METRIC,000.000
T01C0.30
T02C0.79
%
T01
X000749Y002999
X000749Y008000
X000899Y007075
X000899Y005074
X007490Y010230
X009740Y006311
X010259Y000591
X010299Y010288
X010728Y005780
X011300Y008548
X011300Y002501
X011501Y007210
X011501Y003771
X015749Y002999
X015749Y008000
X015899Y007075
X015899Y005074
X022490Y010230
X024740Y006311
X025259Y000591
X025299Y010288
X025728Y005780
X026300Y008548
X026300Y002501
X026501Y007210
X026501Y003771
X030749Y002999
X030749Y008000
X030899Y007075
X030899Y005074
X037490Y010230
X039740Y006311
X040259Y000591
X040299Y010288
X040728Y005780
X041300Y008548
X041300Y002501
X041501Y007210
X041501Y003771
X045749Y002999
X045749Y008000
X045899Y007075
X045899Y005074
X052490Y010230
X054740Y006311
X055259Y000591
X055299Y010288
X055728Y005780
X056300Y008548
X056300Y002501
X056501Y007210
X056501Y003771
X060749Y002999
X060749Y008000
X060899Y007075
X060899Y005074
X067490Y010230
X069740Y006311
X070259Y000591
X070299Y010288
X070728Y005780
X071300Y008548
X071300Y002501
X071501Y007210
X071501Y003771
X075749Y002999
X075749Y008000
X075899Y007075
X075899Y005074
X082490Y010230
X084740Y006311
X085259Y000591
X085299Y010288
X085728Y005780
X086300Y008548
X086300Y002501
X086501Y007210
X086501Y003771
X000749Y015999
X000749Y021000
X000899Y020075
X000899Y018074
X007490Y023230
X009740Y019311
X010259Y013591
X010299Y023288
X010728Y018780
X011300Y021548
X011300Y015501
X011501Y020210
X011501Y016771
X000749Y028999
X000749Y034000
X000899Y033075
X000899Y031074
X007490Y036230
X009740Y032311
X010259Y026591
X010299Y036288
X010728Y031780
X011300Y034548
X011300Y028501
X011501Y033210
X011501Y029771
X000749Y041999
X000749Y047000
X000899Y046075
X000899Y044074
X007490Y049230
X009740Y045311
X010259Y039591
X010299Y049288
X010728Y044780
X011300Y047548
X011300Y041501
X011501Y046210
X011501Y042771
X000749Y054999
X000749Y060000
X000899Y059075
X000899Y057074
X007490Y062230
X009740Y058311
X010259Y052591
X010299Y062288
X010728Y057780
X011300Y060548
X011300Y054501
X011501Y059210
X011501Y055771
X000749Y067999
X000749Y073000
X000899Y072075
X000899Y070074
X007490Y075230
X009740Y071311
X010259Y065591
X010299Y075288
X010728Y070780
X011300Y073548
X011300Y067501
X011501Y072210
X011501Y068771
X000749Y080999
X000749Y086000
X000899Y085075
X000899Y083074
X007490Y088230
X009740Y084311
X010259Y078591
X010299Y088288
X010728Y083780
X011300Y086548
X011300Y080501
X011501Y085210
X011501Y081771
X015749Y015999
X015749Y021000
X015899Y020075
X015899Y018074
X022490Y023230
X024740Y019311
X025259Y013591
X025299Y023288
X025728Y018780
X026300Y021548
X026300Y015501
X026501Y020210
X026501Y016771
X030749Y015999
X030749Y021000
X030899Y020075
X030899Y018074
X037490Y023230
X039740Y019311
X040259Y013591
X040299Y023288
X040728Y018780
X041300Y021548
X041300Y015501
X041501Y020210
X041501Y016771
X045749Y015999
X045749Y021000
X045899Y020075
X045899Y018074
X052490Y023230
X054740Y019311
X055259Y013591
X055299Y023288
X055728Y018780
X056300Y021548
X056300Y015501
X056501Y020210
X056501Y016771
X060749Y015999
X060749Y021000
X060899Y020075
X060899Y018074
X067490Y023230
X069740Y019311
X070259Y013591
X070299Y023288
X070728Y018780
X071300Y021548
X071300Y015501
X071501Y020210
X071501Y016771
X075749Y015999
X075749Y021000
X075899Y020075
X075899Y018074
X082490Y023230
X084740Y019311
X085259Y013591
X085299Y023288
X085728Y018780
X086300Y021548
X086300Y015501
X086501Y020210
X086501Y016771
X015749Y028999
X015749Y034000
X015899Y033075
X015899Y031074
X022490Y036230
X024740Y032311
X025259Y026591
X025299Y036288
X025728Y031780
X026300Y034548
X026300Y028501
X026501Y033210
X026501Y029771
X015749Y041999
X015749Y047000
X015899Y046075
X015899Y044074
X022490Y049230
X024740Y045311
X025259Y039591
X025299Y049288
X025728Y044780
X026300Y047548
X026300Y041501
X026501Y046210
X026501Y042771
X015749Y054999
X015749Y060000
X015899Y059075
X015899Y057074
X022490Y062230
X024740Y058311
X025259Y052591
X025299Y062288
X025728Y057780
X026300Y060548
X026300Y054501
X026501Y059210
X026501Y055771
X015749Y067999
X015749Y073000
X015899Y072075
X015899Y070074
X022490Y075230
X024740Y071311
X025259Y065591
X025299Y075288
X025728Y070780
X026300Y073548
X026300Y067501
X026501Y072210
X026501Y068771
X015749Y080999
X015749Y086000
X015899Y085075
X015899Y083074
X022490Y088230
X024740Y084311
X025259Y078591
X025299Y088288
X025728Y083780
X026300Y086548
X026300Y080501
X026501Y085210
X026501Y081771
X030749Y028999
X030749Y034000
X030899Y033075
X030899Y031074
X037490Y036230
X039740Y032311
X040259Y026591
X040299Y036288
X040728Y031780
X041300Y034548
X041300Y028501
X041501Y033210
X041501Y029771
X045749Y028999
X045749Y034000
X045899Y033075
X045899Y031074
X052490Y036230
X054740Y032311
X055259Y026591
X055299Y036288
X055728Y031780
X056300Y034548
X056300Y028501
X056501Y033210
X056501Y029771
X060749Y028999
X060749Y034000
X060899Y033075
X060899Y031074
X067490Y036230
X069740Y032311
X070259Y026591
X070299Y036288
X070728Y031780
X071300Y034548
X071300Y028501
X071501Y033210
X071501Y029771
X075749Y028999
X075749Y034000
X075899Y033075
X075899Y031074
X082490Y036230
X084740Y032311
X085259Y026591
X085299Y036288
X085728Y031780
X086300Y034548
X086300Y028501
X086501Y033210
X086501Y029771
X030749Y041999
X030749Y047000
X030899Y046075
X030899Y044074
X037490Y049230
X039740Y045311
X040259Y039591
X040299Y049288
X040728Y044780
X041300Y047548
X041300Y041501
X041501Y046210
X041501Y042771
X030749Y054999
X030749Y060000
X030899Y059075
X030899Y057074
X037490Y062230
X039740Y058311
X040259Y052591
X040299Y062288
X040728Y057780
X041300Y060548
X041300Y054501
X041501Y059210
X041501Y055771
X030749Y067999
X030749Y073000
X030899Y072075
X030899Y070074
X037490Y075230
X039740Y071311
X040259Y065591
X040299Y075288
X040728Y070780
X041300Y073548
X041300Y067501
X041501Y072210
X041501Y068771
X030749Y080999
X030749Y086000
X030899Y085075
X030899Y083074
X037490Y088230
X039740Y084311
X040259Y078591
X040299Y088288
X040728Y083780
X041300Y086548
X041300Y080501
X041501Y085210
X041501Y081771
X045749Y041999
X045749Y047000
X045899Y046075
X045899Y044074
X052490Y049230
X054740Y045311
X055259Y039591
X055299Y049288
X055728Y044780
X056300Y047548
X056300Y041501
X056501Y046210
X056501Y042771
X060749Y041999
X060749Y047000
X060899Y046075
X060899Y044074
X067490Y049230
X069740Y045311
X070259Y039591
X070299Y049288
X070728Y044780
X071300Y047548
X071300Y041501
X071501Y046210
X071501Y042771
X075749Y041999
X075749Y047000
X075899Y046075
X075899Y044074
X082490Y049230
X084740Y045311
X085259Y039591
X085299Y049288
X085728Y044780
X086300Y047548
X086300Y041501
X086501Y046210
X086501Y042771
X045749Y054999
X045749Y060000
X045899Y059075
X045899Y057074
X052490Y062230
X054740Y058311
X055259Y052591
X055299Y062288
X055728Y057780
X056300Y060548
X056300Y054501
X056501Y059210
X056501Y055771
X045749Y067999
X045749Y073000
X045899Y072075
X045899Y070074
X052490Y075230
X054740Y071311
X055259Y065591
X055299Y075288
X055728Y070780
X056300Y073548
X056300Y067501
X056501Y072210
X056501Y068771
X045749Y080999
X045749Y086000
X045899Y085075
X045899Y083074
X052490Y088230
X054740Y084311
X055259Y078591
X055299Y088288
X055728Y083780
X056300Y086548
X056300Y080501
X056501Y085210
X056501Y081771
X060749Y054999
X060749Y060000
X060899Y059075
X060899Y057074
X067490Y062230
X069740Y058311
X070259Y052591
X070299Y062288
X070728Y057780
X071300Y060548
X071300Y054501
X071501Y059210
X071501Y055771
X075749Y054999
X075749Y060000
X075899Y059075
X075899Y057074
X082490Y062230
X084740Y058311
X085259Y052591
X085299Y062288
X085728Y057780
X086300Y060548
X086300Y054501
X086501Y059210
X086501Y055771
X060749Y067999
X060749Y073000
X060899Y072075
X060899Y070074
X067490Y075230
X069740Y071311
X070259Y065591
X070299Y075288
X070728Y070780
X071300Y073548
X071300Y067501
X071501Y072210
X071501Y068771
X060749Y080999
X060749Y086000
X060899Y085075
X060899Y083074
X067490Y088230
X069740Y084311
X070259Y078591
X070299Y088288
X070728Y083780
X071300Y086548
X071300Y080501
X071501Y085210
X071501Y081771
X075749Y067999
X075749Y073000
X075899Y072075
X075899Y070074
X082490Y075230
X084740Y071311
X085259Y065591
X085299Y075288
X085728Y070780
X086300Y073548
X086300Y067501
X086501Y072210
X086501Y068771
X075749Y080999
X075749Y086000
X075899Y085075
X075899Y083074
X082490Y088230
X084740Y084311
X085259Y078591
X085299Y088288
X085728Y083780
X086300Y086548
X086300Y080501
X086501Y085210
X086501Y081771
T02
X011998Y004650G85X011998Y006349
X026998Y004650G85X026998Y006349
X041998Y004650G85X041998Y006349
X056998Y004650G85X056998Y006349
X071998Y004650G85X071998Y006349
X086998Y004650G85X086998Y006349
X011998Y017650G85X011998Y019349
X011998Y030650G85X011998Y032348
X011998Y043650G85X011998Y045349
X011998Y056650G85X011998Y058349
X011998Y069650G85X011998Y071349
X011998Y082650G85X011998Y084349
X026998Y017650G85X026998Y019349
X041998Y017650G85X041998Y019349
X056998Y017650G85X056998Y019349
X071998Y017650G85X071998Y019349
X086998Y017650G85X086998Y019349
X026998Y030650G85X026998Y032348
X026998Y043650G85X026998Y045349
X026998Y056650G85X026998Y058349
X026998Y069650G85X026998Y071349
X026998Y082650G85X026998Y084349
X041998Y030650G85X041998Y032348
X056998Y030650G85X056998Y032348
X071998Y030650G85X071998Y032348
X086998Y030650G85X086998Y032348
X041998Y043650G85X041998Y045349
X041998Y056650G85X041998Y058349
X041998Y069650G85X041998Y071349
X041998Y082650G85X041998Y084349
X056998Y043650G85X056998Y045349
X071998Y043650G85X071998Y045349
X086998Y043650G85X086998Y045349
X056998Y056650G85X056998Y058349
X056998Y069650G85X056998Y071349
X056998Y082650G85X056998Y084349
X071998Y056650G85X071998Y058349
X086998Y056650G85X086998Y058349
X071998Y069650G85X071998Y071349
X071998Y082650G85X071998Y084349
X086998Y069650G85X086998Y071349
X086998Y082650G85X086998Y084349
M30