%MOIN*%
%OFA0B0*%
%FSLAX44Y44*%
%IPPOS*%
%LPD*%
%ADD10C,0*%
D10*
X00022770Y00031700D02*
X00022770Y00031700D01*
X00022773Y00031726D01*
X00022778Y00031752D01*
X00022784Y00031778D01*
X00022793Y00031803D01*
X00022802Y00031827D01*
X00022814Y00031851D01*
X00022827Y00031874D01*
X00022842Y00031896D01*
X00022858Y00031917D01*
X00022875Y00031937D01*
X00022894Y00031956D01*
X00022914Y00031973D01*
X00022935Y00031989D01*
X00022957Y00032003D01*
X00022980Y00032016D01*
X00023004Y00032028D01*
X00023029Y00032038D01*
X00023054Y00032046D01*
X00023079Y00032052D01*
X00023105Y00032057D01*
X00023171Y00032066D01*
X00023205Y00032070D01*
X00023238Y00032070D01*
X00023272Y00032068D01*
X00023305Y00032063D01*
X00023338Y00032055D01*
X00023370Y00032044D01*
X00023401Y00032030D01*
X00023431Y00032014D01*
X00023459Y00031996D01*
X00023485Y00031975D01*
X00023510Y00031951D01*
X00023532Y00031926D01*
X00023553Y00031899D01*
X00023571Y00031871D01*
X00023586Y00031840D01*
X00023599Y00031809D01*
X00023609Y00031777D01*
X00023616Y00031744D01*
X00023620Y00031710D01*
X00023622Y00031677D01*
X00023622Y00030885D01*
X00023624Y00030857D01*
X00023632Y00030830D01*
X00023643Y00030804D01*
X00023658Y00030780D01*
X00023677Y00030758D01*
X00023699Y00030740D01*
X00023724Y00030726D01*
X00023750Y00030716D01*
X00023778Y00030710D01*
X00023803Y00030708D01*
X00025068Y00030708D01*
X00025129Y00030703D01*
X00025189Y00030689D01*
X00025246Y00030665D01*
X00025299Y00030633D01*
X00025346Y00030593D01*
X00025386Y00030546D01*
X00025419Y00030493D01*
X00025442Y00030436D01*
X00025457Y00030376D01*
X00025461Y00030314D01*
X00025457Y00030253D01*
X00025442Y00030193D01*
X00025419Y00030136D01*
X00025386Y00030083D01*
X00025346Y00030036D01*
X00025299Y00029996D01*
X00025246Y00029964D01*
X00025189Y00029940D01*
X00025129Y00029926D01*
X00025068Y00029921D01*
X00024936Y00029921D01*
X00023799Y00029921D01*
X00023770Y00029918D01*
X00023743Y00029911D01*
X00023717Y00029899D01*
X00023693Y00029884D01*
X00023672Y00029865D01*
X00023654Y00029843D01*
X00023639Y00029818D01*
X00023629Y00029792D01*
X00023623Y00029764D01*
X00023622Y00029732D01*
X00023622Y00025767D01*
X00023624Y00025739D01*
X00023632Y00025711D01*
X00023643Y00025685D01*
X00023658Y00025662D01*
X00023677Y00025640D01*
X00023699Y00025622D01*
X00023724Y00025608D01*
X00023750Y00025598D01*
X00023778Y00025592D01*
X00023803Y00025590D01*
X00025068Y00025590D01*
X00025129Y00025585D01*
X00025189Y00025571D01*
X00025246Y00025547D01*
X00025299Y00025515D01*
X00025346Y00025475D01*
X00025386Y00025428D01*
X00025419Y00025375D01*
X00025442Y00025318D01*
X00025457Y00025258D01*
X00025461Y00025196D01*
X00025457Y00025135D01*
X00025442Y00025075D01*
X00025419Y00025018D01*
X00025386Y00024965D01*
X00025346Y00024918D01*
X00025299Y00024878D01*
X00025246Y00024846D01*
X00025189Y00024822D01*
X00025129Y00024807D01*
X00025068Y00024803D01*
X00024936Y00024803D01*
X00023799Y00024803D01*
X00023770Y00024800D01*
X00023743Y00024793D01*
X00023717Y00024781D01*
X00023693Y00024766D01*
X00023672Y00024747D01*
X00023654Y00024725D01*
X00023639Y00024700D01*
X00023629Y00024674D01*
X00023623Y00024646D01*
X00023622Y00024614D01*
X00023622Y00020649D01*
X00023624Y00020621D01*
X00023632Y00020593D01*
X00023643Y00020567D01*
X00023658Y00020543D01*
X00023677Y00020522D01*
X00023699Y00020504D01*
X00023724Y00020490D01*
X00023750Y00020480D01*
X00023778Y00020474D01*
X00023803Y00020472D01*
X00025068Y00020472D01*
X00025129Y00020467D01*
X00025189Y00020453D01*
X00025246Y00020429D01*
X00025299Y00020397D01*
X00025346Y00020357D01*
X00025386Y00020310D01*
X00025419Y00020257D01*
X00025442Y00020200D01*
X00025457Y00020140D01*
X00025461Y00020078D01*
X00025457Y00020017D01*
X00025442Y00019957D01*
X00025419Y00019900D01*
X00025386Y00019847D01*
X00025346Y00019800D01*
X00025299Y00019760D01*
X00025246Y00019727D01*
X00025189Y00019704D01*
X00025129Y00019689D01*
X00025068Y00019685D01*
X00024936Y00019685D01*
X00023799Y00019685D01*
X00023770Y00019682D01*
X00023743Y00019674D01*
X00023717Y00019663D01*
X00023693Y00019648D01*
X00023672Y00019629D01*
X00023654Y00019607D01*
X00023639Y00019582D01*
X00023629Y00019556D01*
X00023623Y00019528D01*
X00023622Y00019496D01*
X00023622Y00015531D01*
X00023624Y00015503D01*
X00023632Y00015475D01*
X00023643Y00015449D01*
X00023658Y00015425D01*
X00023677Y00015404D01*
X00023699Y00015386D01*
X00023724Y00015372D01*
X00023750Y00015361D01*
X00023778Y00015355D01*
X00023803Y00015354D01*
X00024871Y00015354D01*
X00024932Y00015349D01*
X00024993Y00015335D01*
X00025050Y00015311D01*
X00025102Y00015279D01*
X00025149Y00015239D01*
X00025189Y00015192D01*
X00025222Y00015139D01*
X00025245Y00015082D01*
X00025260Y00015022D01*
X00025265Y00014960D01*
X00025260Y00014899D01*
X00025245Y00014838D01*
X00025222Y00014781D01*
X00025189Y00014729D01*
X00025149Y00014682D01*
X00025102Y00014642D01*
X00025050Y00014609D01*
X00024993Y00014586D01*
X00024932Y00014571D01*
X00024871Y00014566D01*
X00024739Y00014566D01*
X00023799Y00014566D01*
X00023770Y00014564D01*
X00023743Y00014556D01*
X00023717Y00014545D01*
X00023693Y00014530D01*
X00023672Y00014511D01*
X00023654Y00014489D01*
X00023639Y00014464D01*
X00023629Y00014438D01*
X00023623Y00014410D01*
X00023622Y00014377D01*
X00023622Y00010413D01*
X00023624Y00010385D01*
X00023632Y00010357D01*
X00023643Y00010331D01*
X00023658Y00010307D01*
X00023677Y00010286D01*
X00023699Y00010268D01*
X00023724Y00010254D01*
X00023750Y00010243D01*
X00023778Y00010237D01*
X00023803Y00010236D01*
X00024871Y00010236D01*
X00024932Y00010231D01*
X00024993Y00010216D01*
X00025050Y00010193D01*
X00025102Y00010161D01*
X00025149Y00010120D01*
X00025189Y00010073D01*
X00025222Y00010021D01*
X00025245Y00009964D01*
X00025260Y00009904D01*
X00025265Y00009842D01*
X00025260Y00009780D01*
X00025245Y00009720D01*
X00025222Y00009663D01*
X00025189Y00009611D01*
X00025149Y00009564D01*
X00025102Y00009524D01*
X00025050Y00009491D01*
X00024993Y00009468D01*
X00024932Y00009453D01*
X00024871Y00009448D01*
X00024739Y00009448D01*
X00023799Y00009448D01*
X00023770Y00009445D01*
X00023743Y00009438D01*
X00023717Y00009427D01*
X00023693Y00009411D01*
X00023672Y00009392D01*
X00023654Y00009370D01*
X00023639Y00009346D01*
X00023629Y00009319D01*
X00023623Y00009292D01*
X00023622Y00009259D01*
X00023622Y00005295D01*
X00023624Y00005266D01*
X00023632Y00005239D01*
X00023643Y00005213D01*
X00023658Y00005189D01*
X00023677Y00005168D01*
X00023699Y00005150D01*
X00023724Y00005136D01*
X00023750Y00005125D01*
X00023778Y00005119D01*
X00023803Y00005118D01*
X00025068Y00005118D01*
X00025129Y00005113D01*
X00025189Y00005098D01*
X00025246Y00005075D01*
X00025299Y00005042D01*
X00025346Y00005002D01*
X00025386Y00004955D01*
X00025419Y00004903D01*
X00025442Y00004846D01*
X00025457Y00004785D01*
X00025461Y00004724D01*
X00025457Y00004662D01*
X00025442Y00004602D01*
X00025419Y00004545D01*
X00025386Y00004492D01*
X00025346Y00004446D01*
X00025299Y00004405D01*
X00025246Y00004373D01*
X00025189Y00004349D01*
X00025129Y00004335D01*
X00025068Y00004330D01*
X00024936Y00004330D01*
X00023799Y00004330D01*
X00023770Y00004327D01*
X00023743Y00004320D01*
X00023717Y00004309D01*
X00023693Y00004293D01*
X00023672Y00004274D01*
X00023654Y00004252D01*
X00023639Y00004228D01*
X00023629Y00004201D01*
X00023623Y00004174D01*
X00023622Y00004141D01*
X00023622Y00003362D01*
X00023620Y00003328D01*
X00023616Y00003294D01*
X00023609Y00003261D01*
X00023599Y00003229D01*
X00023586Y00003198D01*
X00023571Y00003168D01*
X00023553Y00003139D01*
X00023532Y00003112D01*
X00023510Y00003087D01*
X00023485Y00003064D01*
X00023459Y00003043D01*
X00023431Y00003024D01*
X00023401Y00003008D01*
X00023370Y00002995D01*
X00023338Y00002984D01*
X00023305Y00002976D01*
X00023272Y00002970D01*
X00023238Y00002968D01*
X00023205Y00002969D01*
X00023171Y00002972D01*
X00023105Y00002982D01*
X00023079Y00002986D01*
X00023054Y00002993D01*
X00023029Y00003001D01*
X00023004Y00003011D01*
X00022980Y00003022D01*
X00022957Y00003035D01*
X00022935Y00003050D01*
X00022914Y00003066D01*
X00022894Y00003083D01*
X00022875Y00003101D01*
X00022858Y00003121D01*
X00022842Y00003142D01*
X00022827Y00003164D01*
X00022814Y00003187D01*
X00022802Y00003211D01*
X00022793Y00003236D01*
X00022784Y00003261D01*
X00022778Y00003286D01*
X00022773Y00003312D01*
X00022770Y00003338D01*
X00022767Y00003370D01*
X00022763Y00003413D01*
X00022755Y00003456D01*
X00022751Y00003496D01*
X00022744Y00003539D01*
X00022740Y00003578D01*
X00022724Y00003657D01*
X00022720Y00003696D01*
X00022712Y00003732D01*
X00022704Y00003771D01*
X00022696Y00003803D01*
X00022688Y00003838D01*
X00022685Y00003874D01*
X00022677Y00003905D01*
X00022669Y00003937D01*
X00022661Y00003964D01*
X00022649Y00003996D01*
X00022633Y00004051D01*
X00022602Y00004145D01*
X00022590Y00004165D01*
X00022574Y00004204D01*
X00022562Y00004220D01*
X00022547Y00004251D01*
X00022535Y00004267D01*
X00022527Y00004279D01*
X00022500Y00004307D01*
X00022488Y00004314D01*
X00022480Y00004318D01*
X00022468Y00004326D01*
X00022460Y00004326D01*
X00022448Y00004330D01*
X00021519Y00004330D01*
X00021388Y00004330D01*
X00021326Y00004335D01*
X00021266Y00004349D01*
X00021209Y00004373D01*
X00021157Y00004405D01*
X00021110Y00004446D01*
X00021069Y00004492D01*
X00021037Y00004545D01*
X00021014Y00004602D01*
X00020999Y00004662D01*
X00020994Y00004724D01*
X00020999Y00004785D01*
X00021014Y00004846D01*
X00021037Y00004903D01*
X00021069Y00004955D01*
X00021110Y00005002D01*
X00021157Y00005042D01*
X00021209Y00005075D01*
X00021266Y00005098D01*
X00021326Y00005113D01*
X00021388Y00005118D01*
X00022448Y00005118D01*
X00022460Y00005122D01*
X00022468Y00005122D01*
X00022480Y00005129D01*
X00022488Y00005133D01*
X00022500Y00005141D01*
X00022527Y00005169D01*
X00022535Y00005181D01*
X00022547Y00005196D01*
X00022562Y00005228D01*
X00022574Y00005244D01*
X00022590Y00005283D01*
X00022602Y00005303D01*
X00022625Y00005374D01*
X00022633Y00005397D01*
X00022641Y00005425D01*
X00022649Y00005452D01*
X00022661Y00005484D01*
X00022669Y00005511D01*
X00022685Y00005574D01*
X00022688Y00005610D01*
X00022696Y00005645D01*
X00022704Y00005677D01*
X00022712Y00005716D01*
X00022720Y00005751D01*
X00022724Y00005791D01*
X00022732Y00005830D01*
X00022740Y00005870D01*
X00022744Y00005909D01*
X00022751Y00005952D01*
X00022755Y00005992D01*
X00022763Y00006035D01*
X00022767Y00006078D01*
X00022771Y00006125D01*
X00022779Y00006169D01*
X00022799Y00006405D01*
X00022803Y00006456D01*
X00022807Y00006503D01*
X00022811Y00006555D01*
X00022814Y00006602D01*
X00022818Y00006653D01*
X00022818Y00006704D01*
X00022826Y00006807D01*
X00022826Y00006862D01*
X00022830Y00006913D01*
X00022830Y00007019D01*
X00022834Y00007070D01*
X00022834Y00007496D01*
X00022830Y00007547D01*
X00022830Y00007653D01*
X00022826Y00007704D01*
X00022826Y00007759D01*
X00022818Y00007862D01*
X00022818Y00007913D01*
X00022814Y00007964D01*
X00022811Y00008011D01*
X00022807Y00008062D01*
X00022803Y00008110D01*
X00022799Y00008161D01*
X00022779Y00008397D01*
X00022771Y00008440D01*
X00022767Y00008488D01*
X00022763Y00008531D01*
X00022755Y00008574D01*
X00022751Y00008614D01*
X00022744Y00008657D01*
X00022740Y00008696D01*
X00022724Y00008775D01*
X00022720Y00008814D01*
X00022712Y00008850D01*
X00022704Y00008889D01*
X00022696Y00008921D01*
X00022688Y00008956D01*
X00022685Y00008992D01*
X00022677Y00009023D01*
X00022669Y00009055D01*
X00022661Y00009082D01*
X00022649Y00009114D01*
X00022633Y00009169D01*
X00022602Y00009263D01*
X00022590Y00009283D01*
X00022574Y00009322D01*
X00022562Y00009338D01*
X00022547Y00009370D01*
X00022535Y00009385D01*
X00022527Y00009397D01*
X00022500Y00009425D01*
X00022488Y00009433D01*
X00022480Y00009437D01*
X00022468Y00009444D01*
X00022460Y00009444D01*
X00022448Y00009448D01*
X00021519Y00009448D01*
X00021388Y00009448D01*
X00021326Y00009453D01*
X00021266Y00009468D01*
X00021209Y00009491D01*
X00021157Y00009524D01*
X00021110Y00009564D01*
X00021069Y00009611D01*
X00021037Y00009663D01*
X00021014Y00009720D01*
X00020999Y00009780D01*
X00020994Y00009842D01*
X00020999Y00009904D01*
X00021014Y00009964D01*
X00021037Y00010021D01*
X00021069Y00010073D01*
X00021110Y00010120D01*
X00021157Y00010161D01*
X00021209Y00010193D01*
X00021266Y00010216D01*
X00021326Y00010231D01*
X00021388Y00010236D01*
X00022448Y00010236D01*
X00022460Y00010240D01*
X00022468Y00010240D01*
X00022480Y00010248D01*
X00022488Y00010251D01*
X00022500Y00010259D01*
X00022527Y00010287D01*
X00022535Y00010299D01*
X00022547Y00010314D01*
X00022562Y00010346D01*
X00022574Y00010362D01*
X00022590Y00010401D01*
X00022602Y00010421D01*
X00022625Y00010492D01*
X00022633Y00010515D01*
X00022641Y00010543D01*
X00022649Y00010570D01*
X00022661Y00010602D01*
X00022669Y00010629D01*
X00022685Y00010692D01*
X00022688Y00010728D01*
X00022696Y00010763D01*
X00022704Y00010795D01*
X00022712Y00010834D01*
X00022720Y00010870D01*
X00022724Y00010909D01*
X00022732Y00010948D01*
X00022740Y00010988D01*
X00022744Y00011027D01*
X00022751Y00011070D01*
X00022755Y00011110D01*
X00022763Y00011153D01*
X00022767Y00011196D01*
X00022771Y00011244D01*
X00022779Y00011287D01*
X00022799Y00011523D01*
X00022803Y00011574D01*
X00022807Y00011622D01*
X00022811Y00011673D01*
X00022814Y00011720D01*
X00022818Y00011771D01*
X00022818Y00011822D01*
X00022826Y00011925D01*
X00022826Y00011980D01*
X00022830Y00012031D01*
X00022830Y00012137D01*
X00022834Y00012188D01*
X00022834Y00012614D01*
X00022830Y00012665D01*
X00022830Y00012771D01*
X00022826Y00012822D01*
X00022826Y00012877D01*
X00022818Y00012980D01*
X00022818Y00013031D01*
X00022814Y00013082D01*
X00022811Y00013129D01*
X00022807Y00013181D01*
X00022803Y00013228D01*
X00022799Y00013279D01*
X00022779Y00013515D01*
X00022771Y00013559D01*
X00022767Y00013606D01*
X00022763Y00013649D01*
X00022755Y00013692D01*
X00022751Y00013732D01*
X00022744Y00013775D01*
X00022740Y00013814D01*
X00022724Y00013893D01*
X00022720Y00013933D01*
X00022712Y00013968D01*
X00022704Y00014007D01*
X00022696Y00014039D01*
X00022688Y00014074D01*
X00022685Y00014110D01*
X00022677Y00014141D01*
X00022669Y00014173D01*
X00022661Y00014200D01*
X00022649Y00014232D01*
X00022633Y00014287D01*
X00022602Y00014381D01*
X00022590Y00014401D01*
X00022574Y00014440D01*
X00022562Y00014456D01*
X00022547Y00014488D01*
X00022535Y00014503D01*
X00022527Y00014515D01*
X00022500Y00014543D01*
X00022488Y00014551D01*
X00022480Y00014555D01*
X00022468Y00014562D01*
X00022460Y00014562D01*
X00022448Y00014566D01*
X00021519Y00014566D01*
X00021388Y00014566D01*
X00021326Y00014571D01*
X00021266Y00014586D01*
X00021209Y00014609D01*
X00021157Y00014642D01*
X00021110Y00014682D01*
X00021069Y00014729D01*
X00021037Y00014781D01*
X00021014Y00014838D01*
X00020999Y00014899D01*
X00020994Y00014960D01*
X00020999Y00015022D01*
X00021014Y00015082D01*
X00021037Y00015139D01*
X00021069Y00015192D01*
X00021110Y00015239D01*
X00021157Y00015279D01*
X00021209Y00015311D01*
X00021266Y00015335D01*
X00021326Y00015349D01*
X00021388Y00015354D01*
X00022448Y00015354D01*
X00022460Y00015358D01*
X00022468Y00015358D01*
X00022480Y00015366D01*
X00022488Y00015370D01*
X00022500Y00015377D01*
X00022527Y00015405D01*
X00022535Y00015417D01*
X00022547Y00015433D01*
X00022562Y00015464D01*
X00022574Y00015480D01*
X00022590Y00015519D01*
X00022602Y00015539D01*
X00022625Y00015610D01*
X00022633Y00015633D01*
X00022641Y00015661D01*
X00022649Y00015688D01*
X00022661Y00015720D01*
X00022669Y00015748D01*
X00022685Y00015811D01*
X00022688Y00015846D01*
X00022696Y00015881D01*
X00022704Y00015913D01*
X00022712Y00015952D01*
X00022720Y00015988D01*
X00022724Y00016027D01*
X00022732Y00016066D01*
X00022740Y00016106D01*
X00022744Y00016145D01*
X00022751Y00016188D01*
X00022755Y00016228D01*
X00022763Y00016271D01*
X00022767Y00016314D01*
X00022771Y00016362D01*
X00022779Y00016405D01*
X00022799Y00016641D01*
X00022803Y00016692D01*
X00022807Y00016740D01*
X00022811Y00016791D01*
X00022814Y00016838D01*
X00022818Y00016889D01*
X00022818Y00016940D01*
X00022826Y00017043D01*
X00022826Y00017098D01*
X00022830Y00017149D01*
X00022830Y00017255D01*
X00022834Y00017307D01*
X00022834Y00017732D01*
X00022830Y00017783D01*
X00022830Y00017889D01*
X00022826Y00017940D01*
X00022826Y00017996D01*
X00022818Y00018098D01*
X00022818Y00018149D01*
X00022814Y00018200D01*
X00022811Y00018248D01*
X00022807Y00018299D01*
X00022803Y00018346D01*
X00022799Y00018397D01*
X00022779Y00018633D01*
X00022771Y00018677D01*
X00022767Y00018724D01*
X00022763Y00018767D01*
X00022755Y00018811D01*
X00022751Y00018850D01*
X00022744Y00018893D01*
X00022740Y00018933D01*
X00022724Y00019011D01*
X00022720Y00019051D01*
X00022712Y00019086D01*
X00022704Y00019125D01*
X00022696Y00019157D01*
X00022688Y00019192D01*
X00022685Y00019228D01*
X00022677Y00019259D01*
X00022669Y00019291D01*
X00022661Y00019318D01*
X00022649Y00019350D01*
X00022633Y00019405D01*
X00022602Y00019500D01*
X00022590Y00019519D01*
X00022574Y00019559D01*
X00022562Y00019574D01*
X00022547Y00019606D01*
X00022535Y00019622D01*
X00022527Y00019633D01*
X00022500Y00019661D01*
X00022488Y00019669D01*
X00022480Y00019673D01*
X00022468Y00019681D01*
X00022460Y00019681D01*
X00022448Y00019685D01*
X00021519Y00019685D01*
X00021388Y00019685D01*
X00021326Y00019689D01*
X00021266Y00019704D01*
X00021209Y00019727D01*
X00021157Y00019760D01*
X00021110Y00019800D01*
X00021069Y00019847D01*
X00021037Y00019900D01*
X00021014Y00019957D01*
X00020999Y00020017D01*
X00020994Y00020078D01*
X00020999Y00020140D01*
X00021014Y00020200D01*
X00021037Y00020257D01*
X00021069Y00020310D01*
X00021110Y00020357D01*
X00021157Y00020397D01*
X00021209Y00020429D01*
X00021266Y00020453D01*
X00021326Y00020467D01*
X00021388Y00020472D01*
X00022448Y00020472D01*
X00022460Y00020476D01*
X00022468Y00020476D01*
X00022480Y00020484D01*
X00022488Y00020488D01*
X00022500Y00020496D01*
X00022527Y00020523D01*
X00022535Y00020535D01*
X00022547Y00020551D01*
X00022562Y00020582D01*
X00022574Y00020598D01*
X00022590Y00020637D01*
X00022602Y00020657D01*
X00022625Y00020728D01*
X00022633Y00020751D01*
X00022641Y00020779D01*
X00022649Y00020807D01*
X00022661Y00020838D01*
X00022669Y00020866D01*
X00022685Y00020929D01*
X00022688Y00020964D01*
X00022696Y00021000D01*
X00022704Y00021031D01*
X00022712Y00021070D01*
X00022720Y00021106D01*
X00022724Y00021145D01*
X00022732Y00021185D01*
X00022740Y00021224D01*
X00022744Y00021263D01*
X00022751Y00021307D01*
X00022755Y00021346D01*
X00022763Y00021389D01*
X00022767Y00021433D01*
X00022771Y00021480D01*
X00022779Y00021523D01*
X00022799Y00021759D01*
X00022803Y00021811D01*
X00022807Y00021858D01*
X00022811Y00021909D01*
X00022814Y00021956D01*
X00022818Y00022007D01*
X00022818Y00022059D01*
X00022826Y00022161D01*
X00022826Y00022216D01*
X00022830Y00022267D01*
X00022830Y00022374D01*
X00022834Y00022425D01*
X00022834Y00022850D01*
X00022830Y00022901D01*
X00022830Y00023007D01*
X00022826Y00023059D01*
X00022826Y00023114D01*
X00022818Y00023216D01*
X00022818Y00023267D01*
X00022814Y00023318D01*
X00022811Y00023366D01*
X00022807Y00023417D01*
X00022803Y00023464D01*
X00022799Y00023515D01*
X00022779Y00023751D01*
X00022771Y00023795D01*
X00022767Y00023842D01*
X00022763Y00023885D01*
X00022755Y00023929D01*
X00022751Y00023968D01*
X00022744Y00024011D01*
X00022740Y00024051D01*
X00022724Y00024129D01*
X00022720Y00024169D01*
X00022712Y00024204D01*
X00022704Y00024244D01*
X00022696Y00024275D01*
X00022688Y00024311D01*
X00022685Y00024346D01*
X00022677Y00024377D01*
X00022669Y00024409D01*
X00022661Y00024437D01*
X00022649Y00024468D01*
X00022633Y00024523D01*
X00022602Y00024618D01*
X00022590Y00024637D01*
X00022574Y00024677D01*
X00022562Y00024692D01*
X00022547Y00024724D01*
X00022535Y00024740D01*
X00022527Y00024751D01*
X00022500Y00024779D01*
X00022488Y00024787D01*
X00022480Y00024791D01*
X00022468Y00024799D01*
X00022460Y00024799D01*
X00022448Y00024803D01*
X00021519Y00024803D01*
X00021388Y00024803D01*
X00021326Y00024807D01*
X00021266Y00024822D01*
X00021209Y00024846D01*
X00021157Y00024878D01*
X00021110Y00024918D01*
X00021069Y00024965D01*
X00021037Y00025018D01*
X00021014Y00025075D01*
X00020999Y00025135D01*
X00020994Y00025196D01*
X00020999Y00025258D01*
X00021014Y00025318D01*
X00021037Y00025375D01*
X00021069Y00025428D01*
X00021110Y00025475D01*
X00021157Y00025515D01*
X00021209Y00025547D01*
X00021266Y00025571D01*
X00021326Y00025585D01*
X00021388Y00025590D01*
X00022448Y00025590D01*
X00022460Y00025594D01*
X00022468Y00025594D01*
X00022480Y00025602D01*
X00022488Y00025606D01*
X00022500Y00025614D01*
X00022527Y00025641D01*
X00022535Y00025653D01*
X00022547Y00025669D01*
X00022562Y00025700D01*
X00022574Y00025716D01*
X00022590Y00025755D01*
X00022602Y00025775D01*
X00022625Y00025846D01*
X00022633Y00025870D01*
X00022641Y00025897D01*
X00022649Y00025925D01*
X00022661Y00025956D01*
X00022669Y00025984D01*
X00022685Y00026047D01*
X00022688Y00026082D01*
X00022696Y00026118D01*
X00022704Y00026149D01*
X00022712Y00026188D01*
X00022720Y00026224D01*
X00022724Y00026263D01*
X00022732Y00026303D01*
X00022740Y00026342D01*
X00022744Y00026381D01*
X00022751Y00026425D01*
X00022755Y00026464D01*
X00022763Y00026507D01*
X00022767Y00026551D01*
X00022771Y00026598D01*
X00022779Y00026641D01*
X00022799Y00026877D01*
X00022803Y00026929D01*
X00022807Y00026976D01*
X00022811Y00027027D01*
X00022814Y00027074D01*
X00022818Y00027125D01*
X00022818Y00027177D01*
X00022826Y00027279D01*
X00022826Y00027334D01*
X00022830Y00027385D01*
X00022830Y00027492D01*
X00022834Y00027543D01*
X00022834Y00027968D01*
X00022830Y00028019D01*
X00022830Y00028125D01*
X00022826Y00028177D01*
X00022826Y00028232D01*
X00022818Y00028334D01*
X00022818Y00028385D01*
X00022814Y00028437D01*
X00022811Y00028484D01*
X00022807Y00028535D01*
X00022803Y00028582D01*
X00022799Y00028633D01*
X00022779Y00028870D01*
X00022771Y00028913D01*
X00022767Y00028960D01*
X00022763Y00029003D01*
X00022755Y00029047D01*
X00022751Y00029086D01*
X00022744Y00029129D01*
X00022740Y00029169D01*
X00022724Y00029248D01*
X00022720Y00029287D01*
X00022712Y00029322D01*
X00022704Y00029362D01*
X00022696Y00029393D01*
X00022688Y00029429D01*
X00022685Y00029464D01*
X00022677Y00029496D01*
X00022669Y00029527D01*
X00022661Y00029555D01*
X00022649Y00029586D01*
X00022633Y00029641D01*
X00022602Y00029736D01*
X00022590Y00029755D01*
X00022574Y00029795D01*
X00022562Y00029811D01*
X00022547Y00029842D01*
X00022535Y00029858D01*
X00022527Y00029870D01*
X00022500Y00029897D01*
X00022488Y00029905D01*
X00022480Y00029909D01*
X00022468Y00029917D01*
X00022460Y00029917D01*
X00022448Y00029921D01*
X00021519Y00029921D01*
X00021388Y00029921D01*
X00021326Y00029926D01*
X00021266Y00029940D01*
X00021209Y00029964D01*
X00021157Y00029996D01*
X00021110Y00030036D01*
X00021069Y00030083D01*
X00021037Y00030136D01*
X00021014Y00030193D01*
X00020999Y00030253D01*
X00020994Y00030314D01*
X00020999Y00030376D01*
X00021014Y00030436D01*
X00021037Y00030493D01*
X00021069Y00030546D01*
X00021110Y00030593D01*
X00021157Y00030633D01*
X00021209Y00030665D01*
X00021266Y00030689D01*
X00021326Y00030703D01*
X00021388Y00030708D01*
X00022448Y00030708D01*
X00022460Y00030712D01*
X00022468Y00030712D01*
X00022480Y00030720D01*
X00022488Y00030724D01*
X00022500Y00030732D01*
X00022527Y00030759D01*
X00022535Y00030771D01*
X00022547Y00030787D01*
X00022562Y00030818D01*
X00022574Y00030834D01*
X00022590Y00030874D01*
X00022602Y00030893D01*
X00022625Y00030964D01*
X00022633Y00030988D01*
X00022641Y00031015D01*
X00022649Y00031043D01*
X00022661Y00031074D01*
X00022669Y00031102D01*
X00022685Y00031165D01*
X00022688Y00031200D01*
X00022696Y00031236D01*
X00022704Y00031267D01*
X00022712Y00031307D01*
X00022720Y00031342D01*
X00022724Y00031381D01*
X00022732Y00031421D01*
X00022740Y00031460D01*
X00022744Y00031500D01*
X00022751Y00031543D01*
X00022755Y00031582D01*
X00022763Y00031625D01*
X00022767Y00031669D01*
X00022770Y00031700D01*
X00028675Y00031700D02*
X00028675Y00031700D01*
X00028678Y00031726D01*
X00028683Y00031752D01*
X00028690Y00031778D01*
X00028698Y00031803D01*
X00028708Y00031827D01*
X00028720Y00031851D01*
X00028733Y00031874D01*
X00028747Y00031896D01*
X00028763Y00031917D01*
X00028781Y00031937D01*
X00028800Y00031956D01*
X00028820Y00031973D01*
X00028841Y00031989D01*
X00028863Y00032003D01*
X00028886Y00032016D01*
X00028910Y00032028D01*
X00028934Y00032038D01*
X00028959Y00032046D01*
X00028985Y00032052D01*
X00029011Y00032057D01*
X00029077Y00032066D01*
X00029110Y00032070D01*
X00029144Y00032070D01*
X00029178Y00032068D01*
X00029211Y00032063D01*
X00029244Y00032055D01*
X00029276Y00032044D01*
X00029307Y00032030D01*
X00029336Y00032014D01*
X00029364Y00031996D01*
X00029391Y00031975D01*
X00029415Y00031951D01*
X00029438Y00031926D01*
X00029458Y00031899D01*
X00029476Y00031871D01*
X00029491Y00031840D01*
X00029504Y00031809D01*
X00029514Y00031777D01*
X00029521Y00031744D01*
X00029526Y00031710D01*
X00029527Y00031677D01*
X00029527Y00030885D01*
X00029530Y00030857D01*
X00029537Y00030830D01*
X00029549Y00030804D01*
X00029564Y00030780D01*
X00029583Y00030758D01*
X00029605Y00030740D01*
X00029629Y00030726D01*
X00029656Y00030716D01*
X00029684Y00030710D01*
X00029708Y00030708D01*
X00030973Y00030708D01*
X00031035Y00030703D01*
X00031095Y00030689D01*
X00031152Y00030665D01*
X00031205Y00030633D01*
X00031252Y00030593D01*
X00031292Y00030546D01*
X00031324Y00030493D01*
X00031348Y00030436D01*
X00031362Y00030376D01*
X00031367Y00030314D01*
X00031362Y00030253D01*
X00031348Y00030193D01*
X00031324Y00030136D01*
X00031292Y00030083D01*
X00031252Y00030036D01*
X00031205Y00029996D01*
X00031152Y00029964D01*
X00031095Y00029940D01*
X00031035Y00029926D01*
X00030973Y00029921D01*
X00030842Y00029921D01*
X00029704Y00029921D01*
X00029676Y00029918D01*
X00029648Y00029911D01*
X00029622Y00029899D01*
X00029599Y00029884D01*
X00029577Y00029865D01*
X00029559Y00029843D01*
X00029545Y00029818D01*
X00029535Y00029792D01*
X00029529Y00029764D01*
X00029527Y00029732D01*
X00029527Y00025767D01*
X00029530Y00025739D01*
X00029537Y00025711D01*
X00029549Y00025685D01*
X00029564Y00025662D01*
X00029583Y00025640D01*
X00029605Y00025622D01*
X00029629Y00025608D01*
X00029656Y00025598D01*
X00029684Y00025592D01*
X00029708Y00025590D01*
X00030973Y00025590D01*
X00031035Y00025585D01*
X00031095Y00025571D01*
X00031152Y00025547D01*
X00031205Y00025515D01*
X00031252Y00025475D01*
X00031292Y00025428D01*
X00031324Y00025375D01*
X00031348Y00025318D01*
X00031362Y00025258D01*
X00031367Y00025196D01*
X00031362Y00025135D01*
X00031348Y00025075D01*
X00031324Y00025018D01*
X00031292Y00024965D01*
X00031252Y00024918D01*
X00031205Y00024878D01*
X00031152Y00024846D01*
X00031095Y00024822D01*
X00031035Y00024807D01*
X00030973Y00024803D01*
X00030842Y00024803D01*
X00029704Y00024803D01*
X00029676Y00024800D01*
X00029648Y00024793D01*
X00029622Y00024781D01*
X00029599Y00024766D01*
X00029577Y00024747D01*
X00029559Y00024725D01*
X00029545Y00024700D01*
X00029535Y00024674D01*
X00029529Y00024646D01*
X00029527Y00024614D01*
X00029527Y00020649D01*
X00029530Y00020621D01*
X00029537Y00020593D01*
X00029549Y00020567D01*
X00029564Y00020543D01*
X00029583Y00020522D01*
X00029605Y00020504D01*
X00029629Y00020490D01*
X00029656Y00020480D01*
X00029684Y00020474D01*
X00029708Y00020472D01*
X00030973Y00020472D01*
X00031035Y00020467D01*
X00031095Y00020453D01*
X00031152Y00020429D01*
X00031205Y00020397D01*
X00031252Y00020357D01*
X00031292Y00020310D01*
X00031324Y00020257D01*
X00031348Y00020200D01*
X00031362Y00020140D01*
X00031367Y00020078D01*
X00031362Y00020017D01*
X00031348Y00019957D01*
X00031324Y00019900D01*
X00031292Y00019847D01*
X00031252Y00019800D01*
X00031205Y00019760D01*
X00031152Y00019727D01*
X00031095Y00019704D01*
X00031035Y00019689D01*
X00030973Y00019685D01*
X00030842Y00019685D01*
X00029704Y00019685D01*
X00029676Y00019682D01*
X00029648Y00019674D01*
X00029622Y00019663D01*
X00029599Y00019648D01*
X00029577Y00019629D01*
X00029559Y00019607D01*
X00029545Y00019582D01*
X00029535Y00019556D01*
X00029529Y00019528D01*
X00029527Y00019496D01*
X00029527Y00015531D01*
X00029530Y00015503D01*
X00029537Y00015475D01*
X00029549Y00015449D01*
X00029564Y00015425D01*
X00029583Y00015404D01*
X00029605Y00015386D01*
X00029629Y00015372D01*
X00029656Y00015361D01*
X00029684Y00015355D01*
X00029708Y00015354D01*
X00030973Y00015354D01*
X00031035Y00015349D01*
X00031095Y00015335D01*
X00031152Y00015311D01*
X00031205Y00015279D01*
X00031252Y00015239D01*
X00031292Y00015192D01*
X00031324Y00015139D01*
X00031348Y00015082D01*
X00031362Y00015022D01*
X00031367Y00014960D01*
X00031362Y00014899D01*
X00031348Y00014838D01*
X00031324Y00014781D01*
X00031292Y00014729D01*
X00031252Y00014682D01*
X00031205Y00014642D01*
X00031152Y00014609D01*
X00031095Y00014586D01*
X00031035Y00014571D01*
X00030973Y00014566D01*
X00030842Y00014566D01*
X00029704Y00014566D01*
X00029676Y00014564D01*
X00029648Y00014556D01*
X00029622Y00014545D01*
X00029599Y00014530D01*
X00029577Y00014511D01*
X00029559Y00014489D01*
X00029545Y00014464D01*
X00029535Y00014438D01*
X00029529Y00014410D01*
X00029527Y00014377D01*
X00029527Y00010413D01*
X00029530Y00010385D01*
X00029537Y00010357D01*
X00029549Y00010331D01*
X00029564Y00010307D01*
X00029583Y00010286D01*
X00029605Y00010268D01*
X00029629Y00010254D01*
X00029656Y00010243D01*
X00029684Y00010237D01*
X00029708Y00010236D01*
X00030973Y00010236D01*
X00031035Y00010231D01*
X00031095Y00010216D01*
X00031152Y00010193D01*
X00031205Y00010161D01*
X00031252Y00010120D01*
X00031292Y00010073D01*
X00031324Y00010021D01*
X00031348Y00009964D01*
X00031362Y00009904D01*
X00031367Y00009842D01*
X00031362Y00009780D01*
X00031348Y00009720D01*
X00031324Y00009663D01*
X00031292Y00009611D01*
X00031252Y00009564D01*
X00031205Y00009524D01*
X00031152Y00009491D01*
X00031095Y00009468D01*
X00031035Y00009453D01*
X00030973Y00009448D01*
X00030842Y00009448D01*
X00029704Y00009448D01*
X00029676Y00009445D01*
X00029648Y00009438D01*
X00029622Y00009427D01*
X00029599Y00009411D01*
X00029577Y00009392D01*
X00029559Y00009370D01*
X00029545Y00009346D01*
X00029535Y00009319D01*
X00029529Y00009292D01*
X00029527Y00009259D01*
X00029527Y00005295D01*
X00029530Y00005266D01*
X00029537Y00005239D01*
X00029549Y00005213D01*
X00029564Y00005189D01*
X00029583Y00005168D01*
X00029605Y00005150D01*
X00029629Y00005136D01*
X00029656Y00005125D01*
X00029684Y00005119D01*
X00029708Y00005118D01*
X00030973Y00005118D01*
X00031035Y00005113D01*
X00031095Y00005098D01*
X00031152Y00005075D01*
X00031205Y00005042D01*
X00031252Y00005002D01*
X00031292Y00004955D01*
X00031324Y00004903D01*
X00031348Y00004846D01*
X00031362Y00004785D01*
X00031367Y00004724D01*
X00031362Y00004662D01*
X00031348Y00004602D01*
X00031324Y00004545D01*
X00031292Y00004492D01*
X00031252Y00004446D01*
X00031205Y00004405D01*
X00031152Y00004373D01*
X00031095Y00004349D01*
X00031035Y00004335D01*
X00030973Y00004330D01*
X00030842Y00004330D01*
X00029704Y00004330D01*
X00029676Y00004327D01*
X00029648Y00004320D01*
X00029622Y00004309D01*
X00029599Y00004293D01*
X00029577Y00004274D01*
X00029559Y00004252D01*
X00029545Y00004228D01*
X00029535Y00004201D01*
X00029529Y00004174D01*
X00029527Y00004141D01*
X00029527Y00003362D01*
X00029526Y00003328D01*
X00029521Y00003294D01*
X00029514Y00003261D01*
X00029504Y00003229D01*
X00029491Y00003198D01*
X00029476Y00003168D01*
X00029458Y00003139D01*
X00029438Y00003112D01*
X00029415Y00003087D01*
X00029391Y00003064D01*
X00029364Y00003043D01*
X00029336Y00003024D01*
X00029307Y00003008D01*
X00029276Y00002995D01*
X00029244Y00002984D01*
X00029211Y00002976D01*
X00029178Y00002970D01*
X00029144Y00002968D01*
X00029110Y00002969D01*
X00029077Y00002972D01*
X00029011Y00002982D01*
X00028985Y00002986D01*
X00028959Y00002993D01*
X00028934Y00003001D01*
X00028910Y00003011D01*
X00028886Y00003022D01*
X00028863Y00003035D01*
X00028841Y00003050D01*
X00028820Y00003066D01*
X00028800Y00003083D01*
X00028781Y00003101D01*
X00028763Y00003121D01*
X00028747Y00003142D01*
X00028733Y00003164D01*
X00028720Y00003187D01*
X00028708Y00003211D01*
X00028698Y00003236D01*
X00028690Y00003261D01*
X00028683Y00003286D01*
X00028678Y00003312D01*
X00028675Y00003338D01*
X00028673Y00003370D01*
X00028669Y00003413D01*
X00028661Y00003456D01*
X00028657Y00003496D01*
X00028649Y00003539D01*
X00028645Y00003578D01*
X00028629Y00003657D01*
X00028625Y00003696D01*
X00028618Y00003732D01*
X00028610Y00003771D01*
X00028602Y00003803D01*
X00028594Y00003838D01*
X00028590Y00003874D01*
X00028582Y00003905D01*
X00028574Y00003937D01*
X00028566Y00003964D01*
X00028555Y00003996D01*
X00028539Y00004051D01*
X00028507Y00004145D01*
X00028496Y00004165D01*
X00028480Y00004204D01*
X00028468Y00004220D01*
X00028452Y00004251D01*
X00028440Y00004267D01*
X00028433Y00004279D01*
X00028405Y00004307D01*
X00028393Y00004314D01*
X00028385Y00004318D01*
X00028374Y00004326D01*
X00028366Y00004326D01*
X00028354Y00004330D01*
X00027425Y00004330D01*
X00027293Y00004330D01*
X00027232Y00004335D01*
X00027172Y00004349D01*
X00027115Y00004373D01*
X00027062Y00004405D01*
X00027015Y00004446D01*
X00026975Y00004492D01*
X00026943Y00004545D01*
X00026919Y00004602D01*
X00026905Y00004662D01*
X00026900Y00004724D01*
X00026905Y00004785D01*
X00026919Y00004846D01*
X00026943Y00004903D01*
X00026975Y00004955D01*
X00027015Y00005002D01*
X00027062Y00005042D01*
X00027115Y00005075D01*
X00027172Y00005098D01*
X00027232Y00005113D01*
X00027293Y00005118D01*
X00028354Y00005118D01*
X00028366Y00005122D01*
X00028374Y00005122D01*
X00028385Y00005129D01*
X00028393Y00005133D01*
X00028405Y00005141D01*
X00028433Y00005169D01*
X00028440Y00005181D01*
X00028452Y00005196D01*
X00028468Y00005228D01*
X00028480Y00005244D01*
X00028496Y00005283D01*
X00028507Y00005303D01*
X00028531Y00005374D01*
X00028539Y00005397D01*
X00028547Y00005425D01*
X00028555Y00005452D01*
X00028566Y00005484D01*
X00028574Y00005511D01*
X00028590Y00005574D01*
X00028594Y00005610D01*
X00028602Y00005645D01*
X00028610Y00005677D01*
X00028618Y00005716D01*
X00028625Y00005751D01*
X00028629Y00005791D01*
X00028637Y00005830D01*
X00028645Y00005870D01*
X00028649Y00005909D01*
X00028657Y00005952D01*
X00028661Y00005992D01*
X00028669Y00006035D01*
X00028673Y00006078D01*
X00028677Y00006125D01*
X00028685Y00006169D01*
X00028704Y00006405D01*
X00028708Y00006456D01*
X00028712Y00006503D01*
X00028716Y00006555D01*
X00028720Y00006602D01*
X00028724Y00006653D01*
X00028724Y00006704D01*
X00028732Y00006807D01*
X00028732Y00006862D01*
X00028736Y00006913D01*
X00028736Y00007019D01*
X00028740Y00007070D01*
X00028740Y00007496D01*
X00028736Y00007547D01*
X00028736Y00007653D01*
X00028732Y00007704D01*
X00028732Y00007759D01*
X00028724Y00007862D01*
X00028724Y00007913D01*
X00028720Y00007964D01*
X00028716Y00008011D01*
X00028712Y00008062D01*
X00028708Y00008110D01*
X00028704Y00008161D01*
X00028685Y00008397D01*
X00028677Y00008440D01*
X00028673Y00008488D01*
X00028669Y00008531D01*
X00028661Y00008574D01*
X00028657Y00008614D01*
X00028649Y00008657D01*
X00028645Y00008696D01*
X00028629Y00008775D01*
X00028625Y00008814D01*
X00028618Y00008850D01*
X00028610Y00008889D01*
X00028602Y00008921D01*
X00028594Y00008956D01*
X00028590Y00008992D01*
X00028582Y00009023D01*
X00028574Y00009055D01*
X00028566Y00009082D01*
X00028555Y00009114D01*
X00028539Y00009169D01*
X00028507Y00009263D01*
X00028496Y00009283D01*
X00028480Y00009322D01*
X00028468Y00009338D01*
X00028452Y00009370D01*
X00028440Y00009385D01*
X00028433Y00009397D01*
X00028405Y00009425D01*
X00028393Y00009433D01*
X00028385Y00009437D01*
X00028374Y00009444D01*
X00028366Y00009444D01*
X00028354Y00009448D01*
X00027228Y00009448D01*
X00027097Y00009448D01*
X00027035Y00009453D01*
X00026975Y00009468D01*
X00026918Y00009491D01*
X00026865Y00009524D01*
X00026818Y00009564D01*
X00026778Y00009611D01*
X00026746Y00009663D01*
X00026722Y00009720D01*
X00026708Y00009780D01*
X00026703Y00009842D01*
X00026708Y00009904D01*
X00026722Y00009964D01*
X00026746Y00010021D01*
X00026778Y00010073D01*
X00026818Y00010120D01*
X00026865Y00010161D01*
X00026918Y00010193D01*
X00026975Y00010216D01*
X00027035Y00010231D01*
X00027097Y00010236D01*
X00028354Y00010236D01*
X00028366Y00010240D01*
X00028374Y00010240D01*
X00028385Y00010248D01*
X00028393Y00010251D01*
X00028405Y00010259D01*
X00028433Y00010287D01*
X00028440Y00010299D01*
X00028452Y00010314D01*
X00028468Y00010346D01*
X00028480Y00010362D01*
X00028496Y00010401D01*
X00028507Y00010421D01*
X00028531Y00010492D01*
X00028539Y00010515D01*
X00028547Y00010543D01*
X00028555Y00010570D01*
X00028566Y00010602D01*
X00028574Y00010629D01*
X00028590Y00010692D01*
X00028594Y00010728D01*
X00028602Y00010763D01*
X00028610Y00010795D01*
X00028618Y00010834D01*
X00028625Y00010870D01*
X00028629Y00010909D01*
X00028637Y00010948D01*
X00028645Y00010988D01*
X00028649Y00011027D01*
X00028657Y00011070D01*
X00028661Y00011110D01*
X00028669Y00011153D01*
X00028673Y00011196D01*
X00028677Y00011244D01*
X00028685Y00011287D01*
X00028704Y00011523D01*
X00028708Y00011574D01*
X00028712Y00011622D01*
X00028716Y00011673D01*
X00028720Y00011720D01*
X00028724Y00011771D01*
X00028724Y00011822D01*
X00028732Y00011925D01*
X00028732Y00011980D01*
X00028736Y00012031D01*
X00028736Y00012137D01*
X00028740Y00012188D01*
X00028740Y00012614D01*
X00028736Y00012665D01*
X00028736Y00012771D01*
X00028732Y00012822D01*
X00028732Y00012877D01*
X00028724Y00012980D01*
X00028724Y00013031D01*
X00028720Y00013082D01*
X00028716Y00013129D01*
X00028712Y00013181D01*
X00028708Y00013228D01*
X00028704Y00013279D01*
X00028685Y00013515D01*
X00028677Y00013559D01*
X00028673Y00013606D01*
X00028669Y00013649D01*
X00028661Y00013692D01*
X00028657Y00013732D01*
X00028649Y00013775D01*
X00028645Y00013814D01*
X00028629Y00013893D01*
X00028625Y00013933D01*
X00028618Y00013968D01*
X00028610Y00014007D01*
X00028602Y00014039D01*
X00028594Y00014074D01*
X00028590Y00014110D01*
X00028582Y00014141D01*
X00028574Y00014173D01*
X00028566Y00014200D01*
X00028555Y00014232D01*
X00028539Y00014287D01*
X00028507Y00014381D01*
X00028496Y00014401D01*
X00028480Y00014440D01*
X00028468Y00014456D01*
X00028452Y00014488D01*
X00028440Y00014503D01*
X00028433Y00014515D01*
X00028405Y00014543D01*
X00028393Y00014551D01*
X00028385Y00014555D01*
X00028374Y00014562D01*
X00028366Y00014562D01*
X00028354Y00014566D01*
X00027228Y00014566D01*
X00027097Y00014566D01*
X00027035Y00014571D01*
X00026975Y00014586D01*
X00026918Y00014609D01*
X00026865Y00014642D01*
X00026818Y00014682D01*
X00026778Y00014729D01*
X00026746Y00014781D01*
X00026722Y00014838D01*
X00026708Y00014899D01*
X00026703Y00014960D01*
X00026708Y00015022D01*
X00026722Y00015082D01*
X00026746Y00015139D01*
X00026778Y00015192D01*
X00026818Y00015239D01*
X00026865Y00015279D01*
X00026918Y00015311D01*
X00026975Y00015335D01*
X00027035Y00015349D01*
X00027097Y00015354D01*
X00028354Y00015354D01*
X00028366Y00015358D01*
X00028374Y00015358D01*
X00028385Y00015366D01*
X00028393Y00015370D01*
X00028405Y00015377D01*
X00028433Y00015405D01*
X00028440Y00015417D01*
X00028452Y00015433D01*
X00028468Y00015464D01*
X00028480Y00015480D01*
X00028496Y00015519D01*
X00028507Y00015539D01*
X00028531Y00015610D01*
X00028539Y00015633D01*
X00028547Y00015661D01*
X00028555Y00015688D01*
X00028566Y00015720D01*
X00028574Y00015748D01*
X00028590Y00015811D01*
X00028594Y00015846D01*
X00028602Y00015881D01*
X00028610Y00015913D01*
X00028618Y00015952D01*
X00028625Y00015988D01*
X00028629Y00016027D01*
X00028637Y00016066D01*
X00028645Y00016106D01*
X00028649Y00016145D01*
X00028657Y00016188D01*
X00028661Y00016228D01*
X00028669Y00016271D01*
X00028673Y00016314D01*
X00028677Y00016362D01*
X00028685Y00016405D01*
X00028704Y00016641D01*
X00028708Y00016692D01*
X00028712Y00016740D01*
X00028716Y00016791D01*
X00028720Y00016838D01*
X00028724Y00016889D01*
X00028724Y00016940D01*
X00028732Y00017043D01*
X00028732Y00017098D01*
X00028736Y00017149D01*
X00028736Y00017255D01*
X00028740Y00017307D01*
X00028740Y00017732D01*
X00028736Y00017783D01*
X00028736Y00017889D01*
X00028732Y00017940D01*
X00028732Y00017996D01*
X00028724Y00018098D01*
X00028724Y00018149D01*
X00028720Y00018200D01*
X00028716Y00018248D01*
X00028712Y00018299D01*
X00028708Y00018346D01*
X00028704Y00018397D01*
X00028685Y00018633D01*
X00028677Y00018677D01*
X00028673Y00018724D01*
X00028669Y00018767D01*
X00028661Y00018811D01*
X00028657Y00018850D01*
X00028649Y00018893D01*
X00028645Y00018933D01*
X00028629Y00019011D01*
X00028625Y00019051D01*
X00028618Y00019086D01*
X00028610Y00019125D01*
X00028602Y00019157D01*
X00028594Y00019192D01*
X00028590Y00019228D01*
X00028582Y00019259D01*
X00028574Y00019291D01*
X00028566Y00019318D01*
X00028555Y00019350D01*
X00028539Y00019405D01*
X00028507Y00019500D01*
X00028496Y00019519D01*
X00028480Y00019559D01*
X00028468Y00019574D01*
X00028452Y00019606D01*
X00028440Y00019622D01*
X00028433Y00019633D01*
X00028405Y00019661D01*
X00028393Y00019669D01*
X00028385Y00019673D01*
X00028374Y00019681D01*
X00028366Y00019681D01*
X00028354Y00019685D01*
X00027425Y00019685D01*
X00027293Y00019685D01*
X00027232Y00019689D01*
X00027172Y00019704D01*
X00027115Y00019727D01*
X00027062Y00019760D01*
X00027015Y00019800D01*
X00026975Y00019847D01*
X00026943Y00019900D01*
X00026919Y00019957D01*
X00026905Y00020017D01*
X00026900Y00020078D01*
X00026905Y00020140D01*
X00026919Y00020200D01*
X00026943Y00020257D01*
X00026975Y00020310D01*
X00027015Y00020357D01*
X00027062Y00020397D01*
X00027115Y00020429D01*
X00027172Y00020453D01*
X00027232Y00020467D01*
X00027293Y00020472D01*
X00028354Y00020472D01*
X00028366Y00020476D01*
X00028374Y00020476D01*
X00028385Y00020484D01*
X00028393Y00020488D01*
X00028405Y00020496D01*
X00028433Y00020523D01*
X00028440Y00020535D01*
X00028452Y00020551D01*
X00028468Y00020582D01*
X00028480Y00020598D01*
X00028496Y00020637D01*
X00028507Y00020657D01*
X00028531Y00020728D01*
X00028539Y00020751D01*
X00028547Y00020779D01*
X00028555Y00020807D01*
X00028566Y00020838D01*
X00028574Y00020866D01*
X00028590Y00020929D01*
X00028594Y00020964D01*
X00028602Y00021000D01*
X00028610Y00021031D01*
X00028618Y00021070D01*
X00028625Y00021106D01*
X00028629Y00021145D01*
X00028637Y00021185D01*
X00028645Y00021224D01*
X00028649Y00021263D01*
X00028657Y00021307D01*
X00028661Y00021346D01*
X00028669Y00021389D01*
X00028673Y00021433D01*
X00028677Y00021480D01*
X00028685Y00021523D01*
X00028704Y00021759D01*
X00028708Y00021811D01*
X00028712Y00021858D01*
X00028716Y00021909D01*
X00028720Y00021956D01*
X00028724Y00022007D01*
X00028724Y00022059D01*
X00028732Y00022161D01*
X00028732Y00022216D01*
X00028736Y00022267D01*
X00028736Y00022374D01*
X00028740Y00022425D01*
X00028740Y00022850D01*
X00028736Y00022901D01*
X00028736Y00023007D01*
X00028732Y00023059D01*
X00028732Y00023114D01*
X00028724Y00023216D01*
X00028724Y00023267D01*
X00028720Y00023318D01*
X00028716Y00023366D01*
X00028712Y00023417D01*
X00028708Y00023464D01*
X00028704Y00023515D01*
X00028685Y00023751D01*
X00028677Y00023795D01*
X00028673Y00023842D01*
X00028669Y00023885D01*
X00028661Y00023929D01*
X00028657Y00023968D01*
X00028649Y00024011D01*
X00028645Y00024051D01*
X00028629Y00024129D01*
X00028625Y00024169D01*
X00028618Y00024204D01*
X00028610Y00024244D01*
X00028602Y00024275D01*
X00028594Y00024311D01*
X00028590Y00024346D01*
X00028582Y00024377D01*
X00028574Y00024409D01*
X00028566Y00024437D01*
X00028555Y00024468D01*
X00028539Y00024523D01*
X00028507Y00024618D01*
X00028496Y00024637D01*
X00028480Y00024677D01*
X00028468Y00024692D01*
X00028452Y00024724D01*
X00028440Y00024740D01*
X00028433Y00024751D01*
X00028405Y00024779D01*
X00028393Y00024787D01*
X00028385Y00024791D01*
X00028374Y00024799D01*
X00028366Y00024799D01*
X00028354Y00024803D01*
X00027425Y00024803D01*
X00027293Y00024803D01*
X00027232Y00024807D01*
X00027172Y00024822D01*
X00027115Y00024846D01*
X00027062Y00024878D01*
X00027015Y00024918D01*
X00026975Y00024965D01*
X00026943Y00025018D01*
X00026919Y00025075D01*
X00026905Y00025135D01*
X00026900Y00025196D01*
X00026905Y00025258D01*
X00026919Y00025318D01*
X00026943Y00025375D01*
X00026975Y00025428D01*
X00027015Y00025475D01*
X00027062Y00025515D01*
X00027115Y00025547D01*
X00027172Y00025571D01*
X00027232Y00025585D01*
X00027293Y00025590D01*
X00028354Y00025590D01*
X00028366Y00025594D01*
X00028374Y00025594D01*
X00028385Y00025602D01*
X00028393Y00025606D01*
X00028405Y00025614D01*
X00028433Y00025641D01*
X00028440Y00025653D01*
X00028452Y00025669D01*
X00028468Y00025700D01*
X00028480Y00025716D01*
X00028496Y00025755D01*
X00028507Y00025775D01*
X00028531Y00025846D01*
X00028539Y00025870D01*
X00028547Y00025897D01*
X00028555Y00025925D01*
X00028566Y00025956D01*
X00028574Y00025984D01*
X00028590Y00026047D01*
X00028594Y00026082D01*
X00028602Y00026118D01*
X00028610Y00026149D01*
X00028618Y00026188D01*
X00028625Y00026224D01*
X00028629Y00026263D01*
X00028637Y00026303D01*
X00028645Y00026342D01*
X00028649Y00026381D01*
X00028657Y00026425D01*
X00028661Y00026464D01*
X00028669Y00026507D01*
X00028673Y00026551D01*
X00028677Y00026598D01*
X00028685Y00026641D01*
X00028704Y00026877D01*
X00028708Y00026929D01*
X00028712Y00026976D01*
X00028716Y00027027D01*
X00028720Y00027074D01*
X00028724Y00027125D01*
X00028724Y00027177D01*
X00028732Y00027279D01*
X00028732Y00027334D01*
X00028736Y00027385D01*
X00028736Y00027492D01*
X00028740Y00027543D01*
X00028740Y00027968D01*
X00028736Y00028019D01*
X00028736Y00028125D01*
X00028732Y00028177D01*
X00028732Y00028232D01*
X00028724Y00028334D01*
X00028724Y00028385D01*
X00028720Y00028437D01*
X00028716Y00028484D01*
X00028712Y00028535D01*
X00028708Y00028582D01*
X00028704Y00028633D01*
X00028685Y00028870D01*
X00028677Y00028913D01*
X00028673Y00028960D01*
X00028669Y00029003D01*
X00028661Y00029047D01*
X00028657Y00029086D01*
X00028649Y00029129D01*
X00028645Y00029169D01*
X00028629Y00029248D01*
X00028625Y00029287D01*
X00028618Y00029322D01*
X00028610Y00029362D01*
X00028602Y00029393D01*
X00028594Y00029429D01*
X00028590Y00029464D01*
X00028582Y00029496D01*
X00028574Y00029527D01*
X00028566Y00029555D01*
X00028555Y00029586D01*
X00028539Y00029641D01*
X00028507Y00029736D01*
X00028496Y00029755D01*
X00028480Y00029795D01*
X00028468Y00029811D01*
X00028452Y00029842D01*
X00028440Y00029858D01*
X00028433Y00029870D01*
X00028405Y00029897D01*
X00028393Y00029905D01*
X00028385Y00029909D01*
X00028374Y00029917D01*
X00028366Y00029917D01*
X00028354Y00029921D01*
X00027425Y00029921D01*
X00027293Y00029921D01*
X00027232Y00029926D01*
X00027172Y00029940D01*
X00027115Y00029964D01*
X00027062Y00029996D01*
X00027015Y00030036D01*
X00026975Y00030083D01*
X00026943Y00030136D01*
X00026919Y00030193D01*
X00026905Y00030253D01*
X00026900Y00030314D01*
X00026905Y00030376D01*
X00026919Y00030436D01*
X00026943Y00030493D01*
X00026975Y00030546D01*
X00027015Y00030593D01*
X00027062Y00030633D01*
X00027115Y00030665D01*
X00027172Y00030689D01*
X00027232Y00030703D01*
X00027293Y00030708D01*
X00028354Y00030708D01*
X00028366Y00030712D01*
X00028374Y00030712D01*
X00028385Y00030720D01*
X00028393Y00030724D01*
X00028405Y00030732D01*
X00028433Y00030759D01*
X00028440Y00030771D01*
X00028452Y00030787D01*
X00028468Y00030818D01*
X00028480Y00030834D01*
X00028496Y00030874D01*
X00028507Y00030893D01*
X00028531Y00030964D01*
X00028539Y00030988D01*
X00028547Y00031015D01*
X00028555Y00031043D01*
X00028566Y00031074D01*
X00028574Y00031102D01*
X00028590Y00031165D01*
X00028594Y00031200D01*
X00028602Y00031236D01*
X00028610Y00031267D01*
X00028618Y00031307D01*
X00028625Y00031342D01*
X00028629Y00031381D01*
X00028637Y00031421D01*
X00028645Y00031460D01*
X00028649Y00031500D01*
X00028657Y00031543D01*
X00028661Y00031582D01*
X00028669Y00031625D01*
X00028673Y00031669D01*
X00028675Y00031700D01*
X00016864Y00031700D02*
X00016864Y00031700D01*
X00016867Y00031726D01*
X00016872Y00031752D01*
X00016879Y00031778D01*
X00016887Y00031803D01*
X00016897Y00031827D01*
X00016909Y00031851D01*
X00016922Y00031874D01*
X00016936Y00031896D01*
X00016952Y00031917D01*
X00016970Y00031937D01*
X00016989Y00031956D01*
X00017008Y00031973D01*
X00017030Y00031989D01*
X00017052Y00032003D01*
X00017075Y00032016D01*
X00017099Y00032028D01*
X00017123Y00032038D01*
X00017148Y00032046D01*
X00017174Y00032052D01*
X00017200Y00032057D01*
X00017266Y00032066D01*
X00017299Y00032070D01*
X00017333Y00032070D01*
X00017367Y00032068D01*
X00017400Y00032063D01*
X00017433Y00032055D01*
X00017465Y00032044D01*
X00017496Y00032030D01*
X00017525Y00032014D01*
X00017553Y00031996D01*
X00017580Y00031975D01*
X00017604Y00031951D01*
X00017627Y00031926D01*
X00017647Y00031899D01*
X00017665Y00031871D01*
X00017680Y00031840D01*
X00017693Y00031809D01*
X00017703Y00031777D01*
X00017710Y00031744D01*
X00017715Y00031710D01*
X00017716Y00031677D01*
X00017716Y00030885D01*
X00017719Y00030857D01*
X00017726Y00030830D01*
X00017738Y00030804D01*
X00017753Y00030780D01*
X00017772Y00030758D01*
X00017794Y00030740D01*
X00017818Y00030726D01*
X00017845Y00030716D01*
X00017873Y00030710D01*
X00017897Y00030708D01*
X00019162Y00030708D01*
X00019224Y00030703D01*
X00019284Y00030689D01*
X00019341Y00030665D01*
X00019394Y00030633D01*
X00019441Y00030593D01*
X00019481Y00030546D01*
X00019513Y00030493D01*
X00019537Y00030436D01*
X00019551Y00030376D01*
X00019556Y00030314D01*
X00019551Y00030253D01*
X00019537Y00030193D01*
X00019513Y00030136D01*
X00019481Y00030083D01*
X00019441Y00030036D01*
X00019394Y00029996D01*
X00019341Y00029964D01*
X00019284Y00029940D01*
X00019224Y00029926D01*
X00019162Y00029921D01*
X00019031Y00029921D01*
X00017893Y00029921D01*
X00017865Y00029918D01*
X00017837Y00029911D01*
X00017811Y00029899D01*
X00017788Y00029884D01*
X00017766Y00029865D01*
X00017748Y00029843D01*
X00017734Y00029818D01*
X00017724Y00029792D01*
X00017718Y00029764D01*
X00017716Y00029732D01*
X00017716Y00025767D01*
X00017719Y00025739D01*
X00017726Y00025711D01*
X00017738Y00025685D01*
X00017753Y00025662D01*
X00017772Y00025640D01*
X00017794Y00025622D01*
X00017818Y00025608D01*
X00017845Y00025598D01*
X00017873Y00025592D01*
X00017897Y00025590D01*
X00019162Y00025590D01*
X00019224Y00025585D01*
X00019284Y00025571D01*
X00019341Y00025547D01*
X00019394Y00025515D01*
X00019441Y00025475D01*
X00019481Y00025428D01*
X00019513Y00025375D01*
X00019537Y00025318D01*
X00019551Y00025258D01*
X00019556Y00025196D01*
X00019551Y00025135D01*
X00019537Y00025075D01*
X00019513Y00025018D01*
X00019481Y00024965D01*
X00019441Y00024918D01*
X00019394Y00024878D01*
X00019341Y00024846D01*
X00019284Y00024822D01*
X00019224Y00024807D01*
X00019162Y00024803D01*
X00019031Y00024803D01*
X00017893Y00024803D01*
X00017865Y00024800D01*
X00017837Y00024793D01*
X00017811Y00024781D01*
X00017788Y00024766D01*
X00017766Y00024747D01*
X00017748Y00024725D01*
X00017734Y00024700D01*
X00017724Y00024674D01*
X00017718Y00024646D01*
X00017716Y00024614D01*
X00017716Y00020649D01*
X00017719Y00020621D01*
X00017726Y00020593D01*
X00017738Y00020567D01*
X00017753Y00020543D01*
X00017772Y00020522D01*
X00017794Y00020504D01*
X00017818Y00020490D01*
X00017845Y00020480D01*
X00017873Y00020474D01*
X00017897Y00020472D01*
X00019162Y00020472D01*
X00019224Y00020467D01*
X00019284Y00020453D01*
X00019341Y00020429D01*
X00019394Y00020397D01*
X00019441Y00020357D01*
X00019481Y00020310D01*
X00019513Y00020257D01*
X00019537Y00020200D01*
X00019551Y00020140D01*
X00019556Y00020078D01*
X00019551Y00020017D01*
X00019537Y00019957D01*
X00019513Y00019900D01*
X00019481Y00019847D01*
X00019441Y00019800D01*
X00019394Y00019760D01*
X00019341Y00019727D01*
X00019284Y00019704D01*
X00019224Y00019689D01*
X00019162Y00019685D01*
X00019031Y00019685D01*
X00017893Y00019685D01*
X00017865Y00019682D01*
X00017837Y00019674D01*
X00017811Y00019663D01*
X00017788Y00019648D01*
X00017766Y00019629D01*
X00017748Y00019607D01*
X00017734Y00019582D01*
X00017724Y00019556D01*
X00017718Y00019528D01*
X00017716Y00019496D01*
X00017716Y00015531D01*
X00017719Y00015503D01*
X00017726Y00015475D01*
X00017738Y00015449D01*
X00017753Y00015425D01*
X00017772Y00015404D01*
X00017794Y00015386D01*
X00017818Y00015372D01*
X00017845Y00015361D01*
X00017873Y00015355D01*
X00017897Y00015354D01*
X00019162Y00015354D01*
X00019224Y00015349D01*
X00019284Y00015335D01*
X00019341Y00015311D01*
X00019394Y00015279D01*
X00019441Y00015239D01*
X00019481Y00015192D01*
X00019513Y00015139D01*
X00019537Y00015082D01*
X00019551Y00015022D01*
X00019556Y00014960D01*
X00019551Y00014899D01*
X00019537Y00014838D01*
X00019513Y00014781D01*
X00019481Y00014729D01*
X00019441Y00014682D01*
X00019394Y00014642D01*
X00019341Y00014609D01*
X00019284Y00014586D01*
X00019224Y00014571D01*
X00019162Y00014566D01*
X00019031Y00014566D01*
X00017893Y00014566D01*
X00017865Y00014564D01*
X00017837Y00014556D01*
X00017811Y00014545D01*
X00017788Y00014530D01*
X00017766Y00014511D01*
X00017748Y00014489D01*
X00017734Y00014464D01*
X00017724Y00014438D01*
X00017718Y00014410D01*
X00017716Y00014377D01*
X00017716Y00010413D01*
X00017719Y00010385D01*
X00017726Y00010357D01*
X00017738Y00010331D01*
X00017753Y00010307D01*
X00017772Y00010286D01*
X00017794Y00010268D01*
X00017818Y00010254D01*
X00017845Y00010243D01*
X00017873Y00010237D01*
X00017897Y00010236D01*
X00019162Y00010236D01*
X00019224Y00010231D01*
X00019284Y00010216D01*
X00019341Y00010193D01*
X00019394Y00010161D01*
X00019441Y00010120D01*
X00019481Y00010073D01*
X00019513Y00010021D01*
X00019537Y00009964D01*
X00019551Y00009904D01*
X00019556Y00009842D01*
X00019551Y00009780D01*
X00019537Y00009720D01*
X00019513Y00009663D01*
X00019481Y00009611D01*
X00019441Y00009564D01*
X00019394Y00009524D01*
X00019341Y00009491D01*
X00019284Y00009468D01*
X00019224Y00009453D01*
X00019162Y00009448D01*
X00019031Y00009448D01*
X00017893Y00009448D01*
X00017865Y00009445D01*
X00017837Y00009438D01*
X00017811Y00009427D01*
X00017788Y00009411D01*
X00017766Y00009392D01*
X00017748Y00009370D01*
X00017734Y00009346D01*
X00017724Y00009319D01*
X00017718Y00009292D01*
X00017716Y00009259D01*
X00017716Y00005295D01*
X00017719Y00005266D01*
X00017726Y00005239D01*
X00017738Y00005213D01*
X00017753Y00005189D01*
X00017772Y00005168D01*
X00017794Y00005150D01*
X00017818Y00005136D01*
X00017845Y00005125D01*
X00017873Y00005119D01*
X00017897Y00005118D01*
X00019162Y00005118D01*
X00019224Y00005113D01*
X00019284Y00005098D01*
X00019341Y00005075D01*
X00019394Y00005042D01*
X00019441Y00005002D01*
X00019481Y00004955D01*
X00019513Y00004903D01*
X00019537Y00004846D01*
X00019551Y00004785D01*
X00019556Y00004724D01*
X00019551Y00004662D01*
X00019537Y00004602D01*
X00019513Y00004545D01*
X00019481Y00004492D01*
X00019441Y00004446D01*
X00019394Y00004405D01*
X00019341Y00004373D01*
X00019284Y00004349D01*
X00019224Y00004335D01*
X00019162Y00004330D01*
X00019031Y00004330D01*
X00017893Y00004330D01*
X00017865Y00004327D01*
X00017837Y00004320D01*
X00017811Y00004309D01*
X00017788Y00004293D01*
X00017766Y00004274D01*
X00017748Y00004252D01*
X00017734Y00004228D01*
X00017724Y00004201D01*
X00017718Y00004174D01*
X00017716Y00004141D01*
X00017716Y00003362D01*
X00017715Y00003328D01*
X00017710Y00003294D01*
X00017703Y00003261D01*
X00017693Y00003229D01*
X00017680Y00003198D01*
X00017665Y00003168D01*
X00017647Y00003139D01*
X00017627Y00003112D01*
X00017604Y00003087D01*
X00017580Y00003064D01*
X00017553Y00003043D01*
X00017525Y00003024D01*
X00017496Y00003008D01*
X00017465Y00002995D01*
X00017433Y00002984D01*
X00017400Y00002976D01*
X00017367Y00002970D01*
X00017333Y00002968D01*
X00017299Y00002969D01*
X00017266Y00002972D01*
X00017200Y00002982D01*
X00017174Y00002986D01*
X00017148Y00002993D01*
X00017123Y00003001D01*
X00017099Y00003011D01*
X00017075Y00003022D01*
X00017052Y00003035D01*
X00017030Y00003050D01*
X00017008Y00003066D01*
X00016989Y00003083D01*
X00016970Y00003101D01*
X00016952Y00003121D01*
X00016936Y00003142D01*
X00016922Y00003164D01*
X00016909Y00003187D01*
X00016897Y00003211D01*
X00016887Y00003236D01*
X00016879Y00003261D01*
X00016872Y00003286D01*
X00016867Y00003312D01*
X00016864Y00003338D01*
X00016862Y00003370D01*
X00016858Y00003413D01*
X00016850Y00003456D01*
X00016846Y00003496D01*
X00016838Y00003539D01*
X00016834Y00003578D01*
X00016818Y00003657D01*
X00016814Y00003696D01*
X00016807Y00003732D01*
X00016799Y00003771D01*
X00016791Y00003803D01*
X00016783Y00003838D01*
X00016779Y00003874D01*
X00016771Y00003905D01*
X00016763Y00003937D01*
X00016755Y00003964D01*
X00016744Y00003996D01*
X00016728Y00004051D01*
X00016696Y00004145D01*
X00016685Y00004165D01*
X00016669Y00004204D01*
X00016657Y00004220D01*
X00016641Y00004251D01*
X00016629Y00004267D01*
X00016622Y00004279D01*
X00016594Y00004307D01*
X00016582Y00004314D01*
X00016574Y00004318D01*
X00016562Y00004326D01*
X00016555Y00004326D01*
X00016543Y00004330D01*
X00015614Y00004330D01*
X00015482Y00004330D01*
X00015421Y00004335D01*
X00015361Y00004349D01*
X00015304Y00004373D01*
X00015251Y00004405D01*
X00015204Y00004446D01*
X00015164Y00004492D01*
X00015132Y00004545D01*
X00015108Y00004602D01*
X00015094Y00004662D01*
X00015089Y00004724D01*
X00015094Y00004785D01*
X00015108Y00004846D01*
X00015132Y00004903D01*
X00015164Y00004955D01*
X00015204Y00005002D01*
X00015251Y00005042D01*
X00015304Y00005075D01*
X00015361Y00005098D01*
X00015421Y00005113D01*
X00015482Y00005118D01*
X00016543Y00005118D01*
X00016555Y00005122D01*
X00016562Y00005122D01*
X00016574Y00005129D01*
X00016582Y00005133D01*
X00016594Y00005141D01*
X00016622Y00005169D01*
X00016629Y00005181D01*
X00016641Y00005196D01*
X00016657Y00005228D01*
X00016669Y00005244D01*
X00016685Y00005283D01*
X00016696Y00005303D01*
X00016720Y00005374D01*
X00016728Y00005397D01*
X00016736Y00005425D01*
X00016744Y00005452D01*
X00016755Y00005484D01*
X00016763Y00005511D01*
X00016779Y00005574D01*
X00016783Y00005610D01*
X00016791Y00005645D01*
X00016799Y00005677D01*
X00016807Y00005716D01*
X00016814Y00005751D01*
X00016818Y00005791D01*
X00016826Y00005830D01*
X00016834Y00005870D01*
X00016838Y00005909D01*
X00016846Y00005952D01*
X00016850Y00005992D01*
X00016858Y00006035D01*
X00016862Y00006078D01*
X00016866Y00006125D01*
X00016874Y00006169D01*
X00016893Y00006405D01*
X00016897Y00006456D01*
X00016901Y00006503D01*
X00016905Y00006555D01*
X00016909Y00006602D01*
X00016913Y00006653D01*
X00016913Y00006704D01*
X00016921Y00006807D01*
X00016921Y00006862D01*
X00016925Y00006913D01*
X00016925Y00007019D01*
X00016929Y00007070D01*
X00016929Y00007496D01*
X00016925Y00007547D01*
X00016925Y00007653D01*
X00016921Y00007704D01*
X00016921Y00007759D01*
X00016913Y00007862D01*
X00016913Y00007913D01*
X00016909Y00007964D01*
X00016905Y00008011D01*
X00016901Y00008062D01*
X00016897Y00008110D01*
X00016893Y00008161D01*
X00016874Y00008397D01*
X00016866Y00008440D01*
X00016862Y00008488D01*
X00016858Y00008531D01*
X00016850Y00008574D01*
X00016846Y00008614D01*
X00016838Y00008657D01*
X00016834Y00008696D01*
X00016818Y00008775D01*
X00016814Y00008814D01*
X00016807Y00008850D01*
X00016799Y00008889D01*
X00016791Y00008921D01*
X00016783Y00008956D01*
X00016779Y00008992D01*
X00016771Y00009023D01*
X00016763Y00009055D01*
X00016755Y00009082D01*
X00016744Y00009114D01*
X00016728Y00009169D01*
X00016696Y00009263D01*
X00016685Y00009283D01*
X00016669Y00009322D01*
X00016657Y00009338D01*
X00016641Y00009370D01*
X00016629Y00009385D01*
X00016622Y00009397D01*
X00016594Y00009425D01*
X00016582Y00009433D01*
X00016574Y00009437D01*
X00016562Y00009444D01*
X00016555Y00009444D01*
X00016543Y00009448D01*
X00015614Y00009448D01*
X00015482Y00009448D01*
X00015421Y00009453D01*
X00015361Y00009468D01*
X00015304Y00009491D01*
X00015251Y00009524D01*
X00015204Y00009564D01*
X00015164Y00009611D01*
X00015132Y00009663D01*
X00015108Y00009720D01*
X00015094Y00009780D01*
X00015089Y00009842D01*
X00015094Y00009904D01*
X00015108Y00009964D01*
X00015132Y00010021D01*
X00015164Y00010073D01*
X00015204Y00010120D01*
X00015251Y00010161D01*
X00015304Y00010193D01*
X00015361Y00010216D01*
X00015421Y00010231D01*
X00015482Y00010236D01*
X00016543Y00010236D01*
X00016555Y00010240D01*
X00016562Y00010240D01*
X00016574Y00010248D01*
X00016582Y00010251D01*
X00016594Y00010259D01*
X00016622Y00010287D01*
X00016629Y00010299D01*
X00016641Y00010314D01*
X00016657Y00010346D01*
X00016669Y00010362D01*
X00016685Y00010401D01*
X00016696Y00010421D01*
X00016720Y00010492D01*
X00016728Y00010515D01*
X00016736Y00010543D01*
X00016744Y00010570D01*
X00016755Y00010602D01*
X00016763Y00010629D01*
X00016779Y00010692D01*
X00016783Y00010728D01*
X00016791Y00010763D01*
X00016799Y00010795D01*
X00016807Y00010834D01*
X00016814Y00010870D01*
X00016818Y00010909D01*
X00016826Y00010948D01*
X00016834Y00010988D01*
X00016838Y00011027D01*
X00016846Y00011070D01*
X00016850Y00011110D01*
X00016858Y00011153D01*
X00016862Y00011196D01*
X00016866Y00011244D01*
X00016874Y00011287D01*
X00016893Y00011523D01*
X00016897Y00011574D01*
X00016901Y00011622D01*
X00016905Y00011673D01*
X00016909Y00011720D01*
X00016913Y00011771D01*
X00016913Y00011822D01*
X00016921Y00011925D01*
X00016921Y00011980D01*
X00016925Y00012031D01*
X00016925Y00012137D01*
X00016929Y00012188D01*
X00016929Y00012614D01*
X00016925Y00012665D01*
X00016925Y00012771D01*
X00016921Y00012822D01*
X00016921Y00012877D01*
X00016913Y00012980D01*
X00016913Y00013031D01*
X00016909Y00013082D01*
X00016905Y00013129D01*
X00016901Y00013181D01*
X00016897Y00013228D01*
X00016893Y00013279D01*
X00016874Y00013515D01*
X00016866Y00013559D01*
X00016862Y00013606D01*
X00016858Y00013649D01*
X00016850Y00013692D01*
X00016846Y00013732D01*
X00016838Y00013775D01*
X00016834Y00013814D01*
X00016818Y00013893D01*
X00016814Y00013933D01*
X00016807Y00013968D01*
X00016799Y00014007D01*
X00016791Y00014039D01*
X00016783Y00014074D01*
X00016779Y00014110D01*
X00016771Y00014141D01*
X00016763Y00014173D01*
X00016755Y00014200D01*
X00016744Y00014232D01*
X00016728Y00014287D01*
X00016696Y00014381D01*
X00016685Y00014401D01*
X00016669Y00014440D01*
X00016657Y00014456D01*
X00016641Y00014488D01*
X00016629Y00014503D01*
X00016622Y00014515D01*
X00016594Y00014543D01*
X00016582Y00014551D01*
X00016574Y00014555D01*
X00016562Y00014562D01*
X00016555Y00014562D01*
X00016543Y00014566D01*
X00015614Y00014566D01*
X00015482Y00014566D01*
X00015421Y00014571D01*
X00015361Y00014586D01*
X00015304Y00014609D01*
X00015251Y00014642D01*
X00015204Y00014682D01*
X00015164Y00014729D01*
X00015132Y00014781D01*
X00015108Y00014838D01*
X00015094Y00014899D01*
X00015089Y00014960D01*
X00015094Y00015022D01*
X00015108Y00015082D01*
X00015132Y00015139D01*
X00015164Y00015192D01*
X00015204Y00015239D01*
X00015251Y00015279D01*
X00015304Y00015311D01*
X00015361Y00015335D01*
X00015421Y00015349D01*
X00015482Y00015354D01*
X00016543Y00015354D01*
X00016555Y00015358D01*
X00016562Y00015358D01*
X00016574Y00015366D01*
X00016582Y00015370D01*
X00016594Y00015377D01*
X00016622Y00015405D01*
X00016629Y00015417D01*
X00016641Y00015433D01*
X00016657Y00015464D01*
X00016669Y00015480D01*
X00016685Y00015519D01*
X00016696Y00015539D01*
X00016720Y00015610D01*
X00016728Y00015633D01*
X00016736Y00015661D01*
X00016744Y00015688D01*
X00016755Y00015720D01*
X00016763Y00015748D01*
X00016779Y00015811D01*
X00016783Y00015846D01*
X00016791Y00015881D01*
X00016799Y00015913D01*
X00016807Y00015952D01*
X00016814Y00015988D01*
X00016818Y00016027D01*
X00016826Y00016066D01*
X00016834Y00016106D01*
X00016838Y00016145D01*
X00016846Y00016188D01*
X00016850Y00016228D01*
X00016858Y00016271D01*
X00016862Y00016314D01*
X00016866Y00016362D01*
X00016874Y00016405D01*
X00016893Y00016641D01*
X00016897Y00016692D01*
X00016901Y00016740D01*
X00016905Y00016791D01*
X00016909Y00016838D01*
X00016913Y00016889D01*
X00016913Y00016940D01*
X00016921Y00017043D01*
X00016921Y00017098D01*
X00016925Y00017149D01*
X00016925Y00017255D01*
X00016929Y00017307D01*
X00016929Y00017732D01*
X00016925Y00017783D01*
X00016925Y00017889D01*
X00016921Y00017940D01*
X00016921Y00017996D01*
X00016913Y00018098D01*
X00016913Y00018149D01*
X00016909Y00018200D01*
X00016905Y00018248D01*
X00016901Y00018299D01*
X00016897Y00018346D01*
X00016893Y00018397D01*
X00016874Y00018633D01*
X00016866Y00018677D01*
X00016862Y00018724D01*
X00016858Y00018767D01*
X00016850Y00018811D01*
X00016846Y00018850D01*
X00016838Y00018893D01*
X00016834Y00018933D01*
X00016818Y00019011D01*
X00016814Y00019051D01*
X00016807Y00019086D01*
X00016799Y00019125D01*
X00016791Y00019157D01*
X00016783Y00019192D01*
X00016779Y00019228D01*
X00016771Y00019259D01*
X00016763Y00019291D01*
X00016755Y00019318D01*
X00016744Y00019350D01*
X00016728Y00019405D01*
X00016696Y00019500D01*
X00016685Y00019519D01*
X00016669Y00019559D01*
X00016657Y00019574D01*
X00016641Y00019606D01*
X00016629Y00019622D01*
X00016622Y00019633D01*
X00016594Y00019661D01*
X00016582Y00019669D01*
X00016574Y00019673D01*
X00016562Y00019681D01*
X00016555Y00019681D01*
X00016543Y00019685D01*
X00015614Y00019685D01*
X00015482Y00019685D01*
X00015421Y00019689D01*
X00015361Y00019704D01*
X00015304Y00019727D01*
X00015251Y00019760D01*
X00015204Y00019800D01*
X00015164Y00019847D01*
X00015132Y00019900D01*
X00015108Y00019957D01*
X00015094Y00020017D01*
X00015089Y00020078D01*
X00015094Y00020140D01*
X00015108Y00020200D01*
X00015132Y00020257D01*
X00015164Y00020310D01*
X00015204Y00020357D01*
X00015251Y00020397D01*
X00015304Y00020429D01*
X00015361Y00020453D01*
X00015421Y00020467D01*
X00015482Y00020472D01*
X00016543Y00020472D01*
X00016555Y00020476D01*
X00016562Y00020476D01*
X00016574Y00020484D01*
X00016582Y00020488D01*
X00016594Y00020496D01*
X00016622Y00020523D01*
X00016629Y00020535D01*
X00016641Y00020551D01*
X00016657Y00020582D01*
X00016669Y00020598D01*
X00016685Y00020637D01*
X00016696Y00020657D01*
X00016720Y00020728D01*
X00016728Y00020751D01*
X00016736Y00020779D01*
X00016744Y00020807D01*
X00016755Y00020838D01*
X00016763Y00020866D01*
X00016779Y00020929D01*
X00016783Y00020964D01*
X00016791Y00021000D01*
X00016799Y00021031D01*
X00016807Y00021070D01*
X00016814Y00021106D01*
X00016818Y00021145D01*
X00016826Y00021185D01*
X00016834Y00021224D01*
X00016838Y00021263D01*
X00016846Y00021307D01*
X00016850Y00021346D01*
X00016858Y00021389D01*
X00016862Y00021433D01*
X00016866Y00021480D01*
X00016874Y00021523D01*
X00016893Y00021759D01*
X00016897Y00021811D01*
X00016901Y00021858D01*
X00016905Y00021909D01*
X00016909Y00021956D01*
X00016913Y00022007D01*
X00016913Y00022059D01*
X00016921Y00022161D01*
X00016921Y00022216D01*
X00016925Y00022267D01*
X00016925Y00022374D01*
X00016929Y00022425D01*
X00016929Y00022850D01*
X00016925Y00022901D01*
X00016925Y00023007D01*
X00016921Y00023059D01*
X00016921Y00023114D01*
X00016913Y00023216D01*
X00016913Y00023267D01*
X00016909Y00023318D01*
X00016905Y00023366D01*
X00016901Y00023417D01*
X00016897Y00023464D01*
X00016893Y00023515D01*
X00016874Y00023751D01*
X00016866Y00023795D01*
X00016862Y00023842D01*
X00016858Y00023885D01*
X00016850Y00023929D01*
X00016846Y00023968D01*
X00016838Y00024011D01*
X00016834Y00024051D01*
X00016818Y00024129D01*
X00016814Y00024169D01*
X00016807Y00024204D01*
X00016799Y00024244D01*
X00016791Y00024275D01*
X00016783Y00024311D01*
X00016779Y00024346D01*
X00016771Y00024377D01*
X00016763Y00024409D01*
X00016755Y00024437D01*
X00016744Y00024468D01*
X00016728Y00024523D01*
X00016696Y00024618D01*
X00016685Y00024637D01*
X00016669Y00024677D01*
X00016657Y00024692D01*
X00016641Y00024724D01*
X00016629Y00024740D01*
X00016622Y00024751D01*
X00016594Y00024779D01*
X00016582Y00024787D01*
X00016574Y00024791D01*
X00016562Y00024799D01*
X00016555Y00024799D01*
X00016543Y00024803D01*
X00015614Y00024803D01*
X00015482Y00024803D01*
X00015421Y00024807D01*
X00015361Y00024822D01*
X00015304Y00024846D01*
X00015251Y00024878D01*
X00015204Y00024918D01*
X00015164Y00024965D01*
X00015132Y00025018D01*
X00015108Y00025075D01*
X00015094Y00025135D01*
X00015089Y00025196D01*
X00015094Y00025258D01*
X00015108Y00025318D01*
X00015132Y00025375D01*
X00015164Y00025428D01*
X00015204Y00025475D01*
X00015251Y00025515D01*
X00015304Y00025547D01*
X00015361Y00025571D01*
X00015421Y00025585D01*
X00015482Y00025590D01*
X00016543Y00025590D01*
X00016555Y00025594D01*
X00016562Y00025594D01*
X00016574Y00025602D01*
X00016582Y00025606D01*
X00016594Y00025614D01*
X00016622Y00025641D01*
X00016629Y00025653D01*
X00016641Y00025669D01*
X00016657Y00025700D01*
X00016669Y00025716D01*
X00016685Y00025755D01*
X00016696Y00025775D01*
X00016720Y00025846D01*
X00016728Y00025870D01*
X00016736Y00025897D01*
X00016744Y00025925D01*
X00016755Y00025956D01*
X00016763Y00025984D01*
X00016779Y00026047D01*
X00016783Y00026082D01*
X00016791Y00026118D01*
X00016799Y00026149D01*
X00016807Y00026188D01*
X00016814Y00026224D01*
X00016818Y00026263D01*
X00016826Y00026303D01*
X00016834Y00026342D01*
X00016838Y00026381D01*
X00016846Y00026425D01*
X00016850Y00026464D01*
X00016858Y00026507D01*
X00016862Y00026551D01*
X00016866Y00026598D01*
X00016874Y00026641D01*
X00016893Y00026877D01*
X00016897Y00026929D01*
X00016901Y00026976D01*
X00016905Y00027027D01*
X00016909Y00027074D01*
X00016913Y00027125D01*
X00016913Y00027177D01*
X00016921Y00027279D01*
X00016921Y00027334D01*
X00016925Y00027385D01*
X00016925Y00027492D01*
X00016929Y00027543D01*
X00016929Y00027968D01*
X00016925Y00028019D01*
X00016925Y00028125D01*
X00016921Y00028177D01*
X00016921Y00028232D01*
X00016913Y00028334D01*
X00016913Y00028385D01*
X00016909Y00028437D01*
X00016905Y00028484D01*
X00016901Y00028535D01*
X00016897Y00028582D01*
X00016893Y00028633D01*
X00016874Y00028870D01*
X00016866Y00028913D01*
X00016862Y00028960D01*
X00016858Y00029003D01*
X00016850Y00029047D01*
X00016846Y00029086D01*
X00016838Y00029129D01*
X00016834Y00029169D01*
X00016818Y00029248D01*
X00016814Y00029287D01*
X00016807Y00029322D01*
X00016799Y00029362D01*
X00016791Y00029393D01*
X00016783Y00029429D01*
X00016779Y00029464D01*
X00016771Y00029496D01*
X00016763Y00029527D01*
X00016755Y00029555D01*
X00016744Y00029586D01*
X00016728Y00029641D01*
X00016696Y00029736D01*
X00016685Y00029755D01*
X00016669Y00029795D01*
X00016657Y00029811D01*
X00016641Y00029842D01*
X00016629Y00029858D01*
X00016622Y00029870D01*
X00016594Y00029897D01*
X00016582Y00029905D01*
X00016574Y00029909D01*
X00016562Y00029917D01*
X00016555Y00029917D01*
X00016543Y00029921D01*
X00015614Y00029921D01*
X00015482Y00029921D01*
X00015421Y00029926D01*
X00015361Y00029940D01*
X00015304Y00029964D01*
X00015251Y00029996D01*
X00015204Y00030036D01*
X00015164Y00030083D01*
X00015132Y00030136D01*
X00015108Y00030193D01*
X00015094Y00030253D01*
X00015089Y00030314D01*
X00015094Y00030376D01*
X00015108Y00030436D01*
X00015132Y00030493D01*
X00015164Y00030546D01*
X00015204Y00030593D01*
X00015251Y00030633D01*
X00015304Y00030665D01*
X00015361Y00030689D01*
X00015421Y00030703D01*
X00015482Y00030708D01*
X00016543Y00030708D01*
X00016555Y00030712D01*
X00016562Y00030712D01*
X00016574Y00030720D01*
X00016582Y00030724D01*
X00016594Y00030732D01*
X00016622Y00030759D01*
X00016629Y00030771D01*
X00016641Y00030787D01*
X00016657Y00030818D01*
X00016669Y00030834D01*
X00016685Y00030874D01*
X00016696Y00030893D01*
X00016720Y00030964D01*
X00016728Y00030988D01*
X00016736Y00031015D01*
X00016744Y00031043D01*
X00016755Y00031074D01*
X00016763Y00031102D01*
X00016779Y00031165D01*
X00016783Y00031200D01*
X00016791Y00031236D01*
X00016799Y00031267D01*
X00016807Y00031307D01*
X00016814Y00031342D01*
X00016818Y00031381D01*
X00016826Y00031421D01*
X00016834Y00031460D01*
X00016838Y00031500D01*
X00016846Y00031543D01*
X00016850Y00031582D01*
X00016858Y00031625D01*
X00016862Y00031669D01*
X00016864Y00031700D01*
X00005053Y00031700D02*
X00005053Y00031700D01*
X00005056Y00031726D01*
X00005061Y00031752D01*
X00005068Y00031778D01*
X00005076Y00031803D01*
X00005086Y00031827D01*
X00005098Y00031851D01*
X00005111Y00031874D01*
X00005125Y00031896D01*
X00005141Y00031917D01*
X00005159Y00031937D01*
X00005178Y00031956D01*
X00005197Y00031973D01*
X00005219Y00031989D01*
X00005241Y00032003D01*
X00005264Y00032016D01*
X00005287Y00032028D01*
X00005312Y00032038D01*
X00005337Y00032046D01*
X00005363Y00032052D01*
X00005389Y00032057D01*
X00005455Y00032066D01*
X00005488Y00032070D01*
X00005522Y00032070D01*
X00005556Y00032068D01*
X00005589Y00032063D01*
X00005622Y00032055D01*
X00005654Y00032044D01*
X00005685Y00032030D01*
X00005714Y00032014D01*
X00005742Y00031996D01*
X00005769Y00031975D01*
X00005793Y00031951D01*
X00005816Y00031926D01*
X00005836Y00031899D01*
X00005854Y00031871D01*
X00005869Y00031840D01*
X00005882Y00031809D01*
X00005892Y00031777D01*
X00005899Y00031744D01*
X00005904Y00031710D01*
X00005905Y00031677D01*
X00005905Y00030885D01*
X00005908Y00030857D01*
X00005915Y00030830D01*
X00005927Y00030804D01*
X00005942Y00030780D01*
X00005961Y00030758D01*
X00005983Y00030740D01*
X00006007Y00030726D01*
X00006034Y00030716D01*
X00006062Y00030710D01*
X00006086Y00030708D01*
X00007351Y00030708D01*
X00007413Y00030703D01*
X00007473Y00030689D01*
X00007530Y00030665D01*
X00007583Y00030633D01*
X00007630Y00030593D01*
X00007670Y00030546D01*
X00007702Y00030493D01*
X00007726Y00030436D01*
X00007740Y00030376D01*
X00007745Y00030314D01*
X00007740Y00030253D01*
X00007726Y00030193D01*
X00007702Y00030136D01*
X00007670Y00030083D01*
X00007630Y00030036D01*
X00007583Y00029996D01*
X00007530Y00029964D01*
X00007473Y00029940D01*
X00007413Y00029926D01*
X00007351Y00029921D01*
X00007220Y00029921D01*
X00006082Y00029921D01*
X00006054Y00029918D01*
X00006026Y00029911D01*
X00006000Y00029899D01*
X00005976Y00029884D01*
X00005955Y00029865D01*
X00005937Y00029843D01*
X00005923Y00029818D01*
X00005913Y00029792D01*
X00005907Y00029764D01*
X00005905Y00029732D01*
X00005905Y00025767D01*
X00005908Y00025739D01*
X00005915Y00025711D01*
X00005927Y00025685D01*
X00005942Y00025662D01*
X00005961Y00025640D01*
X00005983Y00025622D01*
X00006007Y00025608D01*
X00006034Y00025598D01*
X00006062Y00025592D01*
X00006086Y00025590D01*
X00007351Y00025590D01*
X00007413Y00025585D01*
X00007473Y00025571D01*
X00007530Y00025547D01*
X00007583Y00025515D01*
X00007630Y00025475D01*
X00007670Y00025428D01*
X00007702Y00025375D01*
X00007726Y00025318D01*
X00007740Y00025258D01*
X00007745Y00025196D01*
X00007740Y00025135D01*
X00007726Y00025075D01*
X00007702Y00025018D01*
X00007670Y00024965D01*
X00007630Y00024918D01*
X00007583Y00024878D01*
X00007530Y00024846D01*
X00007473Y00024822D01*
X00007413Y00024807D01*
X00007351Y00024803D01*
X00007220Y00024803D01*
X00006082Y00024803D01*
X00006054Y00024800D01*
X00006026Y00024793D01*
X00006000Y00024781D01*
X00005976Y00024766D01*
X00005955Y00024747D01*
X00005937Y00024725D01*
X00005923Y00024700D01*
X00005913Y00024674D01*
X00005907Y00024646D01*
X00005905Y00024614D01*
X00005905Y00020649D01*
X00005908Y00020621D01*
X00005915Y00020593D01*
X00005927Y00020567D01*
X00005942Y00020543D01*
X00005961Y00020522D01*
X00005983Y00020504D01*
X00006007Y00020490D01*
X00006034Y00020480D01*
X00006062Y00020474D01*
X00006086Y00020472D01*
X00007351Y00020472D01*
X00007413Y00020467D01*
X00007473Y00020453D01*
X00007530Y00020429D01*
X00007583Y00020397D01*
X00007630Y00020357D01*
X00007670Y00020310D01*
X00007702Y00020257D01*
X00007726Y00020200D01*
X00007740Y00020140D01*
X00007745Y00020078D01*
X00007740Y00020017D01*
X00007726Y00019957D01*
X00007702Y00019900D01*
X00007670Y00019847D01*
X00007630Y00019800D01*
X00007583Y00019760D01*
X00007530Y00019727D01*
X00007473Y00019704D01*
X00007413Y00019689D01*
X00007351Y00019685D01*
X00007220Y00019685D01*
X00006082Y00019685D01*
X00006054Y00019682D01*
X00006026Y00019674D01*
X00006000Y00019663D01*
X00005976Y00019648D01*
X00005955Y00019629D01*
X00005937Y00019607D01*
X00005923Y00019582D01*
X00005913Y00019556D01*
X00005907Y00019528D01*
X00005905Y00019496D01*
X00005905Y00015531D01*
X00005908Y00015503D01*
X00005915Y00015475D01*
X00005927Y00015449D01*
X00005942Y00015425D01*
X00005961Y00015404D01*
X00005983Y00015386D01*
X00006007Y00015372D01*
X00006034Y00015361D01*
X00006062Y00015355D01*
X00006086Y00015354D01*
X00007351Y00015354D01*
X00007413Y00015349D01*
X00007473Y00015335D01*
X00007530Y00015311D01*
X00007583Y00015279D01*
X00007630Y00015239D01*
X00007670Y00015192D01*
X00007702Y00015139D01*
X00007726Y00015082D01*
X00007740Y00015022D01*
X00007745Y00014960D01*
X00007740Y00014899D01*
X00007726Y00014838D01*
X00007702Y00014781D01*
X00007670Y00014729D01*
X00007630Y00014682D01*
X00007583Y00014642D01*
X00007530Y00014609D01*
X00007473Y00014586D01*
X00007413Y00014571D01*
X00007351Y00014566D01*
X00007220Y00014566D01*
X00006082Y00014566D01*
X00006054Y00014564D01*
X00006026Y00014556D01*
X00006000Y00014545D01*
X00005976Y00014530D01*
X00005955Y00014511D01*
X00005937Y00014489D01*
X00005923Y00014464D01*
X00005913Y00014438D01*
X00005907Y00014410D01*
X00005905Y00014377D01*
X00005905Y00010413D01*
X00005908Y00010385D01*
X00005915Y00010357D01*
X00005927Y00010331D01*
X00005942Y00010307D01*
X00005961Y00010286D01*
X00005983Y00010268D01*
X00006007Y00010254D01*
X00006034Y00010243D01*
X00006062Y00010237D01*
X00006086Y00010236D01*
X00007351Y00010236D01*
X00007413Y00010231D01*
X00007473Y00010216D01*
X00007530Y00010193D01*
X00007583Y00010161D01*
X00007630Y00010120D01*
X00007670Y00010073D01*
X00007702Y00010021D01*
X00007726Y00009964D01*
X00007740Y00009904D01*
X00007745Y00009842D01*
X00007740Y00009780D01*
X00007726Y00009720D01*
X00007702Y00009663D01*
X00007670Y00009611D01*
X00007630Y00009564D01*
X00007583Y00009524D01*
X00007530Y00009491D01*
X00007473Y00009468D01*
X00007413Y00009453D01*
X00007351Y00009448D01*
X00007220Y00009448D01*
X00006082Y00009448D01*
X00006054Y00009445D01*
X00006026Y00009438D01*
X00006000Y00009427D01*
X00005976Y00009411D01*
X00005955Y00009392D01*
X00005937Y00009370D01*
X00005923Y00009346D01*
X00005913Y00009319D01*
X00005907Y00009292D01*
X00005905Y00009259D01*
X00005905Y00005295D01*
X00005908Y00005266D01*
X00005915Y00005239D01*
X00005927Y00005213D01*
X00005942Y00005189D01*
X00005961Y00005168D01*
X00005983Y00005150D01*
X00006007Y00005136D01*
X00006034Y00005125D01*
X00006062Y00005119D01*
X00006086Y00005118D01*
X00007351Y00005118D01*
X00007413Y00005113D01*
X00007473Y00005098D01*
X00007530Y00005075D01*
X00007583Y00005042D01*
X00007630Y00005002D01*
X00007670Y00004955D01*
X00007702Y00004903D01*
X00007726Y00004846D01*
X00007740Y00004785D01*
X00007745Y00004724D01*
X00007740Y00004662D01*
X00007726Y00004602D01*
X00007702Y00004545D01*
X00007670Y00004492D01*
X00007630Y00004446D01*
X00007583Y00004405D01*
X00007530Y00004373D01*
X00007473Y00004349D01*
X00007413Y00004335D01*
X00007351Y00004330D01*
X00007220Y00004330D01*
X00006082Y00004330D01*
X00006054Y00004327D01*
X00006026Y00004320D01*
X00006000Y00004309D01*
X00005976Y00004293D01*
X00005955Y00004274D01*
X00005937Y00004252D01*
X00005923Y00004228D01*
X00005913Y00004201D01*
X00005907Y00004174D01*
X00005905Y00004141D01*
X00005905Y00003362D01*
X00005904Y00003328D01*
X00005899Y00003294D01*
X00005892Y00003261D01*
X00005882Y00003229D01*
X00005869Y00003198D01*
X00005854Y00003168D01*
X00005836Y00003139D01*
X00005816Y00003112D01*
X00005793Y00003087D01*
X00005769Y00003064D01*
X00005742Y00003043D01*
X00005714Y00003024D01*
X00005685Y00003008D01*
X00005654Y00002995D01*
X00005622Y00002984D01*
X00005589Y00002976D01*
X00005556Y00002970D01*
X00005522Y00002968D01*
X00005488Y00002969D01*
X00005455Y00002972D01*
X00005389Y00002982D01*
X00005363Y00002986D01*
X00005337Y00002993D01*
X00005312Y00003001D01*
X00005287Y00003011D01*
X00005264Y00003022D01*
X00005241Y00003035D01*
X00005219Y00003050D01*
X00005197Y00003066D01*
X00005178Y00003083D01*
X00005159Y00003101D01*
X00005141Y00003121D01*
X00005125Y00003142D01*
X00005111Y00003164D01*
X00005098Y00003187D01*
X00005086Y00003211D01*
X00005076Y00003236D01*
X00005068Y00003261D01*
X00005061Y00003286D01*
X00005056Y00003312D01*
X00005053Y00003338D01*
X00005051Y00003370D01*
X00005047Y00003413D01*
X00005039Y00003456D01*
X00005035Y00003496D01*
X00005027Y00003539D01*
X00005023Y00003578D01*
X00005007Y00003657D01*
X00005003Y00003696D01*
X00004996Y00003732D01*
X00004988Y00003771D01*
X00004980Y00003803D01*
X00004972Y00003838D01*
X00004968Y00003874D01*
X00004960Y00003905D01*
X00004952Y00003937D01*
X00004944Y00003964D01*
X00004933Y00003996D01*
X00004917Y00004051D01*
X00004885Y00004145D01*
X00004874Y00004165D01*
X00004858Y00004204D01*
X00004846Y00004220D01*
X00004830Y00004251D01*
X00004818Y00004267D01*
X00004811Y00004279D01*
X00004783Y00004307D01*
X00004771Y00004314D01*
X00004763Y00004318D01*
X00004751Y00004326D01*
X00004744Y00004326D01*
X00004732Y00004330D01*
X00003755Y00004330D01*
X00003755Y00004330D01*
X00003694Y00004335D01*
X00003634Y00004349D01*
X00003577Y00004373D01*
X00003524Y00004405D01*
X00003477Y00004446D01*
X00003437Y00004492D01*
X00003405Y00004545D01*
X00003381Y00004602D01*
X00003366Y00004662D01*
X00003362Y00004724D01*
X00003366Y00004785D01*
X00003381Y00004846D01*
X00003405Y00004903D01*
X00003437Y00004955D01*
X00003477Y00005002D01*
X00003524Y00005042D01*
X00003577Y00005075D01*
X00003634Y00005098D01*
X00003694Y00005113D01*
X00003755Y00005118D01*
X00004732Y00005118D01*
X00004744Y00005122D01*
X00004751Y00005122D01*
X00004763Y00005129D01*
X00004771Y00005133D01*
X00004783Y00005141D01*
X00004811Y00005169D01*
X00004818Y00005181D01*
X00004830Y00005196D01*
X00004846Y00005228D01*
X00004858Y00005244D01*
X00004874Y00005283D01*
X00004885Y00005303D01*
X00004909Y00005374D01*
X00004917Y00005397D01*
X00004925Y00005425D01*
X00004933Y00005452D01*
X00004944Y00005484D01*
X00004952Y00005511D01*
X00004968Y00005574D01*
X00004972Y00005610D01*
X00004980Y00005645D01*
X00004988Y00005677D01*
X00004996Y00005716D01*
X00005003Y00005751D01*
X00005007Y00005791D01*
X00005015Y00005830D01*
X00005023Y00005870D01*
X00005027Y00005909D01*
X00005035Y00005952D01*
X00005039Y00005992D01*
X00005047Y00006035D01*
X00005051Y00006078D01*
X00005055Y00006125D01*
X00005062Y00006169D01*
X00005082Y00006405D01*
X00005086Y00006456D01*
X00005090Y00006503D01*
X00005094Y00006555D01*
X00005098Y00006602D01*
X00005102Y00006653D01*
X00005102Y00006704D01*
X00005110Y00006807D01*
X00005110Y00006862D01*
X00005114Y00006913D01*
X00005114Y00007019D01*
X00005118Y00007070D01*
X00005118Y00007496D01*
X00005114Y00007547D01*
X00005114Y00007653D01*
X00005110Y00007704D01*
X00005110Y00007759D01*
X00005102Y00007862D01*
X00005102Y00007913D01*
X00005098Y00007964D01*
X00005094Y00008011D01*
X00005090Y00008062D01*
X00005086Y00008110D01*
X00005082Y00008161D01*
X00005062Y00008397D01*
X00005055Y00008440D01*
X00005051Y00008488D01*
X00005047Y00008531D01*
X00005039Y00008574D01*
X00005035Y00008614D01*
X00005027Y00008657D01*
X00005023Y00008696D01*
X00005007Y00008775D01*
X00005003Y00008814D01*
X00004996Y00008850D01*
X00004988Y00008889D01*
X00004980Y00008921D01*
X00004972Y00008956D01*
X00004968Y00008992D01*
X00004960Y00009023D01*
X00004952Y00009055D01*
X00004944Y00009082D01*
X00004933Y00009114D01*
X00004917Y00009169D01*
X00004885Y00009263D01*
X00004874Y00009283D01*
X00004858Y00009322D01*
X00004846Y00009338D01*
X00004830Y00009370D01*
X00004818Y00009385D01*
X00004811Y00009397D01*
X00004783Y00009425D01*
X00004771Y00009433D01*
X00004763Y00009437D01*
X00004751Y00009444D01*
X00004744Y00009444D01*
X00004732Y00009448D01*
X00003755Y00009448D01*
X00003755Y00009448D01*
X00003694Y00009453D01*
X00003634Y00009468D01*
X00003577Y00009491D01*
X00003524Y00009524D01*
X00003477Y00009564D01*
X00003437Y00009611D01*
X00003405Y00009663D01*
X00003381Y00009720D01*
X00003366Y00009780D01*
X00003362Y00009842D01*
X00003366Y00009904D01*
X00003381Y00009964D01*
X00003405Y00010021D01*
X00003437Y00010073D01*
X00003477Y00010120D01*
X00003524Y00010161D01*
X00003577Y00010193D01*
X00003634Y00010216D01*
X00003694Y00010231D01*
X00003755Y00010236D01*
X00004732Y00010236D01*
X00004744Y00010240D01*
X00004751Y00010240D01*
X00004763Y00010248D01*
X00004771Y00010251D01*
X00004783Y00010259D01*
X00004811Y00010287D01*
X00004818Y00010299D01*
X00004830Y00010314D01*
X00004846Y00010346D01*
X00004858Y00010362D01*
X00004874Y00010401D01*
X00004885Y00010421D01*
X00004909Y00010492D01*
X00004917Y00010515D01*
X00004925Y00010543D01*
X00004933Y00010570D01*
X00004944Y00010602D01*
X00004952Y00010629D01*
X00004968Y00010692D01*
X00004972Y00010728D01*
X00004980Y00010763D01*
X00004988Y00010795D01*
X00004996Y00010834D01*
X00005003Y00010870D01*
X00005007Y00010909D01*
X00005015Y00010948D01*
X00005023Y00010988D01*
X00005027Y00011027D01*
X00005035Y00011070D01*
X00005039Y00011110D01*
X00005047Y00011153D01*
X00005051Y00011196D01*
X00005055Y00011244D01*
X00005062Y00011287D01*
X00005082Y00011523D01*
X00005086Y00011574D01*
X00005090Y00011622D01*
X00005094Y00011673D01*
X00005098Y00011720D01*
X00005102Y00011771D01*
X00005102Y00011822D01*
X00005110Y00011925D01*
X00005110Y00011980D01*
X00005114Y00012031D01*
X00005114Y00012137D01*
X00005118Y00012188D01*
X00005118Y00012614D01*
X00005114Y00012665D01*
X00005114Y00012771D01*
X00005110Y00012822D01*
X00005110Y00012877D01*
X00005102Y00012980D01*
X00005102Y00013031D01*
X00005098Y00013082D01*
X00005094Y00013129D01*
X00005090Y00013181D01*
X00005086Y00013228D01*
X00005082Y00013279D01*
X00005062Y00013515D01*
X00005055Y00013559D01*
X00005051Y00013606D01*
X00005047Y00013649D01*
X00005039Y00013692D01*
X00005035Y00013732D01*
X00005027Y00013775D01*
X00005023Y00013814D01*
X00005007Y00013893D01*
X00005003Y00013933D01*
X00004996Y00013968D01*
X00004988Y00014007D01*
X00004980Y00014039D01*
X00004972Y00014074D01*
X00004968Y00014110D01*
X00004960Y00014141D01*
X00004952Y00014173D01*
X00004944Y00014200D01*
X00004933Y00014232D01*
X00004917Y00014287D01*
X00004885Y00014381D01*
X00004874Y00014401D01*
X00004858Y00014440D01*
X00004846Y00014456D01*
X00004830Y00014488D01*
X00004818Y00014503D01*
X00004811Y00014515D01*
X00004783Y00014543D01*
X00004771Y00014551D01*
X00004763Y00014555D01*
X00004751Y00014562D01*
X00004744Y00014562D01*
X00004732Y00014566D01*
X00003755Y00014566D01*
X00003755Y00014566D01*
X00003694Y00014571D01*
X00003634Y00014586D01*
X00003577Y00014609D01*
X00003524Y00014642D01*
X00003477Y00014682D01*
X00003437Y00014729D01*
X00003405Y00014781D01*
X00003381Y00014838D01*
X00003366Y00014899D01*
X00003362Y00014960D01*
X00003366Y00015022D01*
X00003381Y00015082D01*
X00003405Y00015139D01*
X00003437Y00015192D01*
X00003477Y00015239D01*
X00003524Y00015279D01*
X00003577Y00015311D01*
X00003634Y00015335D01*
X00003694Y00015349D01*
X00003755Y00015354D01*
X00004732Y00015354D01*
X00004744Y00015358D01*
X00004751Y00015358D01*
X00004763Y00015366D01*
X00004771Y00015370D01*
X00004783Y00015377D01*
X00004811Y00015405D01*
X00004818Y00015417D01*
X00004830Y00015433D01*
X00004846Y00015464D01*
X00004858Y00015480D01*
X00004874Y00015519D01*
X00004885Y00015539D01*
X00004909Y00015610D01*
X00004917Y00015633D01*
X00004925Y00015661D01*
X00004933Y00015688D01*
X00004944Y00015720D01*
X00004952Y00015748D01*
X00004968Y00015811D01*
X00004972Y00015846D01*
X00004980Y00015881D01*
X00004988Y00015913D01*
X00004996Y00015952D01*
X00005003Y00015988D01*
X00005007Y00016027D01*
X00005015Y00016066D01*
X00005023Y00016106D01*
X00005027Y00016145D01*
X00005035Y00016188D01*
X00005039Y00016228D01*
X00005047Y00016271D01*
X00005051Y00016314D01*
X00005055Y00016362D01*
X00005062Y00016405D01*
X00005082Y00016641D01*
X00005086Y00016692D01*
X00005090Y00016740D01*
X00005094Y00016791D01*
X00005098Y00016838D01*
X00005102Y00016889D01*
X00005102Y00016940D01*
X00005110Y00017043D01*
X00005110Y00017098D01*
X00005114Y00017149D01*
X00005114Y00017255D01*
X00005118Y00017307D01*
X00005118Y00017732D01*
X00005114Y00017783D01*
X00005114Y00017889D01*
X00005110Y00017940D01*
X00005110Y00017996D01*
X00005102Y00018098D01*
X00005102Y00018149D01*
X00005098Y00018200D01*
X00005094Y00018248D01*
X00005090Y00018299D01*
X00005086Y00018346D01*
X00005082Y00018397D01*
X00005062Y00018633D01*
X00005055Y00018677D01*
X00005051Y00018724D01*
X00005047Y00018767D01*
X00005039Y00018811D01*
X00005035Y00018850D01*
X00005027Y00018893D01*
X00005023Y00018933D01*
X00005007Y00019011D01*
X00005003Y00019051D01*
X00004996Y00019086D01*
X00004988Y00019125D01*
X00004980Y00019157D01*
X00004972Y00019192D01*
X00004968Y00019228D01*
X00004960Y00019259D01*
X00004952Y00019291D01*
X00004944Y00019318D01*
X00004933Y00019350D01*
X00004917Y00019405D01*
X00004885Y00019500D01*
X00004874Y00019519D01*
X00004858Y00019559D01*
X00004846Y00019574D01*
X00004830Y00019606D01*
X00004818Y00019622D01*
X00004811Y00019633D01*
X00004783Y00019661D01*
X00004771Y00019669D01*
X00004763Y00019673D01*
X00004751Y00019681D01*
X00004744Y00019681D01*
X00004732Y00019685D01*
X00003755Y00019685D01*
X00003755Y00019685D01*
X00003694Y00019689D01*
X00003634Y00019704D01*
X00003577Y00019727D01*
X00003524Y00019760D01*
X00003477Y00019800D01*
X00003437Y00019847D01*
X00003405Y00019900D01*
X00003381Y00019957D01*
X00003366Y00020017D01*
X00003362Y00020078D01*
X00003366Y00020140D01*
X00003381Y00020200D01*
X00003405Y00020257D01*
X00003437Y00020310D01*
X00003477Y00020357D01*
X00003524Y00020397D01*
X00003577Y00020429D01*
X00003634Y00020453D01*
X00003694Y00020467D01*
X00003755Y00020472D01*
X00004732Y00020472D01*
X00004744Y00020476D01*
X00004751Y00020476D01*
X00004763Y00020484D01*
X00004771Y00020488D01*
X00004783Y00020496D01*
X00004811Y00020523D01*
X00004818Y00020535D01*
X00004830Y00020551D01*
X00004846Y00020582D01*
X00004858Y00020598D01*
X00004874Y00020637D01*
X00004885Y00020657D01*
X00004909Y00020728D01*
X00004917Y00020751D01*
X00004925Y00020779D01*
X00004933Y00020807D01*
X00004944Y00020838D01*
X00004952Y00020866D01*
X00004968Y00020929D01*
X00004972Y00020964D01*
X00004980Y00021000D01*
X00004988Y00021031D01*
X00004996Y00021070D01*
X00005003Y00021106D01*
X00005007Y00021145D01*
X00005015Y00021185D01*
X00005023Y00021224D01*
X00005027Y00021263D01*
X00005035Y00021307D01*
X00005039Y00021346D01*
X00005047Y00021389D01*
X00005051Y00021433D01*
X00005055Y00021480D01*
X00005062Y00021523D01*
X00005082Y00021759D01*
X00005086Y00021811D01*
X00005090Y00021858D01*
X00005094Y00021909D01*
X00005098Y00021956D01*
X00005102Y00022007D01*
X00005102Y00022059D01*
X00005110Y00022161D01*
X00005110Y00022216D01*
X00005114Y00022267D01*
X00005114Y00022374D01*
X00005118Y00022425D01*
X00005118Y00022850D01*
X00005114Y00022901D01*
X00005114Y00023007D01*
X00005110Y00023059D01*
X00005110Y00023114D01*
X00005102Y00023216D01*
X00005102Y00023267D01*
X00005098Y00023318D01*
X00005094Y00023366D01*
X00005090Y00023417D01*
X00005086Y00023464D01*
X00005082Y00023515D01*
X00005062Y00023751D01*
X00005055Y00023795D01*
X00005051Y00023842D01*
X00005047Y00023885D01*
X00005039Y00023929D01*
X00005035Y00023968D01*
X00005027Y00024011D01*
X00005023Y00024051D01*
X00005007Y00024129D01*
X00005003Y00024169D01*
X00004996Y00024204D01*
X00004988Y00024244D01*
X00004980Y00024275D01*
X00004972Y00024311D01*
X00004968Y00024346D01*
X00004960Y00024377D01*
X00004952Y00024409D01*
X00004944Y00024437D01*
X00004933Y00024468D01*
X00004917Y00024523D01*
X00004885Y00024618D01*
X00004874Y00024637D01*
X00004858Y00024677D01*
X00004846Y00024692D01*
X00004830Y00024724D01*
X00004818Y00024740D01*
X00004811Y00024751D01*
X00004783Y00024779D01*
X00004771Y00024787D01*
X00004763Y00024791D01*
X00004751Y00024799D01*
X00004744Y00024799D01*
X00004732Y00024803D01*
X00003755Y00024803D01*
X00003755Y00024803D01*
X00003694Y00024807D01*
X00003634Y00024822D01*
X00003577Y00024846D01*
X00003524Y00024878D01*
X00003477Y00024918D01*
X00003437Y00024965D01*
X00003405Y00025018D01*
X00003381Y00025075D01*
X00003366Y00025135D01*
X00003362Y00025196D01*
X00003366Y00025258D01*
X00003381Y00025318D01*
X00003405Y00025375D01*
X00003437Y00025428D01*
X00003477Y00025475D01*
X00003524Y00025515D01*
X00003577Y00025547D01*
X00003634Y00025571D01*
X00003694Y00025585D01*
X00003755Y00025590D01*
X00004732Y00025590D01*
X00004744Y00025594D01*
X00004751Y00025594D01*
X00004763Y00025602D01*
X00004771Y00025606D01*
X00004783Y00025614D01*
X00004811Y00025641D01*
X00004818Y00025653D01*
X00004830Y00025669D01*
X00004846Y00025700D01*
X00004858Y00025716D01*
X00004874Y00025755D01*
X00004885Y00025775D01*
X00004909Y00025846D01*
X00004917Y00025870D01*
X00004925Y00025897D01*
X00004933Y00025925D01*
X00004944Y00025956D01*
X00004952Y00025984D01*
X00004968Y00026047D01*
X00004972Y00026082D01*
X00004980Y00026118D01*
X00004988Y00026149D01*
X00004996Y00026188D01*
X00005003Y00026224D01*
X00005007Y00026263D01*
X00005015Y00026303D01*
X00005023Y00026342D01*
X00005027Y00026381D01*
X00005035Y00026425D01*
X00005039Y00026464D01*
X00005047Y00026507D01*
X00005051Y00026551D01*
X00005055Y00026598D01*
X00005062Y00026641D01*
X00005082Y00026877D01*
X00005086Y00026929D01*
X00005090Y00026976D01*
X00005094Y00027027D01*
X00005098Y00027074D01*
X00005102Y00027125D01*
X00005102Y00027177D01*
X00005110Y00027279D01*
X00005110Y00027334D01*
X00005114Y00027385D01*
X00005114Y00027492D01*
X00005118Y00027543D01*
X00005118Y00027968D01*
X00005114Y00028019D01*
X00005114Y00028125D01*
X00005110Y00028177D01*
X00005110Y00028232D01*
X00005102Y00028334D01*
X00005102Y00028385D01*
X00005098Y00028437D01*
X00005094Y00028484D01*
X00005090Y00028535D01*
X00005086Y00028582D01*
X00005082Y00028633D01*
X00005062Y00028870D01*
X00005055Y00028913D01*
X00005051Y00028960D01*
X00005047Y00029003D01*
X00005039Y00029047D01*
X00005035Y00029086D01*
X00005027Y00029129D01*
X00005023Y00029169D01*
X00005007Y00029248D01*
X00005003Y00029287D01*
X00004996Y00029322D01*
X00004988Y00029362D01*
X00004980Y00029393D01*
X00004972Y00029429D01*
X00004968Y00029464D01*
X00004960Y00029496D01*
X00004952Y00029527D01*
X00004944Y00029555D01*
X00004933Y00029586D01*
X00004917Y00029641D01*
X00004885Y00029736D01*
X00004874Y00029755D01*
X00004858Y00029795D01*
X00004846Y00029811D01*
X00004830Y00029842D01*
X00004818Y00029858D01*
X00004811Y00029870D01*
X00004783Y00029897D01*
X00004771Y00029905D01*
X00004763Y00029909D01*
X00004751Y00029917D01*
X00004744Y00029917D01*
X00004732Y00029921D01*
X00003755Y00029921D01*
X00003755Y00029921D01*
X00003694Y00029926D01*
X00003634Y00029940D01*
X00003577Y00029964D01*
X00003524Y00029996D01*
X00003477Y00030036D01*
X00003437Y00030083D01*
X00003405Y00030136D01*
X00003381Y00030193D01*
X00003366Y00030253D01*
X00003362Y00030314D01*
X00003366Y00030376D01*
X00003381Y00030436D01*
X00003405Y00030493D01*
X00003437Y00030546D01*
X00003477Y00030593D01*
X00003524Y00030633D01*
X00003577Y00030665D01*
X00003634Y00030689D01*
X00003694Y00030703D01*
X00003755Y00030708D01*
X00004732Y00030708D01*
X00004744Y00030712D01*
X00004751Y00030712D01*
X00004763Y00030720D01*
X00004771Y00030724D01*
X00004783Y00030732D01*
X00004811Y00030759D01*
X00004818Y00030771D01*
X00004830Y00030787D01*
X00004846Y00030818D01*
X00004858Y00030834D01*
X00004874Y00030874D01*
X00004885Y00030893D01*
X00004909Y00030964D01*
X00004917Y00030988D01*
X00004925Y00031015D01*
X00004933Y00031043D01*
X00004944Y00031074D01*
X00004952Y00031102D01*
X00004968Y00031165D01*
X00004972Y00031200D01*
X00004980Y00031236D01*
X00004988Y00031267D01*
X00004996Y00031307D01*
X00005003Y00031342D01*
X00005007Y00031381D01*
X00005015Y00031421D01*
X00005023Y00031460D01*
X00005027Y00031500D01*
X00005035Y00031543D01*
X00005039Y00031582D01*
X00005047Y00031625D01*
X00005051Y00031669D01*
X00005053Y00031700D01*
X00010959Y00031700D02*
X00010959Y00031700D01*
X00010962Y00031726D01*
X00010967Y00031752D01*
X00010973Y00031778D01*
X00010982Y00031803D01*
X00010991Y00031827D01*
X00011003Y00031851D01*
X00011016Y00031874D01*
X00011031Y00031896D01*
X00011047Y00031917D01*
X00011064Y00031937D01*
X00011083Y00031956D01*
X00011103Y00031973D01*
X00011124Y00031989D01*
X00011146Y00032003D01*
X00011169Y00032016D01*
X00011193Y00032028D01*
X00011218Y00032038D01*
X00011243Y00032046D01*
X00011268Y00032052D01*
X00011294Y00032057D01*
X00011360Y00032066D01*
X00011394Y00032070D01*
X00011427Y00032070D01*
X00011461Y00032068D01*
X00011494Y00032063D01*
X00011527Y00032055D01*
X00011559Y00032044D01*
X00011590Y00032030D01*
X00011620Y00032014D01*
X00011648Y00031996D01*
X00011674Y00031975D01*
X00011699Y00031951D01*
X00011721Y00031926D01*
X00011742Y00031899D01*
X00011760Y00031871D01*
X00011775Y00031840D01*
X00011788Y00031809D01*
X00011798Y00031777D01*
X00011805Y00031744D01*
X00011809Y00031710D01*
X00011811Y00031677D01*
X00011811Y00030885D01*
X00011813Y00030857D01*
X00011821Y00030830D01*
X00011832Y00030804D01*
X00011847Y00030780D01*
X00011866Y00030758D01*
X00011888Y00030740D01*
X00011913Y00030726D01*
X00011939Y00030716D01*
X00011967Y00030710D01*
X00011992Y00030708D01*
X00013257Y00030708D01*
X00013318Y00030703D01*
X00013378Y00030689D01*
X00013435Y00030665D01*
X00013488Y00030633D01*
X00013535Y00030593D01*
X00013575Y00030546D01*
X00013608Y00030493D01*
X00013631Y00030436D01*
X00013646Y00030376D01*
X00013650Y00030314D01*
X00013646Y00030253D01*
X00013631Y00030193D01*
X00013608Y00030136D01*
X00013575Y00030083D01*
X00013535Y00030036D01*
X00013488Y00029996D01*
X00013435Y00029964D01*
X00013378Y00029940D01*
X00013318Y00029926D01*
X00013257Y00029921D01*
X00013125Y00029921D01*
X00011988Y00029921D01*
X00011959Y00029918D01*
X00011932Y00029911D01*
X00011906Y00029899D01*
X00011882Y00029884D01*
X00011861Y00029865D01*
X00011843Y00029843D01*
X00011828Y00029818D01*
X00011818Y00029792D01*
X00011812Y00029764D01*
X00011811Y00029732D01*
X00011811Y00025767D01*
X00011813Y00025739D01*
X00011821Y00025711D01*
X00011832Y00025685D01*
X00011847Y00025662D01*
X00011866Y00025640D01*
X00011888Y00025622D01*
X00011913Y00025608D01*
X00011939Y00025598D01*
X00011967Y00025592D01*
X00011992Y00025590D01*
X00013257Y00025590D01*
X00013318Y00025585D01*
X00013378Y00025571D01*
X00013435Y00025547D01*
X00013488Y00025515D01*
X00013535Y00025475D01*
X00013575Y00025428D01*
X00013608Y00025375D01*
X00013631Y00025318D01*
X00013646Y00025258D01*
X00013650Y00025196D01*
X00013646Y00025135D01*
X00013631Y00025075D01*
X00013608Y00025018D01*
X00013575Y00024965D01*
X00013535Y00024918D01*
X00013488Y00024878D01*
X00013435Y00024846D01*
X00013378Y00024822D01*
X00013318Y00024807D01*
X00013257Y00024803D01*
X00013125Y00024803D01*
X00011988Y00024803D01*
X00011959Y00024800D01*
X00011932Y00024793D01*
X00011906Y00024781D01*
X00011882Y00024766D01*
X00011861Y00024747D01*
X00011843Y00024725D01*
X00011828Y00024700D01*
X00011818Y00024674D01*
X00011812Y00024646D01*
X00011811Y00024614D01*
X00011811Y00020649D01*
X00011813Y00020621D01*
X00011821Y00020593D01*
X00011832Y00020567D01*
X00011847Y00020543D01*
X00011866Y00020522D01*
X00011888Y00020504D01*
X00011913Y00020490D01*
X00011939Y00020480D01*
X00011967Y00020474D01*
X00011992Y00020472D01*
X00013257Y00020472D01*
X00013318Y00020467D01*
X00013378Y00020453D01*
X00013435Y00020429D01*
X00013488Y00020397D01*
X00013535Y00020357D01*
X00013575Y00020310D01*
X00013608Y00020257D01*
X00013631Y00020200D01*
X00013646Y00020140D01*
X00013650Y00020078D01*
X00013646Y00020017D01*
X00013631Y00019957D01*
X00013608Y00019900D01*
X00013575Y00019847D01*
X00013535Y00019800D01*
X00013488Y00019760D01*
X00013435Y00019727D01*
X00013378Y00019704D01*
X00013318Y00019689D01*
X00013257Y00019685D01*
X00013125Y00019685D01*
X00011988Y00019685D01*
X00011959Y00019682D01*
X00011932Y00019674D01*
X00011906Y00019663D01*
X00011882Y00019648D01*
X00011861Y00019629D01*
X00011843Y00019607D01*
X00011828Y00019582D01*
X00011818Y00019556D01*
X00011812Y00019528D01*
X00011811Y00019496D01*
X00011811Y00015531D01*
X00011813Y00015503D01*
X00011821Y00015475D01*
X00011832Y00015449D01*
X00011847Y00015425D01*
X00011866Y00015404D01*
X00011888Y00015386D01*
X00011913Y00015372D01*
X00011939Y00015361D01*
X00011967Y00015355D01*
X00011992Y00015354D01*
X00013257Y00015354D01*
X00013318Y00015349D01*
X00013378Y00015335D01*
X00013435Y00015311D01*
X00013488Y00015279D01*
X00013535Y00015239D01*
X00013575Y00015192D01*
X00013608Y00015139D01*
X00013631Y00015082D01*
X00013646Y00015022D01*
X00013650Y00014960D01*
X00013646Y00014899D01*
X00013631Y00014838D01*
X00013608Y00014781D01*
X00013575Y00014729D01*
X00013535Y00014682D01*
X00013488Y00014642D01*
X00013435Y00014609D01*
X00013378Y00014586D01*
X00013318Y00014571D01*
X00013257Y00014566D01*
X00013125Y00014566D01*
X00011988Y00014566D01*
X00011959Y00014564D01*
X00011932Y00014556D01*
X00011906Y00014545D01*
X00011882Y00014530D01*
X00011861Y00014511D01*
X00011843Y00014489D01*
X00011828Y00014464D01*
X00011818Y00014438D01*
X00011812Y00014410D01*
X00011811Y00014377D01*
X00011811Y00010413D01*
X00011813Y00010385D01*
X00011821Y00010357D01*
X00011832Y00010331D01*
X00011847Y00010307D01*
X00011866Y00010286D01*
X00011888Y00010268D01*
X00011913Y00010254D01*
X00011939Y00010243D01*
X00011967Y00010237D01*
X00011992Y00010236D01*
X00013257Y00010236D01*
X00013318Y00010231D01*
X00013378Y00010216D01*
X00013435Y00010193D01*
X00013488Y00010161D01*
X00013535Y00010120D01*
X00013575Y00010073D01*
X00013608Y00010021D01*
X00013631Y00009964D01*
X00013646Y00009904D01*
X00013650Y00009842D01*
X00013646Y00009780D01*
X00013631Y00009720D01*
X00013608Y00009663D01*
X00013575Y00009611D01*
X00013535Y00009564D01*
X00013488Y00009524D01*
X00013435Y00009491D01*
X00013378Y00009468D01*
X00013318Y00009453D01*
X00013257Y00009448D01*
X00013125Y00009448D01*
X00011988Y00009448D01*
X00011959Y00009445D01*
X00011932Y00009438D01*
X00011906Y00009427D01*
X00011882Y00009411D01*
X00011861Y00009392D01*
X00011843Y00009370D01*
X00011828Y00009346D01*
X00011818Y00009319D01*
X00011812Y00009292D01*
X00011811Y00009259D01*
X00011811Y00005295D01*
X00011813Y00005266D01*
X00011821Y00005239D01*
X00011832Y00005213D01*
X00011847Y00005189D01*
X00011866Y00005168D01*
X00011888Y00005150D01*
X00011913Y00005136D01*
X00011939Y00005125D01*
X00011967Y00005119D01*
X00011992Y00005118D01*
X00013257Y00005118D01*
X00013318Y00005113D01*
X00013378Y00005098D01*
X00013435Y00005075D01*
X00013488Y00005042D01*
X00013535Y00005002D01*
X00013575Y00004955D01*
X00013608Y00004903D01*
X00013631Y00004846D01*
X00013646Y00004785D01*
X00013650Y00004724D01*
X00013646Y00004662D01*
X00013631Y00004602D01*
X00013608Y00004545D01*
X00013575Y00004492D01*
X00013535Y00004446D01*
X00013488Y00004405D01*
X00013435Y00004373D01*
X00013378Y00004349D01*
X00013318Y00004335D01*
X00013257Y00004330D01*
X00013125Y00004330D01*
X00011988Y00004330D01*
X00011959Y00004327D01*
X00011932Y00004320D01*
X00011906Y00004309D01*
X00011882Y00004293D01*
X00011861Y00004274D01*
X00011843Y00004252D01*
X00011828Y00004228D01*
X00011818Y00004201D01*
X00011812Y00004174D01*
X00011811Y00004141D01*
X00011811Y00003362D01*
X00011809Y00003328D01*
X00011805Y00003294D01*
X00011798Y00003261D01*
X00011788Y00003229D01*
X00011775Y00003198D01*
X00011760Y00003168D01*
X00011742Y00003139D01*
X00011721Y00003112D01*
X00011699Y00003087D01*
X00011674Y00003064D01*
X00011648Y00003043D01*
X00011620Y00003024D01*
X00011590Y00003008D01*
X00011559Y00002995D01*
X00011527Y00002984D01*
X00011494Y00002976D01*
X00011461Y00002970D01*
X00011427Y00002968D01*
X00011394Y00002969D01*
X00011360Y00002972D01*
X00011294Y00002982D01*
X00011268Y00002986D01*
X00011243Y00002993D01*
X00011218Y00003001D01*
X00011193Y00003011D01*
X00011169Y00003022D01*
X00011146Y00003035D01*
X00011124Y00003050D01*
X00011103Y00003066D01*
X00011083Y00003083D01*
X00011064Y00003101D01*
X00011047Y00003121D01*
X00011031Y00003142D01*
X00011016Y00003164D01*
X00011003Y00003187D01*
X00010991Y00003211D01*
X00010982Y00003236D01*
X00010973Y00003261D01*
X00010967Y00003286D01*
X00010962Y00003312D01*
X00010959Y00003338D01*
X00010956Y00003370D01*
X00010952Y00003413D01*
X00010944Y00003456D01*
X00010940Y00003496D01*
X00010933Y00003539D01*
X00010929Y00003578D01*
X00010913Y00003657D01*
X00010909Y00003696D01*
X00010901Y00003732D01*
X00010893Y00003771D01*
X00010885Y00003803D01*
X00010877Y00003838D01*
X00010874Y00003874D01*
X00010866Y00003905D01*
X00010858Y00003937D01*
X00010850Y00003964D01*
X00010838Y00003996D01*
X00010822Y00004051D01*
X00010791Y00004145D01*
X00010779Y00004165D01*
X00010763Y00004204D01*
X00010751Y00004220D01*
X00010736Y00004251D01*
X00010724Y00004267D01*
X00010716Y00004279D01*
X00010688Y00004307D01*
X00010677Y00004314D01*
X00010669Y00004318D01*
X00010657Y00004326D01*
X00010649Y00004326D01*
X00010637Y00004330D01*
X00009708Y00004330D01*
X00009577Y00004330D01*
X00009515Y00004335D01*
X00009455Y00004349D01*
X00009398Y00004373D01*
X00009346Y00004405D01*
X00009299Y00004446D01*
X00009258Y00004492D01*
X00009226Y00004545D01*
X00009202Y00004602D01*
X00009188Y00004662D01*
X00009183Y00004724D01*
X00009188Y00004785D01*
X00009202Y00004846D01*
X00009226Y00004903D01*
X00009258Y00004955D01*
X00009299Y00005002D01*
X00009346Y00005042D01*
X00009398Y00005075D01*
X00009455Y00005098D01*
X00009515Y00005113D01*
X00009577Y00005118D01*
X00010637Y00005118D01*
X00010649Y00005122D01*
X00010657Y00005122D01*
X00010669Y00005129D01*
X00010677Y00005133D01*
X00010688Y00005141D01*
X00010716Y00005169D01*
X00010724Y00005181D01*
X00010736Y00005196D01*
X00010751Y00005228D01*
X00010763Y00005244D01*
X00010779Y00005283D01*
X00010791Y00005303D01*
X00010814Y00005374D01*
X00010822Y00005397D01*
X00010830Y00005425D01*
X00010838Y00005452D01*
X00010850Y00005484D01*
X00010858Y00005511D01*
X00010874Y00005574D01*
X00010877Y00005610D01*
X00010885Y00005645D01*
X00010893Y00005677D01*
X00010901Y00005716D01*
X00010909Y00005751D01*
X00010913Y00005791D01*
X00010921Y00005830D01*
X00010929Y00005870D01*
X00010933Y00005909D01*
X00010940Y00005952D01*
X00010944Y00005992D01*
X00010952Y00006035D01*
X00010956Y00006078D01*
X00010960Y00006125D01*
X00010968Y00006169D01*
X00010988Y00006405D01*
X00010992Y00006456D01*
X00010996Y00006503D01*
X00010999Y00006555D01*
X00011003Y00006602D01*
X00011007Y00006653D01*
X00011007Y00006704D01*
X00011015Y00006807D01*
X00011015Y00006862D01*
X00011019Y00006913D01*
X00011019Y00007019D01*
X00011023Y00007070D01*
X00011023Y00007496D01*
X00011019Y00007547D01*
X00011019Y00007653D01*
X00011015Y00007704D01*
X00011015Y00007759D01*
X00011007Y00007862D01*
X00011007Y00007913D01*
X00011003Y00007964D01*
X00010999Y00008011D01*
X00010996Y00008062D01*
X00010992Y00008110D01*
X00010988Y00008161D01*
X00010968Y00008397D01*
X00010960Y00008440D01*
X00010956Y00008488D01*
X00010952Y00008531D01*
X00010944Y00008574D01*
X00010940Y00008614D01*
X00010933Y00008657D01*
X00010929Y00008696D01*
X00010913Y00008775D01*
X00010909Y00008814D01*
X00010901Y00008850D01*
X00010893Y00008889D01*
X00010885Y00008921D01*
X00010877Y00008956D01*
X00010874Y00008992D01*
X00010866Y00009023D01*
X00010858Y00009055D01*
X00010850Y00009082D01*
X00010838Y00009114D01*
X00010822Y00009169D01*
X00010791Y00009263D01*
X00010779Y00009283D01*
X00010763Y00009322D01*
X00010751Y00009338D01*
X00010736Y00009370D01*
X00010724Y00009385D01*
X00010716Y00009397D01*
X00010688Y00009425D01*
X00010677Y00009433D01*
X00010669Y00009437D01*
X00010657Y00009444D01*
X00010649Y00009444D01*
X00010637Y00009448D01*
X00009708Y00009448D01*
X00009577Y00009448D01*
X00009515Y00009453D01*
X00009455Y00009468D01*
X00009398Y00009491D01*
X00009346Y00009524D01*
X00009299Y00009564D01*
X00009258Y00009611D01*
X00009226Y00009663D01*
X00009202Y00009720D01*
X00009188Y00009780D01*
X00009183Y00009842D01*
X00009188Y00009904D01*
X00009202Y00009964D01*
X00009226Y00010021D01*
X00009258Y00010073D01*
X00009299Y00010120D01*
X00009346Y00010161D01*
X00009398Y00010193D01*
X00009455Y00010216D01*
X00009515Y00010231D01*
X00009577Y00010236D01*
X00010637Y00010236D01*
X00010649Y00010240D01*
X00010657Y00010240D01*
X00010669Y00010248D01*
X00010677Y00010251D01*
X00010688Y00010259D01*
X00010716Y00010287D01*
X00010724Y00010299D01*
X00010736Y00010314D01*
X00010751Y00010346D01*
X00010763Y00010362D01*
X00010779Y00010401D01*
X00010791Y00010421D01*
X00010814Y00010492D01*
X00010822Y00010515D01*
X00010830Y00010543D01*
X00010838Y00010570D01*
X00010850Y00010602D01*
X00010858Y00010629D01*
X00010874Y00010692D01*
X00010877Y00010728D01*
X00010885Y00010763D01*
X00010893Y00010795D01*
X00010901Y00010834D01*
X00010909Y00010870D01*
X00010913Y00010909D01*
X00010921Y00010948D01*
X00010929Y00010988D01*
X00010933Y00011027D01*
X00010940Y00011070D01*
X00010944Y00011110D01*
X00010952Y00011153D01*
X00010956Y00011196D01*
X00010960Y00011244D01*
X00010968Y00011287D01*
X00010988Y00011523D01*
X00010992Y00011574D01*
X00010996Y00011622D01*
X00010999Y00011673D01*
X00011003Y00011720D01*
X00011007Y00011771D01*
X00011007Y00011822D01*
X00011015Y00011925D01*
X00011015Y00011980D01*
X00011019Y00012031D01*
X00011019Y00012137D01*
X00011023Y00012188D01*
X00011023Y00012614D01*
X00011019Y00012665D01*
X00011019Y00012771D01*
X00011015Y00012822D01*
X00011015Y00012877D01*
X00011007Y00012980D01*
X00011007Y00013031D01*
X00011003Y00013082D01*
X00010999Y00013129D01*
X00010996Y00013181D01*
X00010992Y00013228D01*
X00010988Y00013279D01*
X00010968Y00013515D01*
X00010960Y00013559D01*
X00010956Y00013606D01*
X00010952Y00013649D01*
X00010944Y00013692D01*
X00010940Y00013732D01*
X00010933Y00013775D01*
X00010929Y00013814D01*
X00010913Y00013893D01*
X00010909Y00013933D01*
X00010901Y00013968D01*
X00010893Y00014007D01*
X00010885Y00014039D01*
X00010877Y00014074D01*
X00010874Y00014110D01*
X00010866Y00014141D01*
X00010858Y00014173D01*
X00010850Y00014200D01*
X00010838Y00014232D01*
X00010822Y00014287D01*
X00010791Y00014381D01*
X00010779Y00014401D01*
X00010763Y00014440D01*
X00010751Y00014456D01*
X00010736Y00014488D01*
X00010724Y00014503D01*
X00010716Y00014515D01*
X00010688Y00014543D01*
X00010677Y00014551D01*
X00010669Y00014555D01*
X00010657Y00014562D01*
X00010649Y00014562D01*
X00010637Y00014566D01*
X00009708Y00014566D01*
X00009577Y00014566D01*
X00009515Y00014571D01*
X00009455Y00014586D01*
X00009398Y00014609D01*
X00009346Y00014642D01*
X00009299Y00014682D01*
X00009258Y00014729D01*
X00009226Y00014781D01*
X00009202Y00014838D01*
X00009188Y00014899D01*
X00009183Y00014960D01*
X00009188Y00015022D01*
X00009202Y00015082D01*
X00009226Y00015139D01*
X00009258Y00015192D01*
X00009299Y00015239D01*
X00009346Y00015279D01*
X00009398Y00015311D01*
X00009455Y00015335D01*
X00009515Y00015349D01*
X00009577Y00015354D01*
X00010637Y00015354D01*
X00010649Y00015358D01*
X00010657Y00015358D01*
X00010669Y00015366D01*
X00010677Y00015370D01*
X00010688Y00015377D01*
X00010716Y00015405D01*
X00010724Y00015417D01*
X00010736Y00015433D01*
X00010751Y00015464D01*
X00010763Y00015480D01*
X00010779Y00015519D01*
X00010791Y00015539D01*
X00010814Y00015610D01*
X00010822Y00015633D01*
X00010830Y00015661D01*
X00010838Y00015688D01*
X00010850Y00015720D01*
X00010858Y00015748D01*
X00010874Y00015811D01*
X00010877Y00015846D01*
X00010885Y00015881D01*
X00010893Y00015913D01*
X00010901Y00015952D01*
X00010909Y00015988D01*
X00010913Y00016027D01*
X00010921Y00016066D01*
X00010929Y00016106D01*
X00010933Y00016145D01*
X00010940Y00016188D01*
X00010944Y00016228D01*
X00010952Y00016271D01*
X00010956Y00016314D01*
X00010960Y00016362D01*
X00010968Y00016405D01*
X00010988Y00016641D01*
X00010992Y00016692D01*
X00010996Y00016740D01*
X00010999Y00016791D01*
X00011003Y00016838D01*
X00011007Y00016889D01*
X00011007Y00016940D01*
X00011015Y00017043D01*
X00011015Y00017098D01*
X00011019Y00017149D01*
X00011019Y00017255D01*
X00011023Y00017307D01*
X00011023Y00017732D01*
X00011019Y00017783D01*
X00011019Y00017889D01*
X00011015Y00017940D01*
X00011015Y00017996D01*
X00011007Y00018098D01*
X00011007Y00018149D01*
X00011003Y00018200D01*
X00010999Y00018248D01*
X00010996Y00018299D01*
X00010992Y00018346D01*
X00010988Y00018397D01*
X00010968Y00018633D01*
X00010960Y00018677D01*
X00010956Y00018724D01*
X00010952Y00018767D01*
X00010944Y00018811D01*
X00010940Y00018850D01*
X00010933Y00018893D01*
X00010929Y00018933D01*
X00010913Y00019011D01*
X00010909Y00019051D01*
X00010901Y00019086D01*
X00010893Y00019125D01*
X00010885Y00019157D01*
X00010877Y00019192D01*
X00010874Y00019228D01*
X00010866Y00019259D01*
X00010858Y00019291D01*
X00010850Y00019318D01*
X00010838Y00019350D01*
X00010822Y00019405D01*
X00010791Y00019500D01*
X00010779Y00019519D01*
X00010763Y00019559D01*
X00010751Y00019574D01*
X00010736Y00019606D01*
X00010724Y00019622D01*
X00010716Y00019633D01*
X00010688Y00019661D01*
X00010677Y00019669D01*
X00010669Y00019673D01*
X00010657Y00019681D01*
X00010649Y00019681D01*
X00010637Y00019685D01*
X00009708Y00019685D01*
X00009577Y00019685D01*
X00009515Y00019689D01*
X00009455Y00019704D01*
X00009398Y00019727D01*
X00009346Y00019760D01*
X00009299Y00019800D01*
X00009258Y00019847D01*
X00009226Y00019900D01*
X00009202Y00019957D01*
X00009188Y00020017D01*
X00009183Y00020078D01*
X00009188Y00020140D01*
X00009202Y00020200D01*
X00009226Y00020257D01*
X00009258Y00020310D01*
X00009299Y00020357D01*
X00009346Y00020397D01*
X00009398Y00020429D01*
X00009455Y00020453D01*
X00009515Y00020467D01*
X00009577Y00020472D01*
X00010637Y00020472D01*
X00010649Y00020476D01*
X00010657Y00020476D01*
X00010669Y00020484D01*
X00010677Y00020488D01*
X00010688Y00020496D01*
X00010716Y00020523D01*
X00010724Y00020535D01*
X00010736Y00020551D01*
X00010751Y00020582D01*
X00010763Y00020598D01*
X00010779Y00020637D01*
X00010791Y00020657D01*
X00010814Y00020728D01*
X00010822Y00020751D01*
X00010830Y00020779D01*
X00010838Y00020807D01*
X00010850Y00020838D01*
X00010858Y00020866D01*
X00010874Y00020929D01*
X00010877Y00020964D01*
X00010885Y00021000D01*
X00010893Y00021031D01*
X00010901Y00021070D01*
X00010909Y00021106D01*
X00010913Y00021145D01*
X00010921Y00021185D01*
X00010929Y00021224D01*
X00010933Y00021263D01*
X00010940Y00021307D01*
X00010944Y00021346D01*
X00010952Y00021389D01*
X00010956Y00021433D01*
X00010960Y00021480D01*
X00010968Y00021523D01*
X00010988Y00021759D01*
X00010992Y00021811D01*
X00010996Y00021858D01*
X00010999Y00021909D01*
X00011003Y00021956D01*
X00011007Y00022007D01*
X00011007Y00022059D01*
X00011015Y00022161D01*
X00011015Y00022216D01*
X00011019Y00022267D01*
X00011019Y00022374D01*
X00011023Y00022425D01*
X00011023Y00022850D01*
X00011019Y00022901D01*
X00011019Y00023007D01*
X00011015Y00023059D01*
X00011015Y00023114D01*
X00011007Y00023216D01*
X00011007Y00023267D01*
X00011003Y00023318D01*
X00010999Y00023366D01*
X00010996Y00023417D01*
X00010992Y00023464D01*
X00010988Y00023515D01*
X00010968Y00023751D01*
X00010960Y00023795D01*
X00010956Y00023842D01*
X00010952Y00023885D01*
X00010944Y00023929D01*
X00010940Y00023968D01*
X00010933Y00024011D01*
X00010929Y00024051D01*
X00010913Y00024129D01*
X00010909Y00024169D01*
X00010901Y00024204D01*
X00010893Y00024244D01*
X00010885Y00024275D01*
X00010877Y00024311D01*
X00010874Y00024346D01*
X00010866Y00024377D01*
X00010858Y00024409D01*
X00010850Y00024437D01*
X00010838Y00024468D01*
X00010822Y00024523D01*
X00010791Y00024618D01*
X00010779Y00024637D01*
X00010763Y00024677D01*
X00010751Y00024692D01*
X00010736Y00024724D01*
X00010724Y00024740D01*
X00010716Y00024751D01*
X00010688Y00024779D01*
X00010677Y00024787D01*
X00010669Y00024791D01*
X00010657Y00024799D01*
X00010649Y00024799D01*
X00010637Y00024803D01*
X00009708Y00024803D01*
X00009577Y00024803D01*
X00009515Y00024807D01*
X00009455Y00024822D01*
X00009398Y00024846D01*
X00009346Y00024878D01*
X00009299Y00024918D01*
X00009258Y00024965D01*
X00009226Y00025018D01*
X00009202Y00025075D01*
X00009188Y00025135D01*
X00009183Y00025196D01*
X00009188Y00025258D01*
X00009202Y00025318D01*
X00009226Y00025375D01*
X00009258Y00025428D01*
X00009299Y00025475D01*
X00009346Y00025515D01*
X00009398Y00025547D01*
X00009455Y00025571D01*
X00009515Y00025585D01*
X00009577Y00025590D01*
X00010637Y00025590D01*
X00010649Y00025594D01*
X00010657Y00025594D01*
X00010669Y00025602D01*
X00010677Y00025606D01*
X00010688Y00025614D01*
X00010716Y00025641D01*
X00010724Y00025653D01*
X00010736Y00025669D01*
X00010751Y00025700D01*
X00010763Y00025716D01*
X00010779Y00025755D01*
X00010791Y00025775D01*
X00010814Y00025846D01*
X00010822Y00025870D01*
X00010830Y00025897D01*
X00010838Y00025925D01*
X00010850Y00025956D01*
X00010858Y00025984D01*
X00010874Y00026047D01*
X00010877Y00026082D01*
X00010885Y00026118D01*
X00010893Y00026149D01*
X00010901Y00026188D01*
X00010909Y00026224D01*
X00010913Y00026263D01*
X00010921Y00026303D01*
X00010929Y00026342D01*
X00010933Y00026381D01*
X00010940Y00026425D01*
X00010944Y00026464D01*
X00010952Y00026507D01*
X00010956Y00026551D01*
X00010960Y00026598D01*
X00010968Y00026641D01*
X00010988Y00026877D01*
X00010992Y00026929D01*
X00010996Y00026976D01*
X00010999Y00027027D01*
X00011003Y00027074D01*
X00011007Y00027125D01*
X00011007Y00027177D01*
X00011015Y00027279D01*
X00011015Y00027334D01*
X00011019Y00027385D01*
X00011019Y00027492D01*
X00011023Y00027543D01*
X00011023Y00027968D01*
X00011019Y00028019D01*
X00011019Y00028125D01*
X00011015Y00028177D01*
X00011015Y00028232D01*
X00011007Y00028334D01*
X00011007Y00028385D01*
X00011003Y00028437D01*
X00010999Y00028484D01*
X00010996Y00028535D01*
X00010992Y00028582D01*
X00010988Y00028633D01*
X00010968Y00028870D01*
X00010960Y00028913D01*
X00010956Y00028960D01*
X00010952Y00029003D01*
X00010944Y00029047D01*
X00010940Y00029086D01*
X00010933Y00029129D01*
X00010929Y00029169D01*
X00010913Y00029248D01*
X00010909Y00029287D01*
X00010901Y00029322D01*
X00010893Y00029362D01*
X00010885Y00029393D01*
X00010877Y00029429D01*
X00010874Y00029464D01*
X00010866Y00029496D01*
X00010858Y00029527D01*
X00010850Y00029555D01*
X00010838Y00029586D01*
X00010822Y00029641D01*
X00010791Y00029736D01*
X00010779Y00029755D01*
X00010763Y00029795D01*
X00010751Y00029811D01*
X00010736Y00029842D01*
X00010724Y00029858D01*
X00010716Y00029870D01*
X00010688Y00029897D01*
X00010677Y00029905D01*
X00010669Y00029909D01*
X00010657Y00029917D01*
X00010649Y00029917D01*
X00010637Y00029921D01*
X00009708Y00029921D01*
X00009577Y00029921D01*
X00009515Y00029926D01*
X00009455Y00029940D01*
X00009398Y00029964D01*
X00009346Y00029996D01*
X00009299Y00030036D01*
X00009258Y00030083D01*
X00009226Y00030136D01*
X00009202Y00030193D01*
X00009188Y00030253D01*
X00009183Y00030314D01*
X00009188Y00030376D01*
X00009202Y00030436D01*
X00009226Y00030493D01*
X00009258Y00030546D01*
X00009299Y00030593D01*
X00009346Y00030633D01*
X00009398Y00030665D01*
X00009455Y00030689D01*
X00009515Y00030703D01*
X00009577Y00030708D01*
X00010637Y00030708D01*
X00010649Y00030712D01*
X00010657Y00030712D01*
X00010669Y00030720D01*
X00010677Y00030724D01*
X00010688Y00030732D01*
X00010716Y00030759D01*
X00010724Y00030771D01*
X00010736Y00030787D01*
X00010751Y00030818D01*
X00010763Y00030834D01*
X00010779Y00030874D01*
X00010791Y00030893D01*
X00010814Y00030964D01*
X00010822Y00030988D01*
X00010830Y00031015D01*
X00010838Y00031043D01*
X00010850Y00031074D01*
X00010858Y00031102D01*
X00010874Y00031165D01*
X00010877Y00031200D01*
X00010885Y00031236D01*
X00010893Y00031267D01*
X00010901Y00031307D01*
X00010909Y00031342D01*
X00010913Y00031381D01*
X00010921Y00031421D01*
X00010929Y00031460D01*
X00010933Y00031500D01*
X00010940Y00031543D01*
X00010944Y00031582D01*
X00010952Y00031625D01*
X00010956Y00031669D01*
X00010959Y00031700D01*
X00005053Y00000991D02*
X00005053Y00000991D01*
X00005056Y00001017D01*
X00005061Y00001043D01*
X00005068Y00001069D01*
X00005076Y00001094D01*
X00005086Y00001119D01*
X00005098Y00001142D01*
X00005111Y00001165D01*
X00005125Y00001187D01*
X00005141Y00001208D01*
X00005159Y00001228D01*
X00005178Y00001247D01*
X00005197Y00001264D01*
X00005219Y00001280D01*
X00005241Y00001295D01*
X00005264Y00001308D01*
X00005287Y00001319D01*
X00005312Y00001329D01*
X00005337Y00001337D01*
X00005363Y00001343D01*
X00005389Y00001348D01*
X00005455Y00001358D01*
X00005488Y00001361D01*
X00005522Y00001362D01*
X00005556Y00001359D01*
X00005589Y00001354D01*
X00005622Y00001346D01*
X00005654Y00001335D01*
X00005685Y00001322D01*
X00005714Y00001305D01*
X00005742Y00001287D01*
X00005769Y00001266D01*
X00005793Y00001243D01*
X00005816Y00001218D01*
X00005836Y00001191D01*
X00005854Y00001162D01*
X00005869Y00001132D01*
X00005882Y00001101D01*
X00005892Y00001068D01*
X00005899Y00001035D01*
X00005904Y00001002D01*
X00005905Y00000968D01*
X00005905Y00000177D01*
X00005908Y00000148D01*
X00005915Y00000121D01*
X00005927Y00000095D01*
X00005942Y00000071D01*
X00005961Y00000050D01*
X00005983Y00000032D01*
X00006007Y00000017D01*
X00006034Y00000007D01*
X00006062Y00000001D01*
X00006086Y00000000D01*
X00010637Y00000000D01*
X00010649Y00000003D01*
X00010657Y00000003D01*
X00010669Y00000011D01*
X00010677Y00000015D01*
X00010688Y00000023D01*
X00010716Y00000051D01*
X00010724Y00000062D01*
X00010736Y00000078D01*
X00010751Y00000110D01*
X00010763Y00000125D01*
X00010779Y00000165D01*
X00010791Y00000185D01*
X00010814Y00000255D01*
X00010822Y00000279D01*
X00010830Y00000307D01*
X00010838Y00000334D01*
X00010850Y00000366D01*
X00010858Y00000393D01*
X00010874Y00000456D01*
X00010877Y00000492D01*
X00010885Y00000527D01*
X00010893Y00000559D01*
X00010901Y00000598D01*
X00010909Y00000633D01*
X00010913Y00000673D01*
X00010921Y00000712D01*
X00010929Y00000751D01*
X00010933Y00000791D01*
X00010940Y00000834D01*
X00010944Y00000874D01*
X00010952Y00000917D01*
X00010956Y00000960D01*
X00010959Y00000991D01*
X00010962Y00001017D01*
X00010967Y00001043D01*
X00010973Y00001069D01*
X00010982Y00001094D01*
X00010991Y00001119D01*
X00011003Y00001142D01*
X00011016Y00001165D01*
X00011031Y00001187D01*
X00011047Y00001208D01*
X00011064Y00001228D01*
X00011083Y00001247D01*
X00011103Y00001264D01*
X00011124Y00001280D01*
X00011146Y00001295D01*
X00011169Y00001308D01*
X00011193Y00001319D01*
X00011218Y00001329D01*
X00011243Y00001337D01*
X00011268Y00001343D01*
X00011294Y00001348D01*
X00011360Y00001358D01*
X00011394Y00001361D01*
X00011427Y00001362D01*
X00011461Y00001359D01*
X00011494Y00001354D01*
X00011527Y00001346D01*
X00011559Y00001335D01*
X00011590Y00001322D01*
X00011620Y00001305D01*
X00011648Y00001287D01*
X00011674Y00001266D01*
X00011699Y00001243D01*
X00011721Y00001218D01*
X00011742Y00001191D01*
X00011760Y00001162D01*
X00011775Y00001132D01*
X00011788Y00001101D01*
X00011798Y00001068D01*
X00011805Y00001035D01*
X00011809Y00001002D01*
X00011811Y00000968D01*
X00011811Y00000177D01*
X00011813Y00000148D01*
X00011821Y00000121D01*
X00011832Y00000095D01*
X00011847Y00000071D01*
X00011866Y00000050D01*
X00011888Y00000032D01*
X00011913Y00000017D01*
X00011939Y00000007D01*
X00011967Y00000001D01*
X00011992Y00000000D01*
X00016543Y00000000D01*
X00016555Y00000003D01*
X00016562Y00000003D01*
X00016574Y00000011D01*
X00016582Y00000015D01*
X00016594Y00000023D01*
X00016622Y00000051D01*
X00016629Y00000062D01*
X00016641Y00000078D01*
X00016657Y00000110D01*
X00016669Y00000125D01*
X00016685Y00000165D01*
X00016696Y00000185D01*
X00016720Y00000255D01*
X00016728Y00000279D01*
X00016736Y00000307D01*
X00016744Y00000334D01*
X00016755Y00000366D01*
X00016763Y00000393D01*
X00016779Y00000456D01*
X00016783Y00000492D01*
X00016791Y00000527D01*
X00016799Y00000559D01*
X00016807Y00000598D01*
X00016814Y00000633D01*
X00016818Y00000673D01*
X00016826Y00000712D01*
X00016834Y00000751D01*
X00016838Y00000791D01*
X00016846Y00000834D01*
X00016850Y00000874D01*
X00016858Y00000917D01*
X00016862Y00000960D01*
X00016864Y00000991D01*
X00016867Y00001017D01*
X00016872Y00001043D01*
X00016879Y00001069D01*
X00016887Y00001094D01*
X00016897Y00001119D01*
X00016909Y00001142D01*
X00016922Y00001165D01*
X00016936Y00001187D01*
X00016952Y00001208D01*
X00016970Y00001228D01*
X00016989Y00001247D01*
X00017008Y00001264D01*
X00017030Y00001280D01*
X00017052Y00001295D01*
X00017075Y00001308D01*
X00017099Y00001319D01*
X00017123Y00001329D01*
X00017148Y00001337D01*
X00017174Y00001343D01*
X00017200Y00001348D01*
X00017266Y00001358D01*
X00017299Y00001361D01*
X00017333Y00001362D01*
X00017367Y00001359D01*
X00017400Y00001354D01*
X00017433Y00001346D01*
X00017465Y00001335D01*
X00017496Y00001322D01*
X00017525Y00001305D01*
X00017553Y00001287D01*
X00017580Y00001266D01*
X00017604Y00001243D01*
X00017627Y00001218D01*
X00017647Y00001191D01*
X00017665Y00001162D01*
X00017680Y00001132D01*
X00017693Y00001101D01*
X00017703Y00001068D01*
X00017710Y00001035D01*
X00017715Y00001002D01*
X00017716Y00000968D01*
X00017716Y00000177D01*
X00017719Y00000148D01*
X00017726Y00000121D01*
X00017738Y00000095D01*
X00017753Y00000071D01*
X00017772Y00000050D01*
X00017794Y00000032D01*
X00017818Y00000017D01*
X00017845Y00000007D01*
X00017873Y00000001D01*
X00017897Y00000000D01*
X00022448Y00000000D01*
X00022460Y00000003D01*
X00022468Y00000003D01*
X00022480Y00000011D01*
X00022488Y00000015D01*
X00022500Y00000023D01*
X00022527Y00000051D01*
X00022535Y00000062D01*
X00022547Y00000078D01*
X00022562Y00000110D01*
X00022574Y00000125D01*
X00022590Y00000165D01*
X00022602Y00000185D01*
X00022625Y00000255D01*
X00022633Y00000279D01*
X00022641Y00000307D01*
X00022649Y00000334D01*
X00022661Y00000366D01*
X00022669Y00000393D01*
X00022685Y00000456D01*
X00022688Y00000492D01*
X00022696Y00000527D01*
X00022704Y00000559D01*
X00022712Y00000598D01*
X00022720Y00000633D01*
X00022724Y00000673D01*
X00022732Y00000712D01*
X00022740Y00000751D01*
X00022744Y00000791D01*
X00022751Y00000834D01*
X00022755Y00000874D01*
X00022763Y00000917D01*
X00022767Y00000960D01*
X00022770Y00000991D01*
X00022773Y00001017D01*
X00022778Y00001043D01*
X00022784Y00001069D01*
X00022793Y00001094D01*
X00022802Y00001119D01*
X00022814Y00001142D01*
X00022827Y00001165D01*
X00022842Y00001187D01*
X00022858Y00001208D01*
X00022875Y00001228D01*
X00022894Y00001247D01*
X00022914Y00001264D01*
X00022935Y00001280D01*
X00022957Y00001295D01*
X00022980Y00001308D01*
X00023004Y00001319D01*
X00023029Y00001329D01*
X00023054Y00001337D01*
X00023079Y00001343D01*
X00023105Y00001348D01*
X00023171Y00001358D01*
X00023205Y00001361D01*
X00023238Y00001362D01*
X00023272Y00001359D01*
X00023305Y00001354D01*
X00023338Y00001346D01*
X00023370Y00001335D01*
X00023401Y00001322D01*
X00023431Y00001305D01*
X00023459Y00001287D01*
X00023485Y00001266D01*
X00023510Y00001243D01*
X00023532Y00001218D01*
X00023553Y00001191D01*
X00023571Y00001162D01*
X00023586Y00001132D01*
X00023599Y00001101D01*
X00023609Y00001068D01*
X00023616Y00001035D01*
X00023620Y00001002D01*
X00023622Y00000968D01*
X00023622Y00000177D01*
X00023624Y00000148D01*
X00023632Y00000121D01*
X00023643Y00000095D01*
X00023658Y00000071D01*
X00023677Y00000050D01*
X00023699Y00000032D01*
X00023724Y00000017D01*
X00023750Y00000007D01*
X00023778Y00000001D01*
X00023803Y00000000D01*
X00028354Y00000000D01*
X00028366Y00000003D01*
X00028374Y00000003D01*
X00028385Y00000011D01*
X00028393Y00000015D01*
X00028405Y00000023D01*
X00028433Y00000051D01*
X00028440Y00000062D01*
X00028452Y00000078D01*
X00028468Y00000110D01*
X00028480Y00000125D01*
X00028496Y00000165D01*
X00028507Y00000185D01*
X00028531Y00000255D01*
X00028539Y00000279D01*
X00028547Y00000307D01*
X00028555Y00000334D01*
X00028566Y00000366D01*
X00028574Y00000393D01*
X00028590Y00000456D01*
X00028594Y00000492D01*
X00028602Y00000527D01*
X00028610Y00000559D01*
X00028618Y00000598D01*
X00028625Y00000633D01*
X00028629Y00000673D01*
X00028637Y00000712D01*
X00028645Y00000751D01*
X00028649Y00000791D01*
X00028657Y00000834D01*
X00028661Y00000874D01*
X00028669Y00000917D01*
X00028673Y00000960D01*
X00028675Y00000991D01*
X00028678Y00001017D01*
X00028683Y00001043D01*
X00028690Y00001069D01*
X00028698Y00001094D01*
X00028708Y00001119D01*
X00028720Y00001142D01*
X00028733Y00001165D01*
X00028747Y00001187D01*
X00028763Y00001208D01*
X00028781Y00001228D01*
X00028800Y00001247D01*
X00028820Y00001264D01*
X00028841Y00001280D01*
X00028863Y00001295D01*
X00028886Y00001308D01*
X00028910Y00001319D01*
X00028934Y00001329D01*
X00028959Y00001337D01*
X00028985Y00001343D01*
X00029011Y00001348D01*
X00029077Y00001358D01*
X00029110Y00001361D01*
X00029144Y00001362D01*
X00029178Y00001359D01*
X00029211Y00001354D01*
X00029244Y00001346D01*
X00029276Y00001335D01*
X00029307Y00001322D01*
X00029336Y00001305D01*
X00029364Y00001287D01*
X00029391Y00001266D01*
X00029415Y00001243D01*
X00029438Y00001218D01*
X00029458Y00001191D01*
X00029476Y00001162D01*
X00029491Y00001132D01*
X00029504Y00001101D01*
X00029514Y00001068D01*
X00029521Y00001035D01*
X00029526Y00001002D01*
X00029527Y00000968D01*
X00029527Y00000177D01*
X00029530Y00000148D01*
X00029537Y00000121D01*
X00029549Y00000095D01*
X00029564Y00000071D01*
X00029583Y00000050D01*
X00029605Y00000032D01*
X00029629Y00000017D01*
X00029656Y00000007D01*
X00029684Y00000001D01*
X00029708Y00000000D01*
X00034259Y00000000D01*
X00034271Y00000003D01*
X00034279Y00000003D01*
X00034291Y00000011D01*
X00034299Y00000015D01*
X00034311Y00000023D01*
X00034338Y00000051D01*
X00034346Y00000062D01*
X00034358Y00000078D01*
X00034374Y00000110D01*
X00034385Y00000125D01*
X00034401Y00000165D01*
X00034413Y00000185D01*
X00034437Y00000255D01*
X00034444Y00000279D01*
X00034452Y00000307D01*
X00034460Y00000334D01*
X00034472Y00000366D01*
X00034480Y00000393D01*
X00034496Y00000456D01*
X00034500Y00000492D01*
X00034507Y00000527D01*
X00034515Y00000559D01*
X00034523Y00000598D01*
X00034531Y00000633D01*
X00034535Y00000673D01*
X00034543Y00000712D01*
X00034551Y00000751D01*
X00034555Y00000791D01*
X00034562Y00000834D01*
X00034566Y00000874D01*
X00034574Y00000917D01*
X00034578Y00000960D01*
X00034582Y00001007D01*
X00034590Y00001051D01*
X00034610Y00001287D01*
X00034614Y00001338D01*
X00034618Y00001385D01*
X00034622Y00001437D01*
X00034625Y00001484D01*
X00034629Y00001535D01*
X00034629Y00001586D01*
X00034637Y00001688D01*
X00034637Y00001744D01*
X00034641Y00001795D01*
X00034641Y00001901D01*
X00034645Y00001952D01*
X00034645Y00002377D01*
X00034641Y00002429D01*
X00034641Y00002535D01*
X00034637Y00002586D01*
X00034637Y00002641D01*
X00034629Y00002744D01*
X00034629Y00002795D01*
X00034625Y00002846D01*
X00034622Y00002893D01*
X00034618Y00002944D01*
X00034614Y00002992D01*
X00034610Y00003043D01*
X00034590Y00003279D01*
X00034582Y00003322D01*
X00034578Y00003370D01*
X00034574Y00003413D01*
X00034566Y00003456D01*
X00034562Y00003496D01*
X00034555Y00003539D01*
X00034551Y00003578D01*
X00034535Y00003657D01*
X00034531Y00003696D01*
X00034523Y00003732D01*
X00034515Y00003771D01*
X00034507Y00003803D01*
X00034500Y00003838D01*
X00034496Y00003874D01*
X00034488Y00003905D01*
X00034480Y00003937D01*
X00034472Y00003964D01*
X00034460Y00003996D01*
X00034444Y00004051D01*
X00034413Y00004145D01*
X00034401Y00004165D01*
X00034385Y00004204D01*
X00034374Y00004220D01*
X00034358Y00004251D01*
X00034346Y00004267D01*
X00034338Y00004279D01*
X00034311Y00004307D01*
X00034299Y00004314D01*
X00034291Y00004318D01*
X00034279Y00004326D01*
X00034271Y00004326D01*
X00034259Y00004330D01*
X00033330Y00004330D01*
X00033199Y00004330D01*
X00033137Y00004335D01*
X00033077Y00004349D01*
X00033020Y00004373D01*
X00032968Y00004405D01*
X00032921Y00004446D01*
X00032880Y00004492D01*
X00032848Y00004545D01*
X00032825Y00004602D01*
X00032810Y00004662D01*
X00032805Y00004724D01*
X00032810Y00004785D01*
X00032825Y00004846D01*
X00032848Y00004903D01*
X00032880Y00004955D01*
X00032921Y00005002D01*
X00032968Y00005042D01*
X00033020Y00005075D01*
X00033077Y00005098D01*
X00033137Y00005113D01*
X00033199Y00005118D01*
X00034259Y00005118D01*
X00034271Y00005122D01*
X00034279Y00005122D01*
X00034291Y00005129D01*
X00034299Y00005133D01*
X00034311Y00005141D01*
X00034338Y00005169D01*
X00034346Y00005181D01*
X00034358Y00005196D01*
X00034374Y00005228D01*
X00034385Y00005244D01*
X00034401Y00005283D01*
X00034413Y00005303D01*
X00034437Y00005374D01*
X00034444Y00005397D01*
X00034452Y00005425D01*
X00034460Y00005452D01*
X00034472Y00005484D01*
X00034480Y00005511D01*
X00034496Y00005574D01*
X00034500Y00005610D01*
X00034507Y00005645D01*
X00034515Y00005677D01*
X00034523Y00005716D01*
X00034531Y00005751D01*
X00034535Y00005791D01*
X00034543Y00005830D01*
X00034551Y00005870D01*
X00034555Y00005909D01*
X00034562Y00005952D01*
X00034566Y00005992D01*
X00034574Y00006035D01*
X00034578Y00006078D01*
X00034582Y00006125D01*
X00034590Y00006169D01*
X00034610Y00006405D01*
X00034614Y00006456D01*
X00034618Y00006503D01*
X00034622Y00006555D01*
X00034625Y00006602D01*
X00034629Y00006653D01*
X00034629Y00006704D01*
X00034637Y00006807D01*
X00034637Y00006862D01*
X00034641Y00006913D01*
X00034641Y00007019D01*
X00034645Y00007070D01*
X00034645Y00007496D01*
X00034641Y00007547D01*
X00034641Y00007653D01*
X00034637Y00007704D01*
X00034637Y00007759D01*
X00034629Y00007862D01*
X00034629Y00007913D01*
X00034625Y00007964D01*
X00034622Y00008011D01*
X00034618Y00008062D01*
X00034614Y00008110D01*
X00034610Y00008161D01*
X00034590Y00008397D01*
X00034582Y00008440D01*
X00034578Y00008488D01*
X00034574Y00008531D01*
X00034566Y00008574D01*
X00034562Y00008614D01*
X00034555Y00008657D01*
X00034551Y00008696D01*
X00034535Y00008775D01*
X00034531Y00008814D01*
X00034523Y00008850D01*
X00034515Y00008889D01*
X00034507Y00008921D01*
X00034500Y00008956D01*
X00034496Y00008992D01*
X00034488Y00009023D01*
X00034480Y00009055D01*
X00034472Y00009082D01*
X00034460Y00009114D01*
X00034444Y00009169D01*
X00034413Y00009263D01*
X00034401Y00009283D01*
X00034385Y00009322D01*
X00034374Y00009338D01*
X00034358Y00009370D01*
X00034346Y00009385D01*
X00034338Y00009397D01*
X00034311Y00009425D01*
X00034299Y00009433D01*
X00034291Y00009437D01*
X00034279Y00009444D01*
X00034271Y00009444D01*
X00034259Y00009448D01*
X00033330Y00009448D01*
X00033199Y00009448D01*
X00033137Y00009453D01*
X00033077Y00009468D01*
X00033020Y00009491D01*
X00032968Y00009524D01*
X00032921Y00009564D01*
X00032880Y00009611D01*
X00032848Y00009663D01*
X00032825Y00009720D01*
X00032810Y00009780D01*
X00032805Y00009842D01*
X00032810Y00009904D01*
X00032825Y00009964D01*
X00032848Y00010021D01*
X00032880Y00010073D01*
X00032921Y00010120D01*
X00032968Y00010161D01*
X00033020Y00010193D01*
X00033077Y00010216D01*
X00033137Y00010231D01*
X00033199Y00010236D01*
X00034259Y00010236D01*
X00034271Y00010240D01*
X00034279Y00010240D01*
X00034291Y00010248D01*
X00034299Y00010251D01*
X00034311Y00010259D01*
X00034338Y00010287D01*
X00034346Y00010299D01*
X00034358Y00010314D01*
X00034374Y00010346D01*
X00034385Y00010362D01*
X00034401Y00010401D01*
X00034413Y00010421D01*
X00034437Y00010492D01*
X00034444Y00010515D01*
X00034452Y00010543D01*
X00034460Y00010570D01*
X00034472Y00010602D01*
X00034480Y00010629D01*
X00034496Y00010692D01*
X00034500Y00010728D01*
X00034507Y00010763D01*
X00034515Y00010795D01*
X00034523Y00010834D01*
X00034531Y00010870D01*
X00034535Y00010909D01*
X00034543Y00010948D01*
X00034551Y00010988D01*
X00034555Y00011027D01*
X00034562Y00011070D01*
X00034566Y00011110D01*
X00034574Y00011153D01*
X00034578Y00011196D01*
X00034582Y00011244D01*
X00034590Y00011287D01*
X00034610Y00011523D01*
X00034614Y00011574D01*
X00034618Y00011622D01*
X00034622Y00011673D01*
X00034625Y00011720D01*
X00034629Y00011771D01*
X00034629Y00011822D01*
X00034637Y00011925D01*
X00034637Y00011980D01*
X00034641Y00012031D01*
X00034641Y00012137D01*
X00034645Y00012188D01*
X00034645Y00012614D01*
X00034641Y00012665D01*
X00034641Y00012771D01*
X00034637Y00012822D01*
X00034637Y00012877D01*
X00034629Y00012980D01*
X00034629Y00013031D01*
X00034625Y00013082D01*
X00034622Y00013129D01*
X00034618Y00013181D01*
X00034614Y00013228D01*
X00034610Y00013279D01*
X00034590Y00013515D01*
X00034582Y00013559D01*
X00034578Y00013606D01*
X00034574Y00013649D01*
X00034566Y00013692D01*
X00034562Y00013732D01*
X00034555Y00013775D01*
X00034551Y00013814D01*
X00034535Y00013893D01*
X00034531Y00013933D01*
X00034523Y00013968D01*
X00034515Y00014007D01*
X00034507Y00014039D01*
X00034500Y00014074D01*
X00034496Y00014110D01*
X00034488Y00014141D01*
X00034480Y00014173D01*
X00034472Y00014200D01*
X00034460Y00014232D01*
X00034444Y00014287D01*
X00034413Y00014381D01*
X00034401Y00014401D01*
X00034385Y00014440D01*
X00034374Y00014456D01*
X00034358Y00014488D01*
X00034346Y00014503D01*
X00034338Y00014515D01*
X00034311Y00014543D01*
X00034299Y00014551D01*
X00034291Y00014555D01*
X00034279Y00014562D01*
X00034271Y00014562D01*
X00034259Y00014566D01*
X00033330Y00014566D01*
X00033199Y00014566D01*
X00033137Y00014571D01*
X00033077Y00014586D01*
X00033020Y00014609D01*
X00032968Y00014642D01*
X00032921Y00014682D01*
X00032880Y00014729D01*
X00032848Y00014781D01*
X00032825Y00014838D01*
X00032810Y00014899D01*
X00032805Y00014960D01*
X00032810Y00015022D01*
X00032825Y00015082D01*
X00032848Y00015139D01*
X00032880Y00015192D01*
X00032921Y00015239D01*
X00032968Y00015279D01*
X00033020Y00015311D01*
X00033077Y00015335D01*
X00033137Y00015349D01*
X00033199Y00015354D01*
X00034259Y00015354D01*
X00034271Y00015358D01*
X00034279Y00015358D01*
X00034291Y00015366D01*
X00034299Y00015370D01*
X00034311Y00015377D01*
X00034338Y00015405D01*
X00034346Y00015417D01*
X00034358Y00015433D01*
X00034374Y00015464D01*
X00034385Y00015480D01*
X00034401Y00015519D01*
X00034413Y00015539D01*
X00034437Y00015610D01*
X00034444Y00015633D01*
X00034452Y00015661D01*
X00034460Y00015688D01*
X00034472Y00015720D01*
X00034480Y00015748D01*
X00034496Y00015811D01*
X00034500Y00015846D01*
X00034507Y00015881D01*
X00034515Y00015913D01*
X00034523Y00015952D01*
X00034531Y00015988D01*
X00034535Y00016027D01*
X00034543Y00016066D01*
X00034551Y00016106D01*
X00034555Y00016145D01*
X00034562Y00016188D01*
X00034566Y00016228D01*
X00034574Y00016271D01*
X00034578Y00016314D01*
X00034582Y00016362D01*
X00034590Y00016405D01*
X00034610Y00016641D01*
X00034614Y00016692D01*
X00034618Y00016740D01*
X00034622Y00016791D01*
X00034625Y00016838D01*
X00034629Y00016889D01*
X00034629Y00016940D01*
X00034637Y00017043D01*
X00034637Y00017098D01*
X00034641Y00017149D01*
X00034641Y00017255D01*
X00034645Y00017307D01*
X00034645Y00017732D01*
X00034641Y00017783D01*
X00034641Y00017889D01*
X00034637Y00017940D01*
X00034637Y00017996D01*
X00034629Y00018098D01*
X00034629Y00018149D01*
X00034625Y00018200D01*
X00034622Y00018248D01*
X00034618Y00018299D01*
X00034614Y00018346D01*
X00034610Y00018397D01*
X00034590Y00018633D01*
X00034582Y00018677D01*
X00034578Y00018724D01*
X00034574Y00018767D01*
X00034566Y00018811D01*
X00034562Y00018850D01*
X00034555Y00018893D01*
X00034551Y00018933D01*
X00034535Y00019011D01*
X00034531Y00019051D01*
X00034523Y00019086D01*
X00034515Y00019125D01*
X00034507Y00019157D01*
X00034500Y00019192D01*
X00034496Y00019228D01*
X00034488Y00019259D01*
X00034480Y00019291D01*
X00034472Y00019318D01*
X00034460Y00019350D01*
X00034444Y00019405D01*
X00034413Y00019500D01*
X00034401Y00019519D01*
X00034385Y00019559D01*
X00034374Y00019574D01*
X00034358Y00019606D01*
X00034346Y00019622D01*
X00034338Y00019633D01*
X00034311Y00019661D01*
X00034299Y00019669D01*
X00034291Y00019673D01*
X00034279Y00019681D01*
X00034271Y00019681D01*
X00034259Y00019685D01*
X00033330Y00019685D01*
X00033199Y00019685D01*
X00033137Y00019689D01*
X00033077Y00019704D01*
X00033020Y00019727D01*
X00032968Y00019760D01*
X00032921Y00019800D01*
X00032880Y00019847D01*
X00032848Y00019900D01*
X00032825Y00019957D01*
X00032810Y00020017D01*
X00032805Y00020078D01*
X00032810Y00020140D01*
X00032825Y00020200D01*
X00032848Y00020257D01*
X00032880Y00020310D01*
X00032921Y00020357D01*
X00032968Y00020397D01*
X00033020Y00020429D01*
X00033077Y00020453D01*
X00033137Y00020467D01*
X00033199Y00020472D01*
X00034259Y00020472D01*
X00034271Y00020476D01*
X00034279Y00020476D01*
X00034291Y00020484D01*
X00034299Y00020488D01*
X00034311Y00020496D01*
X00034338Y00020523D01*
X00034346Y00020535D01*
X00034358Y00020551D01*
X00034374Y00020582D01*
X00034385Y00020598D01*
X00034401Y00020637D01*
X00034413Y00020657D01*
X00034437Y00020728D01*
X00034444Y00020751D01*
X00034452Y00020779D01*
X00034460Y00020807D01*
X00034472Y00020838D01*
X00034480Y00020866D01*
X00034496Y00020929D01*
X00034500Y00020964D01*
X00034507Y00021000D01*
X00034515Y00021031D01*
X00034523Y00021070D01*
X00034531Y00021106D01*
X00034535Y00021145D01*
X00034543Y00021185D01*
X00034551Y00021224D01*
X00034555Y00021263D01*
X00034562Y00021307D01*
X00034566Y00021346D01*
X00034574Y00021389D01*
X00034578Y00021433D01*
X00034582Y00021480D01*
X00034590Y00021523D01*
X00034610Y00021759D01*
X00034614Y00021811D01*
X00034618Y00021858D01*
X00034622Y00021909D01*
X00034625Y00021956D01*
X00034629Y00022007D01*
X00034629Y00022059D01*
X00034637Y00022161D01*
X00034637Y00022216D01*
X00034641Y00022267D01*
X00034641Y00022374D01*
X00034645Y00022425D01*
X00034645Y00022850D01*
X00034641Y00022901D01*
X00034641Y00023007D01*
X00034637Y00023059D01*
X00034637Y00023114D01*
X00034629Y00023216D01*
X00034629Y00023267D01*
X00034625Y00023318D01*
X00034622Y00023366D01*
X00034618Y00023417D01*
X00034614Y00023464D01*
X00034610Y00023515D01*
X00034590Y00023751D01*
X00034582Y00023795D01*
X00034578Y00023842D01*
X00034574Y00023885D01*
X00034566Y00023929D01*
X00034562Y00023968D01*
X00034555Y00024011D01*
X00034551Y00024051D01*
X00034535Y00024129D01*
X00034531Y00024169D01*
X00034523Y00024204D01*
X00034515Y00024244D01*
X00034507Y00024275D01*
X00034500Y00024311D01*
X00034496Y00024346D01*
X00034488Y00024377D01*
X00034480Y00024409D01*
X00034472Y00024437D01*
X00034460Y00024468D01*
X00034444Y00024523D01*
X00034413Y00024618D01*
X00034401Y00024637D01*
X00034385Y00024677D01*
X00034374Y00024692D01*
X00034358Y00024724D01*
X00034346Y00024740D01*
X00034338Y00024751D01*
X00034311Y00024779D01*
X00034299Y00024787D01*
X00034291Y00024791D01*
X00034279Y00024799D01*
X00034271Y00024799D01*
X00034259Y00024803D01*
X00033330Y00024803D01*
X00033199Y00024803D01*
X00033137Y00024807D01*
X00033077Y00024822D01*
X00033020Y00024846D01*
X00032968Y00024878D01*
X00032921Y00024918D01*
X00032880Y00024965D01*
X00032848Y00025018D01*
X00032825Y00025075D01*
X00032810Y00025135D01*
X00032805Y00025196D01*
X00032810Y00025258D01*
X00032825Y00025318D01*
X00032848Y00025375D01*
X00032880Y00025428D01*
X00032921Y00025475D01*
X00032968Y00025515D01*
X00033020Y00025547D01*
X00033077Y00025571D01*
X00033137Y00025585D01*
X00033199Y00025590D01*
X00034259Y00025590D01*
X00034271Y00025594D01*
X00034279Y00025594D01*
X00034291Y00025602D01*
X00034299Y00025606D01*
X00034311Y00025614D01*
X00034338Y00025641D01*
X00034346Y00025653D01*
X00034358Y00025669D01*
X00034374Y00025700D01*
X00034385Y00025716D01*
X00034401Y00025755D01*
X00034413Y00025775D01*
X00034437Y00025846D01*
X00034444Y00025870D01*
X00034452Y00025897D01*
X00034460Y00025925D01*
X00034472Y00025956D01*
X00034480Y00025984D01*
X00034496Y00026047D01*
X00034500Y00026082D01*
X00034507Y00026118D01*
X00034515Y00026149D01*
X00034523Y00026188D01*
X00034531Y00026224D01*
X00034535Y00026263D01*
X00034543Y00026303D01*
X00034551Y00026342D01*
X00034555Y00026381D01*
X00034562Y00026425D01*
X00034566Y00026464D01*
X00034574Y00026507D01*
X00034578Y00026551D01*
X00034582Y00026598D01*
X00034590Y00026641D01*
X00034610Y00026877D01*
X00034614Y00026929D01*
X00034618Y00026976D01*
X00034622Y00027027D01*
X00034625Y00027074D01*
X00034629Y00027125D01*
X00034629Y00027177D01*
X00034637Y00027279D01*
X00034637Y00027334D01*
X00034641Y00027385D01*
X00034641Y00027492D01*
X00034645Y00027543D01*
X00034645Y00027968D01*
X00034641Y00028019D01*
X00034641Y00028125D01*
X00034637Y00028177D01*
X00034637Y00028232D01*
X00034629Y00028334D01*
X00034629Y00028385D01*
X00034625Y00028437D01*
X00034622Y00028484D01*
X00034618Y00028535D01*
X00034614Y00028582D01*
X00034610Y00028633D01*
X00034590Y00028870D01*
X00034582Y00028913D01*
X00034578Y00028960D01*
X00034574Y00029003D01*
X00034566Y00029047D01*
X00034562Y00029086D01*
X00034555Y00029129D01*
X00034551Y00029169D01*
X00034535Y00029248D01*
X00034531Y00029287D01*
X00034523Y00029322D01*
X00034515Y00029362D01*
X00034507Y00029393D01*
X00034500Y00029429D01*
X00034496Y00029464D01*
X00034488Y00029496D01*
X00034480Y00029527D01*
X00034472Y00029555D01*
X00034460Y00029586D01*
X00034444Y00029641D01*
X00034413Y00029736D01*
X00034401Y00029755D01*
X00034385Y00029795D01*
X00034374Y00029811D01*
X00034358Y00029842D01*
X00034346Y00029858D01*
X00034338Y00029870D01*
X00034311Y00029897D01*
X00034299Y00029905D01*
X00034291Y00029909D01*
X00034279Y00029917D01*
X00034271Y00029917D01*
X00034259Y00029921D01*
X00033330Y00029921D01*
X00033199Y00029921D01*
X00033137Y00029926D01*
X00033077Y00029940D01*
X00033020Y00029964D01*
X00032968Y00029996D01*
X00032921Y00030036D01*
X00032880Y00030083D01*
X00032848Y00030136D01*
X00032825Y00030193D01*
X00032810Y00030253D01*
X00032805Y00030314D01*
X00032810Y00030376D01*
X00032825Y00030436D01*
X00032848Y00030493D01*
X00032880Y00030546D01*
X00032921Y00030593D01*
X00032968Y00030633D01*
X00033020Y00030665D01*
X00033077Y00030689D01*
X00033137Y00030703D01*
X00033199Y00030708D01*
X00034259Y00030708D01*
X00034271Y00030712D01*
X00034279Y00030712D01*
X00034291Y00030720D01*
X00034299Y00030724D01*
X00034311Y00030732D01*
X00034338Y00030759D01*
X00034346Y00030771D01*
X00034358Y00030787D01*
X00034374Y00030818D01*
X00034385Y00030834D01*
X00034401Y00030874D01*
X00034413Y00030893D01*
X00034437Y00030964D01*
X00034444Y00030988D01*
X00034452Y00031015D01*
X00034460Y00031043D01*
X00034472Y00031074D01*
X00034480Y00031102D01*
X00034496Y00031165D01*
X00034500Y00031200D01*
X00034507Y00031236D01*
X00034515Y00031267D01*
X00034523Y00031307D01*
X00034531Y00031342D01*
X00034535Y00031381D01*
X00034543Y00031421D01*
X00034551Y00031460D01*
X00034555Y00031500D01*
X00034562Y00031543D01*
X00034566Y00031582D01*
X00034574Y00031625D01*
X00034578Y00031669D01*
X00034582Y00031716D01*
X00034590Y00031759D01*
X00034610Y00031996D01*
X00034614Y00032047D01*
X00034618Y00032094D01*
X00034622Y00032145D01*
X00034625Y00032192D01*
X00034629Y00032244D01*
X00034629Y00032295D01*
X00034637Y00032397D01*
X00034637Y00032452D01*
X00034641Y00032503D01*
X00034641Y00032610D01*
X00034645Y00032661D01*
X00034645Y00033086D01*
X00034641Y00033137D01*
X00034641Y00033244D01*
X00034637Y00033295D01*
X00034637Y00033350D01*
X00034629Y00033452D01*
X00034629Y00033503D01*
X00034625Y00033555D01*
X00034622Y00033602D01*
X00034618Y00033653D01*
X00034614Y00033700D01*
X00034610Y00033751D01*
X00034590Y00033988D01*
X00034582Y00034031D01*
X00034578Y00034078D01*
X00034574Y00034122D01*
X00034566Y00034165D01*
X00034562Y00034204D01*
X00034555Y00034248D01*
X00034551Y00034287D01*
X00034535Y00034366D01*
X00034531Y00034405D01*
X00034523Y00034440D01*
X00034515Y00034480D01*
X00034507Y00034511D01*
X00034500Y00034547D01*
X00034496Y00034582D01*
X00034488Y00034614D01*
X00034480Y00034645D01*
X00034472Y00034673D01*
X00034460Y00034704D01*
X00034444Y00034759D01*
X00034413Y00034854D01*
X00034401Y00034874D01*
X00034385Y00034913D01*
X00034374Y00034929D01*
X00034358Y00034960D01*
X00034346Y00034976D01*
X00034338Y00034988D01*
X00034311Y00035015D01*
X00034299Y00035023D01*
X00034291Y00035027D01*
X00034279Y00035035D01*
X00034271Y00035035D01*
X00034259Y00035039D01*
X00029704Y00035039D01*
X00029676Y00035036D01*
X00029648Y00035029D01*
X00029622Y00035017D01*
X00029599Y00035002D01*
X00029577Y00034983D01*
X00029559Y00034961D01*
X00029545Y00034936D01*
X00029535Y00034910D01*
X00029529Y00034882D01*
X00029527Y00034850D01*
X00029527Y00034070D01*
X00029526Y00034037D01*
X00029521Y00034003D01*
X00029514Y00033970D01*
X00029504Y00033938D01*
X00029491Y00033907D01*
X00029476Y00033876D01*
X00029458Y00033848D01*
X00029438Y00033821D01*
X00029415Y00033796D01*
X00029391Y00033772D01*
X00029364Y00033752D01*
X00029336Y00033733D01*
X00029307Y00033717D01*
X00029276Y00033703D01*
X00029244Y00033692D01*
X00029211Y00033684D01*
X00029178Y00033679D01*
X00029144Y00033677D01*
X00029110Y00033677D01*
X00029077Y00033681D01*
X00029011Y00033690D01*
X00028985Y00033695D01*
X00028959Y00033701D01*
X00028934Y00033709D01*
X00028910Y00033719D01*
X00028886Y00033731D01*
X00028863Y00033744D01*
X00028841Y00033758D01*
X00028820Y00033774D01*
X00028800Y00033792D01*
X00028781Y00033810D01*
X00028763Y00033830D01*
X00028747Y00033851D01*
X00028733Y00033873D01*
X00028720Y00033896D01*
X00028708Y00033920D01*
X00028698Y00033944D01*
X00028690Y00033969D01*
X00028683Y00033995D01*
X00028678Y00034021D01*
X00028675Y00034047D01*
X00028673Y00034078D01*
X00028669Y00034122D01*
X00028661Y00034165D01*
X00028657Y00034204D01*
X00028649Y00034248D01*
X00028645Y00034287D01*
X00028629Y00034366D01*
X00028625Y00034405D01*
X00028618Y00034440D01*
X00028610Y00034480D01*
X00028602Y00034511D01*
X00028594Y00034547D01*
X00028590Y00034582D01*
X00028582Y00034614D01*
X00028574Y00034645D01*
X00028566Y00034673D01*
X00028555Y00034704D01*
X00028539Y00034759D01*
X00028507Y00034854D01*
X00028496Y00034874D01*
X00028480Y00034913D01*
X00028468Y00034929D01*
X00028452Y00034960D01*
X00028440Y00034976D01*
X00028433Y00034988D01*
X00028405Y00035015D01*
X00028393Y00035023D01*
X00028385Y00035027D01*
X00028374Y00035035D01*
X00028366Y00035035D01*
X00028354Y00035039D01*
X00023799Y00035039D01*
X00023770Y00035036D01*
X00023743Y00035029D01*
X00023717Y00035017D01*
X00023693Y00035002D01*
X00023672Y00034983D01*
X00023654Y00034961D01*
X00023639Y00034936D01*
X00023629Y00034910D01*
X00023623Y00034882D01*
X00023622Y00034850D01*
X00023622Y00034070D01*
X00023620Y00034037D01*
X00023616Y00034003D01*
X00023609Y00033970D01*
X00023599Y00033938D01*
X00023586Y00033907D01*
X00023571Y00033876D01*
X00023553Y00033848D01*
X00023532Y00033821D01*
X00023510Y00033796D01*
X00023485Y00033772D01*
X00023459Y00033752D01*
X00023431Y00033733D01*
X00023401Y00033717D01*
X00023370Y00033703D01*
X00023338Y00033692D01*
X00023305Y00033684D01*
X00023272Y00033679D01*
X00023238Y00033677D01*
X00023205Y00033677D01*
X00023171Y00033681D01*
X00023105Y00033690D01*
X00023079Y00033695D01*
X00023054Y00033701D01*
X00023029Y00033709D01*
X00023004Y00033719D01*
X00022980Y00033731D01*
X00022957Y00033744D01*
X00022935Y00033758D01*
X00022914Y00033774D01*
X00022894Y00033792D01*
X00022875Y00033810D01*
X00022858Y00033830D01*
X00022842Y00033851D01*
X00022827Y00033873D01*
X00022814Y00033896D01*
X00022802Y00033920D01*
X00022793Y00033944D01*
X00022784Y00033969D01*
X00022778Y00033995D01*
X00022773Y00034021D01*
X00022770Y00034047D01*
X00022767Y00034078D01*
X00022763Y00034122D01*
X00022755Y00034165D01*
X00022751Y00034204D01*
X00022744Y00034248D01*
X00022740Y00034287D01*
X00022724Y00034366D01*
X00022720Y00034405D01*
X00022712Y00034440D01*
X00022704Y00034480D01*
X00022696Y00034511D01*
X00022688Y00034547D01*
X00022685Y00034582D01*
X00022677Y00034614D01*
X00022669Y00034645D01*
X00022661Y00034673D01*
X00022649Y00034704D01*
X00022633Y00034759D01*
X00022602Y00034854D01*
X00022590Y00034874D01*
X00022574Y00034913D01*
X00022562Y00034929D01*
X00022547Y00034960D01*
X00022535Y00034976D01*
X00022527Y00034988D01*
X00022500Y00035015D01*
X00022488Y00035023D01*
X00022480Y00035027D01*
X00022468Y00035035D01*
X00022460Y00035035D01*
X00022448Y00035039D01*
X00017893Y00035039D01*
X00017865Y00035036D01*
X00017837Y00035029D01*
X00017811Y00035017D01*
X00017788Y00035002D01*
X00017766Y00034983D01*
X00017748Y00034961D01*
X00017734Y00034936D01*
X00017724Y00034910D01*
X00017718Y00034882D01*
X00017716Y00034850D01*
X00017716Y00034070D01*
X00017715Y00034037D01*
X00017710Y00034003D01*
X00017703Y00033970D01*
X00017693Y00033938D01*
X00017680Y00033907D01*
X00017665Y00033876D01*
X00017647Y00033848D01*
X00017627Y00033821D01*
X00017604Y00033796D01*
X00017580Y00033772D01*
X00017553Y00033752D01*
X00017525Y00033733D01*
X00017496Y00033717D01*
X00017465Y00033703D01*
X00017433Y00033692D01*
X00017400Y00033684D01*
X00017367Y00033679D01*
X00017333Y00033677D01*
X00017299Y00033677D01*
X00017266Y00033681D01*
X00017200Y00033690D01*
X00017174Y00033695D01*
X00017148Y00033701D01*
X00017123Y00033709D01*
X00017099Y00033719D01*
X00017075Y00033731D01*
X00017052Y00033744D01*
X00017030Y00033758D01*
X00017008Y00033774D01*
X00016989Y00033792D01*
X00016970Y00033810D01*
X00016952Y00033830D01*
X00016936Y00033851D01*
X00016922Y00033873D01*
X00016909Y00033896D01*
X00016897Y00033920D01*
X00016887Y00033944D01*
X00016879Y00033969D01*
X00016872Y00033995D01*
X00016867Y00034021D01*
X00016864Y00034047D01*
X00016862Y00034078D01*
X00016858Y00034122D01*
X00016850Y00034165D01*
X00016846Y00034204D01*
X00016838Y00034248D01*
X00016834Y00034287D01*
X00016818Y00034366D01*
X00016814Y00034405D01*
X00016807Y00034440D01*
X00016799Y00034480D01*
X00016791Y00034511D01*
X00016783Y00034547D01*
X00016779Y00034582D01*
X00016771Y00034614D01*
X00016763Y00034645D01*
X00016755Y00034673D01*
X00016744Y00034704D01*
X00016728Y00034759D01*
X00016696Y00034854D01*
X00016685Y00034874D01*
X00016669Y00034913D01*
X00016657Y00034929D01*
X00016641Y00034960D01*
X00016629Y00034976D01*
X00016622Y00034988D01*
X00016594Y00035015D01*
X00016582Y00035023D01*
X00016574Y00035027D01*
X00016562Y00035035D01*
X00016555Y00035035D01*
X00016543Y00035039D01*
X00011988Y00035039D01*
X00011959Y00035036D01*
X00011932Y00035029D01*
X00011906Y00035017D01*
X00011882Y00035002D01*
X00011861Y00034983D01*
X00011843Y00034961D01*
X00011828Y00034936D01*
X00011818Y00034910D01*
X00011812Y00034882D01*
X00011811Y00034850D01*
X00011811Y00034070D01*
X00011809Y00034037D01*
X00011805Y00034003D01*
X00011798Y00033970D01*
X00011788Y00033938D01*
X00011775Y00033907D01*
X00011760Y00033876D01*
X00011742Y00033848D01*
X00011721Y00033821D01*
X00011699Y00033796D01*
X00011674Y00033772D01*
X00011648Y00033752D01*
X00011620Y00033733D01*
X00011590Y00033717D01*
X00011559Y00033703D01*
X00011527Y00033692D01*
X00011494Y00033684D01*
X00011461Y00033679D01*
X00011427Y00033677D01*
X00011394Y00033677D01*
X00011360Y00033681D01*
X00011294Y00033690D01*
X00011268Y00033695D01*
X00011243Y00033701D01*
X00011218Y00033709D01*
X00011193Y00033719D01*
X00011169Y00033731D01*
X00011146Y00033744D01*
X00011124Y00033758D01*
X00011103Y00033774D01*
X00011083Y00033792D01*
X00011064Y00033810D01*
X00011047Y00033830D01*
X00011031Y00033851D01*
X00011016Y00033873D01*
X00011003Y00033896D01*
X00010991Y00033920D01*
X00010982Y00033944D01*
X00010973Y00033969D01*
X00010967Y00033995D01*
X00010962Y00034021D01*
X00010959Y00034047D01*
X00010956Y00034078D01*
X00010952Y00034122D01*
X00010944Y00034165D01*
X00010940Y00034204D01*
X00010933Y00034248D01*
X00010929Y00034287D01*
X00010913Y00034366D01*
X00010909Y00034405D01*
X00010901Y00034440D01*
X00010893Y00034480D01*
X00010885Y00034511D01*
X00010877Y00034547D01*
X00010874Y00034582D01*
X00010866Y00034614D01*
X00010858Y00034645D01*
X00010850Y00034673D01*
X00010838Y00034704D01*
X00010822Y00034759D01*
X00010791Y00034854D01*
X00010779Y00034874D01*
X00010763Y00034913D01*
X00010751Y00034929D01*
X00010736Y00034960D01*
X00010724Y00034976D01*
X00010716Y00034988D01*
X00010688Y00035015D01*
X00010677Y00035023D01*
X00010669Y00035027D01*
X00010657Y00035035D01*
X00010649Y00035035D01*
X00010637Y00035039D01*
X00006082Y00035039D01*
X00006054Y00035036D01*
X00006026Y00035029D01*
X00006000Y00035017D01*
X00005976Y00035002D01*
X00005955Y00034983D01*
X00005937Y00034961D01*
X00005923Y00034936D01*
X00005913Y00034910D01*
X00005907Y00034882D01*
X00005905Y00034850D01*
X00005905Y00034070D01*
X00005904Y00034037D01*
X00005899Y00034003D01*
X00005892Y00033970D01*
X00005882Y00033938D01*
X00005869Y00033907D01*
X00005854Y00033876D01*
X00005836Y00033848D01*
X00005816Y00033821D01*
X00005793Y00033796D01*
X00005769Y00033772D01*
X00005742Y00033752D01*
X00005714Y00033733D01*
X00005685Y00033717D01*
X00005654Y00033703D01*
X00005622Y00033692D01*
X00005589Y00033684D01*
X00005556Y00033679D01*
X00005522Y00033677D01*
X00005488Y00033677D01*
X00005455Y00033681D01*
X00005389Y00033690D01*
X00005363Y00033695D01*
X00005337Y00033701D01*
X00005312Y00033709D01*
X00005287Y00033719D01*
X00005264Y00033731D01*
X00005241Y00033744D01*
X00005219Y00033758D01*
X00005197Y00033774D01*
X00005178Y00033792D01*
X00005159Y00033810D01*
X00005141Y00033830D01*
X00005125Y00033851D01*
X00005111Y00033873D01*
X00005098Y00033896D01*
X00005086Y00033920D01*
X00005076Y00033944D01*
X00005068Y00033969D01*
X00005061Y00033995D01*
X00005056Y00034021D01*
X00005053Y00034047D01*
X00005051Y00034078D01*
X00005047Y00034122D01*
X00005039Y00034165D01*
X00005035Y00034204D01*
X00005027Y00034248D01*
X00005023Y00034287D01*
X00005007Y00034366D01*
X00005003Y00034405D01*
X00004996Y00034440D01*
X00004988Y00034480D01*
X00004980Y00034511D01*
X00004972Y00034547D01*
X00004968Y00034582D01*
X00004960Y00034614D01*
X00004952Y00034645D01*
X00004944Y00034673D01*
X00004933Y00034704D01*
X00004917Y00034759D01*
X00004885Y00034854D01*
X00004874Y00034874D01*
X00004858Y00034913D01*
X00004846Y00034929D01*
X00004830Y00034960D01*
X00004818Y00034976D01*
X00004811Y00034988D01*
X00004783Y00035015D01*
X00004771Y00035023D01*
X00004763Y00035027D01*
X00004751Y00035035D01*
X00004744Y00035035D01*
X00004732Y00035039D01*
X00000177Y00035039D01*
X00000148Y00035036D01*
X00000121Y00035029D01*
X00000095Y00035017D01*
X00000071Y00035002D01*
X00000050Y00034983D01*
X00000032Y00034961D01*
X00000017Y00034936D01*
X00000007Y00034910D01*
X00000001Y00034882D01*
X00000000Y00034850D01*
X00000000Y00030885D01*
X00000002Y00030857D01*
X00000010Y00030830D01*
X00000021Y00030804D01*
X00000036Y00030780D01*
X00000055Y00030758D01*
X00000077Y00030740D01*
X00000102Y00030726D01*
X00000128Y00030716D01*
X00000156Y00030710D01*
X00000181Y00030708D01*
X00001362Y00030708D01*
X00001423Y00030703D01*
X00001483Y00030689D01*
X00001541Y00030665D01*
X00001593Y00030633D01*
X00001640Y00030593D01*
X00001680Y00030546D01*
X00001713Y00030493D01*
X00001736Y00030436D01*
X00001751Y00030376D01*
X00001756Y00030314D01*
X00001751Y00030253D01*
X00001736Y00030193D01*
X00001713Y00030136D01*
X00001680Y00030083D01*
X00001640Y00030036D01*
X00001593Y00029996D01*
X00001541Y00029964D01*
X00001483Y00029940D01*
X00001423Y00029926D01*
X00001362Y00029921D01*
X00001362Y00029921D01*
X00000177Y00029921D01*
X00000148Y00029918D01*
X00000121Y00029911D01*
X00000095Y00029899D01*
X00000071Y00029884D01*
X00000050Y00029865D01*
X00000032Y00029843D01*
X00000017Y00029818D01*
X00000007Y00029792D01*
X00000001Y00029764D01*
X00000000Y00029732D01*
X00000000Y00025767D01*
X00000002Y00025739D01*
X00000010Y00025711D01*
X00000021Y00025685D01*
X00000036Y00025662D01*
X00000055Y00025640D01*
X00000077Y00025622D01*
X00000102Y00025608D01*
X00000128Y00025598D01*
X00000156Y00025592D01*
X00000181Y00025590D01*
X00001362Y00025590D01*
X00001423Y00025585D01*
X00001483Y00025571D01*
X00001541Y00025547D01*
X00001593Y00025515D01*
X00001640Y00025475D01*
X00001680Y00025428D01*
X00001713Y00025375D01*
X00001736Y00025318D01*
X00001751Y00025258D01*
X00001756Y00025196D01*
X00001751Y00025135D01*
X00001736Y00025075D01*
X00001713Y00025018D01*
X00001680Y00024965D01*
X00001640Y00024918D01*
X00001593Y00024878D01*
X00001541Y00024846D01*
X00001483Y00024822D01*
X00001423Y00024807D01*
X00001362Y00024803D01*
X00001362Y00024803D01*
X00000177Y00024803D01*
X00000148Y00024800D01*
X00000121Y00024793D01*
X00000095Y00024781D01*
X00000071Y00024766D01*
X00000050Y00024747D01*
X00000032Y00024725D01*
X00000017Y00024700D01*
X00000007Y00024674D01*
X00000001Y00024646D01*
X00000000Y00024614D01*
X00000000Y00020649D01*
X00000002Y00020621D01*
X00000010Y00020593D01*
X00000021Y00020567D01*
X00000036Y00020543D01*
X00000055Y00020522D01*
X00000077Y00020504D01*
X00000102Y00020490D01*
X00000128Y00020480D01*
X00000156Y00020474D01*
X00000181Y00020472D01*
X00001362Y00020472D01*
X00001423Y00020467D01*
X00001483Y00020453D01*
X00001541Y00020429D01*
X00001593Y00020397D01*
X00001640Y00020357D01*
X00001680Y00020310D01*
X00001713Y00020257D01*
X00001736Y00020200D01*
X00001751Y00020140D01*
X00001756Y00020078D01*
X00001751Y00020017D01*
X00001736Y00019957D01*
X00001713Y00019900D01*
X00001680Y00019847D01*
X00001640Y00019800D01*
X00001593Y00019760D01*
X00001541Y00019727D01*
X00001483Y00019704D01*
X00001423Y00019689D01*
X00001362Y00019685D01*
X00001362Y00019685D01*
X00000177Y00019685D01*
X00000148Y00019682D01*
X00000121Y00019674D01*
X00000095Y00019663D01*
X00000071Y00019648D01*
X00000050Y00019629D01*
X00000032Y00019607D01*
X00000017Y00019582D01*
X00000007Y00019556D01*
X00000001Y00019528D01*
X00000000Y00019496D01*
X00000000Y00015531D01*
X00000002Y00015503D01*
X00000010Y00015475D01*
X00000021Y00015449D01*
X00000036Y00015425D01*
X00000055Y00015404D01*
X00000077Y00015386D01*
X00000102Y00015372D01*
X00000128Y00015361D01*
X00000156Y00015355D01*
X00000181Y00015354D01*
X00001362Y00015354D01*
X00001423Y00015349D01*
X00001483Y00015335D01*
X00001541Y00015311D01*
X00001593Y00015279D01*
X00001640Y00015239D01*
X00001680Y00015192D01*
X00001713Y00015139D01*
X00001736Y00015082D01*
X00001751Y00015022D01*
X00001756Y00014960D01*
X00001751Y00014899D01*
X00001736Y00014838D01*
X00001713Y00014781D01*
X00001680Y00014729D01*
X00001640Y00014682D01*
X00001593Y00014642D01*
X00001541Y00014609D01*
X00001483Y00014586D01*
X00001423Y00014571D01*
X00001362Y00014566D01*
X00001362Y00014566D01*
X00000177Y00014566D01*
X00000148Y00014564D01*
X00000121Y00014556D01*
X00000095Y00014545D01*
X00000071Y00014530D01*
X00000050Y00014511D01*
X00000032Y00014489D01*
X00000017Y00014464D01*
X00000007Y00014438D01*
X00000001Y00014410D01*
X00000000Y00014377D01*
X00000000Y00010413D01*
X00000002Y00010385D01*
X00000010Y00010357D01*
X00000021Y00010331D01*
X00000036Y00010307D01*
X00000055Y00010286D01*
X00000077Y00010268D01*
X00000102Y00010254D01*
X00000128Y00010243D01*
X00000156Y00010237D01*
X00000181Y00010236D01*
X00001362Y00010236D01*
X00001423Y00010231D01*
X00001483Y00010216D01*
X00001541Y00010193D01*
X00001593Y00010161D01*
X00001640Y00010120D01*
X00001680Y00010073D01*
X00001713Y00010021D01*
X00001736Y00009964D01*
X00001751Y00009904D01*
X00001756Y00009842D01*
X00001751Y00009780D01*
X00001736Y00009720D01*
X00001713Y00009663D01*
X00001680Y00009611D01*
X00001640Y00009564D01*
X00001593Y00009524D01*
X00001541Y00009491D01*
X00001483Y00009468D01*
X00001423Y00009453D01*
X00001362Y00009448D01*
X00001362Y00009448D01*
X00000177Y00009448D01*
X00000148Y00009445D01*
X00000121Y00009438D01*
X00000095Y00009427D01*
X00000071Y00009411D01*
X00000050Y00009392D01*
X00000032Y00009370D01*
X00000017Y00009346D01*
X00000007Y00009319D01*
X00000001Y00009292D01*
X00000000Y00009259D01*
X00000000Y00005295D01*
X00000002Y00005266D01*
X00000010Y00005239D01*
X00000021Y00005213D01*
X00000036Y00005189D01*
X00000055Y00005168D01*
X00000077Y00005150D01*
X00000102Y00005136D01*
X00000128Y00005125D01*
X00000156Y00005119D01*
X00000181Y00005118D01*
X00001362Y00005118D01*
X00001423Y00005113D01*
X00001483Y00005098D01*
X00001541Y00005075D01*
X00001593Y00005042D01*
X00001640Y00005002D01*
X00001680Y00004955D01*
X00001713Y00004903D01*
X00001736Y00004846D01*
X00001751Y00004785D01*
X00001756Y00004724D01*
X00001751Y00004662D01*
X00001736Y00004602D01*
X00001713Y00004545D01*
X00001680Y00004492D01*
X00001640Y00004446D01*
X00001593Y00004405D01*
X00001541Y00004373D01*
X00001483Y00004349D01*
X00001423Y00004335D01*
X00001362Y00004330D01*
X00001362Y00004330D01*
X00000177Y00004330D01*
X00000148Y00004327D01*
X00000121Y00004320D01*
X00000095Y00004309D01*
X00000071Y00004293D01*
X00000050Y00004274D01*
X00000032Y00004252D01*
X00000017Y00004228D01*
X00000007Y00004201D01*
X00000001Y00004174D01*
X00000000Y00004141D01*
X00000000Y00000177D01*
X00000002Y00000148D01*
X00000010Y00000121D01*
X00000021Y00000095D01*
X00000036Y00000071D01*
X00000055Y00000050D01*
X00000077Y00000032D01*
X00000102Y00000017D01*
X00000128Y00000007D01*
X00000156Y00000001D01*
X00000181Y00000000D01*
X00004732Y00000000D01*
X00004744Y00000003D01*
X00004751Y00000003D01*
X00004763Y00000011D01*
X00004771Y00000015D01*
X00004783Y00000023D01*
X00004811Y00000051D01*
X00004818Y00000062D01*
X00004830Y00000078D01*
X00004846Y00000110D01*
X00004858Y00000125D01*
X00004874Y00000165D01*
X00004885Y00000185D01*
X00004909Y00000255D01*
X00004917Y00000279D01*
X00004925Y00000307D01*
X00004933Y00000334D01*
X00004944Y00000366D01*
X00004952Y00000393D01*
X00004968Y00000456D01*
X00004972Y00000492D01*
X00004980Y00000527D01*
X00004988Y00000559D01*
X00004996Y00000598D01*
X00005003Y00000633D01*
X00005007Y00000673D01*
X00005015Y00000712D01*
X00005023Y00000751D01*
X00005027Y00000791D01*
X00005035Y00000834D01*
X00005039Y00000874D01*
X00005047Y00000917D01*
X00005051Y00000960D01*
X00005053Y00000991D01*
M02*