%
M48
METRIC,000.000
T01C0.50
%
T01
X039253Y011250
X038253Y011250
X037253Y011250
X036253Y011250
X035253Y011250
X034253Y011250
X034357Y012750
X035357Y012750
X036357Y012750
X037357Y012750
X038357Y012750
X039357Y012750
X013169Y003386
X013230Y004384
X013250Y005383
X013240Y006382
X013188Y007380
X013105Y008377
X014750Y008447
X014750Y007447
X014750Y006447
X014750Y005447
X014750Y004447
X014750Y003447
X014750Y002447
X009253Y011250
X008253Y011250
X007253Y011250
X006253Y011250
X005253Y011250
X004253Y011250
X004357Y012750
X005357Y012750
X006357Y012750
X007357Y012750
X008357Y012750
X009357Y012750
X009253Y024250
X008253Y024250
X007253Y024250
X006253Y024250
X005253Y024250
X004253Y024250
X004357Y025750
X005357Y025750
X006357Y025750
X007357Y025750
X008357Y025750
X009357Y025750
X009253Y037250
X008253Y037250
X007253Y037250
X006253Y037250
X005253Y037250
X004253Y037250
X004357Y038750
X005357Y038750
X006357Y038750
X007357Y038750
X008357Y038750
X009357Y038750
X024253Y011250
X023253Y011250
X022253Y011250
X021253Y011250
X020253Y011250
X019253Y011250
X019357Y012750
X020357Y012750
X021357Y012750
X022357Y012750
X023357Y012750
X024357Y012750
X028169Y003386
X028230Y004384
X028250Y005383
X028240Y006382
X028188Y007380
X028105Y008377
X029750Y008447
X029750Y007447
X029750Y006447
X029750Y005447
X029750Y004447
X029750Y003447
X029750Y002447
X039253Y024250
X038253Y024250
X037253Y024250
X036253Y024250
X035253Y024250
X034253Y024250
X034357Y025750
X035357Y025750
X036357Y025750
X037357Y025750
X038357Y025750
X039357Y025750
X024253Y024250
X023253Y024250
X022253Y024250
X021253Y024250
X020253Y024250
X019253Y024250
X019357Y025750
X020357Y025750
X021357Y025750
X022357Y025750
X023357Y025750
X024357Y025750
X024253Y037250
X023253Y037250
X022253Y037250
X021253Y037250
X020253Y037250
X019253Y037250
X019357Y038750
X020357Y038750
X021357Y038750
X022357Y038750
X023357Y038750
X024357Y038750
X043169Y003386
X043230Y004384
X043250Y005383
X043240Y006382
X043188Y007380
X043105Y008377
X044750Y008447
X044750Y007447
X044750Y006447
X044750Y005447
X044750Y004447
X044750Y003447
X044750Y002447
X039253Y037250
X038253Y037250
X037253Y037250
X036253Y037250
X035253Y037250
X034253Y037250
X034357Y038750
X035357Y038750
X036357Y038750
X037357Y038750
X038357Y038750
X039357Y038750
X024253Y050250
X023253Y050250
X022253Y050250
X021253Y050250
X020253Y050250
X019253Y050250
X019357Y051750
X020357Y051750
X021357Y051750
X022357Y051750
X023357Y051750
X024357Y051750
X009253Y050250
X008253Y050250
X007253Y050250
X006253Y050250
X005253Y050250
X004253Y050250
X004357Y051750
X005357Y051750
X006357Y051750
X007357Y051750
X008357Y051750
X009357Y051750
X009253Y076250
X008253Y076250
X007253Y076250
X006253Y076250
X005253Y076250
X004253Y076250
X004357Y077750
X005357Y077750
X006357Y077750
X007357Y077750
X008357Y077750
X009357Y077750
X009253Y063250
X008253Y063250
X007253Y063250
X006253Y063250
X005253Y063250
X004253Y063250
X004357Y064750
X005357Y064750
X006357Y064750
X007357Y064750
X008357Y064750
X009357Y064750
X024253Y063250
X023253Y063250
X022253Y063250
X021253Y063250
X020253Y063250
X019253Y063250
X019357Y064750
X020357Y064750
X021357Y064750
X022357Y064750
X023357Y064750
X024357Y064750
X039253Y050250
X038253Y050250
X037253Y050250
X036253Y050250
X035253Y050250
X034253Y050250
X034357Y051750
X035357Y051750
X036357Y051750
X037357Y051750
X038357Y051750
X039357Y051750
X039253Y063250
X038253Y063250
X037253Y063250
X036253Y063250
X035253Y063250
X034253Y063250
X034357Y064750
X035357Y064750
X036357Y064750
X037357Y064750
X038357Y064750
X039357Y064750
X039253Y076250
X038253Y076250
X037253Y076250
X036253Y076250
X035253Y076250
X034253Y076250
X034357Y077750
X035357Y077750
X036357Y077750
X037357Y077750
X038357Y077750
X039357Y077750
X028169Y081386
X028230Y082384
X028250Y083383
X028240Y084382
X028188Y085380
X028105Y086377
X029750Y086447
X029750Y085447
X029750Y084447
X029750Y083447
X029750Y082447
X029750Y081447
X029750Y080447
X024253Y076250
X023253Y076250
X022253Y076250
X021253Y076250
X020253Y076250
X019253Y076250
X019357Y077750
X020357Y077750
X021357Y077750
X022357Y077750
X023357Y077750
X024357Y077750
X013169Y081386
X013230Y082384
X013250Y083383
X013240Y084382
X013188Y085380
X013105Y086377
X014750Y086447
X014750Y085447
X014750Y084447
X014750Y083447
X014750Y082447
X014750Y081447
X014750Y080447
X058169Y003386
X058230Y004384
X058250Y005383
X058240Y006382
X058188Y007380
X058105Y008377
X059750Y008447
X059750Y007447
X059750Y006447
X059750Y005447
X059750Y004447
X059750Y003447
X059750Y002447
X054253Y011250
X053253Y011250
X052253Y011250
X051253Y011250
X050253Y011250
X049253Y011250
X049357Y012750
X050357Y012750
X051357Y012750
X052357Y012750
X053357Y012750
X054357Y012750
X054253Y024250
X053253Y024250
X052253Y024250
X051253Y024250
X050253Y024250
X049253Y024250
X049357Y025750
X050357Y025750
X051357Y025750
X052357Y025750
X053357Y025750
X054357Y025750
X054253Y037250
X053253Y037250
X052253Y037250
X051253Y037250
X050253Y037250
X049253Y037250
X049357Y038750
X050357Y038750
X051357Y038750
X052357Y038750
X053357Y038750
X054357Y038750
X069253Y011250
X068253Y011250
X067253Y011250
X066253Y011250
X065253Y011250
X064253Y011250
X064357Y012750
X065357Y012750
X066357Y012750
X067357Y012750
X068357Y012750
X069357Y012750
X084253Y011250
X083253Y011250
X082253Y011250
X081253Y011250
X080253Y011250
X079253Y011250
X079357Y012750
X080357Y012750
X081357Y012750
X082357Y012750
X083357Y012750
X084357Y012750
X068253Y024250
X067253Y024250
X066253Y024250
X065253Y024250
X064253Y024250
X063253Y024250
X063357Y025750
X064357Y025750
X065357Y025750
X066357Y025750
X067357Y025750
X068357Y025750
X073169Y003386
X073230Y004384
X073250Y005383
X073239Y006382
X073188Y007380
X073105Y008377
X074750Y008447
X074750Y007447
X074750Y006447
X074750Y005447
X074750Y004447
X074750Y003447
X074750Y002447
X084253Y024250
X083253Y024250
X082253Y024250
X081253Y024250
X080253Y024250
X079253Y024250
X079357Y025750
X080357Y025750
X081357Y025750
X082357Y025750
X083357Y025750
X084357Y025750
X068253Y037250
X067253Y037250
X066253Y037250
X065253Y037250
X064253Y037250
X063253Y037250
X063357Y038750
X064357Y038750
X065357Y038750
X066357Y038750
X067357Y038750
X068357Y038750
X084253Y037250
X083253Y037250
X082253Y037250
X081253Y037250
X080253Y037250
X079253Y037250
X079357Y038750
X080357Y038750
X081357Y038750
X082357Y038750
X083357Y038750
X084357Y038750
X069253Y050250
X068253Y050250
X067253Y050250
X066253Y050250
X065253Y050250
X064253Y050250
X064357Y051750
X065357Y051750
X066357Y051750
X067357Y051750
X068357Y051750
X069357Y051750
X054253Y050250
X053253Y050250
X052253Y050250
X051253Y050250
X050253Y050250
X049253Y050250
X049357Y051750
X050357Y051750
X051357Y051750
X052357Y051750
X053357Y051750
X054357Y051750
X054253Y076250
X053253Y076250
X052253Y076250
X051253Y076250
X050253Y076250
X049253Y076250
X049357Y077750
X050357Y077750
X051357Y077750
X052357Y077750
X053357Y077750
X054357Y077750
X054253Y063250
X053253Y063250
X052253Y063250
X051253Y063250
X050253Y063250
X049253Y063250
X049357Y064750
X050357Y064750
X051357Y064750
X052357Y064750
X053357Y064750
X054357Y064750
X069253Y063250
X068253Y063250
X067253Y063250
X066253Y063250
X065253Y063250
X064253Y063250
X064357Y064750
X065357Y064750
X066357Y064750
X067357Y064750
X068357Y064750
X069357Y064750
X043169Y081386
X043230Y082384
X043250Y083383
X043240Y084382
X043188Y085380
X043105Y086377
X044750Y086447
X044750Y085447
X044750Y084447
X044750Y083447
X044750Y082447
X044750Y081447
X044750Y080447
X084253Y050250
X083253Y050250
X082253Y050250
X081253Y050250
X080253Y050250
X079253Y050250
X079357Y051750
X080357Y051750
X081357Y051750
X082357Y051750
X083357Y051750
X084357Y051750
X084253Y063250
X083253Y063250
X082253Y063250
X081253Y063250
X080253Y063250
X079253Y063250
X079357Y064750
X080357Y064750
X081357Y064750
X082357Y064750
X083357Y064750
X084357Y064750
X084253Y076250
X083253Y076250
X082253Y076250
X081253Y076250
X080253Y076250
X079253Y076250
X079357Y077750
X080357Y077750
X081357Y077750
X082357Y077750
X083357Y077750
X084357Y077750
X073169Y081386
X073230Y082384
X073250Y083383
X073239Y084382
X073188Y085380
X073105Y086377
X074750Y086447
X074750Y085447
X074750Y084447
X074750Y083447
X074750Y082447
X074750Y081447
X074750Y080447
X069253Y076250
X068253Y076250
X067253Y076250
X066253Y076250
X065253Y076250
X064253Y076250
X064357Y077750
X065357Y077750
X066357Y077750
X067357Y077750
X068357Y077750
X069357Y077750
X058169Y081386
X058230Y082384
X058250Y083383
X058240Y084382
X058188Y085380
X058105Y086377
X059750Y086447
X059750Y085447
X059750Y084447
X059750Y083447
X059750Y082447
X059750Y081447
X059750Y080447
M30