G04 #@! TF.FileFunction,Legend,Bot*
%FSLAX46Y46*%
G04 Gerber Fmt 4.6, Leading zero omitted, Abs format (unit mm)*
G04 Created by KiCad (PCBNEW 4.0.5) date 12/10/17 16:05:20*
%MOMM*%
%LPD*%
G01*
G04 APERTURE LIST*
%ADD10C,0.100000*%
%ADD11C,0.250000*%
%ADD12C,0.150000*%
G04 APERTURE END LIST*
D10*
D11*
X22161905Y-19827381D02*
X22161905Y-18827381D01*
X21923810Y-18827381D01*
X21780952Y-18875000D01*
X21685714Y-18970238D01*
X21638095Y-19065476D01*
X21590476Y-19255952D01*
X21590476Y-19398810D01*
X21638095Y-19589286D01*
X21685714Y-19684524D01*
X21780952Y-19779762D01*
X21923810Y-19827381D01*
X22161905Y-19827381D01*
X19040476Y-19732143D02*
X19088095Y-19779762D01*
X19230952Y-19827381D01*
X19326190Y-19827381D01*
X19469048Y-19779762D01*
X19564286Y-19684524D01*
X19611905Y-19589286D01*
X19659524Y-19398810D01*
X19659524Y-19255952D01*
X19611905Y-19065476D01*
X19564286Y-18970238D01*
X19469048Y-18875000D01*
X19326190Y-18827381D01*
X19230952Y-18827381D01*
X19088095Y-18875000D01*
X19040476Y-18922619D01*
X22185714Y-27177381D02*
X21614285Y-27177381D01*
X21900000Y-28177381D02*
X21900000Y-27177381D01*
X19040476Y-28177381D02*
X19373810Y-27701190D01*
X19611905Y-28177381D02*
X19611905Y-27177381D01*
X19230952Y-27177381D01*
X19135714Y-27225000D01*
X19088095Y-27272619D01*
X19040476Y-27367857D01*
X19040476Y-27510714D01*
X19088095Y-27605952D01*
X19135714Y-27653571D01*
X19230952Y-27701190D01*
X19611905Y-27701190D01*
D12*
X27825000Y-24750000D02*
X27825000Y-25250000D01*
X26775000Y-25250000D02*
X26775000Y-24750000D01*
X27300000Y-20060000D02*
X27050000Y-19860000D01*
X27550000Y-19860000D02*
X27300000Y-20060000D01*
X27825000Y-19710000D02*
X27825000Y-20760000D01*
X26775000Y-19710000D02*
X26775000Y-20760000D01*
X19575000Y-26425000D02*
X19075000Y-26425000D01*
X19075000Y-25475000D02*
X19575000Y-25475000D01*
X19075000Y-23075000D02*
X19575000Y-23075000D01*
X19575000Y-24025000D02*
X19075000Y-24025000D01*
X19075000Y-24275000D02*
X19575000Y-24275000D01*
X19575000Y-25225000D02*
X19075000Y-25225000D01*
X27300000Y-26800000D02*
X27550000Y-27000000D01*
X27050000Y-27000000D02*
X27300000Y-26800000D01*
X26775000Y-27150000D02*
X26775000Y-26100000D01*
X27825000Y-27150000D02*
X27825000Y-26100000D01*
X27825000Y-21400000D02*
X27825000Y-21900000D01*
X26775000Y-21900000D02*
X26775000Y-21400000D01*
X19750000Y-22825000D02*
X19250000Y-22825000D01*
X19250000Y-21775000D02*
X19750000Y-21775000D01*
X19750000Y-21525000D02*
X19250000Y-21525000D01*
X19250000Y-20475000D02*
X19750000Y-20475000D01*
X20950000Y-20825000D02*
X20950000Y-21450000D01*
X26200000Y-26075000D02*
X26200000Y-25450000D01*
X20950000Y-26075000D02*
X20950000Y-25450000D01*
X26200000Y-20825000D02*
X25575000Y-20825000D01*
X26200000Y-26075000D02*
X25575000Y-26075000D01*
X20950000Y-26075000D02*
X21575000Y-26075000D01*
X20950000Y-20825000D02*
X21575000Y-20825000D01*
X17700000Y-26164286D02*
X17728571Y-26192857D01*
X17814285Y-26221429D01*
X17871428Y-26221429D01*
X17957143Y-26192857D01*
X18014285Y-26135714D01*
X18042857Y-26078571D01*
X18071428Y-25964286D01*
X18071428Y-25878571D01*
X18042857Y-25764286D01*
X18014285Y-25707143D01*
X17957143Y-25650000D01*
X17871428Y-25621429D01*
X17814285Y-25621429D01*
X17728571Y-25650000D01*
X17700000Y-25678571D01*
X17128571Y-26221429D02*
X17471428Y-26221429D01*
X17300000Y-26221429D02*
X17300000Y-25621429D01*
X17357143Y-25707143D01*
X17414285Y-25764286D01*
X17471428Y-25792857D01*
X17825000Y-23764286D02*
X17853571Y-23792857D01*
X17939285Y-23821429D01*
X17996428Y-23821429D01*
X18082143Y-23792857D01*
X18139285Y-23735714D01*
X18167857Y-23678571D01*
X18196428Y-23564286D01*
X18196428Y-23478571D01*
X18167857Y-23364286D01*
X18139285Y-23307143D01*
X18082143Y-23250000D01*
X17996428Y-23221429D01*
X17939285Y-23221429D01*
X17853571Y-23250000D01*
X17825000Y-23278571D01*
X17596428Y-23278571D02*
X17567857Y-23250000D01*
X17510714Y-23221429D01*
X17367857Y-23221429D01*
X17310714Y-23250000D01*
X17282143Y-23278571D01*
X17253571Y-23335714D01*
X17253571Y-23392857D01*
X17282143Y-23478571D01*
X17625000Y-23821429D01*
X17253571Y-23821429D01*
X17825000Y-24964286D02*
X17853571Y-24992857D01*
X17939285Y-25021429D01*
X17996428Y-25021429D01*
X18082143Y-24992857D01*
X18139285Y-24935714D01*
X18167857Y-24878571D01*
X18196428Y-24764286D01*
X18196428Y-24678571D01*
X18167857Y-24564286D01*
X18139285Y-24507143D01*
X18082143Y-24450000D01*
X17996428Y-24421429D01*
X17939285Y-24421429D01*
X17853571Y-24450000D01*
X17825000Y-24478571D01*
X17625000Y-24421429D02*
X17253571Y-24421429D01*
X17453571Y-24650000D01*
X17367857Y-24650000D01*
X17310714Y-24678571D01*
X17282143Y-24707143D01*
X17253571Y-24764286D01*
X17253571Y-24907143D01*
X17282143Y-24964286D01*
X17310714Y-24992857D01*
X17367857Y-25021429D01*
X17539285Y-25021429D01*
X17596428Y-24992857D01*
X17625000Y-24964286D01*
X18200000Y-22571429D02*
X18400000Y-22285714D01*
X18542857Y-22571429D02*
X18542857Y-21971429D01*
X18314285Y-21971429D01*
X18257143Y-22000000D01*
X18228571Y-22028571D01*
X18200000Y-22085714D01*
X18200000Y-22171429D01*
X18228571Y-22228571D01*
X18257143Y-22257143D01*
X18314285Y-22285714D01*
X18542857Y-22285714D01*
X18000000Y-21971429D02*
X17628571Y-21971429D01*
X17828571Y-22200000D01*
X17742857Y-22200000D01*
X17685714Y-22228571D01*
X17657143Y-22257143D01*
X17628571Y-22314286D01*
X17628571Y-22457143D01*
X17657143Y-22514286D01*
X17685714Y-22542857D01*
X17742857Y-22571429D01*
X17914285Y-22571429D01*
X17971428Y-22542857D01*
X18000000Y-22514286D01*
X18200000Y-21271429D02*
X18400000Y-20985714D01*
X18542857Y-21271429D02*
X18542857Y-20671429D01*
X18314285Y-20671429D01*
X18257143Y-20700000D01*
X18228571Y-20728571D01*
X18200000Y-20785714D01*
X18200000Y-20871429D01*
X18228571Y-20928571D01*
X18257143Y-20957143D01*
X18314285Y-20985714D01*
X18542857Y-20985714D01*
X17685714Y-20871429D02*
X17685714Y-21271429D01*
X17828571Y-20642857D02*
X17971428Y-21071429D01*
X17600000Y-21071429D01*
X24336905Y-19202381D02*
X24336905Y-20011905D01*
X24289286Y-20107143D01*
X24241667Y-20154762D01*
X24146429Y-20202381D01*
X23955952Y-20202381D01*
X23860714Y-20154762D01*
X23813095Y-20107143D01*
X23765476Y-20011905D01*
X23765476Y-19202381D01*
X22765476Y-20202381D02*
X23336905Y-20202381D01*
X23051191Y-20202381D02*
X23051191Y-19202381D01*
X23146429Y-19345238D01*
X23241667Y-19440476D01*
X23336905Y-19488095D01*
M02*
