G04 #@! TF.FileFunction,Soldermask,Top*
%FSLAX46Y46*%
G04 Gerber Fmt 4.6, Leading zero omitted, Abs format (unit mm)*
G04 Created by KiCad (PCBNEW 4.0.5) date 12/10/17 16:05:20*
%MOMM*%
%LPD*%
G01*
G04 APERTURE LIST*
%ADD10C,0.100000*%
%ADD11C,0.010000*%
G04 APERTURE END LIST*
D10*
G36*
X27750000Y-28500000D02*
X27750000Y-24000000D01*
X30250000Y-24000000D01*
X30250000Y-28500000D01*
X27750000Y-28500000D01*
X27750000Y-28500000D01*
G37*
X27750000Y-28500000D02*
X27750000Y-24000000D01*
X30250000Y-24000000D01*
X30250000Y-28500000D01*
X27750000Y-28500000D01*
G36*
X30250000Y-22750000D02*
X30250000Y-18500000D01*
X27750000Y-18500000D01*
X27750000Y-22750000D01*
X30250000Y-22750000D01*
X30250000Y-22750000D01*
G37*
X30250000Y-22750000D02*
X30250000Y-18500000D01*
X27750000Y-18500000D01*
X27750000Y-22750000D01*
X30250000Y-22750000D01*
D11*
G36*
X18500000Y-25250000D02*
X25500000Y-25250000D01*
X25500000Y-23750000D01*
X18500000Y-23750000D01*
X18500000Y-25250000D01*
X18500000Y-25250000D01*
G37*
X18500000Y-25250000D02*
X25500000Y-25250000D01*
X25500000Y-23750000D01*
X18500000Y-23750000D01*
X18500000Y-25250000D01*
G36*
X25500000Y-25750000D02*
X18500000Y-25750000D01*
X17750000Y-26500000D01*
X17750000Y-27500000D01*
X18500000Y-28250000D01*
X25500000Y-28250000D01*
X25500000Y-25750000D01*
X25500000Y-25750000D01*
G37*
X25500000Y-25750000D02*
X18500000Y-25750000D01*
X17750000Y-26500000D01*
X17750000Y-27500000D01*
X18500000Y-28250000D01*
X25500000Y-28250000D01*
X25500000Y-25750000D01*
G36*
X18500000Y-23250000D02*
X25500000Y-23250000D01*
X25500000Y-21750000D01*
X18500000Y-21750000D01*
X18500000Y-23250000D01*
X18500000Y-23250000D01*
G37*
X18500000Y-23250000D02*
X25500000Y-23250000D01*
X25500000Y-21750000D01*
X18500000Y-21750000D01*
X18500000Y-23250000D01*
G36*
X25500000Y-18750000D02*
X25500000Y-21250000D01*
X18500000Y-21250000D01*
X17750000Y-20500000D01*
X17750000Y-19500000D01*
X18500000Y-18750000D01*
X25500000Y-18750000D01*
X25500000Y-18750000D01*
G37*
X25500000Y-18750000D02*
X25500000Y-21250000D01*
X18500000Y-21250000D01*
X17750000Y-20500000D01*
X17750000Y-19500000D01*
X18500000Y-18750000D01*
X25500000Y-18750000D01*
M02*
