G04 #@! TF.FileFunction,Paste,Bot*
%FSLAX46Y46*%
G04 Gerber Fmt 4.6, Leading zero omitted, Abs format (unit mm)*
G04 Created by KiCad (PCBNEW 4.0.5) date 12/10/17 16:05:20*
%MOMM*%
%LPD*%
G01*
G04 APERTURE LIST*
%ADD10C,0.100000*%
%ADD11R,1.727200X2.032000*%
%ADD12O,1.727200X1.727200*%
%ADD13R,0.600000X0.400000*%
%ADD14R,0.600000X0.500000*%
%ADD15R,0.400000X0.600000*%
%ADD16R,0.750000X0.300000*%
%ADD17R,0.300000X0.750000*%
%ADD18R,0.960000X0.960000*%
G04 APERTURE END LIST*
D10*
D11*
X18060000Y-27650000D03*
D12*
X20600000Y-27650000D03*
X23140000Y-27650000D03*
X25680000Y-27650000D03*
D13*
X27300000Y-25450000D03*
X27300000Y-24550000D03*
X27300000Y-20410000D03*
X27300000Y-19510000D03*
D14*
X18775000Y-25950000D03*
X19875000Y-25950000D03*
X19875000Y-23550000D03*
X18775000Y-23550000D03*
X19875000Y-24750000D03*
X18775000Y-24750000D03*
D13*
X27300000Y-26450000D03*
X27300000Y-27350000D03*
X27300000Y-22100000D03*
X27300000Y-21200000D03*
D15*
X19050000Y-22300000D03*
X19950000Y-22300000D03*
X19050000Y-21000000D03*
X19950000Y-21000000D03*
D11*
X18070000Y-19350000D03*
D12*
X20610000Y-19350000D03*
X23150000Y-19350000D03*
X25690000Y-19350000D03*
D16*
X25900000Y-21825000D03*
X25900000Y-22475000D03*
X25900000Y-23125000D03*
X25900000Y-23775000D03*
X25900000Y-24425000D03*
X25900000Y-25075000D03*
D17*
X25200000Y-25775000D03*
X24550000Y-25775000D03*
X23900000Y-25775000D03*
X23250000Y-25775000D03*
X22600000Y-25775000D03*
X21950000Y-25775000D03*
D16*
X21250000Y-25075000D03*
X21250000Y-24425000D03*
X21250000Y-23775000D03*
X21250000Y-23125000D03*
X21250000Y-22475000D03*
X21250000Y-21825000D03*
D17*
X21950000Y-21125000D03*
X22600000Y-21125000D03*
X23250000Y-21125000D03*
X23900000Y-21125000D03*
X24550000Y-21125000D03*
X25200000Y-21125000D03*
D18*
X22775000Y-24250000D03*
X22775000Y-22650000D03*
X24375000Y-24250000D03*
X24375000Y-22650000D03*
M02*
