G04 #@! TF.FileFunction,Soldermask,Top*
%FSLAX46Y46*%
G04 Gerber Fmt 4.6, Leading zero omitted, Abs format (unit mm)*
G04 Created by KiCad (PCBNEW 4.0.7) date 02/05/18 10:05:16*
%MOMM*%
%LPD*%
G01*
G04 APERTURE LIST*
%ADD10C,0.100000*%
G04 APERTURE END LIST*
D10*
G36*
X30625000Y-26775000D02*
X27825000Y-26775000D01*
X27825000Y-22225000D01*
X30625000Y-22225000D01*
X30625000Y-26775000D01*
X30625000Y-26775000D01*
G37*
G36*
X18116889Y-23962463D02*
X18128637Y-23970205D01*
X18142077Y-23974367D01*
X18150001Y-23974999D01*
X25600001Y-23974999D01*
X25600001Y-26225001D01*
X18150001Y-26225001D01*
X18136071Y-26226981D01*
X18123245Y-26232762D01*
X18114885Y-26239887D01*
X18114644Y-26239646D01*
X18103395Y-26231196D01*
X18096595Y-26228621D01*
X18092238Y-26218955D01*
X18085354Y-26210356D01*
X17099999Y-25225001D01*
X17099999Y-23974999D01*
X18079289Y-23974999D01*
X18093219Y-23973019D01*
X18106045Y-23967238D01*
X18114644Y-23960354D01*
X18114886Y-23960112D01*
X18116889Y-23962463D01*
X18116889Y-23962463D01*
G37*
G36*
X25600001Y-23725001D02*
X18099999Y-23725001D01*
X18099999Y-21974999D01*
X25600001Y-21974999D01*
X25600001Y-23725001D01*
X25600001Y-23725001D01*
G37*
G36*
X25600001Y-21725001D02*
X18099999Y-21725001D01*
X18099999Y-19974999D01*
X25600001Y-19974999D01*
X25600001Y-21725001D01*
X25600001Y-21725001D01*
G37*
G36*
X30625000Y-21175000D02*
X27825000Y-21175000D01*
X27825000Y-16625000D01*
X30625000Y-16625000D01*
X30625000Y-21175000D01*
X30625000Y-21175000D01*
G37*
G36*
X18116889Y-17462463D02*
X18128637Y-17470205D01*
X18142077Y-17474367D01*
X18150001Y-17474999D01*
X25600001Y-17474999D01*
X25600001Y-19725001D01*
X18150001Y-19725001D01*
X18136071Y-19726981D01*
X18123245Y-19732762D01*
X18114885Y-19739887D01*
X18114644Y-19739646D01*
X18103395Y-19731196D01*
X18090237Y-19726214D01*
X18079289Y-19725001D01*
X17099999Y-19725001D01*
X17099999Y-18474999D01*
X18085354Y-17489644D01*
X18093804Y-17478395D01*
X18096379Y-17471595D01*
X18106045Y-17467238D01*
X18114644Y-17460354D01*
X18114886Y-17460112D01*
X18116889Y-17462463D01*
X18116889Y-17462463D01*
G37*
M02*
