G04 #@! TF.FileFunction,Copper,L1,Top,Signal*
%FSLAX46Y46*%
G04 Gerber Fmt 4.6, Leading zero omitted, Abs format (unit mm)*
G04 Created by KiCad (PCBNEW 4.0.7) date 02/05/18 10:05:16*
%MOMM*%
%LPD*%
G01*
G04 APERTURE LIST*
%ADD10C,0.100000*%
%ADD11R,7.500000X2.250000*%
%ADD12R,7.500000X1.750000*%
%ADD13R,1.000000X1.000000*%
%ADD14C,0.600000*%
%ADD15C,0.400000*%
%ADD16C,0.152400*%
%ADD17C,0.500000*%
%ADD18C,0.600000*%
%ADD19C,0.254000*%
G04 APERTURE END LIST*
D10*
D11*
X21850000Y-25100000D03*
X21850000Y-18600000D03*
D12*
X21850000Y-22850000D03*
X21850000Y-20850000D03*
D10*
G36*
X18100000Y-23975000D02*
X18100000Y-26225000D01*
X17100000Y-25225000D01*
X17100000Y-24975000D01*
X18100000Y-23975000D01*
X18100000Y-23975000D01*
G37*
G36*
X18100000Y-17475000D02*
X18100000Y-19725000D01*
X17100000Y-18725000D01*
X17100000Y-18475000D01*
X18100000Y-17475000D01*
X18100000Y-17475000D01*
G37*
D13*
X17600000Y-24475000D03*
X17600000Y-19225000D03*
D14*
X17647598Y-23450000D03*
X23638683Y-18413683D03*
X18225000Y-18425000D03*
X26057713Y-17613319D03*
X26600000Y-24550000D03*
X26750000Y-20621400D03*
X27050000Y-18250000D03*
X26397598Y-24000000D03*
X27301223Y-20301223D03*
X18625000Y-25200000D03*
X18136379Y-20305895D03*
X18125000Y-22450000D03*
X29675000Y-21050000D03*
X29650000Y-20450000D03*
X29625000Y-19850000D03*
X29325000Y-25800000D03*
X29425000Y-25200000D03*
X29525000Y-24600000D03*
X29550000Y-18925000D03*
X29450000Y-18325000D03*
X29350000Y-17725000D03*
X29675000Y-22550000D03*
X29650000Y-23150000D03*
X29600000Y-23750000D03*
X26052402Y-19425000D03*
D15*
X17450000Y-23252402D02*
X17450000Y-19200000D01*
D16*
X17450000Y-19200000D02*
X18225000Y-18425000D01*
D17*
X17647598Y-23450000D02*
X17450000Y-23252402D01*
D16*
X17600000Y-18450000D02*
X18200000Y-18450000D01*
X18200000Y-18450000D02*
X18225000Y-18425000D01*
X18225000Y-18425000D02*
X18225000Y-18600000D01*
X18225000Y-18600000D02*
X17600000Y-19225000D01*
X21700000Y-18600000D02*
X21525000Y-18425000D01*
X21525000Y-18425000D02*
X18225000Y-18425000D01*
D18*
X26057713Y-17613319D02*
X26052402Y-17588867D01*
D16*
X27050000Y-18250000D02*
X26694394Y-18250000D01*
X26694394Y-18250000D02*
X26057713Y-17613319D01*
X26397598Y-24000000D02*
X26397598Y-24347598D01*
X26397598Y-24347598D02*
X26600000Y-24550000D01*
D18*
X26550000Y-21052446D02*
X26750000Y-20621400D01*
D16*
X27301223Y-20301223D02*
X27070177Y-20301223D01*
X27070177Y-20301223D02*
X26750000Y-20621400D01*
D18*
X26500000Y-24000000D02*
X26550000Y-23950000D01*
X26550000Y-23950000D02*
X26550000Y-23423334D01*
D16*
X26397598Y-24000000D02*
X26500000Y-24000000D01*
D18*
X26550000Y-23150000D02*
X26550000Y-21052446D01*
X26550000Y-23423334D02*
X26550000Y-23150000D01*
D16*
X17775000Y-25200000D02*
X22025000Y-25200000D01*
X17775000Y-24425000D02*
X17775000Y-25200000D01*
X17800000Y-24000000D02*
X17800000Y-25175000D01*
X17800000Y-25175000D02*
X17775000Y-25200000D01*
X18136379Y-20305895D02*
X21305895Y-20305895D01*
X21305895Y-20305895D02*
X21850000Y-20850000D01*
D18*
X18125000Y-22450000D02*
X21675000Y-22450000D01*
X21675000Y-22450000D02*
X22025000Y-22800000D01*
D16*
X29625000Y-19850000D02*
X29625000Y-20400000D01*
X29625000Y-20400000D02*
X29675000Y-20450000D01*
X29425000Y-25200000D02*
X29425000Y-25700000D01*
X29425000Y-25700000D02*
X29325000Y-25800000D01*
X29525000Y-24600000D02*
X29525000Y-25200000D01*
X29525000Y-25200000D02*
X29425000Y-25300000D01*
X29650000Y-23750000D02*
X27497567Y-23750000D01*
X27497567Y-23750000D02*
X27300000Y-23947567D01*
X27300000Y-23947567D02*
X27300000Y-24650000D01*
X27300000Y-24650000D02*
X26850000Y-25100000D01*
X26850000Y-25100000D02*
X26350000Y-25100000D01*
X26350000Y-25100000D02*
X25828601Y-24578601D01*
X25828601Y-20073065D02*
X26052402Y-19849264D01*
X25828601Y-24578601D02*
X25828601Y-20073065D01*
X26052402Y-19849264D02*
X26052402Y-19425000D01*
X29700000Y-23150000D02*
X29700000Y-22550000D01*
D19*
G36*
X29440528Y-17277637D02*
X29458154Y-17339329D01*
X29477538Y-17416865D01*
X29495059Y-17486951D01*
X29503930Y-17566786D01*
X29506435Y-17574687D01*
X29506620Y-17582973D01*
X29526619Y-17672973D01*
X29527439Y-17674834D01*
X29527538Y-17676865D01*
X29546663Y-17753365D01*
X29565952Y-17849809D01*
X29566583Y-17851329D01*
X29566620Y-17852973D01*
X29584655Y-17934134D01*
X29593754Y-18025125D01*
X29595944Y-18032306D01*
X29595952Y-18039810D01*
X29615952Y-18139809D01*
X29615952Y-18139810D01*
X29634493Y-18232513D01*
X29643754Y-18325125D01*
X29645554Y-18331026D01*
X29645452Y-18337191D01*
X29664360Y-18441183D01*
X29673754Y-18535125D01*
X29675554Y-18541026D01*
X29675452Y-18547191D01*
X29694238Y-18650511D01*
X29703575Y-18753223D01*
X29713525Y-18872623D01*
X29715574Y-18879764D01*
X29715452Y-18887191D01*
X29734136Y-18989950D01*
X29743525Y-19102623D01*
X29749390Y-19173000D01*
X27402000Y-19173000D01*
X27402000Y-18717295D01*
X27540905Y-18578632D01*
X27629299Y-18365755D01*
X27629500Y-18135256D01*
X27541478Y-17922225D01*
X27402000Y-17782504D01*
X27402000Y-17252000D01*
X29430914Y-17252000D01*
X29440528Y-17277637D01*
X29440528Y-17277637D01*
G37*
X29440528Y-17277637D02*
X29458154Y-17339329D01*
X29477538Y-17416865D01*
X29495059Y-17486951D01*
X29503930Y-17566786D01*
X29506435Y-17574687D01*
X29506620Y-17582973D01*
X29526619Y-17672973D01*
X29527439Y-17674834D01*
X29527538Y-17676865D01*
X29546663Y-17753365D01*
X29565952Y-17849809D01*
X29566583Y-17851329D01*
X29566620Y-17852973D01*
X29584655Y-17934134D01*
X29593754Y-18025125D01*
X29595944Y-18032306D01*
X29595952Y-18039810D01*
X29615952Y-18139809D01*
X29615952Y-18139810D01*
X29634493Y-18232513D01*
X29643754Y-18325125D01*
X29645554Y-18331026D01*
X29645452Y-18337191D01*
X29664360Y-18441183D01*
X29673754Y-18535125D01*
X29675554Y-18541026D01*
X29675452Y-18547191D01*
X29694238Y-18650511D01*
X29703575Y-18753223D01*
X29713525Y-18872623D01*
X29715574Y-18879764D01*
X29715452Y-18887191D01*
X29734136Y-18989950D01*
X29743525Y-19102623D01*
X29749390Y-19173000D01*
X27402000Y-19173000D01*
X27402000Y-18717295D01*
X27540905Y-18578632D01*
X27629299Y-18365755D01*
X27629500Y-18135256D01*
X27541478Y-17922225D01*
X27402000Y-17782504D01*
X27402000Y-17252000D01*
X29430914Y-17252000D01*
X29440528Y-17277637D01*
G36*
X29793448Y-19711658D02*
X29793581Y-19712132D01*
X29793525Y-19712623D01*
X29803489Y-19832191D01*
X29813448Y-19961658D01*
X29813581Y-19962132D01*
X29813525Y-19962623D01*
X29823489Y-20082191D01*
X29833000Y-20205834D01*
X29833000Y-20330000D01*
X29834152Y-20335794D01*
X29833448Y-20341658D01*
X29853000Y-20595834D01*
X29853000Y-20730000D01*
X29854152Y-20735794D01*
X29853448Y-20741658D01*
X29863000Y-20865834D01*
X29863000Y-21130000D01*
X29864152Y-21135794D01*
X29863448Y-21141658D01*
X29873000Y-21265834D01*
X29873000Y-21423000D01*
X29457000Y-21423000D01*
X29457000Y-20950000D01*
X29454464Y-20937250D01*
X29454464Y-20924248D01*
X29408792Y-20694638D01*
X29389082Y-20647055D01*
X29259018Y-20452401D01*
X29243922Y-20437305D01*
X29222600Y-20415982D01*
X29027945Y-20285918D01*
X29020355Y-20282774D01*
X28980362Y-20266208D01*
X28750752Y-20220536D01*
X28725000Y-20220537D01*
X28699248Y-20220536D01*
X28469638Y-20266208D01*
X28422055Y-20285918D01*
X28227401Y-20415982D01*
X28190982Y-20452400D01*
X28060918Y-20647055D01*
X28041208Y-20694638D01*
X28012743Y-20837743D01*
X27773967Y-20885238D01*
X27726384Y-20904948D01*
X27450624Y-21089205D01*
X27414205Y-21125624D01*
X27402000Y-21143890D01*
X27402000Y-20880711D01*
X27415967Y-20880723D01*
X27628998Y-20792701D01*
X27792128Y-20629855D01*
X27880522Y-20416978D01*
X27880723Y-20186479D01*
X27792701Y-19973448D01*
X27629855Y-19810318D01*
X27416978Y-19721924D01*
X27402000Y-19721911D01*
X27402000Y-19677000D01*
X29790782Y-19677000D01*
X29793448Y-19711658D01*
X29793448Y-19711658D01*
G37*
X29793448Y-19711658D02*
X29793581Y-19712132D01*
X29793525Y-19712623D01*
X29803489Y-19832191D01*
X29813448Y-19961658D01*
X29813581Y-19962132D01*
X29813525Y-19962623D01*
X29823489Y-20082191D01*
X29833000Y-20205834D01*
X29833000Y-20330000D01*
X29834152Y-20335794D01*
X29833448Y-20341658D01*
X29853000Y-20595834D01*
X29853000Y-20730000D01*
X29854152Y-20735794D01*
X29853448Y-20741658D01*
X29863000Y-20865834D01*
X29863000Y-21130000D01*
X29864152Y-21135794D01*
X29863448Y-21141658D01*
X29873000Y-21265834D01*
X29873000Y-21423000D01*
X29457000Y-21423000D01*
X29457000Y-20950000D01*
X29454464Y-20937250D01*
X29454464Y-20924248D01*
X29408792Y-20694638D01*
X29389082Y-20647055D01*
X29259018Y-20452401D01*
X29243922Y-20437305D01*
X29222600Y-20415982D01*
X29027945Y-20285918D01*
X29020355Y-20282774D01*
X28980362Y-20266208D01*
X28750752Y-20220536D01*
X28725000Y-20220537D01*
X28699248Y-20220536D01*
X28469638Y-20266208D01*
X28422055Y-20285918D01*
X28227401Y-20415982D01*
X28190982Y-20452400D01*
X28060918Y-20647055D01*
X28041208Y-20694638D01*
X28012743Y-20837743D01*
X27773967Y-20885238D01*
X27726384Y-20904948D01*
X27450624Y-21089205D01*
X27414205Y-21125624D01*
X27402000Y-21143890D01*
X27402000Y-20880711D01*
X27415967Y-20880723D01*
X27628998Y-20792701D01*
X27792128Y-20629855D01*
X27880522Y-20416978D01*
X27880723Y-20186479D01*
X27792701Y-19973448D01*
X27629855Y-19810318D01*
X27416978Y-19721924D01*
X27402000Y-19721911D01*
X27402000Y-19677000D01*
X29790782Y-19677000D01*
X29793448Y-19711658D01*
G36*
X29743525Y-24497377D02*
X29734136Y-24610050D01*
X29715452Y-24712809D01*
X29715574Y-24720236D01*
X29713525Y-24727377D01*
X29703575Y-24846777D01*
X29694238Y-24949489D01*
X29675452Y-25052809D01*
X29675554Y-25058974D01*
X29673754Y-25064875D01*
X29664360Y-25158817D01*
X29645452Y-25262809D01*
X29645554Y-25268974D01*
X29643754Y-25274875D01*
X29634493Y-25367487D01*
X29615952Y-25460190D01*
X29615952Y-25460191D01*
X29595952Y-25560190D01*
X29595944Y-25567694D01*
X29593754Y-25574875D01*
X29584655Y-25665866D01*
X29566620Y-25747027D01*
X29566583Y-25748671D01*
X29565952Y-25750191D01*
X29546663Y-25846635D01*
X29527538Y-25923135D01*
X29527439Y-25925166D01*
X29526619Y-25927027D01*
X29506620Y-26017027D01*
X29506435Y-26025313D01*
X29503930Y-26033214D01*
X29495059Y-26113049D01*
X29477538Y-26183135D01*
X29458154Y-26260671D01*
X29440528Y-26322363D01*
X29430914Y-26348000D01*
X28624743Y-26348000D01*
X28588183Y-26164199D01*
X28587144Y-26161689D01*
X28577019Y-26137246D01*
X28565488Y-26109406D01*
X28565485Y-26109403D01*
X28392069Y-25849869D01*
X28392069Y-25849868D01*
X28350132Y-25807932D01*
X28090597Y-25634515D01*
X28090594Y-25634512D01*
X28055099Y-25619810D01*
X28035801Y-25611816D01*
X28035796Y-25611816D01*
X27729659Y-25550922D01*
X27729654Y-25550920D01*
X27700000Y-25550921D01*
X27670346Y-25550920D01*
X27670340Y-25550922D01*
X27377000Y-25609271D01*
X27377000Y-25075894D01*
X27551447Y-24901447D01*
X27628532Y-24786083D01*
X27655600Y-24650000D01*
X27655600Y-24427000D01*
X29749390Y-24427000D01*
X29743525Y-24497377D01*
X29743525Y-24497377D01*
G37*
X29743525Y-24497377D02*
X29734136Y-24610050D01*
X29715452Y-24712809D01*
X29715574Y-24720236D01*
X29713525Y-24727377D01*
X29703575Y-24846777D01*
X29694238Y-24949489D01*
X29675452Y-25052809D01*
X29675554Y-25058974D01*
X29673754Y-25064875D01*
X29664360Y-25158817D01*
X29645452Y-25262809D01*
X29645554Y-25268974D01*
X29643754Y-25274875D01*
X29634493Y-25367487D01*
X29615952Y-25460190D01*
X29615952Y-25460191D01*
X29595952Y-25560190D01*
X29595944Y-25567694D01*
X29593754Y-25574875D01*
X29584655Y-25665866D01*
X29566620Y-25747027D01*
X29566583Y-25748671D01*
X29565952Y-25750191D01*
X29546663Y-25846635D01*
X29527538Y-25923135D01*
X29527439Y-25925166D01*
X29526619Y-25927027D01*
X29506620Y-26017027D01*
X29506435Y-26025313D01*
X29503930Y-26033214D01*
X29495059Y-26113049D01*
X29477538Y-26183135D01*
X29458154Y-26260671D01*
X29440528Y-26322363D01*
X29430914Y-26348000D01*
X28624743Y-26348000D01*
X28588183Y-26164199D01*
X28587144Y-26161689D01*
X28577019Y-26137246D01*
X28565488Y-26109406D01*
X28565485Y-26109403D01*
X28392069Y-25849869D01*
X28392069Y-25849868D01*
X28350132Y-25807932D01*
X28090597Y-25634515D01*
X28090594Y-25634512D01*
X28055099Y-25619810D01*
X28035801Y-25611816D01*
X28035796Y-25611816D01*
X27729659Y-25550922D01*
X27729654Y-25550920D01*
X27700000Y-25550921D01*
X27670346Y-25550920D01*
X27670340Y-25550922D01*
X27377000Y-25609271D01*
X27377000Y-25075894D01*
X27551447Y-24901447D01*
X27628532Y-24786083D01*
X27655600Y-24650000D01*
X27655600Y-24427000D01*
X29749390Y-24427000D01*
X29743525Y-24497377D01*
G36*
X29873000Y-22334166D02*
X29863448Y-22458342D01*
X29864152Y-22464206D01*
X29863000Y-22470000D01*
X29863000Y-22734166D01*
X29853448Y-22858342D01*
X29854152Y-22864206D01*
X29853000Y-22870000D01*
X29853000Y-23004166D01*
X29833448Y-23258342D01*
X29834152Y-23264206D01*
X29833000Y-23270000D01*
X29833000Y-23394166D01*
X29823489Y-23517809D01*
X29813525Y-23637377D01*
X29813581Y-23637868D01*
X29813448Y-23638342D01*
X29803489Y-23767809D01*
X29793525Y-23887377D01*
X29793581Y-23887868D01*
X29793448Y-23888342D01*
X29790782Y-23923000D01*
X27402000Y-23923000D01*
X27402000Y-22456110D01*
X27414205Y-22474376D01*
X27450624Y-22510795D01*
X27726384Y-22695052D01*
X27773967Y-22714762D01*
X28012743Y-22762257D01*
X28041208Y-22905362D01*
X28055045Y-22938767D01*
X28060918Y-22952945D01*
X28190982Y-23147600D01*
X28220048Y-23176665D01*
X28227401Y-23184018D01*
X28422055Y-23314082D01*
X28469638Y-23333792D01*
X28699248Y-23379464D01*
X28750752Y-23379464D01*
X28980362Y-23333792D01*
X29027945Y-23314082D01*
X29222600Y-23184018D01*
X29259018Y-23147599D01*
X29389082Y-22952945D01*
X29408792Y-22905362D01*
X29454464Y-22675752D01*
X29454464Y-22662750D01*
X29457000Y-22650000D01*
X29457000Y-22177000D01*
X29873000Y-22177000D01*
X29873000Y-22334166D01*
X29873000Y-22334166D01*
G37*
X29873000Y-22334166D02*
X29863448Y-22458342D01*
X29864152Y-22464206D01*
X29863000Y-22470000D01*
X29863000Y-22734166D01*
X29853448Y-22858342D01*
X29854152Y-22864206D01*
X29853000Y-22870000D01*
X29853000Y-23004166D01*
X29833448Y-23258342D01*
X29834152Y-23264206D01*
X29833000Y-23270000D01*
X29833000Y-23394166D01*
X29823489Y-23517809D01*
X29813525Y-23637377D01*
X29813581Y-23637868D01*
X29813448Y-23638342D01*
X29803489Y-23767809D01*
X29793525Y-23887377D01*
X29793581Y-23887868D01*
X29793448Y-23888342D01*
X29790782Y-23923000D01*
X27402000Y-23923000D01*
X27402000Y-22456110D01*
X27414205Y-22474376D01*
X27450624Y-22510795D01*
X27726384Y-22695052D01*
X27773967Y-22714762D01*
X28012743Y-22762257D01*
X28041208Y-22905362D01*
X28055045Y-22938767D01*
X28060918Y-22952945D01*
X28190982Y-23147600D01*
X28220048Y-23176665D01*
X28227401Y-23184018D01*
X28422055Y-23314082D01*
X28469638Y-23333792D01*
X28699248Y-23379464D01*
X28750752Y-23379464D01*
X28980362Y-23333792D01*
X29027945Y-23314082D01*
X29222600Y-23184018D01*
X29259018Y-23147599D01*
X29389082Y-22952945D01*
X29408792Y-22905362D01*
X29454464Y-22675752D01*
X29454464Y-22662750D01*
X29457000Y-22650000D01*
X29457000Y-22177000D01*
X29873000Y-22177000D01*
X29873000Y-22334166D01*
G36*
X27018000Y-19300000D02*
X27035576Y-19393409D01*
X27055630Y-19424574D01*
X27038248Y-19450013D01*
X27018000Y-19550000D01*
X27018000Y-21550000D01*
X27035576Y-21643409D01*
X27038203Y-21647491D01*
X27018034Y-21748887D01*
X27018034Y-21851113D01*
X27037975Y-21951363D01*
X27018000Y-22050000D01*
X27018000Y-23741845D01*
X26971468Y-23811484D01*
X26948054Y-23929199D01*
X26944400Y-23947567D01*
X26944400Y-24502706D01*
X26702706Y-24744400D01*
X26497294Y-24744400D01*
X26184201Y-24431307D01*
X26184201Y-20220359D01*
X26303849Y-20100711D01*
X26322322Y-20073065D01*
X26380934Y-19985346D01*
X26398214Y-19898472D01*
X26543307Y-19753632D01*
X26631701Y-19540755D01*
X26631902Y-19310256D01*
X26543880Y-19097225D01*
X26381034Y-18934095D01*
X26168157Y-18845701D01*
X25937658Y-18845500D01*
X25884873Y-18867310D01*
X25884873Y-17475000D01*
X25867374Y-17382000D01*
X27018000Y-17382000D01*
X27018000Y-19300000D01*
X27018000Y-19300000D01*
G37*
X27018000Y-19300000D02*
X27035576Y-19393409D01*
X27055630Y-19424574D01*
X27038248Y-19450013D01*
X27018000Y-19550000D01*
X27018000Y-21550000D01*
X27035576Y-21643409D01*
X27038203Y-21647491D01*
X27018034Y-21748887D01*
X27018034Y-21851113D01*
X27037975Y-21951363D01*
X27018000Y-22050000D01*
X27018000Y-23741845D01*
X26971468Y-23811484D01*
X26948054Y-23929199D01*
X26944400Y-23947567D01*
X26944400Y-24502706D01*
X26702706Y-24744400D01*
X26497294Y-24744400D01*
X26184201Y-24431307D01*
X26184201Y-20220359D01*
X26303849Y-20100711D01*
X26322322Y-20073065D01*
X26380934Y-19985346D01*
X26398214Y-19898472D01*
X26543307Y-19753632D01*
X26631701Y-19540755D01*
X26631902Y-19310256D01*
X26543880Y-19097225D01*
X26381034Y-18934095D01*
X26168157Y-18845701D01*
X25937658Y-18845500D01*
X25884873Y-18867310D01*
X25884873Y-17475000D01*
X25867374Y-17382000D01*
X27018000Y-17382000D01*
X27018000Y-19300000D01*
M02*
