G04 #@! TF.FileFunction,Copper,L2,Bot,Signal*
%FSLAX46Y46*%
G04 Gerber Fmt 4.6, Leading zero omitted, Abs format (unit mm)*
G04 Created by KiCad (PCBNEW 4.0.7) date 02/05/18 10:05:16*
%MOMM*%
%LPD*%
G01*
G04 APERTURE LIST*
%ADD10C,0.100000*%
%ADD11R,1.200000X1.200000*%
%ADD12O,1.200000X1.200000*%
%ADD13R,0.400000X0.600000*%
%ADD14R,0.600000X0.500000*%
%ADD15R,0.750000X0.300000*%
%ADD16R,0.300000X0.750000*%
%ADD17R,1.600000X1.600000*%
%ADD18C,0.600000*%
%ADD19C,0.152400*%
%ADD20C,0.400000*%
%ADD21C,0.500000*%
%ADD22C,0.304800*%
%ADD23C,0.200000*%
%ADD24C,0.254000*%
G04 APERTURE END LIST*
D10*
D11*
X17975000Y-17900000D03*
D12*
X20675000Y-18200000D03*
X22575000Y-18200000D03*
D11*
X20275000Y-25400000D03*
D12*
X21875000Y-25300000D03*
X23475000Y-25300000D03*
D13*
X27950000Y-23750000D03*
X27050000Y-23750000D03*
X27950000Y-18250000D03*
X27050000Y-18250000D03*
D14*
X18800000Y-24250000D03*
X19900000Y-24250000D03*
X19900000Y-21850000D03*
X18800000Y-21850000D03*
X19900000Y-23050000D03*
X18800000Y-23050000D03*
D13*
X27950000Y-25050000D03*
X27050000Y-25050000D03*
X27050000Y-19550000D03*
X27950000Y-19550000D03*
X19075000Y-20600000D03*
X19975000Y-20600000D03*
X19075000Y-19300000D03*
X19975000Y-19300000D03*
D15*
X25925000Y-20125000D03*
X25925000Y-20775000D03*
X25925000Y-21425000D03*
X25925000Y-22075000D03*
X25925000Y-22725000D03*
X25925000Y-23375000D03*
D16*
X25225000Y-24075000D03*
X24575000Y-24075000D03*
X23925000Y-24075000D03*
X23275000Y-24075000D03*
X22625000Y-24075000D03*
X21975000Y-24075000D03*
D15*
X21275000Y-23375000D03*
X21275000Y-22725000D03*
X21275000Y-22075000D03*
X21275000Y-21425000D03*
X21275000Y-20775000D03*
X21275000Y-20125000D03*
D16*
X21975000Y-19425000D03*
X22625000Y-19425000D03*
X23275000Y-19425000D03*
X23925000Y-19425000D03*
X24575000Y-19425000D03*
X25225000Y-19425000D03*
D17*
X22800000Y-22550000D03*
X22800000Y-20950000D03*
X24400000Y-22550000D03*
X24400000Y-20950000D03*
D12*
X25525000Y-24800000D03*
X18186000Y-25605000D03*
X25100000Y-17800000D03*
D18*
X17647598Y-23450000D03*
X23638683Y-18413683D03*
X18225000Y-18425000D03*
X26057713Y-17613319D03*
X26600000Y-24550000D03*
X26750000Y-20621400D03*
X27050000Y-18250000D03*
X26397598Y-24000000D03*
X27301223Y-20301223D03*
X18625000Y-25200000D03*
X18136379Y-20305895D03*
X18125000Y-22450000D03*
X29675000Y-21050000D03*
X29650000Y-20450000D03*
X29625000Y-19850000D03*
X29325000Y-25800000D03*
X29425000Y-25200000D03*
X29525000Y-24600000D03*
X29550000Y-18925000D03*
X29450000Y-18325000D03*
X29350000Y-17725000D03*
X29675000Y-22550000D03*
X29650000Y-23150000D03*
X29600000Y-23750000D03*
X26052402Y-19425000D03*
D19*
X18800000Y-23050000D02*
X18047598Y-23050000D01*
X18047598Y-23050000D02*
X17647598Y-23450000D01*
D20*
X23275000Y-18900000D02*
X23600000Y-18575000D01*
D19*
X23638683Y-18413683D02*
X23275000Y-18777366D01*
X23275000Y-18777366D02*
X23275000Y-19425000D01*
D20*
X23600000Y-18575000D02*
X23600000Y-18452366D01*
D19*
X23600000Y-18452366D02*
X23638683Y-18413683D01*
X17925001Y-18724999D02*
X18225000Y-18425000D01*
X17925001Y-18724999D02*
X17925001Y-18924999D01*
X17975000Y-17900000D02*
X17975000Y-18175000D01*
X17975000Y-18175000D02*
X18225000Y-18425000D01*
D20*
X23275000Y-18900000D02*
X23275000Y-19425000D01*
D21*
X23275000Y-19425000D02*
X23275000Y-20475000D01*
D19*
X23275000Y-20475000D02*
X22800000Y-20950000D01*
X24400000Y-22550000D02*
X22800000Y-22550000D01*
X22800000Y-20950000D02*
X24400000Y-20950000D01*
X18725000Y-21850000D02*
X18725000Y-23050000D01*
X18725000Y-23050000D02*
X17425000Y-23050000D01*
X24400000Y-20950000D02*
X24400000Y-22550000D01*
X23255000Y-20495000D02*
X22800000Y-20950000D01*
X23925000Y-19425000D02*
X23925000Y-19116534D01*
X23925000Y-19116534D02*
X25428215Y-17613319D01*
X25428215Y-17613319D02*
X25633449Y-17613319D01*
X25633449Y-17613319D02*
X26057713Y-17613319D01*
X27050000Y-18250000D02*
X27402400Y-18250000D01*
X27402400Y-18250000D02*
X27478601Y-18326201D01*
X27478601Y-18326201D02*
X27478601Y-20123845D01*
X27478601Y-20123845D02*
X27301223Y-20301223D01*
X27050000Y-18250000D02*
X27050000Y-18350000D01*
X27050000Y-25050000D02*
X27050000Y-24652402D01*
X27050000Y-24652402D02*
X26397598Y-24000000D01*
X21478601Y-24471399D02*
X21307202Y-24300000D01*
X21975000Y-24175000D02*
X21678601Y-24471399D01*
X21678601Y-24471399D02*
X21478601Y-24471399D01*
X21975000Y-24075000D02*
X21975000Y-24175000D01*
X21750000Y-24150000D02*
X21750000Y-24350000D01*
X21975000Y-24125000D02*
X21975000Y-24075000D01*
X21750000Y-24350000D02*
X21975000Y-24125000D01*
X23950000Y-24550000D02*
X23950000Y-24100000D01*
X23950000Y-24100000D02*
X23925000Y-24075000D01*
X24175000Y-24550000D02*
X23950000Y-24550000D01*
X24303601Y-24678601D02*
X24175000Y-24550000D01*
X24303601Y-24678601D02*
X24303601Y-24896399D01*
D20*
X23925000Y-19425000D02*
X23925000Y-19050000D01*
D19*
X19900000Y-21850000D02*
X19535000Y-21485000D01*
X19535000Y-21485000D02*
X19535000Y-18310000D01*
X21295000Y-24070000D02*
X21295000Y-23395000D01*
X21295000Y-23395000D02*
X21275000Y-23375000D01*
X21970000Y-24070000D02*
X21975000Y-24075000D01*
X21295000Y-24070000D02*
X21970000Y-24070000D01*
X20700000Y-21425000D02*
X21275000Y-21425000D01*
X19825000Y-21850000D02*
X20275000Y-21850000D01*
X20275000Y-21850000D02*
X20700000Y-21425000D01*
X23925000Y-24198400D02*
X23925000Y-24075000D01*
X21295000Y-24390000D02*
X21295000Y-24070000D01*
X19371399Y-23528601D02*
X19371399Y-24653601D01*
D22*
X21275000Y-22075000D02*
X20875000Y-22075000D01*
D20*
X20875000Y-22075000D02*
X19900000Y-23050000D01*
D19*
X17925000Y-25500000D02*
X18325000Y-25500000D01*
X18325000Y-25500000D02*
X18625000Y-25200000D01*
D23*
X18625000Y-25200000D02*
X18803601Y-25021399D01*
X18803601Y-25021399D02*
X19003601Y-25021399D01*
X19003601Y-25021399D02*
X19371399Y-24653601D01*
D19*
X19371399Y-23528601D02*
X19850000Y-23050000D01*
X19850000Y-23050000D02*
X19900000Y-23050000D01*
X21275000Y-22075000D02*
X21000000Y-22075000D01*
X20025000Y-23050000D02*
X19825000Y-23050000D01*
X19825000Y-23050000D02*
X19775000Y-23050000D01*
X19925000Y-23200000D02*
X19875000Y-23200000D01*
X27950000Y-18250000D02*
X27950000Y-19550000D01*
X27950000Y-25275000D02*
X27950000Y-23975000D01*
X22625000Y-19425000D02*
X22625000Y-18050000D01*
X22625000Y-18050000D02*
X22775000Y-17900000D01*
X20375000Y-17900000D02*
X21900000Y-19425000D01*
X21900000Y-19425000D02*
X21975000Y-19425000D01*
X19075000Y-19300000D02*
X19075000Y-19367274D01*
X19075000Y-19367274D02*
X18136379Y-20305895D01*
X19075000Y-19300000D02*
X19075000Y-19509220D01*
X18125000Y-22450000D02*
X18125000Y-21197600D01*
X18125000Y-21197600D02*
X18722600Y-20600000D01*
X18722600Y-20600000D02*
X19075000Y-20600000D01*
X20100000Y-23975000D02*
X19825000Y-24250000D01*
X20650000Y-23063518D02*
X20650000Y-23425000D01*
X20650000Y-23425000D02*
X20100000Y-23975000D01*
X21275000Y-22725000D02*
X20988518Y-22725000D01*
X20988518Y-22725000D02*
X20650000Y-23063518D01*
X25925000Y-20125000D02*
X26475000Y-20125000D01*
X26475000Y-20125000D02*
X27050000Y-19550000D01*
X26150000Y-20125000D02*
X25925000Y-20125000D01*
X27200000Y-23975000D02*
X27200000Y-23522600D01*
X27200000Y-23522600D02*
X26402400Y-22725000D01*
X26402400Y-22725000D02*
X25925000Y-22725000D01*
X25925000Y-22725000D02*
X26375000Y-22725000D01*
X21275000Y-20125000D02*
X20700000Y-20125000D01*
X20700000Y-20125000D02*
X19975000Y-19400000D01*
X19975000Y-19400000D02*
X19975000Y-19300000D01*
X21275000Y-20125000D02*
X20950000Y-20125000D01*
X21275000Y-20775000D02*
X20150000Y-20775000D01*
X20150000Y-20775000D02*
X19975000Y-20600000D01*
X26750000Y-21425000D02*
X26925000Y-21425000D01*
X25925000Y-21425000D02*
X26750000Y-21425000D01*
X28200000Y-20149999D02*
X28475001Y-20149999D01*
X27900000Y-20450000D02*
X27900000Y-20449999D01*
X27900000Y-20449999D02*
X28200000Y-20149999D01*
X26925000Y-21425000D02*
X27900000Y-20450000D01*
X28475001Y-20149999D02*
X28775000Y-19850000D01*
X29675000Y-20450000D02*
X29675000Y-21000000D01*
X29675000Y-21000000D02*
X29725000Y-21050000D01*
X28775000Y-19850000D02*
X29625000Y-19850000D01*
X26550000Y-22441534D02*
X27400000Y-23221399D01*
X28311482Y-23200000D02*
X27591534Y-23200000D01*
X27591534Y-23200000D02*
X27570135Y-23221399D01*
X27570135Y-23221399D02*
X27432881Y-23221399D01*
X27432881Y-23221399D02*
X27400000Y-23221399D01*
X28775000Y-24600000D02*
X28475001Y-24300001D01*
X28475001Y-24300001D02*
X28475001Y-23363519D01*
X28475001Y-23363519D02*
X28311482Y-23200000D01*
X25925000Y-22075000D02*
X26211482Y-22075000D01*
X26211482Y-22075000D02*
X26550000Y-22413518D01*
X26550000Y-22413518D02*
X26550000Y-22441534D01*
X29325000Y-25800000D02*
X29325000Y-26250000D01*
X29325000Y-26250000D02*
X29175000Y-26400000D01*
X29525000Y-24600000D02*
X29525000Y-25100000D01*
X29525000Y-25100000D02*
X29425000Y-25200000D01*
X29425000Y-25300000D02*
X29425000Y-25850000D01*
X29425000Y-25850000D02*
X29275000Y-26000000D01*
X28775000Y-24600000D02*
X29525000Y-24600000D01*
X29350000Y-17725000D02*
X29050001Y-17425001D01*
X29050001Y-17425001D02*
X26924999Y-17425001D01*
X26924999Y-17425001D02*
X26586314Y-17763686D01*
X26586314Y-17763686D02*
X26586314Y-17867048D01*
X24772600Y-18700000D02*
X24575000Y-18897600D01*
X26586314Y-17867048D02*
X25753362Y-18700000D01*
X25753362Y-18700000D02*
X24772600Y-18700000D01*
X24575000Y-18897600D02*
X24575000Y-19425000D01*
X24575000Y-19200000D02*
X24575000Y-19425000D01*
X24575000Y-19138518D02*
X24575000Y-19425000D01*
X29550000Y-18925000D02*
X28850000Y-18925000D01*
X28850000Y-18925000D02*
X28775000Y-19000000D01*
X29450000Y-18325000D02*
X29450000Y-18825000D01*
X29450000Y-18825000D02*
X29550000Y-18925000D01*
X29350000Y-17725000D02*
X29350000Y-18225000D01*
X29350000Y-18225000D02*
X29450000Y-18325000D01*
X29200000Y-17575000D02*
X29350000Y-17725000D01*
X29650000Y-23750000D02*
X29650000Y-23200000D01*
X29650000Y-23200000D02*
X29700000Y-23150000D01*
X25225000Y-19425000D02*
X26052402Y-19425000D01*
X26150000Y-19425000D02*
X26052402Y-19425000D01*
X22425000Y-24950000D02*
X22225000Y-24950000D01*
X22225000Y-24950000D02*
X21875000Y-25300000D01*
X22625000Y-24750000D02*
X22425000Y-24950000D01*
X22625000Y-24075000D02*
X22625000Y-24750000D01*
X22625000Y-24075000D02*
X22625000Y-24400000D01*
X23275000Y-24075000D02*
X23275000Y-25100000D01*
X23275000Y-25100000D02*
X23475000Y-25300000D01*
X25225000Y-24075000D02*
X25225000Y-24800000D01*
X25225000Y-24800000D02*
X25525000Y-25100000D01*
G36*
X19025833Y-18766922D02*
X18875000Y-18766922D01*
X18790286Y-18782862D01*
X18712482Y-18832928D01*
X18660285Y-18909320D01*
X18641922Y-19000000D01*
X18641922Y-19369300D01*
X18233842Y-19777380D01*
X18031695Y-19777203D01*
X17837342Y-19857508D01*
X17688515Y-20006076D01*
X17607871Y-20200289D01*
X17607687Y-20410579D01*
X17687992Y-20604932D01*
X17836560Y-20753759D01*
X18030773Y-20834403D01*
X18057122Y-20834426D01*
X17909474Y-20982074D01*
X17843402Y-21080958D01*
X17820200Y-21197600D01*
X17820200Y-22007366D01*
X17677136Y-22150181D01*
X17596492Y-22344394D01*
X17596308Y-22554684D01*
X17676613Y-22749037D01*
X17825181Y-22897864D01*
X18019394Y-22978508D01*
X18229684Y-22978692D01*
X18424037Y-22898387D01*
X18572864Y-22749819D01*
X18653508Y-22555606D01*
X18653692Y-22345316D01*
X18573387Y-22150963D01*
X18429800Y-22007126D01*
X18429800Y-21323852D01*
X18701353Y-21052299D01*
X18707928Y-21062518D01*
X18784320Y-21114715D01*
X18875000Y-21133078D01*
X19032126Y-21133078D01*
X19041131Y-24519159D01*
X18867491Y-24692799D01*
X18803601Y-24692799D01*
X18788941Y-24695715D01*
X18730606Y-24671492D01*
X18520316Y-24671308D01*
X18325963Y-24751613D01*
X18295563Y-24781960D01*
X18186000Y-24760167D01*
X17868909Y-24823240D01*
X17600091Y-25002858D01*
X17420473Y-25271676D01*
X17357400Y-25588767D01*
X17357400Y-25621233D01*
X17420473Y-25938324D01*
X17600091Y-26207142D01*
X17658845Y-26246400D01*
X17549977Y-26246400D01*
X17432608Y-26223054D01*
X17354283Y-26170718D01*
X17301945Y-26092391D01*
X17278600Y-25975024D01*
X17278600Y-17624976D01*
X17301945Y-17507609D01*
X17354283Y-17429282D01*
X17432608Y-17376946D01*
X17549977Y-17353600D01*
X19022074Y-17353600D01*
X19025833Y-18766922D01*
X19025833Y-18766922D01*
G37*
X19025833Y-18766922D02*
X18875000Y-18766922D01*
X18790286Y-18782862D01*
X18712482Y-18832928D01*
X18660285Y-18909320D01*
X18641922Y-19000000D01*
X18641922Y-19369300D01*
X18233842Y-19777380D01*
X18031695Y-19777203D01*
X17837342Y-19857508D01*
X17688515Y-20006076D01*
X17607871Y-20200289D01*
X17607687Y-20410579D01*
X17687992Y-20604932D01*
X17836560Y-20753759D01*
X18030773Y-20834403D01*
X18057122Y-20834426D01*
X17909474Y-20982074D01*
X17843402Y-21080958D01*
X17820200Y-21197600D01*
X17820200Y-22007366D01*
X17677136Y-22150181D01*
X17596492Y-22344394D01*
X17596308Y-22554684D01*
X17676613Y-22749037D01*
X17825181Y-22897864D01*
X18019394Y-22978508D01*
X18229684Y-22978692D01*
X18424037Y-22898387D01*
X18572864Y-22749819D01*
X18653508Y-22555606D01*
X18653692Y-22345316D01*
X18573387Y-22150963D01*
X18429800Y-22007126D01*
X18429800Y-21323852D01*
X18701353Y-21052299D01*
X18707928Y-21062518D01*
X18784320Y-21114715D01*
X18875000Y-21133078D01*
X19032126Y-21133078D01*
X19041131Y-24519159D01*
X18867491Y-24692799D01*
X18803601Y-24692799D01*
X18788941Y-24695715D01*
X18730606Y-24671492D01*
X18520316Y-24671308D01*
X18325963Y-24751613D01*
X18295563Y-24781960D01*
X18186000Y-24760167D01*
X17868909Y-24823240D01*
X17600091Y-25002858D01*
X17420473Y-25271676D01*
X17357400Y-25588767D01*
X17357400Y-25621233D01*
X17420473Y-25938324D01*
X17600091Y-26207142D01*
X17658845Y-26246400D01*
X17549977Y-26246400D01*
X17432608Y-26223054D01*
X17354283Y-26170718D01*
X17301945Y-26092391D01*
X17278600Y-25975024D01*
X17278600Y-17624976D01*
X17301945Y-17507609D01*
X17354283Y-17429282D01*
X17432608Y-17376946D01*
X17549977Y-17353600D01*
X19022074Y-17353600D01*
X19025833Y-18766922D01*
D24*
G36*
X29440528Y-17277637D02*
X29458154Y-17339329D01*
X29477538Y-17416865D01*
X29495059Y-17486951D01*
X29503930Y-17566786D01*
X29506435Y-17574687D01*
X29506620Y-17582973D01*
X29526619Y-17672973D01*
X29527439Y-17674834D01*
X29527538Y-17676865D01*
X29546663Y-17753365D01*
X29565952Y-17849809D01*
X29566583Y-17851329D01*
X29566620Y-17852973D01*
X29584655Y-17934134D01*
X29593754Y-18025125D01*
X29595944Y-18032306D01*
X29595952Y-18039810D01*
X29615952Y-18139809D01*
X29615952Y-18139810D01*
X29634493Y-18232513D01*
X29643754Y-18325125D01*
X29645554Y-18331026D01*
X29645452Y-18337191D01*
X29664360Y-18441183D01*
X29673754Y-18535125D01*
X29675554Y-18541026D01*
X29675452Y-18547191D01*
X29694238Y-18650511D01*
X29703575Y-18753223D01*
X29713525Y-18872623D01*
X29715574Y-18879764D01*
X29715452Y-18887191D01*
X29734136Y-18989950D01*
X29743525Y-19102623D01*
X29749390Y-19173000D01*
X28420385Y-19173000D01*
X28415391Y-19146461D01*
X28354199Y-19051366D01*
X28305600Y-19018160D01*
X28305600Y-18781891D01*
X28348634Y-18754199D01*
X28412429Y-18660832D01*
X28434873Y-18550000D01*
X28434873Y-17950000D01*
X28415391Y-17846461D01*
X28354199Y-17751366D01*
X28260832Y-17687571D01*
X28152000Y-17665532D01*
X28152000Y-17252000D01*
X29430914Y-17252000D01*
X29440528Y-17277637D01*
X29440528Y-17277637D01*
G37*
X29440528Y-17277637D02*
X29458154Y-17339329D01*
X29477538Y-17416865D01*
X29495059Y-17486951D01*
X29503930Y-17566786D01*
X29506435Y-17574687D01*
X29506620Y-17582973D01*
X29526619Y-17672973D01*
X29527439Y-17674834D01*
X29527538Y-17676865D01*
X29546663Y-17753365D01*
X29565952Y-17849809D01*
X29566583Y-17851329D01*
X29566620Y-17852973D01*
X29584655Y-17934134D01*
X29593754Y-18025125D01*
X29595944Y-18032306D01*
X29595952Y-18039810D01*
X29615952Y-18139809D01*
X29615952Y-18139810D01*
X29634493Y-18232513D01*
X29643754Y-18325125D01*
X29645554Y-18331026D01*
X29645452Y-18337191D01*
X29664360Y-18441183D01*
X29673754Y-18535125D01*
X29675554Y-18541026D01*
X29675452Y-18547191D01*
X29694238Y-18650511D01*
X29703575Y-18753223D01*
X29713525Y-18872623D01*
X29715574Y-18879764D01*
X29715452Y-18887191D01*
X29734136Y-18989950D01*
X29743525Y-19102623D01*
X29749390Y-19173000D01*
X28420385Y-19173000D01*
X28415391Y-19146461D01*
X28354199Y-19051366D01*
X28305600Y-19018160D01*
X28305600Y-18781891D01*
X28348634Y-18754199D01*
X28412429Y-18660832D01*
X28434873Y-18550000D01*
X28434873Y-17950000D01*
X28415391Y-17846461D01*
X28354199Y-17751366D01*
X28260832Y-17687571D01*
X28152000Y-17665532D01*
X28152000Y-17252000D01*
X29430914Y-17252000D01*
X29440528Y-17277637D01*
G36*
X29793448Y-19711658D02*
X29793581Y-19712132D01*
X29793525Y-19712623D01*
X29803489Y-19832191D01*
X29813448Y-19961658D01*
X29813581Y-19962132D01*
X29813525Y-19962623D01*
X29823489Y-20082191D01*
X29833000Y-20205834D01*
X29833000Y-20330000D01*
X29834152Y-20335794D01*
X29833448Y-20341658D01*
X29853000Y-20595834D01*
X29853000Y-20730000D01*
X29854152Y-20735794D01*
X29853448Y-20741658D01*
X29863000Y-20865834D01*
X29863000Y-21130000D01*
X29864152Y-21135794D01*
X29863448Y-21141658D01*
X29873000Y-21265834D01*
X29873000Y-21423000D01*
X29457000Y-21423000D01*
X29457000Y-20950000D01*
X29454464Y-20937250D01*
X29454464Y-20924248D01*
X29408792Y-20694638D01*
X29389082Y-20647055D01*
X29259018Y-20452401D01*
X29243923Y-20437306D01*
X29222600Y-20415982D01*
X29027945Y-20285918D01*
X29020355Y-20282774D01*
X28980362Y-20266208D01*
X28750752Y-20220536D01*
X28725000Y-20220537D01*
X28699248Y-20220536D01*
X28469638Y-20266208D01*
X28422055Y-20285918D01*
X28227401Y-20415982D01*
X28190982Y-20452400D01*
X28060918Y-20647055D01*
X28041208Y-20694638D01*
X28012743Y-20837743D01*
X27777000Y-20884635D01*
X27777000Y-20644957D01*
X27792128Y-20629855D01*
X27880522Y-20416978D01*
X27880723Y-20186479D01*
X27859400Y-20134873D01*
X28150000Y-20134873D01*
X28253539Y-20115391D01*
X28348634Y-20054199D01*
X28412429Y-19960832D01*
X28434873Y-19850000D01*
X28434873Y-19677000D01*
X29790782Y-19677000D01*
X29793448Y-19711658D01*
X29793448Y-19711658D01*
G37*
X29793448Y-19711658D02*
X29793581Y-19712132D01*
X29793525Y-19712623D01*
X29803489Y-19832191D01*
X29813448Y-19961658D01*
X29813581Y-19962132D01*
X29813525Y-19962623D01*
X29823489Y-20082191D01*
X29833000Y-20205834D01*
X29833000Y-20330000D01*
X29834152Y-20335794D01*
X29833448Y-20341658D01*
X29853000Y-20595834D01*
X29853000Y-20730000D01*
X29854152Y-20735794D01*
X29853448Y-20741658D01*
X29863000Y-20865834D01*
X29863000Y-21130000D01*
X29864152Y-21135794D01*
X29863448Y-21141658D01*
X29873000Y-21265834D01*
X29873000Y-21423000D01*
X29457000Y-21423000D01*
X29457000Y-20950000D01*
X29454464Y-20937250D01*
X29454464Y-20924248D01*
X29408792Y-20694638D01*
X29389082Y-20647055D01*
X29259018Y-20452401D01*
X29243923Y-20437306D01*
X29222600Y-20415982D01*
X29027945Y-20285918D01*
X29020355Y-20282774D01*
X28980362Y-20266208D01*
X28750752Y-20220536D01*
X28725000Y-20220537D01*
X28699248Y-20220536D01*
X28469638Y-20266208D01*
X28422055Y-20285918D01*
X28227401Y-20415982D01*
X28190982Y-20452400D01*
X28060918Y-20647055D01*
X28041208Y-20694638D01*
X28012743Y-20837743D01*
X27777000Y-20884635D01*
X27777000Y-20644957D01*
X27792128Y-20629855D01*
X27880522Y-20416978D01*
X27880723Y-20186479D01*
X27859400Y-20134873D01*
X28150000Y-20134873D01*
X28253539Y-20115391D01*
X28348634Y-20054199D01*
X28412429Y-19960832D01*
X28434873Y-19850000D01*
X28434873Y-19677000D01*
X29790782Y-19677000D01*
X29793448Y-19711658D01*
G36*
X29873000Y-22334166D02*
X29863448Y-22458342D01*
X29864152Y-22464206D01*
X29863000Y-22470000D01*
X29863000Y-22734166D01*
X29853448Y-22858342D01*
X29854152Y-22864206D01*
X29853000Y-22870000D01*
X29853000Y-23004166D01*
X29833448Y-23258342D01*
X29834152Y-23264206D01*
X29833000Y-23270000D01*
X29833000Y-23394166D01*
X29823489Y-23517809D01*
X29813525Y-23637377D01*
X29813581Y-23637868D01*
X29813448Y-23638342D01*
X29803489Y-23767809D01*
X29793525Y-23887377D01*
X29793581Y-23887868D01*
X29793448Y-23888342D01*
X29790782Y-23923000D01*
X28830601Y-23923000D01*
X28830601Y-23363581D01*
X28980362Y-23333792D01*
X29027945Y-23314082D01*
X29222600Y-23184018D01*
X29259018Y-23147599D01*
X29389082Y-22952945D01*
X29408792Y-22905362D01*
X29454464Y-22675752D01*
X29454464Y-22662750D01*
X29457000Y-22650000D01*
X29457000Y-22177000D01*
X29873000Y-22177000D01*
X29873000Y-22334166D01*
X29873000Y-22334166D01*
G37*
X29873000Y-22334166D02*
X29863448Y-22458342D01*
X29864152Y-22464206D01*
X29863000Y-22470000D01*
X29863000Y-22734166D01*
X29853448Y-22858342D01*
X29854152Y-22864206D01*
X29853000Y-22870000D01*
X29853000Y-23004166D01*
X29833448Y-23258342D01*
X29834152Y-23264206D01*
X29833000Y-23270000D01*
X29833000Y-23394166D01*
X29823489Y-23517809D01*
X29813525Y-23637377D01*
X29813581Y-23637868D01*
X29813448Y-23638342D01*
X29803489Y-23767809D01*
X29793525Y-23887377D01*
X29793581Y-23887868D01*
X29793448Y-23888342D01*
X29790782Y-23923000D01*
X28830601Y-23923000D01*
X28830601Y-23363581D01*
X28980362Y-23333792D01*
X29027945Y-23314082D01*
X29222600Y-23184018D01*
X29259018Y-23147599D01*
X29389082Y-22952945D01*
X29408792Y-22905362D01*
X29454464Y-22675752D01*
X29454464Y-22662750D01*
X29457000Y-22650000D01*
X29457000Y-22177000D01*
X29873000Y-22177000D01*
X29873000Y-22334166D01*
G36*
X29743525Y-24497377D02*
X29734136Y-24610050D01*
X29715452Y-24712809D01*
X29715574Y-24720236D01*
X29713525Y-24727377D01*
X29703575Y-24846777D01*
X29694238Y-24949489D01*
X29675452Y-25052809D01*
X29675554Y-25058974D01*
X29673754Y-25064875D01*
X29664360Y-25158817D01*
X29645452Y-25262809D01*
X29645554Y-25268974D01*
X29643754Y-25274875D01*
X29634493Y-25367487D01*
X29615952Y-25460190D01*
X29615952Y-25460191D01*
X29595952Y-25560190D01*
X29595944Y-25567694D01*
X29593754Y-25574875D01*
X29584655Y-25665866D01*
X29566620Y-25747027D01*
X29566583Y-25748671D01*
X29565952Y-25750191D01*
X29546663Y-25846635D01*
X29527538Y-25923135D01*
X29527439Y-25925166D01*
X29526619Y-25927027D01*
X29506620Y-26017027D01*
X29506435Y-26025313D01*
X29503930Y-26033214D01*
X29495059Y-26113049D01*
X29477538Y-26183135D01*
X29458154Y-26260671D01*
X29440528Y-26322363D01*
X29430914Y-26348000D01*
X28624743Y-26348000D01*
X28588183Y-26164199D01*
X28587144Y-26161689D01*
X28577019Y-26137246D01*
X28565488Y-26109406D01*
X28565485Y-26109403D01*
X28392069Y-25849869D01*
X28392069Y-25849868D01*
X28350132Y-25807932D01*
X28177000Y-25692248D01*
X28177000Y-25629793D01*
X28253539Y-25615391D01*
X28348634Y-25554199D01*
X28412429Y-25460832D01*
X28434873Y-25350000D01*
X28434873Y-24750000D01*
X28415391Y-24646461D01*
X28354199Y-24551366D01*
X28305600Y-24518160D01*
X28305600Y-24427000D01*
X29749390Y-24427000D01*
X29743525Y-24497377D01*
X29743525Y-24497377D01*
G37*
X29743525Y-24497377D02*
X29734136Y-24610050D01*
X29715452Y-24712809D01*
X29715574Y-24720236D01*
X29713525Y-24727377D01*
X29703575Y-24846777D01*
X29694238Y-24949489D01*
X29675452Y-25052809D01*
X29675554Y-25058974D01*
X29673754Y-25064875D01*
X29664360Y-25158817D01*
X29645452Y-25262809D01*
X29645554Y-25268974D01*
X29643754Y-25274875D01*
X29634493Y-25367487D01*
X29615952Y-25460190D01*
X29615952Y-25460191D01*
X29595952Y-25560190D01*
X29595944Y-25567694D01*
X29593754Y-25574875D01*
X29584655Y-25665866D01*
X29566620Y-25747027D01*
X29566583Y-25748671D01*
X29565952Y-25750191D01*
X29546663Y-25846635D01*
X29527538Y-25923135D01*
X29527439Y-25925166D01*
X29526619Y-25927027D01*
X29506620Y-26017027D01*
X29506435Y-26025313D01*
X29503930Y-26033214D01*
X29495059Y-26113049D01*
X29477538Y-26183135D01*
X29458154Y-26260671D01*
X29440528Y-26322363D01*
X29430914Y-26348000D01*
X28624743Y-26348000D01*
X28588183Y-26164199D01*
X28587144Y-26161689D01*
X28577019Y-26137246D01*
X28565488Y-26109406D01*
X28565485Y-26109403D01*
X28392069Y-25849869D01*
X28392069Y-25849868D01*
X28350132Y-25807932D01*
X28177000Y-25692248D01*
X28177000Y-25629793D01*
X28253539Y-25615391D01*
X28348634Y-25554199D01*
X28412429Y-25460832D01*
X28434873Y-25350000D01*
X28434873Y-24750000D01*
X28415391Y-24646461D01*
X28354199Y-24551366D01*
X28305600Y-24518160D01*
X28305600Y-24427000D01*
X29749390Y-24427000D01*
X29743525Y-24497377D01*
D19*
G36*
X21766922Y-23350000D02*
X21782862Y-23434714D01*
X21832928Y-23512518D01*
X21909320Y-23564715D01*
X22000000Y-23583078D01*
X22278216Y-23583078D01*
X22260285Y-23609320D01*
X22241922Y-23700000D01*
X22241922Y-24450000D01*
X22257862Y-24534714D01*
X22288875Y-24582909D01*
X22192091Y-24518240D01*
X21875000Y-24455167D01*
X21557909Y-24518240D01*
X21289091Y-24697858D01*
X21109473Y-24966676D01*
X21046400Y-25283767D01*
X21046400Y-25316233D01*
X21109473Y-25633324D01*
X21289091Y-25902142D01*
X21557909Y-26081760D01*
X21875000Y-26144833D01*
X22192091Y-26081760D01*
X22460909Y-25902142D01*
X22640527Y-25633324D01*
X22675000Y-25460016D01*
X22709473Y-25633324D01*
X22889091Y-25902142D01*
X23157909Y-26081760D01*
X23475000Y-26144833D01*
X23792091Y-26081760D01*
X24060909Y-25902142D01*
X24240527Y-25633324D01*
X24303600Y-25316233D01*
X24303600Y-25283767D01*
X24240527Y-24966676D01*
X24060909Y-24697858D01*
X23792091Y-24518240D01*
X23649983Y-24489973D01*
X23658078Y-24450000D01*
X23658078Y-23700000D01*
X23642138Y-23615286D01*
X23621413Y-23583078D01*
X24228216Y-23583078D01*
X24210285Y-23609320D01*
X24191922Y-23700000D01*
X24191922Y-24450000D01*
X24207862Y-24534714D01*
X24257928Y-24612518D01*
X24334320Y-24664715D01*
X24425000Y-24683078D01*
X24703424Y-24683078D01*
X24680167Y-24800000D01*
X24743240Y-25117091D01*
X24922858Y-25385909D01*
X25191676Y-25565527D01*
X25508767Y-25628600D01*
X25541233Y-25628600D01*
X25858324Y-25565527D01*
X26127142Y-25385909D01*
X26306760Y-25117091D01*
X26369833Y-24800000D01*
X26306760Y-24482909D01*
X26127142Y-24214091D01*
X25858324Y-24034473D01*
X25608078Y-23984696D01*
X25608078Y-23758078D01*
X26300000Y-23758078D01*
X26384714Y-23742138D01*
X26462518Y-23692072D01*
X26514715Y-23615680D01*
X26533078Y-23525000D01*
X26533078Y-23286730D01*
X26630297Y-23383949D01*
X26616922Y-23450000D01*
X26616922Y-24050000D01*
X26632862Y-24134714D01*
X26682928Y-24212518D01*
X26759320Y-24264715D01*
X26850000Y-24283078D01*
X27250000Y-24283078D01*
X27334714Y-24267138D01*
X27412518Y-24217072D01*
X27464715Y-24140680D01*
X27471622Y-24106572D01*
X27481598Y-24091642D01*
X27504800Y-23975000D01*
X27504800Y-23526199D01*
X27516922Y-23526199D01*
X27516922Y-24050000D01*
X27532862Y-24134714D01*
X27582928Y-24212518D01*
X27645200Y-24255067D01*
X27645200Y-24545787D01*
X27587482Y-24582928D01*
X27535285Y-24659320D01*
X27516922Y-24750000D01*
X27516922Y-25350000D01*
X27532862Y-25434714D01*
X27568689Y-25490390D01*
X27348748Y-25534138D01*
X27266029Y-25568402D01*
X27265404Y-25568661D01*
X27005871Y-25742077D01*
X27005867Y-25742079D01*
X26942079Y-25805867D01*
X26768662Y-26065404D01*
X26768660Y-26065406D01*
X26734138Y-26148748D01*
X26710258Y-26268800D01*
X19350586Y-26268800D01*
X19347589Y-25142121D01*
X19603754Y-24885956D01*
X19674986Y-24779351D01*
X19684190Y-24733078D01*
X20200000Y-24733078D01*
X20284714Y-24717138D01*
X20362518Y-24667072D01*
X20414715Y-24590680D01*
X20433078Y-24500000D01*
X20433078Y-24072974D01*
X20865526Y-23640526D01*
X20931598Y-23541642D01*
X20932425Y-23537482D01*
X20954800Y-23425000D01*
X20954800Y-23189770D01*
X21036492Y-23108078D01*
X21650000Y-23108078D01*
X21734714Y-23092138D01*
X21766922Y-23071413D01*
X21766922Y-23350000D01*
X21766922Y-23350000D01*
G37*
X21766922Y-23350000D02*
X21782862Y-23434714D01*
X21832928Y-23512518D01*
X21909320Y-23564715D01*
X22000000Y-23583078D01*
X22278216Y-23583078D01*
X22260285Y-23609320D01*
X22241922Y-23700000D01*
X22241922Y-24450000D01*
X22257862Y-24534714D01*
X22288875Y-24582909D01*
X22192091Y-24518240D01*
X21875000Y-24455167D01*
X21557909Y-24518240D01*
X21289091Y-24697858D01*
X21109473Y-24966676D01*
X21046400Y-25283767D01*
X21046400Y-25316233D01*
X21109473Y-25633324D01*
X21289091Y-25902142D01*
X21557909Y-26081760D01*
X21875000Y-26144833D01*
X22192091Y-26081760D01*
X22460909Y-25902142D01*
X22640527Y-25633324D01*
X22675000Y-25460016D01*
X22709473Y-25633324D01*
X22889091Y-25902142D01*
X23157909Y-26081760D01*
X23475000Y-26144833D01*
X23792091Y-26081760D01*
X24060909Y-25902142D01*
X24240527Y-25633324D01*
X24303600Y-25316233D01*
X24303600Y-25283767D01*
X24240527Y-24966676D01*
X24060909Y-24697858D01*
X23792091Y-24518240D01*
X23649983Y-24489973D01*
X23658078Y-24450000D01*
X23658078Y-23700000D01*
X23642138Y-23615286D01*
X23621413Y-23583078D01*
X24228216Y-23583078D01*
X24210285Y-23609320D01*
X24191922Y-23700000D01*
X24191922Y-24450000D01*
X24207862Y-24534714D01*
X24257928Y-24612518D01*
X24334320Y-24664715D01*
X24425000Y-24683078D01*
X24703424Y-24683078D01*
X24680167Y-24800000D01*
X24743240Y-25117091D01*
X24922858Y-25385909D01*
X25191676Y-25565527D01*
X25508767Y-25628600D01*
X25541233Y-25628600D01*
X25858324Y-25565527D01*
X26127142Y-25385909D01*
X26306760Y-25117091D01*
X26369833Y-24800000D01*
X26306760Y-24482909D01*
X26127142Y-24214091D01*
X25858324Y-24034473D01*
X25608078Y-23984696D01*
X25608078Y-23758078D01*
X26300000Y-23758078D01*
X26384714Y-23742138D01*
X26462518Y-23692072D01*
X26514715Y-23615680D01*
X26533078Y-23525000D01*
X26533078Y-23286730D01*
X26630297Y-23383949D01*
X26616922Y-23450000D01*
X26616922Y-24050000D01*
X26632862Y-24134714D01*
X26682928Y-24212518D01*
X26759320Y-24264715D01*
X26850000Y-24283078D01*
X27250000Y-24283078D01*
X27334714Y-24267138D01*
X27412518Y-24217072D01*
X27464715Y-24140680D01*
X27471622Y-24106572D01*
X27481598Y-24091642D01*
X27504800Y-23975000D01*
X27504800Y-23526199D01*
X27516922Y-23526199D01*
X27516922Y-24050000D01*
X27532862Y-24134714D01*
X27582928Y-24212518D01*
X27645200Y-24255067D01*
X27645200Y-24545787D01*
X27587482Y-24582928D01*
X27535285Y-24659320D01*
X27516922Y-24750000D01*
X27516922Y-25350000D01*
X27532862Y-25434714D01*
X27568689Y-25490390D01*
X27348748Y-25534138D01*
X27266029Y-25568402D01*
X27265404Y-25568661D01*
X27005871Y-25742077D01*
X27005867Y-25742079D01*
X26942079Y-25805867D01*
X26768662Y-26065404D01*
X26768660Y-26065406D01*
X26734138Y-26148748D01*
X26710258Y-26268800D01*
X19350586Y-26268800D01*
X19347589Y-25142121D01*
X19603754Y-24885956D01*
X19674986Y-24779351D01*
X19684190Y-24733078D01*
X20200000Y-24733078D01*
X20284714Y-24717138D01*
X20362518Y-24667072D01*
X20414715Y-24590680D01*
X20433078Y-24500000D01*
X20433078Y-24072974D01*
X20865526Y-23640526D01*
X20931598Y-23541642D01*
X20932425Y-23537482D01*
X20954800Y-23425000D01*
X20954800Y-23189770D01*
X21036492Y-23108078D01*
X21650000Y-23108078D01*
X21734714Y-23092138D01*
X21766922Y-23071413D01*
X21766922Y-23350000D01*
G36*
X26370788Y-17548160D02*
X26304716Y-17647044D01*
X26287198Y-17735112D01*
X25627110Y-18395200D01*
X24772600Y-18395200D01*
X24655958Y-18418402D01*
X24576641Y-18471400D01*
X24557074Y-18484474D01*
X24359474Y-18682074D01*
X24293402Y-18780958D01*
X24274680Y-18875079D01*
X24262482Y-18882928D01*
X24210285Y-18959320D01*
X24191922Y-19050000D01*
X24191922Y-19800000D01*
X24207862Y-19884714D01*
X24228587Y-19916922D01*
X23753600Y-19916922D01*
X23753600Y-19425000D01*
X23717169Y-19241848D01*
X23703600Y-19221541D01*
X23703600Y-19077532D01*
X23903066Y-18878066D01*
X23904614Y-18875749D01*
X23937720Y-18862070D01*
X24086547Y-18713502D01*
X24167191Y-18519289D01*
X24167375Y-18308999D01*
X24087070Y-18114646D01*
X23938502Y-17965819D01*
X23744289Y-17885175D01*
X23533999Y-17884991D01*
X23358587Y-17957470D01*
X23340527Y-17866676D01*
X23160909Y-17597858D01*
X22892091Y-17418240D01*
X22575000Y-17355167D01*
X22257909Y-17418240D01*
X21989091Y-17597858D01*
X21809473Y-17866676D01*
X21746400Y-18183767D01*
X21746400Y-18216233D01*
X21809473Y-18533324D01*
X21989091Y-18802142D01*
X22011211Y-18816922D01*
X21825000Y-18816922D01*
X21740286Y-18832862D01*
X21739451Y-18833399D01*
X21440066Y-18534014D01*
X21440527Y-18533324D01*
X21503600Y-18216233D01*
X21503600Y-18183767D01*
X21440527Y-17866676D01*
X21260909Y-17597858D01*
X20992091Y-17418240D01*
X20675000Y-17355167D01*
X20357909Y-17418240D01*
X20089091Y-17597858D01*
X19909473Y-17866676D01*
X19846400Y-18183767D01*
X19846400Y-18216233D01*
X19909473Y-18533324D01*
X20065558Y-18766922D01*
X19775000Y-18766922D01*
X19690286Y-18782862D01*
X19612482Y-18832928D01*
X19560285Y-18909320D01*
X19541922Y-19000000D01*
X19541922Y-19600000D01*
X19557862Y-19684714D01*
X19607928Y-19762518D01*
X19684320Y-19814715D01*
X19775000Y-19833078D01*
X19977026Y-19833078D01*
X20219978Y-20076030D01*
X20175000Y-20066922D01*
X19775000Y-20066922D01*
X19690286Y-20082862D01*
X19612482Y-20132928D01*
X19560285Y-20209320D01*
X19541922Y-20300000D01*
X19541922Y-20900000D01*
X19557862Y-20984714D01*
X19607928Y-21062518D01*
X19684320Y-21114715D01*
X19775000Y-21133078D01*
X20175000Y-21133078D01*
X20259714Y-21117138D01*
X20317738Y-21079800D01*
X20727962Y-21079800D01*
X20732928Y-21087518D01*
X20809320Y-21139715D01*
X20900000Y-21158078D01*
X21650000Y-21158078D01*
X21734714Y-21142138D01*
X21766922Y-21121413D01*
X21766922Y-21728216D01*
X21740680Y-21710285D01*
X21650000Y-21691922D01*
X21058320Y-21691922D01*
X21039018Y-21679025D01*
X20875000Y-21646400D01*
X20710981Y-21679025D01*
X20571934Y-21771934D01*
X19776946Y-22566922D01*
X19600000Y-22566922D01*
X19515286Y-22582862D01*
X19437482Y-22632928D01*
X19385285Y-22709320D01*
X19366922Y-22800000D01*
X19366922Y-23102026D01*
X19342229Y-23126719D01*
X19336896Y-21121432D01*
X19359714Y-21117138D01*
X19437518Y-21067072D01*
X19489715Y-20990680D01*
X19508078Y-20900000D01*
X19508078Y-20300000D01*
X19492138Y-20215286D01*
X19442072Y-20137482D01*
X19365680Y-20085285D01*
X19334123Y-20078895D01*
X19333440Y-19822082D01*
X19359714Y-19817138D01*
X19437518Y-19767072D01*
X19489715Y-19690680D01*
X19508078Y-19600000D01*
X19508078Y-19000000D01*
X19492138Y-18915286D01*
X19442072Y-18837482D01*
X19365680Y-18785285D01*
X19330664Y-18778194D01*
X19326815Y-17331200D01*
X26587748Y-17331200D01*
X26370788Y-17548160D01*
X26370788Y-17548160D01*
G37*
X26370788Y-17548160D02*
X26304716Y-17647044D01*
X26287198Y-17735112D01*
X25627110Y-18395200D01*
X24772600Y-18395200D01*
X24655958Y-18418402D01*
X24576641Y-18471400D01*
X24557074Y-18484474D01*
X24359474Y-18682074D01*
X24293402Y-18780958D01*
X24274680Y-18875079D01*
X24262482Y-18882928D01*
X24210285Y-18959320D01*
X24191922Y-19050000D01*
X24191922Y-19800000D01*
X24207862Y-19884714D01*
X24228587Y-19916922D01*
X23753600Y-19916922D01*
X23753600Y-19425000D01*
X23717169Y-19241848D01*
X23703600Y-19221541D01*
X23703600Y-19077532D01*
X23903066Y-18878066D01*
X23904614Y-18875749D01*
X23937720Y-18862070D01*
X24086547Y-18713502D01*
X24167191Y-18519289D01*
X24167375Y-18308999D01*
X24087070Y-18114646D01*
X23938502Y-17965819D01*
X23744289Y-17885175D01*
X23533999Y-17884991D01*
X23358587Y-17957470D01*
X23340527Y-17866676D01*
X23160909Y-17597858D01*
X22892091Y-17418240D01*
X22575000Y-17355167D01*
X22257909Y-17418240D01*
X21989091Y-17597858D01*
X21809473Y-17866676D01*
X21746400Y-18183767D01*
X21746400Y-18216233D01*
X21809473Y-18533324D01*
X21989091Y-18802142D01*
X22011211Y-18816922D01*
X21825000Y-18816922D01*
X21740286Y-18832862D01*
X21739451Y-18833399D01*
X21440066Y-18534014D01*
X21440527Y-18533324D01*
X21503600Y-18216233D01*
X21503600Y-18183767D01*
X21440527Y-17866676D01*
X21260909Y-17597858D01*
X20992091Y-17418240D01*
X20675000Y-17355167D01*
X20357909Y-17418240D01*
X20089091Y-17597858D01*
X19909473Y-17866676D01*
X19846400Y-18183767D01*
X19846400Y-18216233D01*
X19909473Y-18533324D01*
X20065558Y-18766922D01*
X19775000Y-18766922D01*
X19690286Y-18782862D01*
X19612482Y-18832928D01*
X19560285Y-18909320D01*
X19541922Y-19000000D01*
X19541922Y-19600000D01*
X19557862Y-19684714D01*
X19607928Y-19762518D01*
X19684320Y-19814715D01*
X19775000Y-19833078D01*
X19977026Y-19833078D01*
X20219978Y-20076030D01*
X20175000Y-20066922D01*
X19775000Y-20066922D01*
X19690286Y-20082862D01*
X19612482Y-20132928D01*
X19560285Y-20209320D01*
X19541922Y-20300000D01*
X19541922Y-20900000D01*
X19557862Y-20984714D01*
X19607928Y-21062518D01*
X19684320Y-21114715D01*
X19775000Y-21133078D01*
X20175000Y-21133078D01*
X20259714Y-21117138D01*
X20317738Y-21079800D01*
X20727962Y-21079800D01*
X20732928Y-21087518D01*
X20809320Y-21139715D01*
X20900000Y-21158078D01*
X21650000Y-21158078D01*
X21734714Y-21142138D01*
X21766922Y-21121413D01*
X21766922Y-21728216D01*
X21740680Y-21710285D01*
X21650000Y-21691922D01*
X21058320Y-21691922D01*
X21039018Y-21679025D01*
X20875000Y-21646400D01*
X20710981Y-21679025D01*
X20571934Y-21771934D01*
X19776946Y-22566922D01*
X19600000Y-22566922D01*
X19515286Y-22582862D01*
X19437482Y-22632928D01*
X19385285Y-22709320D01*
X19366922Y-22800000D01*
X19366922Y-23102026D01*
X19342229Y-23126719D01*
X19336896Y-21121432D01*
X19359714Y-21117138D01*
X19437518Y-21067072D01*
X19489715Y-20990680D01*
X19508078Y-20900000D01*
X19508078Y-20300000D01*
X19492138Y-20215286D01*
X19442072Y-20137482D01*
X19365680Y-20085285D01*
X19334123Y-20078895D01*
X19333440Y-19822082D01*
X19359714Y-19817138D01*
X19437518Y-19767072D01*
X19489715Y-19690680D01*
X19508078Y-19600000D01*
X19508078Y-19000000D01*
X19492138Y-18915286D01*
X19442072Y-18837482D01*
X19365680Y-18785285D01*
X19330664Y-18778194D01*
X19326815Y-17331200D01*
X26587748Y-17331200D01*
X26370788Y-17548160D01*
G36*
X27443800Y-20475148D02*
X26798748Y-21120200D01*
X26472038Y-21120200D01*
X26467072Y-21112482D01*
X26390680Y-21060285D01*
X26300000Y-21041922D01*
X25550000Y-21041922D01*
X25465286Y-21057862D01*
X25433078Y-21078587D01*
X25433078Y-20471784D01*
X25459320Y-20489715D01*
X25550000Y-20508078D01*
X26300000Y-20508078D01*
X26384714Y-20492138D01*
X26462518Y-20442072D01*
X26470903Y-20429800D01*
X26475000Y-20429800D01*
X26591642Y-20406598D01*
X26690526Y-20340526D01*
X26947974Y-20083078D01*
X27250000Y-20083078D01*
X27334714Y-20067138D01*
X27412518Y-20017072D01*
X27443800Y-19971290D01*
X27443800Y-20475148D01*
X27443800Y-20475148D01*
G37*
X27443800Y-20475148D02*
X26798748Y-21120200D01*
X26472038Y-21120200D01*
X26467072Y-21112482D01*
X26390680Y-21060285D01*
X26300000Y-21041922D01*
X25550000Y-21041922D01*
X25465286Y-21057862D01*
X25433078Y-21078587D01*
X25433078Y-20471784D01*
X25459320Y-20489715D01*
X25550000Y-20508078D01*
X26300000Y-20508078D01*
X26384714Y-20492138D01*
X26462518Y-20442072D01*
X26470903Y-20429800D01*
X26475000Y-20429800D01*
X26591642Y-20406598D01*
X26690526Y-20340526D01*
X26947974Y-20083078D01*
X27250000Y-20083078D01*
X27334714Y-20067138D01*
X27412518Y-20017072D01*
X27443800Y-19971290D01*
X27443800Y-20475148D01*
G36*
X27665286Y-17732862D02*
X27587482Y-17782928D01*
X27535285Y-17859320D01*
X27516922Y-17950000D01*
X27516922Y-18550000D01*
X27532862Y-18634714D01*
X27582928Y-18712518D01*
X27645200Y-18755067D01*
X27645200Y-19045787D01*
X27587482Y-19082928D01*
X27535285Y-19159320D01*
X27516922Y-19250000D01*
X27516922Y-19395309D01*
X27506223Y-19402194D01*
X27483078Y-19436068D01*
X27483078Y-19250000D01*
X27467138Y-19165286D01*
X27417072Y-19087482D01*
X27340680Y-19035285D01*
X27250000Y-19016922D01*
X26850000Y-19016922D01*
X26765286Y-19032862D01*
X26687482Y-19082928D01*
X26635285Y-19159320D01*
X26616922Y-19250000D01*
X26616922Y-19552026D01*
X26540128Y-19628820D01*
X26580910Y-19530606D01*
X26581094Y-19320316D01*
X26500789Y-19125963D01*
X26352221Y-18977136D01*
X26158008Y-18896492D01*
X25988071Y-18896343D01*
X26801840Y-18082574D01*
X26867912Y-17983690D01*
X26885430Y-17895622D01*
X27051251Y-17729801D01*
X27681554Y-17729801D01*
X27665286Y-17732862D01*
X27665286Y-17732862D01*
G37*
X27665286Y-17732862D02*
X27587482Y-17782928D01*
X27535285Y-17859320D01*
X27516922Y-17950000D01*
X27516922Y-18550000D01*
X27532862Y-18634714D01*
X27582928Y-18712518D01*
X27645200Y-18755067D01*
X27645200Y-19045787D01*
X27587482Y-19082928D01*
X27535285Y-19159320D01*
X27516922Y-19250000D01*
X27516922Y-19395309D01*
X27506223Y-19402194D01*
X27483078Y-19436068D01*
X27483078Y-19250000D01*
X27467138Y-19165286D01*
X27417072Y-19087482D01*
X27340680Y-19035285D01*
X27250000Y-19016922D01*
X26850000Y-19016922D01*
X26765286Y-19032862D01*
X26687482Y-19082928D01*
X26635285Y-19159320D01*
X26616922Y-19250000D01*
X26616922Y-19552026D01*
X26540128Y-19628820D01*
X26580910Y-19530606D01*
X26581094Y-19320316D01*
X26500789Y-19125963D01*
X26352221Y-18977136D01*
X26158008Y-18896492D01*
X25988071Y-18896343D01*
X26801840Y-18082574D01*
X26867912Y-17983690D01*
X26885430Y-17895622D01*
X27051251Y-17729801D01*
X27681554Y-17729801D01*
X27665286Y-17732862D01*
M02*
