G04 #@! TF.FileFunction,Soldermask,Bot*
%FSLAX46Y46*%
G04 Gerber Fmt 4.6, Leading zero omitted, Abs format (unit mm)*
G04 Created by KiCad (PCBNEW 4.0.7) date 02/05/18 10:05:16*
%MOMM*%
%LPD*%
G01*
G04 APERTURE LIST*
%ADD10C,0.100000*%
G04 APERTURE END LIST*
D10*
G36*
X30650000Y-26775000D02*
X28600000Y-26775000D01*
X28600000Y-22225000D01*
X30650000Y-22225000D01*
X30650000Y-26775000D01*
X30650000Y-26775000D01*
G37*
G36*
X18326706Y-24915904D02*
X18326710Y-24915905D01*
X18326755Y-24915910D01*
X18457261Y-24956309D01*
X18577435Y-25021287D01*
X18682700Y-25108369D01*
X18769045Y-25214239D01*
X18833182Y-25334864D01*
X18872669Y-25465649D01*
X18886000Y-25601613D01*
X18886000Y-25608387D01*
X18885932Y-25618161D01*
X18870703Y-25753925D01*
X18829395Y-25884146D01*
X18763579Y-26003864D01*
X18675764Y-26108518D01*
X18569294Y-26194122D01*
X18448225Y-26257416D01*
X18317167Y-26295988D01*
X18317133Y-26295991D01*
X18317120Y-26295995D01*
X18181116Y-26308373D01*
X18045294Y-26294096D01*
X18045290Y-26294095D01*
X18045245Y-26294090D01*
X17914739Y-26253691D01*
X17794565Y-26188713D01*
X17689300Y-26101631D01*
X17602955Y-25995761D01*
X17538818Y-25875136D01*
X17499331Y-25744351D01*
X17486000Y-25608387D01*
X17486000Y-25601613D01*
X17486068Y-25591839D01*
X17501297Y-25456075D01*
X17542605Y-25325854D01*
X17608421Y-25206136D01*
X17696236Y-25101482D01*
X17802706Y-25015878D01*
X17923775Y-24952584D01*
X18054833Y-24914012D01*
X18054867Y-24914009D01*
X18054880Y-24914005D01*
X18190884Y-24901627D01*
X18326706Y-24915904D01*
X18326706Y-24915904D01*
G37*
G36*
X20300000Y-24650000D02*
X20301980Y-24663930D01*
X20307761Y-24676756D01*
X20316888Y-24687464D01*
X20328636Y-24695206D01*
X20342076Y-24699368D01*
X20350000Y-24700000D01*
X20975000Y-24700000D01*
X20975000Y-26100000D01*
X19575000Y-26100000D01*
X19575000Y-24650000D01*
X19573020Y-24636070D01*
X19567239Y-24623244D01*
X19558112Y-24612536D01*
X19546364Y-24604794D01*
X19532924Y-24600632D01*
X19525000Y-24600000D01*
X19500000Y-24600000D01*
X19500000Y-23900000D01*
X20300000Y-23900000D01*
X20300000Y-24650000D01*
X20300000Y-24650000D01*
G37*
G36*
X23525000Y-24556350D02*
X23526980Y-24570280D01*
X23532761Y-24583106D01*
X23541888Y-24593814D01*
X23553636Y-24601556D01*
X23569774Y-24606076D01*
X23619774Y-24611331D01*
X23633834Y-24610818D01*
X23647195Y-24606409D01*
X23658798Y-24598452D01*
X23667725Y-24587577D01*
X23673269Y-24574646D01*
X23675000Y-24561605D01*
X23675000Y-23600000D01*
X24175000Y-23600000D01*
X24175000Y-24550000D01*
X23749568Y-24550000D01*
X23735638Y-24551980D01*
X23722812Y-24557761D01*
X23712104Y-24566888D01*
X23704362Y-24578636D01*
X23700200Y-24592076D01*
X23699947Y-24606143D01*
X23703623Y-24619724D01*
X23710937Y-24631743D01*
X23721310Y-24641249D01*
X23734736Y-24647742D01*
X23746261Y-24651309D01*
X23866435Y-24716287D01*
X23971700Y-24803369D01*
X24058045Y-24909239D01*
X24122182Y-25029864D01*
X24161669Y-25160649D01*
X24175000Y-25296613D01*
X24175000Y-25303387D01*
X24174932Y-25313161D01*
X24159703Y-25448925D01*
X24118395Y-25579146D01*
X24052579Y-25698864D01*
X23964764Y-25803518D01*
X23858294Y-25889122D01*
X23737225Y-25952416D01*
X23606167Y-25990988D01*
X23606133Y-25990991D01*
X23606120Y-25990995D01*
X23470116Y-26003373D01*
X23334294Y-25989096D01*
X23334290Y-25989095D01*
X23334245Y-25989090D01*
X23203739Y-25948691D01*
X23083565Y-25883713D01*
X22978300Y-25796631D01*
X22891955Y-25690761D01*
X22827818Y-25570136D01*
X22788331Y-25439351D01*
X22775000Y-25303387D01*
X22775000Y-25296613D01*
X22775001Y-25296532D01*
X22775054Y-25288862D01*
X22775068Y-25286839D01*
X22790297Y-25151075D01*
X22831605Y-25020854D01*
X22897421Y-24901136D01*
X22985236Y-24796482D01*
X23091706Y-24710878D01*
X23212775Y-24647584D01*
X23212897Y-24647548D01*
X23216124Y-24645861D01*
X23224306Y-24642134D01*
X23234978Y-24632966D01*
X23242674Y-24621187D01*
X23246784Y-24607731D01*
X23246982Y-24593663D01*
X23243253Y-24580097D01*
X23235892Y-24568106D01*
X23225482Y-24558641D01*
X23212847Y-24552451D01*
X23197385Y-24550000D01*
X23025000Y-24550000D01*
X23025000Y-23600000D01*
X23525000Y-23600000D01*
X23525000Y-24556350D01*
X23525000Y-24556350D01*
G37*
G36*
X21750000Y-23550000D02*
X21751980Y-23563930D01*
X21757761Y-23576756D01*
X21766888Y-23587464D01*
X21778636Y-23595206D01*
X21792076Y-23599368D01*
X21800000Y-23600000D01*
X22225000Y-23600000D01*
X22225000Y-24550000D01*
X22149568Y-24550000D01*
X22135638Y-24551980D01*
X22122812Y-24557761D01*
X22112104Y-24566888D01*
X22104362Y-24578636D01*
X22100200Y-24592076D01*
X22099947Y-24606143D01*
X22103623Y-24619724D01*
X22110937Y-24631743D01*
X22121310Y-24641249D01*
X22134736Y-24647742D01*
X22146261Y-24651309D01*
X22266435Y-24716287D01*
X22371700Y-24803369D01*
X22458045Y-24909239D01*
X22522182Y-25029864D01*
X22561669Y-25160649D01*
X22575000Y-25296613D01*
X22575000Y-25303387D01*
X22574932Y-25313161D01*
X22559703Y-25448925D01*
X22518395Y-25579146D01*
X22452579Y-25698864D01*
X22364764Y-25803518D01*
X22258294Y-25889122D01*
X22137225Y-25952416D01*
X22006167Y-25990988D01*
X22006133Y-25990991D01*
X22006120Y-25990995D01*
X21870116Y-26003373D01*
X21734294Y-25989096D01*
X21734290Y-25989095D01*
X21734245Y-25989090D01*
X21603739Y-25948691D01*
X21483565Y-25883713D01*
X21378300Y-25796631D01*
X21291955Y-25690761D01*
X21227818Y-25570136D01*
X21188331Y-25439351D01*
X21175000Y-25303387D01*
X21175000Y-25296613D01*
X21175001Y-25296532D01*
X21175054Y-25288862D01*
X21175068Y-25286839D01*
X21190297Y-25151075D01*
X21231605Y-25020854D01*
X21297421Y-24901136D01*
X21385236Y-24796482D01*
X21491706Y-24710878D01*
X21612775Y-24647584D01*
X21689163Y-24625102D01*
X21701921Y-24619291D01*
X21712593Y-24610123D01*
X21720289Y-24598344D01*
X21724399Y-24584888D01*
X21725000Y-24577157D01*
X21725000Y-23675000D01*
X21723020Y-23661070D01*
X21717239Y-23648244D01*
X21708112Y-23637536D01*
X21696364Y-23629794D01*
X21682924Y-23625632D01*
X21675000Y-23625000D01*
X20800000Y-23625000D01*
X20800000Y-23125000D01*
X21750000Y-23125000D01*
X21750000Y-23550000D01*
X21750000Y-23550000D01*
G37*
G36*
X26400000Y-23625000D02*
X25525000Y-23625000D01*
X25511070Y-23626980D01*
X25498244Y-23632761D01*
X25487536Y-23641888D01*
X25479794Y-23653636D01*
X25475632Y-23667076D01*
X25475000Y-23675000D01*
X25475000Y-24050000D01*
X25476980Y-24063930D01*
X25482761Y-24076756D01*
X25491888Y-24087464D01*
X25503636Y-24095206D01*
X25517076Y-24099368D01*
X25525000Y-24100000D01*
X25528423Y-24100000D01*
X25534370Y-24100042D01*
X25538161Y-24100068D01*
X25673925Y-24115297D01*
X25804146Y-24156605D01*
X25923864Y-24222421D01*
X26028518Y-24310236D01*
X26114122Y-24416706D01*
X26177416Y-24537775D01*
X26215988Y-24668833D01*
X26215991Y-24668867D01*
X26215995Y-24668880D01*
X26228373Y-24804884D01*
X26214096Y-24940706D01*
X26214095Y-24940710D01*
X26214090Y-24940755D01*
X26173691Y-25071261D01*
X26108713Y-25191435D01*
X26021631Y-25296700D01*
X25915761Y-25383045D01*
X25795136Y-25447182D01*
X25664351Y-25486669D01*
X25528387Y-25500000D01*
X25521577Y-25500000D01*
X25515630Y-25499958D01*
X25511839Y-25499932D01*
X25376075Y-25484703D01*
X25245854Y-25443395D01*
X25126136Y-25377579D01*
X25021482Y-25289764D01*
X24935878Y-25183294D01*
X24872584Y-25062225D01*
X24834012Y-24931167D01*
X24834009Y-24931133D01*
X24834005Y-24931120D01*
X24821627Y-24795116D01*
X24835904Y-24659294D01*
X24835905Y-24659290D01*
X24835910Y-24659245D01*
X24849690Y-24614731D01*
X24851909Y-24600893D01*
X24850179Y-24586930D01*
X24844627Y-24574002D01*
X24835693Y-24563133D01*
X24824085Y-24555183D01*
X24810721Y-24550781D01*
X24801917Y-24550000D01*
X24325000Y-24550000D01*
X24325000Y-23600000D01*
X24825000Y-23600000D01*
X24825000Y-24426089D01*
X24826980Y-24440019D01*
X24832761Y-24452845D01*
X24841888Y-24463553D01*
X24853636Y-24471295D01*
X24867076Y-24475457D01*
X24881143Y-24475710D01*
X24894724Y-24472034D01*
X24906743Y-24464720D01*
X24918899Y-24449971D01*
X24941287Y-24408565D01*
X24963719Y-24381449D01*
X24970880Y-24369769D01*
X24975000Y-24349893D01*
X24975000Y-23600000D01*
X25400000Y-23600000D01*
X25413930Y-23598020D01*
X25426756Y-23592239D01*
X25437464Y-23583112D01*
X25445206Y-23571364D01*
X25449368Y-23557924D01*
X25450000Y-23550000D01*
X25450000Y-23125000D01*
X26400000Y-23125000D01*
X26400000Y-23625000D01*
X26400000Y-23625000D01*
G37*
G36*
X28250000Y-25450000D02*
X27650000Y-25450000D01*
X27650000Y-24650000D01*
X28250000Y-24650000D01*
X28250000Y-25450000D01*
X28250000Y-25450000D01*
G37*
G36*
X27350000Y-25450000D02*
X26750000Y-25450000D01*
X26750000Y-24650000D01*
X27350000Y-24650000D01*
X27350000Y-25450000D01*
X27350000Y-25450000D01*
G37*
G36*
X19200000Y-24600000D02*
X18400000Y-24600000D01*
X18400000Y-23900000D01*
X19200000Y-23900000D01*
X19200000Y-24600000D01*
X19200000Y-24600000D01*
G37*
G36*
X22875000Y-24550000D02*
X22375000Y-24550000D01*
X22375000Y-23600000D01*
X22875000Y-23600000D01*
X22875000Y-24550000D01*
X22875000Y-24550000D01*
G37*
G36*
X27350000Y-24150000D02*
X26750000Y-24150000D01*
X26750000Y-23350000D01*
X27350000Y-23350000D01*
X27350000Y-24150000D01*
X27350000Y-24150000D01*
G37*
G36*
X28250000Y-24150000D02*
X27650000Y-24150000D01*
X27650000Y-23350000D01*
X28250000Y-23350000D01*
X28250000Y-24150000D01*
X28250000Y-24150000D01*
G37*
G36*
X25300000Y-23450000D02*
X21900000Y-23450000D01*
X21900000Y-20050000D01*
X25300000Y-20050000D01*
X25300000Y-23450000D01*
X25300000Y-23450000D01*
G37*
G36*
X19200000Y-23400000D02*
X18400000Y-23400000D01*
X18400000Y-22700000D01*
X19200000Y-22700000D01*
X19200000Y-23400000D01*
X19200000Y-23400000D01*
G37*
G36*
X20300000Y-23400000D02*
X19500000Y-23400000D01*
X19500000Y-22700000D01*
X20300000Y-22700000D01*
X20300000Y-23400000D01*
X20300000Y-23400000D01*
G37*
G36*
X21750000Y-22975000D02*
X20800000Y-22975000D01*
X20800000Y-22475000D01*
X21750000Y-22475000D01*
X21750000Y-22975000D01*
X21750000Y-22975000D01*
G37*
G36*
X26400000Y-22975000D02*
X25450000Y-22975000D01*
X25450000Y-22475000D01*
X26400000Y-22475000D01*
X26400000Y-22975000D01*
X26400000Y-22975000D01*
G37*
G36*
X21750000Y-22325000D02*
X20800000Y-22325000D01*
X20800000Y-21825000D01*
X21750000Y-21825000D01*
X21750000Y-22325000D01*
X21750000Y-22325000D01*
G37*
G36*
X26400000Y-22325000D02*
X25450000Y-22325000D01*
X25450000Y-21825000D01*
X26400000Y-21825000D01*
X26400000Y-22325000D01*
X26400000Y-22325000D01*
G37*
G36*
X20300000Y-22200000D02*
X19500000Y-22200000D01*
X19500000Y-21500000D01*
X20300000Y-21500000D01*
X20300000Y-22200000D01*
X20300000Y-22200000D01*
G37*
G36*
X19200000Y-22200000D02*
X18400000Y-22200000D01*
X18400000Y-21500000D01*
X19200000Y-21500000D01*
X19200000Y-22200000D01*
X19200000Y-22200000D01*
G37*
G36*
X21750000Y-21675000D02*
X20800000Y-21675000D01*
X20800000Y-21175000D01*
X21750000Y-21175000D01*
X21750000Y-21675000D01*
X21750000Y-21675000D01*
G37*
G36*
X26400000Y-21675000D02*
X25450000Y-21675000D01*
X25450000Y-21175000D01*
X26400000Y-21175000D01*
X26400000Y-21675000D01*
X26400000Y-21675000D01*
G37*
G36*
X30650000Y-21175000D02*
X28600000Y-21175000D01*
X28600000Y-16625000D01*
X30650000Y-16625000D01*
X30650000Y-21175000D01*
X30650000Y-21175000D01*
G37*
G36*
X26400000Y-21025000D02*
X25450000Y-21025000D01*
X25450000Y-20525000D01*
X26400000Y-20525000D01*
X26400000Y-21025000D01*
X26400000Y-21025000D01*
G37*
G36*
X21750000Y-21025000D02*
X20800000Y-21025000D01*
X20800000Y-20525000D01*
X21750000Y-20525000D01*
X21750000Y-21025000D01*
X21750000Y-21025000D01*
G37*
G36*
X20275000Y-21000000D02*
X19675000Y-21000000D01*
X19675000Y-20200000D01*
X20275000Y-20200000D01*
X20275000Y-21000000D01*
X20275000Y-21000000D01*
G37*
G36*
X19375000Y-21000000D02*
X18775000Y-21000000D01*
X18775000Y-20200000D01*
X19375000Y-20200000D01*
X19375000Y-21000000D01*
X19375000Y-21000000D01*
G37*
G36*
X22225000Y-19900000D02*
X21800000Y-19900000D01*
X21786070Y-19901980D01*
X21773244Y-19907761D01*
X21762536Y-19916888D01*
X21754794Y-19928636D01*
X21750632Y-19942076D01*
X21750000Y-19950000D01*
X21750000Y-20375000D01*
X20800000Y-20375000D01*
X20800000Y-19875000D01*
X21675000Y-19875000D01*
X21688930Y-19873020D01*
X21701756Y-19867239D01*
X21712464Y-19858112D01*
X21720206Y-19846364D01*
X21724368Y-19832924D01*
X21725000Y-19825000D01*
X21725000Y-18950000D01*
X22225000Y-18950000D01*
X22225000Y-19900000D01*
X22225000Y-19900000D01*
G37*
G36*
X25475000Y-19825000D02*
X25476980Y-19838930D01*
X25482761Y-19851756D01*
X25491888Y-19862464D01*
X25503636Y-19870206D01*
X25517076Y-19874368D01*
X25525000Y-19875000D01*
X26400000Y-19875000D01*
X26400000Y-20375000D01*
X25450000Y-20375000D01*
X25450000Y-19950000D01*
X25448020Y-19936070D01*
X25442239Y-19923244D01*
X25433112Y-19912536D01*
X25421364Y-19904794D01*
X25407924Y-19900632D01*
X25400000Y-19900000D01*
X24975000Y-19900000D01*
X24975000Y-18950000D01*
X25475000Y-18950000D01*
X25475000Y-19825000D01*
X25475000Y-19825000D01*
G37*
G36*
X27350000Y-19950000D02*
X26750000Y-19950000D01*
X26750000Y-19150000D01*
X27350000Y-19150000D01*
X27350000Y-19950000D01*
X27350000Y-19950000D01*
G37*
G36*
X28250000Y-19950000D02*
X27650000Y-19950000D01*
X27650000Y-19150000D01*
X28250000Y-19150000D01*
X28250000Y-19950000D01*
X28250000Y-19950000D01*
G37*
G36*
X22715706Y-17510904D02*
X22715710Y-17510905D01*
X22715755Y-17510910D01*
X22846261Y-17551309D01*
X22966435Y-17616287D01*
X23071700Y-17703369D01*
X23158045Y-17809239D01*
X23222182Y-17929864D01*
X23261669Y-18060649D01*
X23275000Y-18196613D01*
X23275000Y-18203387D01*
X23274932Y-18213161D01*
X23259703Y-18348925D01*
X23218395Y-18479146D01*
X23152579Y-18598864D01*
X23064764Y-18703518D01*
X22958294Y-18789122D01*
X22837225Y-18852416D01*
X22837103Y-18852452D01*
X22833876Y-18854139D01*
X22825694Y-18857866D01*
X22815022Y-18867034D01*
X22807326Y-18878813D01*
X22803216Y-18892269D01*
X22803018Y-18906337D01*
X22806747Y-18919903D01*
X22814108Y-18931894D01*
X22824518Y-18941359D01*
X22837153Y-18947549D01*
X22852615Y-18950000D01*
X22875000Y-18950000D01*
X22875000Y-19900000D01*
X22375000Y-19900000D01*
X22375000Y-18907605D01*
X22373020Y-18893675D01*
X22367239Y-18880849D01*
X22358112Y-18870141D01*
X22346364Y-18862399D01*
X22339889Y-18859882D01*
X22303739Y-18848691D01*
X22183565Y-18783713D01*
X22078300Y-18696631D01*
X21991955Y-18590761D01*
X21927818Y-18470136D01*
X21888331Y-18339351D01*
X21875000Y-18203387D01*
X21875000Y-18196613D01*
X21875068Y-18186839D01*
X21890297Y-18051075D01*
X21931605Y-17920854D01*
X21997421Y-17801136D01*
X22085236Y-17696482D01*
X22191706Y-17610878D01*
X22312775Y-17547584D01*
X22443833Y-17509012D01*
X22443867Y-17509009D01*
X22443880Y-17509005D01*
X22579884Y-17496627D01*
X22715706Y-17510904D01*
X22715706Y-17510904D01*
G37*
G36*
X23525000Y-19900000D02*
X23025000Y-19900000D01*
X23025000Y-18950000D01*
X23525000Y-18950000D01*
X23525000Y-19900000D01*
X23525000Y-19900000D01*
G37*
G36*
X24175000Y-19900000D02*
X23675000Y-19900000D01*
X23675000Y-18950000D01*
X24175000Y-18950000D01*
X24175000Y-19900000D01*
X24175000Y-19900000D01*
G37*
G36*
X24825000Y-19900000D02*
X24325000Y-19900000D01*
X24325000Y-18950000D01*
X24825000Y-18950000D01*
X24825000Y-19900000D01*
X24825000Y-19900000D01*
G37*
G36*
X20275000Y-19700000D02*
X19675000Y-19700000D01*
X19675000Y-18900000D01*
X20275000Y-18900000D01*
X20275000Y-19700000D01*
X20275000Y-19700000D01*
G37*
G36*
X19375000Y-19700000D02*
X18775000Y-19700000D01*
X18775000Y-18900000D01*
X19375000Y-18900000D01*
X19375000Y-19700000D01*
X19375000Y-19700000D01*
G37*
G36*
X20815706Y-17510904D02*
X20815710Y-17510905D01*
X20815755Y-17510910D01*
X20946261Y-17551309D01*
X21066435Y-17616287D01*
X21171700Y-17703369D01*
X21258045Y-17809239D01*
X21322182Y-17929864D01*
X21361669Y-18060649D01*
X21375000Y-18196613D01*
X21375000Y-18203387D01*
X21374932Y-18213161D01*
X21359703Y-18348925D01*
X21318395Y-18479146D01*
X21252579Y-18598864D01*
X21164764Y-18703518D01*
X21058294Y-18789122D01*
X20937225Y-18852416D01*
X20806167Y-18890988D01*
X20806133Y-18890991D01*
X20806120Y-18890995D01*
X20670116Y-18903373D01*
X20534294Y-18889096D01*
X20534290Y-18889095D01*
X20534245Y-18889090D01*
X20403739Y-18848691D01*
X20348610Y-18818883D01*
X20335586Y-18814063D01*
X20334539Y-18813987D01*
X20324971Y-18806101D01*
X20283565Y-18783713D01*
X20178300Y-18696631D01*
X20091955Y-18590761D01*
X20027818Y-18470136D01*
X19988331Y-18339351D01*
X19975000Y-18203387D01*
X19975000Y-18196613D01*
X19975068Y-18186839D01*
X19990297Y-18051075D01*
X20031605Y-17920854D01*
X20097421Y-17801136D01*
X20185236Y-17696482D01*
X20291706Y-17610878D01*
X20412775Y-17547584D01*
X20543833Y-17509012D01*
X20543867Y-17509009D01*
X20543880Y-17509005D01*
X20679884Y-17496627D01*
X20815706Y-17510904D01*
X20815706Y-17510904D01*
G37*
G36*
X28250000Y-18650000D02*
X27650000Y-18650000D01*
X27650000Y-17850000D01*
X28250000Y-17850000D01*
X28250000Y-18650000D01*
X28250000Y-18650000D01*
G37*
G36*
X27350000Y-18650000D02*
X26750000Y-18650000D01*
X26750000Y-17850000D01*
X27350000Y-17850000D01*
X27350000Y-18650000D01*
X27350000Y-18650000D01*
G37*
G36*
X18675000Y-18600000D02*
X17275000Y-18600000D01*
X17275000Y-17200000D01*
X18675000Y-17200000D01*
X18675000Y-18600000D01*
X18675000Y-18600000D01*
G37*
G36*
X25109370Y-17100042D02*
X25113161Y-17100068D01*
X25248925Y-17115297D01*
X25379146Y-17156605D01*
X25498864Y-17222421D01*
X25603518Y-17310236D01*
X25689122Y-17416706D01*
X25752416Y-17537775D01*
X25790988Y-17668833D01*
X25790991Y-17668867D01*
X25790995Y-17668880D01*
X25803373Y-17804884D01*
X25789096Y-17940706D01*
X25789095Y-17940710D01*
X25789090Y-17940755D01*
X25748691Y-18071261D01*
X25683713Y-18191435D01*
X25596631Y-18296700D01*
X25490761Y-18383045D01*
X25370136Y-18447182D01*
X25239351Y-18486669D01*
X25103387Y-18500000D01*
X25096577Y-18500000D01*
X25090630Y-18499958D01*
X25086839Y-18499932D01*
X24951075Y-18484703D01*
X24820854Y-18443395D01*
X24701136Y-18377579D01*
X24596482Y-18289764D01*
X24510878Y-18183294D01*
X24447584Y-18062225D01*
X24409012Y-17931167D01*
X24409009Y-17931133D01*
X24409005Y-17931120D01*
X24396627Y-17795116D01*
X24410904Y-17659294D01*
X24410905Y-17659290D01*
X24410910Y-17659245D01*
X24451309Y-17528739D01*
X24516287Y-17408565D01*
X24603369Y-17303300D01*
X24709239Y-17216955D01*
X24829864Y-17152818D01*
X24960649Y-17113331D01*
X25096613Y-17100000D01*
X25103423Y-17100000D01*
X25109370Y-17100042D01*
X25109370Y-17100042D01*
G37*
M02*
