G04 #@! TF.FileFunction,Paste,Bot*
%FSLAX46Y46*%
G04 Gerber Fmt 4.6, Leading zero omitted, Abs format (unit mm)*
G04 Created by KiCad (PCBNEW 4.0.7) date 02/05/18 10:05:16*
%MOMM*%
%LPD*%
G01*
G04 APERTURE LIST*
%ADD10C,0.100000*%
%ADD11R,0.400000X0.600000*%
%ADD12R,0.600000X0.500000*%
%ADD13R,0.750000X0.300000*%
%ADD14R,0.300000X0.750000*%
%ADD15R,0.960000X0.960000*%
G04 APERTURE END LIST*
D10*
D11*
X27950000Y-23750000D03*
X27050000Y-23750000D03*
X27950000Y-18250000D03*
X27050000Y-18250000D03*
D12*
X18800000Y-24250000D03*
X19900000Y-24250000D03*
X19900000Y-21850000D03*
X18800000Y-21850000D03*
X19900000Y-23050000D03*
X18800000Y-23050000D03*
D11*
X27950000Y-25050000D03*
X27050000Y-25050000D03*
X27050000Y-19550000D03*
X27950000Y-19550000D03*
X19075000Y-20600000D03*
X19975000Y-20600000D03*
X19075000Y-19300000D03*
X19975000Y-19300000D03*
D13*
X25925000Y-20125000D03*
X25925000Y-20775000D03*
X25925000Y-21425000D03*
X25925000Y-22075000D03*
X25925000Y-22725000D03*
X25925000Y-23375000D03*
D14*
X25225000Y-24075000D03*
X24575000Y-24075000D03*
X23925000Y-24075000D03*
X23275000Y-24075000D03*
X22625000Y-24075000D03*
X21975000Y-24075000D03*
D13*
X21275000Y-23375000D03*
X21275000Y-22725000D03*
X21275000Y-22075000D03*
X21275000Y-21425000D03*
X21275000Y-20775000D03*
X21275000Y-20125000D03*
D14*
X21975000Y-19425000D03*
X22625000Y-19425000D03*
X23275000Y-19425000D03*
X23925000Y-19425000D03*
X24575000Y-19425000D03*
X25225000Y-19425000D03*
D15*
X22800000Y-22550000D03*
X22800000Y-20950000D03*
X24400000Y-22550000D03*
X24400000Y-20950000D03*
M02*
