G04 #@! TF.FileFunction,Copper,L2,Bot,Signal*
%FSLAX46Y46*%
G04 Gerber Fmt 4.6, Leading zero omitted, Abs format (unit mm)*
G04 Created by KiCad (PCBNEW 4.0.2+e4-6225~38~ubuntu14.04.1-stable) date Mon Aug  1 12:46:02 2016*
%MOMM*%
G01*
G04 APERTURE LIST*
%ADD10C,0.350000*%
%ADD11C,0.050000*%
%ADD12R,1.727200X2.032000*%
%ADD13O,1.727200X1.727200*%
%ADD14R,0.600000X0.400000*%
%ADD15R,0.600000X0.500000*%
%ADD16R,0.400000X0.600000*%
%ADD17R,0.750000X0.300000*%
%ADD18R,0.300000X0.750000*%
%ADD19R,1.600000X1.600000*%
%ADD20C,0.600000*%
%ADD21C,0.127000*%
%ADD22C,0.254000*%
%ADD23C,0.300000*%
%ADD24O,0.799999X2.499999*%
G04 APERTURE END LIST*
D10*
D11*
X17450000Y-18000000D02*
G75*
G03X17000000Y-18470000I10000J-460000D01*
G01*
X17000000Y-28550000D02*
G75*
G03X17470000Y-29000000I460000J10000D01*
G01*
X17000000Y-18480000D02*
X17000000Y-28530000D01*
X29000000Y-18000000D02*
X17460000Y-18000000D01*
X17460000Y-29000000D02*
X29000000Y-29000000D01*
X30000000Y-23500000D02*
X30000000Y-23370000D01*
X30000000Y-23370000D02*
X30000000Y-23230000D01*
X30000000Y-23230000D02*
X30000000Y-23100000D01*
X30000000Y-23100000D02*
X30000000Y-22960000D01*
X30000000Y-22960000D02*
X29990000Y-22830000D01*
X29990000Y-22830000D02*
X29990000Y-22690000D01*
X29990000Y-22690000D02*
X29990000Y-22560000D01*
X29990000Y-22560000D02*
X29980000Y-22430000D01*
X29980000Y-22430000D02*
X29980000Y-22290000D01*
X29980000Y-22290000D02*
X29970000Y-22160000D01*
X29970000Y-22160000D02*
X29960000Y-22030000D01*
X29960000Y-22030000D02*
X29960000Y-21900000D01*
X29960000Y-21900000D02*
X29950000Y-21770000D01*
X29950000Y-21770000D02*
X29940000Y-21650000D01*
X29940000Y-21650000D02*
X29930000Y-21520000D01*
X29930000Y-21520000D02*
X29920000Y-21400000D01*
X29920000Y-21400000D02*
X29910000Y-21270000D01*
X29910000Y-21270000D02*
X29900000Y-21150000D01*
X29900000Y-21150000D02*
X29890000Y-21030000D01*
X29890000Y-21030000D02*
X29880000Y-20910000D01*
X29880000Y-20910000D02*
X29870000Y-20790000D01*
X29870000Y-20790000D02*
X29860000Y-20670000D01*
X29860000Y-20670000D02*
X29840000Y-20560000D01*
X29840000Y-20560000D02*
X29830000Y-20440000D01*
X29830000Y-20440000D02*
X29820000Y-20330000D01*
X29820000Y-20330000D02*
X29800000Y-20220000D01*
X29800000Y-20220000D02*
X29790000Y-20120000D01*
X29790000Y-20120000D02*
X29770000Y-20010000D01*
X29770000Y-20010000D02*
X29760000Y-19910000D01*
X29760000Y-19910000D02*
X29740000Y-19810000D01*
X29740000Y-19810000D02*
X29720000Y-19710000D01*
X29720000Y-19710000D02*
X29710000Y-19610000D01*
X29710000Y-19610000D02*
X29690000Y-19520000D01*
X29690000Y-19520000D02*
X29670000Y-19420000D01*
X29670000Y-19420000D02*
X29650000Y-19340000D01*
X29650000Y-19340000D02*
X29630000Y-19250000D01*
X29630000Y-19250000D02*
X29620000Y-19160000D01*
X29620000Y-19160000D02*
X29600000Y-19080000D01*
X29600000Y-19080000D02*
X29580000Y-19000000D01*
X29580000Y-19000000D02*
X29560000Y-18930000D01*
X29560000Y-18930000D02*
X29530000Y-18850000D01*
X29530000Y-18850000D02*
X29510000Y-18780000D01*
X29510000Y-18780000D02*
X29490000Y-18710000D01*
X29490000Y-18710000D02*
X29470000Y-18650000D01*
X29470000Y-18650000D02*
X29450000Y-18590000D01*
X29450000Y-18590000D02*
X29430000Y-18530000D01*
X29430000Y-18530000D02*
X29410000Y-18470000D01*
X29410000Y-18470000D02*
X29380000Y-18420000D01*
X29380000Y-18420000D02*
X29360000Y-18370000D01*
X29360000Y-18370000D02*
X29340000Y-18320000D01*
X29340000Y-18320000D02*
X29310000Y-18280000D01*
X29310000Y-18280000D02*
X29290000Y-18240000D01*
X29290000Y-18240000D02*
X29270000Y-18200000D01*
X29270000Y-18200000D02*
X29240000Y-18160000D01*
X29240000Y-18160000D02*
X29220000Y-18130000D01*
X29220000Y-18130000D02*
X29200000Y-18110000D01*
X29200000Y-18110000D02*
X29170000Y-18080000D01*
X29170000Y-18080000D02*
X29150000Y-18060000D01*
X29150000Y-18060000D02*
X29120000Y-18040000D01*
X29120000Y-18040000D02*
X29100000Y-18030000D01*
X29100000Y-18030000D02*
X29070000Y-18010000D01*
X29070000Y-18010000D02*
X29050000Y-18010000D01*
X29050000Y-18010000D02*
X29020000Y-18000000D01*
X29020000Y-18000000D02*
X29000000Y-18000000D01*
X29000000Y-29000000D02*
X29020000Y-29000000D01*
X29020000Y-29000000D02*
X29050000Y-28990000D01*
X29050000Y-28990000D02*
X29070000Y-28990000D01*
X29070000Y-28990000D02*
X29100000Y-28970000D01*
X29100000Y-28970000D02*
X29120000Y-28960000D01*
X29120000Y-28960000D02*
X29150000Y-28940000D01*
X29150000Y-28940000D02*
X29170000Y-28920000D01*
X29170000Y-28920000D02*
X29200000Y-28890000D01*
X29200000Y-28890000D02*
X29220000Y-28870000D01*
X29220000Y-28870000D02*
X29240000Y-28840000D01*
X29240000Y-28840000D02*
X29270000Y-28800000D01*
X29270000Y-28800000D02*
X29290000Y-28760000D01*
X29290000Y-28760000D02*
X29310000Y-28720000D01*
X29310000Y-28720000D02*
X29340000Y-28680000D01*
X29340000Y-28680000D02*
X29360000Y-28630000D01*
X29360000Y-28630000D02*
X29380000Y-28580000D01*
X29380000Y-28580000D02*
X29410000Y-28530000D01*
X29410000Y-28530000D02*
X29430000Y-28470000D01*
X29430000Y-28470000D02*
X29450000Y-28410000D01*
X29450000Y-28410000D02*
X29470000Y-28350000D01*
X29470000Y-28350000D02*
X29490000Y-28290000D01*
X29490000Y-28290000D02*
X29510000Y-28220000D01*
X29510000Y-28220000D02*
X29530000Y-28150000D01*
X29530000Y-28150000D02*
X29560000Y-28070000D01*
X29560000Y-28070000D02*
X29580000Y-28000000D01*
X29580000Y-28000000D02*
X29600000Y-27920000D01*
X29600000Y-27920000D02*
X29620000Y-27840000D01*
X29620000Y-27840000D02*
X29630000Y-27750000D01*
X29630000Y-27750000D02*
X29650000Y-27660000D01*
X29650000Y-27660000D02*
X29670000Y-27580000D01*
X29670000Y-27580000D02*
X29690000Y-27480000D01*
X29690000Y-27480000D02*
X29710000Y-27390000D01*
X29710000Y-27390000D02*
X29720000Y-27290000D01*
X29720000Y-27290000D02*
X29740000Y-27190000D01*
X29740000Y-27190000D02*
X29760000Y-27090000D01*
X29760000Y-27090000D02*
X29770000Y-26990000D01*
X29770000Y-26990000D02*
X29790000Y-26880000D01*
X29790000Y-26880000D02*
X29800000Y-26780000D01*
X29800000Y-26780000D02*
X29820000Y-26670000D01*
X29820000Y-26670000D02*
X29830000Y-26560000D01*
X29830000Y-26560000D02*
X29840000Y-26440000D01*
X29840000Y-26440000D02*
X29860000Y-26330000D01*
X29860000Y-26330000D02*
X29870000Y-26210000D01*
X29870000Y-26210000D02*
X29880000Y-26090000D01*
X29880000Y-26090000D02*
X29890000Y-25970000D01*
X29890000Y-25970000D02*
X29900000Y-25850000D01*
X29900000Y-25850000D02*
X29910000Y-25730000D01*
X29910000Y-25730000D02*
X29920000Y-25600000D01*
X29920000Y-25600000D02*
X29930000Y-25480000D01*
X29930000Y-25480000D02*
X29940000Y-25350000D01*
X29940000Y-25350000D02*
X29950000Y-25230000D01*
X29950000Y-25230000D02*
X29960000Y-25100000D01*
X29960000Y-25100000D02*
X29960000Y-24970000D01*
X29960000Y-24970000D02*
X29970000Y-24840000D01*
X29970000Y-24840000D02*
X29980000Y-24710000D01*
X29980000Y-24710000D02*
X29980000Y-24570000D01*
X29980000Y-24570000D02*
X29990000Y-24440000D01*
X29990000Y-24440000D02*
X29990000Y-24310000D01*
X29990000Y-24310000D02*
X29990000Y-24170000D01*
X29990000Y-24170000D02*
X30000000Y-24040000D01*
X30000000Y-24040000D02*
X30000000Y-23900000D01*
X30000000Y-23900000D02*
X30000000Y-23770000D01*
X30000000Y-23770000D02*
X30000000Y-23630000D01*
X30000000Y-23630000D02*
X30000000Y-23500000D01*
D12*
X18060000Y-27650000D03*
D13*
X20600000Y-27650000D03*
X23140000Y-27650000D03*
X25680000Y-27650000D03*
D14*
X27300000Y-25450000D03*
X27300000Y-24550000D03*
X27300000Y-20750000D03*
X27300000Y-19850000D03*
D15*
X18775000Y-25950000D03*
X19875000Y-25950000D03*
X19875000Y-23550000D03*
X18775000Y-23550000D03*
X19875000Y-24750000D03*
X18775000Y-24750000D03*
D14*
X27300000Y-26450000D03*
X27300000Y-27350000D03*
X27300000Y-22650000D03*
X27300000Y-21750000D03*
D16*
X19050000Y-22300000D03*
X19950000Y-22300000D03*
X19050000Y-21000000D03*
X19950000Y-21000000D03*
D12*
X18070000Y-19350000D03*
D13*
X20610000Y-19350000D03*
X23150000Y-19350000D03*
X25690000Y-19350000D03*
D17*
X25900000Y-21825000D03*
X25900000Y-22475000D03*
X25900000Y-23125000D03*
X25900000Y-23775000D03*
X25900000Y-24425000D03*
X25900000Y-25075000D03*
D18*
X25200000Y-25775000D03*
X24550000Y-25775000D03*
X23900000Y-25775000D03*
X23250000Y-25775000D03*
X22600000Y-25775000D03*
X21950000Y-25775000D03*
D17*
X21250000Y-25075000D03*
X21250000Y-24425000D03*
X21250000Y-23775000D03*
X21250000Y-23125000D03*
X21250000Y-22475000D03*
X21250000Y-21825000D03*
D18*
X21950000Y-21125000D03*
X22600000Y-21125000D03*
X23250000Y-21125000D03*
X23900000Y-21125000D03*
X24550000Y-21125000D03*
X25200000Y-21125000D03*
D19*
X22775000Y-24250000D03*
X22775000Y-22650000D03*
X24375000Y-24250000D03*
X24375000Y-22650000D03*
D14*
X28500000Y-20550000D03*
X28500000Y-21450000D03*
X28500000Y-25300000D03*
X28500000Y-26200000D03*
D20*
X17750010Y-21000000D03*
X21879999Y-18520000D03*
X24670000Y-18520000D03*
X27299986Y-18900000D03*
X27299992Y-28200000D03*
X17750000Y-26000000D03*
X17900000Y-21925000D03*
X17900000Y-23925000D03*
X28300000Y-21775000D03*
X27809490Y-23222085D03*
X28300000Y-26500000D03*
X28300000Y-20450000D03*
X28300000Y-25250000D03*
D21*
X17400000Y-23550000D02*
X17400000Y-24750000D01*
X17400000Y-24750000D02*
X17400000Y-25624056D01*
X18700000Y-24750000D02*
X18273000Y-24750000D01*
X18273000Y-24750000D02*
X17400000Y-24750000D01*
X18700000Y-23550000D02*
X18700000Y-24750000D01*
X22775000Y-22650000D02*
X22283799Y-22158799D01*
X22283799Y-22158799D02*
X20558799Y-22158799D01*
X20525000Y-22800000D02*
X21698000Y-22800000D01*
X21698000Y-22800000D02*
X20600000Y-22800000D01*
X22775000Y-22650000D02*
X21848000Y-22650000D01*
X21848000Y-22650000D02*
X21698000Y-22800000D01*
X23037919Y-20500000D02*
X23170000Y-20500000D01*
X22920000Y-20617919D02*
X23037919Y-20500000D01*
X22920000Y-20617919D02*
X22920000Y-22094899D01*
X22775000Y-22650000D02*
X22775000Y-22275000D01*
X22710000Y-22210000D02*
X22280000Y-22210000D01*
X22775000Y-22275000D02*
X22710000Y-22210000D01*
X22280000Y-22210000D02*
X22280000Y-20230000D01*
X22280000Y-20230000D02*
X21879999Y-19829999D01*
X21879999Y-19829999D02*
X21879999Y-18520000D01*
X17259498Y-26235442D02*
X17400000Y-26375944D01*
X17400000Y-27250000D02*
X17400000Y-28500000D01*
X17259498Y-25764558D02*
X17259498Y-26235442D01*
X17400000Y-25624056D02*
X17259498Y-25764558D01*
X17400000Y-26375944D02*
X17400000Y-27250000D01*
X17450011Y-21299999D02*
X17750010Y-21000000D01*
X17400000Y-21350010D02*
X17450011Y-21299999D01*
X17400000Y-23550000D02*
X17400000Y-21350010D01*
X22915101Y-22094899D02*
X22775000Y-22235000D01*
X22775000Y-22235000D02*
X22775000Y-22650000D01*
X24375000Y-22650000D02*
X24375000Y-22545000D01*
X24375000Y-22545000D02*
X23580000Y-21750000D01*
X23580000Y-21750000D02*
X23580000Y-20570000D01*
X23580000Y-20570000D02*
X24661299Y-19488701D01*
X24661299Y-19488701D02*
X24661299Y-18528701D01*
X24661299Y-18528701D02*
X24670000Y-18520000D01*
X26550000Y-24902818D02*
X26407081Y-24759899D01*
X26407081Y-24759899D02*
X24884899Y-24759899D01*
X24884899Y-24759899D02*
X24375000Y-24250000D01*
X26550000Y-25460000D02*
X26550000Y-24902818D01*
X24375000Y-24595000D02*
X24870000Y-25090000D01*
X24375000Y-24250000D02*
X24375000Y-24595000D01*
X22775000Y-22650000D02*
X24375000Y-22650000D01*
X22775000Y-22650000D02*
X22775000Y-22365000D01*
X20242902Y-26400000D02*
X20600000Y-26042902D01*
X19057600Y-26400000D02*
X20242902Y-26400000D01*
X17960000Y-27650000D02*
X17960000Y-27497600D01*
X17960000Y-27497600D02*
X19057600Y-26400000D01*
X18700000Y-25950000D02*
X18700000Y-27160000D01*
X18700000Y-27160000D02*
X17960000Y-27900000D01*
X24870000Y-25090000D02*
X24870000Y-26350000D01*
X24870000Y-26350000D02*
X24950000Y-26430000D01*
X25580000Y-26430000D02*
X26550000Y-25460000D01*
X24950000Y-26430000D02*
X25580000Y-26430000D01*
X21250000Y-25075000D02*
X21475000Y-25075000D01*
X21475000Y-25075000D02*
X21800000Y-24750000D01*
X21800000Y-24750000D02*
X21800000Y-23198400D01*
X21800000Y-23198400D02*
X21726600Y-23125000D01*
X21726600Y-23125000D02*
X21250000Y-23125000D01*
X21250000Y-25075000D02*
X21495000Y-25075000D01*
X25300000Y-19500000D02*
X25900000Y-18900000D01*
X25900000Y-18900000D02*
X27299986Y-18900000D01*
X27300000Y-19850000D02*
X27300000Y-18900014D01*
X23900000Y-21125000D02*
X23900000Y-20900000D01*
X23900000Y-20900000D02*
X25300000Y-19500000D01*
X27300000Y-18900014D02*
X27299986Y-18900000D01*
X26100000Y-28200000D02*
X26875728Y-28200000D01*
X23900000Y-26000000D02*
X26100000Y-28200000D01*
X26875728Y-28200000D02*
X27299992Y-28200000D01*
X23900000Y-25775000D02*
X23900000Y-26000000D01*
X27300000Y-27350000D02*
X27300000Y-28199992D01*
X27300000Y-28199992D02*
X27299992Y-28200000D01*
X25359899Y-22159899D02*
X25675000Y-22475000D01*
X19800000Y-23550000D02*
X20250000Y-23550000D01*
X20250000Y-23550000D02*
X20675000Y-23125000D01*
X20675000Y-23125000D02*
X20773400Y-23125000D01*
X20773400Y-23125000D02*
X21250000Y-23125000D01*
X23900000Y-25898400D02*
X23900000Y-25775000D01*
X21950000Y-26000000D02*
X21950000Y-25775000D01*
X21950000Y-25775000D02*
X21950000Y-25525000D01*
X21950000Y-25525000D02*
X21500000Y-25075000D01*
X21500000Y-25075000D02*
X21250000Y-25075000D01*
X23900000Y-25550000D02*
X23900000Y-25775000D01*
X23900000Y-21125000D02*
X23900000Y-21350000D01*
X23900000Y-21350000D02*
X24234899Y-21684899D01*
X24234899Y-21684899D02*
X25307081Y-21684899D01*
X25307081Y-21684899D02*
X25359899Y-21737717D01*
X25359899Y-21737717D02*
X25359899Y-22159899D01*
X25675000Y-22475000D02*
X25900000Y-22475000D01*
X21950000Y-25550000D02*
X22275000Y-25225000D01*
X23575000Y-25225000D02*
X23900000Y-25550000D01*
X22275000Y-25225000D02*
X23575000Y-25225000D01*
X21250000Y-23775000D02*
X20975000Y-23775000D01*
X20975000Y-23775000D02*
X20000000Y-24750000D01*
X20000000Y-24750000D02*
X19800000Y-24750000D01*
X18049999Y-25700001D02*
X17750000Y-26000000D01*
X19150000Y-25350000D02*
X18400000Y-25350000D01*
X19750000Y-24750000D02*
X19150000Y-25350000D01*
X19800000Y-24750000D02*
X19750000Y-24750000D01*
X18400000Y-25350000D02*
X18049999Y-25700001D01*
X19900000Y-24900000D02*
X19850000Y-24900000D01*
X27300000Y-21750000D02*
X27300000Y-20700000D01*
X27300000Y-25450000D02*
X27300000Y-26450000D01*
X22600000Y-21125000D02*
X22600000Y-19725000D01*
X22600000Y-19725000D02*
X23075000Y-19250000D01*
X20535000Y-19250000D02*
X20650000Y-19250000D01*
X20650000Y-19250000D02*
X21950000Y-20550000D01*
X21950000Y-20550000D02*
X21950000Y-20648400D01*
X21950000Y-20648400D02*
X21950000Y-21125000D01*
X18225000Y-21925000D02*
X17900000Y-21925000D01*
X19050000Y-21100000D02*
X18225000Y-21925000D01*
X19050000Y-21000000D02*
X19050000Y-21100000D01*
X19050000Y-22300000D02*
X18725000Y-22300000D01*
X18725000Y-22300000D02*
X17900000Y-23125000D01*
X17900000Y-23125000D02*
X17900000Y-23925000D01*
X17900000Y-23123000D02*
X17900000Y-23925000D01*
X21250000Y-24425000D02*
X20825000Y-24425000D01*
X20825000Y-24425000D02*
X20500000Y-24750000D01*
X20500000Y-24750000D02*
X20500000Y-25250000D01*
X20500000Y-25250000D02*
X19800000Y-25950000D01*
X27300000Y-22650000D02*
X26950000Y-22650000D01*
X26950000Y-22650000D02*
X26125000Y-21825000D01*
X26125000Y-21825000D02*
X25900000Y-21825000D01*
X25900000Y-24425000D02*
X27175000Y-24425000D01*
X27175000Y-24425000D02*
X27300000Y-24550000D01*
X21250000Y-21825000D02*
X20675000Y-21825000D01*
X20675000Y-21825000D02*
X19950000Y-21100000D01*
X19950000Y-21100000D02*
X19950000Y-21000000D01*
X21250000Y-21825000D02*
X20925000Y-21825000D01*
X21250000Y-22475000D02*
X20125000Y-22475000D01*
X20125000Y-22475000D02*
X19950000Y-22300000D01*
X28300000Y-21700000D02*
X28300000Y-21775000D01*
X28500000Y-21500000D02*
X28300000Y-21700000D01*
X27385226Y-23222085D02*
X27809490Y-23222085D01*
X25900000Y-23100000D02*
X26022085Y-23222085D01*
X26022085Y-23222085D02*
X27385226Y-23222085D01*
X25900000Y-23775000D02*
X27350000Y-23775000D01*
X27350000Y-23775000D02*
X27790501Y-24215501D01*
X27790501Y-24215501D02*
X27790501Y-25990501D01*
X27790501Y-25990501D02*
X28000001Y-26200001D01*
X28000001Y-26200001D02*
X28300000Y-26500000D01*
X28750000Y-26500000D02*
X28724264Y-26500000D01*
X28724264Y-26500000D02*
X28300000Y-26500000D01*
X29000000Y-26250000D02*
X28750000Y-26500000D01*
X24550000Y-21125000D02*
X24550000Y-20900000D01*
X24550000Y-20900000D02*
X24890501Y-20559499D01*
X24890501Y-20559499D02*
X26165501Y-20559499D01*
X26165501Y-20559499D02*
X26425000Y-20300000D01*
X26425000Y-20300000D02*
X28125000Y-20300000D01*
X28125000Y-20300000D02*
X28275000Y-20450000D01*
X28275000Y-20450000D02*
X28300000Y-20450000D01*
X28425000Y-20575000D02*
X28300000Y-20450000D01*
X28649264Y-20575000D02*
X28425000Y-20575000D01*
X29150000Y-20500000D02*
X29075000Y-20575000D01*
X29075000Y-20575000D02*
X28649264Y-20575000D01*
X29150000Y-20600000D02*
X29125000Y-20575000D01*
X29125000Y-20575000D02*
X28649264Y-20575000D01*
X28724264Y-25250000D02*
X28300000Y-25250000D01*
X29050000Y-25250000D02*
X28724264Y-25250000D01*
X29150000Y-25350000D02*
X29050000Y-25250000D01*
X28300000Y-22850000D02*
X28300000Y-24825736D01*
X27650000Y-22200000D02*
X28300000Y-22850000D01*
X26907098Y-22200000D02*
X27650000Y-22200000D01*
X26750000Y-21200000D02*
X26750000Y-22042902D01*
X26750000Y-22042902D02*
X26907098Y-22200000D01*
X26675000Y-21125000D02*
X26750000Y-21200000D01*
X25200000Y-21125000D02*
X26675000Y-21125000D01*
X28300000Y-24825736D02*
X28300000Y-25250000D01*
X22600000Y-25775000D02*
X22600000Y-26251600D01*
X22600000Y-26251600D02*
X22319200Y-26532400D01*
X22319200Y-26532400D02*
X21465200Y-26532400D01*
X21465200Y-26532400D02*
X20500000Y-27497600D01*
X20500000Y-27497600D02*
X20500000Y-27650000D01*
X20500000Y-27802400D02*
X20500000Y-27650000D01*
X20500000Y-27747600D02*
X20500000Y-27900000D01*
X23250000Y-25775000D02*
X23250000Y-27440000D01*
X23250000Y-27440000D02*
X23040000Y-27650000D01*
X24550000Y-25775000D02*
X24550000Y-26050000D01*
G36*
X27806500Y-18250000D02*
X27806500Y-20043000D01*
X27797290Y-20043000D01*
X27797290Y-19650000D01*
X27783798Y-19578293D01*
X27741419Y-19512435D01*
X27676757Y-19468254D01*
X27600000Y-19452710D01*
X27557000Y-19452710D01*
X27557000Y-19327772D01*
X27579166Y-19318613D01*
X27718111Y-19179910D01*
X27793400Y-18998594D01*
X27793571Y-18802267D01*
X27718599Y-18620820D01*
X27579896Y-18481875D01*
X27398580Y-18406586D01*
X27202253Y-18406415D01*
X27020806Y-18481387D01*
X26881861Y-18620090D01*
X26872348Y-18643000D01*
X26478371Y-18643000D01*
X26437483Y-18581807D01*
X26094535Y-18352657D01*
X25690000Y-18272190D01*
X25285465Y-18352657D01*
X24942517Y-18581807D01*
X24713367Y-18924755D01*
X24632900Y-19329290D01*
X24632900Y-19370710D01*
X24704729Y-19731819D01*
X23883838Y-20552710D01*
X23750000Y-20552710D01*
X23678293Y-20566202D01*
X23612435Y-20608581D01*
X23574585Y-20663976D01*
X23541419Y-20612435D01*
X23476757Y-20568254D01*
X23400000Y-20552710D01*
X23100000Y-20552710D01*
X23028293Y-20566202D01*
X22962435Y-20608581D01*
X22924585Y-20663976D01*
X22891419Y-20612435D01*
X22857000Y-20588918D01*
X22857000Y-20369529D01*
X23150000Y-20427810D01*
X23554535Y-20347343D01*
X23897483Y-20118193D01*
X24126633Y-19775245D01*
X24207100Y-19370710D01*
X24207100Y-19329290D01*
X24126633Y-18924755D01*
X23897483Y-18581807D01*
X23554535Y-18352657D01*
X23150000Y-18272190D01*
X22745465Y-18352657D01*
X22402517Y-18581807D01*
X22173367Y-18924755D01*
X22092900Y-19329290D01*
X22092900Y-19370710D01*
X22173367Y-19775245D01*
X22343000Y-20029119D01*
X22343000Y-20588913D01*
X22312435Y-20608581D01*
X22274585Y-20663976D01*
X22241419Y-20612435D01*
X22207000Y-20588918D01*
X22207000Y-20550000D01*
X22206549Y-20547733D01*
X22187438Y-20451651D01*
X22131727Y-20368274D01*
X21567433Y-19803980D01*
X21586633Y-19775245D01*
X21667100Y-19370710D01*
X21667100Y-19329290D01*
X21586633Y-18924755D01*
X21357483Y-18581807D01*
X21014535Y-18352657D01*
X20610000Y-18272190D01*
X20205465Y-18352657D01*
X19862517Y-18581807D01*
X19633367Y-18924755D01*
X19552900Y-19329290D01*
X19552900Y-19370710D01*
X19633367Y-19775245D01*
X19862517Y-20118193D01*
X20205465Y-20347343D01*
X20610000Y-20427810D01*
X21014535Y-20347343D01*
X21235948Y-20199400D01*
X21655410Y-20618863D01*
X21618254Y-20673243D01*
X21602710Y-20750000D01*
X21602710Y-21477710D01*
X20875000Y-21477710D01*
X20803293Y-21491202D01*
X20743276Y-21529823D01*
X20347290Y-21133838D01*
X20347290Y-20700000D01*
X20333798Y-20628293D01*
X20291419Y-20562435D01*
X20226757Y-20518254D01*
X20150000Y-20502710D01*
X19750000Y-20502710D01*
X19678293Y-20516202D01*
X19612435Y-20558581D01*
X19568254Y-20623243D01*
X19552710Y-20700000D01*
X19552710Y-21300000D01*
X19566202Y-21371707D01*
X19608581Y-21437565D01*
X19673243Y-21481746D01*
X19750000Y-21497290D01*
X19983838Y-21497290D01*
X20493274Y-22006727D01*
X20543255Y-22040122D01*
X20576650Y-22062437D01*
X20675000Y-22082000D01*
X20713913Y-22082000D01*
X20733581Y-22112565D01*
X20788976Y-22150415D01*
X20737435Y-22183581D01*
X20713918Y-22218000D01*
X20347290Y-22218000D01*
X20347290Y-22000000D01*
X20333798Y-21928293D01*
X20291419Y-21862435D01*
X20226757Y-21818254D01*
X20150000Y-21802710D01*
X19750000Y-21802710D01*
X19678293Y-21816202D01*
X19612435Y-21858581D01*
X19568254Y-21923243D01*
X19552710Y-22000000D01*
X19552710Y-22600000D01*
X19566202Y-22671707D01*
X19608581Y-22737565D01*
X19673243Y-22781746D01*
X19750000Y-22797290D01*
X20150000Y-22797290D01*
X20221707Y-22783798D01*
X20287565Y-22741419D01*
X20294001Y-22732000D01*
X20713913Y-22732000D01*
X20733581Y-22762565D01*
X20788976Y-22800415D01*
X20737435Y-22833581D01*
X20713918Y-22868000D01*
X20675000Y-22868000D01*
X20576650Y-22887563D01*
X20547561Y-22907000D01*
X20493274Y-22943273D01*
X20323123Y-23113425D01*
X20229538Y-23113754D01*
X20175000Y-23102710D01*
X19575000Y-23102710D01*
X19503293Y-23116202D01*
X19503122Y-23116312D01*
X19449776Y-23116500D01*
X19426920Y-23120843D01*
X19405723Y-23134483D01*
X19391503Y-23155295D01*
X19386500Y-23180000D01*
X19386500Y-23256595D01*
X19377710Y-23300000D01*
X19377710Y-23800000D01*
X19386500Y-23846717D01*
X19386500Y-24456595D01*
X19377710Y-24500000D01*
X19377710Y-24758837D01*
X19375047Y-24761500D01*
X19228875Y-24761500D01*
X19217875Y-24750500D01*
X18775500Y-24750500D01*
X18775500Y-24770500D01*
X18774500Y-24770500D01*
X18774500Y-24750500D01*
X18332125Y-24750500D01*
X18284500Y-24798125D01*
X18284500Y-25037893D01*
X18313502Y-25107909D01*
X18315417Y-25109824D01*
X18301650Y-25112563D01*
X18259962Y-25140418D01*
X18218273Y-25168274D01*
X17870758Y-25515790D01*
X17848594Y-25506586D01*
X17652267Y-25506415D01*
X17470820Y-25581387D01*
X17331875Y-25720090D01*
X17256586Y-25901406D01*
X17256415Y-26097733D01*
X17331387Y-26279180D01*
X17470090Y-26418125D01*
X17651406Y-26493414D01*
X17847733Y-26493585D01*
X18029180Y-26418613D01*
X18168125Y-26279910D01*
X18243414Y-26098594D01*
X18243501Y-25998125D01*
X18284500Y-25998125D01*
X18284500Y-26237893D01*
X18313502Y-26307909D01*
X18367090Y-26361498D01*
X18437107Y-26390500D01*
X18726875Y-26390500D01*
X18774500Y-26342875D01*
X18774500Y-25950500D01*
X18775500Y-25950500D01*
X18775500Y-26342875D01*
X18823125Y-26390500D01*
X19112893Y-26390500D01*
X19182910Y-26361498D01*
X19236498Y-26307909D01*
X19265500Y-26237893D01*
X19265500Y-25998125D01*
X19217875Y-25950500D01*
X18775500Y-25950500D01*
X18774500Y-25950500D01*
X18332125Y-25950500D01*
X18284500Y-25998125D01*
X18243501Y-25998125D01*
X18243585Y-25902267D01*
X18234112Y-25879340D01*
X18284500Y-25828952D01*
X18284500Y-25901875D01*
X18332125Y-25949500D01*
X18774500Y-25949500D01*
X18774500Y-25929500D01*
X18775500Y-25929500D01*
X18775500Y-25949500D01*
X19217875Y-25949500D01*
X19223875Y-25943500D01*
X19377710Y-25943500D01*
X19377710Y-26200000D01*
X19391202Y-26271707D01*
X19433581Y-26337565D01*
X19498243Y-26381746D01*
X19575000Y-26397290D01*
X20175000Y-26397290D01*
X20246707Y-26383798D01*
X20312565Y-26341419D01*
X20356746Y-26276757D01*
X20372290Y-26200000D01*
X20372290Y-25741163D01*
X20681726Y-25431727D01*
X20730813Y-25358263D01*
X20733581Y-25362565D01*
X20798243Y-25406746D01*
X20875000Y-25422290D01*
X21483838Y-25422290D01*
X21602710Y-25541163D01*
X21602710Y-26150000D01*
X21616202Y-26221707D01*
X21650753Y-26275400D01*
X21465200Y-26275400D01*
X21366850Y-26294963D01*
X21303093Y-26337565D01*
X21283474Y-26350674D01*
X20985314Y-26648834D01*
X20600000Y-26572190D01*
X20195465Y-26652657D01*
X19852517Y-26881807D01*
X19623367Y-27224755D01*
X19542900Y-27629290D01*
X19542900Y-27670710D01*
X19623367Y-28075245D01*
X19852517Y-28418193D01*
X20195465Y-28647343D01*
X20600000Y-28727810D01*
X21004535Y-28647343D01*
X21347483Y-28418193D01*
X21576633Y-28075245D01*
X21657100Y-27670710D01*
X21657100Y-27629290D01*
X21576633Y-27224755D01*
X21400259Y-26960793D01*
X21571652Y-26789400D01*
X22319200Y-26789400D01*
X22417550Y-26769837D01*
X22500926Y-26714126D01*
X22781726Y-26433327D01*
X22821743Y-26373437D01*
X22837437Y-26349950D01*
X22843430Y-26319819D01*
X22887565Y-26291419D01*
X22925415Y-26236024D01*
X22958581Y-26287565D01*
X22993000Y-26311082D01*
X22993000Y-26601430D01*
X22735465Y-26652657D01*
X22392517Y-26881807D01*
X22163367Y-27224755D01*
X22082900Y-27629290D01*
X22082900Y-27670710D01*
X22163367Y-28075245D01*
X22392517Y-28418193D01*
X22735465Y-28647343D01*
X23140000Y-28727810D01*
X23544535Y-28647343D01*
X23887483Y-28418193D01*
X24116633Y-28075245D01*
X24197100Y-27670710D01*
X24197100Y-27629290D01*
X24116633Y-27224755D01*
X23887483Y-26881807D01*
X23544535Y-26652657D01*
X23507000Y-26645191D01*
X23507000Y-26311087D01*
X23537565Y-26291419D01*
X23575415Y-26236024D01*
X23608581Y-26287565D01*
X23673243Y-26331746D01*
X23750000Y-26347290D01*
X23883838Y-26347290D01*
X24726573Y-27190025D01*
X24703367Y-27224755D01*
X24622900Y-27629290D01*
X24622900Y-27670710D01*
X24703367Y-28075245D01*
X24932517Y-28418193D01*
X25275465Y-28647343D01*
X25680000Y-28727810D01*
X26084535Y-28647343D01*
X26369404Y-28457000D01*
X26872214Y-28457000D01*
X26881379Y-28479180D01*
X27020082Y-28618125D01*
X27201398Y-28693414D01*
X27397725Y-28693585D01*
X27579172Y-28618613D01*
X27718117Y-28479910D01*
X27793406Y-28298594D01*
X27793577Y-28102267D01*
X27718605Y-27920820D01*
X27579902Y-27781875D01*
X27557000Y-27772365D01*
X27557000Y-27747290D01*
X27600000Y-27747290D01*
X27671707Y-27733798D01*
X27737565Y-27691419D01*
X27781746Y-27626757D01*
X27797290Y-27550000D01*
X27797290Y-27150000D01*
X27783798Y-27078293D01*
X27741419Y-27012435D01*
X27676757Y-26968254D01*
X27600000Y-26952710D01*
X27000000Y-26952710D01*
X26928293Y-26966202D01*
X26862435Y-27008581D01*
X26818254Y-27073243D01*
X26802710Y-27150000D01*
X26802710Y-27550000D01*
X26816202Y-27621707D01*
X26858581Y-27687565D01*
X26923243Y-27731746D01*
X27000000Y-27747290D01*
X27043000Y-27747290D01*
X27043000Y-27772219D01*
X27020812Y-27781387D01*
X26881867Y-27920090D01*
X26872354Y-27943000D01*
X26682938Y-27943000D01*
X26737100Y-27670710D01*
X26737100Y-27629290D01*
X26656633Y-27224755D01*
X26427483Y-26881807D01*
X26084535Y-26652657D01*
X25680000Y-26572190D01*
X25275465Y-26652657D01*
X25060047Y-26796594D01*
X24610742Y-26347290D01*
X24700000Y-26347290D01*
X24771707Y-26333798D01*
X24837565Y-26291419D01*
X24875415Y-26236024D01*
X24908581Y-26287565D01*
X24973243Y-26331746D01*
X25050000Y-26347290D01*
X25350000Y-26347290D01*
X25421707Y-26333798D01*
X25487565Y-26291419D01*
X25531746Y-26226757D01*
X25547290Y-26150000D01*
X25547290Y-25422290D01*
X26275000Y-25422290D01*
X26346707Y-25408798D01*
X26412565Y-25366419D01*
X26456746Y-25301757D01*
X26472290Y-25225000D01*
X26472290Y-24925000D01*
X26458798Y-24853293D01*
X26416419Y-24787435D01*
X26361024Y-24749585D01*
X26412565Y-24716419D01*
X26436082Y-24682000D01*
X26802710Y-24682000D01*
X26802710Y-24750000D01*
X26816202Y-24821707D01*
X26858581Y-24887565D01*
X26923243Y-24931746D01*
X27000000Y-24947290D01*
X27533501Y-24947290D01*
X27533501Y-25052710D01*
X27000000Y-25052710D01*
X26928293Y-25066202D01*
X26862435Y-25108581D01*
X26818254Y-25173243D01*
X26802710Y-25250000D01*
X26802710Y-25650000D01*
X26816202Y-25721707D01*
X26858581Y-25787565D01*
X26923243Y-25831746D01*
X27000000Y-25847290D01*
X27043000Y-25847290D01*
X27043000Y-26052710D01*
X27000000Y-26052710D01*
X26928293Y-26066202D01*
X26862435Y-26108581D01*
X26818254Y-26173243D01*
X26802710Y-26250000D01*
X26802710Y-26650000D01*
X26816202Y-26721707D01*
X26858581Y-26787565D01*
X26923243Y-26831746D01*
X27000000Y-26847290D01*
X27600000Y-26847290D01*
X27671707Y-26833798D01*
X27737565Y-26791419D01*
X27781746Y-26726757D01*
X27797290Y-26650000D01*
X27797290Y-26360743D01*
X27806500Y-26369953D01*
X27806500Y-26500000D01*
X27806415Y-26597733D01*
X27806500Y-26597939D01*
X27806500Y-28750000D01*
X27812427Y-28781500D01*
X17489123Y-28781500D01*
X17373965Y-28761185D01*
X17295872Y-28711425D01*
X17242763Y-28635564D01*
X17218500Y-28526078D01*
X17218500Y-24462107D01*
X18284500Y-24462107D01*
X18284500Y-24701875D01*
X18332125Y-24749500D01*
X18774500Y-24749500D01*
X18774500Y-24357125D01*
X18775500Y-24357125D01*
X18775500Y-24749500D01*
X19217875Y-24749500D01*
X19265500Y-24701875D01*
X19265500Y-24462107D01*
X19236498Y-24392091D01*
X19182910Y-24338502D01*
X19112893Y-24309500D01*
X18823125Y-24309500D01*
X18775500Y-24357125D01*
X18774500Y-24357125D01*
X18726875Y-24309500D01*
X18437107Y-24309500D01*
X18367090Y-24338502D01*
X18313502Y-24392091D01*
X18284500Y-24462107D01*
X17218500Y-24462107D01*
X17218500Y-24022733D01*
X17406415Y-24022733D01*
X17481387Y-24204180D01*
X17620090Y-24343125D01*
X17801406Y-24418414D01*
X17997733Y-24418585D01*
X18179180Y-24343613D01*
X18318125Y-24204910D01*
X18393414Y-24023594D01*
X18393459Y-23972420D01*
X18437107Y-23990500D01*
X18726875Y-23990500D01*
X18774500Y-23942875D01*
X18774500Y-23550500D01*
X18775500Y-23550500D01*
X18775500Y-23942875D01*
X18823125Y-23990500D01*
X19112893Y-23990500D01*
X19182910Y-23961498D01*
X19236498Y-23907909D01*
X19265500Y-23837893D01*
X19265500Y-23598125D01*
X19217875Y-23550500D01*
X18775500Y-23550500D01*
X18774500Y-23550500D01*
X18332125Y-23550500D01*
X18284500Y-23598125D01*
X18284500Y-23611647D01*
X18179910Y-23506875D01*
X18157000Y-23497362D01*
X18157000Y-23262107D01*
X18284500Y-23262107D01*
X18284500Y-23501875D01*
X18332125Y-23549500D01*
X18774500Y-23549500D01*
X18774500Y-23157125D01*
X18775500Y-23157125D01*
X18775500Y-23549500D01*
X19217875Y-23549500D01*
X19265500Y-23501875D01*
X19265500Y-23262107D01*
X19236498Y-23192091D01*
X19182910Y-23138502D01*
X19112893Y-23109500D01*
X18823125Y-23109500D01*
X18775500Y-23157125D01*
X18774500Y-23157125D01*
X18726875Y-23109500D01*
X18437107Y-23109500D01*
X18367090Y-23138502D01*
X18313502Y-23192091D01*
X18284500Y-23262107D01*
X18157000Y-23262107D01*
X18157000Y-23231452D01*
X18685992Y-22702461D01*
X18708581Y-22737565D01*
X18773243Y-22781746D01*
X18850000Y-22797290D01*
X19250000Y-22797290D01*
X19321707Y-22783798D01*
X19387565Y-22741419D01*
X19431746Y-22676757D01*
X19447290Y-22600000D01*
X19447290Y-22000000D01*
X19433798Y-21928293D01*
X19391419Y-21862435D01*
X19326757Y-21818254D01*
X19250000Y-21802710D01*
X18850000Y-21802710D01*
X18778293Y-21816202D01*
X18712435Y-21858581D01*
X18668254Y-21923243D01*
X18652710Y-22000000D01*
X18652710Y-22057379D01*
X18626650Y-22062563D01*
X18588384Y-22088132D01*
X18543273Y-22118274D01*
X17724302Y-22937246D01*
X17718274Y-22941274D01*
X17662563Y-23024650D01*
X17643000Y-23123000D01*
X17643000Y-23497222D01*
X17620820Y-23506387D01*
X17481875Y-23645090D01*
X17406586Y-23826406D01*
X17406415Y-24022733D01*
X17218500Y-24022733D01*
X17218500Y-22022733D01*
X17406415Y-22022733D01*
X17481387Y-22204180D01*
X17620090Y-22343125D01*
X17801406Y-22418414D01*
X17997733Y-22418585D01*
X18179180Y-22343613D01*
X18318125Y-22204910D01*
X18340527Y-22150959D01*
X18406726Y-22106726D01*
X19016163Y-21497290D01*
X19250000Y-21497290D01*
X19321707Y-21483798D01*
X19387565Y-21441419D01*
X19431746Y-21376757D01*
X19447290Y-21300000D01*
X19447290Y-20700000D01*
X19433798Y-20628293D01*
X19391419Y-20562435D01*
X19326757Y-20518254D01*
X19250000Y-20502710D01*
X18850000Y-20502710D01*
X18778293Y-20516202D01*
X18712435Y-20558581D01*
X18668254Y-20623243D01*
X18652710Y-20700000D01*
X18652710Y-21133837D01*
X18229748Y-21556800D01*
X18179910Y-21506875D01*
X17998594Y-21431586D01*
X17802267Y-21431415D01*
X17620820Y-21506387D01*
X17481875Y-21645090D01*
X17406586Y-21826406D01*
X17406415Y-22022733D01*
X17218500Y-22022733D01*
X17218500Y-18489123D01*
X17238815Y-18373965D01*
X17288577Y-18295870D01*
X17364432Y-18242764D01*
X17473922Y-18218500D01*
X27812879Y-18218500D01*
X27806500Y-18250000D01*
X27806500Y-18250000D01*
G37*
X27806500Y-18250000D02*
X27806500Y-20043000D01*
X27797290Y-20043000D01*
X27797290Y-19650000D01*
X27783798Y-19578293D01*
X27741419Y-19512435D01*
X27676757Y-19468254D01*
X27600000Y-19452710D01*
X27557000Y-19452710D01*
X27557000Y-19327772D01*
X27579166Y-19318613D01*
X27718111Y-19179910D01*
X27793400Y-18998594D01*
X27793571Y-18802267D01*
X27718599Y-18620820D01*
X27579896Y-18481875D01*
X27398580Y-18406586D01*
X27202253Y-18406415D01*
X27020806Y-18481387D01*
X26881861Y-18620090D01*
X26872348Y-18643000D01*
X26478371Y-18643000D01*
X26437483Y-18581807D01*
X26094535Y-18352657D01*
X25690000Y-18272190D01*
X25285465Y-18352657D01*
X24942517Y-18581807D01*
X24713367Y-18924755D01*
X24632900Y-19329290D01*
X24632900Y-19370710D01*
X24704729Y-19731819D01*
X23883838Y-20552710D01*
X23750000Y-20552710D01*
X23678293Y-20566202D01*
X23612435Y-20608581D01*
X23574585Y-20663976D01*
X23541419Y-20612435D01*
X23476757Y-20568254D01*
X23400000Y-20552710D01*
X23100000Y-20552710D01*
X23028293Y-20566202D01*
X22962435Y-20608581D01*
X22924585Y-20663976D01*
X22891419Y-20612435D01*
X22857000Y-20588918D01*
X22857000Y-20369529D01*
X23150000Y-20427810D01*
X23554535Y-20347343D01*
X23897483Y-20118193D01*
X24126633Y-19775245D01*
X24207100Y-19370710D01*
X24207100Y-19329290D01*
X24126633Y-18924755D01*
X23897483Y-18581807D01*
X23554535Y-18352657D01*
X23150000Y-18272190D01*
X22745465Y-18352657D01*
X22402517Y-18581807D01*
X22173367Y-18924755D01*
X22092900Y-19329290D01*
X22092900Y-19370710D01*
X22173367Y-19775245D01*
X22343000Y-20029119D01*
X22343000Y-20588913D01*
X22312435Y-20608581D01*
X22274585Y-20663976D01*
X22241419Y-20612435D01*
X22207000Y-20588918D01*
X22207000Y-20550000D01*
X22206549Y-20547733D01*
X22187438Y-20451651D01*
X22131727Y-20368274D01*
X21567433Y-19803980D01*
X21586633Y-19775245D01*
X21667100Y-19370710D01*
X21667100Y-19329290D01*
X21586633Y-18924755D01*
X21357483Y-18581807D01*
X21014535Y-18352657D01*
X20610000Y-18272190D01*
X20205465Y-18352657D01*
X19862517Y-18581807D01*
X19633367Y-18924755D01*
X19552900Y-19329290D01*
X19552900Y-19370710D01*
X19633367Y-19775245D01*
X19862517Y-20118193D01*
X20205465Y-20347343D01*
X20610000Y-20427810D01*
X21014535Y-20347343D01*
X21235948Y-20199400D01*
X21655410Y-20618863D01*
X21618254Y-20673243D01*
X21602710Y-20750000D01*
X21602710Y-21477710D01*
X20875000Y-21477710D01*
X20803293Y-21491202D01*
X20743276Y-21529823D01*
X20347290Y-21133838D01*
X20347290Y-20700000D01*
X20333798Y-20628293D01*
X20291419Y-20562435D01*
X20226757Y-20518254D01*
X20150000Y-20502710D01*
X19750000Y-20502710D01*
X19678293Y-20516202D01*
X19612435Y-20558581D01*
X19568254Y-20623243D01*
X19552710Y-20700000D01*
X19552710Y-21300000D01*
X19566202Y-21371707D01*
X19608581Y-21437565D01*
X19673243Y-21481746D01*
X19750000Y-21497290D01*
X19983838Y-21497290D01*
X20493274Y-22006727D01*
X20543255Y-22040122D01*
X20576650Y-22062437D01*
X20675000Y-22082000D01*
X20713913Y-22082000D01*
X20733581Y-22112565D01*
X20788976Y-22150415D01*
X20737435Y-22183581D01*
X20713918Y-22218000D01*
X20347290Y-22218000D01*
X20347290Y-22000000D01*
X20333798Y-21928293D01*
X20291419Y-21862435D01*
X20226757Y-21818254D01*
X20150000Y-21802710D01*
X19750000Y-21802710D01*
X19678293Y-21816202D01*
X19612435Y-21858581D01*
X19568254Y-21923243D01*
X19552710Y-22000000D01*
X19552710Y-22600000D01*
X19566202Y-22671707D01*
X19608581Y-22737565D01*
X19673243Y-22781746D01*
X19750000Y-22797290D01*
X20150000Y-22797290D01*
X20221707Y-22783798D01*
X20287565Y-22741419D01*
X20294001Y-22732000D01*
X20713913Y-22732000D01*
X20733581Y-22762565D01*
X20788976Y-22800415D01*
X20737435Y-22833581D01*
X20713918Y-22868000D01*
X20675000Y-22868000D01*
X20576650Y-22887563D01*
X20547561Y-22907000D01*
X20493274Y-22943273D01*
X20323123Y-23113425D01*
X20229538Y-23113754D01*
X20175000Y-23102710D01*
X19575000Y-23102710D01*
X19503293Y-23116202D01*
X19503122Y-23116312D01*
X19449776Y-23116500D01*
X19426920Y-23120843D01*
X19405723Y-23134483D01*
X19391503Y-23155295D01*
X19386500Y-23180000D01*
X19386500Y-23256595D01*
X19377710Y-23300000D01*
X19377710Y-23800000D01*
X19386500Y-23846717D01*
X19386500Y-24456595D01*
X19377710Y-24500000D01*
X19377710Y-24758837D01*
X19375047Y-24761500D01*
X19228875Y-24761500D01*
X19217875Y-24750500D01*
X18775500Y-24750500D01*
X18775500Y-24770500D01*
X18774500Y-24770500D01*
X18774500Y-24750500D01*
X18332125Y-24750500D01*
X18284500Y-24798125D01*
X18284500Y-25037893D01*
X18313502Y-25107909D01*
X18315417Y-25109824D01*
X18301650Y-25112563D01*
X18259962Y-25140418D01*
X18218273Y-25168274D01*
X17870758Y-25515790D01*
X17848594Y-25506586D01*
X17652267Y-25506415D01*
X17470820Y-25581387D01*
X17331875Y-25720090D01*
X17256586Y-25901406D01*
X17256415Y-26097733D01*
X17331387Y-26279180D01*
X17470090Y-26418125D01*
X17651406Y-26493414D01*
X17847733Y-26493585D01*
X18029180Y-26418613D01*
X18168125Y-26279910D01*
X18243414Y-26098594D01*
X18243501Y-25998125D01*
X18284500Y-25998125D01*
X18284500Y-26237893D01*
X18313502Y-26307909D01*
X18367090Y-26361498D01*
X18437107Y-26390500D01*
X18726875Y-26390500D01*
X18774500Y-26342875D01*
X18774500Y-25950500D01*
X18775500Y-25950500D01*
X18775500Y-26342875D01*
X18823125Y-26390500D01*
X19112893Y-26390500D01*
X19182910Y-26361498D01*
X19236498Y-26307909D01*
X19265500Y-26237893D01*
X19265500Y-25998125D01*
X19217875Y-25950500D01*
X18775500Y-25950500D01*
X18774500Y-25950500D01*
X18332125Y-25950500D01*
X18284500Y-25998125D01*
X18243501Y-25998125D01*
X18243585Y-25902267D01*
X18234112Y-25879340D01*
X18284500Y-25828952D01*
X18284500Y-25901875D01*
X18332125Y-25949500D01*
X18774500Y-25949500D01*
X18774500Y-25929500D01*
X18775500Y-25929500D01*
X18775500Y-25949500D01*
X19217875Y-25949500D01*
X19223875Y-25943500D01*
X19377710Y-25943500D01*
X19377710Y-26200000D01*
X19391202Y-26271707D01*
X19433581Y-26337565D01*
X19498243Y-26381746D01*
X19575000Y-26397290D01*
X20175000Y-26397290D01*
X20246707Y-26383798D01*
X20312565Y-26341419D01*
X20356746Y-26276757D01*
X20372290Y-26200000D01*
X20372290Y-25741163D01*
X20681726Y-25431727D01*
X20730813Y-25358263D01*
X20733581Y-25362565D01*
X20798243Y-25406746D01*
X20875000Y-25422290D01*
X21483838Y-25422290D01*
X21602710Y-25541163D01*
X21602710Y-26150000D01*
X21616202Y-26221707D01*
X21650753Y-26275400D01*
X21465200Y-26275400D01*
X21366850Y-26294963D01*
X21303093Y-26337565D01*
X21283474Y-26350674D01*
X20985314Y-26648834D01*
X20600000Y-26572190D01*
X20195465Y-26652657D01*
X19852517Y-26881807D01*
X19623367Y-27224755D01*
X19542900Y-27629290D01*
X19542900Y-27670710D01*
X19623367Y-28075245D01*
X19852517Y-28418193D01*
X20195465Y-28647343D01*
X20600000Y-28727810D01*
X21004535Y-28647343D01*
X21347483Y-28418193D01*
X21576633Y-28075245D01*
X21657100Y-27670710D01*
X21657100Y-27629290D01*
X21576633Y-27224755D01*
X21400259Y-26960793D01*
X21571652Y-26789400D01*
X22319200Y-26789400D01*
X22417550Y-26769837D01*
X22500926Y-26714126D01*
X22781726Y-26433327D01*
X22821743Y-26373437D01*
X22837437Y-26349950D01*
X22843430Y-26319819D01*
X22887565Y-26291419D01*
X22925415Y-26236024D01*
X22958581Y-26287565D01*
X22993000Y-26311082D01*
X22993000Y-26601430D01*
X22735465Y-26652657D01*
X22392517Y-26881807D01*
X22163367Y-27224755D01*
X22082900Y-27629290D01*
X22082900Y-27670710D01*
X22163367Y-28075245D01*
X22392517Y-28418193D01*
X22735465Y-28647343D01*
X23140000Y-28727810D01*
X23544535Y-28647343D01*
X23887483Y-28418193D01*
X24116633Y-28075245D01*
X24197100Y-27670710D01*
X24197100Y-27629290D01*
X24116633Y-27224755D01*
X23887483Y-26881807D01*
X23544535Y-26652657D01*
X23507000Y-26645191D01*
X23507000Y-26311087D01*
X23537565Y-26291419D01*
X23575415Y-26236024D01*
X23608581Y-26287565D01*
X23673243Y-26331746D01*
X23750000Y-26347290D01*
X23883838Y-26347290D01*
X24726573Y-27190025D01*
X24703367Y-27224755D01*
X24622900Y-27629290D01*
X24622900Y-27670710D01*
X24703367Y-28075245D01*
X24932517Y-28418193D01*
X25275465Y-28647343D01*
X25680000Y-28727810D01*
X26084535Y-28647343D01*
X26369404Y-28457000D01*
X26872214Y-28457000D01*
X26881379Y-28479180D01*
X27020082Y-28618125D01*
X27201398Y-28693414D01*
X27397725Y-28693585D01*
X27579172Y-28618613D01*
X27718117Y-28479910D01*
X27793406Y-28298594D01*
X27793577Y-28102267D01*
X27718605Y-27920820D01*
X27579902Y-27781875D01*
X27557000Y-27772365D01*
X27557000Y-27747290D01*
X27600000Y-27747290D01*
X27671707Y-27733798D01*
X27737565Y-27691419D01*
X27781746Y-27626757D01*
X27797290Y-27550000D01*
X27797290Y-27150000D01*
X27783798Y-27078293D01*
X27741419Y-27012435D01*
X27676757Y-26968254D01*
X27600000Y-26952710D01*
X27000000Y-26952710D01*
X26928293Y-26966202D01*
X26862435Y-27008581D01*
X26818254Y-27073243D01*
X26802710Y-27150000D01*
X26802710Y-27550000D01*
X26816202Y-27621707D01*
X26858581Y-27687565D01*
X26923243Y-27731746D01*
X27000000Y-27747290D01*
X27043000Y-27747290D01*
X27043000Y-27772219D01*
X27020812Y-27781387D01*
X26881867Y-27920090D01*
X26872354Y-27943000D01*
X26682938Y-27943000D01*
X26737100Y-27670710D01*
X26737100Y-27629290D01*
X26656633Y-27224755D01*
X26427483Y-26881807D01*
X26084535Y-26652657D01*
X25680000Y-26572190D01*
X25275465Y-26652657D01*
X25060047Y-26796594D01*
X24610742Y-26347290D01*
X24700000Y-26347290D01*
X24771707Y-26333798D01*
X24837565Y-26291419D01*
X24875415Y-26236024D01*
X24908581Y-26287565D01*
X24973243Y-26331746D01*
X25050000Y-26347290D01*
X25350000Y-26347290D01*
X25421707Y-26333798D01*
X25487565Y-26291419D01*
X25531746Y-26226757D01*
X25547290Y-26150000D01*
X25547290Y-25422290D01*
X26275000Y-25422290D01*
X26346707Y-25408798D01*
X26412565Y-25366419D01*
X26456746Y-25301757D01*
X26472290Y-25225000D01*
X26472290Y-24925000D01*
X26458798Y-24853293D01*
X26416419Y-24787435D01*
X26361024Y-24749585D01*
X26412565Y-24716419D01*
X26436082Y-24682000D01*
X26802710Y-24682000D01*
X26802710Y-24750000D01*
X26816202Y-24821707D01*
X26858581Y-24887565D01*
X26923243Y-24931746D01*
X27000000Y-24947290D01*
X27533501Y-24947290D01*
X27533501Y-25052710D01*
X27000000Y-25052710D01*
X26928293Y-25066202D01*
X26862435Y-25108581D01*
X26818254Y-25173243D01*
X26802710Y-25250000D01*
X26802710Y-25650000D01*
X26816202Y-25721707D01*
X26858581Y-25787565D01*
X26923243Y-25831746D01*
X27000000Y-25847290D01*
X27043000Y-25847290D01*
X27043000Y-26052710D01*
X27000000Y-26052710D01*
X26928293Y-26066202D01*
X26862435Y-26108581D01*
X26818254Y-26173243D01*
X26802710Y-26250000D01*
X26802710Y-26650000D01*
X26816202Y-26721707D01*
X26858581Y-26787565D01*
X26923243Y-26831746D01*
X27000000Y-26847290D01*
X27600000Y-26847290D01*
X27671707Y-26833798D01*
X27737565Y-26791419D01*
X27781746Y-26726757D01*
X27797290Y-26650000D01*
X27797290Y-26360743D01*
X27806500Y-26369953D01*
X27806500Y-26500000D01*
X27806415Y-26597733D01*
X27806500Y-26597939D01*
X27806500Y-28750000D01*
X27812427Y-28781500D01*
X17489123Y-28781500D01*
X17373965Y-28761185D01*
X17295872Y-28711425D01*
X17242763Y-28635564D01*
X17218500Y-28526078D01*
X17218500Y-24462107D01*
X18284500Y-24462107D01*
X18284500Y-24701875D01*
X18332125Y-24749500D01*
X18774500Y-24749500D01*
X18774500Y-24357125D01*
X18775500Y-24357125D01*
X18775500Y-24749500D01*
X19217875Y-24749500D01*
X19265500Y-24701875D01*
X19265500Y-24462107D01*
X19236498Y-24392091D01*
X19182910Y-24338502D01*
X19112893Y-24309500D01*
X18823125Y-24309500D01*
X18775500Y-24357125D01*
X18774500Y-24357125D01*
X18726875Y-24309500D01*
X18437107Y-24309500D01*
X18367090Y-24338502D01*
X18313502Y-24392091D01*
X18284500Y-24462107D01*
X17218500Y-24462107D01*
X17218500Y-24022733D01*
X17406415Y-24022733D01*
X17481387Y-24204180D01*
X17620090Y-24343125D01*
X17801406Y-24418414D01*
X17997733Y-24418585D01*
X18179180Y-24343613D01*
X18318125Y-24204910D01*
X18393414Y-24023594D01*
X18393459Y-23972420D01*
X18437107Y-23990500D01*
X18726875Y-23990500D01*
X18774500Y-23942875D01*
X18774500Y-23550500D01*
X18775500Y-23550500D01*
X18775500Y-23942875D01*
X18823125Y-23990500D01*
X19112893Y-23990500D01*
X19182910Y-23961498D01*
X19236498Y-23907909D01*
X19265500Y-23837893D01*
X19265500Y-23598125D01*
X19217875Y-23550500D01*
X18775500Y-23550500D01*
X18774500Y-23550500D01*
X18332125Y-23550500D01*
X18284500Y-23598125D01*
X18284500Y-23611647D01*
X18179910Y-23506875D01*
X18157000Y-23497362D01*
X18157000Y-23262107D01*
X18284500Y-23262107D01*
X18284500Y-23501875D01*
X18332125Y-23549500D01*
X18774500Y-23549500D01*
X18774500Y-23157125D01*
X18775500Y-23157125D01*
X18775500Y-23549500D01*
X19217875Y-23549500D01*
X19265500Y-23501875D01*
X19265500Y-23262107D01*
X19236498Y-23192091D01*
X19182910Y-23138502D01*
X19112893Y-23109500D01*
X18823125Y-23109500D01*
X18775500Y-23157125D01*
X18774500Y-23157125D01*
X18726875Y-23109500D01*
X18437107Y-23109500D01*
X18367090Y-23138502D01*
X18313502Y-23192091D01*
X18284500Y-23262107D01*
X18157000Y-23262107D01*
X18157000Y-23231452D01*
X18685992Y-22702461D01*
X18708581Y-22737565D01*
X18773243Y-22781746D01*
X18850000Y-22797290D01*
X19250000Y-22797290D01*
X19321707Y-22783798D01*
X19387565Y-22741419D01*
X19431746Y-22676757D01*
X19447290Y-22600000D01*
X19447290Y-22000000D01*
X19433798Y-21928293D01*
X19391419Y-21862435D01*
X19326757Y-21818254D01*
X19250000Y-21802710D01*
X18850000Y-21802710D01*
X18778293Y-21816202D01*
X18712435Y-21858581D01*
X18668254Y-21923243D01*
X18652710Y-22000000D01*
X18652710Y-22057379D01*
X18626650Y-22062563D01*
X18588384Y-22088132D01*
X18543273Y-22118274D01*
X17724302Y-22937246D01*
X17718274Y-22941274D01*
X17662563Y-23024650D01*
X17643000Y-23123000D01*
X17643000Y-23497222D01*
X17620820Y-23506387D01*
X17481875Y-23645090D01*
X17406586Y-23826406D01*
X17406415Y-24022733D01*
X17218500Y-24022733D01*
X17218500Y-22022733D01*
X17406415Y-22022733D01*
X17481387Y-22204180D01*
X17620090Y-22343125D01*
X17801406Y-22418414D01*
X17997733Y-22418585D01*
X18179180Y-22343613D01*
X18318125Y-22204910D01*
X18340527Y-22150959D01*
X18406726Y-22106726D01*
X19016163Y-21497290D01*
X19250000Y-21497290D01*
X19321707Y-21483798D01*
X19387565Y-21441419D01*
X19431746Y-21376757D01*
X19447290Y-21300000D01*
X19447290Y-20700000D01*
X19433798Y-20628293D01*
X19391419Y-20562435D01*
X19326757Y-20518254D01*
X19250000Y-20502710D01*
X18850000Y-20502710D01*
X18778293Y-20516202D01*
X18712435Y-20558581D01*
X18668254Y-20623243D01*
X18652710Y-20700000D01*
X18652710Y-21133837D01*
X18229748Y-21556800D01*
X18179910Y-21506875D01*
X17998594Y-21431586D01*
X17802267Y-21431415D01*
X17620820Y-21506387D01*
X17481875Y-21645090D01*
X17406586Y-21826406D01*
X17406415Y-22022733D01*
X17218500Y-22022733D01*
X17218500Y-18489123D01*
X17238815Y-18373965D01*
X17288577Y-18295870D01*
X17364432Y-18242764D01*
X17473922Y-18218500D01*
X27812879Y-18218500D01*
X27806500Y-18250000D01*
G36*
X22775500Y-22649500D02*
X24374500Y-22649500D01*
X24374500Y-22629500D01*
X24375500Y-22629500D01*
X24375500Y-22649500D01*
X24395500Y-22649500D01*
X24395500Y-22650500D01*
X24375500Y-22650500D01*
X24375500Y-24249500D01*
X24395500Y-24249500D01*
X24395500Y-24250500D01*
X24375500Y-24250500D01*
X24375500Y-24270500D01*
X24374500Y-24270500D01*
X24374500Y-24250500D01*
X22775500Y-24250500D01*
X22775500Y-24270500D01*
X22774500Y-24270500D01*
X22774500Y-24250500D01*
X22754500Y-24250500D01*
X22754500Y-24249500D01*
X22774500Y-24249500D01*
X22774500Y-22650500D01*
X22775500Y-22650500D01*
X22775500Y-24249500D01*
X24374500Y-24249500D01*
X24374500Y-22650500D01*
X22775500Y-22650500D01*
X22774500Y-22650500D01*
X22754500Y-22650500D01*
X22754500Y-22649500D01*
X22774500Y-22649500D01*
X22774500Y-22629500D01*
X22775500Y-22629500D01*
X22775500Y-22649500D01*
X22775500Y-22649500D01*
G37*
X22775500Y-22649500D02*
X24374500Y-22649500D01*
X24374500Y-22629500D01*
X24375500Y-22629500D01*
X24375500Y-22649500D01*
X24395500Y-22649500D01*
X24395500Y-22650500D01*
X24375500Y-22650500D01*
X24375500Y-24249500D01*
X24395500Y-24249500D01*
X24395500Y-24250500D01*
X24375500Y-24250500D01*
X24375500Y-24270500D01*
X24374500Y-24270500D01*
X24374500Y-24250500D01*
X22775500Y-24250500D01*
X22775500Y-24270500D01*
X22774500Y-24270500D01*
X22774500Y-24250500D01*
X22754500Y-24250500D01*
X22754500Y-24249500D01*
X22774500Y-24249500D01*
X22774500Y-22650500D01*
X22775500Y-22650500D01*
X22775500Y-24249500D01*
X24374500Y-24249500D01*
X24374500Y-22650500D01*
X22775500Y-22650500D01*
X22774500Y-22650500D01*
X22754500Y-22650500D01*
X22754500Y-22649500D01*
X22774500Y-22649500D01*
X22774500Y-22629500D01*
X22775500Y-22629500D01*
X22775500Y-22649500D01*
D22*
G36*
X29206339Y-18395118D02*
X29218872Y-18426451D01*
X29238872Y-18476452D01*
X29245538Y-18486697D01*
X29249661Y-18498203D01*
X29271076Y-18533896D01*
X29285800Y-18578067D01*
X29344754Y-18754929D01*
X29383848Y-18891758D01*
X29386677Y-18897264D01*
X29387678Y-18903371D01*
X29415528Y-18977637D01*
X29433154Y-19039329D01*
X29452538Y-19116865D01*
X29470059Y-19186951D01*
X29478930Y-19266786D01*
X29481435Y-19274687D01*
X29481620Y-19282973D01*
X29501619Y-19372973D01*
X29502439Y-19374834D01*
X29502538Y-19376865D01*
X29521663Y-19453365D01*
X29540952Y-19549809D01*
X29541583Y-19551329D01*
X29541620Y-19552973D01*
X29559655Y-19634134D01*
X29568754Y-19725125D01*
X29570944Y-19732306D01*
X29570952Y-19739810D01*
X29590952Y-19839809D01*
X29590952Y-19839810D01*
X29609493Y-19932513D01*
X29618754Y-20025125D01*
X29620554Y-20031026D01*
X29620452Y-20037191D01*
X29639360Y-20141183D01*
X29648754Y-20235125D01*
X29650554Y-20241026D01*
X29650452Y-20247191D01*
X29669238Y-20350511D01*
X29678575Y-20453223D01*
X29688525Y-20572623D01*
X29690574Y-20579764D01*
X29690452Y-20587191D01*
X29709136Y-20689950D01*
X29718525Y-20802623D01*
X29724390Y-20873000D01*
X28127000Y-20873000D01*
X28127000Y-18377000D01*
X29192750Y-18377000D01*
X29206339Y-18395118D01*
X29206339Y-18395118D01*
G37*
X29206339Y-18395118D02*
X29218872Y-18426451D01*
X29238872Y-18476452D01*
X29245538Y-18486697D01*
X29249661Y-18498203D01*
X29271076Y-18533896D01*
X29285800Y-18578067D01*
X29344754Y-18754929D01*
X29383848Y-18891758D01*
X29386677Y-18897264D01*
X29387678Y-18903371D01*
X29415528Y-18977637D01*
X29433154Y-19039329D01*
X29452538Y-19116865D01*
X29470059Y-19186951D01*
X29478930Y-19266786D01*
X29481435Y-19274687D01*
X29481620Y-19282973D01*
X29501619Y-19372973D01*
X29502439Y-19374834D01*
X29502538Y-19376865D01*
X29521663Y-19453365D01*
X29540952Y-19549809D01*
X29541583Y-19551329D01*
X29541620Y-19552973D01*
X29559655Y-19634134D01*
X29568754Y-19725125D01*
X29570944Y-19732306D01*
X29570952Y-19739810D01*
X29590952Y-19839809D01*
X29590952Y-19839810D01*
X29609493Y-19932513D01*
X29618754Y-20025125D01*
X29620554Y-20031026D01*
X29620452Y-20037191D01*
X29639360Y-20141183D01*
X29648754Y-20235125D01*
X29650554Y-20241026D01*
X29650452Y-20247191D01*
X29669238Y-20350511D01*
X29678575Y-20453223D01*
X29688525Y-20572623D01*
X29690574Y-20579764D01*
X29690452Y-20587191D01*
X29709136Y-20689950D01*
X29718525Y-20802623D01*
X29724390Y-20873000D01*
X28127000Y-20873000D01*
X28127000Y-18377000D01*
X29192750Y-18377000D01*
X29206339Y-18395118D01*
G36*
X29768448Y-21411658D02*
X29768581Y-21412132D01*
X29768525Y-21412623D01*
X29778489Y-21532191D01*
X29788448Y-21661658D01*
X29788581Y-21662132D01*
X29788525Y-21662623D01*
X29798489Y-21782191D01*
X29808000Y-21905834D01*
X29808000Y-22030000D01*
X29809152Y-22035794D01*
X29808448Y-22041658D01*
X29828000Y-22295834D01*
X29828000Y-22430000D01*
X29829152Y-22435794D01*
X29828448Y-22441658D01*
X29838000Y-22565834D01*
X29838000Y-22830000D01*
X29839152Y-22835794D01*
X29838448Y-22841658D01*
X29848000Y-22965834D01*
X29848000Y-23123000D01*
X29628600Y-23123000D01*
X29628600Y-22621033D01*
X29580751Y-22380478D01*
X29444487Y-22176546D01*
X29240555Y-22040282D01*
X29000000Y-21992433D01*
X28759445Y-22040282D01*
X28555513Y-22176546D01*
X28419249Y-22380478D01*
X28390102Y-22527010D01*
X28127000Y-22263908D01*
X28127000Y-21377000D01*
X29765782Y-21377000D01*
X29768448Y-21411658D01*
X29768448Y-21411658D01*
G37*
X29768448Y-21411658D02*
X29768581Y-21412132D01*
X29768525Y-21412623D01*
X29778489Y-21532191D01*
X29788448Y-21661658D01*
X29788581Y-21662132D01*
X29788525Y-21662623D01*
X29798489Y-21782191D01*
X29808000Y-21905834D01*
X29808000Y-22030000D01*
X29809152Y-22035794D01*
X29808448Y-22041658D01*
X29828000Y-22295834D01*
X29828000Y-22430000D01*
X29829152Y-22435794D01*
X29828448Y-22441658D01*
X29838000Y-22565834D01*
X29838000Y-22830000D01*
X29839152Y-22835794D01*
X29838448Y-22841658D01*
X29848000Y-22965834D01*
X29848000Y-23123000D01*
X29628600Y-23123000D01*
X29628600Y-22621033D01*
X29580751Y-22380478D01*
X29444487Y-22176546D01*
X29240555Y-22040282D01*
X29000000Y-21992433D01*
X28759445Y-22040282D01*
X28555513Y-22176546D01*
X28419249Y-22380478D01*
X28390102Y-22527010D01*
X28127000Y-22263908D01*
X28127000Y-21377000D01*
X29765782Y-21377000D01*
X29768448Y-21411658D01*
G36*
X28371400Y-24378967D02*
X28419249Y-24619522D01*
X28555513Y-24823454D01*
X28759445Y-24959718D01*
X29000000Y-25007567D01*
X29240555Y-24959718D01*
X29444487Y-24823454D01*
X29580751Y-24619522D01*
X29628600Y-24378967D01*
X29628600Y-23877000D01*
X29848000Y-23877000D01*
X29848000Y-24034166D01*
X29838448Y-24158342D01*
X29839152Y-24164206D01*
X29838000Y-24170000D01*
X29838000Y-24434166D01*
X29828448Y-24558342D01*
X29829152Y-24564206D01*
X29828000Y-24570000D01*
X29828000Y-24704166D01*
X29808448Y-24958342D01*
X29809152Y-24964206D01*
X29808000Y-24970000D01*
X29808000Y-25094166D01*
X29798489Y-25217809D01*
X29788525Y-25337377D01*
X29788581Y-25337868D01*
X29788448Y-25338342D01*
X29778489Y-25467809D01*
X29768525Y-25587377D01*
X29768581Y-25587868D01*
X29768448Y-25588342D01*
X29765782Y-25623000D01*
X28127000Y-25623000D01*
X28127000Y-23877000D01*
X28371400Y-23877000D01*
X28371400Y-24378967D01*
X28371400Y-24378967D01*
G37*
X28371400Y-24378967D02*
X28419249Y-24619522D01*
X28555513Y-24823454D01*
X28759445Y-24959718D01*
X29000000Y-25007567D01*
X29240555Y-24959718D01*
X29444487Y-24823454D01*
X29580751Y-24619522D01*
X29628600Y-24378967D01*
X29628600Y-23877000D01*
X29848000Y-23877000D01*
X29848000Y-24034166D01*
X29838448Y-24158342D01*
X29839152Y-24164206D01*
X29838000Y-24170000D01*
X29838000Y-24434166D01*
X29828448Y-24558342D01*
X29829152Y-24564206D01*
X29828000Y-24570000D01*
X29828000Y-24704166D01*
X29808448Y-24958342D01*
X29809152Y-24964206D01*
X29808000Y-24970000D01*
X29808000Y-25094166D01*
X29798489Y-25217809D01*
X29788525Y-25337377D01*
X29788581Y-25337868D01*
X29788448Y-25338342D01*
X29778489Y-25467809D01*
X29768525Y-25587377D01*
X29768581Y-25587868D01*
X29768448Y-25588342D01*
X29765782Y-25623000D01*
X28127000Y-25623000D01*
X28127000Y-23877000D01*
X28371400Y-23877000D01*
X28371400Y-24378967D01*
G36*
X29718525Y-26197377D02*
X29709136Y-26310050D01*
X29690452Y-26412809D01*
X29690574Y-26420236D01*
X29688525Y-26427377D01*
X29678575Y-26546777D01*
X29669238Y-26649489D01*
X29650452Y-26752809D01*
X29650554Y-26758974D01*
X29648754Y-26764875D01*
X29639360Y-26858817D01*
X29620452Y-26962809D01*
X29620554Y-26968974D01*
X29618754Y-26974875D01*
X29609493Y-27067487D01*
X29590952Y-27160190D01*
X29590952Y-27160191D01*
X29570952Y-27260190D01*
X29570944Y-27267694D01*
X29568754Y-27274875D01*
X29559655Y-27365866D01*
X29541620Y-27447027D01*
X29541583Y-27448671D01*
X29540952Y-27450191D01*
X29521663Y-27546635D01*
X29502538Y-27623135D01*
X29502439Y-27625166D01*
X29501619Y-27627027D01*
X29481620Y-27717027D01*
X29481435Y-27725313D01*
X29478930Y-27733214D01*
X29470059Y-27813049D01*
X29452538Y-27883135D01*
X29433154Y-27960671D01*
X29415528Y-28022363D01*
X29387678Y-28096629D01*
X29386677Y-28102736D01*
X29383848Y-28108242D01*
X29344754Y-28245071D01*
X29285800Y-28421933D01*
X29271076Y-28466104D01*
X29249661Y-28501797D01*
X29245538Y-28513303D01*
X29238872Y-28523548D01*
X29218873Y-28573546D01*
X29218872Y-28573548D01*
X29206339Y-28604882D01*
X29192750Y-28623000D01*
X28127000Y-28623000D01*
X28127000Y-26127000D01*
X29724390Y-26127000D01*
X29718525Y-26197377D01*
X29718525Y-26197377D01*
G37*
X29718525Y-26197377D02*
X29709136Y-26310050D01*
X29690452Y-26412809D01*
X29690574Y-26420236D01*
X29688525Y-26427377D01*
X29678575Y-26546777D01*
X29669238Y-26649489D01*
X29650452Y-26752809D01*
X29650554Y-26758974D01*
X29648754Y-26764875D01*
X29639360Y-26858817D01*
X29620452Y-26962809D01*
X29620554Y-26968974D01*
X29618754Y-26974875D01*
X29609493Y-27067487D01*
X29590952Y-27160190D01*
X29590952Y-27160191D01*
X29570952Y-27260190D01*
X29570944Y-27267694D01*
X29568754Y-27274875D01*
X29559655Y-27365866D01*
X29541620Y-27447027D01*
X29541583Y-27448671D01*
X29540952Y-27450191D01*
X29521663Y-27546635D01*
X29502538Y-27623135D01*
X29502439Y-27625166D01*
X29501619Y-27627027D01*
X29481620Y-27717027D01*
X29481435Y-27725313D01*
X29478930Y-27733214D01*
X29470059Y-27813049D01*
X29452538Y-27883135D01*
X29433154Y-27960671D01*
X29415528Y-28022363D01*
X29387678Y-28096629D01*
X29386677Y-28102736D01*
X29383848Y-28108242D01*
X29344754Y-28245071D01*
X29285800Y-28421933D01*
X29271076Y-28466104D01*
X29249661Y-28501797D01*
X29245538Y-28513303D01*
X29238872Y-28523548D01*
X29218873Y-28573546D01*
X29218872Y-28573548D01*
X29206339Y-28604882D01*
X29192750Y-28623000D01*
X28127000Y-28623000D01*
X28127000Y-26127000D01*
X29724390Y-26127000D01*
X29718525Y-26197377D01*
D23*
X17750010Y-21000000D03*
X21879999Y-18520000D03*
X24670000Y-18520000D03*
X27299986Y-18900000D03*
X27299992Y-28200000D03*
X17750000Y-26000000D03*
X17900000Y-21925000D03*
X17900000Y-23925000D03*
X28300000Y-21775000D03*
X27809490Y-23222085D03*
X28300000Y-26500000D03*
X28300000Y-20450000D03*
X28300000Y-25250000D03*
D24*
X29000000Y-23500000D03*
M02*
